  0
SECTION
  2
HEADER
  9
$ANGBASE
  50
0.0
  9
$ANGDIR
  70
1
  9
$MEASUREMENT
  70
1
  0
ENDSEC
  0
SECTION
  2
TABLES
  0
TABLE
  2
LTYPE
  70
4
  0
LTYPE
  5
40F
  2
CONTINUOUS
  70
0
  3
Solid line
  72
65
  73
0
  40
0.0
  0
LTYPE
  5
410
  2
DASHDOT
 70
0
  3
Dash Dot ____ _ ____ _
 72
65
 73
4
 40
2.0
 49
1.25
 49
-0.25
 49
0.25
 49
-0.25
  0
LTYPE
  5
411
  2
DASHED
 70
0
  3
Dashed __ __ __ __ __
 72
65
 73
2
 40
0.75
 49
0.5
 49
-0.25
  0
LTYPE
  5
43B
  2
DOTTED
 70
0
  3
Dotted .  .  .  .
 72
65
 73
2
 40
0.2
 49
0.0
 49
-0.2
  0
ENDTAB
  0
TABLE
  2
STYLE
  70
4
  0
STYLE
  2
KICAD
  70
0
  40
0
  41
1
  42
1
  50
0
  71
0
  3
isocp.shx
  0
STYLE
  2
KICADB
  70
0
  40
0
  41
1
  42
1
  50
0
  71
0
  3
isocp.shx
  0
STYLE
  2
KICADI
  70
0
  40
0
  41
1
  42
1
  50
15
  71
0
  3
isocp.shx
  0
STYLE
  2
KICADBI
  70
0
  40
0
  41
1
  42
1
  50
15
  71
0
  3
isocp.shx
  0
ENDTAB
  0
TABLE
  2
LAYER
  70
1
  0
LAYER
  2
BLACK
  70
0
  62
7
  6
CONTINUOUS
  0
ENDTAB
  0
ENDSEC
  0
SECTION
  2
ENTITIES
0
ARC
8
BLACK
10
83.532
20
-155.968
40
0.5
50
-180
51
-90
0
ARC
8
BLACK
10
123.332
20
-106.968
40
2
50
-0
51
90
0
LINE
8
BLACK
6
CONTINUOUS
10
123.332
20
-104.968
11
85.032
21
-104.968
0
ARC
8
BLACK
10
124.832
20
-149.468
40
0.5
50
-90
51
-0
0
LINE
8
BLACK
6
CONTINUOUS
10
86.832
20
-156.468
11
83.532
21
-156.468
0
LINE
8
BLACK
6
CONTINUOUS
10
115.332
20
-156.468
11
105.132
21
-156.468
0
ARC
8
BLACK
10
105.132
20
-155.968
40
0.5
50
-180
51
-90
0
ARC
8
BLACK
10
115.332
20
-155.968
40
0.5
50
-90
51
-0
0
LINE
8
BLACK
6
CONTINUOUS
10
115.832
20
-155.968
11
115.832
21
-150.468
0
LINE
8
BLACK
6
CONTINUOUS
10
104.632
20
-149.968
11
87.332
21
-149.968
0
ARC
8
BLACK
10
116.332
20
-150.468
40
0.5
50
90
51
180
0
LINE
8
BLACK
6
CONTINUOUS
10
87.332
20
-149.968
11
87.332
21
-155.968
0
LINE
8
BLACK
6
CONTINUOUS
10
104.632
20
-155.968
11
104.632
21
-149.968
0
ARC
8
BLACK
10
86.832
20
-155.968
40
0.5
50
-90
51
-0
0
LINE
8
BLACK
6
CONTINUOUS
10
83.032
20
-155.968
11
83.032
21
-106.968
0
ARC
8
BLACK
10
85.032
20
-106.968
40
2
50
90
51
180
0
LINE
8
BLACK
6
CONTINUOUS
10
125.332
20
-106.968
11
125.332
21
-149.468
0
LINE
8
BLACK
6
CONTINUOUS
10
124.832
20
-149.968
11
116.332
21
-149.968
0
LINE
8
BLACK
6
CONTINUOUS
10
84.3312
20
-144.605
11
84.7312
21
-145.005
0
LINE
8
BLACK
6
CONTINUOUS
10
84.7312
20
-144.605
11
84.3312
21
-145.005
0
LINE
8
BLACK
6
CONTINUOUS
10
84.8392
20
-143.361
11
85.2392
21
-143.761
0
LINE
8
BLACK
6
CONTINUOUS
10
85.2392
20
-143.361
11
84.8392
21
-143.761
0
LINE
8
BLACK
6
CONTINUOUS
10
86.541
20
-128.07
11
86.941
21
-128.47
0
LINE
8
BLACK
6
CONTINUOUS
10
86.941
20
-128.07
11
86.541
21
-128.47
0
LINE
8
BLACK
6
CONTINUOUS
10
88
20
-117.2
11
88.4
21
-117.6
0
LINE
8
BLACK
6
CONTINUOUS
10
88.4
20
-117.2
11
88
21
-117.6
0
LINE
8
BLACK
6
CONTINUOUS
10
88.5
20
-133.1
11
88.9
21
-133.5
0
LINE
8
BLACK
6
CONTINUOUS
10
88.9
20
-133.1
11
88.5
21
-133.5
0
LINE
8
BLACK
6
CONTINUOUS
10
88.5
20
-138.25
11
88.9
21
-138.65
0
LINE
8
BLACK
6
CONTINUOUS
10
88.9
20
-138.25
11
88.5
21
-138.65
0
LINE
8
BLACK
6
CONTINUOUS
10
88.954
20
-148.39
11
89.354
21
-148.79
0
LINE
8
BLACK
6
CONTINUOUS
10
89.354
20
-148.39
11
88.954
21
-148.79
0
LINE
8
BLACK
6
CONTINUOUS
10
89.2
20
-147.15
11
89.6
21
-147.55
0
LINE
8
BLACK
6
CONTINUOUS
10
89.6
20
-147.15
11
89.2
21
-147.55
0
LINE
8
BLACK
6
CONTINUOUS
10
89.208
20
-115.472
11
89.608
21
-115.872
0
LINE
8
BLACK
6
CONTINUOUS
10
89.608
20
-115.472
11
89.208
21
-115.872
0
LINE
8
BLACK
6
CONTINUOUS
10
89.575
20
-129
11
89.975
21
-129.4
0
LINE
8
BLACK
6
CONTINUOUS
10
89.975
20
-129
11
89.575
21
-129.4
0
LINE
8
BLACK
6
CONTINUOUS
10
90.5
20
-135.4
11
90.9
21
-135.8
0
LINE
8
BLACK
6
CONTINUOUS
10
90.9
20
-135.4
11
90.5
21
-135.8
0
LINE
8
BLACK
6
CONTINUOUS
10
92.7
20
-137.85
11
93.1
21
-138.25
0
LINE
8
BLACK
6
CONTINUOUS
10
93.1
20
-137.85
11
92.7
21
-138.25
0
LINE
8
BLACK
6
CONTINUOUS
10
93.8
20
-123.117
11
94.2
21
-123.517
0
LINE
8
BLACK
6
CONTINUOUS
10
94.2
20
-123.117
11
93.8
21
-123.517
0
LINE
8
BLACK
6
CONTINUOUS
10
94.9484
20
-139.551
11
95.3484
21
-139.951
0
LINE
8
BLACK
6
CONTINUOUS
10
95.3484
20
-139.551
11
94.9484
21
-139.951
0
LINE
8
BLACK
6
CONTINUOUS
10
94.9484
20
-141.075
11
95.3484
21
-141.475
0
LINE
8
BLACK
6
CONTINUOUS
10
95.3484
20
-141.075
11
94.9484
21
-141.475
0
LINE
8
BLACK
6
CONTINUOUS
10
94.9484
20
-142.599
11
95.3484
21
-142.999
0
LINE
8
BLACK
6
CONTINUOUS
10
95.3484
20
-142.599
11
94.9484
21
-142.999
0
LINE
8
BLACK
6
CONTINUOUS
10
96.447
20
-139.551
11
96.847
21
-139.951
0
LINE
8
BLACK
6
CONTINUOUS
10
96.847
20
-139.551
11
96.447
21
-139.951
0
LINE
8
BLACK
6
CONTINUOUS
10
96.447
20
-141.075
11
96.847
21
-141.475
0
LINE
8
BLACK
6
CONTINUOUS
10
96.847
20
-141.075
11
96.447
21
-141.475
0
LINE
8
BLACK
6
CONTINUOUS
10
96.447
20
-142.599
11
96.847
21
-142.999
0
LINE
8
BLACK
6
CONTINUOUS
10
96.847
20
-142.599
11
96.447
21
-142.999
0
LINE
8
BLACK
6
CONTINUOUS
10
97.3
20
-123.9
11
97.7
21
-124.3
0
LINE
8
BLACK
6
CONTINUOUS
10
97.7
20
-123.9
11
97.3
21
-124.3
0
LINE
8
BLACK
6
CONTINUOUS
10
97.971
20
-139.551
11
98.371
21
-139.951
0
LINE
8
BLACK
6
CONTINUOUS
10
98.371
20
-139.551
11
97.971
21
-139.951
0
LINE
8
BLACK
6
CONTINUOUS
10
97.971
20
-141.075
11
98.371
21
-141.475
0
LINE
8
BLACK
6
CONTINUOUS
10
98.371
20
-141.075
11
97.971
21
-141.475
0
LINE
8
BLACK
6
CONTINUOUS
10
97.971
20
-142.599
11
98.371
21
-142.999
0
LINE
8
BLACK
6
CONTINUOUS
10
98.371
20
-142.599
11
97.971
21
-142.999
0
LINE
8
BLACK
6
CONTINUOUS
10
98.9
20
-117
11
99.3
21
-117.4
0
LINE
8
BLACK
6
CONTINUOUS
10
99.3
20
-117
11
98.9
21
-117.4
0
LINE
8
BLACK
6
CONTINUOUS
10
100.5
20
-105.718
11
100.9
21
-106.118
0
LINE
8
BLACK
6
CONTINUOUS
10
100.9
20
-105.718
11
100.5
21
-106.118
0
LINE
8
BLACK
6
CONTINUOUS
10
100.5
20
-107.242
11
100.9
21
-107.642
0
LINE
8
BLACK
6
CONTINUOUS
10
100.9
20
-107.242
11
100.5
21
-107.642
0
LINE
8
BLACK
6
CONTINUOUS
10
100.5
20
-108.893
11
100.9
21
-109.293
0
LINE
8
BLACK
6
CONTINUOUS
10
100.9
20
-108.893
11
100.5
21
-109.293
0
LINE
8
BLACK
6
CONTINUOUS
10
100.5
20
-110.671
11
100.9
21
-111.071
0
LINE
8
BLACK
6
CONTINUOUS
10
100.9
20
-110.671
11
100.5
21
-111.071
0
LINE
8
BLACK
6
CONTINUOUS
10
100.5
20
-112.3
11
100.9
21
-112.7
0
LINE
8
BLACK
6
CONTINUOUS
10
100.9
20
-112.3
11
100.5
21
-112.7
0
LINE
8
BLACK
6
CONTINUOUS
10
102.232
20
-138.368
11
102.632
21
-138.768
0
LINE
8
BLACK
6
CONTINUOUS
10
102.632
20
-138.368
11
102.232
21
-138.768
0
LINE
8
BLACK
6
CONTINUOUS
10
102.3
20
-112.3
11
102.7
21
-112.7
0
LINE
8
BLACK
6
CONTINUOUS
10
102.7
20
-112.3
11
102.3
21
-112.7
0
LINE
8
BLACK
6
CONTINUOUS
10
102.652
20
-132.515
11
103.052
21
-132.915
0
LINE
8
BLACK
6
CONTINUOUS
10
103.052
20
-132.515
11
102.652
21
-132.915
0
LINE
8
BLACK
6
CONTINUOUS
10
104
20
-128.6
11
104.4
21
-129
0
LINE
8
BLACK
6
CONTINUOUS
10
104.4
20
-128.6
11
104
21
-129
0
LINE
8
BLACK
6
CONTINUOUS
10
104.078
20
-112.3
11
104.478
21
-112.7
0
LINE
8
BLACK
6
CONTINUOUS
10
104.478
20
-112.3
11
104.078
21
-112.7
0
LINE
8
BLACK
6
CONTINUOUS
10
104.7
20
-127.5
11
105.1
21
-127.9
0
LINE
8
BLACK
6
CONTINUOUS
10
105.1
20
-127.5
11
104.7
21
-127.9
0
LINE
8
BLACK
6
CONTINUOUS
10
105.1
20
-117.2
11
105.5
21
-117.6
0
LINE
8
BLACK
6
CONTINUOUS
10
105.5
20
-117.2
11
105.1
21
-117.6
0
LINE
8
BLACK
6
CONTINUOUS
10
105.6
20
-112.3
11
106
21
-112.7
0
LINE
8
BLACK
6
CONTINUOUS
10
106
20
-112.3
11
105.6
21
-112.7
0
LINE
8
BLACK
6
CONTINUOUS
10
105.7
20
-114
11
106.1
21
-114.4
0
LINE
8
BLACK
6
CONTINUOUS
10
106.1
20
-114
11
105.7
21
-114.4
0
LINE
8
BLACK
6
CONTINUOUS
10
105.8
20
-115.7
11
106.2
21
-116.1
0
LINE
8
BLACK
6
CONTINUOUS
10
106.2
20
-115.7
11
105.8
21
-116.1
0
LINE
8
BLACK
6
CONTINUOUS
10
105.972
20
-147.12
11
106.372
21
-147.52
0
LINE
8
BLACK
6
CONTINUOUS
10
106.372
20
-147.12
11
105.972
21
-147.52
0
LINE
8
BLACK
6
CONTINUOUS
10
105.972
20
-148.39
11
106.372
21
-148.79
0
LINE
8
BLACK
6
CONTINUOUS
10
106.372
20
-148.39
11
105.972
21
-148.79
0
LINE
8
BLACK
6
CONTINUOUS
10
106.649
20
-136.985
11
107.049
21
-137.385
0
LINE
8
BLACK
6
CONTINUOUS
10
107.049
20
-136.985
11
106.649
21
-137.385
0
LINE
8
BLACK
6
CONTINUOUS
10
107.975
20
-139.525
11
108.375
21
-139.925
0
LINE
8
BLACK
6
CONTINUOUS
10
108.375
20
-139.525
11
107.975
21
-139.925
0
LINE
8
BLACK
6
CONTINUOUS
10
108.071
20
-112.3
11
108.471
21
-112.7
0
LINE
8
BLACK
6
CONTINUOUS
10
108.471
20
-112.3
11
108.071
21
-112.7
0
LINE
8
BLACK
6
CONTINUOUS
10
108.1
20
-114
11
108.5
21
-114.4
0
LINE
8
BLACK
6
CONTINUOUS
10
108.5
20
-114
11
108.1
21
-114.4
0
LINE
8
BLACK
6
CONTINUOUS
10
108.129
20
-115.7
11
108.529
21
-116.1
0
LINE
8
BLACK
6
CONTINUOUS
10
108.529
20
-115.7
11
108.129
21
-116.1
0
LINE
8
BLACK
6
CONTINUOUS
10
108.431
20
-148.551
11
108.831
21
-148.951
0
LINE
8
BLACK
6
CONTINUOUS
10
108.831
20
-148.551
11
108.431
21
-148.951
0
LINE
8
BLACK
6
CONTINUOUS
10
108.9
20
-117.25
11
109.3
21
-117.65
0
LINE
8
BLACK
6
CONTINUOUS
10
109.3
20
-117.25
11
108.9
21
-117.65
0
LINE
8
BLACK
6
CONTINUOUS
10
108.932
20
-127.468
11
109.332
21
-127.868
0
LINE
8
BLACK
6
CONTINUOUS
10
109.332
20
-127.468
11
108.932
21
-127.868
0
LINE
8
BLACK
6
CONTINUOUS
10
109.871
20
-112.3
11
110.271
21
-112.7
0
LINE
8
BLACK
6
CONTINUOUS
10
110.271
20
-112.3
11
109.871
21
-112.7
0
LINE
8
BLACK
6
CONTINUOUS
10
110.332
20
-123.854
11
110.732
21
-124.254
0
LINE
8
BLACK
6
CONTINUOUS
10
110.732
20
-123.854
11
110.332
21
-124.254
0
LINE
8
BLACK
6
CONTINUOUS
10
110.332
20
-134.068
11
110.732
21
-134.468
0
LINE
8
BLACK
6
CONTINUOUS
10
110.732
20
-134.068
11
110.332
21
-134.468
0
LINE
8
BLACK
6
CONTINUOUS
10
111.432
20
-123.854
11
111.832
21
-124.254
0
LINE
8
BLACK
6
CONTINUOUS
10
111.832
20
-123.854
11
111.432
21
-124.254
0
LINE
8
BLACK
6
CONTINUOUS
10
111.432
20
-134.068
11
111.832
21
-134.468
0
LINE
8
BLACK
6
CONTINUOUS
10
111.832
20
-134.068
11
111.432
21
-134.468
0
LINE
8
BLACK
6
CONTINUOUS
10
111.649
20
-112.3
11
112.049
21
-112.7
0
LINE
8
BLACK
6
CONTINUOUS
10
112.049
20
-112.3
11
111.649
21
-112.7
0
LINE
8
BLACK
6
CONTINUOUS
10
112.532
20
-123.854
11
112.932
21
-124.254
0
LINE
8
BLACK
6
CONTINUOUS
10
112.932
20
-123.854
11
112.532
21
-124.254
0
LINE
8
BLACK
6
CONTINUOUS
10
112.532
20
-134.068
11
112.932
21
-134.468
0
LINE
8
BLACK
6
CONTINUOUS
10
112.932
20
-134.068
11
112.532
21
-134.468
0
LINE
8
BLACK
6
CONTINUOUS
10
113.3
20
-105.718
11
113.7
21
-106.118
0
LINE
8
BLACK
6
CONTINUOUS
10
113.7
20
-105.718
11
113.3
21
-106.118
0
LINE
8
BLACK
6
CONTINUOUS
10
113.3
20
-107.242
11
113.7
21
-107.642
0
LINE
8
BLACK
6
CONTINUOUS
10
113.7
20
-107.242
11
113.3
21
-107.642
0
LINE
8
BLACK
6
CONTINUOUS
10
113.3
20
-108.893
11
113.7
21
-109.293
0
LINE
8
BLACK
6
CONTINUOUS
10
113.7
20
-108.893
11
113.3
21
-109.293
0
LINE
8
BLACK
6
CONTINUOUS
10
113.3
20
-110.671
11
113.7
21
-111.071
0
LINE
8
BLACK
6
CONTINUOUS
10
113.7
20
-110.671
11
113.3
21
-111.071
0
LINE
8
BLACK
6
CONTINUOUS
10
113.3
20
-112.3
11
113.7
21
-112.7
0
LINE
8
BLACK
6
CONTINUOUS
10
113.7
20
-112.3
11
113.3
21
-112.7
0
LINE
8
BLACK
6
CONTINUOUS
10
113.5
20
-118.9
11
113.9
21
-119.3
0
LINE
8
BLACK
6
CONTINUOUS
10
113.9
20
-118.9
11
113.5
21
-119.3
0
LINE
8
BLACK
6
CONTINUOUS
10
113.592
20
-143.564
11
113.992
21
-143.964
0
LINE
8
BLACK
6
CONTINUOUS
10
113.992
20
-143.564
11
113.592
21
-143.964
0
LINE
8
BLACK
6
CONTINUOUS
10
113.592
20
-145.596
11
113.992
21
-145.996
0
LINE
8
BLACK
6
CONTINUOUS
10
113.992
20
-145.596
11
113.592
21
-145.996
0
LINE
8
BLACK
6
CONTINUOUS
10
114.481
20
-144.58
11
114.881
21
-144.98
0
LINE
8
BLACK
6
CONTINUOUS
10
114.881
20
-144.58
11
114.481
21
-144.98
0
LINE
8
BLACK
6
CONTINUOUS
10
114.481
20
-147.12
11
114.881
21
-147.52
0
LINE
8
BLACK
6
CONTINUOUS
10
114.881
20
-147.12
11
114.481
21
-147.52
0
LINE
8
BLACK
6
CONTINUOUS
10
114.55
20
-121.45
11
114.95
21
-121.85
0
LINE
8
BLACK
6
CONTINUOUS
10
114.95
20
-121.45
11
114.55
21
-121.85
0
LINE
8
BLACK
6
CONTINUOUS
10
116.497
20
-120.339
11
116.897
21
-120.739
0
LINE
8
BLACK
6
CONTINUOUS
10
116.897
20
-120.339
11
116.497
21
-120.739
0
LINE
8
BLACK
6
CONTINUOUS
10
116.65
20
-131.6
11
117.05
21
-132
0
LINE
8
BLACK
6
CONTINUOUS
10
117.05
20
-131.6
11
116.65
21
-132
0
LINE
8
BLACK
6
CONTINUOUS
10
118.05
20
-138.6
11
118.45
21
-139
0
LINE
8
BLACK
6
CONTINUOUS
10
118.45
20
-138.6
11
118.05
21
-139
0
LINE
8
BLACK
6
CONTINUOUS
10
118.396
20
-127.476
11
118.796
21
-127.876
0
LINE
8
BLACK
6
CONTINUOUS
10
118.796
20
-127.476
11
118.396
21
-127.876
0
LINE
8
BLACK
6
CONTINUOUS
10
119.2
20
-128.8
11
119.6
21
-129.2
0
LINE
8
BLACK
6
CONTINUOUS
10
119.6
20
-128.8
11
119.2
21
-129.2
0
LINE
8
BLACK
6
CONTINUOUS
10
120.332
20
-120.268
11
120.732
21
-120.668
0
LINE
8
BLACK
6
CONTINUOUS
10
120.732
20
-120.268
11
120.332
21
-120.668
0
LINE
8
BLACK
6
CONTINUOUS
10
120.613
20
-116.487
11
121.013
21
-116.887
0
LINE
8
BLACK
6
CONTINUOUS
10
121.013
20
-116.487
11
120.613
21
-116.887
0
LINE
8
BLACK
6
CONTINUOUS
10
122.482
20
-119.561
11
122.882
21
-119.961
0
LINE
8
BLACK
6
CONTINUOUS
10
122.882
20
-119.561
11
122.482
21
-119.961
0
LINE
8
BLACK
6
CONTINUOUS
10
122.482
20
-127.498
11
122.882
21
-127.898
0
LINE
8
BLACK
6
CONTINUOUS
10
122.882
20
-127.498
11
122.482
21
-127.898
0
LINE
8
BLACK
6
CONTINUOUS
10
123.09
20
-131.24
11
123.49
21
-131.64
0
LINE
8
BLACK
6
CONTINUOUS
10
123.49
20
-131.24
11
123.09
21
-131.64
0
LINE
8
BLACK
6
CONTINUOUS
10
123.1
20
-128.85
11
123.5
21
-129.25
0
LINE
8
BLACK
6
CONTINUOUS
10
123.5
20
-128.85
11
123.1
21
-129.25
0
LINE
8
BLACK
6
CONTINUOUS
10
123.1
20
-133.81
11
123.5
21
-134.21
0
LINE
8
BLACK
6
CONTINUOUS
10
123.5
20
-133.81
11
123.1
21
-134.21
0
CIRCLE
8
BLACK
10
85.725
20
-107.798
40
0.5
0
CIRCLE
8
BLACK
10
85.725
20
-110.338
40
0.5
0
CIRCLE
8
BLACK
10
85.725
20
-112.878
40
0.5
0
CIRCLE
8
BLACK
10
85.725
20
-115.418
40
0.5
0
CIRCLE
8
BLACK
10
85.725
20
-117.958
40
0.5
0
CIRCLE
8
BLACK
10
85.725
20
-120.498
40
0.5
0
CIRCLE
8
BLACK
10
85.725
20
-123.038
40
0.5
0
CIRCLE
8
BLACK
10
107.101
20
-109.251
40
0.5
0
CIRCLE
8
BLACK
10
111.292
20
-151.928
40
0.5
0
CIRCLE
8
BLACK
10
111.292
20
-154.468
40
0.5
0
CIRCLE
8
BLACK
10
113.832
20
-151.928
40
0.5
0
CIRCLE
8
BLACK
10
113.832
20
-154.468
40
0.5
0
LINE
8
BLACK
6
CONTINUOUS
10
89.496
20
-107.406
11
89.496
21
-108.397
0
LINE
8
BLACK
6
CONTINUOUS
10
89.0007
20
-107.901
11
89.9913
21
-107.901
0
LINE
8
BLACK
6
CONTINUOUS
10
94.576
20
-106.39
11
94.576
21
-107.381
0
LINE
8
BLACK
6
CONTINUOUS
10
94.0807
20
-106.885
11
95.0713
21
-106.885
0
LINE
8
BLACK
6
CONTINUOUS
10
94.576
20
-108.422
11
94.576
21
-109.413
0
LINE
8
BLACK
6
CONTINUOUS
10
94.0807
20
-108.917
11
95.0713
21
-108.917
0
LINE
8
BLACK
6
CONTINUOUS
10
95.6194
20
-114.669
11
95.6194
21
-112.407
0
LINE
8
BLACK
6
CONTINUOUS
10
95.6194
20
-112.407
11
93.3566
21
-112.407
0
LINE
8
BLACK
6
CONTINUOUS
10
93.3566
20
-112.407
11
93.3566
21
-114.669
0
LINE
8
BLACK
6
CONTINUOUS
10
93.3566
20
-114.669
11
95.6194
21
-114.669
0
LINE
8
BLACK
6
CONTINUOUS
10
122.761
20
-109.251
11
122.761
21
-106.989
0
LINE
8
BLACK
6
CONTINUOUS
10
122.761
20
-106.989
11
120.499
21
-106.989
0
LINE
8
BLACK
6
CONTINUOUS
10
120.499
20
-106.989
11
120.499
21
-109.251
0
LINE
8
BLACK
6
CONTINUOUS
10
120.499
20
-109.251
11
122.761
21
-109.251
0
LINE
8
BLACK
6
CONTINUOUS
10
85.5898
20
-159.633
11
85.5898
21
-157.633
0
LINE
8
BLACK
6
CONTINUOUS
10
85.5898
20
-157.633
11
86.066
21
-157.633
0
LINE
8
BLACK
6
CONTINUOUS
10
86.066
20
-157.633
11
86.3517
21
-157.728
0
LINE
8
BLACK
6
CONTINUOUS
10
86.3517
20
-157.728
11
86.5421
21
-157.919
0
LINE
8
BLACK
6
CONTINUOUS
10
86.5421
20
-157.919
11
86.6374
21
-158.109
0
LINE
8
BLACK
6
CONTINUOUS
10
86.6374
20
-158.109
11
86.7326
21
-158.49
0
LINE
8
BLACK
6
CONTINUOUS
10
86.7326
20
-158.49
11
86.7326
21
-158.776
0
LINE
8
BLACK
6
CONTINUOUS
10
86.7326
20
-158.776
11
86.6374
21
-159.157
0
LINE
8
BLACK
6
CONTINUOUS
10
86.6374
20
-159.157
11
86.5421
21
-159.347
0
LINE
8
BLACK
6
CONTINUOUS
10
86.5421
20
-159.347
11
86.3517
21
-159.538
0
LINE
8
BLACK
6
CONTINUOUS
10
86.3517
20
-159.538
11
86.066
21
-159.633
0
LINE
8
BLACK
6
CONTINUOUS
10
86.066
20
-159.633
11
85.5898
21
-159.633
0
LINE
8
BLACK
6
CONTINUOUS
10
87.5898
20
-159.633
11
87.5898
21
-158.3
0
LINE
8
BLACK
6
CONTINUOUS
10
87.5898
20
-158.68
11
87.685
21
-158.49
0
LINE
8
BLACK
6
CONTINUOUS
10
87.685
20
-158.49
11
87.7802
21
-158.395
0
LINE
8
BLACK
6
CONTINUOUS
10
87.7802
20
-158.395
11
87.9707
21
-158.3
0
LINE
8
BLACK
6
CONTINUOUS
10
87.9707
20
-158.3
11
88.1612
21
-158.3
0
LINE
8
BLACK
6
CONTINUOUS
10
88.8279
20
-159.633
11
88.8279
21
-158.3
0
LINE
8
BLACK
6
CONTINUOUS
10
88.8279
20
-157.633
11
88.7326
21
-157.728
0
LINE
8
BLACK
6
CONTINUOUS
10
88.7326
20
-157.728
11
88.8279
21
-157.823
0
LINE
8
BLACK
6
CONTINUOUS
10
88.8279
20
-157.823
11
88.9231
21
-157.728
0
LINE
8
BLACK
6
CONTINUOUS
10
88.9231
20
-157.728
11
88.8279
21
-157.633
0
LINE
8
BLACK
6
CONTINUOUS
10
88.8279
20
-157.633
11
88.8279
21
-157.823
0
LINE
8
BLACK
6
CONTINUOUS
10
90.066
20
-159.633
11
89.8755
21
-159.538
0
LINE
8
BLACK
6
CONTINUOUS
10
89.8755
20
-159.538
11
89.7802
21
-159.347
0
LINE
8
BLACK
6
CONTINUOUS
10
89.7802
20
-159.347
11
89.7802
21
-157.633
0
LINE
8
BLACK
6
CONTINUOUS
10
91.1136
20
-159.633
11
90.9231
21
-159.538
0
LINE
8
BLACK
6
CONTINUOUS
10
90.9231
20
-159.538
11
90.8279
21
-159.347
0
LINE
8
BLACK
6
CONTINUOUS
10
90.8279
20
-159.347
11
90.8279
21
-157.633
0
LINE
8
BLACK
6
CONTINUOUS
10
93.3993
20
-159.633
11
93.3993
21
-157.633
0
LINE
8
BLACK
6
CONTINUOUS
10
93.3993
20
-157.633
11
94.066
21
-159.061
0
LINE
8
BLACK
6
CONTINUOUS
10
94.066
20
-159.061
11
94.7326
21
-157.633
0
LINE
8
BLACK
6
CONTINUOUS
10
94.7326
20
-157.633
11
94.7326
21
-159.633
0
LINE
8
BLACK
6
CONTINUOUS
10
96.5421
20
-159.633
11
96.5421
21
-158.585
0
LINE
8
BLACK
6
CONTINUOUS
10
96.5421
20
-158.585
11
96.4469
21
-158.395
0
LINE
8
BLACK
6
CONTINUOUS
10
96.4469
20
-158.395
11
96.2564
21
-158.3
0
LINE
8
BLACK
6
CONTINUOUS
10
96.2564
20
-158.3
11
95.8755
21
-158.3
0
LINE
8
BLACK
6
CONTINUOUS
10
95.8755
20
-158.3
11
95.685
21
-158.395
0
LINE
8
BLACK
6
CONTINUOUS
10
96.5421
20
-159.538
11
96.3517
21
-159.633
0
LINE
8
BLACK
6
CONTINUOUS
10
96.3517
20
-159.633
11
95.8755
21
-159.633
0
LINE
8
BLACK
6
CONTINUOUS
10
95.8755
20
-159.633
11
95.685
21
-159.538
0
LINE
8
BLACK
6
CONTINUOUS
10
95.685
20
-159.538
11
95.5898
21
-159.347
0
LINE
8
BLACK
6
CONTINUOUS
10
95.5898
20
-159.347
11
95.5898
21
-159.157
0
LINE
8
BLACK
6
CONTINUOUS
10
95.5898
20
-159.157
11
95.685
21
-158.966
0
LINE
8
BLACK
6
CONTINUOUS
10
95.685
20
-158.966
11
95.8755
21
-158.871
0
LINE
8
BLACK
6
CONTINUOUS
10
95.8755
20
-158.871
11
96.3517
21
-158.871
0
LINE
8
BLACK
6
CONTINUOUS
10
96.3517
20
-158.871
11
96.5421
21
-158.776
0
LINE
8
BLACK
6
CONTINUOUS
10
97.4945
20
-158.3
11
97.4945
21
-160.3
0
LINE
8
BLACK
6
CONTINUOUS
10
97.4945
20
-158.395
11
97.685
21
-158.3
0
LINE
8
BLACK
6
CONTINUOUS
10
97.685
20
-158.3
11
98.066
21
-158.3
0
LINE
8
BLACK
6
CONTINUOUS
10
98.066
20
-158.3
11
98.2564
21
-158.395
0
LINE
8
BLACK
6
CONTINUOUS
10
98.2564
20
-158.395
11
98.3517
21
-158.49
0
LINE
8
BLACK
6
CONTINUOUS
10
98.3517
20
-158.49
11
98.4469
21
-158.68
0
LINE
8
BLACK
6
CONTINUOUS
10
98.4469
20
-158.68
11
98.4469
21
-159.252
0
LINE
8
BLACK
6
CONTINUOUS
10
98.4469
20
-159.252
11
98.3517
21
-159.442
0
LINE
8
BLACK
6
CONTINUOUS
10
98.3517
20
-159.442
11
98.2564
21
-159.538
0
LINE
8
BLACK
6
CONTINUOUS
10
98.2564
20
-159.538
11
98.066
21
-159.633
0
LINE
8
BLACK
6
CONTINUOUS
10
98.066
20
-159.633
11
97.685
21
-159.633
0
LINE
8
BLACK
6
CONTINUOUS
10
97.685
20
-159.633
11
97.4945
21
-159.538
0
LINE
8
BLACK
6
CONTINUOUS
10
99.3041
20
-159.442
11
99.3993
21
-159.538
0
LINE
8
BLACK
6
CONTINUOUS
10
99.3993
20
-159.538
11
99.3041
21
-159.633
0
LINE
8
BLACK
6
CONTINUOUS
10
99.3041
20
-159.633
11
99.2088
21
-159.538
0
LINE
8
BLACK
6
CONTINUOUS
10
99.2088
20
-159.538
11
99.3041
21
-159.442
0
LINE
8
BLACK
6
CONTINUOUS
10
99.3041
20
-159.442
11
99.3041
21
-159.633
0
LINE
8
BLACK
6
CONTINUOUS
10
99.3041
20
-158.395
11
99.3993
21
-158.49
0
LINE
8
BLACK
6
CONTINUOUS
10
99.3993
20
-158.49
11
99.3041
21
-158.585
0
LINE
8
BLACK
6
CONTINUOUS
10
99.3041
20
-158.585
11
99.2088
21
-158.49
0
LINE
8
BLACK
6
CONTINUOUS
10
99.2088
20
-158.49
11
99.3041
21
-158.395
0
LINE
8
BLACK
6
CONTINUOUS
10
99.3041
20
-158.395
11
99.3041
21
-158.585
0
LINE
8
BLACK
6
CONTINUOUS
10
82.582
20
-162.718
11
82.982
21
-163.118
0
LINE
8
BLACK
6
CONTINUOUS
10
82.982
20
-162.718
11
82.582
21
-163.118
0
LINE
8
BLACK
6
CONTINUOUS
10
85.9707
20
-161.833
11
86.1612
21
-161.833
0
LINE
8
BLACK
6
CONTINUOUS
10
86.1612
20
-161.833
11
86.3517
21
-161.928
0
LINE
8
BLACK
6
CONTINUOUS
10
86.3517
20
-161.928
11
86.4469
21
-162.023
0
LINE
8
BLACK
6
CONTINUOUS
10
86.4469
20
-162.023
11
86.5421
21
-162.214
0
LINE
8
BLACK
6
CONTINUOUS
10
86.5421
20
-162.214
11
86.6374
21
-162.595
0
LINE
8
BLACK
6
CONTINUOUS
10
86.6374
20
-162.595
11
86.6374
21
-163.071
0
LINE
8
BLACK
6
CONTINUOUS
10
86.6374
20
-163.071
11
86.5421
21
-163.452
0
LINE
8
BLACK
6
CONTINUOUS
10
86.5421
20
-163.452
11
86.4469
21
-163.642
0
LINE
8
BLACK
6
CONTINUOUS
10
86.4469
20
-163.642
11
86.3517
21
-163.738
0
LINE
8
BLACK
6
CONTINUOUS
10
86.3517
20
-163.738
11
86.1612
21
-163.833
0
LINE
8
BLACK
6
CONTINUOUS
10
86.1612
20
-163.833
11
85.9707
21
-163.833
0
LINE
8
BLACK
6
CONTINUOUS
10
85.9707
20
-163.833
11
85.7802
21
-163.738
0
LINE
8
BLACK
6
CONTINUOUS
10
85.7802
20
-163.738
11
85.685
21
-163.642
0
LINE
8
BLACK
6
CONTINUOUS
10
85.685
20
-163.642
11
85.5898
21
-163.452
0
LINE
8
BLACK
6
CONTINUOUS
10
85.5898
20
-163.452
11
85.4945
21
-163.071
0
LINE
8
BLACK
6
CONTINUOUS
10
85.4945
20
-163.071
11
85.4945
21
-162.595
0
LINE
8
BLACK
6
CONTINUOUS
10
85.4945
20
-162.595
11
85.5898
21
-162.214
0
LINE
8
BLACK
6
CONTINUOUS
10
85.5898
20
-162.214
11
85.685
21
-162.023
0
LINE
8
BLACK
6
CONTINUOUS
10
85.685
20
-162.023
11
85.7802
21
-161.928
0
LINE
8
BLACK
6
CONTINUOUS
10
85.7802
20
-161.928
11
85.9707
21
-161.833
0
LINE
8
BLACK
6
CONTINUOUS
10
87.4945
20
-163.642
11
87.5898
21
-163.738
0
LINE
8
BLACK
6
CONTINUOUS
10
87.5898
20
-163.738
11
87.4945
21
-163.833
0
LINE
8
BLACK
6
CONTINUOUS
10
87.4945
20
-163.833
11
87.3993
21
-163.738
0
LINE
8
BLACK
6
CONTINUOUS
10
87.3993
20
-163.738
11
87.4945
21
-163.642
0
LINE
8
BLACK
6
CONTINUOUS
10
87.4945
20
-163.642
11
87.4945
21
-163.833
0
LINE
8
BLACK
6
CONTINUOUS
10
89.3041
20
-162.5
11
89.3041
21
-163.833
0
LINE
8
BLACK
6
CONTINUOUS
10
88.8279
20
-161.738
11
88.3517
21
-163.166
0
LINE
8
BLACK
6
CONTINUOUS
10
88.3517
20
-163.166
11
89.5898
21
-163.166
0
LINE
8
BLACK
6
CONTINUOUS
10
90.7326
20
-161.833
11
90.9231
21
-161.833
0
LINE
8
BLACK
6
CONTINUOUS
10
90.9231
20
-161.833
11
91.1136
21
-161.928
0
LINE
8
BLACK
6
CONTINUOUS
10
91.1136
20
-161.928
11
91.2088
21
-162.023
0
LINE
8
BLACK
6
CONTINUOUS
10
91.2088
20
-162.023
11
91.3041
21
-162.214
0
LINE
8
BLACK
6
CONTINUOUS
10
91.3041
20
-162.214
11
91.3993
21
-162.595
0
LINE
8
BLACK
6
CONTINUOUS
10
91.3993
20
-162.595
11
91.3993
21
-163.071
0
LINE
8
BLACK
6
CONTINUOUS
10
91.3993
20
-163.071
11
91.3041
21
-163.452
0
LINE
8
BLACK
6
CONTINUOUS
10
91.3041
20
-163.452
11
91.2088
21
-163.642
0
LINE
8
BLACK
6
CONTINUOUS
10
91.2088
20
-163.642
11
91.1136
21
-163.738
0
LINE
8
BLACK
6
CONTINUOUS
10
91.1136
20
-163.738
11
90.9231
21
-163.833
0
LINE
8
BLACK
6
CONTINUOUS
10
90.9231
20
-163.833
11
90.7326
21
-163.833
0
LINE
8
BLACK
6
CONTINUOUS
10
90.7326
20
-163.833
11
90.5421
21
-163.738
0
LINE
8
BLACK
6
CONTINUOUS
10
90.5421
20
-163.738
11
90.4469
21
-163.642
0
LINE
8
BLACK
6
CONTINUOUS
10
90.4469
20
-163.642
11
90.3517
21
-163.452
0
LINE
8
BLACK
6
CONTINUOUS
10
90.3517
20
-163.452
11
90.2564
21
-163.071
0
LINE
8
BLACK
6
CONTINUOUS
10
90.2564
20
-163.071
11
90.2564
21
-162.595
0
LINE
8
BLACK
6
CONTINUOUS
10
90.2564
20
-162.595
11
90.3517
21
-162.214
0
LINE
8
BLACK
6
CONTINUOUS
10
90.3517
20
-162.214
11
90.4469
21
-162.023
0
LINE
8
BLACK
6
CONTINUOUS
10
90.4469
20
-162.023
11
90.5421
21
-161.928
0
LINE
8
BLACK
6
CONTINUOUS
10
90.5421
20
-161.928
11
90.7326
21
-161.833
0
LINE
8
BLACK
6
CONTINUOUS
10
92.6374
20
-161.833
11
92.8279
21
-161.833
0
LINE
8
BLACK
6
CONTINUOUS
10
92.8279
20
-161.833
11
93.0183
21
-161.928
0
LINE
8
BLACK
6
CONTINUOUS
10
93.0183
20
-161.928
11
93.1136
21
-162.023
0
LINE
8
BLACK
6
CONTINUOUS
10
93.1136
20
-162.023
11
93.2088
21
-162.214
0
LINE
8
BLACK
6
CONTINUOUS
10
93.2088
20
-162.214
11
93.3041
21
-162.595
0
LINE
8
BLACK
6
CONTINUOUS
10
93.3041
20
-162.595
11
93.3041
21
-163.071
0
LINE
8
BLACK
6
CONTINUOUS
10
93.3041
20
-163.071
11
93.2088
21
-163.452
0
LINE
8
BLACK
6
CONTINUOUS
10
93.2088
20
-163.452
11
93.1136
21
-163.642
0
LINE
8
BLACK
6
CONTINUOUS
10
93.1136
20
-163.642
11
93.0183
21
-163.738
0
LINE
8
BLACK
6
CONTINUOUS
10
93.0183
20
-163.738
11
92.8279
21
-163.833
0
LINE
8
BLACK
6
CONTINUOUS
10
92.8279
20
-163.833
11
92.6374
21
-163.833
0
LINE
8
BLACK
6
CONTINUOUS
10
92.6374
20
-163.833
11
92.4469
21
-163.738
0
LINE
8
BLACK
6
CONTINUOUS
10
92.4469
20
-163.738
11
92.3517
21
-163.642
0
LINE
8
BLACK
6
CONTINUOUS
10
92.3517
20
-163.642
11
92.2564
21
-163.452
0
LINE
8
BLACK
6
CONTINUOUS
10
92.2564
20
-163.452
11
92.1612
21
-163.071
0
LINE
8
BLACK
6
CONTINUOUS
10
92.1612
20
-163.071
11
92.1612
21
-162.595
0
LINE
8
BLACK
6
CONTINUOUS
10
92.1612
20
-162.595
11
92.2564
21
-162.214
0
LINE
8
BLACK
6
CONTINUOUS
10
92.2564
20
-162.214
11
92.3517
21
-162.023
0
LINE
8
BLACK
6
CONTINUOUS
10
92.3517
20
-162.023
11
92.4469
21
-161.928
0
LINE
8
BLACK
6
CONTINUOUS
10
92.4469
20
-161.928
11
92.6374
21
-161.833
0
LINE
8
BLACK
6
CONTINUOUS
10
94.1612
20
-163.833
11
94.1612
21
-162.5
0
LINE
8
BLACK
6
CONTINUOUS
10
94.1612
20
-162.69
11
94.2564
21
-162.595
0
LINE
8
BLACK
6
CONTINUOUS
10
94.2564
20
-162.595
11
94.4469
21
-162.5
0
LINE
8
BLACK
6
CONTINUOUS
10
94.4469
20
-162.5
11
94.7326
21
-162.5
0
LINE
8
BLACK
6
CONTINUOUS
10
94.7326
20
-162.5
11
94.9231
21
-162.595
0
LINE
8
BLACK
6
CONTINUOUS
10
94.9231
20
-162.595
11
95.0183
21
-162.785
0
LINE
8
BLACK
6
CONTINUOUS
10
95.0183
20
-162.785
11
95.0183
21
-163.833
0
LINE
8
BLACK
6
CONTINUOUS
10
95.0183
20
-162.785
11
95.1136
21
-162.595
0
LINE
8
BLACK
6
CONTINUOUS
10
95.1136
20
-162.595
11
95.3041
21
-162.5
0
LINE
8
BLACK
6
CONTINUOUS
10
95.3041
20
-162.5
11
95.5898
21
-162.5
0
LINE
8
BLACK
6
CONTINUOUS
10
95.5898
20
-162.5
11
95.7802
21
-162.595
0
LINE
8
BLACK
6
CONTINUOUS
10
95.7802
20
-162.595
11
95.8755
21
-162.785
0
LINE
8
BLACK
6
CONTINUOUS
10
95.8755
20
-162.785
11
95.8755
21
-163.833
0
LINE
8
BLACK
6
CONTINUOUS
10
96.8279
20
-163.833
11
96.8279
21
-162.5
0
LINE
8
BLACK
6
CONTINUOUS
10
96.8279
20
-162.69
11
96.9231
21
-162.595
0
LINE
8
BLACK
6
CONTINUOUS
10
96.9231
20
-162.595
11
97.1136
21
-162.5
0
LINE
8
BLACK
6
CONTINUOUS
10
97.1136
20
-162.5
11
97.3993
21
-162.5
0
LINE
8
BLACK
6
CONTINUOUS
10
97.3993
20
-162.5
11
97.5898
21
-162.595
0
LINE
8
BLACK
6
CONTINUOUS
10
97.5898
20
-162.595
11
97.685
21
-162.785
0
LINE
8
BLACK
6
CONTINUOUS
10
97.685
20
-162.785
11
97.685
21
-163.833
0
LINE
8
BLACK
6
CONTINUOUS
10
97.685
20
-162.785
11
97.7802
21
-162.595
0
LINE
8
BLACK
6
CONTINUOUS
10
97.7802
20
-162.595
11
97.9707
21
-162.5
0
LINE
8
BLACK
6
CONTINUOUS
10
97.9707
20
-162.5
11
98.2564
21
-162.5
0
LINE
8
BLACK
6
CONTINUOUS
10
98.2564
20
-162.5
11
98.4469
21
-162.595
0
LINE
8
BLACK
6
CONTINUOUS
10
98.4469
20
-162.595
11
98.5421
21
-162.785
0
LINE
8
BLACK
6
CONTINUOUS
10
98.5421
20
-162.785
11
98.5421
21
-163.833
0
LINE
8
BLACK
6
CONTINUOUS
10
102.447
20
-161.738
11
100.733
21
-164.309
0
LINE
8
BLACK
6
CONTINUOUS
10
105.018
20
-161.833
11
105.209
21
-161.833
0
LINE
8
BLACK
6
CONTINUOUS
10
105.209
20
-161.833
11
105.399
21
-161.928
0
LINE
8
BLACK
6
CONTINUOUS
10
105.399
20
-161.928
11
105.495
21
-162.023
0
LINE
8
BLACK
6
CONTINUOUS
10
105.495
20
-162.023
11
105.59
21
-162.214
0
LINE
8
BLACK
6
CONTINUOUS
10
105.59
20
-162.214
11
105.685
21
-162.595
0
LINE
8
BLACK
6
CONTINUOUS
10
105.685
20
-162.595
11
105.685
21
-163.071
0
LINE
8
BLACK
6
CONTINUOUS
10
105.685
20
-163.071
11
105.59
21
-163.452
0
LINE
8
BLACK
6
CONTINUOUS
10
105.59
20
-163.452
11
105.495
21
-163.642
0
LINE
8
BLACK
6
CONTINUOUS
10
105.495
20
-163.642
11
105.399
21
-163.738
0
LINE
8
BLACK
6
CONTINUOUS
10
105.399
20
-163.738
11
105.209
21
-163.833
0
LINE
8
BLACK
6
CONTINUOUS
10
105.209
20
-163.833
11
105.018
21
-163.833
0
LINE
8
BLACK
6
CONTINUOUS
10
105.018
20
-163.833
11
104.828
21
-163.738
0
LINE
8
BLACK
6
CONTINUOUS
10
104.828
20
-163.738
11
104.733
21
-163.642
0
LINE
8
BLACK
6
CONTINUOUS
10
104.733
20
-163.642
11
104.637
21
-163.452
0
LINE
8
BLACK
6
CONTINUOUS
10
104.637
20
-163.452
11
104.542
21
-163.071
0
LINE
8
BLACK
6
CONTINUOUS
10
104.542
20
-163.071
11
104.542
21
-162.595
0
LINE
8
BLACK
6
CONTINUOUS
10
104.542
20
-162.595
11
104.637
21
-162.214
0
LINE
8
BLACK
6
CONTINUOUS
10
104.637
20
-162.214
11
104.733
21
-162.023
0
LINE
8
BLACK
6
CONTINUOUS
10
104.733
20
-162.023
11
104.828
21
-161.928
0
LINE
8
BLACK
6
CONTINUOUS
10
104.828
20
-161.928
11
105.018
21
-161.833
0
LINE
8
BLACK
6
CONTINUOUS
10
106.542
20
-163.642
11
106.637
21
-163.738
0
LINE
8
BLACK
6
CONTINUOUS
10
106.637
20
-163.738
11
106.542
21
-163.833
0
LINE
8
BLACK
6
CONTINUOUS
10
106.542
20
-163.833
11
106.447
21
-163.738
0
LINE
8
BLACK
6
CONTINUOUS
10
106.447
20
-163.738
11
106.542
21
-163.642
0
LINE
8
BLACK
6
CONTINUOUS
10
106.542
20
-163.642
11
106.542
21
-163.833
0
LINE
8
BLACK
6
CONTINUOUS
10
107.875
20
-161.833
11
108.066
21
-161.833
0
LINE
8
BLACK
6
CONTINUOUS
10
108.066
20
-161.833
11
108.256
21
-161.928
0
LINE
8
BLACK
6
CONTINUOUS
10
108.256
20
-161.928
11
108.352
21
-162.023
0
LINE
8
BLACK
6
CONTINUOUS
10
108.352
20
-162.023
11
108.447
21
-162.214
0
LINE
8
BLACK
6
CONTINUOUS
10
108.447
20
-162.214
11
108.542
21
-162.595
0
LINE
8
BLACK
6
CONTINUOUS
10
108.542
20
-162.595
11
108.542
21
-163.071
0
LINE
8
BLACK
6
CONTINUOUS
10
108.542
20
-163.071
11
108.447
21
-163.452
0
LINE
8
BLACK
6
CONTINUOUS
10
108.447
20
-163.452
11
108.352
21
-163.642
0
LINE
8
BLACK
6
CONTINUOUS
10
108.352
20
-163.642
11
108.256
21
-163.738
0
LINE
8
BLACK
6
CONTINUOUS
10
108.256
20
-163.738
11
108.066
21
-163.833
0
LINE
8
BLACK
6
CONTINUOUS
10
108.066
20
-163.833
11
107.875
21
-163.833
0
LINE
8
BLACK
6
CONTINUOUS
10
107.875
20
-163.833
11
107.685
21
-163.738
0
LINE
8
BLACK
6
CONTINUOUS
10
107.685
20
-163.738
11
107.59
21
-163.642
0
LINE
8
BLACK
6
CONTINUOUS
10
107.59
20
-163.642
11
107.495
21
-163.452
0
LINE
8
BLACK
6
CONTINUOUS
10
107.495
20
-163.452
11
107.399
21
-163.071
0
LINE
8
BLACK
6
CONTINUOUS
10
107.399
20
-163.071
11
107.399
21
-162.595
0
LINE
8
BLACK
6
CONTINUOUS
10
107.399
20
-162.595
11
107.495
21
-162.214
0
LINE
8
BLACK
6
CONTINUOUS
10
107.495
20
-162.214
11
107.59
21
-162.023
0
LINE
8
BLACK
6
CONTINUOUS
10
107.59
20
-162.023
11
107.685
21
-161.928
0
LINE
8
BLACK
6
CONTINUOUS
10
107.685
20
-161.928
11
107.875
21
-161.833
0
LINE
8
BLACK
6
CONTINUOUS
10
110.447
20
-163.833
11
109.304
21
-163.833
0
LINE
8
BLACK
6
CONTINUOUS
10
109.875
20
-163.833
11
109.875
21
-161.833
0
LINE
8
BLACK
6
CONTINUOUS
10
109.875
20
-161.833
11
109.685
21
-162.119
0
LINE
8
BLACK
6
CONTINUOUS
10
109.685
20
-162.119
11
109.495
21
-162.309
0
LINE
8
BLACK
6
CONTINUOUS
10
109.495
20
-162.309
11
109.304
21
-162.404
0
LINE
8
BLACK
6
CONTINUOUS
10
112.256
20
-161.833
11
111.304
21
-161.833
0
LINE
8
BLACK
6
CONTINUOUS
10
111.304
20
-161.833
11
111.209
21
-162.785
0
LINE
8
BLACK
6
CONTINUOUS
10
111.209
20
-162.785
11
111.304
21
-162.69
0
LINE
8
BLACK
6
CONTINUOUS
10
111.304
20
-162.69
11
111.495
21
-162.595
0
LINE
8
BLACK
6
CONTINUOUS
10
111.495
20
-162.595
11
111.971
21
-162.595
0
LINE
8
BLACK
6
CONTINUOUS
10
111.971
20
-162.595
11
112.161
21
-162.69
0
LINE
8
BLACK
6
CONTINUOUS
10
112.161
20
-162.69
11
112.256
21
-162.785
0
LINE
8
BLACK
6
CONTINUOUS
10
112.256
20
-162.785
11
112.352
21
-162.976
0
LINE
8
BLACK
6
CONTINUOUS
10
112.352
20
-162.976
11
112.352
21
-163.452
0
LINE
8
BLACK
6
CONTINUOUS
10
112.352
20
-163.452
11
112.256
21
-163.642
0
LINE
8
BLACK
6
CONTINUOUS
10
112.256
20
-163.642
11
112.161
21
-163.738
0
LINE
8
BLACK
6
CONTINUOUS
10
112.161
20
-163.738
11
111.971
21
-163.833
0
LINE
8
BLACK
6
CONTINUOUS
10
111.971
20
-163.833
11
111.495
21
-163.833
0
LINE
8
BLACK
6
CONTINUOUS
10
111.495
20
-163.833
11
111.304
21
-163.738
0
LINE
8
BLACK
6
CONTINUOUS
10
111.304
20
-163.738
11
111.209
21
-163.642
0
LINE
8
BLACK
6
CONTINUOUS
10
113.018
20
-161.833
11
114.352
21
-161.833
0
LINE
8
BLACK
6
CONTINUOUS
10
114.352
20
-161.833
11
113.495
21
-163.833
0
LINE
8
BLACK
6
CONTINUOUS
10
115.018
20
-161.833
11
115.018
21
-162.214
0
LINE
8
BLACK
6
CONTINUOUS
10
115.78
20
-161.833
11
115.78
21
-162.214
0
LINE
8
BLACK
6
CONTINUOUS
10
118.733
20
-164.595
11
118.637
21
-164.5
0
LINE
8
BLACK
6
CONTINUOUS
10
118.637
20
-164.5
11
118.447
21
-164.214
0
LINE
8
BLACK
6
CONTINUOUS
10
118.447
20
-164.214
11
118.352
21
-164.023
0
LINE
8
BLACK
6
CONTINUOUS
10
118.352
20
-164.023
11
118.256
21
-163.738
0
LINE
8
BLACK
6
CONTINUOUS
10
118.256
20
-163.738
11
118.161
21
-163.261
0
LINE
8
BLACK
6
CONTINUOUS
10
118.161
20
-163.261
11
118.161
21
-162.88
0
LINE
8
BLACK
6
CONTINUOUS
10
118.161
20
-162.88
11
118.256
21
-162.404
0
LINE
8
BLACK
6
CONTINUOUS
10
118.256
20
-162.404
11
118.352
21
-162.119
0
LINE
8
BLACK
6
CONTINUOUS
10
118.352
20
-162.119
11
118.447
21
-161.928
0
LINE
8
BLACK
6
CONTINUOUS
10
118.447
20
-161.928
11
118.637
21
-161.642
0
LINE
8
BLACK
6
CONTINUOUS
10
118.637
20
-161.642
11
118.733
21
-161.547
0
LINE
8
BLACK
6
CONTINUOUS
10
119.78
20
-162.69
11
119.59
21
-162.595
0
LINE
8
BLACK
6
CONTINUOUS
10
119.59
20
-162.595
11
119.495
21
-162.5
0
LINE
8
BLACK
6
CONTINUOUS
10
119.495
20
-162.5
11
119.399
21
-162.309
0
LINE
8
BLACK
6
CONTINUOUS
10
119.399
20
-162.309
11
119.399
21
-162.214
0
LINE
8
BLACK
6
CONTINUOUS
10
119.399
20
-162.214
11
119.495
21
-162.023
0
LINE
8
BLACK
6
CONTINUOUS
10
119.495
20
-162.023
11
119.59
21
-161.928
0
LINE
8
BLACK
6
CONTINUOUS
10
119.59
20
-161.928
11
119.78
21
-161.833
0
LINE
8
BLACK
6
CONTINUOUS
10
119.78
20
-161.833
11
120.161
21
-161.833
0
LINE
8
BLACK
6
CONTINUOUS
10
120.161
20
-161.833
11
120.352
21
-161.928
0
LINE
8
BLACK
6
CONTINUOUS
10
120.352
20
-161.928
11
120.447
21
-162.023
0
LINE
8
BLACK
6
CONTINUOUS
10
120.447
20
-162.023
11
120.542
21
-162.214
0
LINE
8
BLACK
6
CONTINUOUS
10
120.542
20
-162.214
11
120.542
21
-162.309
0
LINE
8
BLACK
6
CONTINUOUS
10
120.542
20
-162.309
11
120.447
21
-162.5
0
LINE
8
BLACK
6
CONTINUOUS
10
120.447
20
-162.5
11
120.352
21
-162.595
0
LINE
8
BLACK
6
CONTINUOUS
10
120.352
20
-162.595
11
120.161
21
-162.69
0
LINE
8
BLACK
6
CONTINUOUS
10
120.161
20
-162.69
11
119.78
21
-162.69
0
LINE
8
BLACK
6
CONTINUOUS
10
119.78
20
-162.69
11
119.59
21
-162.785
0
LINE
8
BLACK
6
CONTINUOUS
10
119.59
20
-162.785
11
119.495
21
-162.88
0
LINE
8
BLACK
6
CONTINUOUS
10
119.495
20
-162.88
11
119.399
21
-163.071
0
LINE
8
BLACK
6
CONTINUOUS
10
119.399
20
-163.071
11
119.399
21
-163.452
0
LINE
8
BLACK
6
CONTINUOUS
10
119.399
20
-163.452
11
119.495
21
-163.642
0
LINE
8
BLACK
6
CONTINUOUS
10
119.495
20
-163.642
11
119.59
21
-163.738
0
LINE
8
BLACK
6
CONTINUOUS
10
119.59
20
-163.738
11
119.78
21
-163.833
0
LINE
8
BLACK
6
CONTINUOUS
10
119.78
20
-163.833
11
120.161
21
-163.833
0
LINE
8
BLACK
6
CONTINUOUS
10
120.161
20
-163.833
11
120.352
21
-163.738
0
LINE
8
BLACK
6
CONTINUOUS
10
120.352
20
-163.738
11
120.447
21
-163.642
0
LINE
8
BLACK
6
CONTINUOUS
10
120.447
20
-163.642
11
120.542
21
-163.452
0
LINE
8
BLACK
6
CONTINUOUS
10
120.542
20
-163.452
11
120.542
21
-163.071
0
LINE
8
BLACK
6
CONTINUOUS
10
120.542
20
-163.071
11
120.447
21
-162.88
0
LINE
8
BLACK
6
CONTINUOUS
10
120.447
20
-162.88
11
120.352
21
-162.785
0
LINE
8
BLACK
6
CONTINUOUS
10
120.352
20
-162.785
11
120.161
21
-162.69
0
LINE
8
BLACK
6
CONTINUOUS
10
121.78
20
-161.833
11
121.971
21
-161.833
0
LINE
8
BLACK
6
CONTINUOUS
10
121.971
20
-161.833
11
122.161
21
-161.928
0
LINE
8
BLACK
6
CONTINUOUS
10
122.161
20
-161.928
11
122.256
21
-162.023
0
LINE
8
BLACK
6
CONTINUOUS
10
122.256
20
-162.023
11
122.352
21
-162.214
0
LINE
8
BLACK
6
CONTINUOUS
10
122.352
20
-162.214
11
122.447
21
-162.595
0
LINE
8
BLACK
6
CONTINUOUS
10
122.447
20
-162.595
11
122.447
21
-163.071
0
LINE
8
BLACK
6
CONTINUOUS
10
122.447
20
-163.071
11
122.352
21
-163.452
0
LINE
8
BLACK
6
CONTINUOUS
10
122.352
20
-163.452
11
122.256
21
-163.642
0
LINE
8
BLACK
6
CONTINUOUS
10
122.256
20
-163.642
11
122.161
21
-163.738
0
LINE
8
BLACK
6
CONTINUOUS
10
122.161
20
-163.738
11
121.971
21
-163.833
0
LINE
8
BLACK
6
CONTINUOUS
10
121.971
20
-163.833
11
121.78
21
-163.833
0
LINE
8
BLACK
6
CONTINUOUS
10
121.78
20
-163.833
11
121.59
21
-163.738
0
LINE
8
BLACK
6
CONTINUOUS
10
121.59
20
-163.738
11
121.495
21
-163.642
0
LINE
8
BLACK
6
CONTINUOUS
10
121.495
20
-163.642
11
121.399
21
-163.452
0
LINE
8
BLACK
6
CONTINUOUS
10
121.399
20
-163.452
11
121.304
21
-163.071
0
LINE
8
BLACK
6
CONTINUOUS
10
121.304
20
-163.071
11
121.304
21
-162.595
0
LINE
8
BLACK
6
CONTINUOUS
10
121.304
20
-162.595
11
121.399
21
-162.214
0
LINE
8
BLACK
6
CONTINUOUS
10
121.399
20
-162.214
11
121.495
21
-162.023
0
LINE
8
BLACK
6
CONTINUOUS
10
121.495
20
-162.023
11
121.59
21
-161.928
0
LINE
8
BLACK
6
CONTINUOUS
10
121.59
20
-161.928
11
121.78
21
-161.833
0
LINE
8
BLACK
6
CONTINUOUS
10
124.828
20
-163.833
11
124.828
21
-161.833
0
LINE
8
BLACK
6
CONTINUOUS
10
125.685
20
-163.833
11
125.685
21
-162.785
0
LINE
8
BLACK
6
CONTINUOUS
10
125.685
20
-162.785
11
125.59
21
-162.595
0
LINE
8
BLACK
6
CONTINUOUS
10
125.59
20
-162.595
11
125.399
21
-162.5
0
LINE
8
BLACK
6
CONTINUOUS
10
125.399
20
-162.5
11
125.114
21
-162.5
0
LINE
8
BLACK
6
CONTINUOUS
10
125.114
20
-162.5
11
124.923
21
-162.595
0
LINE
8
BLACK
6
CONTINUOUS
10
124.923
20
-162.595
11
124.828
21
-162.69
0
LINE
8
BLACK
6
CONTINUOUS
10
126.923
20
-163.833
11
126.733
21
-163.738
0
LINE
8
BLACK
6
CONTINUOUS
10
126.733
20
-163.738
11
126.637
21
-163.642
0
LINE
8
BLACK
6
CONTINUOUS
10
126.637
20
-163.642
11
126.542
21
-163.452
0
LINE
8
BLACK
6
CONTINUOUS
10
126.542
20
-163.452
11
126.542
21
-162.88
0
LINE
8
BLACK
6
CONTINUOUS
10
126.542
20
-162.88
11
126.637
21
-162.69
0
LINE
8
BLACK
6
CONTINUOUS
10
126.637
20
-162.69
11
126.733
21
-162.595
0
LINE
8
BLACK
6
CONTINUOUS
10
126.733
20
-162.595
11
126.923
21
-162.5
0
LINE
8
BLACK
6
CONTINUOUS
10
126.923
20
-162.5
11
127.209
21
-162.5
0
LINE
8
BLACK
6
CONTINUOUS
10
127.209
20
-162.5
11
127.399
21
-162.595
0
LINE
8
BLACK
6
CONTINUOUS
10
127.399
20
-162.595
11
127.495
21
-162.69
0
LINE
8
BLACK
6
CONTINUOUS
10
127.495
20
-162.69
11
127.59
21
-162.88
0
LINE
8
BLACK
6
CONTINUOUS
10
127.59
20
-162.88
11
127.59
21
-163.452
0
LINE
8
BLACK
6
CONTINUOUS
10
127.59
20
-163.452
11
127.495
21
-163.642
0
LINE
8
BLACK
6
CONTINUOUS
10
127.495
20
-163.642
11
127.399
21
-163.738
0
LINE
8
BLACK
6
CONTINUOUS
10
127.399
20
-163.738
11
127.209
21
-163.833
0
LINE
8
BLACK
6
CONTINUOUS
10
127.209
20
-163.833
11
126.923
21
-163.833
0
LINE
8
BLACK
6
CONTINUOUS
10
128.733
20
-163.833
11
128.542
21
-163.738
0
LINE
8
BLACK
6
CONTINUOUS
10
128.542
20
-163.738
11
128.447
21
-163.547
0
LINE
8
BLACK
6
CONTINUOUS
10
128.447
20
-163.547
11
128.447
21
-161.833
0
LINE
8
BLACK
6
CONTINUOUS
10
130.256
20
-163.738
11
130.066
21
-163.833
0
LINE
8
BLACK
6
CONTINUOUS
10
130.066
20
-163.833
11
129.685
21
-163.833
0
LINE
8
BLACK
6
CONTINUOUS
10
129.685
20
-163.833
11
129.495
21
-163.738
0
LINE
8
BLACK
6
CONTINUOUS
10
129.495
20
-163.738
11
129.399
21
-163.547
0
LINE
8
BLACK
6
CONTINUOUS
10
129.399
20
-163.547
11
129.399
21
-162.785
0
LINE
8
BLACK
6
CONTINUOUS
10
129.399
20
-162.785
11
129.495
21
-162.595
0
LINE
8
BLACK
6
CONTINUOUS
10
129.495
20
-162.595
11
129.685
21
-162.5
0
LINE
8
BLACK
6
CONTINUOUS
10
129.685
20
-162.5
11
130.066
21
-162.5
0
LINE
8
BLACK
6
CONTINUOUS
10
130.066
20
-162.5
11
130.256
21
-162.595
0
LINE
8
BLACK
6
CONTINUOUS
10
130.256
20
-162.595
11
130.352
21
-162.785
0
LINE
8
BLACK
6
CONTINUOUS
10
130.352
20
-162.785
11
130.352
21
-162.976
0
LINE
8
BLACK
6
CONTINUOUS
10
130.352
20
-162.976
11
129.399
21
-163.166
0
LINE
8
BLACK
6
CONTINUOUS
10
131.114
20
-163.738
11
131.304
21
-163.833
0
LINE
8
BLACK
6
CONTINUOUS
10
131.304
20
-163.833
11
131.685
21
-163.833
0
LINE
8
BLACK
6
CONTINUOUS
10
131.685
20
-163.833
11
131.875
21
-163.738
0
LINE
8
BLACK
6
CONTINUOUS
10
131.875
20
-163.738
11
131.971
21
-163.547
0
LINE
8
BLACK
6
CONTINUOUS
10
131.971
20
-163.547
11
131.971
21
-163.452
0
LINE
8
BLACK
6
CONTINUOUS
10
131.971
20
-163.452
11
131.875
21
-163.261
0
LINE
8
BLACK
6
CONTINUOUS
10
131.875
20
-163.261
11
131.685
21
-163.166
0
LINE
8
BLACK
6
CONTINUOUS
10
131.685
20
-163.166
11
131.399
21
-163.166
0
LINE
8
BLACK
6
CONTINUOUS
10
131.399
20
-163.166
11
131.209
21
-163.071
0
LINE
8
BLACK
6
CONTINUOUS
10
131.209
20
-163.071
11
131.114
21
-162.88
0
LINE
8
BLACK
6
CONTINUOUS
10
131.114
20
-162.88
11
131.114
21
-162.785
0
LINE
8
BLACK
6
CONTINUOUS
10
131.114
20
-162.785
11
131.209
21
-162.595
0
LINE
8
BLACK
6
CONTINUOUS
10
131.209
20
-162.595
11
131.399
21
-162.5
0
LINE
8
BLACK
6
CONTINUOUS
10
131.399
20
-162.5
11
131.685
21
-162.5
0
LINE
8
BLACK
6
CONTINUOUS
10
131.685
20
-162.5
11
131.875
21
-162.595
0
LINE
8
BLACK
6
CONTINUOUS
10
132.637
20
-164.595
11
132.733
21
-164.5
0
LINE
8
BLACK
6
CONTINUOUS
10
132.733
20
-164.5
11
132.923
21
-164.214
0
LINE
8
BLACK
6
CONTINUOUS
10
132.923
20
-164.214
11
133.018
21
-164.023
0
LINE
8
BLACK
6
CONTINUOUS
10
133.018
20
-164.023
11
133.114
21
-163.738
0
LINE
8
BLACK
6
CONTINUOUS
10
133.114
20
-163.738
11
133.209
21
-163.261
0
LINE
8
BLACK
6
CONTINUOUS
10
133.209
20
-163.261
11
133.209
21
-162.88
0
LINE
8
BLACK
6
CONTINUOUS
10
133.209
20
-162.88
11
133.114
21
-162.404
0
LINE
8
BLACK
6
CONTINUOUS
10
133.114
20
-162.404
11
133.018
21
-162.119
0
LINE
8
BLACK
6
CONTINUOUS
10
133.018
20
-162.119
11
132.923
21
-161.928
0
LINE
8
BLACK
6
CONTINUOUS
10
132.923
20
-161.928
11
132.733
21
-161.642
0
LINE
8
BLACK
6
CONTINUOUS
10
132.733
20
-161.642
11
132.637
21
-161.547
0
CIRCLE
8
BLACK
10
82.482
20
-165.558
40
0.5
0
LINE
8
BLACK
6
CONTINUOUS
10
86.6374
20
-166.473
11
85.4945
21
-166.473
0
LINE
8
BLACK
6
CONTINUOUS
10
86.066
20
-166.473
11
86.066
21
-164.473
0
LINE
8
BLACK
6
CONTINUOUS
10
86.066
20
-164.473
11
85.8755
21
-164.759
0
LINE
8
BLACK
6
CONTINUOUS
10
85.8755
20
-164.759
11
85.685
21
-164.949
0
LINE
8
BLACK
6
CONTINUOUS
10
85.685
20
-164.949
11
85.4945
21
-165.044
0
LINE
8
BLACK
6
CONTINUOUS
10
87.4945
20
-166.282
11
87.5898
21
-166.378
0
LINE
8
BLACK
6
CONTINUOUS
10
87.5898
20
-166.378
11
87.4945
21
-166.473
0
LINE
8
BLACK
6
CONTINUOUS
10
87.4945
20
-166.473
11
87.3993
21
-166.378
0
LINE
8
BLACK
6
CONTINUOUS
10
87.3993
20
-166.378
11
87.4945
21
-166.282
0
LINE
8
BLACK
6
CONTINUOUS
10
87.4945
20
-166.282
11
87.4945
21
-166.473
0
LINE
8
BLACK
6
CONTINUOUS
10
88.8279
20
-164.473
11
89.0183
21
-164.473
0
LINE
8
BLACK
6
CONTINUOUS
10
89.0183
20
-164.473
11
89.2088
21
-164.568
0
LINE
8
BLACK
6
CONTINUOUS
10
89.2088
20
-164.568
11
89.3041
21
-164.663
0
LINE
8
BLACK
6
CONTINUOUS
10
89.3041
20
-164.663
11
89.3993
21
-164.854
0
LINE
8
BLACK
6
CONTINUOUS
10
89.3993
20
-164.854
11
89.4945
21
-165.235
0
LINE
8
BLACK
6
CONTINUOUS
10
89.4945
20
-165.235
11
89.4945
21
-165.711
0
LINE
8
BLACK
6
CONTINUOUS
10
89.4945
20
-165.711
11
89.3993
21
-166.092
0
LINE
8
BLACK
6
CONTINUOUS
10
89.3993
20
-166.092
11
89.3041
21
-166.282
0
LINE
8
BLACK
6
CONTINUOUS
10
89.3041
20
-166.282
11
89.2088
21
-166.378
0
LINE
8
BLACK
6
CONTINUOUS
10
89.2088
20
-166.378
11
89.0183
21
-166.473
0
LINE
8
BLACK
6
CONTINUOUS
10
89.0183
20
-166.473
11
88.8279
21
-166.473
0
LINE
8
BLACK
6
CONTINUOUS
10
88.8279
20
-166.473
11
88.6374
21
-166.378
0
LINE
8
BLACK
6
CONTINUOUS
10
88.6374
20
-166.378
11
88.5421
21
-166.282
0
LINE
8
BLACK
6
CONTINUOUS
10
88.5421
20
-166.282
11
88.4469
21
-166.092
0
LINE
8
BLACK
6
CONTINUOUS
10
88.4469
20
-166.092
11
88.3517
21
-165.711
0
LINE
8
BLACK
6
CONTINUOUS
10
88.3517
20
-165.711
11
88.3517
21
-165.235
0
LINE
8
BLACK
6
CONTINUOUS
10
88.3517
20
-165.235
11
88.4469
21
-164.854
0
LINE
8
BLACK
6
CONTINUOUS
10
88.4469
20
-164.854
11
88.5421
21
-164.663
0
LINE
8
BLACK
6
CONTINUOUS
10
88.5421
20
-164.663
11
88.6374
21
-164.568
0
LINE
8
BLACK
6
CONTINUOUS
10
88.6374
20
-164.568
11
88.8279
21
-164.473
0
LINE
8
BLACK
6
CONTINUOUS
10
90.7326
20
-164.473
11
90.9231
21
-164.473
0
LINE
8
BLACK
6
CONTINUOUS
10
90.9231
20
-164.473
11
91.1136
21
-164.568
0
LINE
8
BLACK
6
CONTINUOUS
10
91.1136
20
-164.568
11
91.2088
21
-164.663
0
LINE
8
BLACK
6
CONTINUOUS
10
91.2088
20
-164.663
11
91.3041
21
-164.854
0
LINE
8
BLACK
6
CONTINUOUS
10
91.3041
20
-164.854
11
91.3993
21
-165.235
0
LINE
8
BLACK
6
CONTINUOUS
10
91.3993
20
-165.235
11
91.3993
21
-165.711
0
LINE
8
BLACK
6
CONTINUOUS
10
91.3993
20
-165.711
11
91.3041
21
-166.092
0
LINE
8
BLACK
6
CONTINUOUS
10
91.3041
20
-166.092
11
91.2088
21
-166.282
0
LINE
8
BLACK
6
CONTINUOUS
10
91.2088
20
-166.282
11
91.1136
21
-166.378
0
LINE
8
BLACK
6
CONTINUOUS
10
91.1136
20
-166.378
11
90.9231
21
-166.473
0
LINE
8
BLACK
6
CONTINUOUS
10
90.9231
20
-166.473
11
90.7326
21
-166.473
0
LINE
8
BLACK
6
CONTINUOUS
10
90.7326
20
-166.473
11
90.5421
21
-166.378
0
LINE
8
BLACK
6
CONTINUOUS
10
90.5421
20
-166.378
11
90.4469
21
-166.282
0
LINE
8
BLACK
6
CONTINUOUS
10
90.4469
20
-166.282
11
90.3517
21
-166.092
0
LINE
8
BLACK
6
CONTINUOUS
10
90.3517
20
-166.092
11
90.2564
21
-165.711
0
LINE
8
BLACK
6
CONTINUOUS
10
90.2564
20
-165.711
11
90.2564
21
-165.235
0
LINE
8
BLACK
6
CONTINUOUS
10
90.2564
20
-165.235
11
90.3517
21
-164.854
0
LINE
8
BLACK
6
CONTINUOUS
10
90.3517
20
-164.854
11
90.4469
21
-164.663
0
LINE
8
BLACK
6
CONTINUOUS
10
90.4469
20
-164.663
11
90.5421
21
-164.568
0
LINE
8
BLACK
6
CONTINUOUS
10
90.5421
20
-164.568
11
90.7326
21
-164.473
0
LINE
8
BLACK
6
CONTINUOUS
10
92.6374
20
-164.473
11
92.8279
21
-164.473
0
LINE
8
BLACK
6
CONTINUOUS
10
92.8279
20
-164.473
11
93.0183
21
-164.568
0
LINE
8
BLACK
6
CONTINUOUS
10
93.0183
20
-164.568
11
93.1136
21
-164.663
0
LINE
8
BLACK
6
CONTINUOUS
10
93.1136
20
-164.663
11
93.2088
21
-164.854
0
LINE
8
BLACK
6
CONTINUOUS
10
93.2088
20
-164.854
11
93.3041
21
-165.235
0
LINE
8
BLACK
6
CONTINUOUS
10
93.3041
20
-165.235
11
93.3041
21
-165.711
0
LINE
8
BLACK
6
CONTINUOUS
10
93.3041
20
-165.711
11
93.2088
21
-166.092
0
LINE
8
BLACK
6
CONTINUOUS
10
93.2088
20
-166.092
11
93.1136
21
-166.282
0
LINE
8
BLACK
6
CONTINUOUS
10
93.1136
20
-166.282
11
93.0183
21
-166.378
0
LINE
8
BLACK
6
CONTINUOUS
10
93.0183
20
-166.378
11
92.8279
21
-166.473
0
LINE
8
BLACK
6
CONTINUOUS
10
92.8279
20
-166.473
11
92.6374
21
-166.473
0
LINE
8
BLACK
6
CONTINUOUS
10
92.6374
20
-166.473
11
92.4469
21
-166.378
0
LINE
8
BLACK
6
CONTINUOUS
10
92.4469
20
-166.378
11
92.3517
21
-166.282
0
LINE
8
BLACK
6
CONTINUOUS
10
92.3517
20
-166.282
11
92.2564
21
-166.092
0
LINE
8
BLACK
6
CONTINUOUS
10
92.2564
20
-166.092
11
92.1612
21
-165.711
0
LINE
8
BLACK
6
CONTINUOUS
10
92.1612
20
-165.711
11
92.1612
21
-165.235
0
LINE
8
BLACK
6
CONTINUOUS
10
92.1612
20
-165.235
11
92.2564
21
-164.854
0
LINE
8
BLACK
6
CONTINUOUS
10
92.2564
20
-164.854
11
92.3517
21
-164.663
0
LINE
8
BLACK
6
CONTINUOUS
10
92.3517
20
-164.663
11
92.4469
21
-164.568
0
LINE
8
BLACK
6
CONTINUOUS
10
92.4469
20
-164.568
11
92.6374
21
-164.473
0
LINE
8
BLACK
6
CONTINUOUS
10
94.1612
20
-166.473
11
94.1612
21
-165.14
0
LINE
8
BLACK
6
CONTINUOUS
10
94.1612
20
-165.33
11
94.2564
21
-165.235
0
LINE
8
BLACK
6
CONTINUOUS
10
94.2564
20
-165.235
11
94.4469
21
-165.14
0
LINE
8
BLACK
6
CONTINUOUS
10
94.4469
20
-165.14
11
94.7326
21
-165.14
0
LINE
8
BLACK
6
CONTINUOUS
10
94.7326
20
-165.14
11
94.9231
21
-165.235
0
LINE
8
BLACK
6
CONTINUOUS
10
94.9231
20
-165.235
11
95.0183
21
-165.425
0
LINE
8
BLACK
6
CONTINUOUS
10
95.0183
20
-165.425
11
95.0183
21
-166.473
0
LINE
8
BLACK
6
CONTINUOUS
10
95.0183
20
-165.425
11
95.1136
21
-165.235
0
LINE
8
BLACK
6
CONTINUOUS
10
95.1136
20
-165.235
11
95.3041
21
-165.14
0
LINE
8
BLACK
6
CONTINUOUS
10
95.3041
20
-165.14
11
95.5898
21
-165.14
0
LINE
8
BLACK
6
CONTINUOUS
10
95.5898
20
-165.14
11
95.7802
21
-165.235
0
LINE
8
BLACK
6
CONTINUOUS
10
95.7802
20
-165.235
11
95.8755
21
-165.425
0
LINE
8
BLACK
6
CONTINUOUS
10
95.8755
20
-165.425
11
95.8755
21
-166.473
0
LINE
8
BLACK
6
CONTINUOUS
10
96.8279
20
-166.473
11
96.8279
21
-165.14
0
LINE
8
BLACK
6
CONTINUOUS
10
96.8279
20
-165.33
11
96.9231
21
-165.235
0
LINE
8
BLACK
6
CONTINUOUS
10
96.9231
20
-165.235
11
97.1136
21
-165.14
0
LINE
8
BLACK
6
CONTINUOUS
10
97.1136
20
-165.14
11
97.3993
21
-165.14
0
LINE
8
BLACK
6
CONTINUOUS
10
97.3993
20
-165.14
11
97.5898
21
-165.235
0
LINE
8
BLACK
6
CONTINUOUS
10
97.5898
20
-165.235
11
97.685
21
-165.425
0
LINE
8
BLACK
6
CONTINUOUS
10
97.685
20
-165.425
11
97.685
21
-166.473
0
LINE
8
BLACK
6
CONTINUOUS
10
97.685
20
-165.425
11
97.7802
21
-165.235
0
LINE
8
BLACK
6
CONTINUOUS
10
97.7802
20
-165.235
11
97.9707
21
-165.14
0
LINE
8
BLACK
6
CONTINUOUS
10
97.9707
20
-165.14
11
98.2564
21
-165.14
0
LINE
8
BLACK
6
CONTINUOUS
10
98.2564
20
-165.14
11
98.4469
21
-165.235
0
LINE
8
BLACK
6
CONTINUOUS
10
98.4469
20
-165.235
11
98.5421
21
-165.425
0
LINE
8
BLACK
6
CONTINUOUS
10
98.5421
20
-165.425
11
98.5421
21
-166.473
0
LINE
8
BLACK
6
CONTINUOUS
10
102.447
20
-164.378
11
100.733
21
-166.949
0
LINE
8
BLACK
6
CONTINUOUS
10
105.018
20
-164.473
11
105.209
21
-164.473
0
LINE
8
BLACK
6
CONTINUOUS
10
105.209
20
-164.473
11
105.399
21
-164.568
0
LINE
8
BLACK
6
CONTINUOUS
10
105.399
20
-164.568
11
105.495
21
-164.663
0
LINE
8
BLACK
6
CONTINUOUS
10
105.495
20
-164.663
11
105.59
21
-164.854
0
LINE
8
BLACK
6
CONTINUOUS
10
105.59
20
-164.854
11
105.685
21
-165.235
0
LINE
8
BLACK
6
CONTINUOUS
10
105.685
20
-165.235
11
105.685
21
-165.711
0
LINE
8
BLACK
6
CONTINUOUS
10
105.685
20
-165.711
11
105.59
21
-166.092
0
LINE
8
BLACK
6
CONTINUOUS
10
105.59
20
-166.092
11
105.495
21
-166.282
0
LINE
8
BLACK
6
CONTINUOUS
10
105.495
20
-166.282
11
105.399
21
-166.378
0
LINE
8
BLACK
6
CONTINUOUS
10
105.399
20
-166.378
11
105.209
21
-166.473
0
LINE
8
BLACK
6
CONTINUOUS
10
105.209
20
-166.473
11
105.018
21
-166.473
0
LINE
8
BLACK
6
CONTINUOUS
10
105.018
20
-166.473
11
104.828
21
-166.378
0
LINE
8
BLACK
6
CONTINUOUS
10
104.828
20
-166.378
11
104.733
21
-166.282
0
LINE
8
BLACK
6
CONTINUOUS
10
104.733
20
-166.282
11
104.637
21
-166.092
0
LINE
8
BLACK
6
CONTINUOUS
10
104.637
20
-166.092
11
104.542
21
-165.711
0
LINE
8
BLACK
6
CONTINUOUS
10
104.542
20
-165.711
11
104.542
21
-165.235
0
LINE
8
BLACK
6
CONTINUOUS
10
104.542
20
-165.235
11
104.637
21
-164.854
0
LINE
8
BLACK
6
CONTINUOUS
10
104.637
20
-164.854
11
104.733
21
-164.663
0
LINE
8
BLACK
6
CONTINUOUS
10
104.733
20
-164.663
11
104.828
21
-164.568
0
LINE
8
BLACK
6
CONTINUOUS
10
104.828
20
-164.568
11
105.018
21
-164.473
0
LINE
8
BLACK
6
CONTINUOUS
10
106.542
20
-166.282
11
106.637
21
-166.378
0
LINE
8
BLACK
6
CONTINUOUS
10
106.637
20
-166.378
11
106.542
21
-166.473
0
LINE
8
BLACK
6
CONTINUOUS
10
106.542
20
-166.473
11
106.447
21
-166.378
0
LINE
8
BLACK
6
CONTINUOUS
10
106.447
20
-166.378
11
106.542
21
-166.282
0
LINE
8
BLACK
6
CONTINUOUS
10
106.542
20
-166.282
11
106.542
21
-166.473
0
LINE
8
BLACK
6
CONTINUOUS
10
107.875
20
-164.473
11
108.066
21
-164.473
0
LINE
8
BLACK
6
CONTINUOUS
10
108.066
20
-164.473
11
108.256
21
-164.568
0
LINE
8
BLACK
6
CONTINUOUS
10
108.256
20
-164.568
11
108.352
21
-164.663
0
LINE
8
BLACK
6
CONTINUOUS
10
108.352
20
-164.663
11
108.447
21
-164.854
0
LINE
8
BLACK
6
CONTINUOUS
10
108.447
20
-164.854
11
108.542
21
-165.235
0
LINE
8
BLACK
6
CONTINUOUS
10
108.542
20
-165.235
11
108.542
21
-165.711
0
LINE
8
BLACK
6
CONTINUOUS
10
108.542
20
-165.711
11
108.447
21
-166.092
0
LINE
8
BLACK
6
CONTINUOUS
10
108.447
20
-166.092
11
108.352
21
-166.282
0
LINE
8
BLACK
6
CONTINUOUS
10
108.352
20
-166.282
11
108.256
21
-166.378
0
LINE
8
BLACK
6
CONTINUOUS
10
108.256
20
-166.378
11
108.066
21
-166.473
0
LINE
8
BLACK
6
CONTINUOUS
10
108.066
20
-166.473
11
107.875
21
-166.473
0
LINE
8
BLACK
6
CONTINUOUS
10
107.875
20
-166.473
11
107.685
21
-166.378
0
LINE
8
BLACK
6
CONTINUOUS
10
107.685
20
-166.378
11
107.59
21
-166.282
0
LINE
8
BLACK
6
CONTINUOUS
10
107.59
20
-166.282
11
107.495
21
-166.092
0
LINE
8
BLACK
6
CONTINUOUS
10
107.495
20
-166.092
11
107.399
21
-165.711
0
LINE
8
BLACK
6
CONTINUOUS
10
107.399
20
-165.711
11
107.399
21
-165.235
0
LINE
8
BLACK
6
CONTINUOUS
10
107.399
20
-165.235
11
107.495
21
-164.854
0
LINE
8
BLACK
6
CONTINUOUS
10
107.495
20
-164.854
11
107.59
21
-164.663
0
LINE
8
BLACK
6
CONTINUOUS
10
107.59
20
-164.663
11
107.685
21
-164.568
0
LINE
8
BLACK
6
CONTINUOUS
10
107.685
20
-164.568
11
107.875
21
-164.473
0
LINE
8
BLACK
6
CONTINUOUS
10
109.209
20
-164.473
11
110.447
21
-164.473
0
LINE
8
BLACK
6
CONTINUOUS
10
110.447
20
-164.473
11
109.78
21
-165.235
0
LINE
8
BLACK
6
CONTINUOUS
10
109.78
20
-165.235
11
110.066
21
-165.235
0
LINE
8
BLACK
6
CONTINUOUS
10
110.066
20
-165.235
11
110.256
21
-165.33
0
LINE
8
BLACK
6
CONTINUOUS
10
110.256
20
-165.33
11
110.352
21
-165.425
0
LINE
8
BLACK
6
CONTINUOUS
10
110.352
20
-165.425
11
110.447
21
-165.616
0
LINE
8
BLACK
6
CONTINUOUS
10
110.447
20
-165.616
11
110.447
21
-166.092
0
LINE
8
BLACK
6
CONTINUOUS
10
110.447
20
-166.092
11
110.352
21
-166.282
0
LINE
8
BLACK
6
CONTINUOUS
10
110.352
20
-166.282
11
110.256
21
-166.378
0
LINE
8
BLACK
6
CONTINUOUS
10
110.256
20
-166.378
11
110.066
21
-166.473
0
LINE
8
BLACK
6
CONTINUOUS
10
110.066
20
-166.473
11
109.495
21
-166.473
0
LINE
8
BLACK
6
CONTINUOUS
10
109.495
20
-166.473
11
109.304
21
-166.378
0
LINE
8
BLACK
6
CONTINUOUS
10
109.304
20
-166.378
11
109.209
21
-166.282
0
LINE
8
BLACK
6
CONTINUOUS
10
111.399
20
-166.473
11
111.78
21
-166.473
0
LINE
8
BLACK
6
CONTINUOUS
10
111.78
20
-166.473
11
111.971
21
-166.378
0
LINE
8
BLACK
6
CONTINUOUS
10
111.971
20
-166.378
11
112.066
21
-166.282
0
LINE
8
BLACK
6
CONTINUOUS
10
112.066
20
-166.282
11
112.256
21
-165.997
0
LINE
8
BLACK
6
CONTINUOUS
10
112.256
20
-165.997
11
112.352
21
-165.616
0
LINE
8
BLACK
6
CONTINUOUS
10
112.352
20
-165.616
11
112.352
21
-164.854
0
LINE
8
BLACK
6
CONTINUOUS
10
112.352
20
-164.854
11
112.256
21
-164.663
0
LINE
8
BLACK
6
CONTINUOUS
10
112.256
20
-164.663
11
112.161
21
-164.568
0
LINE
8
BLACK
6
CONTINUOUS
10
112.161
20
-164.568
11
111.971
21
-164.473
0
LINE
8
BLACK
6
CONTINUOUS
10
111.971
20
-164.473
11
111.59
21
-164.473
0
LINE
8
BLACK
6
CONTINUOUS
10
111.59
20
-164.473
11
111.399
21
-164.568
0
LINE
8
BLACK
6
CONTINUOUS
10
111.399
20
-164.568
11
111.304
21
-164.663
0
LINE
8
BLACK
6
CONTINUOUS
10
111.304
20
-164.663
11
111.209
21
-164.854
0
LINE
8
BLACK
6
CONTINUOUS
10
111.209
20
-164.854
11
111.209
21
-165.33
0
LINE
8
BLACK
6
CONTINUOUS
10
111.209
20
-165.33
11
111.304
21
-165.52
0
LINE
8
BLACK
6
CONTINUOUS
10
111.304
20
-165.52
11
111.399
21
-165.616
0
LINE
8
BLACK
6
CONTINUOUS
10
111.399
20
-165.616
11
111.59
21
-165.711
0
LINE
8
BLACK
6
CONTINUOUS
10
111.59
20
-165.711
11
111.971
21
-165.711
0
LINE
8
BLACK
6
CONTINUOUS
10
111.971
20
-165.711
11
112.161
21
-165.616
0
LINE
8
BLACK
6
CONTINUOUS
10
112.161
20
-165.616
11
112.256
21
-165.52
0
LINE
8
BLACK
6
CONTINUOUS
10
112.256
20
-165.52
11
112.352
21
-165.33
0
LINE
8
BLACK
6
CONTINUOUS
10
114.066
20
-165.14
11
114.066
21
-166.473
0
LINE
8
BLACK
6
CONTINUOUS
10
113.59
20
-164.378
11
113.114
21
-165.806
0
LINE
8
BLACK
6
CONTINUOUS
10
113.114
20
-165.806
11
114.352
21
-165.806
0
LINE
8
BLACK
6
CONTINUOUS
10
115.018
20
-164.473
11
115.018
21
-164.854
0
LINE
8
BLACK
6
CONTINUOUS
10
115.78
20
-164.473
11
115.78
21
-164.854
0
LINE
8
BLACK
6
CONTINUOUS
10
118.733
20
-167.235
11
118.637
21
-167.14
0
LINE
8
BLACK
6
CONTINUOUS
10
118.637
20
-167.14
11
118.447
21
-166.854
0
LINE
8
BLACK
6
CONTINUOUS
10
118.447
20
-166.854
11
118.352
21
-166.663
0
LINE
8
BLACK
6
CONTINUOUS
10
118.352
20
-166.663
11
118.256
21
-166.378
0
LINE
8
BLACK
6
CONTINUOUS
10
118.256
20
-166.378
11
118.161
21
-165.901
0
LINE
8
BLACK
6
CONTINUOUS
10
118.161
20
-165.901
11
118.161
21
-165.52
0
LINE
8
BLACK
6
CONTINUOUS
10
118.161
20
-165.52
11
118.256
21
-165.044
0
LINE
8
BLACK
6
CONTINUOUS
10
118.256
20
-165.044
11
118.352
21
-164.759
0
LINE
8
BLACK
6
CONTINUOUS
10
118.352
20
-164.759
11
118.447
21
-164.568
0
LINE
8
BLACK
6
CONTINUOUS
10
118.447
20
-164.568
11
118.637
21
-164.282
0
LINE
8
BLACK
6
CONTINUOUS
10
118.637
20
-164.282
11
118.733
21
-164.187
0
LINE
8
BLACK
6
CONTINUOUS
10
120.542
20
-166.473
11
119.399
21
-166.473
0
LINE
8
BLACK
6
CONTINUOUS
10
119.971
20
-166.473
11
119.971
21
-164.473
0
LINE
8
BLACK
6
CONTINUOUS
10
119.971
20
-164.473
11
119.78
21
-164.759
0
LINE
8
BLACK
6
CONTINUOUS
10
119.78
20
-164.759
11
119.59
21
-164.949
0
LINE
8
BLACK
6
CONTINUOUS
10
119.59
20
-164.949
11
119.399
21
-165.044
0
LINE
8
BLACK
6
CONTINUOUS
10
121.304
20
-164.663
11
121.399
21
-164.568
0
LINE
8
BLACK
6
CONTINUOUS
10
121.399
20
-164.568
11
121.59
21
-164.473
0
LINE
8
BLACK
6
CONTINUOUS
10
121.59
20
-164.473
11
122.066
21
-164.473
0
LINE
8
BLACK
6
CONTINUOUS
10
122.066
20
-164.473
11
122.256
21
-164.568
0
LINE
8
BLACK
6
CONTINUOUS
10
122.256
20
-164.568
11
122.352
21
-164.663
0
LINE
8
BLACK
6
CONTINUOUS
10
122.352
20
-164.663
11
122.447
21
-164.854
0
LINE
8
BLACK
6
CONTINUOUS
10
122.447
20
-164.854
11
122.447
21
-165.044
0
LINE
8
BLACK
6
CONTINUOUS
10
122.447
20
-165.044
11
122.352
21
-165.33
0
LINE
8
BLACK
6
CONTINUOUS
10
122.352
20
-165.33
11
121.209
21
-166.473
0
LINE
8
BLACK
6
CONTINUOUS
10
121.209
20
-166.473
11
122.447
21
-166.473
0
LINE
8
BLACK
6
CONTINUOUS
10
124.828
20
-166.473
11
124.828
21
-164.473
0
LINE
8
BLACK
6
CONTINUOUS
10
125.685
20
-166.473
11
125.685
21
-165.425
0
LINE
8
BLACK
6
CONTINUOUS
10
125.685
20
-165.425
11
125.59
21
-165.235
0
LINE
8
BLACK
6
CONTINUOUS
10
125.59
20
-165.235
11
125.399
21
-165.14
0
LINE
8
BLACK
6
CONTINUOUS
10
125.399
20
-165.14
11
125.114
21
-165.14
0
LINE
8
BLACK
6
CONTINUOUS
10
125.114
20
-165.14
11
124.923
21
-165.235
0
LINE
8
BLACK
6
CONTINUOUS
10
124.923
20
-165.235
11
124.828
21
-165.33
0
LINE
8
BLACK
6
CONTINUOUS
10
126.923
20
-166.473
11
126.733
21
-166.378
0
LINE
8
BLACK
6
CONTINUOUS
10
126.733
20
-166.378
11
126.637
21
-166.282
0
LINE
8
BLACK
6
CONTINUOUS
10
126.637
20
-166.282
11
126.542
21
-166.092
0
LINE
8
BLACK
6
CONTINUOUS
10
126.542
20
-166.092
11
126.542
21
-165.52
0
LINE
8
BLACK
6
CONTINUOUS
10
126.542
20
-165.52
11
126.637
21
-165.33
0
LINE
8
BLACK
6
CONTINUOUS
10
126.637
20
-165.33
11
126.733
21
-165.235
0
LINE
8
BLACK
6
CONTINUOUS
10
126.733
20
-165.235
11
126.923
21
-165.14
0
LINE
8
BLACK
6
CONTINUOUS
10
126.923
20
-165.14
11
127.209
21
-165.14
0
LINE
8
BLACK
6
CONTINUOUS
10
127.209
20
-165.14
11
127.399
21
-165.235
0
LINE
8
BLACK
6
CONTINUOUS
10
127.399
20
-165.235
11
127.495
21
-165.33
0
LINE
8
BLACK
6
CONTINUOUS
10
127.495
20
-165.33
11
127.59
21
-165.52
0
LINE
8
BLACK
6
CONTINUOUS
10
127.59
20
-165.52
11
127.59
21
-166.092
0
LINE
8
BLACK
6
CONTINUOUS
10
127.59
20
-166.092
11
127.495
21
-166.282
0
LINE
8
BLACK
6
CONTINUOUS
10
127.495
20
-166.282
11
127.399
21
-166.378
0
LINE
8
BLACK
6
CONTINUOUS
10
127.399
20
-166.378
11
127.209
21
-166.473
0
LINE
8
BLACK
6
CONTINUOUS
10
127.209
20
-166.473
11
126.923
21
-166.473
0
LINE
8
BLACK
6
CONTINUOUS
10
128.733
20
-166.473
11
128.542
21
-166.378
0
LINE
8
BLACK
6
CONTINUOUS
10
128.542
20
-166.378
11
128.447
21
-166.187
0
LINE
8
BLACK
6
CONTINUOUS
10
128.447
20
-166.187
11
128.447
21
-164.473
0
LINE
8
BLACK
6
CONTINUOUS
10
130.256
20
-166.378
11
130.066
21
-166.473
0
LINE
8
BLACK
6
CONTINUOUS
10
130.066
20
-166.473
11
129.685
21
-166.473
0
LINE
8
BLACK
6
CONTINUOUS
10
129.685
20
-166.473
11
129.495
21
-166.378
0
LINE
8
BLACK
6
CONTINUOUS
10
129.495
20
-166.378
11
129.399
21
-166.187
0
LINE
8
BLACK
6
CONTINUOUS
10
129.399
20
-166.187
11
129.399
21
-165.425
0
LINE
8
BLACK
6
CONTINUOUS
10
129.399
20
-165.425
11
129.495
21
-165.235
0
LINE
8
BLACK
6
CONTINUOUS
10
129.495
20
-165.235
11
129.685
21
-165.14
0
LINE
8
BLACK
6
CONTINUOUS
10
129.685
20
-165.14
11
130.066
21
-165.14
0
LINE
8
BLACK
6
CONTINUOUS
10
130.066
20
-165.14
11
130.256
21
-165.235
0
LINE
8
BLACK
6
CONTINUOUS
10
130.256
20
-165.235
11
130.352
21
-165.425
0
LINE
8
BLACK
6
CONTINUOUS
10
130.352
20
-165.425
11
130.352
21
-165.616
0
LINE
8
BLACK
6
CONTINUOUS
10
130.352
20
-165.616
11
129.399
21
-165.806
0
LINE
8
BLACK
6
CONTINUOUS
10
131.114
20
-166.378
11
131.304
21
-166.473
0
LINE
8
BLACK
6
CONTINUOUS
10
131.304
20
-166.473
11
131.685
21
-166.473
0
LINE
8
BLACK
6
CONTINUOUS
10
131.685
20
-166.473
11
131.875
21
-166.378
0
LINE
8
BLACK
6
CONTINUOUS
10
131.875
20
-166.378
11
131.971
21
-166.187
0
LINE
8
BLACK
6
CONTINUOUS
10
131.971
20
-166.187
11
131.971
21
-166.092
0
LINE
8
BLACK
6
CONTINUOUS
10
131.971
20
-166.092
11
131.875
21
-165.901
0
LINE
8
BLACK
6
CONTINUOUS
10
131.875
20
-165.901
11
131.685
21
-165.806
0
LINE
8
BLACK
6
CONTINUOUS
10
131.685
20
-165.806
11
131.399
21
-165.806
0
LINE
8
BLACK
6
CONTINUOUS
10
131.399
20
-165.806
11
131.209
21
-165.711
0
LINE
8
BLACK
6
CONTINUOUS
10
131.209
20
-165.711
11
131.114
21
-165.52
0
LINE
8
BLACK
6
CONTINUOUS
10
131.114
20
-165.52
11
131.114
21
-165.425
0
LINE
8
BLACK
6
CONTINUOUS
10
131.114
20
-165.425
11
131.209
21
-165.235
0
LINE
8
BLACK
6
CONTINUOUS
10
131.209
20
-165.235
11
131.399
21
-165.14
0
LINE
8
BLACK
6
CONTINUOUS
10
131.399
20
-165.14
11
131.685
21
-165.14
0
LINE
8
BLACK
6
CONTINUOUS
10
131.685
20
-165.14
11
131.875
21
-165.235
0
LINE
8
BLACK
6
CONTINUOUS
10
132.637
20
-167.235
11
132.733
21
-167.14
0
LINE
8
BLACK
6
CONTINUOUS
10
132.733
20
-167.14
11
132.923
21
-166.854
0
LINE
8
BLACK
6
CONTINUOUS
10
132.923
20
-166.854
11
133.018
21
-166.663
0
LINE
8
BLACK
6
CONTINUOUS
10
133.018
20
-166.663
11
133.114
21
-166.378
0
LINE
8
BLACK
6
CONTINUOUS
10
133.114
20
-166.378
11
133.209
21
-165.901
0
LINE
8
BLACK
6
CONTINUOUS
10
133.209
20
-165.901
11
133.209
21
-165.52
0
LINE
8
BLACK
6
CONTINUOUS
10
133.209
20
-165.52
11
133.114
21
-165.044
0
LINE
8
BLACK
6
CONTINUOUS
10
133.114
20
-165.044
11
133.018
21
-164.759
0
LINE
8
BLACK
6
CONTINUOUS
10
133.018
20
-164.759
11
132.923
21
-164.568
0
LINE
8
BLACK
6
CONTINUOUS
10
132.923
20
-164.568
11
132.733
21
-164.282
0
LINE
8
BLACK
6
CONTINUOUS
10
132.733
20
-164.282
11
132.637
21
-164.187
0
LINE
8
BLACK
6
CONTINUOUS
10
82.4867
20
-167.703
11
82.4867
21
-168.693
0
LINE
8
BLACK
6
CONTINUOUS
10
81.9914
20
-168.198
11
82.982
21
-168.198
0
LINE
8
BLACK
6
CONTINUOUS
10
85.9707
20
-167.113
11
86.1612
21
-167.113
0
LINE
8
BLACK
6
CONTINUOUS
10
86.1612
20
-167.113
11
86.3517
21
-167.208
0
LINE
8
BLACK
6
CONTINUOUS
10
86.3517
20
-167.208
11
86.4469
21
-167.303
0
LINE
8
BLACK
6
CONTINUOUS
10
86.4469
20
-167.303
11
86.5421
21
-167.494
0
LINE
8
BLACK
6
CONTINUOUS
10
86.5421
20
-167.494
11
86.6374
21
-167.875
0
LINE
8
BLACK
6
CONTINUOUS
10
86.6374
20
-167.875
11
86.6374
21
-168.351
0
LINE
8
BLACK
6
CONTINUOUS
10
86.6374
20
-168.351
11
86.5421
21
-168.732
0
LINE
8
BLACK
6
CONTINUOUS
10
86.5421
20
-168.732
11
86.4469
21
-168.922
0
LINE
8
BLACK
6
CONTINUOUS
10
86.4469
20
-168.922
11
86.3517
21
-169.018
0
LINE
8
BLACK
6
CONTINUOUS
10
86.3517
20
-169.018
11
86.1612
21
-169.113
0
LINE
8
BLACK
6
CONTINUOUS
10
86.1612
20
-169.113
11
85.9707
21
-169.113
0
LINE
8
BLACK
6
CONTINUOUS
10
85.9707
20
-169.113
11
85.7802
21
-169.018
0
LINE
8
BLACK
6
CONTINUOUS
10
85.7802
20
-169.018
11
85.685
21
-168.922
0
LINE
8
BLACK
6
CONTINUOUS
10
85.685
20
-168.922
11
85.5898
21
-168.732
0
LINE
8
BLACK
6
CONTINUOUS
10
85.5898
20
-168.732
11
85.4945
21
-168.351
0
LINE
8
BLACK
6
CONTINUOUS
10
85.4945
20
-168.351
11
85.4945
21
-167.875
0
LINE
8
BLACK
6
CONTINUOUS
10
85.4945
20
-167.875
11
85.5898
21
-167.494
0
LINE
8
BLACK
6
CONTINUOUS
10
85.5898
20
-167.494
11
85.685
21
-167.303
0
LINE
8
BLACK
6
CONTINUOUS
10
85.685
20
-167.303
11
85.7802
21
-167.208
0
LINE
8
BLACK
6
CONTINUOUS
10
85.7802
20
-167.208
11
85.9707
21
-167.113
0
LINE
8
BLACK
6
CONTINUOUS
10
87.4945
20
-168.922
11
87.5898
21
-169.018
0
LINE
8
BLACK
6
CONTINUOUS
10
87.5898
20
-169.018
11
87.4945
21
-169.113
0
LINE
8
BLACK
6
CONTINUOUS
10
87.4945
20
-169.113
11
87.3993
21
-169.018
0
LINE
8
BLACK
6
CONTINUOUS
10
87.3993
20
-169.018
11
87.4945
21
-168.922
0
LINE
8
BLACK
6
CONTINUOUS
10
87.4945
20
-168.922
11
87.4945
21
-169.113
0
LINE
8
BLACK
6
CONTINUOUS
10
88.5421
20
-169.113
11
88.9231
21
-169.113
0
LINE
8
BLACK
6
CONTINUOUS
10
88.9231
20
-169.113
11
89.1136
21
-169.018
0
LINE
8
BLACK
6
CONTINUOUS
10
89.1136
20
-169.018
11
89.2088
21
-168.922
0
LINE
8
BLACK
6
CONTINUOUS
10
89.2088
20
-168.922
11
89.3993
21
-168.637
0
LINE
8
BLACK
6
CONTINUOUS
10
89.3993
20
-168.637
11
89.4945
21
-168.256
0
LINE
8
BLACK
6
CONTINUOUS
10
89.4945
20
-168.256
11
89.4945
21
-167.494
0
LINE
8
BLACK
6
CONTINUOUS
10
89.4945
20
-167.494
11
89.3993
21
-167.303
0
LINE
8
BLACK
6
CONTINUOUS
10
89.3993
20
-167.303
11
89.3041
21
-167.208
0
LINE
8
BLACK
6
CONTINUOUS
10
89.3041
20
-167.208
11
89.1136
21
-167.113
0
LINE
8
BLACK
6
CONTINUOUS
10
89.1136
20
-167.113
11
88.7326
21
-167.113
0
LINE
8
BLACK
6
CONTINUOUS
10
88.7326
20
-167.113
11
88.5421
21
-167.208
0
LINE
8
BLACK
6
CONTINUOUS
10
88.5421
20
-167.208
11
88.4469
21
-167.303
0
LINE
8
BLACK
6
CONTINUOUS
10
88.4469
20
-167.303
11
88.3517
21
-167.494
0
LINE
8
BLACK
6
CONTINUOUS
10
88.3517
20
-167.494
11
88.3517
21
-167.97
0
LINE
8
BLACK
6
CONTINUOUS
10
88.3517
20
-167.97
11
88.4469
21
-168.16
0
LINE
8
BLACK
6
CONTINUOUS
10
88.4469
20
-168.16
11
88.5421
21
-168.256
0
LINE
8
BLACK
6
CONTINUOUS
10
88.5421
20
-168.256
11
88.7326
21
-168.351
0
LINE
8
BLACK
6
CONTINUOUS
10
88.7326
20
-168.351
11
89.1136
21
-168.351
0
LINE
8
BLACK
6
CONTINUOUS
10
89.1136
20
-168.351
11
89.3041
21
-168.256
0
LINE
8
BLACK
6
CONTINUOUS
10
89.3041
20
-168.256
11
89.3993
21
-168.16
0
LINE
8
BLACK
6
CONTINUOUS
10
89.3993
20
-168.16
11
89.4945
21
-167.97
0
LINE
8
BLACK
6
CONTINUOUS
10
90.4469
20
-169.113
11
90.8279
21
-169.113
0
LINE
8
BLACK
6
CONTINUOUS
10
90.8279
20
-169.113
11
91.0183
21
-169.018
0
LINE
8
BLACK
6
CONTINUOUS
10
91.0183
20
-169.018
11
91.1136
21
-168.922
0
LINE
8
BLACK
6
CONTINUOUS
10
91.1136
20
-168.922
11
91.3041
21
-168.637
0
LINE
8
BLACK
6
CONTINUOUS
10
91.3041
20
-168.637
11
91.3993
21
-168.256
0
LINE
8
BLACK
6
CONTINUOUS
10
91.3993
20
-168.256
11
91.3993
21
-167.494
0
LINE
8
BLACK
6
CONTINUOUS
10
91.3993
20
-167.494
11
91.3041
21
-167.303
0
LINE
8
BLACK
6
CONTINUOUS
10
91.3041
20
-167.303
11
91.2088
21
-167.208
0
LINE
8
BLACK
6
CONTINUOUS
10
91.2088
20
-167.208
11
91.0183
21
-167.113
0
LINE
8
BLACK
6
CONTINUOUS
10
91.0183
20
-167.113
11
90.6374
21
-167.113
0
LINE
8
BLACK
6
CONTINUOUS
10
90.6374
20
-167.113
11
90.4469
21
-167.208
0
LINE
8
BLACK
6
CONTINUOUS
10
90.4469
20
-167.208
11
90.3517
21
-167.303
0
LINE
8
BLACK
6
CONTINUOUS
10
90.3517
20
-167.303
11
90.2564
21
-167.494
0
LINE
8
BLACK
6
CONTINUOUS
10
90.2564
20
-167.494
11
90.2564
21
-167.97
0
LINE
8
BLACK
6
CONTINUOUS
10
90.2564
20
-167.97
11
90.3517
21
-168.16
0
LINE
8
BLACK
6
CONTINUOUS
10
90.3517
20
-168.16
11
90.4469
21
-168.256
0
LINE
8
BLACK
6
CONTINUOUS
10
90.4469
20
-168.256
11
90.6374
21
-168.351
0
LINE
8
BLACK
6
CONTINUOUS
10
90.6374
20
-168.351
11
91.0183
21
-168.351
0
LINE
8
BLACK
6
CONTINUOUS
10
91.0183
20
-168.351
11
91.2088
21
-168.256
0
LINE
8
BLACK
6
CONTINUOUS
10
91.2088
20
-168.256
11
91.3041
21
-168.16
0
LINE
8
BLACK
6
CONTINUOUS
10
91.3041
20
-168.16
11
91.3993
21
-167.97
0
LINE
8
BLACK
6
CONTINUOUS
10
93.3041
20
-169.113
11
92.1612
21
-169.113
0
LINE
8
BLACK
6
CONTINUOUS
10
92.7326
20
-169.113
11
92.7326
21
-167.113
0
LINE
8
BLACK
6
CONTINUOUS
10
92.7326
20
-167.113
11
92.5421
21
-167.399
0
LINE
8
BLACK
6
CONTINUOUS
10
92.5421
20
-167.399
11
92.3517
21
-167.589
0
LINE
8
BLACK
6
CONTINUOUS
10
92.3517
20
-167.589
11
92.1612
21
-167.684
0
LINE
8
BLACK
6
CONTINUOUS
10
94.1612
20
-169.113
11
94.1612
21
-167.78
0
LINE
8
BLACK
6
CONTINUOUS
10
94.1612
20
-167.97
11
94.2564
21
-167.875
0
LINE
8
BLACK
6
CONTINUOUS
10
94.2564
20
-167.875
11
94.4469
21
-167.78
0
LINE
8
BLACK
6
CONTINUOUS
10
94.4469
20
-167.78
11
94.7326
21
-167.78
0
LINE
8
BLACK
6
CONTINUOUS
10
94.7326
20
-167.78
11
94.9231
21
-167.875
0
LINE
8
BLACK
6
CONTINUOUS
10
94.9231
20
-167.875
11
95.0183
21
-168.065
0
LINE
8
BLACK
6
CONTINUOUS
10
95.0183
20
-168.065
11
95.0183
21
-169.113
0
LINE
8
BLACK
6
CONTINUOUS
10
95.0183
20
-168.065
11
95.1136
21
-167.875
0
LINE
8
BLACK
6
CONTINUOUS
10
95.1136
20
-167.875
11
95.3041
21
-167.78
0
LINE
8
BLACK
6
CONTINUOUS
10
95.3041
20
-167.78
11
95.5898
21
-167.78
0
LINE
8
BLACK
6
CONTINUOUS
10
95.5898
20
-167.78
11
95.7802
21
-167.875
0
LINE
8
BLACK
6
CONTINUOUS
10
95.7802
20
-167.875
11
95.8755
21
-168.065
0
LINE
8
BLACK
6
CONTINUOUS
10
95.8755
20
-168.065
11
95.8755
21
-169.113
0
LINE
8
BLACK
6
CONTINUOUS
10
96.8279
20
-169.113
11
96.8279
21
-167.78
0
LINE
8
BLACK
6
CONTINUOUS
10
96.8279
20
-167.97
11
96.9231
21
-167.875
0
LINE
8
BLACK
6
CONTINUOUS
10
96.9231
20
-167.875
11
97.1136
21
-167.78
0
LINE
8
BLACK
6
CONTINUOUS
10
97.1136
20
-167.78
11
97.3993
21
-167.78
0
LINE
8
BLACK
6
CONTINUOUS
10
97.3993
20
-167.78
11
97.5898
21
-167.875
0
LINE
8
BLACK
6
CONTINUOUS
10
97.5898
20
-167.875
11
97.685
21
-168.065
0
LINE
8
BLACK
6
CONTINUOUS
10
97.685
20
-168.065
11
97.685
21
-169.113
0
LINE
8
BLACK
6
CONTINUOUS
10
97.685
20
-168.065
11
97.7802
21
-167.875
0
LINE
8
BLACK
6
CONTINUOUS
10
97.7802
20
-167.875
11
97.9707
21
-167.78
0
LINE
8
BLACK
6
CONTINUOUS
10
97.9707
20
-167.78
11
98.2564
21
-167.78
0
LINE
8
BLACK
6
CONTINUOUS
10
98.2564
20
-167.78
11
98.4469
21
-167.875
0
LINE
8
BLACK
6
CONTINUOUS
10
98.4469
20
-167.875
11
98.5421
21
-168.065
0
LINE
8
BLACK
6
CONTINUOUS
10
98.5421
20
-168.065
11
98.5421
21
-169.113
0
LINE
8
BLACK
6
CONTINUOUS
10
102.447
20
-167.018
11
100.733
21
-169.589
0
LINE
8
BLACK
6
CONTINUOUS
10
105.018
20
-167.113
11
105.209
21
-167.113
0
LINE
8
BLACK
6
CONTINUOUS
10
105.209
20
-167.113
11
105.399
21
-167.208
0
LINE
8
BLACK
6
CONTINUOUS
10
105.399
20
-167.208
11
105.495
21
-167.303
0
LINE
8
BLACK
6
CONTINUOUS
10
105.495
20
-167.303
11
105.59
21
-167.494
0
LINE
8
BLACK
6
CONTINUOUS
10
105.59
20
-167.494
11
105.685
21
-167.875
0
LINE
8
BLACK
6
CONTINUOUS
10
105.685
20
-167.875
11
105.685
21
-168.351
0
LINE
8
BLACK
6
CONTINUOUS
10
105.685
20
-168.351
11
105.59
21
-168.732
0
LINE
8
BLACK
6
CONTINUOUS
10
105.59
20
-168.732
11
105.495
21
-168.922
0
LINE
8
BLACK
6
CONTINUOUS
10
105.495
20
-168.922
11
105.399
21
-169.018
0
LINE
8
BLACK
6
CONTINUOUS
10
105.399
20
-169.018
11
105.209
21
-169.113
0
LINE
8
BLACK
6
CONTINUOUS
10
105.209
20
-169.113
11
105.018
21
-169.113
0
LINE
8
BLACK
6
CONTINUOUS
10
105.018
20
-169.113
11
104.828
21
-169.018
0
LINE
8
BLACK
6
CONTINUOUS
10
104.828
20
-169.018
11
104.733
21
-168.922
0
LINE
8
BLACK
6
CONTINUOUS
10
104.733
20
-168.922
11
104.637
21
-168.732
0
LINE
8
BLACK
6
CONTINUOUS
10
104.637
20
-168.732
11
104.542
21
-168.351
0
LINE
8
BLACK
6
CONTINUOUS
10
104.542
20
-168.351
11
104.542
21
-167.875
0
LINE
8
BLACK
6
CONTINUOUS
10
104.542
20
-167.875
11
104.637
21
-167.494
0
LINE
8
BLACK
6
CONTINUOUS
10
104.637
20
-167.494
11
104.733
21
-167.303
0
LINE
8
BLACK
6
CONTINUOUS
10
104.733
20
-167.303
11
104.828
21
-167.208
0
LINE
8
BLACK
6
CONTINUOUS
10
104.828
20
-167.208
11
105.018
21
-167.113
0
LINE
8
BLACK
6
CONTINUOUS
10
106.542
20
-168.922
11
106.637
21
-169.018
0
LINE
8
BLACK
6
CONTINUOUS
10
106.637
20
-169.018
11
106.542
21
-169.113
0
LINE
8
BLACK
6
CONTINUOUS
10
106.542
20
-169.113
11
106.447
21
-169.018
0
LINE
8
BLACK
6
CONTINUOUS
10
106.447
20
-169.018
11
106.542
21
-168.922
0
LINE
8
BLACK
6
CONTINUOUS
10
106.542
20
-168.922
11
106.542
21
-169.113
0
LINE
8
BLACK
6
CONTINUOUS
10
107.875
20
-167.113
11
108.066
21
-167.113
0
LINE
8
BLACK
6
CONTINUOUS
10
108.066
20
-167.113
11
108.256
21
-167.208
0
LINE
8
BLACK
6
CONTINUOUS
10
108.256
20
-167.208
11
108.352
21
-167.303
0
LINE
8
BLACK
6
CONTINUOUS
10
108.352
20
-167.303
11
108.447
21
-167.494
0
LINE
8
BLACK
6
CONTINUOUS
10
108.447
20
-167.494
11
108.542
21
-167.875
0
LINE
8
BLACK
6
CONTINUOUS
10
108.542
20
-167.875
11
108.542
21
-168.351
0
LINE
8
BLACK
6
CONTINUOUS
10
108.542
20
-168.351
11
108.447
21
-168.732
0
LINE
8
BLACK
6
CONTINUOUS
10
108.447
20
-168.732
11
108.352
21
-168.922
0
LINE
8
BLACK
6
CONTINUOUS
10
108.352
20
-168.922
11
108.256
21
-169.018
0
LINE
8
BLACK
6
CONTINUOUS
10
108.256
20
-169.018
11
108.066
21
-169.113
0
LINE
8
BLACK
6
CONTINUOUS
10
108.066
20
-169.113
11
107.875
21
-169.113
0
LINE
8
BLACK
6
CONTINUOUS
10
107.875
20
-169.113
11
107.685
21
-169.018
0
LINE
8
BLACK
6
CONTINUOUS
10
107.685
20
-169.018
11
107.59
21
-168.922
0
LINE
8
BLACK
6
CONTINUOUS
10
107.59
20
-168.922
11
107.495
21
-168.732
0
LINE
8
BLACK
6
CONTINUOUS
10
107.495
20
-168.732
11
107.399
21
-168.351
0
LINE
8
BLACK
6
CONTINUOUS
10
107.399
20
-168.351
11
107.399
21
-167.875
0
LINE
8
BLACK
6
CONTINUOUS
10
107.399
20
-167.875
11
107.495
21
-167.494
0
LINE
8
BLACK
6
CONTINUOUS
10
107.495
20
-167.494
11
107.59
21
-167.303
0
LINE
8
BLACK
6
CONTINUOUS
10
107.59
20
-167.303
11
107.685
21
-167.208
0
LINE
8
BLACK
6
CONTINUOUS
10
107.685
20
-167.208
11
107.875
21
-167.113
0
LINE
8
BLACK
6
CONTINUOUS
10
109.209
20
-167.113
11
110.447
21
-167.113
0
LINE
8
BLACK
6
CONTINUOUS
10
110.447
20
-167.113
11
109.78
21
-167.875
0
LINE
8
BLACK
6
CONTINUOUS
10
109.78
20
-167.875
11
110.066
21
-167.875
0
LINE
8
BLACK
6
CONTINUOUS
10
110.066
20
-167.875
11
110.256
21
-167.97
0
LINE
8
BLACK
6
CONTINUOUS
10
110.256
20
-167.97
11
110.352
21
-168.065
0
LINE
8
BLACK
6
CONTINUOUS
10
110.352
20
-168.065
11
110.447
21
-168.256
0
LINE
8
BLACK
6
CONTINUOUS
10
110.447
20
-168.256
11
110.447
21
-168.732
0
LINE
8
BLACK
6
CONTINUOUS
10
110.447
20
-168.732
11
110.352
21
-168.922
0
LINE
8
BLACK
6
CONTINUOUS
10
110.352
20
-168.922
11
110.256
21
-169.018
0
LINE
8
BLACK
6
CONTINUOUS
10
110.256
20
-169.018
11
110.066
21
-169.113
0
LINE
8
BLACK
6
CONTINUOUS
10
110.066
20
-169.113
11
109.495
21
-169.113
0
LINE
8
BLACK
6
CONTINUOUS
10
109.495
20
-169.113
11
109.304
21
-169.018
0
LINE
8
BLACK
6
CONTINUOUS
10
109.304
20
-169.018
11
109.209
21
-168.922
0
LINE
8
BLACK
6
CONTINUOUS
10
111.399
20
-169.113
11
111.78
21
-169.113
0
LINE
8
BLACK
6
CONTINUOUS
10
111.78
20
-169.113
11
111.971
21
-169.018
0
LINE
8
BLACK
6
CONTINUOUS
10
111.971
20
-169.018
11
112.066
21
-168.922
0
LINE
8
BLACK
6
CONTINUOUS
10
112.066
20
-168.922
11
112.256
21
-168.637
0
LINE
8
BLACK
6
CONTINUOUS
10
112.256
20
-168.637
11
112.352
21
-168.256
0
LINE
8
BLACK
6
CONTINUOUS
10
112.352
20
-168.256
11
112.352
21
-167.494
0
LINE
8
BLACK
6
CONTINUOUS
10
112.352
20
-167.494
11
112.256
21
-167.303
0
LINE
8
BLACK
6
CONTINUOUS
10
112.256
20
-167.303
11
112.161
21
-167.208
0
LINE
8
BLACK
6
CONTINUOUS
10
112.161
20
-167.208
11
111.971
21
-167.113
0
LINE
8
BLACK
6
CONTINUOUS
10
111.971
20
-167.113
11
111.59
21
-167.113
0
LINE
8
BLACK
6
CONTINUOUS
10
111.59
20
-167.113
11
111.399
21
-167.208
0
LINE
8
BLACK
6
CONTINUOUS
10
111.399
20
-167.208
11
111.304
21
-167.303
0
LINE
8
BLACK
6
CONTINUOUS
10
111.304
20
-167.303
11
111.209
21
-167.494
0
LINE
8
BLACK
6
CONTINUOUS
10
111.209
20
-167.494
11
111.209
21
-167.97
0
LINE
8
BLACK
6
CONTINUOUS
10
111.209
20
-167.97
11
111.304
21
-168.16
0
LINE
8
BLACK
6
CONTINUOUS
10
111.304
20
-168.16
11
111.399
21
-168.256
0
LINE
8
BLACK
6
CONTINUOUS
10
111.399
20
-168.256
11
111.59
21
-168.351
0
LINE
8
BLACK
6
CONTINUOUS
10
111.59
20
-168.351
11
111.971
21
-168.351
0
LINE
8
BLACK
6
CONTINUOUS
10
111.971
20
-168.351
11
112.161
21
-168.256
0
LINE
8
BLACK
6
CONTINUOUS
10
112.161
20
-168.256
11
112.256
21
-168.16
0
LINE
8
BLACK
6
CONTINUOUS
10
112.256
20
-168.16
11
112.352
21
-167.97
0
LINE
8
BLACK
6
CONTINUOUS
10
113.59
20
-167.113
11
113.78
21
-167.113
0
LINE
8
BLACK
6
CONTINUOUS
10
113.78
20
-167.113
11
113.971
21
-167.208
0
LINE
8
BLACK
6
CONTINUOUS
10
113.971
20
-167.208
11
114.066
21
-167.303
0
LINE
8
BLACK
6
CONTINUOUS
10
114.066
20
-167.303
11
114.161
21
-167.494
0
LINE
8
BLACK
6
CONTINUOUS
10
114.161
20
-167.494
11
114.256
21
-167.875
0
LINE
8
BLACK
6
CONTINUOUS
10
114.256
20
-167.875
11
114.256
21
-168.351
0
LINE
8
BLACK
6
CONTINUOUS
10
114.256
20
-168.351
11
114.161
21
-168.732
0
LINE
8
BLACK
6
CONTINUOUS
10
114.161
20
-168.732
11
114.066
21
-168.922
0
LINE
8
BLACK
6
CONTINUOUS
10
114.066
20
-168.922
11
113.971
21
-169.018
0
LINE
8
BLACK
6
CONTINUOUS
10
113.971
20
-169.018
11
113.78
21
-169.113
0
LINE
8
BLACK
6
CONTINUOUS
10
113.78
20
-169.113
11
113.59
21
-169.113
0
LINE
8
BLACK
6
CONTINUOUS
10
113.59
20
-169.113
11
113.399
21
-169.018
0
LINE
8
BLACK
6
CONTINUOUS
10
113.399
20
-169.018
11
113.304
21
-168.922
0
LINE
8
BLACK
6
CONTINUOUS
10
113.304
20
-168.922
11
113.209
21
-168.732
0
LINE
8
BLACK
6
CONTINUOUS
10
113.209
20
-168.732
11
113.114
21
-168.351
0
LINE
8
BLACK
6
CONTINUOUS
10
113.114
20
-168.351
11
113.114
21
-167.875
0
LINE
8
BLACK
6
CONTINUOUS
10
113.114
20
-167.875
11
113.209
21
-167.494
0
LINE
8
BLACK
6
CONTINUOUS
10
113.209
20
-167.494
11
113.304
21
-167.303
0
LINE
8
BLACK
6
CONTINUOUS
10
113.304
20
-167.303
11
113.399
21
-167.208
0
LINE
8
BLACK
6
CONTINUOUS
10
113.399
20
-167.208
11
113.59
21
-167.113
0
LINE
8
BLACK
6
CONTINUOUS
10
115.018
20
-167.113
11
115.018
21
-167.494
0
LINE
8
BLACK
6
CONTINUOUS
10
115.78
20
-167.113
11
115.78
21
-167.494
0
LINE
8
BLACK
6
CONTINUOUS
10
118.733
20
-169.875
11
118.637
21
-169.78
0
LINE
8
BLACK
6
CONTINUOUS
10
118.637
20
-169.78
11
118.447
21
-169.494
0
LINE
8
BLACK
6
CONTINUOUS
10
118.447
20
-169.494
11
118.352
21
-169.303
0
LINE
8
BLACK
6
CONTINUOUS
10
118.352
20
-169.303
11
118.256
21
-169.018
0
LINE
8
BLACK
6
CONTINUOUS
10
118.256
20
-169.018
11
118.161
21
-168.541
0
LINE
8
BLACK
6
CONTINUOUS
10
118.161
20
-168.541
11
118.161
21
-168.16
0
LINE
8
BLACK
6
CONTINUOUS
10
118.161
20
-168.16
11
118.256
21
-167.684
0
LINE
8
BLACK
6
CONTINUOUS
10
118.256
20
-167.684
11
118.352
21
-167.399
0
LINE
8
BLACK
6
CONTINUOUS
10
118.352
20
-167.399
11
118.447
21
-167.208
0
LINE
8
BLACK
6
CONTINUOUS
10
118.447
20
-167.208
11
118.637
21
-166.922
0
LINE
8
BLACK
6
CONTINUOUS
10
118.637
20
-166.922
11
118.733
21
-166.827
0
LINE
8
BLACK
6
CONTINUOUS
10
119.304
20
-167.113
11
120.542
21
-167.113
0
LINE
8
BLACK
6
CONTINUOUS
10
120.542
20
-167.113
11
119.875
21
-167.875
0
LINE
8
BLACK
6
CONTINUOUS
10
119.875
20
-167.875
11
120.161
21
-167.875
0
LINE
8
BLACK
6
CONTINUOUS
10
120.161
20
-167.875
11
120.352
21
-167.97
0
LINE
8
BLACK
6
CONTINUOUS
10
120.352
20
-167.97
11
120.447
21
-168.065
0
LINE
8
BLACK
6
CONTINUOUS
10
120.447
20
-168.065
11
120.542
21
-168.256
0
LINE
8
BLACK
6
CONTINUOUS
10
120.542
20
-168.256
11
120.542
21
-168.732
0
LINE
8
BLACK
6
CONTINUOUS
10
120.542
20
-168.732
11
120.447
21
-168.922
0
LINE
8
BLACK
6
CONTINUOUS
10
120.447
20
-168.922
11
120.352
21
-169.018
0
LINE
8
BLACK
6
CONTINUOUS
10
120.352
20
-169.018
11
120.161
21
-169.113
0
LINE
8
BLACK
6
CONTINUOUS
10
120.161
20
-169.113
11
119.59
21
-169.113
0
LINE
8
BLACK
6
CONTINUOUS
10
119.59
20
-169.113
11
119.399
21
-169.018
0
LINE
8
BLACK
6
CONTINUOUS
10
119.399
20
-169.018
11
119.304
21
-168.922
0
LINE
8
BLACK
6
CONTINUOUS
10
122.923
20
-169.113
11
122.923
21
-167.113
0
LINE
8
BLACK
6
CONTINUOUS
10
123.78
20
-169.113
11
123.78
21
-168.065
0
LINE
8
BLACK
6
CONTINUOUS
10
123.78
20
-168.065
11
123.685
21
-167.875
0
LINE
8
BLACK
6
CONTINUOUS
10
123.685
20
-167.875
11
123.495
21
-167.78
0
LINE
8
BLACK
6
CONTINUOUS
10
123.495
20
-167.78
11
123.209
21
-167.78
0
LINE
8
BLACK
6
CONTINUOUS
10
123.209
20
-167.78
11
123.018
21
-167.875
0
LINE
8
BLACK
6
CONTINUOUS
10
123.018
20
-167.875
11
122.923
21
-167.97
0
LINE
8
BLACK
6
CONTINUOUS
10
125.018
20
-169.113
11
124.828
21
-169.018
0
LINE
8
BLACK
6
CONTINUOUS
10
124.828
20
-169.018
11
124.733
21
-168.922
0
LINE
8
BLACK
6
CONTINUOUS
10
124.733
20
-168.922
11
124.637
21
-168.732
0
LINE
8
BLACK
6
CONTINUOUS
10
124.637
20
-168.732
11
124.637
21
-168.16
0
LINE
8
BLACK
6
CONTINUOUS
10
124.637
20
-168.16
11
124.733
21
-167.97
0
LINE
8
BLACK
6
CONTINUOUS
10
124.733
20
-167.97
11
124.828
21
-167.875
0
LINE
8
BLACK
6
CONTINUOUS
10
124.828
20
-167.875
11
125.018
21
-167.78
0
LINE
8
BLACK
6
CONTINUOUS
10
125.018
20
-167.78
11
125.304
21
-167.78
0
LINE
8
BLACK
6
CONTINUOUS
10
125.304
20
-167.78
11
125.495
21
-167.875
0
LINE
8
BLACK
6
CONTINUOUS
10
125.495
20
-167.875
11
125.59
21
-167.97
0
LINE
8
BLACK
6
CONTINUOUS
10
125.59
20
-167.97
11
125.685
21
-168.16
0
LINE
8
BLACK
6
CONTINUOUS
10
125.685
20
-168.16
11
125.685
21
-168.732
0
LINE
8
BLACK
6
CONTINUOUS
10
125.685
20
-168.732
11
125.59
21
-168.922
0
LINE
8
BLACK
6
CONTINUOUS
10
125.59
20
-168.922
11
125.495
21
-169.018
0
LINE
8
BLACK
6
CONTINUOUS
10
125.495
20
-169.018
11
125.304
21
-169.113
0
LINE
8
BLACK
6
CONTINUOUS
10
125.304
20
-169.113
11
125.018
21
-169.113
0
LINE
8
BLACK
6
CONTINUOUS
10
126.828
20
-169.113
11
126.637
21
-169.018
0
LINE
8
BLACK
6
CONTINUOUS
10
126.637
20
-169.018
11
126.542
21
-168.827
0
LINE
8
BLACK
6
CONTINUOUS
10
126.542
20
-168.827
11
126.542
21
-167.113
0
LINE
8
BLACK
6
CONTINUOUS
10
128.352
20
-169.018
11
128.161
21
-169.113
0
LINE
8
BLACK
6
CONTINUOUS
10
128.161
20
-169.113
11
127.78
21
-169.113
0
LINE
8
BLACK
6
CONTINUOUS
10
127.78
20
-169.113
11
127.59
21
-169.018
0
LINE
8
BLACK
6
CONTINUOUS
10
127.59
20
-169.018
11
127.495
21
-168.827
0
LINE
8
BLACK
6
CONTINUOUS
10
127.495
20
-168.827
11
127.495
21
-168.065
0
LINE
8
BLACK
6
CONTINUOUS
10
127.495
20
-168.065
11
127.59
21
-167.875
0
LINE
8
BLACK
6
CONTINUOUS
10
127.59
20
-167.875
11
127.78
21
-167.78
0
LINE
8
BLACK
6
CONTINUOUS
10
127.78
20
-167.78
11
128.161
21
-167.78
0
LINE
8
BLACK
6
CONTINUOUS
10
128.161
20
-167.78
11
128.352
21
-167.875
0
LINE
8
BLACK
6
CONTINUOUS
10
128.352
20
-167.875
11
128.447
21
-168.065
0
LINE
8
BLACK
6
CONTINUOUS
10
128.447
20
-168.065
11
128.447
21
-168.256
0
LINE
8
BLACK
6
CONTINUOUS
10
128.447
20
-168.256
11
127.495
21
-168.446
0
LINE
8
BLACK
6
CONTINUOUS
10
129.209
20
-169.018
11
129.399
21
-169.113
0
LINE
8
BLACK
6
CONTINUOUS
10
129.399
20
-169.113
11
129.78
21
-169.113
0
LINE
8
BLACK
6
CONTINUOUS
10
129.78
20
-169.113
11
129.971
21
-169.018
0
LINE
8
BLACK
6
CONTINUOUS
10
129.971
20
-169.018
11
130.066
21
-168.827
0
LINE
8
BLACK
6
CONTINUOUS
10
130.066
20
-168.827
11
130.066
21
-168.732
0
LINE
8
BLACK
6
CONTINUOUS
10
130.066
20
-168.732
11
129.971
21
-168.541
0
LINE
8
BLACK
6
CONTINUOUS
10
129.971
20
-168.541
11
129.78
21
-168.446
0
LINE
8
BLACK
6
CONTINUOUS
10
129.78
20
-168.446
11
129.495
21
-168.446
0
LINE
8
BLACK
6
CONTINUOUS
10
129.495
20
-168.446
11
129.304
21
-168.351
0
LINE
8
BLACK
6
CONTINUOUS
10
129.304
20
-168.351
11
129.209
21
-168.16
0
LINE
8
BLACK
6
CONTINUOUS
10
129.209
20
-168.16
11
129.209
21
-168.065
0
LINE
8
BLACK
6
CONTINUOUS
10
129.209
20
-168.065
11
129.304
21
-167.875
0
LINE
8
BLACK
6
CONTINUOUS
10
129.304
20
-167.875
11
129.495
21
-167.78
0
LINE
8
BLACK
6
CONTINUOUS
10
129.495
20
-167.78
11
129.78
21
-167.78
0
LINE
8
BLACK
6
CONTINUOUS
10
129.78
20
-167.78
11
129.971
21
-167.875
0
LINE
8
BLACK
6
CONTINUOUS
10
130.733
20
-169.875
11
130.828
21
-169.78
0
LINE
8
BLACK
6
CONTINUOUS
10
130.828
20
-169.78
11
131.018
21
-169.494
0
LINE
8
BLACK
6
CONTINUOUS
10
131.018
20
-169.494
11
131.114
21
-169.303
0
LINE
8
BLACK
6
CONTINUOUS
10
131.114
20
-169.303
11
131.209
21
-169.018
0
LINE
8
BLACK
6
CONTINUOUS
10
131.209
20
-169.018
11
131.304
21
-168.541
0
LINE
8
BLACK
6
CONTINUOUS
10
131.304
20
-168.541
11
131.304
21
-168.16
0
LINE
8
BLACK
6
CONTINUOUS
10
131.304
20
-168.16
11
131.209
21
-167.684
0
LINE
8
BLACK
6
CONTINUOUS
10
131.209
20
-167.684
11
131.114
21
-167.399
0
LINE
8
BLACK
6
CONTINUOUS
10
131.114
20
-167.399
11
131.018
21
-167.208
0
LINE
8
BLACK
6
CONTINUOUS
10
131.018
20
-167.208
11
130.828
21
-166.922
0
LINE
8
BLACK
6
CONTINUOUS
10
130.828
20
-166.922
11
130.733
21
-166.827
0
LINE
8
BLACK
6
CONTINUOUS
10
134.352
20
-169.875
11
134.256
21
-169.78
0
LINE
8
BLACK
6
CONTINUOUS
10
134.256
20
-169.78
11
134.066
21
-169.494
0
LINE
8
BLACK
6
CONTINUOUS
10
134.066
20
-169.494
11
133.971
21
-169.303
0
LINE
8
BLACK
6
CONTINUOUS
10
133.971
20
-169.303
11
133.875
21
-169.018
0
LINE
8
BLACK
6
CONTINUOUS
10
133.875
20
-169.018
11
133.78
21
-168.541
0
LINE
8
BLACK
6
CONTINUOUS
10
133.78
20
-168.541
11
133.78
21
-168.16
0
LINE
8
BLACK
6
CONTINUOUS
10
133.78
20
-168.16
11
133.875
21
-167.684
0
LINE
8
BLACK
6
CONTINUOUS
10
133.875
20
-167.684
11
133.971
21
-167.399
0
LINE
8
BLACK
6
CONTINUOUS
10
133.971
20
-167.399
11
134.066
21
-167.208
0
LINE
8
BLACK
6
CONTINUOUS
10
134.066
20
-167.208
11
134.256
21
-166.922
0
LINE
8
BLACK
6
CONTINUOUS
10
134.256
20
-166.922
11
134.352
21
-166.827
0
LINE
8
BLACK
6
CONTINUOUS
10
135.114
20
-167.78
11
135.114
21
-169.113
0
LINE
8
BLACK
6
CONTINUOUS
10
135.114
20
-167.97
11
135.209
21
-167.875
0
LINE
8
BLACK
6
CONTINUOUS
10
135.209
20
-167.875
11
135.399
21
-167.78
0
LINE
8
BLACK
6
CONTINUOUS
10
135.399
20
-167.78
11
135.685
21
-167.78
0
LINE
8
BLACK
6
CONTINUOUS
10
135.685
20
-167.78
11
135.875
21
-167.875
0
LINE
8
BLACK
6
CONTINUOUS
10
135.875
20
-167.875
11
135.971
21
-168.065
0
LINE
8
BLACK
6
CONTINUOUS
10
135.971
20
-168.065
11
135.971
21
-169.113
0
LINE
8
BLACK
6
CONTINUOUS
10
137.209
20
-169.113
11
137.018
21
-169.018
0
LINE
8
BLACK
6
CONTINUOUS
10
137.018
20
-169.018
11
136.923
21
-168.922
0
LINE
8
BLACK
6
CONTINUOUS
10
136.923
20
-168.922
11
136.828
21
-168.732
0
LINE
8
BLACK
6
CONTINUOUS
10
136.828
20
-168.732
11
136.828
21
-168.16
0
LINE
8
BLACK
6
CONTINUOUS
10
136.828
20
-168.16
11
136.923
21
-167.97
0
LINE
8
BLACK
6
CONTINUOUS
10
136.923
20
-167.97
11
137.018
21
-167.875
0
LINE
8
BLACK
6
CONTINUOUS
10
137.018
20
-167.875
11
137.209
21
-167.78
0
LINE
8
BLACK
6
CONTINUOUS
10
137.209
20
-167.78
11
137.495
21
-167.78
0
LINE
8
BLACK
6
CONTINUOUS
10
137.495
20
-167.78
11
137.685
21
-167.875
0
LINE
8
BLACK
6
CONTINUOUS
10
137.685
20
-167.875
11
137.78
21
-167.97
0
LINE
8
BLACK
6
CONTINUOUS
10
137.78
20
-167.97
11
137.875
21
-168.16
0
LINE
8
BLACK
6
CONTINUOUS
10
137.875
20
-168.16
11
137.875
21
-168.732
0
LINE
8
BLACK
6
CONTINUOUS
10
137.875
20
-168.732
11
137.78
21
-168.922
0
LINE
8
BLACK
6
CONTINUOUS
10
137.78
20
-168.922
11
137.685
21
-169.018
0
LINE
8
BLACK
6
CONTINUOUS
10
137.685
20
-169.018
11
137.495
21
-169.113
0
LINE
8
BLACK
6
CONTINUOUS
10
137.495
20
-169.113
11
137.209
21
-169.113
0
LINE
8
BLACK
6
CONTINUOUS
10
138.447
20
-167.78
11
139.209
21
-167.78
0
LINE
8
BLACK
6
CONTINUOUS
10
138.733
20
-167.113
11
138.733
21
-168.827
0
LINE
8
BLACK
6
CONTINUOUS
10
138.733
20
-168.827
11
138.828
21
-169.018
0
LINE
8
BLACK
6
CONTINUOUS
10
138.828
20
-169.018
11
139.018
21
-169.113
0
LINE
8
BLACK
6
CONTINUOUS
10
139.018
20
-169.113
11
139.209
21
-169.113
0
LINE
8
BLACK
6
CONTINUOUS
10
141.399
20
-167.78
11
141.399
21
-169.78
0
LINE
8
BLACK
6
CONTINUOUS
10
141.399
20
-167.875
11
141.59
21
-167.78
0
LINE
8
BLACK
6
CONTINUOUS
10
141.59
20
-167.78
11
141.971
21
-167.78
0
LINE
8
BLACK
6
CONTINUOUS
10
141.971
20
-167.78
11
142.161
21
-167.875
0
LINE
8
BLACK
6
CONTINUOUS
10
142.161
20
-167.875
11
142.256
21
-167.97
0
LINE
8
BLACK
6
CONTINUOUS
10
142.256
20
-167.97
11
142.352
21
-168.16
0
LINE
8
BLACK
6
CONTINUOUS
10
142.352
20
-168.16
11
142.352
21
-168.732
0
LINE
8
BLACK
6
CONTINUOUS
10
142.352
20
-168.732
11
142.256
21
-168.922
0
LINE
8
BLACK
6
CONTINUOUS
10
142.256
20
-168.922
11
142.161
21
-169.018
0
LINE
8
BLACK
6
CONTINUOUS
10
142.161
20
-169.018
11
141.971
21
-169.113
0
LINE
8
BLACK
6
CONTINUOUS
10
141.971
20
-169.113
11
141.59
21
-169.113
0
LINE
8
BLACK
6
CONTINUOUS
10
141.59
20
-169.113
11
141.399
21
-169.018
0
LINE
8
BLACK
6
CONTINUOUS
10
143.495
20
-169.113
11
143.304
21
-169.018
0
LINE
8
BLACK
6
CONTINUOUS
10
143.304
20
-169.018
11
143.209
21
-168.827
0
LINE
8
BLACK
6
CONTINUOUS
10
143.209
20
-168.827
11
143.209
21
-167.113
0
LINE
8
BLACK
6
CONTINUOUS
10
145.114
20
-169.113
11
145.114
21
-168.065
0
LINE
8
BLACK
6
CONTINUOUS
10
145.114
20
-168.065
11
145.018
21
-167.875
0
LINE
8
BLACK
6
CONTINUOUS
10
145.018
20
-167.875
11
144.828
21
-167.78
0
LINE
8
BLACK
6
CONTINUOUS
10
144.828
20
-167.78
11
144.447
21
-167.78
0
LINE
8
BLACK
6
CONTINUOUS
10
144.447
20
-167.78
11
144.256
21
-167.875
0
LINE
8
BLACK
6
CONTINUOUS
10
145.114
20
-169.018
11
144.923
21
-169.113
0
LINE
8
BLACK
6
CONTINUOUS
10
144.923
20
-169.113
11
144.447
21
-169.113
0
LINE
8
BLACK
6
CONTINUOUS
10
144.447
20
-169.113
11
144.256
21
-169.018
0
LINE
8
BLACK
6
CONTINUOUS
10
144.256
20
-169.018
11
144.161
21
-168.827
0
LINE
8
BLACK
6
CONTINUOUS
10
144.161
20
-168.827
11
144.161
21
-168.637
0
LINE
8
BLACK
6
CONTINUOUS
10
144.161
20
-168.637
11
144.256
21
-168.446
0
LINE
8
BLACK
6
CONTINUOUS
10
144.256
20
-168.446
11
144.447
21
-168.351
0
LINE
8
BLACK
6
CONTINUOUS
10
144.447
20
-168.351
11
144.923
21
-168.351
0
LINE
8
BLACK
6
CONTINUOUS
10
144.923
20
-168.351
11
145.114
21
-168.256
0
LINE
8
BLACK
6
CONTINUOUS
10
145.78
20
-167.78
11
146.542
21
-167.78
0
LINE
8
BLACK
6
CONTINUOUS
10
146.066
20
-167.113
11
146.066
21
-168.827
0
LINE
8
BLACK
6
CONTINUOUS
10
146.066
20
-168.827
11
146.161
21
-169.018
0
LINE
8
BLACK
6
CONTINUOUS
10
146.161
20
-169.018
11
146.352
21
-169.113
0
LINE
8
BLACK
6
CONTINUOUS
10
146.352
20
-169.113
11
146.542
21
-169.113
0
LINE
8
BLACK
6
CONTINUOUS
10
147.971
20
-169.018
11
147.78
21
-169.113
0
LINE
8
BLACK
6
CONTINUOUS
10
147.78
20
-169.113
11
147.399
21
-169.113
0
LINE
8
BLACK
6
CONTINUOUS
10
147.399
20
-169.113
11
147.209
21
-169.018
0
LINE
8
BLACK
6
CONTINUOUS
10
147.209
20
-169.018
11
147.114
21
-168.827
0
LINE
8
BLACK
6
CONTINUOUS
10
147.114
20
-168.827
11
147.114
21
-168.065
0
LINE
8
BLACK
6
CONTINUOUS
10
147.114
20
-168.065
11
147.209
21
-167.875
0
LINE
8
BLACK
6
CONTINUOUS
10
147.209
20
-167.875
11
147.399
21
-167.78
0
LINE
8
BLACK
6
CONTINUOUS
10
147.399
20
-167.78
11
147.78
21
-167.78
0
LINE
8
BLACK
6
CONTINUOUS
10
147.78
20
-167.78
11
147.971
21
-167.875
0
LINE
8
BLACK
6
CONTINUOUS
10
147.971
20
-167.875
11
148.066
21
-168.065
0
LINE
8
BLACK
6
CONTINUOUS
10
148.066
20
-168.065
11
148.066
21
-168.256
0
LINE
8
BLACK
6
CONTINUOUS
10
148.066
20
-168.256
11
147.114
21
-168.446
0
LINE
8
BLACK
6
CONTINUOUS
10
149.78
20
-169.113
11
149.78
21
-167.113
0
LINE
8
BLACK
6
CONTINUOUS
10
149.78
20
-169.018
11
149.59
21
-169.113
0
LINE
8
BLACK
6
CONTINUOUS
10
149.59
20
-169.113
11
149.209
21
-169.113
0
LINE
8
BLACK
6
CONTINUOUS
10
149.209
20
-169.113
11
149.018
21
-169.018
0
LINE
8
BLACK
6
CONTINUOUS
10
149.018
20
-169.018
11
148.923
21
-168.922
0
LINE
8
BLACK
6
CONTINUOUS
10
148.923
20
-168.922
11
148.828
21
-168.732
0
LINE
8
BLACK
6
CONTINUOUS
10
148.828
20
-168.732
11
148.828
21
-168.16
0
LINE
8
BLACK
6
CONTINUOUS
10
148.828
20
-168.16
11
148.923
21
-167.97
0
LINE
8
BLACK
6
CONTINUOUS
10
148.923
20
-167.97
11
149.018
21
-167.875
0
LINE
8
BLACK
6
CONTINUOUS
10
149.018
20
-167.875
11
149.209
21
-167.78
0
LINE
8
BLACK
6
CONTINUOUS
10
149.209
20
-167.78
11
149.59
21
-167.78
0
LINE
8
BLACK
6
CONTINUOUS
10
149.59
20
-167.78
11
149.78
21
-167.875
0
LINE
8
BLACK
6
CONTINUOUS
10
150.542
20
-169.875
11
150.637
21
-169.78
0
LINE
8
BLACK
6
CONTINUOUS
10
150.637
20
-169.78
11
150.828
21
-169.494
0
LINE
8
BLACK
6
CONTINUOUS
10
150.828
20
-169.494
11
150.923
21
-169.303
0
LINE
8
BLACK
6
CONTINUOUS
10
150.923
20
-169.303
11
151.018
21
-169.018
0
LINE
8
BLACK
6
CONTINUOUS
10
151.018
20
-169.018
11
151.114
21
-168.541
0
LINE
8
BLACK
6
CONTINUOUS
10
151.114
20
-168.541
11
151.114
21
-168.16
0
LINE
8
BLACK
6
CONTINUOUS
10
151.114
20
-168.16
11
151.018
21
-167.684
0
LINE
8
BLACK
6
CONTINUOUS
10
151.018
20
-167.684
11
150.923
21
-167.399
0
LINE
8
BLACK
6
CONTINUOUS
10
150.923
20
-167.399
11
150.828
21
-167.208
0
LINE
8
BLACK
6
CONTINUOUS
10
150.828
20
-167.208
11
150.637
21
-166.922
0
LINE
8
BLACK
6
CONTINUOUS
10
150.637
20
-166.922
11
150.542
21
-166.827
0
LINE
8
BLACK
6
CONTINUOUS
10
82.6891
20
-171.545
11
82.6891
21
-170.131
0
LINE
8
BLACK
6
CONTINUOUS
10
82.6891
20
-170.131
11
81.2749
21
-170.131
0
LINE
8
BLACK
6
CONTINUOUS
10
81.2749
20
-170.131
11
81.2749
21
-171.545
0
LINE
8
BLACK
6
CONTINUOUS
10
81.2749
20
-171.545
11
82.6891
21
-171.545
0
LINE
8
BLACK
6
CONTINUOUS
10
85.3993
20
-169.753
11
86.6374
21
-169.753
0
LINE
8
BLACK
6
CONTINUOUS
10
86.6374
20
-169.753
11
85.9707
21
-170.515
0
LINE
8
BLACK
6
CONTINUOUS
10
85.9707
20
-170.515
11
86.2564
21
-170.515
0
LINE
8
BLACK
6
CONTINUOUS
10
86.2564
20
-170.515
11
86.4469
21
-170.61
0
LINE
8
BLACK
6
CONTINUOUS
10
86.4469
20
-170.61
11
86.5421
21
-170.705
0
LINE
8
BLACK
6
CONTINUOUS
10
86.5421
20
-170.705
11
86.6374
21
-170.896
0
LINE
8
BLACK
6
CONTINUOUS
10
86.6374
20
-170.896
11
86.6374
21
-171.372
0
LINE
8
BLACK
6
CONTINUOUS
10
86.6374
20
-171.372
11
86.5421
21
-171.562
0
LINE
8
BLACK
6
CONTINUOUS
10
86.5421
20
-171.562
11
86.4469
21
-171.658
0
LINE
8
BLACK
6
CONTINUOUS
10
86.4469
20
-171.658
11
86.2564
21
-171.753
0
LINE
8
BLACK
6
CONTINUOUS
10
86.2564
20
-171.753
11
85.685
21
-171.753
0
LINE
8
BLACK
6
CONTINUOUS
10
85.685
20
-171.753
11
85.4945
21
-171.658
0
LINE
8
BLACK
6
CONTINUOUS
10
85.4945
20
-171.658
11
85.3993
21
-171.562
0
LINE
8
BLACK
6
CONTINUOUS
10
87.4945
20
-171.562
11
87.5898
21
-171.658
0
LINE
8
BLACK
6
CONTINUOUS
10
87.5898
20
-171.658
11
87.4945
21
-171.753
0
LINE
8
BLACK
6
CONTINUOUS
10
87.4945
20
-171.753
11
87.3993
21
-171.658
0
LINE
8
BLACK
6
CONTINUOUS
10
87.3993
20
-171.658
11
87.4945
21
-171.562
0
LINE
8
BLACK
6
CONTINUOUS
10
87.4945
20
-171.562
11
87.4945
21
-171.753
0
LINE
8
BLACK
6
CONTINUOUS
10
88.3517
20
-169.943
11
88.4469
21
-169.848
0
LINE
8
BLACK
6
CONTINUOUS
10
88.4469
20
-169.848
11
88.6374
21
-169.753
0
LINE
8
BLACK
6
CONTINUOUS
10
88.6374
20
-169.753
11
89.1136
21
-169.753
0
LINE
8
BLACK
6
CONTINUOUS
10
89.1136
20
-169.753
11
89.3041
21
-169.848
0
LINE
8
BLACK
6
CONTINUOUS
10
89.3041
20
-169.848
11
89.3993
21
-169.943
0
LINE
8
BLACK
6
CONTINUOUS
10
89.3993
20
-169.943
11
89.4945
21
-170.134
0
LINE
8
BLACK
6
CONTINUOUS
10
89.4945
20
-170.134
11
89.4945
21
-170.324
0
LINE
8
BLACK
6
CONTINUOUS
10
89.4945
20
-170.324
11
89.3993
21
-170.61
0
LINE
8
BLACK
6
CONTINUOUS
10
89.3993
20
-170.61
11
88.2564
21
-171.753
0
LINE
8
BLACK
6
CONTINUOUS
10
88.2564
20
-171.753
11
89.4945
21
-171.753
0
LINE
8
BLACK
6
CONTINUOUS
10
90.7326
20
-169.753
11
90.9231
21
-169.753
0
LINE
8
BLACK
6
CONTINUOUS
10
90.9231
20
-169.753
11
91.1136
21
-169.848
0
LINE
8
BLACK
6
CONTINUOUS
10
91.1136
20
-169.848
11
91.2088
21
-169.943
0
LINE
8
BLACK
6
CONTINUOUS
10
91.2088
20
-169.943
11
91.3041
21
-170.134
0
LINE
8
BLACK
6
CONTINUOUS
10
91.3041
20
-170.134
11
91.3993
21
-170.515
0
LINE
8
BLACK
6
CONTINUOUS
10
91.3993
20
-170.515
11
91.3993
21
-170.991
0
LINE
8
BLACK
6
CONTINUOUS
10
91.3993
20
-170.991
11
91.3041
21
-171.372
0
LINE
8
BLACK
6
CONTINUOUS
10
91.3041
20
-171.372
11
91.2088
21
-171.562
0
LINE
8
BLACK
6
CONTINUOUS
10
91.2088
20
-171.562
11
91.1136
21
-171.658
0
LINE
8
BLACK
6
CONTINUOUS
10
91.1136
20
-171.658
11
90.9231
21
-171.753
0
LINE
8
BLACK
6
CONTINUOUS
10
90.9231
20
-171.753
11
90.7326
21
-171.753
0
LINE
8
BLACK
6
CONTINUOUS
10
90.7326
20
-171.753
11
90.5421
21
-171.658
0
LINE
8
BLACK
6
CONTINUOUS
10
90.5421
20
-171.658
11
90.4469
21
-171.562
0
LINE
8
BLACK
6
CONTINUOUS
10
90.4469
20
-171.562
11
90.3517
21
-171.372
0
LINE
8
BLACK
6
CONTINUOUS
10
90.3517
20
-171.372
11
90.2564
21
-170.991
0
LINE
8
BLACK
6
CONTINUOUS
10
90.2564
20
-170.991
11
90.2564
21
-170.515
0
LINE
8
BLACK
6
CONTINUOUS
10
90.2564
20
-170.515
11
90.3517
21
-170.134
0
LINE
8
BLACK
6
CONTINUOUS
10
90.3517
20
-170.134
11
90.4469
21
-169.943
0
LINE
8
BLACK
6
CONTINUOUS
10
90.4469
20
-169.943
11
90.5421
21
-169.848
0
LINE
8
BLACK
6
CONTINUOUS
10
90.5421
20
-169.848
11
90.7326
21
-169.753
0
LINE
8
BLACK
6
CONTINUOUS
10
92.6374
20
-169.753
11
92.8279
21
-169.753
0
LINE
8
BLACK
6
CONTINUOUS
10
92.8279
20
-169.753
11
93.0183
21
-169.848
0
LINE
8
BLACK
6
CONTINUOUS
10
93.0183
20
-169.848
11
93.1136
21
-169.943
0
LINE
8
BLACK
6
CONTINUOUS
10
93.1136
20
-169.943
11
93.2088
21
-170.134
0
LINE
8
BLACK
6
CONTINUOUS
10
93.2088
20
-170.134
11
93.3041
21
-170.515
0
LINE
8
BLACK
6
CONTINUOUS
10
93.3041
20
-170.515
11
93.3041
21
-170.991
0
LINE
8
BLACK
6
CONTINUOUS
10
93.3041
20
-170.991
11
93.2088
21
-171.372
0
LINE
8
BLACK
6
CONTINUOUS
10
93.2088
20
-171.372
11
93.1136
21
-171.562
0
LINE
8
BLACK
6
CONTINUOUS
10
93.1136
20
-171.562
11
93.0183
21
-171.658
0
LINE
8
BLACK
6
CONTINUOUS
10
93.0183
20
-171.658
11
92.8279
21
-171.753
0
LINE
8
BLACK
6
CONTINUOUS
10
92.8279
20
-171.753
11
92.6374
21
-171.753
0
LINE
8
BLACK
6
CONTINUOUS
10
92.6374
20
-171.753
11
92.4469
21
-171.658
0
LINE
8
BLACK
6
CONTINUOUS
10
92.4469
20
-171.658
11
92.3517
21
-171.562
0
LINE
8
BLACK
6
CONTINUOUS
10
92.3517
20
-171.562
11
92.2564
21
-171.372
0
LINE
8
BLACK
6
CONTINUOUS
10
92.2564
20
-171.372
11
92.1612
21
-170.991
0
LINE
8
BLACK
6
CONTINUOUS
10
92.1612
20
-170.991
11
92.1612
21
-170.515
0
LINE
8
BLACK
6
CONTINUOUS
10
92.1612
20
-170.515
11
92.2564
21
-170.134
0
LINE
8
BLACK
6
CONTINUOUS
10
92.2564
20
-170.134
11
92.3517
21
-169.943
0
LINE
8
BLACK
6
CONTINUOUS
10
92.3517
20
-169.943
11
92.4469
21
-169.848
0
LINE
8
BLACK
6
CONTINUOUS
10
92.4469
20
-169.848
11
92.6374
21
-169.753
0
LINE
8
BLACK
6
CONTINUOUS
10
94.1612
20
-171.753
11
94.1612
21
-170.42
0
LINE
8
BLACK
6
CONTINUOUS
10
94.1612
20
-170.61
11
94.2564
21
-170.515
0
LINE
8
BLACK
6
CONTINUOUS
10
94.2564
20
-170.515
11
94.4469
21
-170.42
0
LINE
8
BLACK
6
CONTINUOUS
10
94.4469
20
-170.42
11
94.7326
21
-170.42
0
LINE
8
BLACK
6
CONTINUOUS
10
94.7326
20
-170.42
11
94.9231
21
-170.515
0
LINE
8
BLACK
6
CONTINUOUS
10
94.9231
20
-170.515
11
95.0183
21
-170.705
0
LINE
8
BLACK
6
CONTINUOUS
10
95.0183
20
-170.705
11
95.0183
21
-171.753
0
LINE
8
BLACK
6
CONTINUOUS
10
95.0183
20
-170.705
11
95.1136
21
-170.515
0
LINE
8
BLACK
6
CONTINUOUS
10
95.1136
20
-170.515
11
95.3041
21
-170.42
0
LINE
8
BLACK
6
CONTINUOUS
10
95.3041
20
-170.42
11
95.5898
21
-170.42
0
LINE
8
BLACK
6
CONTINUOUS
10
95.5898
20
-170.42
11
95.7802
21
-170.515
0
LINE
8
BLACK
6
CONTINUOUS
10
95.7802
20
-170.515
11
95.8755
21
-170.705
0
LINE
8
BLACK
6
CONTINUOUS
10
95.8755
20
-170.705
11
95.8755
21
-171.753
0
LINE
8
BLACK
6
CONTINUOUS
10
96.8279
20
-171.753
11
96.8279
21
-170.42
0
LINE
8
BLACK
6
CONTINUOUS
10
96.8279
20
-170.61
11
96.9231
21
-170.515
0
LINE
8
BLACK
6
CONTINUOUS
10
96.9231
20
-170.515
11
97.1136
21
-170.42
0
LINE
8
BLACK
6
CONTINUOUS
10
97.1136
20
-170.42
11
97.3993
21
-170.42
0
LINE
8
BLACK
6
CONTINUOUS
10
97.3993
20
-170.42
11
97.5898
21
-170.515
0
LINE
8
BLACK
6
CONTINUOUS
10
97.5898
20
-170.515
11
97.685
21
-170.705
0
LINE
8
BLACK
6
CONTINUOUS
10
97.685
20
-170.705
11
97.685
21
-171.753
0
LINE
8
BLACK
6
CONTINUOUS
10
97.685
20
-170.705
11
97.7802
21
-170.515
0
LINE
8
BLACK
6
CONTINUOUS
10
97.7802
20
-170.515
11
97.9707
21
-170.42
0
LINE
8
BLACK
6
CONTINUOUS
10
97.9707
20
-170.42
11
98.2564
21
-170.42
0
LINE
8
BLACK
6
CONTINUOUS
10
98.2564
20
-170.42
11
98.4469
21
-170.515
0
LINE
8
BLACK
6
CONTINUOUS
10
98.4469
20
-170.515
11
98.5421
21
-170.705
0
LINE
8
BLACK
6
CONTINUOUS
10
98.5421
20
-170.705
11
98.5421
21
-171.753
0
LINE
8
BLACK
6
CONTINUOUS
10
102.447
20
-169.658
11
100.733
21
-172.229
0
LINE
8
BLACK
6
CONTINUOUS
10
105.018
20
-169.753
11
105.209
21
-169.753
0
LINE
8
BLACK
6
CONTINUOUS
10
105.209
20
-169.753
11
105.399
21
-169.848
0
LINE
8
BLACK
6
CONTINUOUS
10
105.399
20
-169.848
11
105.495
21
-169.943
0
LINE
8
BLACK
6
CONTINUOUS
10
105.495
20
-169.943
11
105.59
21
-170.134
0
LINE
8
BLACK
6
CONTINUOUS
10
105.59
20
-170.134
11
105.685
21
-170.515
0
LINE
8
BLACK
6
CONTINUOUS
10
105.685
20
-170.515
11
105.685
21
-170.991
0
LINE
8
BLACK
6
CONTINUOUS
10
105.685
20
-170.991
11
105.59
21
-171.372
0
LINE
8
BLACK
6
CONTINUOUS
10
105.59
20
-171.372
11
105.495
21
-171.562
0
LINE
8
BLACK
6
CONTINUOUS
10
105.495
20
-171.562
11
105.399
21
-171.658
0
LINE
8
BLACK
6
CONTINUOUS
10
105.399
20
-171.658
11
105.209
21
-171.753
0
LINE
8
BLACK
6
CONTINUOUS
10
105.209
20
-171.753
11
105.018
21
-171.753
0
LINE
8
BLACK
6
CONTINUOUS
10
105.018
20
-171.753
11
104.828
21
-171.658
0
LINE
8
BLACK
6
CONTINUOUS
10
104.828
20
-171.658
11
104.733
21
-171.562
0
LINE
8
BLACK
6
CONTINUOUS
10
104.733
20
-171.562
11
104.637
21
-171.372
0
LINE
8
BLACK
6
CONTINUOUS
10
104.637
20
-171.372
11
104.542
21
-170.991
0
LINE
8
BLACK
6
CONTINUOUS
10
104.542
20
-170.991
11
104.542
21
-170.515
0
LINE
8
BLACK
6
CONTINUOUS
10
104.542
20
-170.515
11
104.637
21
-170.134
0
LINE
8
BLACK
6
CONTINUOUS
10
104.637
20
-170.134
11
104.733
21
-169.943
0
LINE
8
BLACK
6
CONTINUOUS
10
104.733
20
-169.943
11
104.828
21
-169.848
0
LINE
8
BLACK
6
CONTINUOUS
10
104.828
20
-169.848
11
105.018
21
-169.753
0
LINE
8
BLACK
6
CONTINUOUS
10
106.542
20
-171.562
11
106.637
21
-171.658
0
LINE
8
BLACK
6
CONTINUOUS
10
106.637
20
-171.658
11
106.542
21
-171.753
0
LINE
8
BLACK
6
CONTINUOUS
10
106.542
20
-171.753
11
106.447
21
-171.658
0
LINE
8
BLACK
6
CONTINUOUS
10
106.447
20
-171.658
11
106.542
21
-171.562
0
LINE
8
BLACK
6
CONTINUOUS
10
106.542
20
-171.562
11
106.542
21
-171.753
0
LINE
8
BLACK
6
CONTINUOUS
10
108.542
20
-171.753
11
107.399
21
-171.753
0
LINE
8
BLACK
6
CONTINUOUS
10
107.971
20
-171.753
11
107.971
21
-169.753
0
LINE
8
BLACK
6
CONTINUOUS
10
107.971
20
-169.753
11
107.78
21
-170.039
0
LINE
8
BLACK
6
CONTINUOUS
10
107.78
20
-170.039
11
107.59
21
-170.229
0
LINE
8
BLACK
6
CONTINUOUS
10
107.59
20
-170.229
11
107.399
21
-170.324
0
LINE
8
BLACK
6
CONTINUOUS
10
109.304
20
-169.943
11
109.399
21
-169.848
0
LINE
8
BLACK
6
CONTINUOUS
10
109.399
20
-169.848
11
109.59
21
-169.753
0
LINE
8
BLACK
6
CONTINUOUS
10
109.59
20
-169.753
11
110.066
21
-169.753
0
LINE
8
BLACK
6
CONTINUOUS
10
110.066
20
-169.753
11
110.256
21
-169.848
0
LINE
8
BLACK
6
CONTINUOUS
10
110.256
20
-169.848
11
110.352
21
-169.943
0
LINE
8
BLACK
6
CONTINUOUS
10
110.352
20
-169.943
11
110.447
21
-170.134
0
LINE
8
BLACK
6
CONTINUOUS
10
110.447
20
-170.134
11
110.447
21
-170.324
0
LINE
8
BLACK
6
CONTINUOUS
10
110.447
20
-170.324
11
110.352
21
-170.61
0
LINE
8
BLACK
6
CONTINUOUS
10
110.352
20
-170.61
11
109.209
21
-171.753
0
LINE
8
BLACK
6
CONTINUOUS
10
109.209
20
-171.753
11
110.447
21
-171.753
0
LINE
8
BLACK
6
CONTINUOUS
10
112.161
20
-169.753
11
111.78
21
-169.753
0
LINE
8
BLACK
6
CONTINUOUS
10
111.78
20
-169.753
11
111.59
21
-169.848
0
LINE
8
BLACK
6
CONTINUOUS
10
111.59
20
-169.848
11
111.495
21
-169.943
0
LINE
8
BLACK
6
CONTINUOUS
10
111.495
20
-169.943
11
111.304
21
-170.229
0
LINE
8
BLACK
6
CONTINUOUS
10
111.304
20
-170.229
11
111.209
21
-170.61
0
LINE
8
BLACK
6
CONTINUOUS
10
111.209
20
-170.61
11
111.209
21
-171.372
0
LINE
8
BLACK
6
CONTINUOUS
10
111.209
20
-171.372
11
111.304
21
-171.562
0
LINE
8
BLACK
6
CONTINUOUS
10
111.304
20
-171.562
11
111.399
21
-171.658
0
LINE
8
BLACK
6
CONTINUOUS
10
111.399
20
-171.658
11
111.59
21
-171.753
0
LINE
8
BLACK
6
CONTINUOUS
10
111.59
20
-171.753
11
111.971
21
-171.753
0
LINE
8
BLACK
6
CONTINUOUS
10
111.971
20
-171.753
11
112.161
21
-171.658
0
LINE
8
BLACK
6
CONTINUOUS
10
112.161
20
-171.658
11
112.256
21
-171.562
0
LINE
8
BLACK
6
CONTINUOUS
10
112.256
20
-171.562
11
112.352
21
-171.372
0
LINE
8
BLACK
6
CONTINUOUS
10
112.352
20
-171.372
11
112.352
21
-170.896
0
LINE
8
BLACK
6
CONTINUOUS
10
112.352
20
-170.896
11
112.256
21
-170.705
0
LINE
8
BLACK
6
CONTINUOUS
10
112.256
20
-170.705
11
112.161
21
-170.61
0
LINE
8
BLACK
6
CONTINUOUS
10
112.161
20
-170.61
11
111.971
21
-170.515
0
LINE
8
BLACK
6
CONTINUOUS
10
111.971
20
-170.515
11
111.59
21
-170.515
0
LINE
8
BLACK
6
CONTINUOUS
10
111.59
20
-170.515
11
111.399
21
-170.61
0
LINE
8
BLACK
6
CONTINUOUS
10
111.399
20
-170.61
11
111.304
21
-170.705
0
LINE
8
BLACK
6
CONTINUOUS
10
111.304
20
-170.705
11
111.209
21
-170.896
0
LINE
8
BLACK
6
CONTINUOUS
10
113.59
20
-169.753
11
113.78
21
-169.753
0
LINE
8
BLACK
6
CONTINUOUS
10
113.78
20
-169.753
11
113.971
21
-169.848
0
LINE
8
BLACK
6
CONTINUOUS
10
113.971
20
-169.848
11
114.066
21
-169.943
0
LINE
8
BLACK
6
CONTINUOUS
10
114.066
20
-169.943
11
114.161
21
-170.134
0
LINE
8
BLACK
6
CONTINUOUS
10
114.161
20
-170.134
11
114.256
21
-170.515
0
LINE
8
BLACK
6
CONTINUOUS
10
114.256
20
-170.515
11
114.256
21
-170.991
0
LINE
8
BLACK
6
CONTINUOUS
10
114.256
20
-170.991
11
114.161
21
-171.372
0
LINE
8
BLACK
6
CONTINUOUS
10
114.161
20
-171.372
11
114.066
21
-171.562
0
LINE
8
BLACK
6
CONTINUOUS
10
114.066
20
-171.562
11
113.971
21
-171.658
0
LINE
8
BLACK
6
CONTINUOUS
10
113.971
20
-171.658
11
113.78
21
-171.753
0
LINE
8
BLACK
6
CONTINUOUS
10
113.78
20
-171.753
11
113.59
21
-171.753
0
LINE
8
BLACK
6
CONTINUOUS
10
113.59
20
-171.753
11
113.399
21
-171.658
0
LINE
8
BLACK
6
CONTINUOUS
10
113.399
20
-171.658
11
113.304
21
-171.562
0
LINE
8
BLACK
6
CONTINUOUS
10
113.304
20
-171.562
11
113.209
21
-171.372
0
LINE
8
BLACK
6
CONTINUOUS
10
113.209
20
-171.372
11
113.114
21
-170.991
0
LINE
8
BLACK
6
CONTINUOUS
10
113.114
20
-170.991
11
113.114
21
-170.515
0
LINE
8
BLACK
6
CONTINUOUS
10
113.114
20
-170.515
11
113.209
21
-170.134
0
LINE
8
BLACK
6
CONTINUOUS
10
113.209
20
-170.134
11
113.304
21
-169.943
0
LINE
8
BLACK
6
CONTINUOUS
10
113.304
20
-169.943
11
113.399
21
-169.848
0
LINE
8
BLACK
6
CONTINUOUS
10
113.399
20
-169.848
11
113.59
21
-169.753
0
LINE
8
BLACK
6
CONTINUOUS
10
115.018
20
-169.753
11
115.018
21
-170.134
0
LINE
8
BLACK
6
CONTINUOUS
10
115.78
20
-169.753
11
115.78
21
-170.134
0
LINE
8
BLACK
6
CONTINUOUS
10
118.733
20
-172.515
11
118.637
21
-172.42
0
LINE
8
BLACK
6
CONTINUOUS
10
118.637
20
-172.42
11
118.447
21
-172.134
0
LINE
8
BLACK
6
CONTINUOUS
10
118.447
20
-172.134
11
118.352
21
-171.943
0
LINE
8
BLACK
6
CONTINUOUS
10
118.352
20
-171.943
11
118.256
21
-171.658
0
LINE
8
BLACK
6
CONTINUOUS
10
118.256
20
-171.658
11
118.161
21
-171.181
0
LINE
8
BLACK
6
CONTINUOUS
10
118.161
20
-171.181
11
118.161
21
-170.8
0
LINE
8
BLACK
6
CONTINUOUS
10
118.161
20
-170.8
11
118.256
21
-170.324
0
LINE
8
BLACK
6
CONTINUOUS
10
118.256
20
-170.324
11
118.352
21
-170.039
0
LINE
8
BLACK
6
CONTINUOUS
10
118.352
20
-170.039
11
118.447
21
-169.848
0
LINE
8
BLACK
6
CONTINUOUS
10
118.447
20
-169.848
11
118.637
21
-169.562
0
LINE
8
BLACK
6
CONTINUOUS
10
118.637
20
-169.562
11
118.733
21
-169.467
0
LINE
8
BLACK
6
CONTINUOUS
10
119.399
20
-169.943
11
119.495
21
-169.848
0
LINE
8
BLACK
6
CONTINUOUS
10
119.495
20
-169.848
11
119.685
21
-169.753
0
LINE
8
BLACK
6
CONTINUOUS
10
119.685
20
-169.753
11
120.161
21
-169.753
0
LINE
8
BLACK
6
CONTINUOUS
10
120.161
20
-169.753
11
120.352
21
-169.848
0
LINE
8
BLACK
6
CONTINUOUS
10
120.352
20
-169.848
11
120.447
21
-169.943
0
LINE
8
BLACK
6
CONTINUOUS
10
120.447
20
-169.943
11
120.542
21
-170.134
0
LINE
8
BLACK
6
CONTINUOUS
10
120.542
20
-170.134
11
120.542
21
-170.324
0
LINE
8
BLACK
6
CONTINUOUS
10
120.542
20
-170.324
11
120.447
21
-170.61
0
LINE
8
BLACK
6
CONTINUOUS
10
120.447
20
-170.61
11
119.304
21
-171.753
0
LINE
8
BLACK
6
CONTINUOUS
10
119.304
20
-171.753
11
120.542
21
-171.753
0
LINE
8
BLACK
6
CONTINUOUS
10
122.923
20
-171.753
11
122.923
21
-169.753
0
LINE
8
BLACK
6
CONTINUOUS
10
123.78
20
-171.753
11
123.78
21
-170.705
0
LINE
8
BLACK
6
CONTINUOUS
10
123.78
20
-170.705
11
123.685
21
-170.515
0
LINE
8
BLACK
6
CONTINUOUS
10
123.685
20
-170.515
11
123.495
21
-170.42
0
LINE
8
BLACK
6
CONTINUOUS
10
123.495
20
-170.42
11
123.209
21
-170.42
0
LINE
8
BLACK
6
CONTINUOUS
10
123.209
20
-170.42
11
123.018
21
-170.515
0
LINE
8
BLACK
6
CONTINUOUS
10
123.018
20
-170.515
11
122.923
21
-170.61
0
LINE
8
BLACK
6
CONTINUOUS
10
125.018
20
-171.753
11
124.828
21
-171.658
0
LINE
8
BLACK
6
CONTINUOUS
10
124.828
20
-171.658
11
124.733
21
-171.562
0
LINE
8
BLACK
6
CONTINUOUS
10
124.733
20
-171.562
11
124.637
21
-171.372
0
LINE
8
BLACK
6
CONTINUOUS
10
124.637
20
-171.372
11
124.637
21
-170.8
0
LINE
8
BLACK
6
CONTINUOUS
10
124.637
20
-170.8
11
124.733
21
-170.61
0
LINE
8
BLACK
6
CONTINUOUS
10
124.733
20
-170.61
11
124.828
21
-170.515
0
LINE
8
BLACK
6
CONTINUOUS
10
124.828
20
-170.515
11
125.018
21
-170.42
0
LINE
8
BLACK
6
CONTINUOUS
10
125.018
20
-170.42
11
125.304
21
-170.42
0
LINE
8
BLACK
6
CONTINUOUS
10
125.304
20
-170.42
11
125.495
21
-170.515
0
LINE
8
BLACK
6
CONTINUOUS
10
125.495
20
-170.515
11
125.59
21
-170.61
0
LINE
8
BLACK
6
CONTINUOUS
10
125.59
20
-170.61
11
125.685
21
-170.8
0
LINE
8
BLACK
6
CONTINUOUS
10
125.685
20
-170.8
11
125.685
21
-171.372
0
LINE
8
BLACK
6
CONTINUOUS
10
125.685
20
-171.372
11
125.59
21
-171.562
0
LINE
8
BLACK
6
CONTINUOUS
10
125.59
20
-171.562
11
125.495
21
-171.658
0
LINE
8
BLACK
6
CONTINUOUS
10
125.495
20
-171.658
11
125.304
21
-171.753
0
LINE
8
BLACK
6
CONTINUOUS
10
125.304
20
-171.753
11
125.018
21
-171.753
0
LINE
8
BLACK
6
CONTINUOUS
10
126.828
20
-171.753
11
126.637
21
-171.658
0
LINE
8
BLACK
6
CONTINUOUS
10
126.637
20
-171.658
11
126.542
21
-171.467
0
LINE
8
BLACK
6
CONTINUOUS
10
126.542
20
-171.467
11
126.542
21
-169.753
0
LINE
8
BLACK
6
CONTINUOUS
10
128.352
20
-171.658
11
128.161
21
-171.753
0
LINE
8
BLACK
6
CONTINUOUS
10
128.161
20
-171.753
11
127.78
21
-171.753
0
LINE
8
BLACK
6
CONTINUOUS
10
127.78
20
-171.753
11
127.59
21
-171.658
0
LINE
8
BLACK
6
CONTINUOUS
10
127.59
20
-171.658
11
127.495
21
-171.467
0
LINE
8
BLACK
6
CONTINUOUS
10
127.495
20
-171.467
11
127.495
21
-170.705
0
LINE
8
BLACK
6
CONTINUOUS
10
127.495
20
-170.705
11
127.59
21
-170.515
0
LINE
8
BLACK
6
CONTINUOUS
10
127.59
20
-170.515
11
127.78
21
-170.42
0
LINE
8
BLACK
6
CONTINUOUS
10
127.78
20
-170.42
11
128.161
21
-170.42
0
LINE
8
BLACK
6
CONTINUOUS
10
128.161
20
-170.42
11
128.352
21
-170.515
0
LINE
8
BLACK
6
CONTINUOUS
10
128.352
20
-170.515
11
128.447
21
-170.705
0
LINE
8
BLACK
6
CONTINUOUS
10
128.447
20
-170.705
11
128.447
21
-170.896
0
LINE
8
BLACK
6
CONTINUOUS
10
128.447
20
-170.896
11
127.495
21
-171.086
0
LINE
8
BLACK
6
CONTINUOUS
10
129.209
20
-171.658
11
129.399
21
-171.753
0
LINE
8
BLACK
6
CONTINUOUS
10
129.399
20
-171.753
11
129.78
21
-171.753
0
LINE
8
BLACK
6
CONTINUOUS
10
129.78
20
-171.753
11
129.971
21
-171.658
0
LINE
8
BLACK
6
CONTINUOUS
10
129.971
20
-171.658
11
130.066
21
-171.467
0
LINE
8
BLACK
6
CONTINUOUS
10
130.066
20
-171.467
11
130.066
21
-171.372
0
LINE
8
BLACK
6
CONTINUOUS
10
130.066
20
-171.372
11
129.971
21
-171.181
0
LINE
8
BLACK
6
CONTINUOUS
10
129.971
20
-171.181
11
129.78
21
-171.086
0
LINE
8
BLACK
6
CONTINUOUS
10
129.78
20
-171.086
11
129.495
21
-171.086
0
LINE
8
BLACK
6
CONTINUOUS
10
129.495
20
-171.086
11
129.304
21
-170.991
0
LINE
8
BLACK
6
CONTINUOUS
10
129.304
20
-170.991
11
129.209
21
-170.8
0
LINE
8
BLACK
6
CONTINUOUS
10
129.209
20
-170.8
11
129.209
21
-170.705
0
LINE
8
BLACK
6
CONTINUOUS
10
129.209
20
-170.705
11
129.304
21
-170.515
0
LINE
8
BLACK
6
CONTINUOUS
10
129.304
20
-170.515
11
129.495
21
-170.42
0
LINE
8
BLACK
6
CONTINUOUS
10
129.495
20
-170.42
11
129.78
21
-170.42
0
LINE
8
BLACK
6
CONTINUOUS
10
129.78
20
-170.42
11
129.971
21
-170.515
0
LINE
8
BLACK
6
CONTINUOUS
10
130.733
20
-172.515
11
130.828
21
-172.42
0
LINE
8
BLACK
6
CONTINUOUS
10
130.828
20
-172.42
11
131.018
21
-172.134
0
LINE
8
BLACK
6
CONTINUOUS
10
131.018
20
-172.134
11
131.114
21
-171.943
0
LINE
8
BLACK
6
CONTINUOUS
10
131.114
20
-171.943
11
131.209
21
-171.658
0
LINE
8
BLACK
6
CONTINUOUS
10
131.209
20
-171.658
11
131.304
21
-171.181
0
LINE
8
BLACK
6
CONTINUOUS
10
131.304
20
-171.181
11
131.304
21
-170.8
0
LINE
8
BLACK
6
CONTINUOUS
10
131.304
20
-170.8
11
131.209
21
-170.324
0
LINE
8
BLACK
6
CONTINUOUS
10
131.209
20
-170.324
11
131.114
21
-170.039
0
LINE
8
BLACK
6
CONTINUOUS
10
131.114
20
-170.039
11
131.018
21
-169.848
0
LINE
8
BLACK
6
CONTINUOUS
10
131.018
20
-169.848
11
130.828
21
-169.562
0
LINE
8
BLACK
6
CONTINUOUS
10
130.828
20
-169.562
11
130.733
21
-169.467
0
LINE
8
BLACK
6
CONTINUOUS
10
134.352
20
-172.515
11
134.256
21
-172.42
0
LINE
8
BLACK
6
CONTINUOUS
10
134.256
20
-172.42
11
134.066
21
-172.134
0
LINE
8
BLACK
6
CONTINUOUS
10
134.066
20
-172.134
11
133.971
21
-171.943
0
LINE
8
BLACK
6
CONTINUOUS
10
133.971
20
-171.943
11
133.875
21
-171.658
0
LINE
8
BLACK
6
CONTINUOUS
10
133.875
20
-171.658
11
133.78
21
-171.181
0
LINE
8
BLACK
6
CONTINUOUS
10
133.78
20
-171.181
11
133.78
21
-170.8
0
LINE
8
BLACK
6
CONTINUOUS
10
133.78
20
-170.8
11
133.875
21
-170.324
0
LINE
8
BLACK
6
CONTINUOUS
10
133.875
20
-170.324
11
133.971
21
-170.039
0
LINE
8
BLACK
6
CONTINUOUS
10
133.971
20
-170.039
11
134.066
21
-169.848
0
LINE
8
BLACK
6
CONTINUOUS
10
134.066
20
-169.848
11
134.256
21
-169.562
0
LINE
8
BLACK
6
CONTINUOUS
10
134.256
20
-169.562
11
134.352
21
-169.467
0
LINE
8
BLACK
6
CONTINUOUS
10
135.114
20
-170.42
11
135.114
21
-171.753
0
LINE
8
BLACK
6
CONTINUOUS
10
135.114
20
-170.61
11
135.209
21
-170.515
0
LINE
8
BLACK
6
CONTINUOUS
10
135.209
20
-170.515
11
135.399
21
-170.42
0
LINE
8
BLACK
6
CONTINUOUS
10
135.399
20
-170.42
11
135.685
21
-170.42
0
LINE
8
BLACK
6
CONTINUOUS
10
135.685
20
-170.42
11
135.875
21
-170.515
0
LINE
8
BLACK
6
CONTINUOUS
10
135.875
20
-170.515
11
135.971
21
-170.705
0
LINE
8
BLACK
6
CONTINUOUS
10
135.971
20
-170.705
11
135.971
21
-171.753
0
LINE
8
BLACK
6
CONTINUOUS
10
137.209
20
-171.753
11
137.018
21
-171.658
0
LINE
8
BLACK
6
CONTINUOUS
10
137.018
20
-171.658
11
136.923
21
-171.562
0
LINE
8
BLACK
6
CONTINUOUS
10
136.923
20
-171.562
11
136.828
21
-171.372
0
LINE
8
BLACK
6
CONTINUOUS
10
136.828
20
-171.372
11
136.828
21
-170.8
0
LINE
8
BLACK
6
CONTINUOUS
10
136.828
20
-170.8
11
136.923
21
-170.61
0
LINE
8
BLACK
6
CONTINUOUS
10
136.923
20
-170.61
11
137.018
21
-170.515
0
LINE
8
BLACK
6
CONTINUOUS
10
137.018
20
-170.515
11
137.209
21
-170.42
0
LINE
8
BLACK
6
CONTINUOUS
10
137.209
20
-170.42
11
137.495
21
-170.42
0
LINE
8
BLACK
6
CONTINUOUS
10
137.495
20
-170.42
11
137.685
21
-170.515
0
LINE
8
BLACK
6
CONTINUOUS
10
137.685
20
-170.515
11
137.78
21
-170.61
0
LINE
8
BLACK
6
CONTINUOUS
10
137.78
20
-170.61
11
137.875
21
-170.8
0
LINE
8
BLACK
6
CONTINUOUS
10
137.875
20
-170.8
11
137.875
21
-171.372
0
LINE
8
BLACK
6
CONTINUOUS
10
137.875
20
-171.372
11
137.78
21
-171.562
0
LINE
8
BLACK
6
CONTINUOUS
10
137.78
20
-171.562
11
137.685
21
-171.658
0
LINE
8
BLACK
6
CONTINUOUS
10
137.685
20
-171.658
11
137.495
21
-171.753
0
LINE
8
BLACK
6
CONTINUOUS
10
137.495
20
-171.753
11
137.209
21
-171.753
0
LINE
8
BLACK
6
CONTINUOUS
10
138.447
20
-170.42
11
139.209
21
-170.42
0
LINE
8
BLACK
6
CONTINUOUS
10
138.733
20
-169.753
11
138.733
21
-171.467
0
LINE
8
BLACK
6
CONTINUOUS
10
138.733
20
-171.467
11
138.828
21
-171.658
0
LINE
8
BLACK
6
CONTINUOUS
10
138.828
20
-171.658
11
139.018
21
-171.753
0
LINE
8
BLACK
6
CONTINUOUS
10
139.018
20
-171.753
11
139.209
21
-171.753
0
LINE
8
BLACK
6
CONTINUOUS
10
141.399
20
-170.42
11
141.399
21
-172.42
0
LINE
8
BLACK
6
CONTINUOUS
10
141.399
20
-170.515
11
141.59
21
-170.42
0
LINE
8
BLACK
6
CONTINUOUS
10
141.59
20
-170.42
11
141.971
21
-170.42
0
LINE
8
BLACK
6
CONTINUOUS
10
141.971
20
-170.42
11
142.161
21
-170.515
0
LINE
8
BLACK
6
CONTINUOUS
10
142.161
20
-170.515
11
142.256
21
-170.61
0
LINE
8
BLACK
6
CONTINUOUS
10
142.256
20
-170.61
11
142.352
21
-170.8
0
LINE
8
BLACK
6
CONTINUOUS
10
142.352
20
-170.8
11
142.352
21
-171.372
0
LINE
8
BLACK
6
CONTINUOUS
10
142.352
20
-171.372
11
142.256
21
-171.562
0
LINE
8
BLACK
6
CONTINUOUS
10
142.256
20
-171.562
11
142.161
21
-171.658
0
LINE
8
BLACK
6
CONTINUOUS
10
142.161
20
-171.658
11
141.971
21
-171.753
0
LINE
8
BLACK
6
CONTINUOUS
10
141.971
20
-171.753
11
141.59
21
-171.753
0
LINE
8
BLACK
6
CONTINUOUS
10
141.59
20
-171.753
11
141.399
21
-171.658
0
LINE
8
BLACK
6
CONTINUOUS
10
143.495
20
-171.753
11
143.304
21
-171.658
0
LINE
8
BLACK
6
CONTINUOUS
10
143.304
20
-171.658
11
143.209
21
-171.467
0
LINE
8
BLACK
6
CONTINUOUS
10
143.209
20
-171.467
11
143.209
21
-169.753
0
LINE
8
BLACK
6
CONTINUOUS
10
145.114
20
-171.753
11
145.114
21
-170.705
0
LINE
8
BLACK
6
CONTINUOUS
10
145.114
20
-170.705
11
145.018
21
-170.515
0
LINE
8
BLACK
6
CONTINUOUS
10
145.018
20
-170.515
11
144.828
21
-170.42
0
LINE
8
BLACK
6
CONTINUOUS
10
144.828
20
-170.42
11
144.447
21
-170.42
0
LINE
8
BLACK
6
CONTINUOUS
10
144.447
20
-170.42
11
144.256
21
-170.515
0
LINE
8
BLACK
6
CONTINUOUS
10
145.114
20
-171.658
11
144.923
21
-171.753
0
LINE
8
BLACK
6
CONTINUOUS
10
144.923
20
-171.753
11
144.447
21
-171.753
0
LINE
8
BLACK
6
CONTINUOUS
10
144.447
20
-171.753
11
144.256
21
-171.658
0
LINE
8
BLACK
6
CONTINUOUS
10
144.256
20
-171.658
11
144.161
21
-171.467
0
LINE
8
BLACK
6
CONTINUOUS
10
144.161
20
-171.467
11
144.161
21
-171.277
0
LINE
8
BLACK
6
CONTINUOUS
10
144.161
20
-171.277
11
144.256
21
-171.086
0
LINE
8
BLACK
6
CONTINUOUS
10
144.256
20
-171.086
11
144.447
21
-170.991
0
LINE
8
BLACK
6
CONTINUOUS
10
144.447
20
-170.991
11
144.923
21
-170.991
0
LINE
8
BLACK
6
CONTINUOUS
10
144.923
20
-170.991
11
145.114
21
-170.896
0
LINE
8
BLACK
6
CONTINUOUS
10
145.78
20
-170.42
11
146.542
21
-170.42
0
LINE
8
BLACK
6
CONTINUOUS
10
146.066
20
-169.753
11
146.066
21
-171.467
0
LINE
8
BLACK
6
CONTINUOUS
10
146.066
20
-171.467
11
146.161
21
-171.658
0
LINE
8
BLACK
6
CONTINUOUS
10
146.161
20
-171.658
11
146.352
21
-171.753
0
LINE
8
BLACK
6
CONTINUOUS
10
146.352
20
-171.753
11
146.542
21
-171.753
0
LINE
8
BLACK
6
CONTINUOUS
10
147.971
20
-171.658
11
147.78
21
-171.753
0
LINE
8
BLACK
6
CONTINUOUS
10
147.78
20
-171.753
11
147.399
21
-171.753
0
LINE
8
BLACK
6
CONTINUOUS
10
147.399
20
-171.753
11
147.209
21
-171.658
0
LINE
8
BLACK
6
CONTINUOUS
10
147.209
20
-171.658
11
147.114
21
-171.467
0
LINE
8
BLACK
6
CONTINUOUS
10
147.114
20
-171.467
11
147.114
21
-170.705
0
LINE
8
BLACK
6
CONTINUOUS
10
147.114
20
-170.705
11
147.209
21
-170.515
0
LINE
8
BLACK
6
CONTINUOUS
10
147.209
20
-170.515
11
147.399
21
-170.42
0
LINE
8
BLACK
6
CONTINUOUS
10
147.399
20
-170.42
11
147.78
21
-170.42
0
LINE
8
BLACK
6
CONTINUOUS
10
147.78
20
-170.42
11
147.971
21
-170.515
0
LINE
8
BLACK
6
CONTINUOUS
10
147.971
20
-170.515
11
148.066
21
-170.705
0
LINE
8
BLACK
6
CONTINUOUS
10
148.066
20
-170.705
11
148.066
21
-170.896
0
LINE
8
BLACK
6
CONTINUOUS
10
148.066
20
-170.896
11
147.114
21
-171.086
0
LINE
8
BLACK
6
CONTINUOUS
10
149.78
20
-171.753
11
149.78
21
-169.753
0
LINE
8
BLACK
6
CONTINUOUS
10
149.78
20
-171.658
11
149.59
21
-171.753
0
LINE
8
BLACK
6
CONTINUOUS
10
149.59
20
-171.753
11
149.209
21
-171.753
0
LINE
8
BLACK
6
CONTINUOUS
10
149.209
20
-171.753
11
149.018
21
-171.658
0
LINE
8
BLACK
6
CONTINUOUS
10
149.018
20
-171.658
11
148.923
21
-171.562
0
LINE
8
BLACK
6
CONTINUOUS
10
148.923
20
-171.562
11
148.828
21
-171.372
0
LINE
8
BLACK
6
CONTINUOUS
10
148.828
20
-171.372
11
148.828
21
-170.8
0
LINE
8
BLACK
6
CONTINUOUS
10
148.828
20
-170.8
11
148.923
21
-170.61
0
LINE
8
BLACK
6
CONTINUOUS
10
148.923
20
-170.61
11
149.018
21
-170.515
0
LINE
8
BLACK
6
CONTINUOUS
10
149.018
20
-170.515
11
149.209
21
-170.42
0
LINE
8
BLACK
6
CONTINUOUS
10
149.209
20
-170.42
11
149.59
21
-170.42
0
LINE
8
BLACK
6
CONTINUOUS
10
149.59
20
-170.42
11
149.78
21
-170.515
0
LINE
8
BLACK
6
CONTINUOUS
10
150.542
20
-172.515
11
150.637
21
-172.42
0
LINE
8
BLACK
6
CONTINUOUS
10
150.637
20
-172.42
11
150.828
21
-172.134
0
LINE
8
BLACK
6
CONTINUOUS
10
150.828
20
-172.134
11
150.923
21
-171.943
0
LINE
8
BLACK
6
CONTINUOUS
10
150.923
20
-171.943
11
151.018
21
-171.658
0
LINE
8
BLACK
6
CONTINUOUS
10
151.018
20
-171.658
11
151.114
21
-171.181
0
LINE
8
BLACK
6
CONTINUOUS
10
151.114
20
-171.181
11
151.114
21
-170.8
0
LINE
8
BLACK
6
CONTINUOUS
10
151.114
20
-170.8
11
151.018
21
-170.324
0
LINE
8
BLACK
6
CONTINUOUS
10
151.018
20
-170.324
11
150.923
21
-170.039
0
LINE
8
BLACK
6
CONTINUOUS
10
150.923
20
-170.039
11
150.828
21
-169.848
0
LINE
8
BLACK
6
CONTINUOUS
10
150.828
20
-169.848
11
150.637
21
-169.562
0
LINE
8
BLACK
6
CONTINUOUS
10
150.637
20
-169.562
11
150.542
21
-169.467
  0
ENDSEC
  0
EOF
