G04 #@! TF.GenerationSoftware,KiCad,Pcbnew,7.0.10*
G04 #@! TF.CreationDate,2024-02-15T21:55:24+01:00*
G04 #@! TF.ProjectId,ithowifi_4l,6974686f-7769-4666-995f-346c2e6b6963,rev?*
G04 #@! TF.SameCoordinates,Original*
G04 #@! TF.FileFunction,Soldermask,Top*
G04 #@! TF.FilePolarity,Negative*
%FSLAX46Y46*%
G04 Gerber Fmt 4.6, Leading zero omitted, Abs format (unit mm)*
G04 Created by KiCad (PCBNEW 7.0.10) date 2024-02-15 21:55:24*
%MOMM*%
%LPD*%
G01*
G04 APERTURE LIST*
G04 Aperture macros list*
%AMRoundRect*
0 Rectangle with rounded corners*
0 $1 Rounding radius*
0 $2 $3 $4 $5 $6 $7 $8 $9 X,Y pos of 4 corners*
0 Add a 4 corners polygon primitive as box body*
4,1,4,$2,$3,$4,$5,$6,$7,$8,$9,$2,$3,0*
0 Add four circle primitives for the rounded corners*
1,1,$1+$1,$2,$3*
1,1,$1+$1,$4,$5*
1,1,$1+$1,$6,$7*
1,1,$1+$1,$8,$9*
0 Add four rect primitives between the rounded corners*
20,1,$1+$1,$2,$3,$4,$5,0*
20,1,$1+$1,$4,$5,$6,$7,0*
20,1,$1+$1,$6,$7,$8,$9,0*
20,1,$1+$1,$8,$9,$2,$3,0*%
G04 Aperture macros list end*
%ADD10R,0.700000X1.000000*%
%ADD11RoundRect,0.250000X-0.450000X0.262500X-0.450000X-0.262500X0.450000X-0.262500X0.450000X0.262500X0*%
%ADD12R,1.700000X1.700000*%
%ADD13O,1.700000X1.700000*%
%ADD14R,1.500000X0.900000*%
%ADD15R,0.900000X1.500000*%
%ADD16R,1.050000X1.050000*%
%ADD17C,3.200000*%
%ADD18RoundRect,0.243750X0.456250X-0.243750X0.456250X0.243750X-0.456250X0.243750X-0.456250X-0.243750X0*%
%ADD19R,3.150000X1.000000*%
%ADD20C,0.990600*%
%ADD21C,0.787400*%
%ADD22R,0.750000X1.000000*%
%ADD23RoundRect,0.250000X0.250000X0.475000X-0.250000X0.475000X-0.250000X-0.475000X0.250000X-0.475000X0*%
%ADD24RoundRect,0.250000X0.450000X-0.262500X0.450000X0.262500X-0.450000X0.262500X-0.450000X-0.262500X0*%
%ADD25RoundRect,0.250000X0.475000X-0.250000X0.475000X0.250000X-0.475000X0.250000X-0.475000X-0.250000X0*%
%ADD26RoundRect,0.250000X1.025000X-0.787500X1.025000X0.787500X-1.025000X0.787500X-1.025000X-0.787500X0*%
%ADD27RoundRect,0.250000X-0.250000X-0.475000X0.250000X-0.475000X0.250000X0.475000X-0.250000X0.475000X0*%
%ADD28RoundRect,0.225000X0.225000X0.375000X-0.225000X0.375000X-0.225000X-0.375000X0.225000X-0.375000X0*%
%ADD29C,2.000000*%
%ADD30RoundRect,0.105000X-1.655000X0.420000X-1.655000X-0.420000X1.655000X-0.420000X1.655000X0.420000X0*%
%ADD31RoundRect,0.105000X-1.005000X0.420000X-1.005000X-0.420000X1.005000X-0.420000X1.005000X0.420000X0*%
%ADD32R,1.500000X5.080000*%
G04 APERTURE END LIST*
D10*
X119608600Y-120339000D03*
X117708600Y-120339000D03*
X118658600Y-122739000D03*
D11*
X118872000Y-116711900D03*
X118872000Y-118536900D03*
D12*
X85725000Y-107797600D03*
D13*
X85725000Y-110337600D03*
X85725000Y-112877600D03*
X85725000Y-115417600D03*
X85725000Y-117957600D03*
X85725000Y-120497600D03*
X85725000Y-123037600D03*
D14*
X104727600Y-148613600D03*
X104727600Y-147343600D03*
X104727600Y-146073600D03*
X104727600Y-144803600D03*
X104727600Y-143533600D03*
X104727600Y-142263600D03*
X104727600Y-140993600D03*
X104727600Y-139723600D03*
X104727600Y-138453600D03*
X104727600Y-137183600D03*
X104727600Y-135913600D03*
X104727600Y-134643600D03*
X104727600Y-133373600D03*
X104727600Y-132103600D03*
D15*
X101697600Y-130853600D03*
X100427600Y-130853600D03*
X99157600Y-130853600D03*
X97887600Y-130853600D03*
X96617600Y-130853600D03*
X95347600Y-130853600D03*
X94077600Y-130853600D03*
X92807600Y-130853600D03*
X91537600Y-130853600D03*
X90267600Y-130853600D03*
D14*
X87227600Y-132103600D03*
X87227600Y-133373600D03*
X87227600Y-134643600D03*
X87227600Y-135913600D03*
X87227600Y-137183600D03*
X87227600Y-138453600D03*
X87227600Y-139723600D03*
X87227600Y-140993600D03*
X87227600Y-142263600D03*
X87227600Y-143533600D03*
X87227600Y-144803600D03*
X87227600Y-146073600D03*
X87227600Y-147343600D03*
X87227600Y-148613600D03*
D16*
X98182600Y-142798600D03*
X98182600Y-141273600D03*
X98182600Y-139748600D03*
X96657600Y-142798600D03*
X96657600Y-141273600D03*
X96657600Y-139748600D03*
X95132600Y-142798600D03*
X95132600Y-141273600D03*
X95132600Y-139748600D03*
D11*
X91313000Y-124588900D03*
X91313000Y-126413900D03*
X106536000Y-124597500D03*
X106536000Y-126422500D03*
X118618000Y-124548500D03*
X118618000Y-126373500D03*
D17*
X94488000Y-113538000D03*
D18*
X88900000Y-126438900D03*
X88900000Y-124563900D03*
D19*
X108473000Y-151892000D03*
X113523000Y-151892000D03*
X108473000Y-154432000D03*
X113523000Y-154432000D03*
D20*
X94576000Y-108917400D03*
X89496000Y-107901400D03*
X94576000Y-106885400D03*
D21*
X90766000Y-108536400D03*
X90766000Y-107266400D03*
X92036000Y-108536400D03*
X92036000Y-107266400D03*
X93306000Y-108536400D03*
X93306000Y-107266400D03*
D22*
X113675000Y-121872000D03*
X113675000Y-115872000D03*
X109925000Y-121872000D03*
X109925000Y-115872000D03*
D23*
X115250000Y-138684000D03*
X113350000Y-138684000D03*
D10*
X123606600Y-120339000D03*
X121706600Y-120339000D03*
X122656600Y-122739000D03*
D24*
X122859800Y-118536900D03*
X122859800Y-116711900D03*
D11*
X122682000Y-124548500D03*
X122682000Y-126373500D03*
D25*
X96139000Y-126451400D03*
X96139000Y-124551400D03*
D24*
X98552000Y-126428000D03*
X98552000Y-124603000D03*
D26*
X111632000Y-132308600D03*
X111632000Y-126083600D03*
D27*
X109486900Y-148751000D03*
X111386900Y-148751000D03*
D25*
X108377500Y-143351000D03*
X108377500Y-141451000D03*
D28*
X111425500Y-146084000D03*
X108125500Y-146084000D03*
D24*
X111171500Y-143290000D03*
X111171500Y-141465000D03*
D29*
X107100780Y-109251460D03*
D24*
X93726000Y-126413900D03*
X93726000Y-124588900D03*
X103378000Y-126428000D03*
X103378000Y-124603000D03*
D18*
X100965000Y-124578000D03*
X100965000Y-126453000D03*
D22*
X104675000Y-121872000D03*
X104675000Y-115872000D03*
X100925000Y-121872000D03*
X100925000Y-115872000D03*
D17*
X121630000Y-108120000D03*
D30*
X117475000Y-142240000D03*
X117475000Y-144780000D03*
X117475000Y-147320000D03*
D31*
X123205000Y-147320000D03*
D30*
X122555000Y-144780000D03*
D31*
X123205000Y-142240000D03*
D19*
X123295000Y-137810000D03*
X118245000Y-137810000D03*
X123295000Y-135270000D03*
X118245000Y-135270000D03*
X123295000Y-132730000D03*
X118245000Y-132730000D03*
X123295000Y-130190000D03*
X118245000Y-130190000D03*
D32*
X102850000Y-107848400D03*
X111350000Y-107848400D03*
M02*
