%TF.GenerationSoftware,KiCad,Pcbnew,7.0.10*%
%TF.CreationDate,2024-02-15T21:55:26+01:00*%
%TF.ProjectId,ithowifi_4l,6974686f-7769-4666-995f-346c2e6b6963,rev?*%
%TF.SameCoordinates,Original*%
%TF.FileFunction,Drillmap*%
%TF.FilePolarity,Positive*%
%FSLAX45Y45*%
G04 Gerber Fmt 4.5, Leading zero omitted, Abs format (unit mm)*
G04 Created by KiCad (PCBNEW 7.0.10) date 2024-02-15 21:55:26*
%MOMM*%
%LPD*%
G01*
G04 APERTURE LIST*
%ADD10C,0.100000*%
%ADD11C,0.200000*%
%ADD12C,0.320000*%
G04 APERTURE END LIST*
D10*
X8303200Y-15596800D02*
G75*
G03*
X8353200Y-15646800I50000J0D01*
G01*
X12533200Y-10696800D02*
G75*
G03*
X12333200Y-10496800I-200000J0D01*
G01*
X12333200Y-10496800D02*
X8503200Y-10496800D01*
X12483200Y-14996800D02*
G75*
G03*
X12533200Y-14946800I0J50000D01*
G01*
X8683200Y-15646800D02*
X8353200Y-15646800D01*
X11533200Y-15646800D02*
X10513200Y-15646800D01*
X10463200Y-15596800D02*
G75*
G03*
X10513200Y-15646800I50000J0D01*
G01*
X11533200Y-15646800D02*
G75*
G03*
X11583200Y-15596800I0J50000D01*
G01*
X11583200Y-15596800D02*
X11583200Y-15046800D01*
X10463200Y-14996800D02*
X8733200Y-14996800D01*
X11633200Y-14996800D02*
G75*
G03*
X11583200Y-15046800I0J-50000D01*
G01*
X8733200Y-14996800D02*
X8733200Y-15596800D01*
X10463200Y-15596800D02*
X10463200Y-14996800D01*
X8683200Y-15646800D02*
G75*
G03*
X8733200Y-15596800I0J50000D01*
G01*
X8303200Y-15596800D02*
X8303200Y-10696800D01*
X8503200Y-10496800D02*
G75*
G03*
X8303200Y-10696800I0J-200000D01*
G01*
X12533200Y-10696800D02*
X12533200Y-14946800D01*
X12483200Y-14996800D02*
X11633200Y-14996800D01*
D11*
D10*
X8900070Y-10740610D02*
X8999130Y-10839670D01*
X8999130Y-10740610D02*
X8900070Y-10839670D01*
X9408070Y-10639010D02*
X9507130Y-10738070D01*
X9507130Y-10639010D02*
X9408070Y-10738070D01*
X9408070Y-10842210D02*
X9507130Y-10941270D01*
X9507130Y-10842210D02*
X9408070Y-10941270D01*
D12*
X9608800Y-11353800D02*
G75*
G03*
X9288800Y-11353800I-160000J0D01*
G01*
X9288800Y-11353800D02*
G75*
G03*
X9608800Y-11353800I160000J0D01*
G01*
X12323000Y-10812000D02*
G75*
G03*
X12003000Y-10812000I-160000J0D01*
G01*
X12003000Y-10812000D02*
G75*
G03*
X12323000Y-10812000I160000J0D01*
G01*
D11*
X8558977Y-15963284D02*
X8558977Y-15763284D01*
X8558977Y-15763284D02*
X8606596Y-15763284D01*
X8606596Y-15763284D02*
X8635167Y-15772808D01*
X8635167Y-15772808D02*
X8654215Y-15791855D01*
X8654215Y-15791855D02*
X8663739Y-15810903D01*
X8663739Y-15810903D02*
X8673263Y-15848998D01*
X8673263Y-15848998D02*
X8673263Y-15877569D01*
X8673263Y-15877569D02*
X8663739Y-15915665D01*
X8663739Y-15915665D02*
X8654215Y-15934712D01*
X8654215Y-15934712D02*
X8635167Y-15953760D01*
X8635167Y-15953760D02*
X8606596Y-15963284D01*
X8606596Y-15963284D02*
X8558977Y-15963284D01*
X8758977Y-15963284D02*
X8758977Y-15829950D01*
X8758977Y-15868046D02*
X8768501Y-15848998D01*
X8768501Y-15848998D02*
X8778024Y-15839474D01*
X8778024Y-15839474D02*
X8797072Y-15829950D01*
X8797072Y-15829950D02*
X8816120Y-15829950D01*
X8882786Y-15963284D02*
X8882786Y-15829950D01*
X8882786Y-15763284D02*
X8873263Y-15772808D01*
X8873263Y-15772808D02*
X8882786Y-15782331D01*
X8882786Y-15782331D02*
X8892310Y-15772808D01*
X8892310Y-15772808D02*
X8882786Y-15763284D01*
X8882786Y-15763284D02*
X8882786Y-15782331D01*
X9006596Y-15963284D02*
X8987548Y-15953760D01*
X8987548Y-15953760D02*
X8978024Y-15934712D01*
X8978024Y-15934712D02*
X8978024Y-15763284D01*
X9111358Y-15963284D02*
X9092310Y-15953760D01*
X9092310Y-15953760D02*
X9082786Y-15934712D01*
X9082786Y-15934712D02*
X9082786Y-15763284D01*
X9339929Y-15963284D02*
X9339929Y-15763284D01*
X9339929Y-15763284D02*
X9406596Y-15906141D01*
X9406596Y-15906141D02*
X9473263Y-15763284D01*
X9473263Y-15763284D02*
X9473263Y-15963284D01*
X9654215Y-15963284D02*
X9654215Y-15858522D01*
X9654215Y-15858522D02*
X9644691Y-15839474D01*
X9644691Y-15839474D02*
X9625644Y-15829950D01*
X9625644Y-15829950D02*
X9587548Y-15829950D01*
X9587548Y-15829950D02*
X9568501Y-15839474D01*
X9654215Y-15953760D02*
X9635167Y-15963284D01*
X9635167Y-15963284D02*
X9587548Y-15963284D01*
X9587548Y-15963284D02*
X9568501Y-15953760D01*
X9568501Y-15953760D02*
X9558977Y-15934712D01*
X9558977Y-15934712D02*
X9558977Y-15915665D01*
X9558977Y-15915665D02*
X9568501Y-15896617D01*
X9568501Y-15896617D02*
X9587548Y-15887093D01*
X9587548Y-15887093D02*
X9635167Y-15887093D01*
X9635167Y-15887093D02*
X9654215Y-15877569D01*
X9749453Y-15829950D02*
X9749453Y-16029950D01*
X9749453Y-15839474D02*
X9768501Y-15829950D01*
X9768501Y-15829950D02*
X9806596Y-15829950D01*
X9806596Y-15829950D02*
X9825644Y-15839474D01*
X9825644Y-15839474D02*
X9835167Y-15848998D01*
X9835167Y-15848998D02*
X9844691Y-15868046D01*
X9844691Y-15868046D02*
X9844691Y-15925188D01*
X9844691Y-15925188D02*
X9835167Y-15944236D01*
X9835167Y-15944236D02*
X9825644Y-15953760D01*
X9825644Y-15953760D02*
X9806596Y-15963284D01*
X9806596Y-15963284D02*
X9768501Y-15963284D01*
X9768501Y-15963284D02*
X9749453Y-15953760D01*
X9930405Y-15944236D02*
X9939929Y-15953760D01*
X9939929Y-15953760D02*
X9930405Y-15963284D01*
X9930405Y-15963284D02*
X9920882Y-15953760D01*
X9920882Y-15953760D02*
X9930405Y-15944236D01*
X9930405Y-15944236D02*
X9930405Y-15963284D01*
X9930405Y-15839474D02*
X9939929Y-15848998D01*
X9939929Y-15848998D02*
X9930405Y-15858522D01*
X9930405Y-15858522D02*
X9920882Y-15848998D01*
X9920882Y-15848998D02*
X9930405Y-15839474D01*
X9930405Y-15839474D02*
X9930405Y-15858522D01*
D10*
X8199140Y-16242270D02*
X8298200Y-16341330D01*
X8298200Y-16242270D02*
X8199140Y-16341330D01*
D11*
X8597072Y-16183284D02*
X8616120Y-16183284D01*
X8616120Y-16183284D02*
X8635167Y-16192808D01*
X8635167Y-16192808D02*
X8644691Y-16202331D01*
X8644691Y-16202331D02*
X8654215Y-16221379D01*
X8654215Y-16221379D02*
X8663739Y-16259474D01*
X8663739Y-16259474D02*
X8663739Y-16307093D01*
X8663739Y-16307093D02*
X8654215Y-16345188D01*
X8654215Y-16345188D02*
X8644691Y-16364236D01*
X8644691Y-16364236D02*
X8635167Y-16373760D01*
X8635167Y-16373760D02*
X8616120Y-16383284D01*
X8616120Y-16383284D02*
X8597072Y-16383284D01*
X8597072Y-16383284D02*
X8578024Y-16373760D01*
X8578024Y-16373760D02*
X8568501Y-16364236D01*
X8568501Y-16364236D02*
X8558977Y-16345188D01*
X8558977Y-16345188D02*
X8549453Y-16307093D01*
X8549453Y-16307093D02*
X8549453Y-16259474D01*
X8549453Y-16259474D02*
X8558977Y-16221379D01*
X8558977Y-16221379D02*
X8568501Y-16202331D01*
X8568501Y-16202331D02*
X8578024Y-16192808D01*
X8578024Y-16192808D02*
X8597072Y-16183284D01*
X8749453Y-16364236D02*
X8758977Y-16373760D01*
X8758977Y-16373760D02*
X8749453Y-16383284D01*
X8749453Y-16383284D02*
X8739929Y-16373760D01*
X8739929Y-16373760D02*
X8749453Y-16364236D01*
X8749453Y-16364236D02*
X8749453Y-16383284D01*
X8854215Y-16383284D02*
X8892310Y-16383284D01*
X8892310Y-16383284D02*
X8911358Y-16373760D01*
X8911358Y-16373760D02*
X8920882Y-16364236D01*
X8920882Y-16364236D02*
X8939929Y-16335665D01*
X8939929Y-16335665D02*
X8949453Y-16297569D01*
X8949453Y-16297569D02*
X8949453Y-16221379D01*
X8949453Y-16221379D02*
X8939929Y-16202331D01*
X8939929Y-16202331D02*
X8930405Y-16192808D01*
X8930405Y-16192808D02*
X8911358Y-16183284D01*
X8911358Y-16183284D02*
X8873263Y-16183284D01*
X8873263Y-16183284D02*
X8854215Y-16192808D01*
X8854215Y-16192808D02*
X8844691Y-16202331D01*
X8844691Y-16202331D02*
X8835167Y-16221379D01*
X8835167Y-16221379D02*
X8835167Y-16268998D01*
X8835167Y-16268998D02*
X8844691Y-16288046D01*
X8844691Y-16288046D02*
X8854215Y-16297569D01*
X8854215Y-16297569D02*
X8873263Y-16307093D01*
X8873263Y-16307093D02*
X8911358Y-16307093D01*
X8911358Y-16307093D02*
X8930405Y-16297569D01*
X8930405Y-16297569D02*
X8939929Y-16288046D01*
X8939929Y-16288046D02*
X8949453Y-16268998D01*
X9044691Y-16383284D02*
X9082786Y-16383284D01*
X9082786Y-16383284D02*
X9101834Y-16373760D01*
X9101834Y-16373760D02*
X9111358Y-16364236D01*
X9111358Y-16364236D02*
X9130405Y-16335665D01*
X9130405Y-16335665D02*
X9139929Y-16297569D01*
X9139929Y-16297569D02*
X9139929Y-16221379D01*
X9139929Y-16221379D02*
X9130405Y-16202331D01*
X9130405Y-16202331D02*
X9120882Y-16192808D01*
X9120882Y-16192808D02*
X9101834Y-16183284D01*
X9101834Y-16183284D02*
X9063739Y-16183284D01*
X9063739Y-16183284D02*
X9044691Y-16192808D01*
X9044691Y-16192808D02*
X9035167Y-16202331D01*
X9035167Y-16202331D02*
X9025644Y-16221379D01*
X9025644Y-16221379D02*
X9025644Y-16268998D01*
X9025644Y-16268998D02*
X9035167Y-16288046D01*
X9035167Y-16288046D02*
X9044691Y-16297569D01*
X9044691Y-16297569D02*
X9063739Y-16307093D01*
X9063739Y-16307093D02*
X9101834Y-16307093D01*
X9101834Y-16307093D02*
X9120882Y-16297569D01*
X9120882Y-16297569D02*
X9130405Y-16288046D01*
X9130405Y-16288046D02*
X9139929Y-16268998D01*
X9330405Y-16383284D02*
X9216120Y-16383284D01*
X9273263Y-16383284D02*
X9273263Y-16183284D01*
X9273263Y-16183284D02*
X9254215Y-16211855D01*
X9254215Y-16211855D02*
X9235167Y-16230903D01*
X9235167Y-16230903D02*
X9216120Y-16240427D01*
X9416120Y-16383284D02*
X9416120Y-16249950D01*
X9416120Y-16268998D02*
X9425644Y-16259474D01*
X9425644Y-16259474D02*
X9444691Y-16249950D01*
X9444691Y-16249950D02*
X9473263Y-16249950D01*
X9473263Y-16249950D02*
X9492310Y-16259474D01*
X9492310Y-16259474D02*
X9501834Y-16278522D01*
X9501834Y-16278522D02*
X9501834Y-16383284D01*
X9501834Y-16278522D02*
X9511358Y-16259474D01*
X9511358Y-16259474D02*
X9530405Y-16249950D01*
X9530405Y-16249950D02*
X9558977Y-16249950D01*
X9558977Y-16249950D02*
X9578025Y-16259474D01*
X9578025Y-16259474D02*
X9587548Y-16278522D01*
X9587548Y-16278522D02*
X9587548Y-16383284D01*
X9682786Y-16383284D02*
X9682786Y-16249950D01*
X9682786Y-16268998D02*
X9692310Y-16259474D01*
X9692310Y-16259474D02*
X9711358Y-16249950D01*
X9711358Y-16249950D02*
X9739929Y-16249950D01*
X9739929Y-16249950D02*
X9758977Y-16259474D01*
X9758977Y-16259474D02*
X9768501Y-16278522D01*
X9768501Y-16278522D02*
X9768501Y-16383284D01*
X9768501Y-16278522D02*
X9778025Y-16259474D01*
X9778025Y-16259474D02*
X9797072Y-16249950D01*
X9797072Y-16249950D02*
X9825644Y-16249950D01*
X9825644Y-16249950D02*
X9844691Y-16259474D01*
X9844691Y-16259474D02*
X9854215Y-16278522D01*
X9854215Y-16278522D02*
X9854215Y-16383284D01*
X10244691Y-16173760D02*
X10073263Y-16430903D01*
X10501834Y-16183284D02*
X10520882Y-16183284D01*
X10520882Y-16183284D02*
X10539929Y-16192808D01*
X10539929Y-16192808D02*
X10549453Y-16202331D01*
X10549453Y-16202331D02*
X10558977Y-16221379D01*
X10558977Y-16221379D02*
X10568501Y-16259474D01*
X10568501Y-16259474D02*
X10568501Y-16307093D01*
X10568501Y-16307093D02*
X10558977Y-16345188D01*
X10558977Y-16345188D02*
X10549453Y-16364236D01*
X10549453Y-16364236D02*
X10539929Y-16373760D01*
X10539929Y-16373760D02*
X10520882Y-16383284D01*
X10520882Y-16383284D02*
X10501834Y-16383284D01*
X10501834Y-16383284D02*
X10482787Y-16373760D01*
X10482787Y-16373760D02*
X10473263Y-16364236D01*
X10473263Y-16364236D02*
X10463739Y-16345188D01*
X10463739Y-16345188D02*
X10454215Y-16307093D01*
X10454215Y-16307093D02*
X10454215Y-16259474D01*
X10454215Y-16259474D02*
X10463739Y-16221379D01*
X10463739Y-16221379D02*
X10473263Y-16202331D01*
X10473263Y-16202331D02*
X10482787Y-16192808D01*
X10482787Y-16192808D02*
X10501834Y-16183284D01*
X10654215Y-16364236D02*
X10663739Y-16373760D01*
X10663739Y-16373760D02*
X10654215Y-16383284D01*
X10654215Y-16383284D02*
X10644691Y-16373760D01*
X10644691Y-16373760D02*
X10654215Y-16364236D01*
X10654215Y-16364236D02*
X10654215Y-16383284D01*
X10787548Y-16183284D02*
X10806596Y-16183284D01*
X10806596Y-16183284D02*
X10825644Y-16192808D01*
X10825644Y-16192808D02*
X10835168Y-16202331D01*
X10835168Y-16202331D02*
X10844691Y-16221379D01*
X10844691Y-16221379D02*
X10854215Y-16259474D01*
X10854215Y-16259474D02*
X10854215Y-16307093D01*
X10854215Y-16307093D02*
X10844691Y-16345188D01*
X10844691Y-16345188D02*
X10835168Y-16364236D01*
X10835168Y-16364236D02*
X10825644Y-16373760D01*
X10825644Y-16373760D02*
X10806596Y-16383284D01*
X10806596Y-16383284D02*
X10787548Y-16383284D01*
X10787548Y-16383284D02*
X10768501Y-16373760D01*
X10768501Y-16373760D02*
X10758977Y-16364236D01*
X10758977Y-16364236D02*
X10749453Y-16345188D01*
X10749453Y-16345188D02*
X10739929Y-16307093D01*
X10739929Y-16307093D02*
X10739929Y-16259474D01*
X10739929Y-16259474D02*
X10749453Y-16221379D01*
X10749453Y-16221379D02*
X10758977Y-16202331D01*
X10758977Y-16202331D02*
X10768501Y-16192808D01*
X10768501Y-16192808D02*
X10787548Y-16183284D01*
X10920882Y-16183284D02*
X11044691Y-16183284D01*
X11044691Y-16183284D02*
X10978025Y-16259474D01*
X10978025Y-16259474D02*
X11006596Y-16259474D01*
X11006596Y-16259474D02*
X11025644Y-16268998D01*
X11025644Y-16268998D02*
X11035168Y-16278522D01*
X11035168Y-16278522D02*
X11044691Y-16297569D01*
X11044691Y-16297569D02*
X11044691Y-16345188D01*
X11044691Y-16345188D02*
X11035168Y-16364236D01*
X11035168Y-16364236D02*
X11025644Y-16373760D01*
X11025644Y-16373760D02*
X11006596Y-16383284D01*
X11006596Y-16383284D02*
X10949453Y-16383284D01*
X10949453Y-16383284D02*
X10930406Y-16373760D01*
X10930406Y-16373760D02*
X10920882Y-16364236D01*
X11139929Y-16383284D02*
X11178025Y-16383284D01*
X11178025Y-16383284D02*
X11197072Y-16373760D01*
X11197072Y-16373760D02*
X11206596Y-16364236D01*
X11206596Y-16364236D02*
X11225644Y-16335665D01*
X11225644Y-16335665D02*
X11235167Y-16297569D01*
X11235167Y-16297569D02*
X11235167Y-16221379D01*
X11235167Y-16221379D02*
X11225644Y-16202331D01*
X11225644Y-16202331D02*
X11216120Y-16192808D01*
X11216120Y-16192808D02*
X11197072Y-16183284D01*
X11197072Y-16183284D02*
X11158977Y-16183284D01*
X11158977Y-16183284D02*
X11139929Y-16192808D01*
X11139929Y-16192808D02*
X11130406Y-16202331D01*
X11130406Y-16202331D02*
X11120882Y-16221379D01*
X11120882Y-16221379D02*
X11120882Y-16268998D01*
X11120882Y-16268998D02*
X11130406Y-16288046D01*
X11130406Y-16288046D02*
X11139929Y-16297569D01*
X11139929Y-16297569D02*
X11158977Y-16307093D01*
X11158977Y-16307093D02*
X11197072Y-16307093D01*
X11197072Y-16307093D02*
X11216120Y-16297569D01*
X11216120Y-16297569D02*
X11225644Y-16288046D01*
X11225644Y-16288046D02*
X11235167Y-16268998D01*
X11358977Y-16183284D02*
X11378025Y-16183284D01*
X11378025Y-16183284D02*
X11397072Y-16192808D01*
X11397072Y-16192808D02*
X11406596Y-16202331D01*
X11406596Y-16202331D02*
X11416120Y-16221379D01*
X11416120Y-16221379D02*
X11425644Y-16259474D01*
X11425644Y-16259474D02*
X11425644Y-16307093D01*
X11425644Y-16307093D02*
X11416120Y-16345188D01*
X11416120Y-16345188D02*
X11406596Y-16364236D01*
X11406596Y-16364236D02*
X11397072Y-16373760D01*
X11397072Y-16373760D02*
X11378025Y-16383284D01*
X11378025Y-16383284D02*
X11358977Y-16383284D01*
X11358977Y-16383284D02*
X11339929Y-16373760D01*
X11339929Y-16373760D02*
X11330406Y-16364236D01*
X11330406Y-16364236D02*
X11320882Y-16345188D01*
X11320882Y-16345188D02*
X11311358Y-16307093D01*
X11311358Y-16307093D02*
X11311358Y-16259474D01*
X11311358Y-16259474D02*
X11320882Y-16221379D01*
X11320882Y-16221379D02*
X11330406Y-16202331D01*
X11330406Y-16202331D02*
X11339929Y-16192808D01*
X11339929Y-16192808D02*
X11358977Y-16183284D01*
X11501834Y-16183284D02*
X11501834Y-16221379D01*
X11578025Y-16183284D02*
X11578025Y-16221379D01*
X11873263Y-16459474D02*
X11863739Y-16449950D01*
X11863739Y-16449950D02*
X11844691Y-16421379D01*
X11844691Y-16421379D02*
X11835168Y-16402331D01*
X11835168Y-16402331D02*
X11825644Y-16373760D01*
X11825644Y-16373760D02*
X11816120Y-16326141D01*
X11816120Y-16326141D02*
X11816120Y-16288046D01*
X11816120Y-16288046D02*
X11825644Y-16240427D01*
X11825644Y-16240427D02*
X11835168Y-16211855D01*
X11835168Y-16211855D02*
X11844691Y-16192808D01*
X11844691Y-16192808D02*
X11863739Y-16164236D01*
X11863739Y-16164236D02*
X11873263Y-16154712D01*
X11930406Y-16183284D02*
X12054215Y-16183284D01*
X12054215Y-16183284D02*
X11987548Y-16259474D01*
X11987548Y-16259474D02*
X12016120Y-16259474D01*
X12016120Y-16259474D02*
X12035168Y-16268998D01*
X12035168Y-16268998D02*
X12044691Y-16278522D01*
X12044691Y-16278522D02*
X12054215Y-16297569D01*
X12054215Y-16297569D02*
X12054215Y-16345188D01*
X12054215Y-16345188D02*
X12044691Y-16364236D01*
X12044691Y-16364236D02*
X12035168Y-16373760D01*
X12035168Y-16373760D02*
X12016120Y-16383284D01*
X12016120Y-16383284D02*
X11958977Y-16383284D01*
X11958977Y-16383284D02*
X11939929Y-16373760D01*
X11939929Y-16373760D02*
X11930406Y-16364236D01*
X12292310Y-16383284D02*
X12292310Y-16183284D01*
X12378025Y-16383284D02*
X12378025Y-16278522D01*
X12378025Y-16278522D02*
X12368501Y-16259474D01*
X12368501Y-16259474D02*
X12349453Y-16249950D01*
X12349453Y-16249950D02*
X12320882Y-16249950D01*
X12320882Y-16249950D02*
X12301834Y-16259474D01*
X12301834Y-16259474D02*
X12292310Y-16268998D01*
X12501834Y-16383284D02*
X12482787Y-16373760D01*
X12482787Y-16373760D02*
X12473263Y-16364236D01*
X12473263Y-16364236D02*
X12463739Y-16345188D01*
X12463739Y-16345188D02*
X12463739Y-16288046D01*
X12463739Y-16288046D02*
X12473263Y-16268998D01*
X12473263Y-16268998D02*
X12482787Y-16259474D01*
X12482787Y-16259474D02*
X12501834Y-16249950D01*
X12501834Y-16249950D02*
X12530406Y-16249950D01*
X12530406Y-16249950D02*
X12549453Y-16259474D01*
X12549453Y-16259474D02*
X12558977Y-16268998D01*
X12558977Y-16268998D02*
X12568501Y-16288046D01*
X12568501Y-16288046D02*
X12568501Y-16345188D01*
X12568501Y-16345188D02*
X12558977Y-16364236D01*
X12558977Y-16364236D02*
X12549453Y-16373760D01*
X12549453Y-16373760D02*
X12530406Y-16383284D01*
X12530406Y-16383284D02*
X12501834Y-16383284D01*
X12682787Y-16383284D02*
X12663739Y-16373760D01*
X12663739Y-16373760D02*
X12654215Y-16354712D01*
X12654215Y-16354712D02*
X12654215Y-16183284D01*
X12835168Y-16373760D02*
X12816120Y-16383284D01*
X12816120Y-16383284D02*
X12778025Y-16383284D01*
X12778025Y-16383284D02*
X12758977Y-16373760D01*
X12758977Y-16373760D02*
X12749453Y-16354712D01*
X12749453Y-16354712D02*
X12749453Y-16278522D01*
X12749453Y-16278522D02*
X12758977Y-16259474D01*
X12758977Y-16259474D02*
X12778025Y-16249950D01*
X12778025Y-16249950D02*
X12816120Y-16249950D01*
X12816120Y-16249950D02*
X12835168Y-16259474D01*
X12835168Y-16259474D02*
X12844691Y-16278522D01*
X12844691Y-16278522D02*
X12844691Y-16297569D01*
X12844691Y-16297569D02*
X12749453Y-16316617D01*
X12920882Y-16373760D02*
X12939930Y-16383284D01*
X12939930Y-16383284D02*
X12978025Y-16383284D01*
X12978025Y-16383284D02*
X12997072Y-16373760D01*
X12997072Y-16373760D02*
X13006596Y-16354712D01*
X13006596Y-16354712D02*
X13006596Y-16345188D01*
X13006596Y-16345188D02*
X12997072Y-16326141D01*
X12997072Y-16326141D02*
X12978025Y-16316617D01*
X12978025Y-16316617D02*
X12949453Y-16316617D01*
X12949453Y-16316617D02*
X12930406Y-16307093D01*
X12930406Y-16307093D02*
X12920882Y-16288046D01*
X12920882Y-16288046D02*
X12920882Y-16278522D01*
X12920882Y-16278522D02*
X12930406Y-16259474D01*
X12930406Y-16259474D02*
X12949453Y-16249950D01*
X12949453Y-16249950D02*
X12978025Y-16249950D01*
X12978025Y-16249950D02*
X12997072Y-16259474D01*
X13073263Y-16459474D02*
X13082787Y-16449950D01*
X13082787Y-16449950D02*
X13101834Y-16421379D01*
X13101834Y-16421379D02*
X13111358Y-16402331D01*
X13111358Y-16402331D02*
X13120882Y-16373760D01*
X13120882Y-16373760D02*
X13130406Y-16326141D01*
X13130406Y-16326141D02*
X13130406Y-16288046D01*
X13130406Y-16288046D02*
X13120882Y-16240427D01*
X13120882Y-16240427D02*
X13111358Y-16211855D01*
X13111358Y-16211855D02*
X13101834Y-16192808D01*
X13101834Y-16192808D02*
X13082787Y-16164236D01*
X13082787Y-16164236D02*
X13073263Y-16154712D01*
X13435168Y-16459474D02*
X13425644Y-16449950D01*
X13425644Y-16449950D02*
X13406596Y-16421379D01*
X13406596Y-16421379D02*
X13397072Y-16402331D01*
X13397072Y-16402331D02*
X13387549Y-16373760D01*
X13387549Y-16373760D02*
X13378025Y-16326141D01*
X13378025Y-16326141D02*
X13378025Y-16288046D01*
X13378025Y-16288046D02*
X13387549Y-16240427D01*
X13387549Y-16240427D02*
X13397072Y-16211855D01*
X13397072Y-16211855D02*
X13406596Y-16192808D01*
X13406596Y-16192808D02*
X13425644Y-16164236D01*
X13425644Y-16164236D02*
X13435168Y-16154712D01*
X13511358Y-16249950D02*
X13511358Y-16383284D01*
X13511358Y-16268998D02*
X13520882Y-16259474D01*
X13520882Y-16259474D02*
X13539930Y-16249950D01*
X13539930Y-16249950D02*
X13568501Y-16249950D01*
X13568501Y-16249950D02*
X13587549Y-16259474D01*
X13587549Y-16259474D02*
X13597072Y-16278522D01*
X13597072Y-16278522D02*
X13597072Y-16383284D01*
X13720882Y-16383284D02*
X13701834Y-16373760D01*
X13701834Y-16373760D02*
X13692311Y-16364236D01*
X13692311Y-16364236D02*
X13682787Y-16345188D01*
X13682787Y-16345188D02*
X13682787Y-16288046D01*
X13682787Y-16288046D02*
X13692311Y-16268998D01*
X13692311Y-16268998D02*
X13701834Y-16259474D01*
X13701834Y-16259474D02*
X13720882Y-16249950D01*
X13720882Y-16249950D02*
X13749453Y-16249950D01*
X13749453Y-16249950D02*
X13768501Y-16259474D01*
X13768501Y-16259474D02*
X13778025Y-16268998D01*
X13778025Y-16268998D02*
X13787549Y-16288046D01*
X13787549Y-16288046D02*
X13787549Y-16345188D01*
X13787549Y-16345188D02*
X13778025Y-16364236D01*
X13778025Y-16364236D02*
X13768501Y-16373760D01*
X13768501Y-16373760D02*
X13749453Y-16383284D01*
X13749453Y-16383284D02*
X13720882Y-16383284D01*
X13844692Y-16249950D02*
X13920882Y-16249950D01*
X13873263Y-16183284D02*
X13873263Y-16354712D01*
X13873263Y-16354712D02*
X13882787Y-16373760D01*
X13882787Y-16373760D02*
X13901834Y-16383284D01*
X13901834Y-16383284D02*
X13920882Y-16383284D01*
X14139930Y-16249950D02*
X14139930Y-16449950D01*
X14139930Y-16259474D02*
X14158977Y-16249950D01*
X14158977Y-16249950D02*
X14197073Y-16249950D01*
X14197073Y-16249950D02*
X14216120Y-16259474D01*
X14216120Y-16259474D02*
X14225644Y-16268998D01*
X14225644Y-16268998D02*
X14235168Y-16288046D01*
X14235168Y-16288046D02*
X14235168Y-16345188D01*
X14235168Y-16345188D02*
X14225644Y-16364236D01*
X14225644Y-16364236D02*
X14216120Y-16373760D01*
X14216120Y-16373760D02*
X14197073Y-16383284D01*
X14197073Y-16383284D02*
X14158977Y-16383284D01*
X14158977Y-16383284D02*
X14139930Y-16373760D01*
X14349453Y-16383284D02*
X14330406Y-16373760D01*
X14330406Y-16373760D02*
X14320882Y-16354712D01*
X14320882Y-16354712D02*
X14320882Y-16183284D01*
X14511358Y-16383284D02*
X14511358Y-16278522D01*
X14511358Y-16278522D02*
X14501834Y-16259474D01*
X14501834Y-16259474D02*
X14482787Y-16249950D01*
X14482787Y-16249950D02*
X14444692Y-16249950D01*
X14444692Y-16249950D02*
X14425644Y-16259474D01*
X14511358Y-16373760D02*
X14492311Y-16383284D01*
X14492311Y-16383284D02*
X14444692Y-16383284D01*
X14444692Y-16383284D02*
X14425644Y-16373760D01*
X14425644Y-16373760D02*
X14416120Y-16354712D01*
X14416120Y-16354712D02*
X14416120Y-16335665D01*
X14416120Y-16335665D02*
X14425644Y-16316617D01*
X14425644Y-16316617D02*
X14444692Y-16307093D01*
X14444692Y-16307093D02*
X14492311Y-16307093D01*
X14492311Y-16307093D02*
X14511358Y-16297569D01*
X14578025Y-16249950D02*
X14654215Y-16249950D01*
X14606596Y-16183284D02*
X14606596Y-16354712D01*
X14606596Y-16354712D02*
X14616120Y-16373760D01*
X14616120Y-16373760D02*
X14635168Y-16383284D01*
X14635168Y-16383284D02*
X14654215Y-16383284D01*
X14797073Y-16373760D02*
X14778025Y-16383284D01*
X14778025Y-16383284D02*
X14739930Y-16383284D01*
X14739930Y-16383284D02*
X14720882Y-16373760D01*
X14720882Y-16373760D02*
X14711358Y-16354712D01*
X14711358Y-16354712D02*
X14711358Y-16278522D01*
X14711358Y-16278522D02*
X14720882Y-16259474D01*
X14720882Y-16259474D02*
X14739930Y-16249950D01*
X14739930Y-16249950D02*
X14778025Y-16249950D01*
X14778025Y-16249950D02*
X14797073Y-16259474D01*
X14797073Y-16259474D02*
X14806596Y-16278522D01*
X14806596Y-16278522D02*
X14806596Y-16297569D01*
X14806596Y-16297569D02*
X14711358Y-16316617D01*
X14978025Y-16383284D02*
X14978025Y-16183284D01*
X14978025Y-16373760D02*
X14958977Y-16383284D01*
X14958977Y-16383284D02*
X14920882Y-16383284D01*
X14920882Y-16383284D02*
X14901834Y-16373760D01*
X14901834Y-16373760D02*
X14892311Y-16364236D01*
X14892311Y-16364236D02*
X14882787Y-16345188D01*
X14882787Y-16345188D02*
X14882787Y-16288046D01*
X14882787Y-16288046D02*
X14892311Y-16268998D01*
X14892311Y-16268998D02*
X14901834Y-16259474D01*
X14901834Y-16259474D02*
X14920882Y-16249950D01*
X14920882Y-16249950D02*
X14958977Y-16249950D01*
X14958977Y-16249950D02*
X14978025Y-16259474D01*
X15054215Y-16459474D02*
X15063739Y-16449950D01*
X15063739Y-16449950D02*
X15082787Y-16421379D01*
X15082787Y-16421379D02*
X15092311Y-16402331D01*
X15092311Y-16402331D02*
X15101834Y-16373760D01*
X15101834Y-16373760D02*
X15111358Y-16326141D01*
X15111358Y-16326141D02*
X15111358Y-16288046D01*
X15111358Y-16288046D02*
X15101834Y-16240427D01*
X15101834Y-16240427D02*
X15092311Y-16211855D01*
X15092311Y-16211855D02*
X15082787Y-16192808D01*
X15082787Y-16192808D02*
X15063739Y-16164236D01*
X15063739Y-16164236D02*
X15054215Y-16154712D01*
X8298200Y-16555800D02*
G75*
G03*
X8098200Y-16555800I-100000J0D01*
G01*
X8098200Y-16555800D02*
G75*
G03*
X8298200Y-16555800I100000J0D01*
G01*
X8539929Y-16447284D02*
X8663739Y-16447284D01*
X8663739Y-16447284D02*
X8597072Y-16523474D01*
X8597072Y-16523474D02*
X8625644Y-16523474D01*
X8625644Y-16523474D02*
X8644691Y-16532998D01*
X8644691Y-16532998D02*
X8654215Y-16542522D01*
X8654215Y-16542522D02*
X8663739Y-16561569D01*
X8663739Y-16561569D02*
X8663739Y-16609188D01*
X8663739Y-16609188D02*
X8654215Y-16628236D01*
X8654215Y-16628236D02*
X8644691Y-16637760D01*
X8644691Y-16637760D02*
X8625644Y-16647284D01*
X8625644Y-16647284D02*
X8568501Y-16647284D01*
X8568501Y-16647284D02*
X8549453Y-16637760D01*
X8549453Y-16637760D02*
X8539929Y-16628236D01*
X8749453Y-16628236D02*
X8758977Y-16637760D01*
X8758977Y-16637760D02*
X8749453Y-16647284D01*
X8749453Y-16647284D02*
X8739929Y-16637760D01*
X8739929Y-16637760D02*
X8749453Y-16628236D01*
X8749453Y-16628236D02*
X8749453Y-16647284D01*
X8835167Y-16466331D02*
X8844691Y-16456808D01*
X8844691Y-16456808D02*
X8863739Y-16447284D01*
X8863739Y-16447284D02*
X8911358Y-16447284D01*
X8911358Y-16447284D02*
X8930405Y-16456808D01*
X8930405Y-16456808D02*
X8939929Y-16466331D01*
X8939929Y-16466331D02*
X8949453Y-16485379D01*
X8949453Y-16485379D02*
X8949453Y-16504427D01*
X8949453Y-16504427D02*
X8939929Y-16532998D01*
X8939929Y-16532998D02*
X8825644Y-16647284D01*
X8825644Y-16647284D02*
X8949453Y-16647284D01*
X9073263Y-16447284D02*
X9092310Y-16447284D01*
X9092310Y-16447284D02*
X9111358Y-16456808D01*
X9111358Y-16456808D02*
X9120882Y-16466331D01*
X9120882Y-16466331D02*
X9130405Y-16485379D01*
X9130405Y-16485379D02*
X9139929Y-16523474D01*
X9139929Y-16523474D02*
X9139929Y-16571093D01*
X9139929Y-16571093D02*
X9130405Y-16609188D01*
X9130405Y-16609188D02*
X9120882Y-16628236D01*
X9120882Y-16628236D02*
X9111358Y-16637760D01*
X9111358Y-16637760D02*
X9092310Y-16647284D01*
X9092310Y-16647284D02*
X9073263Y-16647284D01*
X9073263Y-16647284D02*
X9054215Y-16637760D01*
X9054215Y-16637760D02*
X9044691Y-16628236D01*
X9044691Y-16628236D02*
X9035167Y-16609188D01*
X9035167Y-16609188D02*
X9025644Y-16571093D01*
X9025644Y-16571093D02*
X9025644Y-16523474D01*
X9025644Y-16523474D02*
X9035167Y-16485379D01*
X9035167Y-16485379D02*
X9044691Y-16466331D01*
X9044691Y-16466331D02*
X9054215Y-16456808D01*
X9054215Y-16456808D02*
X9073263Y-16447284D01*
X9263739Y-16447284D02*
X9282786Y-16447284D01*
X9282786Y-16447284D02*
X9301834Y-16456808D01*
X9301834Y-16456808D02*
X9311358Y-16466331D01*
X9311358Y-16466331D02*
X9320882Y-16485379D01*
X9320882Y-16485379D02*
X9330405Y-16523474D01*
X9330405Y-16523474D02*
X9330405Y-16571093D01*
X9330405Y-16571093D02*
X9320882Y-16609188D01*
X9320882Y-16609188D02*
X9311358Y-16628236D01*
X9311358Y-16628236D02*
X9301834Y-16637760D01*
X9301834Y-16637760D02*
X9282786Y-16647284D01*
X9282786Y-16647284D02*
X9263739Y-16647284D01*
X9263739Y-16647284D02*
X9244691Y-16637760D01*
X9244691Y-16637760D02*
X9235167Y-16628236D01*
X9235167Y-16628236D02*
X9225644Y-16609188D01*
X9225644Y-16609188D02*
X9216120Y-16571093D01*
X9216120Y-16571093D02*
X9216120Y-16523474D01*
X9216120Y-16523474D02*
X9225644Y-16485379D01*
X9225644Y-16485379D02*
X9235167Y-16466331D01*
X9235167Y-16466331D02*
X9244691Y-16456808D01*
X9244691Y-16456808D02*
X9263739Y-16447284D01*
X9416120Y-16647284D02*
X9416120Y-16513950D01*
X9416120Y-16532998D02*
X9425644Y-16523474D01*
X9425644Y-16523474D02*
X9444691Y-16513950D01*
X9444691Y-16513950D02*
X9473263Y-16513950D01*
X9473263Y-16513950D02*
X9492310Y-16523474D01*
X9492310Y-16523474D02*
X9501834Y-16542522D01*
X9501834Y-16542522D02*
X9501834Y-16647284D01*
X9501834Y-16542522D02*
X9511358Y-16523474D01*
X9511358Y-16523474D02*
X9530405Y-16513950D01*
X9530405Y-16513950D02*
X9558977Y-16513950D01*
X9558977Y-16513950D02*
X9578025Y-16523474D01*
X9578025Y-16523474D02*
X9587548Y-16542522D01*
X9587548Y-16542522D02*
X9587548Y-16647284D01*
X9682786Y-16647284D02*
X9682786Y-16513950D01*
X9682786Y-16532998D02*
X9692310Y-16523474D01*
X9692310Y-16523474D02*
X9711358Y-16513950D01*
X9711358Y-16513950D02*
X9739929Y-16513950D01*
X9739929Y-16513950D02*
X9758977Y-16523474D01*
X9758977Y-16523474D02*
X9768501Y-16542522D01*
X9768501Y-16542522D02*
X9768501Y-16647284D01*
X9768501Y-16542522D02*
X9778025Y-16523474D01*
X9778025Y-16523474D02*
X9797072Y-16513950D01*
X9797072Y-16513950D02*
X9825644Y-16513950D01*
X9825644Y-16513950D02*
X9844691Y-16523474D01*
X9844691Y-16523474D02*
X9854215Y-16542522D01*
X9854215Y-16542522D02*
X9854215Y-16647284D01*
X10244691Y-16437760D02*
X10073263Y-16694903D01*
X10501834Y-16447284D02*
X10520882Y-16447284D01*
X10520882Y-16447284D02*
X10539929Y-16456808D01*
X10539929Y-16456808D02*
X10549453Y-16466331D01*
X10549453Y-16466331D02*
X10558977Y-16485379D01*
X10558977Y-16485379D02*
X10568501Y-16523474D01*
X10568501Y-16523474D02*
X10568501Y-16571093D01*
X10568501Y-16571093D02*
X10558977Y-16609188D01*
X10558977Y-16609188D02*
X10549453Y-16628236D01*
X10549453Y-16628236D02*
X10539929Y-16637760D01*
X10539929Y-16637760D02*
X10520882Y-16647284D01*
X10520882Y-16647284D02*
X10501834Y-16647284D01*
X10501834Y-16647284D02*
X10482787Y-16637760D01*
X10482787Y-16637760D02*
X10473263Y-16628236D01*
X10473263Y-16628236D02*
X10463739Y-16609188D01*
X10463739Y-16609188D02*
X10454215Y-16571093D01*
X10454215Y-16571093D02*
X10454215Y-16523474D01*
X10454215Y-16523474D02*
X10463739Y-16485379D01*
X10463739Y-16485379D02*
X10473263Y-16466331D01*
X10473263Y-16466331D02*
X10482787Y-16456808D01*
X10482787Y-16456808D02*
X10501834Y-16447284D01*
X10654215Y-16628236D02*
X10663739Y-16637760D01*
X10663739Y-16637760D02*
X10654215Y-16647284D01*
X10654215Y-16647284D02*
X10644691Y-16637760D01*
X10644691Y-16637760D02*
X10654215Y-16628236D01*
X10654215Y-16628236D02*
X10654215Y-16647284D01*
X10854215Y-16647284D02*
X10739929Y-16647284D01*
X10797072Y-16647284D02*
X10797072Y-16447284D01*
X10797072Y-16447284D02*
X10778025Y-16475855D01*
X10778025Y-16475855D02*
X10758977Y-16494903D01*
X10758977Y-16494903D02*
X10739929Y-16504427D01*
X10930406Y-16466331D02*
X10939929Y-16456808D01*
X10939929Y-16456808D02*
X10958977Y-16447284D01*
X10958977Y-16447284D02*
X11006596Y-16447284D01*
X11006596Y-16447284D02*
X11025644Y-16456808D01*
X11025644Y-16456808D02*
X11035168Y-16466331D01*
X11035168Y-16466331D02*
X11044691Y-16485379D01*
X11044691Y-16485379D02*
X11044691Y-16504427D01*
X11044691Y-16504427D02*
X11035168Y-16532998D01*
X11035168Y-16532998D02*
X10920882Y-16647284D01*
X10920882Y-16647284D02*
X11044691Y-16647284D01*
X11216120Y-16447284D02*
X11178025Y-16447284D01*
X11178025Y-16447284D02*
X11158977Y-16456808D01*
X11158977Y-16456808D02*
X11149453Y-16466331D01*
X11149453Y-16466331D02*
X11130406Y-16494903D01*
X11130406Y-16494903D02*
X11120882Y-16532998D01*
X11120882Y-16532998D02*
X11120882Y-16609188D01*
X11120882Y-16609188D02*
X11130406Y-16628236D01*
X11130406Y-16628236D02*
X11139929Y-16637760D01*
X11139929Y-16637760D02*
X11158977Y-16647284D01*
X11158977Y-16647284D02*
X11197072Y-16647284D01*
X11197072Y-16647284D02*
X11216120Y-16637760D01*
X11216120Y-16637760D02*
X11225644Y-16628236D01*
X11225644Y-16628236D02*
X11235167Y-16609188D01*
X11235167Y-16609188D02*
X11235167Y-16561569D01*
X11235167Y-16561569D02*
X11225644Y-16542522D01*
X11225644Y-16542522D02*
X11216120Y-16532998D01*
X11216120Y-16532998D02*
X11197072Y-16523474D01*
X11197072Y-16523474D02*
X11158977Y-16523474D01*
X11158977Y-16523474D02*
X11139929Y-16532998D01*
X11139929Y-16532998D02*
X11130406Y-16542522D01*
X11130406Y-16542522D02*
X11120882Y-16561569D01*
X11358977Y-16447284D02*
X11378025Y-16447284D01*
X11378025Y-16447284D02*
X11397072Y-16456808D01*
X11397072Y-16456808D02*
X11406596Y-16466331D01*
X11406596Y-16466331D02*
X11416120Y-16485379D01*
X11416120Y-16485379D02*
X11425644Y-16523474D01*
X11425644Y-16523474D02*
X11425644Y-16571093D01*
X11425644Y-16571093D02*
X11416120Y-16609188D01*
X11416120Y-16609188D02*
X11406596Y-16628236D01*
X11406596Y-16628236D02*
X11397072Y-16637760D01*
X11397072Y-16637760D02*
X11378025Y-16647284D01*
X11378025Y-16647284D02*
X11358977Y-16647284D01*
X11358977Y-16647284D02*
X11339929Y-16637760D01*
X11339929Y-16637760D02*
X11330406Y-16628236D01*
X11330406Y-16628236D02*
X11320882Y-16609188D01*
X11320882Y-16609188D02*
X11311358Y-16571093D01*
X11311358Y-16571093D02*
X11311358Y-16523474D01*
X11311358Y-16523474D02*
X11320882Y-16485379D01*
X11320882Y-16485379D02*
X11330406Y-16466331D01*
X11330406Y-16466331D02*
X11339929Y-16456808D01*
X11339929Y-16456808D02*
X11358977Y-16447284D01*
X11501834Y-16447284D02*
X11501834Y-16485379D01*
X11578025Y-16447284D02*
X11578025Y-16485379D01*
X11873263Y-16723474D02*
X11863739Y-16713950D01*
X11863739Y-16713950D02*
X11844691Y-16685379D01*
X11844691Y-16685379D02*
X11835168Y-16666331D01*
X11835168Y-16666331D02*
X11825644Y-16637760D01*
X11825644Y-16637760D02*
X11816120Y-16590141D01*
X11816120Y-16590141D02*
X11816120Y-16552046D01*
X11816120Y-16552046D02*
X11825644Y-16504427D01*
X11825644Y-16504427D02*
X11835168Y-16475855D01*
X11835168Y-16475855D02*
X11844691Y-16456808D01*
X11844691Y-16456808D02*
X11863739Y-16428236D01*
X11863739Y-16428236D02*
X11873263Y-16418712D01*
X11939929Y-16466331D02*
X11949453Y-16456808D01*
X11949453Y-16456808D02*
X11968501Y-16447284D01*
X11968501Y-16447284D02*
X12016120Y-16447284D01*
X12016120Y-16447284D02*
X12035168Y-16456808D01*
X12035168Y-16456808D02*
X12044691Y-16466331D01*
X12044691Y-16466331D02*
X12054215Y-16485379D01*
X12054215Y-16485379D02*
X12054215Y-16504427D01*
X12054215Y-16504427D02*
X12044691Y-16532998D01*
X12044691Y-16532998D02*
X11930406Y-16647284D01*
X11930406Y-16647284D02*
X12054215Y-16647284D01*
X12292310Y-16647284D02*
X12292310Y-16447284D01*
X12378025Y-16647284D02*
X12378025Y-16542522D01*
X12378025Y-16542522D02*
X12368501Y-16523474D01*
X12368501Y-16523474D02*
X12349453Y-16513950D01*
X12349453Y-16513950D02*
X12320882Y-16513950D01*
X12320882Y-16513950D02*
X12301834Y-16523474D01*
X12301834Y-16523474D02*
X12292310Y-16532998D01*
X12501834Y-16647284D02*
X12482787Y-16637760D01*
X12482787Y-16637760D02*
X12473263Y-16628236D01*
X12473263Y-16628236D02*
X12463739Y-16609188D01*
X12463739Y-16609188D02*
X12463739Y-16552046D01*
X12463739Y-16552046D02*
X12473263Y-16532998D01*
X12473263Y-16532998D02*
X12482787Y-16523474D01*
X12482787Y-16523474D02*
X12501834Y-16513950D01*
X12501834Y-16513950D02*
X12530406Y-16513950D01*
X12530406Y-16513950D02*
X12549453Y-16523474D01*
X12549453Y-16523474D02*
X12558977Y-16532998D01*
X12558977Y-16532998D02*
X12568501Y-16552046D01*
X12568501Y-16552046D02*
X12568501Y-16609188D01*
X12568501Y-16609188D02*
X12558977Y-16628236D01*
X12558977Y-16628236D02*
X12549453Y-16637760D01*
X12549453Y-16637760D02*
X12530406Y-16647284D01*
X12530406Y-16647284D02*
X12501834Y-16647284D01*
X12682787Y-16647284D02*
X12663739Y-16637760D01*
X12663739Y-16637760D02*
X12654215Y-16618712D01*
X12654215Y-16618712D02*
X12654215Y-16447284D01*
X12835168Y-16637760D02*
X12816120Y-16647284D01*
X12816120Y-16647284D02*
X12778025Y-16647284D01*
X12778025Y-16647284D02*
X12758977Y-16637760D01*
X12758977Y-16637760D02*
X12749453Y-16618712D01*
X12749453Y-16618712D02*
X12749453Y-16542522D01*
X12749453Y-16542522D02*
X12758977Y-16523474D01*
X12758977Y-16523474D02*
X12778025Y-16513950D01*
X12778025Y-16513950D02*
X12816120Y-16513950D01*
X12816120Y-16513950D02*
X12835168Y-16523474D01*
X12835168Y-16523474D02*
X12844691Y-16542522D01*
X12844691Y-16542522D02*
X12844691Y-16561569D01*
X12844691Y-16561569D02*
X12749453Y-16580617D01*
X12920882Y-16637760D02*
X12939930Y-16647284D01*
X12939930Y-16647284D02*
X12978025Y-16647284D01*
X12978025Y-16647284D02*
X12997072Y-16637760D01*
X12997072Y-16637760D02*
X13006596Y-16618712D01*
X13006596Y-16618712D02*
X13006596Y-16609188D01*
X13006596Y-16609188D02*
X12997072Y-16590141D01*
X12997072Y-16590141D02*
X12978025Y-16580617D01*
X12978025Y-16580617D02*
X12949453Y-16580617D01*
X12949453Y-16580617D02*
X12930406Y-16571093D01*
X12930406Y-16571093D02*
X12920882Y-16552046D01*
X12920882Y-16552046D02*
X12920882Y-16542522D01*
X12920882Y-16542522D02*
X12930406Y-16523474D01*
X12930406Y-16523474D02*
X12949453Y-16513950D01*
X12949453Y-16513950D02*
X12978025Y-16513950D01*
X12978025Y-16513950D02*
X12997072Y-16523474D01*
X13073263Y-16723474D02*
X13082787Y-16713950D01*
X13082787Y-16713950D02*
X13101834Y-16685379D01*
X13101834Y-16685379D02*
X13111358Y-16666331D01*
X13111358Y-16666331D02*
X13120882Y-16637760D01*
X13120882Y-16637760D02*
X13130406Y-16590141D01*
X13130406Y-16590141D02*
X13130406Y-16552046D01*
X13130406Y-16552046D02*
X13120882Y-16504427D01*
X13120882Y-16504427D02*
X13111358Y-16475855D01*
X13111358Y-16475855D02*
X13101834Y-16456808D01*
X13101834Y-16456808D02*
X13082787Y-16428236D01*
X13082787Y-16428236D02*
X13073263Y-16418712D01*
X13435168Y-16723474D02*
X13425644Y-16713950D01*
X13425644Y-16713950D02*
X13406596Y-16685379D01*
X13406596Y-16685379D02*
X13397072Y-16666331D01*
X13397072Y-16666331D02*
X13387549Y-16637760D01*
X13387549Y-16637760D02*
X13378025Y-16590141D01*
X13378025Y-16590141D02*
X13378025Y-16552046D01*
X13378025Y-16552046D02*
X13387549Y-16504427D01*
X13387549Y-16504427D02*
X13397072Y-16475855D01*
X13397072Y-16475855D02*
X13406596Y-16456808D01*
X13406596Y-16456808D02*
X13425644Y-16428236D01*
X13425644Y-16428236D02*
X13435168Y-16418712D01*
X13511358Y-16513950D02*
X13511358Y-16647284D01*
X13511358Y-16532998D02*
X13520882Y-16523474D01*
X13520882Y-16523474D02*
X13539930Y-16513950D01*
X13539930Y-16513950D02*
X13568501Y-16513950D01*
X13568501Y-16513950D02*
X13587549Y-16523474D01*
X13587549Y-16523474D02*
X13597072Y-16542522D01*
X13597072Y-16542522D02*
X13597072Y-16647284D01*
X13720882Y-16647284D02*
X13701834Y-16637760D01*
X13701834Y-16637760D02*
X13692311Y-16628236D01*
X13692311Y-16628236D02*
X13682787Y-16609188D01*
X13682787Y-16609188D02*
X13682787Y-16552046D01*
X13682787Y-16552046D02*
X13692311Y-16532998D01*
X13692311Y-16532998D02*
X13701834Y-16523474D01*
X13701834Y-16523474D02*
X13720882Y-16513950D01*
X13720882Y-16513950D02*
X13749453Y-16513950D01*
X13749453Y-16513950D02*
X13768501Y-16523474D01*
X13768501Y-16523474D02*
X13778025Y-16532998D01*
X13778025Y-16532998D02*
X13787549Y-16552046D01*
X13787549Y-16552046D02*
X13787549Y-16609188D01*
X13787549Y-16609188D02*
X13778025Y-16628236D01*
X13778025Y-16628236D02*
X13768501Y-16637760D01*
X13768501Y-16637760D02*
X13749453Y-16647284D01*
X13749453Y-16647284D02*
X13720882Y-16647284D01*
X13844692Y-16513950D02*
X13920882Y-16513950D01*
X13873263Y-16447284D02*
X13873263Y-16618712D01*
X13873263Y-16618712D02*
X13882787Y-16637760D01*
X13882787Y-16637760D02*
X13901834Y-16647284D01*
X13901834Y-16647284D02*
X13920882Y-16647284D01*
X14139930Y-16513950D02*
X14139930Y-16713950D01*
X14139930Y-16523474D02*
X14158977Y-16513950D01*
X14158977Y-16513950D02*
X14197073Y-16513950D01*
X14197073Y-16513950D02*
X14216120Y-16523474D01*
X14216120Y-16523474D02*
X14225644Y-16532998D01*
X14225644Y-16532998D02*
X14235168Y-16552046D01*
X14235168Y-16552046D02*
X14235168Y-16609188D01*
X14235168Y-16609188D02*
X14225644Y-16628236D01*
X14225644Y-16628236D02*
X14216120Y-16637760D01*
X14216120Y-16637760D02*
X14197073Y-16647284D01*
X14197073Y-16647284D02*
X14158977Y-16647284D01*
X14158977Y-16647284D02*
X14139930Y-16637760D01*
X14349453Y-16647284D02*
X14330406Y-16637760D01*
X14330406Y-16637760D02*
X14320882Y-16618712D01*
X14320882Y-16618712D02*
X14320882Y-16447284D01*
X14511358Y-16647284D02*
X14511358Y-16542522D01*
X14511358Y-16542522D02*
X14501834Y-16523474D01*
X14501834Y-16523474D02*
X14482787Y-16513950D01*
X14482787Y-16513950D02*
X14444692Y-16513950D01*
X14444692Y-16513950D02*
X14425644Y-16523474D01*
X14511358Y-16637760D02*
X14492311Y-16647284D01*
X14492311Y-16647284D02*
X14444692Y-16647284D01*
X14444692Y-16647284D02*
X14425644Y-16637760D01*
X14425644Y-16637760D02*
X14416120Y-16618712D01*
X14416120Y-16618712D02*
X14416120Y-16599665D01*
X14416120Y-16599665D02*
X14425644Y-16580617D01*
X14425644Y-16580617D02*
X14444692Y-16571093D01*
X14444692Y-16571093D02*
X14492311Y-16571093D01*
X14492311Y-16571093D02*
X14511358Y-16561569D01*
X14578025Y-16513950D02*
X14654215Y-16513950D01*
X14606596Y-16447284D02*
X14606596Y-16618712D01*
X14606596Y-16618712D02*
X14616120Y-16637760D01*
X14616120Y-16637760D02*
X14635168Y-16647284D01*
X14635168Y-16647284D02*
X14654215Y-16647284D01*
X14797073Y-16637760D02*
X14778025Y-16647284D01*
X14778025Y-16647284D02*
X14739930Y-16647284D01*
X14739930Y-16647284D02*
X14720882Y-16637760D01*
X14720882Y-16637760D02*
X14711358Y-16618712D01*
X14711358Y-16618712D02*
X14711358Y-16542522D01*
X14711358Y-16542522D02*
X14720882Y-16523474D01*
X14720882Y-16523474D02*
X14739930Y-16513950D01*
X14739930Y-16513950D02*
X14778025Y-16513950D01*
X14778025Y-16513950D02*
X14797073Y-16523474D01*
X14797073Y-16523474D02*
X14806596Y-16542522D01*
X14806596Y-16542522D02*
X14806596Y-16561569D01*
X14806596Y-16561569D02*
X14711358Y-16580617D01*
X14978025Y-16647284D02*
X14978025Y-16447284D01*
X14978025Y-16637760D02*
X14958977Y-16647284D01*
X14958977Y-16647284D02*
X14920882Y-16647284D01*
X14920882Y-16647284D02*
X14901834Y-16637760D01*
X14901834Y-16637760D02*
X14892311Y-16628236D01*
X14892311Y-16628236D02*
X14882787Y-16609188D01*
X14882787Y-16609188D02*
X14882787Y-16552046D01*
X14882787Y-16552046D02*
X14892311Y-16532998D01*
X14892311Y-16532998D02*
X14901834Y-16523474D01*
X14901834Y-16523474D02*
X14920882Y-16513950D01*
X14920882Y-16513950D02*
X14958977Y-16513950D01*
X14958977Y-16513950D02*
X14978025Y-16523474D01*
X15054215Y-16723474D02*
X15063739Y-16713950D01*
X15063739Y-16713950D02*
X15082787Y-16685379D01*
X15082787Y-16685379D02*
X15092311Y-16666331D01*
X15092311Y-16666331D02*
X15101834Y-16637760D01*
X15101834Y-16637760D02*
X15111358Y-16590141D01*
X15111358Y-16590141D02*
X15111358Y-16552046D01*
X15111358Y-16552046D02*
X15101834Y-16504427D01*
X15101834Y-16504427D02*
X15092311Y-16475855D01*
X15092311Y-16475855D02*
X15082787Y-16456808D01*
X15082787Y-16456808D02*
X15063739Y-16428236D01*
X15063739Y-16428236D02*
X15054215Y-16418712D01*
M02*
