G04 #@! TF.GenerationSoftware,KiCad,Pcbnew,7.0.10*
G04 #@! TF.CreationDate,2024-02-15T21:55:24+01:00*
G04 #@! TF.ProjectId,ithowifi_4l,6974686f-7769-4666-995f-346c2e6b6963,rev?*
G04 #@! TF.SameCoordinates,Original*
G04 #@! TF.FileFunction,Soldermask,Bot*
G04 #@! TF.FilePolarity,Negative*
%FSLAX46Y46*%
G04 Gerber Fmt 4.6, Leading zero omitted, Abs format (unit mm)*
G04 Created by KiCad (PCBNEW 7.0.10) date 2024-02-15 21:55:24*
%MOMM*%
%LPD*%
G01*
G04 APERTURE LIST*
G04 Aperture macros list*
%AMRoundRect*
0 Rectangle with rounded corners*
0 $1 Rounding radius*
0 $2 $3 $4 $5 $6 $7 $8 $9 X,Y pos of 4 corners*
0 Add a 4 corners polygon primitive as box body*
4,1,4,$2,$3,$4,$5,$6,$7,$8,$9,$2,$3,0*
0 Add four circle primitives for the rounded corners*
1,1,$1+$1,$2,$3*
1,1,$1+$1,$4,$5*
1,1,$1+$1,$6,$7*
1,1,$1+$1,$8,$9*
0 Add four rect primitives between the rounded corners*
20,1,$1+$1,$2,$3,$4,$5,0*
20,1,$1+$1,$4,$5,$6,$7,0*
20,1,$1+$1,$6,$7,$8,$9,0*
20,1,$1+$1,$8,$9,$2,$3,0*%
G04 Aperture macros list end*
%ADD10RoundRect,0.101600X-0.400000X0.750000X-0.400000X-0.750000X0.400000X-0.750000X0.400000X0.750000X0*%
%ADD11RoundRect,0.101600X0.400000X0.750000X-0.400000X0.750000X-0.400000X-0.750000X0.400000X-0.750000X0*%
%ADD12RoundRect,0.101600X0.750000X0.400000X-0.750000X0.400000X-0.750000X-0.400000X0.750000X-0.400000X0*%
%ADD13RoundRect,0.101600X-0.750000X-0.400000X0.750000X-0.400000X0.750000X0.400000X-0.750000X0.400000X0*%
%ADD14RoundRect,0.101600X-0.750000X0.400000X-0.750000X-0.400000X0.750000X-0.400000X0.750000X0.400000X0*%
%ADD15R,1.700000X1.700000*%
%ADD16O,1.700000X1.700000*%
%ADD17C,3.200000*%
%ADD18C,0.990600*%
%ADD19C,2.000000*%
%ADD20R,3.000000X1.000000*%
%ADD21R,1.500000X5.080000*%
G04 APERTURE END LIST*
D10*
X99560000Y-114950000D03*
D11*
X100829990Y-114950000D03*
D10*
X102100000Y-114950000D03*
X103370000Y-114950000D03*
X104640000Y-114950000D03*
D12*
X107100000Y-117410000D03*
D13*
X107100000Y-118679990D03*
X107100000Y-119950000D03*
X107100000Y-121220000D03*
X107100000Y-122490000D03*
D10*
X104640000Y-124950000D03*
X103370000Y-124950000D03*
X102100000Y-124950000D03*
X100829990Y-124950000D03*
X99560000Y-124950000D03*
D14*
X97100000Y-122490000D03*
D12*
X97100000Y-121220000D03*
X97100000Y-119950000D03*
X97100000Y-118679990D03*
X97100000Y-117410000D03*
D15*
X85725000Y-107797600D03*
D16*
X85725000Y-110337600D03*
X85725000Y-112877600D03*
X85725000Y-115417600D03*
X85725000Y-117957600D03*
X85725000Y-120497600D03*
X85725000Y-123037600D03*
D17*
X94488000Y-113538000D03*
D18*
X94576000Y-108917400D03*
X89496000Y-107901400D03*
X94576000Y-106885400D03*
D19*
X107100780Y-109251460D03*
D17*
X121630000Y-108120000D03*
D20*
X123293500Y-137807500D03*
X118253500Y-137807500D03*
X123293500Y-135267500D03*
X118253500Y-135267500D03*
X123293500Y-132727500D03*
X118253500Y-132727500D03*
X123293500Y-130187500D03*
X118253500Y-130187500D03*
D21*
X107100000Y-107848400D03*
X102850000Y-107848400D03*
X111350000Y-107848400D03*
M02*
