%TF.GenerationSoftware,KiCad,Pcbnew,7.0.10*%
%TF.CreationDate,2024-02-15T21:55:26+01:00*%
%TF.ProjectId,ithowifi_4l,6974686f-7769-4666-995f-346c2e6b6963,rev?*%
%TF.SameCoordinates,Original*%
%TF.FileFunction,Drillmap*%
%TF.FilePolarity,Positive*%
%FSLAX45Y45*%
G04 Gerber Fmt 4.5, Leading zero omitted, Abs format (unit mm)*
G04 Created by KiCad (PCBNEW 7.0.10) date 2024-02-15 21:55:26*
%MOMM*%
%LPD*%
G01*
G04 APERTURE LIST*
%ADD10C,0.100000*%
%ADD11C,0.200000*%
G04 APERTURE END LIST*
D10*
X8303200Y-15596800D02*
G75*
G03*
X8353200Y-15646800I50000J0D01*
G01*
X12533200Y-10696800D02*
G75*
G03*
X12333200Y-10496800I-200000J0D01*
G01*
X12333200Y-10496800D02*
X8503200Y-10496800D01*
X12483200Y-14996800D02*
G75*
G03*
X12533200Y-14946800I0J50000D01*
G01*
X8683200Y-15646800D02*
X8353200Y-15646800D01*
X11533200Y-15646800D02*
X10513200Y-15646800D01*
X10463200Y-15596800D02*
G75*
G03*
X10513200Y-15646800I50000J0D01*
G01*
X11533200Y-15646800D02*
G75*
G03*
X11583200Y-15596800I0J50000D01*
G01*
X11583200Y-15596800D02*
X11583200Y-15046800D01*
X10463200Y-14996800D02*
X8733200Y-14996800D01*
X11633200Y-14996800D02*
G75*
G03*
X11583200Y-15046800I0J-50000D01*
G01*
X8733200Y-14996800D02*
X8733200Y-15596800D01*
X10463200Y-15596800D02*
X10463200Y-14996800D01*
X8683200Y-15646800D02*
G75*
G03*
X8733200Y-15596800I0J50000D01*
G01*
X8303200Y-15596800D02*
X8303200Y-10696800D01*
X8503200Y-10496800D02*
G75*
G03*
X8303200Y-10696800I0J-200000D01*
G01*
X12533200Y-10696800D02*
X12533200Y-14946800D01*
X12483200Y-14996800D02*
X11633200Y-14996800D01*
D11*
D10*
X8433121Y-14460539D02*
X8473121Y-14500539D01*
X8473121Y-14460539D02*
X8433121Y-14500539D01*
X8483920Y-14336080D02*
X8523920Y-14376080D01*
X8523920Y-14336080D02*
X8483920Y-14376080D01*
X8654100Y-12807000D02*
X8694100Y-12847000D01*
X8694100Y-12807000D02*
X8654100Y-12847000D01*
X8800000Y-11720000D02*
X8840000Y-11760000D01*
X8840000Y-11720000D02*
X8800000Y-11760000D01*
X8850000Y-13310000D02*
X8890000Y-13350000D01*
X8890000Y-13310000D02*
X8850000Y-13350000D01*
X8850000Y-13825000D02*
X8890000Y-13865000D01*
X8890000Y-13825000D02*
X8850000Y-13865000D01*
X8895400Y-14839000D02*
X8935400Y-14879000D01*
X8935400Y-14839000D02*
X8895400Y-14879000D01*
X8920000Y-14715000D02*
X8960000Y-14755000D01*
X8960000Y-14715000D02*
X8920000Y-14755000D01*
X8920800Y-11547160D02*
X8960800Y-11587160D01*
X8960800Y-11547160D02*
X8920800Y-11587160D01*
X8957500Y-12900000D02*
X8997500Y-12940000D01*
X8997500Y-12900000D02*
X8957500Y-12940000D01*
X9050000Y-13540000D02*
X9090000Y-13580000D01*
X9090000Y-13540000D02*
X9050000Y-13580000D01*
X9270000Y-13785000D02*
X9310000Y-13825000D01*
X9310000Y-13785000D02*
X9270000Y-13825000D01*
X9380000Y-12311700D02*
X9420000Y-12351700D01*
X9420000Y-12311700D02*
X9380000Y-12351700D01*
X9494840Y-13955080D02*
X9534840Y-13995080D01*
X9534840Y-13955080D02*
X9494840Y-13995080D01*
X9494840Y-14107480D02*
X9534840Y-14147480D01*
X9534840Y-14107480D02*
X9494840Y-14147480D01*
X9494840Y-14259880D02*
X9534840Y-14299880D01*
X9534840Y-14259880D02*
X9494840Y-14299880D01*
X9644700Y-13955080D02*
X9684700Y-13995080D01*
X9684700Y-13955080D02*
X9644700Y-13995080D01*
X9644700Y-14107480D02*
X9684700Y-14147480D01*
X9684700Y-14107480D02*
X9644700Y-14147480D01*
X9644700Y-14259880D02*
X9684700Y-14299880D01*
X9684700Y-14259880D02*
X9644700Y-14299880D01*
X9730000Y-12390000D02*
X9770000Y-12430000D01*
X9770000Y-12390000D02*
X9730000Y-12430000D01*
X9797100Y-13955080D02*
X9837100Y-13995080D01*
X9837100Y-13955080D02*
X9797100Y-13995080D01*
X9797100Y-14107480D02*
X9837100Y-14147480D01*
X9837100Y-14107480D02*
X9797100Y-14147480D01*
X9797100Y-14259880D02*
X9837100Y-14299880D01*
X9837100Y-14259880D02*
X9797100Y-14299880D01*
X9890000Y-11700000D02*
X9930000Y-11740000D01*
X9930000Y-11700000D02*
X9890000Y-11740000D01*
X10050000Y-10571800D02*
X10090000Y-10611800D01*
X10090000Y-10571800D02*
X10050000Y-10611800D01*
X10050000Y-10724200D02*
X10090000Y-10764200D01*
X10090000Y-10724200D02*
X10050000Y-10764200D01*
X10050000Y-10889300D02*
X10090000Y-10929300D01*
X10090000Y-10889300D02*
X10050000Y-10929300D01*
X10050000Y-11067100D02*
X10090000Y-11107100D01*
X10090000Y-11067100D02*
X10050000Y-11107100D01*
X10050000Y-11230000D02*
X10090000Y-11270000D01*
X10090000Y-11230000D02*
X10050000Y-11270000D01*
X10223200Y-13836800D02*
X10263200Y-13876800D01*
X10263200Y-13836800D02*
X10223200Y-13876800D01*
X10230000Y-11230000D02*
X10270000Y-11270000D01*
X10270000Y-11230000D02*
X10230000Y-11270000D01*
X10265200Y-13251500D02*
X10305200Y-13291500D01*
X10305200Y-13251500D02*
X10265200Y-13291500D01*
X10400000Y-12860000D02*
X10440000Y-12900000D01*
X10440000Y-12860000D02*
X10400000Y-12900000D01*
X10407800Y-11230000D02*
X10447800Y-11270000D01*
X10447800Y-11230000D02*
X10407800Y-11270000D01*
X10470000Y-12750000D02*
X10510000Y-12790000D01*
X10510000Y-12750000D02*
X10470000Y-12790000D01*
X10510000Y-11720000D02*
X10550000Y-11760000D01*
X10550000Y-11720000D02*
X10510000Y-11760000D01*
X10560000Y-11230000D02*
X10600000Y-11270000D01*
X10600000Y-11230000D02*
X10560000Y-11270000D01*
X10597200Y-14712000D02*
X10637200Y-14752000D01*
X10637200Y-14712000D02*
X10597200Y-14752000D01*
X10597200Y-14839000D02*
X10637200Y-14879000D01*
X10637200Y-14839000D02*
X10597200Y-14879000D01*
X10622600Y-11400000D02*
X10662600Y-11440000D01*
X10662600Y-11400000D02*
X10622600Y-11440000D01*
X10622600Y-11570000D02*
X10662600Y-11610000D01*
X10662600Y-11570000D02*
X10622600Y-11610000D01*
X10664940Y-13698540D02*
X10704940Y-13738540D01*
X10704940Y-13698540D02*
X10664940Y-13738540D01*
X10797460Y-13952540D02*
X10837460Y-13992540D01*
X10837460Y-13952540D02*
X10797460Y-13992540D01*
X10825800Y-11230000D02*
X10865800Y-11270000D01*
X10865800Y-11230000D02*
X10825800Y-11270000D01*
X10825800Y-15321600D02*
X10865800Y-15361600D01*
X10865800Y-15321600D02*
X10825800Y-15361600D01*
X10843150Y-14855100D02*
X10883150Y-14895100D01*
X10883150Y-14855100D02*
X10843150Y-14895100D01*
X10879500Y-11400000D02*
X10919500Y-11440000D01*
X10919500Y-11400000D02*
X10879500Y-11440000D01*
X10882400Y-11570000D02*
X10922400Y-11610000D01*
X10922400Y-11570000D02*
X10882400Y-11610000D01*
X10890000Y-11725000D02*
X10930000Y-11765000D01*
X10930000Y-11725000D02*
X10890000Y-11765000D01*
X10893200Y-12746801D02*
X10933200Y-12786801D01*
X10933200Y-12746801D02*
X10893200Y-12786801D01*
X10987100Y-11230000D02*
X11027100Y-11270000D01*
X11027100Y-11230000D02*
X10987100Y-11270000D01*
X11029000Y-15169200D02*
X11069000Y-15209200D01*
X11069000Y-15169200D02*
X11029000Y-15209200D01*
X11033200Y-12385360D02*
X11073200Y-12425360D01*
X11073200Y-12385360D02*
X11033200Y-12425360D01*
X11033200Y-13406800D02*
X11073200Y-13446800D01*
X11073200Y-13406800D02*
X11033200Y-13446800D01*
X11143200Y-12385360D02*
X11183200Y-12425360D01*
X11183200Y-12385360D02*
X11143200Y-12425360D01*
X11143200Y-13406800D02*
X11183200Y-13446800D01*
X11183200Y-13406800D02*
X11143200Y-13446800D01*
X11164900Y-11230000D02*
X11204900Y-11270000D01*
X11204900Y-11230000D02*
X11164900Y-11270000D01*
X11253200Y-12385360D02*
X11293200Y-12425360D01*
X11293200Y-12385360D02*
X11253200Y-12425360D01*
X11253200Y-13406800D02*
X11293200Y-13446800D01*
X11293200Y-13406800D02*
X11253200Y-13446800D01*
X11330000Y-10571800D02*
X11370000Y-10611800D01*
X11370000Y-10571800D02*
X11330000Y-10611800D01*
X11330000Y-10724200D02*
X11370000Y-10764200D01*
X11370000Y-10724200D02*
X11330000Y-10764200D01*
X11330000Y-10889300D02*
X11370000Y-10929300D01*
X11370000Y-10889300D02*
X11330000Y-10929300D01*
X11330000Y-11067100D02*
X11370000Y-11107100D01*
X11370000Y-11067100D02*
X11330000Y-11107100D01*
X11330000Y-11230000D02*
X11370000Y-11270000D01*
X11370000Y-11230000D02*
X11330000Y-11270000D01*
X11333800Y-15042200D02*
X11373800Y-15082200D01*
X11373800Y-15042200D02*
X11333800Y-15082200D01*
X11333800Y-15524800D02*
X11373800Y-15564800D01*
X11373800Y-15524800D02*
X11333800Y-15564800D01*
X11350000Y-11890000D02*
X11390000Y-11930000D01*
X11390000Y-11890000D02*
X11350000Y-11930000D01*
X11359200Y-14356400D02*
X11399200Y-14396400D01*
X11399200Y-14356400D02*
X11359200Y-14396400D01*
X11359200Y-14559600D02*
X11399200Y-14599600D01*
X11399200Y-14559600D02*
X11359200Y-14599600D01*
X11448100Y-14458000D02*
X11488100Y-14498000D01*
X11488100Y-14458000D02*
X11448100Y-14498000D01*
X11448100Y-14712000D02*
X11488100Y-14752000D01*
X11488100Y-14712000D02*
X11448100Y-14752000D01*
X11455001Y-12145000D02*
X11495001Y-12185000D01*
X11495001Y-12145000D02*
X11455001Y-12185000D01*
X11649700Y-12033900D02*
X11689700Y-12073900D01*
X11689700Y-12033900D02*
X11649700Y-12073900D01*
X11664999Y-13160000D02*
X11704999Y-13200000D01*
X11704999Y-13160000D02*
X11664999Y-13200000D01*
X11805000Y-13860000D02*
X11845000Y-13900000D01*
X11845000Y-13860000D02*
X11805000Y-13900000D01*
X11839568Y-12747618D02*
X11879568Y-12787618D01*
X11879568Y-12747618D02*
X11839568Y-12787618D01*
X11920000Y-12880000D02*
X11960000Y-12920000D01*
X11960000Y-12880000D02*
X11920000Y-12920000D01*
X12033200Y-12026800D02*
X12073200Y-12066800D01*
X12073200Y-12026800D02*
X12033200Y-12066800D01*
X12061309Y-11648690D02*
X12101309Y-11688690D01*
X12101309Y-11648690D02*
X12061309Y-11688690D01*
X12248200Y-11956100D02*
X12288200Y-11996100D01*
X12288200Y-11956100D02*
X12248200Y-11996100D01*
X12248200Y-12749850D02*
X12288200Y-12789850D01*
X12288200Y-12749850D02*
X12248200Y-12789850D01*
X12309000Y-13124000D02*
X12349000Y-13164000D01*
X12349000Y-13124000D02*
X12309000Y-13164000D01*
X12310000Y-12885000D02*
X12350000Y-12925000D01*
X12350000Y-12885000D02*
X12310000Y-12925000D01*
X12310000Y-13381000D02*
X12350000Y-13421000D01*
X12350000Y-13381000D02*
X12310000Y-13421000D01*
X8622500Y-10779760D02*
G75*
G03*
X8522500Y-10779760I-50000J0D01*
G01*
X8522500Y-10779760D02*
G75*
G03*
X8622500Y-10779760I50000J0D01*
G01*
X8622500Y-11033760D02*
G75*
G03*
X8522500Y-11033760I-50000J0D01*
G01*
X8522500Y-11033760D02*
G75*
G03*
X8622500Y-11033760I50000J0D01*
G01*
X8622500Y-11287760D02*
G75*
G03*
X8522500Y-11287760I-50000J0D01*
G01*
X8522500Y-11287760D02*
G75*
G03*
X8622500Y-11287760I50000J0D01*
G01*
X8622500Y-11541760D02*
G75*
G03*
X8522500Y-11541760I-50000J0D01*
G01*
X8522500Y-11541760D02*
G75*
G03*
X8622500Y-11541760I50000J0D01*
G01*
X8622500Y-11795760D02*
G75*
G03*
X8522500Y-11795760I-50000J0D01*
G01*
X8522500Y-11795760D02*
G75*
G03*
X8622500Y-11795760I50000J0D01*
G01*
X8622500Y-12049760D02*
G75*
G03*
X8522500Y-12049760I-50000J0D01*
G01*
X8522500Y-12049760D02*
G75*
G03*
X8622500Y-12049760I50000J0D01*
G01*
X8622500Y-12303760D02*
G75*
G03*
X8522500Y-12303760I-50000J0D01*
G01*
X8522500Y-12303760D02*
G75*
G03*
X8622500Y-12303760I50000J0D01*
G01*
X10760078Y-10925146D02*
G75*
G03*
X10660078Y-10925146I-50000J0D01*
G01*
X10660078Y-10925146D02*
G75*
G03*
X10760078Y-10925146I50000J0D01*
G01*
D11*
X8558977Y-15963284D02*
X8558977Y-15763284D01*
X8558977Y-15763284D02*
X8606596Y-15763284D01*
X8606596Y-15763284D02*
X8635167Y-15772808D01*
X8635167Y-15772808D02*
X8654215Y-15791855D01*
X8654215Y-15791855D02*
X8663739Y-15810903D01*
X8663739Y-15810903D02*
X8673263Y-15848998D01*
X8673263Y-15848998D02*
X8673263Y-15877569D01*
X8673263Y-15877569D02*
X8663739Y-15915665D01*
X8663739Y-15915665D02*
X8654215Y-15934712D01*
X8654215Y-15934712D02*
X8635167Y-15953760D01*
X8635167Y-15953760D02*
X8606596Y-15963284D01*
X8606596Y-15963284D02*
X8558977Y-15963284D01*
X8758977Y-15963284D02*
X8758977Y-15829950D01*
X8758977Y-15868046D02*
X8768501Y-15848998D01*
X8768501Y-15848998D02*
X8778024Y-15839474D01*
X8778024Y-15839474D02*
X8797072Y-15829950D01*
X8797072Y-15829950D02*
X8816120Y-15829950D01*
X8882786Y-15963284D02*
X8882786Y-15829950D01*
X8882786Y-15763284D02*
X8873263Y-15772808D01*
X8873263Y-15772808D02*
X8882786Y-15782331D01*
X8882786Y-15782331D02*
X8892310Y-15772808D01*
X8892310Y-15772808D02*
X8882786Y-15763284D01*
X8882786Y-15763284D02*
X8882786Y-15782331D01*
X9006596Y-15963284D02*
X8987548Y-15953760D01*
X8987548Y-15953760D02*
X8978024Y-15934712D01*
X8978024Y-15934712D02*
X8978024Y-15763284D01*
X9111358Y-15963284D02*
X9092310Y-15953760D01*
X9092310Y-15953760D02*
X9082786Y-15934712D01*
X9082786Y-15934712D02*
X9082786Y-15763284D01*
X9339929Y-15963284D02*
X9339929Y-15763284D01*
X9339929Y-15763284D02*
X9406596Y-15906141D01*
X9406596Y-15906141D02*
X9473263Y-15763284D01*
X9473263Y-15763284D02*
X9473263Y-15963284D01*
X9654215Y-15963284D02*
X9654215Y-15858522D01*
X9654215Y-15858522D02*
X9644691Y-15839474D01*
X9644691Y-15839474D02*
X9625644Y-15829950D01*
X9625644Y-15829950D02*
X9587548Y-15829950D01*
X9587548Y-15829950D02*
X9568501Y-15839474D01*
X9654215Y-15953760D02*
X9635167Y-15963284D01*
X9635167Y-15963284D02*
X9587548Y-15963284D01*
X9587548Y-15963284D02*
X9568501Y-15953760D01*
X9568501Y-15953760D02*
X9558977Y-15934712D01*
X9558977Y-15934712D02*
X9558977Y-15915665D01*
X9558977Y-15915665D02*
X9568501Y-15896617D01*
X9568501Y-15896617D02*
X9587548Y-15887093D01*
X9587548Y-15887093D02*
X9635167Y-15887093D01*
X9635167Y-15887093D02*
X9654215Y-15877569D01*
X9749453Y-15829950D02*
X9749453Y-16029950D01*
X9749453Y-15839474D02*
X9768501Y-15829950D01*
X9768501Y-15829950D02*
X9806596Y-15829950D01*
X9806596Y-15829950D02*
X9825644Y-15839474D01*
X9825644Y-15839474D02*
X9835167Y-15848998D01*
X9835167Y-15848998D02*
X9844691Y-15868046D01*
X9844691Y-15868046D02*
X9844691Y-15925188D01*
X9844691Y-15925188D02*
X9835167Y-15944236D01*
X9835167Y-15944236D02*
X9825644Y-15953760D01*
X9825644Y-15953760D02*
X9806596Y-15963284D01*
X9806596Y-15963284D02*
X9768501Y-15963284D01*
X9768501Y-15963284D02*
X9749453Y-15953760D01*
X9930405Y-15944236D02*
X9939929Y-15953760D01*
X9939929Y-15953760D02*
X9930405Y-15963284D01*
X9930405Y-15963284D02*
X9920882Y-15953760D01*
X9920882Y-15953760D02*
X9930405Y-15944236D01*
X9930405Y-15944236D02*
X9930405Y-15963284D01*
X9930405Y-15839474D02*
X9939929Y-15848998D01*
X9939929Y-15848998D02*
X9930405Y-15858522D01*
X9930405Y-15858522D02*
X9920882Y-15848998D01*
X9920882Y-15848998D02*
X9930405Y-15839474D01*
X9930405Y-15839474D02*
X9930405Y-15858522D01*
D10*
X8258200Y-16271800D02*
X8298200Y-16311800D01*
X8298200Y-16271800D02*
X8258200Y-16311800D01*
D11*
X8597072Y-16183284D02*
X8616120Y-16183284D01*
X8616120Y-16183284D02*
X8635167Y-16192808D01*
X8635167Y-16192808D02*
X8644691Y-16202331D01*
X8644691Y-16202331D02*
X8654215Y-16221379D01*
X8654215Y-16221379D02*
X8663739Y-16259474D01*
X8663739Y-16259474D02*
X8663739Y-16307093D01*
X8663739Y-16307093D02*
X8654215Y-16345188D01*
X8654215Y-16345188D02*
X8644691Y-16364236D01*
X8644691Y-16364236D02*
X8635167Y-16373760D01*
X8635167Y-16373760D02*
X8616120Y-16383284D01*
X8616120Y-16383284D02*
X8597072Y-16383284D01*
X8597072Y-16383284D02*
X8578024Y-16373760D01*
X8578024Y-16373760D02*
X8568501Y-16364236D01*
X8568501Y-16364236D02*
X8558977Y-16345188D01*
X8558977Y-16345188D02*
X8549453Y-16307093D01*
X8549453Y-16307093D02*
X8549453Y-16259474D01*
X8549453Y-16259474D02*
X8558977Y-16221379D01*
X8558977Y-16221379D02*
X8568501Y-16202331D01*
X8568501Y-16202331D02*
X8578024Y-16192808D01*
X8578024Y-16192808D02*
X8597072Y-16183284D01*
X8749453Y-16364236D02*
X8758977Y-16373760D01*
X8758977Y-16373760D02*
X8749453Y-16383284D01*
X8749453Y-16383284D02*
X8739929Y-16373760D01*
X8739929Y-16373760D02*
X8749453Y-16364236D01*
X8749453Y-16364236D02*
X8749453Y-16383284D01*
X8930405Y-16249950D02*
X8930405Y-16383284D01*
X8882786Y-16173760D02*
X8835167Y-16316617D01*
X8835167Y-16316617D02*
X8958977Y-16316617D01*
X9073263Y-16183284D02*
X9092310Y-16183284D01*
X9092310Y-16183284D02*
X9111358Y-16192808D01*
X9111358Y-16192808D02*
X9120882Y-16202331D01*
X9120882Y-16202331D02*
X9130405Y-16221379D01*
X9130405Y-16221379D02*
X9139929Y-16259474D01*
X9139929Y-16259474D02*
X9139929Y-16307093D01*
X9139929Y-16307093D02*
X9130405Y-16345188D01*
X9130405Y-16345188D02*
X9120882Y-16364236D01*
X9120882Y-16364236D02*
X9111358Y-16373760D01*
X9111358Y-16373760D02*
X9092310Y-16383284D01*
X9092310Y-16383284D02*
X9073263Y-16383284D01*
X9073263Y-16383284D02*
X9054215Y-16373760D01*
X9054215Y-16373760D02*
X9044691Y-16364236D01*
X9044691Y-16364236D02*
X9035167Y-16345188D01*
X9035167Y-16345188D02*
X9025644Y-16307093D01*
X9025644Y-16307093D02*
X9025644Y-16259474D01*
X9025644Y-16259474D02*
X9035167Y-16221379D01*
X9035167Y-16221379D02*
X9044691Y-16202331D01*
X9044691Y-16202331D02*
X9054215Y-16192808D01*
X9054215Y-16192808D02*
X9073263Y-16183284D01*
X9263739Y-16183284D02*
X9282786Y-16183284D01*
X9282786Y-16183284D02*
X9301834Y-16192808D01*
X9301834Y-16192808D02*
X9311358Y-16202331D01*
X9311358Y-16202331D02*
X9320882Y-16221379D01*
X9320882Y-16221379D02*
X9330405Y-16259474D01*
X9330405Y-16259474D02*
X9330405Y-16307093D01*
X9330405Y-16307093D02*
X9320882Y-16345188D01*
X9320882Y-16345188D02*
X9311358Y-16364236D01*
X9311358Y-16364236D02*
X9301834Y-16373760D01*
X9301834Y-16373760D02*
X9282786Y-16383284D01*
X9282786Y-16383284D02*
X9263739Y-16383284D01*
X9263739Y-16383284D02*
X9244691Y-16373760D01*
X9244691Y-16373760D02*
X9235167Y-16364236D01*
X9235167Y-16364236D02*
X9225644Y-16345188D01*
X9225644Y-16345188D02*
X9216120Y-16307093D01*
X9216120Y-16307093D02*
X9216120Y-16259474D01*
X9216120Y-16259474D02*
X9225644Y-16221379D01*
X9225644Y-16221379D02*
X9235167Y-16202331D01*
X9235167Y-16202331D02*
X9244691Y-16192808D01*
X9244691Y-16192808D02*
X9263739Y-16183284D01*
X9416120Y-16383284D02*
X9416120Y-16249950D01*
X9416120Y-16268998D02*
X9425644Y-16259474D01*
X9425644Y-16259474D02*
X9444691Y-16249950D01*
X9444691Y-16249950D02*
X9473263Y-16249950D01*
X9473263Y-16249950D02*
X9492310Y-16259474D01*
X9492310Y-16259474D02*
X9501834Y-16278522D01*
X9501834Y-16278522D02*
X9501834Y-16383284D01*
X9501834Y-16278522D02*
X9511358Y-16259474D01*
X9511358Y-16259474D02*
X9530405Y-16249950D01*
X9530405Y-16249950D02*
X9558977Y-16249950D01*
X9558977Y-16249950D02*
X9578025Y-16259474D01*
X9578025Y-16259474D02*
X9587548Y-16278522D01*
X9587548Y-16278522D02*
X9587548Y-16383284D01*
X9682786Y-16383284D02*
X9682786Y-16249950D01*
X9682786Y-16268998D02*
X9692310Y-16259474D01*
X9692310Y-16259474D02*
X9711358Y-16249950D01*
X9711358Y-16249950D02*
X9739929Y-16249950D01*
X9739929Y-16249950D02*
X9758977Y-16259474D01*
X9758977Y-16259474D02*
X9768501Y-16278522D01*
X9768501Y-16278522D02*
X9768501Y-16383284D01*
X9768501Y-16278522D02*
X9778025Y-16259474D01*
X9778025Y-16259474D02*
X9797072Y-16249950D01*
X9797072Y-16249950D02*
X9825644Y-16249950D01*
X9825644Y-16249950D02*
X9844691Y-16259474D01*
X9844691Y-16259474D02*
X9854215Y-16278522D01*
X9854215Y-16278522D02*
X9854215Y-16383284D01*
X10244691Y-16173760D02*
X10073263Y-16430903D01*
X10501834Y-16183284D02*
X10520882Y-16183284D01*
X10520882Y-16183284D02*
X10539929Y-16192808D01*
X10539929Y-16192808D02*
X10549453Y-16202331D01*
X10549453Y-16202331D02*
X10558977Y-16221379D01*
X10558977Y-16221379D02*
X10568501Y-16259474D01*
X10568501Y-16259474D02*
X10568501Y-16307093D01*
X10568501Y-16307093D02*
X10558977Y-16345188D01*
X10558977Y-16345188D02*
X10549453Y-16364236D01*
X10549453Y-16364236D02*
X10539929Y-16373760D01*
X10539929Y-16373760D02*
X10520882Y-16383284D01*
X10520882Y-16383284D02*
X10501834Y-16383284D01*
X10501834Y-16383284D02*
X10482787Y-16373760D01*
X10482787Y-16373760D02*
X10473263Y-16364236D01*
X10473263Y-16364236D02*
X10463739Y-16345188D01*
X10463739Y-16345188D02*
X10454215Y-16307093D01*
X10454215Y-16307093D02*
X10454215Y-16259474D01*
X10454215Y-16259474D02*
X10463739Y-16221379D01*
X10463739Y-16221379D02*
X10473263Y-16202331D01*
X10473263Y-16202331D02*
X10482787Y-16192808D01*
X10482787Y-16192808D02*
X10501834Y-16183284D01*
X10654215Y-16364236D02*
X10663739Y-16373760D01*
X10663739Y-16373760D02*
X10654215Y-16383284D01*
X10654215Y-16383284D02*
X10644691Y-16373760D01*
X10644691Y-16373760D02*
X10654215Y-16364236D01*
X10654215Y-16364236D02*
X10654215Y-16383284D01*
X10787548Y-16183284D02*
X10806596Y-16183284D01*
X10806596Y-16183284D02*
X10825644Y-16192808D01*
X10825644Y-16192808D02*
X10835168Y-16202331D01*
X10835168Y-16202331D02*
X10844691Y-16221379D01*
X10844691Y-16221379D02*
X10854215Y-16259474D01*
X10854215Y-16259474D02*
X10854215Y-16307093D01*
X10854215Y-16307093D02*
X10844691Y-16345188D01*
X10844691Y-16345188D02*
X10835168Y-16364236D01*
X10835168Y-16364236D02*
X10825644Y-16373760D01*
X10825644Y-16373760D02*
X10806596Y-16383284D01*
X10806596Y-16383284D02*
X10787548Y-16383284D01*
X10787548Y-16383284D02*
X10768501Y-16373760D01*
X10768501Y-16373760D02*
X10758977Y-16364236D01*
X10758977Y-16364236D02*
X10749453Y-16345188D01*
X10749453Y-16345188D02*
X10739929Y-16307093D01*
X10739929Y-16307093D02*
X10739929Y-16259474D01*
X10739929Y-16259474D02*
X10749453Y-16221379D01*
X10749453Y-16221379D02*
X10758977Y-16202331D01*
X10758977Y-16202331D02*
X10768501Y-16192808D01*
X10768501Y-16192808D02*
X10787548Y-16183284D01*
X11044691Y-16383284D02*
X10930406Y-16383284D01*
X10987548Y-16383284D02*
X10987548Y-16183284D01*
X10987548Y-16183284D02*
X10968501Y-16211855D01*
X10968501Y-16211855D02*
X10949453Y-16230903D01*
X10949453Y-16230903D02*
X10930406Y-16240427D01*
X11225644Y-16183284D02*
X11130406Y-16183284D01*
X11130406Y-16183284D02*
X11120882Y-16278522D01*
X11120882Y-16278522D02*
X11130406Y-16268998D01*
X11130406Y-16268998D02*
X11149453Y-16259474D01*
X11149453Y-16259474D02*
X11197072Y-16259474D01*
X11197072Y-16259474D02*
X11216120Y-16268998D01*
X11216120Y-16268998D02*
X11225644Y-16278522D01*
X11225644Y-16278522D02*
X11235167Y-16297569D01*
X11235167Y-16297569D02*
X11235167Y-16345188D01*
X11235167Y-16345188D02*
X11225644Y-16364236D01*
X11225644Y-16364236D02*
X11216120Y-16373760D01*
X11216120Y-16373760D02*
X11197072Y-16383284D01*
X11197072Y-16383284D02*
X11149453Y-16383284D01*
X11149453Y-16383284D02*
X11130406Y-16373760D01*
X11130406Y-16373760D02*
X11120882Y-16364236D01*
X11301834Y-16183284D02*
X11435167Y-16183284D01*
X11435167Y-16183284D02*
X11349453Y-16383284D01*
X11501834Y-16183284D02*
X11501834Y-16221379D01*
X11578025Y-16183284D02*
X11578025Y-16221379D01*
X11873263Y-16459474D02*
X11863739Y-16449950D01*
X11863739Y-16449950D02*
X11844691Y-16421379D01*
X11844691Y-16421379D02*
X11835168Y-16402331D01*
X11835168Y-16402331D02*
X11825644Y-16373760D01*
X11825644Y-16373760D02*
X11816120Y-16326141D01*
X11816120Y-16326141D02*
X11816120Y-16288046D01*
X11816120Y-16288046D02*
X11825644Y-16240427D01*
X11825644Y-16240427D02*
X11835168Y-16211855D01*
X11835168Y-16211855D02*
X11844691Y-16192808D01*
X11844691Y-16192808D02*
X11863739Y-16164236D01*
X11863739Y-16164236D02*
X11873263Y-16154712D01*
X11978025Y-16268998D02*
X11958977Y-16259474D01*
X11958977Y-16259474D02*
X11949453Y-16249950D01*
X11949453Y-16249950D02*
X11939929Y-16230903D01*
X11939929Y-16230903D02*
X11939929Y-16221379D01*
X11939929Y-16221379D02*
X11949453Y-16202331D01*
X11949453Y-16202331D02*
X11958977Y-16192808D01*
X11958977Y-16192808D02*
X11978025Y-16183284D01*
X11978025Y-16183284D02*
X12016120Y-16183284D01*
X12016120Y-16183284D02*
X12035168Y-16192808D01*
X12035168Y-16192808D02*
X12044691Y-16202331D01*
X12044691Y-16202331D02*
X12054215Y-16221379D01*
X12054215Y-16221379D02*
X12054215Y-16230903D01*
X12054215Y-16230903D02*
X12044691Y-16249950D01*
X12044691Y-16249950D02*
X12035168Y-16259474D01*
X12035168Y-16259474D02*
X12016120Y-16268998D01*
X12016120Y-16268998D02*
X11978025Y-16268998D01*
X11978025Y-16268998D02*
X11958977Y-16278522D01*
X11958977Y-16278522D02*
X11949453Y-16288046D01*
X11949453Y-16288046D02*
X11939929Y-16307093D01*
X11939929Y-16307093D02*
X11939929Y-16345188D01*
X11939929Y-16345188D02*
X11949453Y-16364236D01*
X11949453Y-16364236D02*
X11958977Y-16373760D01*
X11958977Y-16373760D02*
X11978025Y-16383284D01*
X11978025Y-16383284D02*
X12016120Y-16383284D01*
X12016120Y-16383284D02*
X12035168Y-16373760D01*
X12035168Y-16373760D02*
X12044691Y-16364236D01*
X12044691Y-16364236D02*
X12054215Y-16345188D01*
X12054215Y-16345188D02*
X12054215Y-16307093D01*
X12054215Y-16307093D02*
X12044691Y-16288046D01*
X12044691Y-16288046D02*
X12035168Y-16278522D01*
X12035168Y-16278522D02*
X12016120Y-16268998D01*
X12225644Y-16249950D02*
X12225644Y-16383284D01*
X12178025Y-16173760D02*
X12130406Y-16316617D01*
X12130406Y-16316617D02*
X12254215Y-16316617D01*
X12482787Y-16383284D02*
X12482787Y-16183284D01*
X12568501Y-16383284D02*
X12568501Y-16278522D01*
X12568501Y-16278522D02*
X12558977Y-16259474D01*
X12558977Y-16259474D02*
X12539930Y-16249950D01*
X12539930Y-16249950D02*
X12511358Y-16249950D01*
X12511358Y-16249950D02*
X12492310Y-16259474D01*
X12492310Y-16259474D02*
X12482787Y-16268998D01*
X12692310Y-16383284D02*
X12673263Y-16373760D01*
X12673263Y-16373760D02*
X12663739Y-16364236D01*
X12663739Y-16364236D02*
X12654215Y-16345188D01*
X12654215Y-16345188D02*
X12654215Y-16288046D01*
X12654215Y-16288046D02*
X12663739Y-16268998D01*
X12663739Y-16268998D02*
X12673263Y-16259474D01*
X12673263Y-16259474D02*
X12692310Y-16249950D01*
X12692310Y-16249950D02*
X12720882Y-16249950D01*
X12720882Y-16249950D02*
X12739930Y-16259474D01*
X12739930Y-16259474D02*
X12749453Y-16268998D01*
X12749453Y-16268998D02*
X12758977Y-16288046D01*
X12758977Y-16288046D02*
X12758977Y-16345188D01*
X12758977Y-16345188D02*
X12749453Y-16364236D01*
X12749453Y-16364236D02*
X12739930Y-16373760D01*
X12739930Y-16373760D02*
X12720882Y-16383284D01*
X12720882Y-16383284D02*
X12692310Y-16383284D01*
X12873263Y-16383284D02*
X12854215Y-16373760D01*
X12854215Y-16373760D02*
X12844691Y-16354712D01*
X12844691Y-16354712D02*
X12844691Y-16183284D01*
X13025644Y-16373760D02*
X13006596Y-16383284D01*
X13006596Y-16383284D02*
X12968501Y-16383284D01*
X12968501Y-16383284D02*
X12949453Y-16373760D01*
X12949453Y-16373760D02*
X12939930Y-16354712D01*
X12939930Y-16354712D02*
X12939930Y-16278522D01*
X12939930Y-16278522D02*
X12949453Y-16259474D01*
X12949453Y-16259474D02*
X12968501Y-16249950D01*
X12968501Y-16249950D02*
X13006596Y-16249950D01*
X13006596Y-16249950D02*
X13025644Y-16259474D01*
X13025644Y-16259474D02*
X13035168Y-16278522D01*
X13035168Y-16278522D02*
X13035168Y-16297569D01*
X13035168Y-16297569D02*
X12939930Y-16316617D01*
X13111358Y-16373760D02*
X13130406Y-16383284D01*
X13130406Y-16383284D02*
X13168501Y-16383284D01*
X13168501Y-16383284D02*
X13187549Y-16373760D01*
X13187549Y-16373760D02*
X13197072Y-16354712D01*
X13197072Y-16354712D02*
X13197072Y-16345188D01*
X13197072Y-16345188D02*
X13187549Y-16326141D01*
X13187549Y-16326141D02*
X13168501Y-16316617D01*
X13168501Y-16316617D02*
X13139930Y-16316617D01*
X13139930Y-16316617D02*
X13120882Y-16307093D01*
X13120882Y-16307093D02*
X13111358Y-16288046D01*
X13111358Y-16288046D02*
X13111358Y-16278522D01*
X13111358Y-16278522D02*
X13120882Y-16259474D01*
X13120882Y-16259474D02*
X13139930Y-16249950D01*
X13139930Y-16249950D02*
X13168501Y-16249950D01*
X13168501Y-16249950D02*
X13187549Y-16259474D01*
X13263739Y-16459474D02*
X13273263Y-16449950D01*
X13273263Y-16449950D02*
X13292311Y-16421379D01*
X13292311Y-16421379D02*
X13301834Y-16402331D01*
X13301834Y-16402331D02*
X13311358Y-16373760D01*
X13311358Y-16373760D02*
X13320882Y-16326141D01*
X13320882Y-16326141D02*
X13320882Y-16288046D01*
X13320882Y-16288046D02*
X13311358Y-16240427D01*
X13311358Y-16240427D02*
X13301834Y-16211855D01*
X13301834Y-16211855D02*
X13292311Y-16192808D01*
X13292311Y-16192808D02*
X13273263Y-16164236D01*
X13273263Y-16164236D02*
X13263739Y-16154712D01*
D10*
X8298200Y-16555800D02*
G75*
G03*
X8198200Y-16555800I-50000J0D01*
G01*
X8198200Y-16555800D02*
G75*
G03*
X8298200Y-16555800I50000J0D01*
G01*
D11*
X8663739Y-16647284D02*
X8549453Y-16647284D01*
X8606596Y-16647284D02*
X8606596Y-16447284D01*
X8606596Y-16447284D02*
X8587548Y-16475855D01*
X8587548Y-16475855D02*
X8568501Y-16494903D01*
X8568501Y-16494903D02*
X8549453Y-16504427D01*
X8749453Y-16628236D02*
X8758977Y-16637760D01*
X8758977Y-16637760D02*
X8749453Y-16647284D01*
X8749453Y-16647284D02*
X8739929Y-16637760D01*
X8739929Y-16637760D02*
X8749453Y-16628236D01*
X8749453Y-16628236D02*
X8749453Y-16647284D01*
X8882786Y-16447284D02*
X8901834Y-16447284D01*
X8901834Y-16447284D02*
X8920882Y-16456808D01*
X8920882Y-16456808D02*
X8930405Y-16466331D01*
X8930405Y-16466331D02*
X8939929Y-16485379D01*
X8939929Y-16485379D02*
X8949453Y-16523474D01*
X8949453Y-16523474D02*
X8949453Y-16571093D01*
X8949453Y-16571093D02*
X8939929Y-16609188D01*
X8939929Y-16609188D02*
X8930405Y-16628236D01*
X8930405Y-16628236D02*
X8920882Y-16637760D01*
X8920882Y-16637760D02*
X8901834Y-16647284D01*
X8901834Y-16647284D02*
X8882786Y-16647284D01*
X8882786Y-16647284D02*
X8863739Y-16637760D01*
X8863739Y-16637760D02*
X8854215Y-16628236D01*
X8854215Y-16628236D02*
X8844691Y-16609188D01*
X8844691Y-16609188D02*
X8835167Y-16571093D01*
X8835167Y-16571093D02*
X8835167Y-16523474D01*
X8835167Y-16523474D02*
X8844691Y-16485379D01*
X8844691Y-16485379D02*
X8854215Y-16466331D01*
X8854215Y-16466331D02*
X8863739Y-16456808D01*
X8863739Y-16456808D02*
X8882786Y-16447284D01*
X9073263Y-16447284D02*
X9092310Y-16447284D01*
X9092310Y-16447284D02*
X9111358Y-16456808D01*
X9111358Y-16456808D02*
X9120882Y-16466331D01*
X9120882Y-16466331D02*
X9130405Y-16485379D01*
X9130405Y-16485379D02*
X9139929Y-16523474D01*
X9139929Y-16523474D02*
X9139929Y-16571093D01*
X9139929Y-16571093D02*
X9130405Y-16609188D01*
X9130405Y-16609188D02*
X9120882Y-16628236D01*
X9120882Y-16628236D02*
X9111358Y-16637760D01*
X9111358Y-16637760D02*
X9092310Y-16647284D01*
X9092310Y-16647284D02*
X9073263Y-16647284D01*
X9073263Y-16647284D02*
X9054215Y-16637760D01*
X9054215Y-16637760D02*
X9044691Y-16628236D01*
X9044691Y-16628236D02*
X9035167Y-16609188D01*
X9035167Y-16609188D02*
X9025644Y-16571093D01*
X9025644Y-16571093D02*
X9025644Y-16523474D01*
X9025644Y-16523474D02*
X9035167Y-16485379D01*
X9035167Y-16485379D02*
X9044691Y-16466331D01*
X9044691Y-16466331D02*
X9054215Y-16456808D01*
X9054215Y-16456808D02*
X9073263Y-16447284D01*
X9263739Y-16447284D02*
X9282786Y-16447284D01*
X9282786Y-16447284D02*
X9301834Y-16456808D01*
X9301834Y-16456808D02*
X9311358Y-16466331D01*
X9311358Y-16466331D02*
X9320882Y-16485379D01*
X9320882Y-16485379D02*
X9330405Y-16523474D01*
X9330405Y-16523474D02*
X9330405Y-16571093D01*
X9330405Y-16571093D02*
X9320882Y-16609188D01*
X9320882Y-16609188D02*
X9311358Y-16628236D01*
X9311358Y-16628236D02*
X9301834Y-16637760D01*
X9301834Y-16637760D02*
X9282786Y-16647284D01*
X9282786Y-16647284D02*
X9263739Y-16647284D01*
X9263739Y-16647284D02*
X9244691Y-16637760D01*
X9244691Y-16637760D02*
X9235167Y-16628236D01*
X9235167Y-16628236D02*
X9225644Y-16609188D01*
X9225644Y-16609188D02*
X9216120Y-16571093D01*
X9216120Y-16571093D02*
X9216120Y-16523474D01*
X9216120Y-16523474D02*
X9225644Y-16485379D01*
X9225644Y-16485379D02*
X9235167Y-16466331D01*
X9235167Y-16466331D02*
X9244691Y-16456808D01*
X9244691Y-16456808D02*
X9263739Y-16447284D01*
X9416120Y-16647284D02*
X9416120Y-16513950D01*
X9416120Y-16532998D02*
X9425644Y-16523474D01*
X9425644Y-16523474D02*
X9444691Y-16513950D01*
X9444691Y-16513950D02*
X9473263Y-16513950D01*
X9473263Y-16513950D02*
X9492310Y-16523474D01*
X9492310Y-16523474D02*
X9501834Y-16542522D01*
X9501834Y-16542522D02*
X9501834Y-16647284D01*
X9501834Y-16542522D02*
X9511358Y-16523474D01*
X9511358Y-16523474D02*
X9530405Y-16513950D01*
X9530405Y-16513950D02*
X9558977Y-16513950D01*
X9558977Y-16513950D02*
X9578025Y-16523474D01*
X9578025Y-16523474D02*
X9587548Y-16542522D01*
X9587548Y-16542522D02*
X9587548Y-16647284D01*
X9682786Y-16647284D02*
X9682786Y-16513950D01*
X9682786Y-16532998D02*
X9692310Y-16523474D01*
X9692310Y-16523474D02*
X9711358Y-16513950D01*
X9711358Y-16513950D02*
X9739929Y-16513950D01*
X9739929Y-16513950D02*
X9758977Y-16523474D01*
X9758977Y-16523474D02*
X9768501Y-16542522D01*
X9768501Y-16542522D02*
X9768501Y-16647284D01*
X9768501Y-16542522D02*
X9778025Y-16523474D01*
X9778025Y-16523474D02*
X9797072Y-16513950D01*
X9797072Y-16513950D02*
X9825644Y-16513950D01*
X9825644Y-16513950D02*
X9844691Y-16523474D01*
X9844691Y-16523474D02*
X9854215Y-16542522D01*
X9854215Y-16542522D02*
X9854215Y-16647284D01*
X10244691Y-16437760D02*
X10073263Y-16694903D01*
X10501834Y-16447284D02*
X10520882Y-16447284D01*
X10520882Y-16447284D02*
X10539929Y-16456808D01*
X10539929Y-16456808D02*
X10549453Y-16466331D01*
X10549453Y-16466331D02*
X10558977Y-16485379D01*
X10558977Y-16485379D02*
X10568501Y-16523474D01*
X10568501Y-16523474D02*
X10568501Y-16571093D01*
X10568501Y-16571093D02*
X10558977Y-16609188D01*
X10558977Y-16609188D02*
X10549453Y-16628236D01*
X10549453Y-16628236D02*
X10539929Y-16637760D01*
X10539929Y-16637760D02*
X10520882Y-16647284D01*
X10520882Y-16647284D02*
X10501834Y-16647284D01*
X10501834Y-16647284D02*
X10482787Y-16637760D01*
X10482787Y-16637760D02*
X10473263Y-16628236D01*
X10473263Y-16628236D02*
X10463739Y-16609188D01*
X10463739Y-16609188D02*
X10454215Y-16571093D01*
X10454215Y-16571093D02*
X10454215Y-16523474D01*
X10454215Y-16523474D02*
X10463739Y-16485379D01*
X10463739Y-16485379D02*
X10473263Y-16466331D01*
X10473263Y-16466331D02*
X10482787Y-16456808D01*
X10482787Y-16456808D02*
X10501834Y-16447284D01*
X10654215Y-16628236D02*
X10663739Y-16637760D01*
X10663739Y-16637760D02*
X10654215Y-16647284D01*
X10654215Y-16647284D02*
X10644691Y-16637760D01*
X10644691Y-16637760D02*
X10654215Y-16628236D01*
X10654215Y-16628236D02*
X10654215Y-16647284D01*
X10787548Y-16447284D02*
X10806596Y-16447284D01*
X10806596Y-16447284D02*
X10825644Y-16456808D01*
X10825644Y-16456808D02*
X10835168Y-16466331D01*
X10835168Y-16466331D02*
X10844691Y-16485379D01*
X10844691Y-16485379D02*
X10854215Y-16523474D01*
X10854215Y-16523474D02*
X10854215Y-16571093D01*
X10854215Y-16571093D02*
X10844691Y-16609188D01*
X10844691Y-16609188D02*
X10835168Y-16628236D01*
X10835168Y-16628236D02*
X10825644Y-16637760D01*
X10825644Y-16637760D02*
X10806596Y-16647284D01*
X10806596Y-16647284D02*
X10787548Y-16647284D01*
X10787548Y-16647284D02*
X10768501Y-16637760D01*
X10768501Y-16637760D02*
X10758977Y-16628236D01*
X10758977Y-16628236D02*
X10749453Y-16609188D01*
X10749453Y-16609188D02*
X10739929Y-16571093D01*
X10739929Y-16571093D02*
X10739929Y-16523474D01*
X10739929Y-16523474D02*
X10749453Y-16485379D01*
X10749453Y-16485379D02*
X10758977Y-16466331D01*
X10758977Y-16466331D02*
X10768501Y-16456808D01*
X10768501Y-16456808D02*
X10787548Y-16447284D01*
X10920882Y-16447284D02*
X11044691Y-16447284D01*
X11044691Y-16447284D02*
X10978025Y-16523474D01*
X10978025Y-16523474D02*
X11006596Y-16523474D01*
X11006596Y-16523474D02*
X11025644Y-16532998D01*
X11025644Y-16532998D02*
X11035168Y-16542522D01*
X11035168Y-16542522D02*
X11044691Y-16561569D01*
X11044691Y-16561569D02*
X11044691Y-16609188D01*
X11044691Y-16609188D02*
X11035168Y-16628236D01*
X11035168Y-16628236D02*
X11025644Y-16637760D01*
X11025644Y-16637760D02*
X11006596Y-16647284D01*
X11006596Y-16647284D02*
X10949453Y-16647284D01*
X10949453Y-16647284D02*
X10930406Y-16637760D01*
X10930406Y-16637760D02*
X10920882Y-16628236D01*
X11139929Y-16647284D02*
X11178025Y-16647284D01*
X11178025Y-16647284D02*
X11197072Y-16637760D01*
X11197072Y-16637760D02*
X11206596Y-16628236D01*
X11206596Y-16628236D02*
X11225644Y-16599665D01*
X11225644Y-16599665D02*
X11235167Y-16561569D01*
X11235167Y-16561569D02*
X11235167Y-16485379D01*
X11235167Y-16485379D02*
X11225644Y-16466331D01*
X11225644Y-16466331D02*
X11216120Y-16456808D01*
X11216120Y-16456808D02*
X11197072Y-16447284D01*
X11197072Y-16447284D02*
X11158977Y-16447284D01*
X11158977Y-16447284D02*
X11139929Y-16456808D01*
X11139929Y-16456808D02*
X11130406Y-16466331D01*
X11130406Y-16466331D02*
X11120882Y-16485379D01*
X11120882Y-16485379D02*
X11120882Y-16532998D01*
X11120882Y-16532998D02*
X11130406Y-16552046D01*
X11130406Y-16552046D02*
X11139929Y-16561569D01*
X11139929Y-16561569D02*
X11158977Y-16571093D01*
X11158977Y-16571093D02*
X11197072Y-16571093D01*
X11197072Y-16571093D02*
X11216120Y-16561569D01*
X11216120Y-16561569D02*
X11225644Y-16552046D01*
X11225644Y-16552046D02*
X11235167Y-16532998D01*
X11406596Y-16513950D02*
X11406596Y-16647284D01*
X11358977Y-16437760D02*
X11311358Y-16580617D01*
X11311358Y-16580617D02*
X11435167Y-16580617D01*
X11501834Y-16447284D02*
X11501834Y-16485379D01*
X11578025Y-16447284D02*
X11578025Y-16485379D01*
X11873263Y-16723474D02*
X11863739Y-16713950D01*
X11863739Y-16713950D02*
X11844691Y-16685379D01*
X11844691Y-16685379D02*
X11835168Y-16666331D01*
X11835168Y-16666331D02*
X11825644Y-16637760D01*
X11825644Y-16637760D02*
X11816120Y-16590141D01*
X11816120Y-16590141D02*
X11816120Y-16552046D01*
X11816120Y-16552046D02*
X11825644Y-16504427D01*
X11825644Y-16504427D02*
X11835168Y-16475855D01*
X11835168Y-16475855D02*
X11844691Y-16456808D01*
X11844691Y-16456808D02*
X11863739Y-16428236D01*
X11863739Y-16428236D02*
X11873263Y-16418712D01*
X11978025Y-16532998D02*
X11958977Y-16523474D01*
X11958977Y-16523474D02*
X11949453Y-16513950D01*
X11949453Y-16513950D02*
X11939929Y-16494903D01*
X11939929Y-16494903D02*
X11939929Y-16485379D01*
X11939929Y-16485379D02*
X11949453Y-16466331D01*
X11949453Y-16466331D02*
X11958977Y-16456808D01*
X11958977Y-16456808D02*
X11978025Y-16447284D01*
X11978025Y-16447284D02*
X12016120Y-16447284D01*
X12016120Y-16447284D02*
X12035168Y-16456808D01*
X12035168Y-16456808D02*
X12044691Y-16466331D01*
X12044691Y-16466331D02*
X12054215Y-16485379D01*
X12054215Y-16485379D02*
X12054215Y-16494903D01*
X12054215Y-16494903D02*
X12044691Y-16513950D01*
X12044691Y-16513950D02*
X12035168Y-16523474D01*
X12035168Y-16523474D02*
X12016120Y-16532998D01*
X12016120Y-16532998D02*
X11978025Y-16532998D01*
X11978025Y-16532998D02*
X11958977Y-16542522D01*
X11958977Y-16542522D02*
X11949453Y-16552046D01*
X11949453Y-16552046D02*
X11939929Y-16571093D01*
X11939929Y-16571093D02*
X11939929Y-16609188D01*
X11939929Y-16609188D02*
X11949453Y-16628236D01*
X11949453Y-16628236D02*
X11958977Y-16637760D01*
X11958977Y-16637760D02*
X11978025Y-16647284D01*
X11978025Y-16647284D02*
X12016120Y-16647284D01*
X12016120Y-16647284D02*
X12035168Y-16637760D01*
X12035168Y-16637760D02*
X12044691Y-16628236D01*
X12044691Y-16628236D02*
X12054215Y-16609188D01*
X12054215Y-16609188D02*
X12054215Y-16571093D01*
X12054215Y-16571093D02*
X12044691Y-16552046D01*
X12044691Y-16552046D02*
X12035168Y-16542522D01*
X12035168Y-16542522D02*
X12016120Y-16532998D01*
X12292310Y-16647284D02*
X12292310Y-16447284D01*
X12378025Y-16647284D02*
X12378025Y-16542522D01*
X12378025Y-16542522D02*
X12368501Y-16523474D01*
X12368501Y-16523474D02*
X12349453Y-16513950D01*
X12349453Y-16513950D02*
X12320882Y-16513950D01*
X12320882Y-16513950D02*
X12301834Y-16523474D01*
X12301834Y-16523474D02*
X12292310Y-16532998D01*
X12501834Y-16647284D02*
X12482787Y-16637760D01*
X12482787Y-16637760D02*
X12473263Y-16628236D01*
X12473263Y-16628236D02*
X12463739Y-16609188D01*
X12463739Y-16609188D02*
X12463739Y-16552046D01*
X12463739Y-16552046D02*
X12473263Y-16532998D01*
X12473263Y-16532998D02*
X12482787Y-16523474D01*
X12482787Y-16523474D02*
X12501834Y-16513950D01*
X12501834Y-16513950D02*
X12530406Y-16513950D01*
X12530406Y-16513950D02*
X12549453Y-16523474D01*
X12549453Y-16523474D02*
X12558977Y-16532998D01*
X12558977Y-16532998D02*
X12568501Y-16552046D01*
X12568501Y-16552046D02*
X12568501Y-16609188D01*
X12568501Y-16609188D02*
X12558977Y-16628236D01*
X12558977Y-16628236D02*
X12549453Y-16637760D01*
X12549453Y-16637760D02*
X12530406Y-16647284D01*
X12530406Y-16647284D02*
X12501834Y-16647284D01*
X12682787Y-16647284D02*
X12663739Y-16637760D01*
X12663739Y-16637760D02*
X12654215Y-16618712D01*
X12654215Y-16618712D02*
X12654215Y-16447284D01*
X12835168Y-16637760D02*
X12816120Y-16647284D01*
X12816120Y-16647284D02*
X12778025Y-16647284D01*
X12778025Y-16647284D02*
X12758977Y-16637760D01*
X12758977Y-16637760D02*
X12749453Y-16618712D01*
X12749453Y-16618712D02*
X12749453Y-16542522D01*
X12749453Y-16542522D02*
X12758977Y-16523474D01*
X12758977Y-16523474D02*
X12778025Y-16513950D01*
X12778025Y-16513950D02*
X12816120Y-16513950D01*
X12816120Y-16513950D02*
X12835168Y-16523474D01*
X12835168Y-16523474D02*
X12844691Y-16542522D01*
X12844691Y-16542522D02*
X12844691Y-16561569D01*
X12844691Y-16561569D02*
X12749453Y-16580617D01*
X12920882Y-16637760D02*
X12939930Y-16647284D01*
X12939930Y-16647284D02*
X12978025Y-16647284D01*
X12978025Y-16647284D02*
X12997072Y-16637760D01*
X12997072Y-16637760D02*
X13006596Y-16618712D01*
X13006596Y-16618712D02*
X13006596Y-16609188D01*
X13006596Y-16609188D02*
X12997072Y-16590141D01*
X12997072Y-16590141D02*
X12978025Y-16580617D01*
X12978025Y-16580617D02*
X12949453Y-16580617D01*
X12949453Y-16580617D02*
X12930406Y-16571093D01*
X12930406Y-16571093D02*
X12920882Y-16552046D01*
X12920882Y-16552046D02*
X12920882Y-16542522D01*
X12920882Y-16542522D02*
X12930406Y-16523474D01*
X12930406Y-16523474D02*
X12949453Y-16513950D01*
X12949453Y-16513950D02*
X12978025Y-16513950D01*
X12978025Y-16513950D02*
X12997072Y-16523474D01*
X13073263Y-16723474D02*
X13082787Y-16713950D01*
X13082787Y-16713950D02*
X13101834Y-16685379D01*
X13101834Y-16685379D02*
X13111358Y-16666331D01*
X13111358Y-16666331D02*
X13120882Y-16637760D01*
X13120882Y-16637760D02*
X13130406Y-16590141D01*
X13130406Y-16590141D02*
X13130406Y-16552046D01*
X13130406Y-16552046D02*
X13120882Y-16504427D01*
X13120882Y-16504427D02*
X13111358Y-16475855D01*
X13111358Y-16475855D02*
X13101834Y-16456808D01*
X13101834Y-16456808D02*
X13082787Y-16428236D01*
X13082787Y-16428236D02*
X13073263Y-16418712D01*
M02*
