G04 #@! TF.GenerationSoftware,KiCad,Pcbnew,7.0.7*
G04 #@! TF.CreationDate,2023-10-13T16:37:57+02:00*
G04 #@! TF.ProjectId,ithowifi_4l,6974686f-7769-4666-995f-346c2e6b6963,rev?*
G04 #@! TF.SameCoordinates,Original*
G04 #@! TF.FileFunction,Legend,Bot*
G04 #@! TF.FilePolarity,Positive*
%FSLAX46Y46*%
G04 Gerber Fmt 4.6, Leading zero omitted, Abs format (unit mm)*
G04 Created by KiCad (PCBNEW 7.0.7) date 2023-10-13 16:37:57*
%MOMM*%
%LPD*%
G01*
G04 APERTURE LIST*
%ADD10C,0.200000*%
%ADD11C,0.150000*%
%ADD12C,0.120000*%
%ADD13C,0.100000*%
%ADD14C,0.635000*%
G04 APERTURE END LIST*
D10*
X86951963Y-126225092D02*
X85705963Y-126225092D01*
X86121296Y-126640425D02*
X86121296Y-127115092D01*
X85705963Y-126818425D02*
X86773963Y-126818425D01*
X86773963Y-126818425D02*
X86892630Y-126877759D01*
X86892630Y-126877759D02*
X86951963Y-126996425D01*
X86951963Y-126996425D02*
X86951963Y-127115092D01*
X86951963Y-127530425D02*
X85705963Y-127530425D01*
X86951963Y-128064425D02*
X86299296Y-128064425D01*
X86299296Y-128064425D02*
X86180630Y-128005092D01*
X86180630Y-128005092D02*
X86121296Y-127886425D01*
X86121296Y-127886425D02*
X86121296Y-127708425D01*
X86121296Y-127708425D02*
X86180630Y-127589759D01*
X86180630Y-127589759D02*
X86239963Y-127530425D01*
X86951963Y-128835758D02*
X86892630Y-128717092D01*
X86892630Y-128717092D02*
X86833296Y-128657758D01*
X86833296Y-128657758D02*
X86714630Y-128598425D01*
X86714630Y-128598425D02*
X86358630Y-128598425D01*
X86358630Y-128598425D02*
X86239963Y-128657758D01*
X86239963Y-128657758D02*
X86180630Y-128717092D01*
X86180630Y-128717092D02*
X86121296Y-128835758D01*
X86121296Y-128835758D02*
X86121296Y-129013758D01*
X86121296Y-129013758D02*
X86180630Y-129132425D01*
X86180630Y-129132425D02*
X86239963Y-129191758D01*
X86239963Y-129191758D02*
X86358630Y-129251092D01*
X86358630Y-129251092D02*
X86714630Y-129251092D01*
X86714630Y-129251092D02*
X86833296Y-129191758D01*
X86833296Y-129191758D02*
X86892630Y-129132425D01*
X86892630Y-129132425D02*
X86951963Y-129013758D01*
X86951963Y-129013758D02*
X86951963Y-128835758D01*
X86833296Y-131446424D02*
X86892630Y-131387091D01*
X86892630Y-131387091D02*
X86951963Y-131209091D01*
X86951963Y-131209091D02*
X86951963Y-131090424D01*
X86951963Y-131090424D02*
X86892630Y-130912424D01*
X86892630Y-130912424D02*
X86773963Y-130793758D01*
X86773963Y-130793758D02*
X86655296Y-130734424D01*
X86655296Y-130734424D02*
X86417963Y-130675091D01*
X86417963Y-130675091D02*
X86239963Y-130675091D01*
X86239963Y-130675091D02*
X86002630Y-130734424D01*
X86002630Y-130734424D02*
X85883963Y-130793758D01*
X85883963Y-130793758D02*
X85765296Y-130912424D01*
X85765296Y-130912424D02*
X85705963Y-131090424D01*
X85705963Y-131090424D02*
X85705963Y-131209091D01*
X85705963Y-131209091D02*
X85765296Y-131387091D01*
X85765296Y-131387091D02*
X85824630Y-131446424D01*
X85705963Y-131802424D02*
X86951963Y-132217758D01*
X86951963Y-132217758D02*
X85705963Y-132633091D01*
X86299296Y-133048424D02*
X86299296Y-133463758D01*
X86951963Y-133641758D02*
X86951963Y-133048424D01*
X86951963Y-133048424D02*
X85705963Y-133048424D01*
X85705963Y-133048424D02*
X85705963Y-133641758D01*
X85705963Y-135006424D02*
X86951963Y-135303090D01*
X86951963Y-135303090D02*
X86061963Y-135540424D01*
X86061963Y-135540424D02*
X86951963Y-135777757D01*
X86951963Y-135777757D02*
X85705963Y-136074424D01*
X86951963Y-136549090D02*
X86121296Y-136549090D01*
X85705963Y-136549090D02*
X85765296Y-136489757D01*
X85765296Y-136489757D02*
X85824630Y-136549090D01*
X85824630Y-136549090D02*
X85765296Y-136608424D01*
X85765296Y-136608424D02*
X85705963Y-136549090D01*
X85705963Y-136549090D02*
X85824630Y-136549090D01*
X86299296Y-137557757D02*
X86299296Y-137142423D01*
X86951963Y-137142423D02*
X85705963Y-137142423D01*
X85705963Y-137142423D02*
X85705963Y-137735757D01*
X86951963Y-138210423D02*
X86121296Y-138210423D01*
X85705963Y-138210423D02*
X85765296Y-138151090D01*
X85765296Y-138151090D02*
X85824630Y-138210423D01*
X85824630Y-138210423D02*
X85765296Y-138269757D01*
X85765296Y-138269757D02*
X85705963Y-138210423D01*
X85705963Y-138210423D02*
X85824630Y-138210423D01*
X86833296Y-140465089D02*
X86892630Y-140405756D01*
X86892630Y-140405756D02*
X86951963Y-140227756D01*
X86951963Y-140227756D02*
X86951963Y-140109089D01*
X86951963Y-140109089D02*
X86892630Y-139931089D01*
X86892630Y-139931089D02*
X86773963Y-139812423D01*
X86773963Y-139812423D02*
X86655296Y-139753089D01*
X86655296Y-139753089D02*
X86417963Y-139693756D01*
X86417963Y-139693756D02*
X86239963Y-139693756D01*
X86239963Y-139693756D02*
X86002630Y-139753089D01*
X86002630Y-139753089D02*
X85883963Y-139812423D01*
X85883963Y-139812423D02*
X85765296Y-139931089D01*
X85765296Y-139931089D02*
X85705963Y-140109089D01*
X85705963Y-140109089D02*
X85705963Y-140227756D01*
X85705963Y-140227756D02*
X85765296Y-140405756D01*
X85765296Y-140405756D02*
X85824630Y-140465089D01*
X86951963Y-141177089D02*
X86892630Y-141058423D01*
X86892630Y-141058423D02*
X86833296Y-140999089D01*
X86833296Y-140999089D02*
X86714630Y-140939756D01*
X86714630Y-140939756D02*
X86358630Y-140939756D01*
X86358630Y-140939756D02*
X86239963Y-140999089D01*
X86239963Y-140999089D02*
X86180630Y-141058423D01*
X86180630Y-141058423D02*
X86121296Y-141177089D01*
X86121296Y-141177089D02*
X86121296Y-141355089D01*
X86121296Y-141355089D02*
X86180630Y-141473756D01*
X86180630Y-141473756D02*
X86239963Y-141533089D01*
X86239963Y-141533089D02*
X86358630Y-141592423D01*
X86358630Y-141592423D02*
X86714630Y-141592423D01*
X86714630Y-141592423D02*
X86833296Y-141533089D01*
X86833296Y-141533089D02*
X86892630Y-141473756D01*
X86892630Y-141473756D02*
X86951963Y-141355089D01*
X86951963Y-141355089D02*
X86951963Y-141177089D01*
X86121296Y-142126422D02*
X86951963Y-142126422D01*
X86239963Y-142126422D02*
X86180630Y-142185756D01*
X86180630Y-142185756D02*
X86121296Y-142304422D01*
X86121296Y-142304422D02*
X86121296Y-142482422D01*
X86121296Y-142482422D02*
X86180630Y-142601089D01*
X86180630Y-142601089D02*
X86299296Y-142660422D01*
X86299296Y-142660422D02*
X86951963Y-142660422D01*
X86121296Y-143075755D02*
X86121296Y-143550422D01*
X85705963Y-143253755D02*
X86773963Y-143253755D01*
X86773963Y-143253755D02*
X86892630Y-143313089D01*
X86892630Y-143313089D02*
X86951963Y-143431755D01*
X86951963Y-143431755D02*
X86951963Y-143550422D01*
X86951963Y-143965755D02*
X86121296Y-143965755D01*
X86358630Y-143965755D02*
X86239963Y-144025089D01*
X86239963Y-144025089D02*
X86180630Y-144084422D01*
X86180630Y-144084422D02*
X86121296Y-144203089D01*
X86121296Y-144203089D02*
X86121296Y-144321755D01*
X86951963Y-144915088D02*
X86892630Y-144796422D01*
X86892630Y-144796422D02*
X86833296Y-144737088D01*
X86833296Y-144737088D02*
X86714630Y-144677755D01*
X86714630Y-144677755D02*
X86358630Y-144677755D01*
X86358630Y-144677755D02*
X86239963Y-144737088D01*
X86239963Y-144737088D02*
X86180630Y-144796422D01*
X86180630Y-144796422D02*
X86121296Y-144915088D01*
X86121296Y-144915088D02*
X86121296Y-145093088D01*
X86121296Y-145093088D02*
X86180630Y-145211755D01*
X86180630Y-145211755D02*
X86239963Y-145271088D01*
X86239963Y-145271088D02*
X86358630Y-145330422D01*
X86358630Y-145330422D02*
X86714630Y-145330422D01*
X86714630Y-145330422D02*
X86833296Y-145271088D01*
X86833296Y-145271088D02*
X86892630Y-145211755D01*
X86892630Y-145211755D02*
X86951963Y-145093088D01*
X86951963Y-145093088D02*
X86951963Y-144915088D01*
X86951963Y-146042421D02*
X86892630Y-145923755D01*
X86892630Y-145923755D02*
X86773963Y-145864421D01*
X86773963Y-145864421D02*
X85705963Y-145864421D01*
X86951963Y-146695088D02*
X86892630Y-146576422D01*
X86892630Y-146576422D02*
X86773963Y-146517088D01*
X86773963Y-146517088D02*
X85705963Y-146517088D01*
X86892630Y-147644422D02*
X86951963Y-147525755D01*
X86951963Y-147525755D02*
X86951963Y-147288422D01*
X86951963Y-147288422D02*
X86892630Y-147169755D01*
X86892630Y-147169755D02*
X86773963Y-147110422D01*
X86773963Y-147110422D02*
X86299296Y-147110422D01*
X86299296Y-147110422D02*
X86180630Y-147169755D01*
X86180630Y-147169755D02*
X86121296Y-147288422D01*
X86121296Y-147288422D02*
X86121296Y-147525755D01*
X86121296Y-147525755D02*
X86180630Y-147644422D01*
X86180630Y-147644422D02*
X86299296Y-147703755D01*
X86299296Y-147703755D02*
X86417963Y-147703755D01*
X86417963Y-147703755D02*
X86536630Y-147110422D01*
X86951963Y-148237755D02*
X86121296Y-148237755D01*
X86358630Y-148237755D02*
X86239963Y-148297089D01*
X86239963Y-148297089D02*
X86180630Y-148356422D01*
X86180630Y-148356422D02*
X86121296Y-148475089D01*
X86121296Y-148475089D02*
X86121296Y-148593755D01*
X88602023Y-119461092D02*
X88602023Y-120054425D01*
X88958023Y-119342425D02*
X87712023Y-119757759D01*
X87712023Y-119757759D02*
X88958023Y-120173092D01*
X88958023Y-120588425D02*
X88127356Y-120588425D01*
X88364690Y-120588425D02*
X88246023Y-120647759D01*
X88246023Y-120647759D02*
X88186690Y-120707092D01*
X88186690Y-120707092D02*
X88127356Y-120825759D01*
X88127356Y-120825759D02*
X88127356Y-120944425D01*
X88127356Y-121359758D02*
X89195356Y-121359758D01*
X89195356Y-121359758D02*
X89314023Y-121300425D01*
X89314023Y-121300425D02*
X89373356Y-121181758D01*
X89373356Y-121181758D02*
X89373356Y-121122425D01*
X87712023Y-121359758D02*
X87771356Y-121300425D01*
X87771356Y-121300425D02*
X87830690Y-121359758D01*
X87830690Y-121359758D02*
X87771356Y-121419092D01*
X87771356Y-121419092D02*
X87712023Y-121359758D01*
X87712023Y-121359758D02*
X87830690Y-121359758D01*
X88898690Y-122427758D02*
X88958023Y-122309091D01*
X88958023Y-122309091D02*
X88958023Y-122071758D01*
X88958023Y-122071758D02*
X88898690Y-121953091D01*
X88898690Y-121953091D02*
X88780023Y-121893758D01*
X88780023Y-121893758D02*
X88305356Y-121893758D01*
X88305356Y-121893758D02*
X88186690Y-121953091D01*
X88186690Y-121953091D02*
X88127356Y-122071758D01*
X88127356Y-122071758D02*
X88127356Y-122309091D01*
X88127356Y-122309091D02*
X88186690Y-122427758D01*
X88186690Y-122427758D02*
X88305356Y-122487091D01*
X88305356Y-122487091D02*
X88424023Y-122487091D01*
X88424023Y-122487091D02*
X88542690Y-121893758D01*
X88127356Y-123021091D02*
X88958023Y-123021091D01*
X88246023Y-123021091D02*
X88186690Y-123080425D01*
X88186690Y-123080425D02*
X88127356Y-123199091D01*
X88127356Y-123199091D02*
X88127356Y-123377091D01*
X88127356Y-123377091D02*
X88186690Y-123495758D01*
X88186690Y-123495758D02*
X88305356Y-123555091D01*
X88305356Y-123555091D02*
X88958023Y-123555091D01*
X88958023Y-125097757D02*
X87712023Y-125097757D01*
X88305356Y-125097757D02*
X88305356Y-125809757D01*
X88958023Y-125809757D02*
X87712023Y-125809757D01*
X88958023Y-126403090D02*
X88127356Y-126403090D01*
X87712023Y-126403090D02*
X87771356Y-126343757D01*
X87771356Y-126343757D02*
X87830690Y-126403090D01*
X87830690Y-126403090D02*
X87771356Y-126462424D01*
X87771356Y-126462424D02*
X87712023Y-126403090D01*
X87712023Y-126403090D02*
X87830690Y-126403090D01*
X88898690Y-127471090D02*
X88958023Y-127352423D01*
X88958023Y-127352423D02*
X88958023Y-127115090D01*
X88958023Y-127115090D02*
X88898690Y-126996423D01*
X88898690Y-126996423D02*
X88780023Y-126937090D01*
X88780023Y-126937090D02*
X88305356Y-126937090D01*
X88305356Y-126937090D02*
X88186690Y-126996423D01*
X88186690Y-126996423D02*
X88127356Y-127115090D01*
X88127356Y-127115090D02*
X88127356Y-127352423D01*
X88127356Y-127352423D02*
X88186690Y-127471090D01*
X88186690Y-127471090D02*
X88305356Y-127530423D01*
X88305356Y-127530423D02*
X88424023Y-127530423D01*
X88424023Y-127530423D02*
X88542690Y-126937090D01*
X88958023Y-128064423D02*
X88127356Y-128064423D01*
X88246023Y-128064423D02*
X88186690Y-128123757D01*
X88186690Y-128123757D02*
X88127356Y-128242423D01*
X88127356Y-128242423D02*
X88127356Y-128420423D01*
X88127356Y-128420423D02*
X88186690Y-128539090D01*
X88186690Y-128539090D02*
X88305356Y-128598423D01*
X88305356Y-128598423D02*
X88958023Y-128598423D01*
X88305356Y-128598423D02*
X88186690Y-128657757D01*
X88186690Y-128657757D02*
X88127356Y-128776423D01*
X88127356Y-128776423D02*
X88127356Y-128954423D01*
X88127356Y-128954423D02*
X88186690Y-129073090D01*
X88186690Y-129073090D02*
X88305356Y-129132423D01*
X88305356Y-129132423D02*
X88958023Y-129132423D01*
X88898690Y-129666423D02*
X88958023Y-129785090D01*
X88958023Y-129785090D02*
X88958023Y-130022423D01*
X88958023Y-130022423D02*
X88898690Y-130141090D01*
X88898690Y-130141090D02*
X88780023Y-130200423D01*
X88780023Y-130200423D02*
X88720690Y-130200423D01*
X88720690Y-130200423D02*
X88602023Y-130141090D01*
X88602023Y-130141090D02*
X88542690Y-130022423D01*
X88542690Y-130022423D02*
X88542690Y-129844423D01*
X88542690Y-129844423D02*
X88483356Y-129725756D01*
X88483356Y-129725756D02*
X88364690Y-129666423D01*
X88364690Y-129666423D02*
X88305356Y-129666423D01*
X88305356Y-129666423D02*
X88186690Y-129725756D01*
X88186690Y-129725756D02*
X88127356Y-129844423D01*
X88127356Y-129844423D02*
X88127356Y-130022423D01*
X88127356Y-130022423D02*
X88186690Y-130141090D01*
X88127356Y-130556423D02*
X88127356Y-131031090D01*
X87712023Y-130734423D02*
X88780023Y-130734423D01*
X88780023Y-130734423D02*
X88898690Y-130793757D01*
X88898690Y-130793757D02*
X88958023Y-130912423D01*
X88958023Y-130912423D02*
X88958023Y-131031090D01*
X88958023Y-131446423D02*
X88127356Y-131446423D01*
X88364690Y-131446423D02*
X88246023Y-131505757D01*
X88246023Y-131505757D02*
X88186690Y-131565090D01*
X88186690Y-131565090D02*
X88127356Y-131683757D01*
X88127356Y-131683757D02*
X88127356Y-131802423D01*
X88958023Y-132751756D02*
X88305356Y-132751756D01*
X88305356Y-132751756D02*
X88186690Y-132692423D01*
X88186690Y-132692423D02*
X88127356Y-132573756D01*
X88127356Y-132573756D02*
X88127356Y-132336423D01*
X88127356Y-132336423D02*
X88186690Y-132217756D01*
X88898690Y-132751756D02*
X88958023Y-132633090D01*
X88958023Y-132633090D02*
X88958023Y-132336423D01*
X88958023Y-132336423D02*
X88898690Y-132217756D01*
X88898690Y-132217756D02*
X88780023Y-132158423D01*
X88780023Y-132158423D02*
X88661356Y-132158423D01*
X88661356Y-132158423D02*
X88542690Y-132217756D01*
X88542690Y-132217756D02*
X88483356Y-132336423D01*
X88483356Y-132336423D02*
X88483356Y-132633090D01*
X88483356Y-132633090D02*
X88424023Y-132751756D01*
X88483356Y-134294422D02*
X88483356Y-135243756D01*
X87771356Y-137439089D02*
X87712023Y-137320422D01*
X87712023Y-137320422D02*
X87712023Y-137142422D01*
X87712023Y-137142422D02*
X87771356Y-136964422D01*
X87771356Y-136964422D02*
X87890023Y-136845756D01*
X87890023Y-136845756D02*
X88008690Y-136786422D01*
X88008690Y-136786422D02*
X88246023Y-136727089D01*
X88246023Y-136727089D02*
X88424023Y-136727089D01*
X88424023Y-136727089D02*
X88661356Y-136786422D01*
X88661356Y-136786422D02*
X88780023Y-136845756D01*
X88780023Y-136845756D02*
X88898690Y-136964422D01*
X88898690Y-136964422D02*
X88958023Y-137142422D01*
X88958023Y-137142422D02*
X88958023Y-137261089D01*
X88958023Y-137261089D02*
X88898690Y-137439089D01*
X88898690Y-137439089D02*
X88839356Y-137498422D01*
X88839356Y-137498422D02*
X88424023Y-137498422D01*
X88424023Y-137498422D02*
X88424023Y-137261089D01*
X88958023Y-138032422D02*
X87712023Y-138032422D01*
X87712023Y-138032422D02*
X88958023Y-138744422D01*
X88958023Y-138744422D02*
X87712023Y-138744422D01*
X87712023Y-139337755D02*
X88720690Y-139337755D01*
X88720690Y-139337755D02*
X88839356Y-139397089D01*
X88839356Y-139397089D02*
X88898690Y-139456422D01*
X88898690Y-139456422D02*
X88958023Y-139575089D01*
X88958023Y-139575089D02*
X88958023Y-139812422D01*
X88958023Y-139812422D02*
X88898690Y-139931089D01*
X88898690Y-139931089D02*
X88839356Y-139990422D01*
X88839356Y-139990422D02*
X88720690Y-140049755D01*
X88720690Y-140049755D02*
X87712023Y-140049755D01*
X87771356Y-142245088D02*
X87712023Y-142126421D01*
X87712023Y-142126421D02*
X87712023Y-141948421D01*
X87712023Y-141948421D02*
X87771356Y-141770421D01*
X87771356Y-141770421D02*
X87890023Y-141651755D01*
X87890023Y-141651755D02*
X88008690Y-141592421D01*
X88008690Y-141592421D02*
X88246023Y-141533088D01*
X88246023Y-141533088D02*
X88424023Y-141533088D01*
X88424023Y-141533088D02*
X88661356Y-141592421D01*
X88661356Y-141592421D02*
X88780023Y-141651755D01*
X88780023Y-141651755D02*
X88898690Y-141770421D01*
X88898690Y-141770421D02*
X88958023Y-141948421D01*
X88958023Y-141948421D02*
X88958023Y-142067088D01*
X88958023Y-142067088D02*
X88898690Y-142245088D01*
X88898690Y-142245088D02*
X88839356Y-142304421D01*
X88839356Y-142304421D02*
X88424023Y-142304421D01*
X88424023Y-142304421D02*
X88424023Y-142067088D01*
X88958023Y-142838421D02*
X87712023Y-142838421D01*
X87712023Y-142838421D02*
X87712023Y-143313088D01*
X87712023Y-143313088D02*
X87771356Y-143431755D01*
X87771356Y-143431755D02*
X87830690Y-143491088D01*
X87830690Y-143491088D02*
X87949356Y-143550421D01*
X87949356Y-143550421D02*
X88127356Y-143550421D01*
X88127356Y-143550421D02*
X88246023Y-143491088D01*
X88246023Y-143491088D02*
X88305356Y-143431755D01*
X88305356Y-143431755D02*
X88364690Y-143313088D01*
X88364690Y-143313088D02*
X88364690Y-142838421D01*
X88958023Y-144677755D02*
X88958023Y-144084421D01*
X88958023Y-144084421D02*
X87712023Y-144084421D01*
X87712023Y-145923755D02*
X87712023Y-146695088D01*
X87712023Y-146695088D02*
X88186690Y-146279755D01*
X88186690Y-146279755D02*
X88186690Y-146457755D01*
X88186690Y-146457755D02*
X88246023Y-146576421D01*
X88246023Y-146576421D02*
X88305356Y-146635755D01*
X88305356Y-146635755D02*
X88424023Y-146695088D01*
X88424023Y-146695088D02*
X88720690Y-146695088D01*
X88720690Y-146695088D02*
X88839356Y-146635755D01*
X88839356Y-146635755D02*
X88898690Y-146576421D01*
X88898690Y-146576421D02*
X88958023Y-146457755D01*
X88958023Y-146457755D02*
X88958023Y-146101755D01*
X88958023Y-146101755D02*
X88898690Y-145983088D01*
X88898690Y-145983088D02*
X88839356Y-145923755D01*
X88839356Y-147229088D02*
X88898690Y-147288422D01*
X88898690Y-147288422D02*
X88958023Y-147229088D01*
X88958023Y-147229088D02*
X88898690Y-147169755D01*
X88898690Y-147169755D02*
X88839356Y-147229088D01*
X88839356Y-147229088D02*
X88958023Y-147229088D01*
X87712023Y-148059755D02*
X87712023Y-148178421D01*
X87712023Y-148178421D02*
X87771356Y-148297088D01*
X87771356Y-148297088D02*
X87830690Y-148356421D01*
X87830690Y-148356421D02*
X87949356Y-148415755D01*
X87949356Y-148415755D02*
X88186690Y-148475088D01*
X88186690Y-148475088D02*
X88483356Y-148475088D01*
X88483356Y-148475088D02*
X88720690Y-148415755D01*
X88720690Y-148415755D02*
X88839356Y-148356421D01*
X88839356Y-148356421D02*
X88898690Y-148297088D01*
X88898690Y-148297088D02*
X88958023Y-148178421D01*
X88958023Y-148178421D02*
X88958023Y-148059755D01*
X88958023Y-148059755D02*
X88898690Y-147941088D01*
X88898690Y-147941088D02*
X88839356Y-147881755D01*
X88839356Y-147881755D02*
X88720690Y-147822421D01*
X88720690Y-147822421D02*
X88483356Y-147763088D01*
X88483356Y-147763088D02*
X88186690Y-147763088D01*
X88186690Y-147763088D02*
X87949356Y-147822421D01*
X87949356Y-147822421D02*
X87830690Y-147881755D01*
X87830690Y-147881755D02*
X87771356Y-147941088D01*
X87771356Y-147941088D02*
X87712023Y-148059755D01*
X90964083Y-108721764D02*
X89718083Y-108721764D01*
X90964083Y-109255764D02*
X90311416Y-109255764D01*
X90311416Y-109255764D02*
X90192750Y-109196431D01*
X90192750Y-109196431D02*
X90133416Y-109077764D01*
X90133416Y-109077764D02*
X90133416Y-108899764D01*
X90133416Y-108899764D02*
X90192750Y-108781098D01*
X90192750Y-108781098D02*
X90252083Y-108721764D01*
X90133416Y-109671097D02*
X90133416Y-110145764D01*
X89718083Y-109849097D02*
X90786083Y-109849097D01*
X90786083Y-109849097D02*
X90904750Y-109908431D01*
X90904750Y-109908431D02*
X90964083Y-110027097D01*
X90964083Y-110027097D02*
X90964083Y-110145764D01*
X90133416Y-110383097D02*
X90133416Y-110857764D01*
X89718083Y-110561097D02*
X90786083Y-110561097D01*
X90786083Y-110561097D02*
X90904750Y-110620431D01*
X90904750Y-110620431D02*
X90964083Y-110739097D01*
X90964083Y-110739097D02*
X90964083Y-110857764D01*
X90133416Y-111273097D02*
X91379416Y-111273097D01*
X90192750Y-111273097D02*
X90133416Y-111391764D01*
X90133416Y-111391764D02*
X90133416Y-111629097D01*
X90133416Y-111629097D02*
X90192750Y-111747764D01*
X90192750Y-111747764D02*
X90252083Y-111807097D01*
X90252083Y-111807097D02*
X90370750Y-111866431D01*
X90370750Y-111866431D02*
X90726750Y-111866431D01*
X90726750Y-111866431D02*
X90845416Y-111807097D01*
X90845416Y-111807097D02*
X90904750Y-111747764D01*
X90904750Y-111747764D02*
X90964083Y-111629097D01*
X90964083Y-111629097D02*
X90964083Y-111391764D01*
X90964083Y-111391764D02*
X90904750Y-111273097D01*
X90904750Y-112341097D02*
X90964083Y-112459764D01*
X90964083Y-112459764D02*
X90964083Y-112697097D01*
X90964083Y-112697097D02*
X90904750Y-112815764D01*
X90904750Y-112815764D02*
X90786083Y-112875097D01*
X90786083Y-112875097D02*
X90726750Y-112875097D01*
X90726750Y-112875097D02*
X90608083Y-112815764D01*
X90608083Y-112815764D02*
X90548750Y-112697097D01*
X90548750Y-112697097D02*
X90548750Y-112519097D01*
X90548750Y-112519097D02*
X90489416Y-112400430D01*
X90489416Y-112400430D02*
X90370750Y-112341097D01*
X90370750Y-112341097D02*
X90311416Y-112341097D01*
X90311416Y-112341097D02*
X90192750Y-112400430D01*
X90192750Y-112400430D02*
X90133416Y-112519097D01*
X90133416Y-112519097D02*
X90133416Y-112697097D01*
X90133416Y-112697097D02*
X90192750Y-112815764D01*
X90845416Y-113409097D02*
X90904750Y-113468431D01*
X90904750Y-113468431D02*
X90964083Y-113409097D01*
X90964083Y-113409097D02*
X90904750Y-113349764D01*
X90904750Y-113349764D02*
X90845416Y-113409097D01*
X90845416Y-113409097D02*
X90964083Y-113409097D01*
X90192750Y-113409097D02*
X90252083Y-113468431D01*
X90252083Y-113468431D02*
X90311416Y-113409097D01*
X90311416Y-113409097D02*
X90252083Y-113349764D01*
X90252083Y-113349764D02*
X90192750Y-113409097D01*
X90192750Y-113409097D02*
X90311416Y-113409097D01*
X89658750Y-114892430D02*
X91260750Y-113824430D01*
X89658750Y-116197763D02*
X91260750Y-115129763D01*
X90133416Y-117147096D02*
X91142083Y-117147096D01*
X91142083Y-117147096D02*
X91260750Y-117087763D01*
X91260750Y-117087763D02*
X91320083Y-117028430D01*
X91320083Y-117028430D02*
X91379416Y-116909763D01*
X91379416Y-116909763D02*
X91379416Y-116731763D01*
X91379416Y-116731763D02*
X91320083Y-116613096D01*
X90904750Y-117147096D02*
X90964083Y-117028430D01*
X90964083Y-117028430D02*
X90964083Y-116791096D01*
X90964083Y-116791096D02*
X90904750Y-116672430D01*
X90904750Y-116672430D02*
X90845416Y-116613096D01*
X90845416Y-116613096D02*
X90726750Y-116553763D01*
X90726750Y-116553763D02*
X90370750Y-116553763D01*
X90370750Y-116553763D02*
X90252083Y-116613096D01*
X90252083Y-116613096D02*
X90192750Y-116672430D01*
X90192750Y-116672430D02*
X90133416Y-116791096D01*
X90133416Y-116791096D02*
X90133416Y-117028430D01*
X90133416Y-117028430D02*
X90192750Y-117147096D01*
X90964083Y-117740429D02*
X90133416Y-117740429D01*
X89718083Y-117740429D02*
X89777416Y-117681096D01*
X89777416Y-117681096D02*
X89836750Y-117740429D01*
X89836750Y-117740429D02*
X89777416Y-117799763D01*
X89777416Y-117799763D02*
X89718083Y-117740429D01*
X89718083Y-117740429D02*
X89836750Y-117740429D01*
X90133416Y-118155762D02*
X90133416Y-118630429D01*
X89718083Y-118333762D02*
X90786083Y-118333762D01*
X90786083Y-118333762D02*
X90904750Y-118393096D01*
X90904750Y-118393096D02*
X90964083Y-118511762D01*
X90964083Y-118511762D02*
X90964083Y-118630429D01*
X90964083Y-119045762D02*
X89718083Y-119045762D01*
X90964083Y-119579762D02*
X90311416Y-119579762D01*
X90311416Y-119579762D02*
X90192750Y-119520429D01*
X90192750Y-119520429D02*
X90133416Y-119401762D01*
X90133416Y-119401762D02*
X90133416Y-119223762D01*
X90133416Y-119223762D02*
X90192750Y-119105096D01*
X90192750Y-119105096D02*
X90252083Y-119045762D01*
X90133416Y-120707095D02*
X90964083Y-120707095D01*
X90133416Y-120173095D02*
X90786083Y-120173095D01*
X90786083Y-120173095D02*
X90904750Y-120232429D01*
X90904750Y-120232429D02*
X90964083Y-120351095D01*
X90964083Y-120351095D02*
X90964083Y-120529095D01*
X90964083Y-120529095D02*
X90904750Y-120647762D01*
X90904750Y-120647762D02*
X90845416Y-120707095D01*
X90964083Y-121300428D02*
X89718083Y-121300428D01*
X90192750Y-121300428D02*
X90133416Y-121419095D01*
X90133416Y-121419095D02*
X90133416Y-121656428D01*
X90133416Y-121656428D02*
X90192750Y-121775095D01*
X90192750Y-121775095D02*
X90252083Y-121834428D01*
X90252083Y-121834428D02*
X90370750Y-121893762D01*
X90370750Y-121893762D02*
X90726750Y-121893762D01*
X90726750Y-121893762D02*
X90845416Y-121834428D01*
X90845416Y-121834428D02*
X90904750Y-121775095D01*
X90904750Y-121775095D02*
X90964083Y-121656428D01*
X90964083Y-121656428D02*
X90964083Y-121419095D01*
X90964083Y-121419095D02*
X90904750Y-121300428D01*
X90845416Y-122427761D02*
X90904750Y-122487095D01*
X90904750Y-122487095D02*
X90964083Y-122427761D01*
X90964083Y-122427761D02*
X90904750Y-122368428D01*
X90904750Y-122368428D02*
X90845416Y-122427761D01*
X90845416Y-122427761D02*
X90964083Y-122427761D01*
X90904750Y-123555094D02*
X90964083Y-123436428D01*
X90964083Y-123436428D02*
X90964083Y-123199094D01*
X90964083Y-123199094D02*
X90904750Y-123080428D01*
X90904750Y-123080428D02*
X90845416Y-123021094D01*
X90845416Y-123021094D02*
X90726750Y-122961761D01*
X90726750Y-122961761D02*
X90370750Y-122961761D01*
X90370750Y-122961761D02*
X90252083Y-123021094D01*
X90252083Y-123021094D02*
X90192750Y-123080428D01*
X90192750Y-123080428D02*
X90133416Y-123199094D01*
X90133416Y-123199094D02*
X90133416Y-123436428D01*
X90133416Y-123436428D02*
X90192750Y-123555094D01*
X90964083Y-124267094D02*
X90904750Y-124148428D01*
X90904750Y-124148428D02*
X90845416Y-124089094D01*
X90845416Y-124089094D02*
X90726750Y-124029761D01*
X90726750Y-124029761D02*
X90370750Y-124029761D01*
X90370750Y-124029761D02*
X90252083Y-124089094D01*
X90252083Y-124089094D02*
X90192750Y-124148428D01*
X90192750Y-124148428D02*
X90133416Y-124267094D01*
X90133416Y-124267094D02*
X90133416Y-124445094D01*
X90133416Y-124445094D02*
X90192750Y-124563761D01*
X90192750Y-124563761D02*
X90252083Y-124623094D01*
X90252083Y-124623094D02*
X90370750Y-124682428D01*
X90370750Y-124682428D02*
X90726750Y-124682428D01*
X90726750Y-124682428D02*
X90845416Y-124623094D01*
X90845416Y-124623094D02*
X90904750Y-124563761D01*
X90904750Y-124563761D02*
X90964083Y-124445094D01*
X90964083Y-124445094D02*
X90964083Y-124267094D01*
X90964083Y-125216427D02*
X90133416Y-125216427D01*
X90252083Y-125216427D02*
X90192750Y-125275761D01*
X90192750Y-125275761D02*
X90133416Y-125394427D01*
X90133416Y-125394427D02*
X90133416Y-125572427D01*
X90133416Y-125572427D02*
X90192750Y-125691094D01*
X90192750Y-125691094D02*
X90311416Y-125750427D01*
X90311416Y-125750427D02*
X90964083Y-125750427D01*
X90311416Y-125750427D02*
X90192750Y-125809761D01*
X90192750Y-125809761D02*
X90133416Y-125928427D01*
X90133416Y-125928427D02*
X90133416Y-126106427D01*
X90133416Y-126106427D02*
X90192750Y-126225094D01*
X90192750Y-126225094D02*
X90311416Y-126284427D01*
X90311416Y-126284427D02*
X90964083Y-126284427D01*
X89658750Y-127767760D02*
X91260750Y-126699760D01*
X90964083Y-128717093D02*
X90311416Y-128717093D01*
X90311416Y-128717093D02*
X90192750Y-128657760D01*
X90192750Y-128657760D02*
X90133416Y-128539093D01*
X90133416Y-128539093D02*
X90133416Y-128301760D01*
X90133416Y-128301760D02*
X90192750Y-128183093D01*
X90904750Y-128717093D02*
X90964083Y-128598427D01*
X90964083Y-128598427D02*
X90964083Y-128301760D01*
X90964083Y-128301760D02*
X90904750Y-128183093D01*
X90904750Y-128183093D02*
X90786083Y-128123760D01*
X90786083Y-128123760D02*
X90667416Y-128123760D01*
X90667416Y-128123760D02*
X90548750Y-128183093D01*
X90548750Y-128183093D02*
X90489416Y-128301760D01*
X90489416Y-128301760D02*
X90489416Y-128598427D01*
X90489416Y-128598427D02*
X90430083Y-128717093D01*
X90964083Y-129310426D02*
X90133416Y-129310426D01*
X90370750Y-129310426D02*
X90252083Y-129369760D01*
X90252083Y-129369760D02*
X90192750Y-129429093D01*
X90192750Y-129429093D02*
X90133416Y-129547760D01*
X90133416Y-129547760D02*
X90133416Y-129666426D01*
X90133416Y-130081759D02*
X91201416Y-130081759D01*
X91201416Y-130081759D02*
X91320083Y-130022426D01*
X91320083Y-130022426D02*
X91379416Y-129903759D01*
X91379416Y-129903759D02*
X91379416Y-129844426D01*
X89718083Y-130081759D02*
X89777416Y-130022426D01*
X89777416Y-130022426D02*
X89836750Y-130081759D01*
X89836750Y-130081759D02*
X89777416Y-130141093D01*
X89777416Y-130141093D02*
X89718083Y-130081759D01*
X89718083Y-130081759D02*
X89836750Y-130081759D01*
X90904750Y-131149759D02*
X90964083Y-131031092D01*
X90964083Y-131031092D02*
X90964083Y-130793759D01*
X90964083Y-130793759D02*
X90904750Y-130675092D01*
X90904750Y-130675092D02*
X90786083Y-130615759D01*
X90786083Y-130615759D02*
X90311416Y-130615759D01*
X90311416Y-130615759D02*
X90192750Y-130675092D01*
X90192750Y-130675092D02*
X90133416Y-130793759D01*
X90133416Y-130793759D02*
X90133416Y-131031092D01*
X90133416Y-131031092D02*
X90192750Y-131149759D01*
X90192750Y-131149759D02*
X90311416Y-131209092D01*
X90311416Y-131209092D02*
X90430083Y-131209092D01*
X90430083Y-131209092D02*
X90548750Y-130615759D01*
X90133416Y-131743092D02*
X90964083Y-131743092D01*
X90252083Y-131743092D02*
X90192750Y-131802426D01*
X90192750Y-131802426D02*
X90133416Y-131921092D01*
X90133416Y-131921092D02*
X90133416Y-132099092D01*
X90133416Y-132099092D02*
X90192750Y-132217759D01*
X90192750Y-132217759D02*
X90311416Y-132277092D01*
X90311416Y-132277092D02*
X90964083Y-132277092D01*
X90964083Y-132870425D02*
X89718083Y-132870425D01*
X90964083Y-133404425D02*
X90311416Y-133404425D01*
X90311416Y-133404425D02*
X90192750Y-133345092D01*
X90192750Y-133345092D02*
X90133416Y-133226425D01*
X90133416Y-133226425D02*
X90133416Y-133048425D01*
X90133416Y-133048425D02*
X90192750Y-132929759D01*
X90192750Y-132929759D02*
X90252083Y-132870425D01*
X90964083Y-133997758D02*
X90133416Y-133997758D01*
X89718083Y-133997758D02*
X89777416Y-133938425D01*
X89777416Y-133938425D02*
X89836750Y-133997758D01*
X89836750Y-133997758D02*
X89777416Y-134057092D01*
X89777416Y-134057092D02*
X89718083Y-133997758D01*
X89718083Y-133997758D02*
X89836750Y-133997758D01*
X90904750Y-135065758D02*
X90964083Y-134947091D01*
X90964083Y-134947091D02*
X90964083Y-134709758D01*
X90964083Y-134709758D02*
X90904750Y-134591091D01*
X90904750Y-134591091D02*
X90786083Y-134531758D01*
X90786083Y-134531758D02*
X90311416Y-134531758D01*
X90311416Y-134531758D02*
X90192750Y-134591091D01*
X90192750Y-134591091D02*
X90133416Y-134709758D01*
X90133416Y-134709758D02*
X90133416Y-134947091D01*
X90133416Y-134947091D02*
X90192750Y-135065758D01*
X90192750Y-135065758D02*
X90311416Y-135125091D01*
X90311416Y-135125091D02*
X90430083Y-135125091D01*
X90430083Y-135125091D02*
X90548750Y-134531758D01*
X90964083Y-135659091D02*
X90133416Y-135659091D01*
X90252083Y-135659091D02*
X90192750Y-135718425D01*
X90192750Y-135718425D02*
X90133416Y-135837091D01*
X90133416Y-135837091D02*
X90133416Y-136015091D01*
X90133416Y-136015091D02*
X90192750Y-136133758D01*
X90192750Y-136133758D02*
X90311416Y-136193091D01*
X90311416Y-136193091D02*
X90964083Y-136193091D01*
X90311416Y-136193091D02*
X90192750Y-136252425D01*
X90192750Y-136252425D02*
X90133416Y-136371091D01*
X90133416Y-136371091D02*
X90133416Y-136549091D01*
X90133416Y-136549091D02*
X90192750Y-136667758D01*
X90192750Y-136667758D02*
X90311416Y-136727091D01*
X90311416Y-136727091D02*
X90964083Y-136727091D01*
X90904750Y-137261091D02*
X90964083Y-137379758D01*
X90964083Y-137379758D02*
X90964083Y-137617091D01*
X90964083Y-137617091D02*
X90904750Y-137735758D01*
X90904750Y-137735758D02*
X90786083Y-137795091D01*
X90786083Y-137795091D02*
X90726750Y-137795091D01*
X90726750Y-137795091D02*
X90608083Y-137735758D01*
X90608083Y-137735758D02*
X90548750Y-137617091D01*
X90548750Y-137617091D02*
X90548750Y-137439091D01*
X90548750Y-137439091D02*
X90489416Y-137320424D01*
X90489416Y-137320424D02*
X90370750Y-137261091D01*
X90370750Y-137261091D02*
X90311416Y-137261091D01*
X90311416Y-137261091D02*
X90192750Y-137320424D01*
X90192750Y-137320424D02*
X90133416Y-137439091D01*
X90133416Y-137439091D02*
X90133416Y-137617091D01*
X90133416Y-137617091D02*
X90192750Y-137735758D01*
X90133416Y-138151091D02*
X90133416Y-138625758D01*
X89718083Y-138329091D02*
X90786083Y-138329091D01*
X90786083Y-138329091D02*
X90904750Y-138388425D01*
X90904750Y-138388425D02*
X90964083Y-138507091D01*
X90964083Y-138507091D02*
X90964083Y-138625758D01*
X90964083Y-139041091D02*
X90133416Y-139041091D01*
X90370750Y-139041091D02*
X90252083Y-139100425D01*
X90252083Y-139100425D02*
X90192750Y-139159758D01*
X90192750Y-139159758D02*
X90133416Y-139278425D01*
X90133416Y-139278425D02*
X90133416Y-139397091D01*
X90964083Y-140346424D02*
X90311416Y-140346424D01*
X90311416Y-140346424D02*
X90192750Y-140287091D01*
X90192750Y-140287091D02*
X90133416Y-140168424D01*
X90133416Y-140168424D02*
X90133416Y-139931091D01*
X90133416Y-139931091D02*
X90192750Y-139812424D01*
X90904750Y-140346424D02*
X90964083Y-140227758D01*
X90964083Y-140227758D02*
X90964083Y-139931091D01*
X90964083Y-139931091D02*
X90904750Y-139812424D01*
X90904750Y-139812424D02*
X90786083Y-139753091D01*
X90786083Y-139753091D02*
X90667416Y-139753091D01*
X90667416Y-139753091D02*
X90548750Y-139812424D01*
X90548750Y-139812424D02*
X90489416Y-139931091D01*
X90489416Y-139931091D02*
X90489416Y-140227758D01*
X90489416Y-140227758D02*
X90430083Y-140346424D01*
X89658750Y-141829757D02*
X91260750Y-140761757D01*
X90964083Y-142245090D02*
X90133416Y-142245090D01*
X89718083Y-142245090D02*
X89777416Y-142185757D01*
X89777416Y-142185757D02*
X89836750Y-142245090D01*
X89836750Y-142245090D02*
X89777416Y-142304424D01*
X89777416Y-142304424D02*
X89718083Y-142245090D01*
X89718083Y-142245090D02*
X89836750Y-142245090D01*
X90133416Y-142660423D02*
X90133416Y-143135090D01*
X89718083Y-142838423D02*
X90786083Y-142838423D01*
X90786083Y-142838423D02*
X90904750Y-142897757D01*
X90904750Y-142897757D02*
X90964083Y-143016423D01*
X90964083Y-143016423D02*
X90964083Y-143135090D01*
X90964083Y-143550423D02*
X89718083Y-143550423D01*
X90964083Y-144084423D02*
X90311416Y-144084423D01*
X90311416Y-144084423D02*
X90192750Y-144025090D01*
X90192750Y-144025090D02*
X90133416Y-143906423D01*
X90133416Y-143906423D02*
X90133416Y-143728423D01*
X90133416Y-143728423D02*
X90192750Y-143609757D01*
X90192750Y-143609757D02*
X90252083Y-143550423D01*
X90964083Y-144855756D02*
X90904750Y-144737090D01*
X90904750Y-144737090D02*
X90845416Y-144677756D01*
X90845416Y-144677756D02*
X90726750Y-144618423D01*
X90726750Y-144618423D02*
X90370750Y-144618423D01*
X90370750Y-144618423D02*
X90252083Y-144677756D01*
X90252083Y-144677756D02*
X90192750Y-144737090D01*
X90192750Y-144737090D02*
X90133416Y-144855756D01*
X90133416Y-144855756D02*
X90133416Y-145033756D01*
X90133416Y-145033756D02*
X90192750Y-145152423D01*
X90192750Y-145152423D02*
X90252083Y-145211756D01*
X90252083Y-145211756D02*
X90370750Y-145271090D01*
X90370750Y-145271090D02*
X90726750Y-145271090D01*
X90726750Y-145271090D02*
X90845416Y-145211756D01*
X90845416Y-145211756D02*
X90904750Y-145152423D01*
X90904750Y-145152423D02*
X90964083Y-145033756D01*
X90964083Y-145033756D02*
X90964083Y-144855756D01*
X90133416Y-145686423D02*
X90964083Y-145923756D01*
X90964083Y-145923756D02*
X90370750Y-146161089D01*
X90370750Y-146161089D02*
X90964083Y-146398423D01*
X90964083Y-146398423D02*
X90133416Y-146635756D01*
X90964083Y-147110422D02*
X90133416Y-147110422D01*
X89718083Y-147110422D02*
X89777416Y-147051089D01*
X89777416Y-147051089D02*
X89836750Y-147110422D01*
X89836750Y-147110422D02*
X89777416Y-147169756D01*
X89777416Y-147169756D02*
X89718083Y-147110422D01*
X89718083Y-147110422D02*
X89836750Y-147110422D01*
X90133416Y-147525755D02*
X90133416Y-148000422D01*
X90964083Y-147703755D02*
X89896083Y-147703755D01*
X89896083Y-147703755D02*
X89777416Y-147763089D01*
X89777416Y-147763089D02*
X89718083Y-147881755D01*
X89718083Y-147881755D02*
X89718083Y-148000422D01*
X90964083Y-148415755D02*
X90133416Y-148415755D01*
X89718083Y-148415755D02*
X89777416Y-148356422D01*
X89777416Y-148356422D02*
X89836750Y-148415755D01*
X89836750Y-148415755D02*
X89777416Y-148475089D01*
X89777416Y-148475089D02*
X89718083Y-148415755D01*
X89718083Y-148415755D02*
X89836750Y-148415755D01*
X102940993Y-139346090D02*
X101694993Y-139346090D01*
X102288326Y-139346090D02*
X102288326Y-140058090D01*
X102940993Y-140058090D02*
X101694993Y-140058090D01*
X101694993Y-140532757D02*
X102940993Y-140829423D01*
X102940993Y-140829423D02*
X102050993Y-141066757D01*
X102050993Y-141066757D02*
X102940993Y-141304090D01*
X102940993Y-141304090D02*
X101694993Y-141600757D01*
X102940993Y-143024756D02*
X102110326Y-143024756D01*
X102347660Y-143024756D02*
X102228993Y-143084090D01*
X102228993Y-143084090D02*
X102169660Y-143143423D01*
X102169660Y-143143423D02*
X102110326Y-143262090D01*
X102110326Y-143262090D02*
X102110326Y-143380756D01*
X102881660Y-144270756D02*
X102940993Y-144152089D01*
X102940993Y-144152089D02*
X102940993Y-143914756D01*
X102940993Y-143914756D02*
X102881660Y-143796089D01*
X102881660Y-143796089D02*
X102762993Y-143736756D01*
X102762993Y-143736756D02*
X102288326Y-143736756D01*
X102288326Y-143736756D02*
X102169660Y-143796089D01*
X102169660Y-143796089D02*
X102110326Y-143914756D01*
X102110326Y-143914756D02*
X102110326Y-144152089D01*
X102110326Y-144152089D02*
X102169660Y-144270756D01*
X102169660Y-144270756D02*
X102288326Y-144330089D01*
X102288326Y-144330089D02*
X102406993Y-144330089D01*
X102406993Y-144330089D02*
X102525660Y-143736756D01*
X102110326Y-144745423D02*
X102940993Y-145042089D01*
X102940993Y-145042089D02*
X102110326Y-145338756D01*
X102822326Y-145813422D02*
X102881660Y-145872756D01*
X102881660Y-145872756D02*
X102940993Y-145813422D01*
X102940993Y-145813422D02*
X102881660Y-145754089D01*
X102881660Y-145754089D02*
X102822326Y-145813422D01*
X102822326Y-145813422D02*
X102940993Y-145813422D01*
X102822326Y-146406755D02*
X102881660Y-146466089D01*
X102881660Y-146466089D02*
X102940993Y-146406755D01*
X102940993Y-146406755D02*
X102881660Y-146347422D01*
X102881660Y-146347422D02*
X102822326Y-146406755D01*
X102822326Y-146406755D02*
X102940993Y-146406755D01*
X102169660Y-146406755D02*
X102228993Y-146466089D01*
X102228993Y-146466089D02*
X102288326Y-146406755D01*
X102288326Y-146406755D02*
X102228993Y-146347422D01*
X102228993Y-146347422D02*
X102169660Y-146406755D01*
X102169660Y-146406755D02*
X102288326Y-146406755D01*
X101813660Y-147890088D02*
X101754326Y-147949421D01*
X101754326Y-147949421D02*
X101694993Y-148068088D01*
X101694993Y-148068088D02*
X101694993Y-148364755D01*
X101694993Y-148364755D02*
X101754326Y-148483421D01*
X101754326Y-148483421D02*
X101813660Y-148542755D01*
X101813660Y-148542755D02*
X101932326Y-148602088D01*
X101932326Y-148602088D02*
X102050993Y-148602088D01*
X102050993Y-148602088D02*
X102228993Y-148542755D01*
X102228993Y-148542755D02*
X102940993Y-147830755D01*
X102940993Y-147830755D02*
X102940993Y-148602088D01*
X104294386Y-134065421D02*
X104353720Y-134243421D01*
X104353720Y-134243421D02*
X104413053Y-134302754D01*
X104413053Y-134302754D02*
X104531720Y-134362087D01*
X104531720Y-134362087D02*
X104709720Y-134362087D01*
X104709720Y-134362087D02*
X104828386Y-134302754D01*
X104828386Y-134302754D02*
X104887720Y-134243421D01*
X104887720Y-134243421D02*
X104947053Y-134124754D01*
X104947053Y-134124754D02*
X104947053Y-133650087D01*
X104947053Y-133650087D02*
X103701053Y-133650087D01*
X103701053Y-133650087D02*
X103701053Y-134065421D01*
X103701053Y-134065421D02*
X103760386Y-134184087D01*
X103760386Y-134184087D02*
X103819720Y-134243421D01*
X103819720Y-134243421D02*
X103938386Y-134302754D01*
X103938386Y-134302754D02*
X104057053Y-134302754D01*
X104057053Y-134302754D02*
X104175720Y-134243421D01*
X104175720Y-134243421D02*
X104235053Y-134184087D01*
X104235053Y-134184087D02*
X104294386Y-134065421D01*
X104294386Y-134065421D02*
X104294386Y-133650087D01*
X104947053Y-135430087D02*
X104294386Y-135430087D01*
X104294386Y-135430087D02*
X104175720Y-135370754D01*
X104175720Y-135370754D02*
X104116386Y-135252087D01*
X104116386Y-135252087D02*
X104116386Y-135014754D01*
X104116386Y-135014754D02*
X104175720Y-134896087D01*
X104887720Y-135430087D02*
X104947053Y-135311421D01*
X104947053Y-135311421D02*
X104947053Y-135014754D01*
X104947053Y-135014754D02*
X104887720Y-134896087D01*
X104887720Y-134896087D02*
X104769053Y-134836754D01*
X104769053Y-134836754D02*
X104650386Y-134836754D01*
X104650386Y-134836754D02*
X104531720Y-134896087D01*
X104531720Y-134896087D02*
X104472386Y-135014754D01*
X104472386Y-135014754D02*
X104472386Y-135311421D01*
X104472386Y-135311421D02*
X104413053Y-135430087D01*
X104116386Y-135845420D02*
X104116386Y-136320087D01*
X103701053Y-136023420D02*
X104769053Y-136023420D01*
X104769053Y-136023420D02*
X104887720Y-136082754D01*
X104887720Y-136082754D02*
X104947053Y-136201420D01*
X104947053Y-136201420D02*
X104947053Y-136320087D01*
X104887720Y-137269420D02*
X104947053Y-137150754D01*
X104947053Y-137150754D02*
X104947053Y-136913420D01*
X104947053Y-136913420D02*
X104887720Y-136794754D01*
X104887720Y-136794754D02*
X104828386Y-136735420D01*
X104828386Y-136735420D02*
X104709720Y-136676087D01*
X104709720Y-136676087D02*
X104353720Y-136676087D01*
X104353720Y-136676087D02*
X104235053Y-136735420D01*
X104235053Y-136735420D02*
X104175720Y-136794754D01*
X104175720Y-136794754D02*
X104116386Y-136913420D01*
X104116386Y-136913420D02*
X104116386Y-137150754D01*
X104116386Y-137150754D02*
X104175720Y-137269420D01*
X104947053Y-137803420D02*
X103701053Y-137803420D01*
X104947053Y-138337420D02*
X104294386Y-138337420D01*
X104294386Y-138337420D02*
X104175720Y-138278087D01*
X104175720Y-138278087D02*
X104116386Y-138159420D01*
X104116386Y-138159420D02*
X104116386Y-137981420D01*
X104116386Y-137981420D02*
X104175720Y-137862754D01*
X104175720Y-137862754D02*
X104235053Y-137803420D01*
X104828386Y-138930753D02*
X104887720Y-138990087D01*
X104887720Y-138990087D02*
X104947053Y-138930753D01*
X104947053Y-138930753D02*
X104887720Y-138871420D01*
X104887720Y-138871420D02*
X104828386Y-138930753D01*
X104828386Y-138930753D02*
X104947053Y-138930753D01*
X104175720Y-138930753D02*
X104235053Y-138990087D01*
X104235053Y-138990087D02*
X104294386Y-138930753D01*
X104294386Y-138930753D02*
X104235053Y-138871420D01*
X104235053Y-138871420D02*
X104175720Y-138930753D01*
X104175720Y-138930753D02*
X104294386Y-138930753D01*
X103819720Y-140414086D02*
X103760386Y-140473419D01*
X103760386Y-140473419D02*
X103701053Y-140592086D01*
X103701053Y-140592086D02*
X103701053Y-140888753D01*
X103701053Y-140888753D02*
X103760386Y-141007419D01*
X103760386Y-141007419D02*
X103819720Y-141066753D01*
X103819720Y-141066753D02*
X103938386Y-141126086D01*
X103938386Y-141126086D02*
X104057053Y-141126086D01*
X104057053Y-141126086D02*
X104235053Y-141066753D01*
X104235053Y-141066753D02*
X104947053Y-140354753D01*
X104947053Y-140354753D02*
X104947053Y-141126086D01*
X103701053Y-142253420D02*
X103701053Y-141660086D01*
X103701053Y-141660086D02*
X104294386Y-141600753D01*
X104294386Y-141600753D02*
X104235053Y-141660086D01*
X104235053Y-141660086D02*
X104175720Y-141778753D01*
X104175720Y-141778753D02*
X104175720Y-142075420D01*
X104175720Y-142075420D02*
X104235053Y-142194086D01*
X104235053Y-142194086D02*
X104294386Y-142253420D01*
X104294386Y-142253420D02*
X104413053Y-142312753D01*
X104413053Y-142312753D02*
X104709720Y-142312753D01*
X104709720Y-142312753D02*
X104828386Y-142253420D01*
X104828386Y-142253420D02*
X104887720Y-142194086D01*
X104887720Y-142194086D02*
X104947053Y-142075420D01*
X104947053Y-142075420D02*
X104947053Y-141778753D01*
X104947053Y-141778753D02*
X104887720Y-141660086D01*
X104887720Y-141660086D02*
X104828386Y-141600753D01*
X104472386Y-142846753D02*
X104472386Y-143796087D01*
X104116386Y-144923420D02*
X104947053Y-144923420D01*
X103641720Y-144626754D02*
X104531720Y-144330087D01*
X104531720Y-144330087D02*
X104531720Y-145101420D01*
X104947053Y-146228754D02*
X104947053Y-145516754D01*
X104947053Y-145872754D02*
X103701053Y-145872754D01*
X103701053Y-145872754D02*
X103879053Y-145754087D01*
X103879053Y-145754087D02*
X103997720Y-145635421D01*
X103997720Y-145635421D02*
X104057053Y-145516754D01*
X103819720Y-146703421D02*
X103760386Y-146762754D01*
X103760386Y-146762754D02*
X103701053Y-146881421D01*
X103701053Y-146881421D02*
X103701053Y-147178088D01*
X103701053Y-147178088D02*
X103760386Y-147296754D01*
X103760386Y-147296754D02*
X103819720Y-147356088D01*
X103819720Y-147356088D02*
X103938386Y-147415421D01*
X103938386Y-147415421D02*
X104057053Y-147415421D01*
X104057053Y-147415421D02*
X104235053Y-147356088D01*
X104235053Y-147356088D02*
X104947053Y-146644088D01*
X104947053Y-146644088D02*
X104947053Y-147415421D01*
X103701053Y-147830755D02*
X103701053Y-148602088D01*
X103701053Y-148602088D02*
X104175720Y-148186755D01*
X104175720Y-148186755D02*
X104175720Y-148364755D01*
X104175720Y-148364755D02*
X104235053Y-148483421D01*
X104235053Y-148483421D02*
X104294386Y-148542755D01*
X104294386Y-148542755D02*
X104413053Y-148602088D01*
X104413053Y-148602088D02*
X104709720Y-148602088D01*
X104709720Y-148602088D02*
X104828386Y-148542755D01*
X104828386Y-148542755D02*
X104887720Y-148483421D01*
X104887720Y-148483421D02*
X104947053Y-148364755D01*
X104947053Y-148364755D02*
X104947053Y-148008755D01*
X104947053Y-148008755D02*
X104887720Y-147890088D01*
X104887720Y-147890088D02*
X104828386Y-147830755D01*
D11*
X121110333Y-140019819D02*
X121110333Y-140734104D01*
X121110333Y-140734104D02*
X121157952Y-140876961D01*
X121157952Y-140876961D02*
X121253190Y-140972200D01*
X121253190Y-140972200D02*
X121396047Y-141019819D01*
X121396047Y-141019819D02*
X121491285Y-141019819D01*
X120681761Y-140115057D02*
X120634142Y-140067438D01*
X120634142Y-140067438D02*
X120538904Y-140019819D01*
X120538904Y-140019819D02*
X120300809Y-140019819D01*
X120300809Y-140019819D02*
X120205571Y-140067438D01*
X120205571Y-140067438D02*
X120157952Y-140115057D01*
X120157952Y-140115057D02*
X120110333Y-140210295D01*
X120110333Y-140210295D02*
X120110333Y-140305533D01*
X120110333Y-140305533D02*
X120157952Y-140448390D01*
X120157952Y-140448390D02*
X120729380Y-141019819D01*
X120729380Y-141019819D02*
X120110333Y-141019819D01*
X95454819Y-124988095D02*
X96264342Y-124988095D01*
X96264342Y-124988095D02*
X96359580Y-125035714D01*
X96359580Y-125035714D02*
X96407200Y-125083333D01*
X96407200Y-125083333D02*
X96454819Y-125178571D01*
X96454819Y-125178571D02*
X96454819Y-125369047D01*
X96454819Y-125369047D02*
X96407200Y-125464285D01*
X96407200Y-125464285D02*
X96359580Y-125511904D01*
X96359580Y-125511904D02*
X96264342Y-125559523D01*
X96264342Y-125559523D02*
X95454819Y-125559523D01*
X95788152Y-126464285D02*
X96454819Y-126464285D01*
X95407200Y-126226190D02*
X96121485Y-125988095D01*
X96121485Y-125988095D02*
X96121485Y-126607142D01*
X110873866Y-119588095D02*
X110826247Y-119635714D01*
X110826247Y-119635714D02*
X110778628Y-119730952D01*
X110778628Y-119730952D02*
X110873866Y-119921428D01*
X110873866Y-119921428D02*
X110826247Y-120016666D01*
X110826247Y-120016666D02*
X110778628Y-120064285D01*
D12*
X118177000Y-128845000D02*
X123377000Y-128845000D01*
X118177000Y-139125000D02*
X118177000Y-128845000D01*
X118177000Y-139125000D02*
X120777000Y-139125000D01*
X120777000Y-136525000D02*
X123377000Y-136525000D01*
X120777000Y-139125000D02*
X120777000Y-136525000D01*
X122047000Y-139125000D02*
X123377000Y-139125000D01*
X123377000Y-136525000D02*
X123377000Y-128845000D01*
X123377000Y-139125000D02*
X123377000Y-137795000D01*
X106850000Y-111558400D02*
X107100000Y-111058400D01*
X107350000Y-111558400D02*
X106850000Y-111558400D01*
X107100000Y-111058400D02*
X107350000Y-111558400D01*
D13*
X107100000Y-114950000D02*
X97100000Y-114950000D01*
X107100000Y-114950000D02*
X107100000Y-124950000D01*
X97100000Y-114950000D02*
X97100000Y-124950000D01*
X107100000Y-124950000D02*
X97100000Y-124950000D01*
D14*
X98290000Y-114160609D02*
G75*
G03*
X98209676Y-114141647I0J179609D01*
G01*
M02*
