M48
; DRILL file {KiCad 7.0.7} date 2023 October 13, Friday 16:37:59
; FORMAT={-:-/ absolute / metric / decimal}
; #@! TF.CreationDate,2023-10-13T16:37:59+02:00
; #@! TF.GenerationSoftware,Kicad,Pcbnew,7.0.7
; #@! TF.FileFunction,MixedPlating,1,4
FMAT,2
METRIC
; #@! TA.AperFunction,Plated,PTH,ViaDrill
T1C0.400
; #@! TA.AperFunction,Plated,PTH,ComponentDrill
T2C1.000
; #@! TA.AperFunction,NonPlated,NPTH,ComponentDrill
T3C0.991
; #@! TA.AperFunction,NonPlated,NPTH,ComponentDrill
T4C3.200
%
G90
G05
T1
X84.531Y-144.805
X85.039Y-143.561
X86.741Y-128.27
X88.2Y-117.4
X88.7Y-133.3
X88.7Y-138.45
X89.0Y-147.325
X89.154Y-148.59
X89.408Y-115.672
X89.775Y-129.2
X89.9Y-139.725
X90.7Y-135.6
X94.0Y-123.317
X95.148Y-139.751
X95.148Y-141.275
X95.148Y-142.799
X96.647Y-139.751
X96.647Y-141.275
X96.647Y-142.799
X97.5Y-124.1
X98.171Y-139.751
X98.171Y-141.275
X98.171Y-142.799
X99.1Y-117.2
X100.7Y-105.918
X100.7Y-107.442
X100.7Y-109.093
X100.7Y-110.871
X100.7Y-112.5
X102.432Y-138.568
X102.5Y-112.5
X102.852Y-132.715
X104.2Y-128.8
X104.278Y-112.5
X104.9Y-127.7
X105.3Y-117.4
X105.8Y-112.5
X105.9Y-114.2
X106.0Y-115.9
X106.172Y-147.32
X106.172Y-148.59
X106.849Y-137.185
X108.175Y-139.725
X108.271Y-112.5
X108.3Y-114.2
X108.329Y-115.9
X108.631Y-148.751
X109.1Y-117.45
X109.132Y-127.668
X110.071Y-112.5
X110.532Y-124.054
X110.532Y-134.268
X111.632Y-124.054
X111.632Y-134.268
X111.849Y-112.5
X112.732Y-124.054
X112.732Y-134.268
X113.5Y-105.918
X113.5Y-107.442
X113.5Y-109.093
X113.5Y-110.871
X113.5Y-112.5
X113.7Y-119.1
X113.792Y-143.764
X113.792Y-145.796
X114.681Y-144.78
X114.681Y-147.32
X115.232Y-121.539
X116.697Y-120.539
X118.618Y-127.698
X120.532Y-120.468
X120.813Y-116.687
X122.682Y-119.761
X122.682Y-127.698
T2
X85.725Y-107.798
X85.725Y-110.338
X85.725Y-112.878
X85.725Y-115.418
X85.725Y-117.958
X85.725Y-120.498
X85.725Y-123.038
X107.101Y-109.251
X111.292Y-151.928
X111.292Y-154.468
X113.832Y-151.928
X113.832Y-154.468
X119.507Y-130.175
X119.507Y-132.715
X119.507Y-135.255
X119.507Y-137.795
X122.047Y-130.175
X122.047Y-132.715
X122.047Y-135.255
X122.047Y-137.795
T3
X89.496Y-107.901
X94.576Y-106.885
X94.576Y-108.917
T4
X94.488Y-113.538
X121.63Y-108.12
T0
M30
