G04 #@! TF.GenerationSoftware,KiCad,Pcbnew,7.0.7*
G04 #@! TF.CreationDate,2023-10-13T16:37:57+02:00*
G04 #@! TF.ProjectId,ithowifi_4l,6974686f-7769-4666-995f-346c2e6b6963,rev?*
G04 #@! TF.SameCoordinates,Original*
G04 #@! TF.FileFunction,Copper,L4,Bot*
G04 #@! TF.FilePolarity,Positive*
%FSLAX46Y46*%
G04 Gerber Fmt 4.6, Leading zero omitted, Abs format (unit mm)*
G04 Created by KiCad (PCBNEW 7.0.7) date 2023-10-13 16:37:57*
%MOMM*%
%LPD*%
G01*
G04 APERTURE LIST*
G04 #@! TA.AperFunction,ComponentPad*
%ADD10R,1.700000X1.700000*%
G04 #@! TD*
G04 #@! TA.AperFunction,ComponentPad*
%ADD11O,1.700000X1.700000*%
G04 #@! TD*
G04 #@! TA.AperFunction,ComponentPad*
%ADD12C,2.000000*%
G04 #@! TD*
G04 #@! TA.AperFunction,SMDPad,CuDef*
%ADD13R,1.500000X5.080000*%
G04 #@! TD*
G04 #@! TA.AperFunction,SMDPad,CuDef*
%ADD14R,0.800000X1.500000*%
G04 #@! TD*
G04 #@! TA.AperFunction,SMDPad,CuDef*
%ADD15R,1.500000X0.800000*%
G04 #@! TD*
G04 #@! TA.AperFunction,ViaPad*
%ADD16C,0.800000*%
G04 #@! TD*
G04 #@! TA.AperFunction,Conductor*
%ADD17C,0.254000*%
G04 #@! TD*
G04 #@! TA.AperFunction,Conductor*
%ADD18C,0.250000*%
G04 #@! TD*
G04 #@! TA.AperFunction,Conductor*
%ADD19C,0.355600*%
G04 #@! TD*
G04 APERTURE END LIST*
D10*
X85725000Y-107797600D03*
D11*
X85725000Y-110337600D03*
X85725000Y-112877600D03*
X85725000Y-115417600D03*
X85725000Y-117957600D03*
X85725000Y-120497600D03*
X85725000Y-123037600D03*
D10*
X111292000Y-151928000D03*
D11*
X113832000Y-151928000D03*
X111292000Y-154468000D03*
X113832000Y-154468000D03*
D12*
X107100780Y-109251460D03*
D10*
X122047000Y-137795000D03*
D11*
X119507000Y-137795000D03*
X122047000Y-135255000D03*
X119507000Y-135255000D03*
X122047000Y-132715000D03*
X119507000Y-132715000D03*
X122047000Y-130175000D03*
X119507000Y-130175000D03*
D13*
X107100000Y-107848400D03*
X102850000Y-107848400D03*
X111350000Y-107848400D03*
D14*
X99560000Y-114950000D03*
X100829990Y-114950000D03*
X102100000Y-114950000D03*
X103370000Y-114950000D03*
X104640000Y-114950000D03*
D15*
X107100000Y-117410000D03*
X107100000Y-118679990D03*
X107100000Y-119950000D03*
X107100000Y-121220000D03*
X107100000Y-122490000D03*
D14*
X104640000Y-124950000D03*
X103370000Y-124950000D03*
X102100000Y-124950000D03*
X100829990Y-124950000D03*
X99560000Y-124950000D03*
D15*
X97100000Y-122490000D03*
X97100000Y-121220000D03*
X97100000Y-119950000D03*
X97100000Y-118679990D03*
X97100000Y-117410000D03*
D16*
X100700000Y-107442000D03*
X100700000Y-105918000D03*
X100700000Y-110871000D03*
X100700000Y-112500000D03*
X100700000Y-109093000D03*
X113500000Y-110871000D03*
X102432000Y-138568000D03*
X111632000Y-124053600D03*
X112732000Y-124053600D03*
X110532000Y-124053600D03*
X86741000Y-128270000D03*
X113500000Y-105918000D03*
X113500000Y-107442000D03*
X113500000Y-109093000D03*
X105900000Y-114200000D03*
X109100000Y-117450000D03*
X102852000Y-132715000D03*
X113792000Y-143764000D03*
X105300000Y-117400000D03*
X104278000Y-112500000D03*
X113500000Y-112500000D03*
X96647000Y-139750800D03*
X108271000Y-112500000D03*
X106172000Y-148590000D03*
X89154000Y-148590000D03*
X96647000Y-142798800D03*
X98171000Y-142798800D03*
X111849000Y-112500000D03*
X114681000Y-144780000D03*
X113792000Y-145796000D03*
X110071000Y-112500000D03*
X102500000Y-112500000D03*
X108300000Y-114200000D03*
X95148400Y-142798800D03*
X96647000Y-141274800D03*
X108329000Y-115900000D03*
X105800000Y-112500000D03*
X106000000Y-115900000D03*
X95148400Y-141274800D03*
X95148400Y-139750800D03*
X98171000Y-139750800D03*
X98171000Y-141274800D03*
X122682000Y-127698500D03*
X118618000Y-127698500D03*
X106172000Y-147320000D03*
X99100000Y-117200000D03*
X111632000Y-134268000D03*
X112732000Y-134268000D03*
X110532000Y-134268000D03*
X122682000Y-119761000D03*
X108631500Y-148751000D03*
X113700000Y-119100000D03*
X97500000Y-124100000D03*
X94000000Y-123317000D03*
X104200000Y-128800000D03*
X88200000Y-117400000D03*
X114681000Y-147320000D03*
X120813090Y-116686900D03*
X120532000Y-120468000D03*
X89407998Y-115671600D03*
X89000000Y-147325000D03*
X89900000Y-139725000D03*
X88700000Y-138450000D03*
X90700000Y-135600000D03*
X88700000Y-133300000D03*
X104900000Y-127700000D03*
X109132000Y-127668006D03*
X85039200Y-143560804D03*
X84531209Y-144805391D03*
X106849400Y-137185400D03*
X115232000Y-121538998D03*
X108174600Y-139725400D03*
X116697000Y-120539000D03*
X89775000Y-129200000D03*
D17*
X102125000Y-126675000D02*
X89900000Y-138900000D01*
X89900000Y-138900000D02*
X89900000Y-139725000D01*
X99560000Y-124950000D02*
X99050000Y-124950000D01*
X99050000Y-124950000D02*
X88700000Y-135300000D01*
X88700000Y-135300000D02*
X88700000Y-138450000D01*
X107100000Y-118679990D02*
X108679990Y-118679990D01*
X100829990Y-114950000D02*
X100829990Y-113629990D01*
X113500000Y-107442000D02*
X111756400Y-107442000D01*
X97100000Y-122490000D02*
X97100000Y-123300000D01*
X111756400Y-107442000D02*
X111350000Y-107848400D01*
X107100000Y-118679990D02*
X105520010Y-118679990D01*
X100829990Y-114950000D02*
X100829990Y-116270010D01*
X100700000Y-107442000D02*
X102443600Y-107442000D01*
X102443600Y-107442000D02*
X102850000Y-107848400D01*
X100800000Y-114920010D02*
X100829990Y-114950000D01*
X98490000Y-122490000D02*
X95710000Y-122490000D01*
X97100000Y-122490000D02*
X98490000Y-122490000D01*
X122682000Y-127698500D02*
X118618000Y-127698500D01*
X99540000Y-116760000D02*
X99560000Y-116760000D01*
X99100000Y-117200000D02*
X99540000Y-116760000D01*
X99560000Y-114950000D02*
X99560000Y-116760000D01*
X86829000Y-107797600D02*
X89407998Y-110376598D01*
X89407998Y-110376598D02*
X89407998Y-115671600D01*
X85725000Y-107797600D02*
X86829000Y-107797600D01*
X91150000Y-145450000D02*
X89275000Y-147325000D01*
X103370000Y-124950000D02*
X103370000Y-127855000D01*
X103370000Y-127855000D02*
X91150000Y-140075000D01*
X91150000Y-140075000D02*
X91150000Y-145450000D01*
X89275000Y-147325000D02*
X89000000Y-147325000D01*
X102125000Y-125325000D02*
X102125000Y-126675000D01*
X102100000Y-124950000D02*
X102100000Y-125300000D01*
X102100000Y-125300000D02*
X102125000Y-125325000D01*
X100829990Y-125470010D02*
X90700000Y-135600000D01*
X100829990Y-124950000D02*
X100829990Y-125470010D01*
X92700000Y-129350000D02*
X88750000Y-133300000D01*
X93790000Y-117410000D02*
X92700000Y-118500000D01*
X97100000Y-117410000D02*
X93790000Y-117410000D01*
X88750000Y-133300000D02*
X88700000Y-133300000D01*
X92700000Y-118500000D02*
X92700000Y-129350000D01*
X109132000Y-127668006D02*
X109100006Y-127700000D01*
X109100006Y-127700000D02*
X104900000Y-127700000D01*
D18*
X84498611Y-114103989D02*
X84498611Y-143020215D01*
X85725000Y-112877600D02*
X84498611Y-114103989D01*
X85039200Y-143560804D02*
X84498611Y-143020215D01*
X85725000Y-110337600D02*
X84048600Y-112014000D01*
X84048600Y-144322782D02*
X84531209Y-144805391D01*
X84048600Y-112014000D02*
X84048600Y-144322782D01*
D19*
X107100000Y-117410000D02*
X107100000Y-107848400D01*
X107100780Y-117409220D02*
X107100000Y-117410000D01*
D17*
X109932000Y-153108000D02*
X109932000Y-143968000D01*
X106849400Y-137185400D02*
X111614600Y-137185400D01*
X111614600Y-137185400D02*
X115232000Y-133568000D01*
X109932000Y-143968000D02*
X106849400Y-140885400D01*
X106849400Y-140885400D02*
X106849400Y-137185400D01*
X115232000Y-133568000D02*
X115232000Y-121538998D01*
X111292000Y-154468000D02*
X109932000Y-153108000D01*
X111292000Y-143428000D02*
X108174600Y-140310600D01*
X108174600Y-140310600D02*
X108174600Y-139725400D01*
X116697000Y-133503000D02*
X110474600Y-139725400D01*
X116697000Y-120539000D02*
X116697000Y-133503000D01*
X110474600Y-139725400D02*
X108174600Y-139725400D01*
X111292000Y-151928000D02*
X111292000Y-143428000D01*
D18*
X89050000Y-129100000D02*
X89775000Y-129100000D01*
X85725000Y-123037600D02*
X85725000Y-125775000D01*
X85725000Y-125775000D02*
X89050000Y-129100000D01*
G04 #@! TA.AperFunction,Conductor*
G36*
X123493838Y-105029108D02*
G01*
X123561676Y-105033553D01*
X123583172Y-105034962D01*
X123589680Y-105035818D01*
X123833332Y-105084284D01*
X123839681Y-105085985D01*
X124074917Y-105165836D01*
X124080996Y-105168355D01*
X124303789Y-105278223D01*
X124309493Y-105281516D01*
X124516040Y-105419527D01*
X124521253Y-105423527D01*
X124708023Y-105587318D01*
X124712679Y-105591974D01*
X124876471Y-105778744D01*
X124880472Y-105783959D01*
X125018483Y-105990506D01*
X125021776Y-105996210D01*
X125131644Y-106219003D01*
X125134165Y-106225088D01*
X125214011Y-106460306D01*
X125215715Y-106466668D01*
X125264177Y-106710299D01*
X125265037Y-106716829D01*
X125281391Y-106966360D01*
X125281499Y-106969651D01*
X125281500Y-149451592D01*
X125281500Y-149464702D01*
X125281069Y-149471275D01*
X125267912Y-149571207D01*
X125261119Y-149596564D01*
X125257258Y-149605888D01*
X125216884Y-149653170D01*
X125164312Y-149668000D01*
X115832000Y-149668000D01*
X115832000Y-150214526D01*
X115822038Y-150258173D01*
X115809105Y-150285030D01*
X115781500Y-150405972D01*
X115781500Y-150457955D01*
X115781499Y-155964709D01*
X115781068Y-155971282D01*
X115767912Y-156071207D01*
X115761115Y-156096574D01*
X115726347Y-156180512D01*
X115713216Y-156203256D01*
X115657906Y-156275337D01*
X115639337Y-156293906D01*
X115567256Y-156349216D01*
X115544512Y-156362347D01*
X115460574Y-156397115D01*
X115435207Y-156403912D01*
X115350910Y-156415010D01*
X115335272Y-156417069D01*
X115328702Y-156417500D01*
X112732600Y-156417500D01*
X112673469Y-156398287D01*
X112636924Y-156347987D01*
X112632000Y-156316900D01*
X112632000Y-155076557D01*
X112651213Y-155017426D01*
X112701513Y-154980881D01*
X112763687Y-154980881D01*
X112813987Y-155017426D01*
X112822653Y-155031716D01*
X112845958Y-155078519D01*
X112845961Y-155078523D01*
X112974937Y-155249317D01*
X113133086Y-155393490D01*
X113133095Y-155393496D01*
X113315055Y-155506162D01*
X113315059Y-155506164D01*
X113514618Y-155583473D01*
X113724990Y-155622800D01*
X113730400Y-155622800D01*
X113730400Y-155068600D01*
X113749613Y-155009469D01*
X113799913Y-154972924D01*
X113831000Y-154968000D01*
X113833000Y-154968000D01*
X113892131Y-154987213D01*
X113928676Y-155037513D01*
X113933600Y-155068600D01*
X113933600Y-155622800D01*
X113939010Y-155622800D01*
X114149381Y-155583473D01*
X114348940Y-155506164D01*
X114348944Y-155506162D01*
X114530904Y-155393496D01*
X114530913Y-155393490D01*
X114689062Y-155249317D01*
X114818038Y-155078523D01*
X114818039Y-155078523D01*
X114913430Y-154886953D01*
X114972000Y-154681102D01*
X114982332Y-154569600D01*
X114432600Y-154569600D01*
X114373469Y-154550387D01*
X114336924Y-154500087D01*
X114332000Y-154469000D01*
X114332000Y-154467000D01*
X114351213Y-154407869D01*
X114401513Y-154371324D01*
X114432600Y-154366400D01*
X114982331Y-154366400D01*
X114972000Y-154254897D01*
X114913430Y-154049046D01*
X114818039Y-153857476D01*
X114689062Y-153686682D01*
X114530913Y-153542509D01*
X114530904Y-153542503D01*
X114348944Y-153429837D01*
X114348940Y-153429835D01*
X114149381Y-153352526D01*
X113939010Y-153313200D01*
X113933600Y-153313200D01*
X113933600Y-153867400D01*
X113914387Y-153926531D01*
X113864087Y-153963076D01*
X113833000Y-153968000D01*
X113831000Y-153968000D01*
X113771869Y-153948787D01*
X113735324Y-153898487D01*
X113730400Y-153867400D01*
X113730400Y-153313200D01*
X113724990Y-153313200D01*
X113514618Y-153352526D01*
X113315059Y-153429835D01*
X113315055Y-153429837D01*
X113133095Y-153542503D01*
X113133086Y-153542509D01*
X112974937Y-153686682D01*
X112845961Y-153857476D01*
X112845960Y-153857476D01*
X112822653Y-153904284D01*
X112779097Y-153948652D01*
X112717781Y-153958945D01*
X112662125Y-153931231D01*
X112633388Y-153876096D01*
X112632000Y-153859442D01*
X112632000Y-152423712D01*
X112651213Y-152364581D01*
X112701513Y-152328036D01*
X112763687Y-152328036D01*
X112813987Y-152364581D01*
X112822653Y-152378870D01*
X112888909Y-152511930D01*
X112888910Y-152511931D01*
X112888912Y-152511935D01*
X113012268Y-152675285D01*
X113163528Y-152813178D01*
X113163532Y-152813181D01*
X113163538Y-152813186D01*
X113337573Y-152920944D01*
X113528444Y-152994888D01*
X113577824Y-153004118D01*
X113729651Y-153032500D01*
X113729653Y-153032500D01*
X113934348Y-153032500D01*
X114013339Y-153017734D01*
X114135556Y-152994888D01*
X114326427Y-152920944D01*
X114500462Y-152813186D01*
X114651732Y-152675285D01*
X114775088Y-152511935D01*
X114866328Y-152328701D01*
X114922345Y-152131821D01*
X114941232Y-151928000D01*
X114922345Y-151724179D01*
X114866328Y-151527299D01*
X114775088Y-151344065D01*
X114651732Y-151180715D01*
X114651731Y-151180714D01*
X114500471Y-151042821D01*
X114500466Y-151042817D01*
X114500462Y-151042814D01*
X114326427Y-150935056D01*
X114326423Y-150935054D01*
X114135554Y-150861111D01*
X114135549Y-150861110D01*
X113934349Y-150823500D01*
X113934347Y-150823500D01*
X113729653Y-150823500D01*
X113729651Y-150823500D01*
X113528450Y-150861110D01*
X113528445Y-150861111D01*
X113337576Y-150935054D01*
X113337572Y-150935056D01*
X113267087Y-150978699D01*
X113163538Y-151042814D01*
X113163536Y-151042815D01*
X113163537Y-151042815D01*
X113163528Y-151042821D01*
X113012268Y-151180714D01*
X112888910Y-151344068D01*
X112888909Y-151344069D01*
X112822653Y-151477129D01*
X112779097Y-151521497D01*
X112717781Y-151531790D01*
X112662125Y-151504076D01*
X112633388Y-151448941D01*
X112632000Y-151432287D01*
X112632000Y-149668000D01*
X111774100Y-149668000D01*
X111714969Y-149648787D01*
X111678424Y-149598487D01*
X111673500Y-149567400D01*
X111673500Y-147320000D01*
X114021693Y-147320000D01*
X114040851Y-147477782D01*
X114097213Y-147626395D01*
X114187502Y-147757201D01*
X114187503Y-147757202D01*
X114187504Y-147757203D01*
X114187505Y-147757204D01*
X114306468Y-147862597D01*
X114306469Y-147862598D01*
X114306471Y-147862599D01*
X114447207Y-147936463D01*
X114601529Y-147974500D01*
X114601533Y-147974500D01*
X114760467Y-147974500D01*
X114760471Y-147974500D01*
X114914793Y-147936463D01*
X115055529Y-147862599D01*
X115174498Y-147757201D01*
X115264787Y-147626395D01*
X115321149Y-147477782D01*
X115340307Y-147320000D01*
X115321149Y-147162218D01*
X115264787Y-147013605D01*
X115174498Y-146882799D01*
X115174495Y-146882796D01*
X115174491Y-146882792D01*
X115055531Y-146777402D01*
X115055530Y-146777401D01*
X114914795Y-146703538D01*
X114914794Y-146703537D01*
X114914793Y-146703537D01*
X114836546Y-146684251D01*
X114760473Y-146665500D01*
X114760471Y-146665500D01*
X114601529Y-146665500D01*
X114601526Y-146665500D01*
X114487415Y-146693626D01*
X114447207Y-146703537D01*
X114447206Y-146703537D01*
X114447204Y-146703538D01*
X114306469Y-146777401D01*
X114306468Y-146777402D01*
X114187509Y-146882792D01*
X114187504Y-146882796D01*
X114097212Y-147013606D01*
X114095316Y-147018606D01*
X114040851Y-147162218D01*
X114021693Y-147320000D01*
X111673500Y-147320000D01*
X111673500Y-143478001D01*
X111675641Y-143457354D01*
X111678445Y-143443981D01*
X111673887Y-143407417D01*
X111673500Y-143401188D01*
X111673500Y-143396391D01*
X111673499Y-143396379D01*
X111669596Y-143372997D01*
X111662696Y-143317643D01*
X111662696Y-143317639D01*
X111662692Y-143317632D01*
X111660413Y-143309975D01*
X111657816Y-143302408D01*
X111631839Y-143254410D01*
X111631272Y-143253362D01*
X111606776Y-143203254D01*
X111602121Y-143196734D01*
X111597219Y-143190436D01*
X111575915Y-143170825D01*
X111556180Y-143152658D01*
X108685735Y-140282213D01*
X108657511Y-140226818D01*
X108667237Y-140165410D01*
X108674089Y-140153921D01*
X108675280Y-140152195D01*
X108676566Y-140150334D01*
X108725977Y-140112595D01*
X108759345Y-140106900D01*
X110424599Y-140106900D01*
X110445243Y-140109040D01*
X110458617Y-140111845D01*
X110495182Y-140107286D01*
X110501411Y-140106900D01*
X110506209Y-140106900D01*
X110506211Y-140106900D01*
X110506213Y-140106899D01*
X110506220Y-140106899D01*
X110523768Y-140103969D01*
X110529604Y-140102996D01*
X110584960Y-140096096D01*
X110584966Y-140096092D01*
X110592612Y-140093817D01*
X110600180Y-140091218D01*
X110600186Y-140091218D01*
X110649241Y-140064670D01*
X110699346Y-140040176D01*
X110699349Y-140040172D01*
X110705860Y-140035523D01*
X110712155Y-140030623D01*
X110712162Y-140030620D01*
X110749941Y-139989580D01*
X112944522Y-137794999D01*
X118397768Y-137794999D01*
X118416654Y-137998816D01*
X118416654Y-137998817D01*
X118472672Y-138195703D01*
X118472673Y-138195704D01*
X118563909Y-138378930D01*
X118563910Y-138378931D01*
X118563912Y-138378935D01*
X118617578Y-138450000D01*
X118687268Y-138542285D01*
X118838528Y-138680178D01*
X118838532Y-138680181D01*
X118838538Y-138680186D01*
X119012573Y-138787944D01*
X119203444Y-138861888D01*
X119252824Y-138871118D01*
X119404651Y-138899500D01*
X119404653Y-138899500D01*
X119609348Y-138899500D01*
X119688350Y-138884732D01*
X119810556Y-138861888D01*
X120001427Y-138787944D01*
X120175462Y-138680186D01*
X120186564Y-138670065D01*
X120942500Y-138670065D01*
X120957266Y-138744301D01*
X120957267Y-138744304D01*
X121013514Y-138828482D01*
X121013515Y-138828483D01*
X121013516Y-138828484D01*
X121097699Y-138884734D01*
X121171933Y-138899500D01*
X122922066Y-138899499D01*
X122996301Y-138884734D01*
X123080484Y-138828484D01*
X123136734Y-138744301D01*
X123151500Y-138670067D01*
X123151499Y-136919934D01*
X123136734Y-136845699D01*
X123136732Y-136845697D01*
X123136732Y-136845695D01*
X123080485Y-136761517D01*
X123080483Y-136761515D01*
X123030492Y-136728112D01*
X122996301Y-136705266D01*
X122996300Y-136705265D01*
X122996299Y-136705265D01*
X122940498Y-136694166D01*
X122922067Y-136690500D01*
X122922066Y-136690500D01*
X121171934Y-136690500D01*
X121097698Y-136705266D01*
X121097695Y-136705267D01*
X121013517Y-136761514D01*
X121013515Y-136761516D01*
X120957265Y-136845700D01*
X120942500Y-136919933D01*
X120942500Y-138670065D01*
X120186564Y-138670065D01*
X120326732Y-138542285D01*
X120450088Y-138378935D01*
X120541328Y-138195701D01*
X120597345Y-137998821D01*
X120616232Y-137795000D01*
X120597345Y-137591179D01*
X120541328Y-137394299D01*
X120450088Y-137211065D01*
X120326732Y-137047715D01*
X120304687Y-137027618D01*
X120175471Y-136909821D01*
X120175466Y-136909817D01*
X120175462Y-136909814D01*
X120001427Y-136802056D01*
X120001423Y-136802054D01*
X119810554Y-136728111D01*
X119810549Y-136728110D01*
X119609349Y-136690500D01*
X119609347Y-136690500D01*
X119404653Y-136690500D01*
X119404651Y-136690500D01*
X119203450Y-136728110D01*
X119203445Y-136728111D01*
X119012576Y-136802054D01*
X119012572Y-136802056D01*
X118904814Y-136868777D01*
X118838538Y-136909814D01*
X118838536Y-136909815D01*
X118838537Y-136909815D01*
X118838528Y-136909821D01*
X118687268Y-137047714D01*
X118563910Y-137211068D01*
X118563909Y-137211069D01*
X118472673Y-137394295D01*
X118472672Y-137394296D01*
X118416654Y-137591182D01*
X118416654Y-137591183D01*
X118397768Y-137794999D01*
X112944522Y-137794999D01*
X115484520Y-135255000D01*
X118397768Y-135255000D01*
X118416654Y-135458816D01*
X118416654Y-135458817D01*
X118472672Y-135655703D01*
X118472673Y-135655704D01*
X118563909Y-135838930D01*
X118563910Y-135838931D01*
X118563912Y-135838935D01*
X118687267Y-136002285D01*
X118687268Y-136002285D01*
X118838528Y-136140178D01*
X118838532Y-136140181D01*
X118838538Y-136140186D01*
X119012573Y-136247944D01*
X119203444Y-136321888D01*
X119252824Y-136331118D01*
X119404651Y-136359500D01*
X119404653Y-136359500D01*
X119609348Y-136359500D01*
X119685261Y-136345309D01*
X119810556Y-136321888D01*
X120001427Y-136247944D01*
X120175462Y-136140186D01*
X120326732Y-136002285D01*
X120450088Y-135838935D01*
X120541328Y-135655701D01*
X120597345Y-135458821D01*
X120616232Y-135255000D01*
X120616232Y-135254999D01*
X120937768Y-135254999D01*
X120956654Y-135458816D01*
X120956654Y-135458817D01*
X121012672Y-135655703D01*
X121012673Y-135655704D01*
X121103909Y-135838930D01*
X121103910Y-135838931D01*
X121103912Y-135838935D01*
X121227267Y-136002285D01*
X121227268Y-136002285D01*
X121378528Y-136140178D01*
X121378532Y-136140181D01*
X121378538Y-136140186D01*
X121552573Y-136247944D01*
X121743444Y-136321888D01*
X121792824Y-136331118D01*
X121944651Y-136359500D01*
X121944653Y-136359500D01*
X122149348Y-136359500D01*
X122225261Y-136345309D01*
X122350556Y-136321888D01*
X122541427Y-136247944D01*
X122715462Y-136140186D01*
X122866732Y-136002285D01*
X122990088Y-135838935D01*
X123081328Y-135655701D01*
X123137345Y-135458821D01*
X123156232Y-135255000D01*
X123137345Y-135051179D01*
X123081328Y-134854299D01*
X122990088Y-134671065D01*
X122866732Y-134507715D01*
X122866731Y-134507714D01*
X122715471Y-134369821D01*
X122715466Y-134369817D01*
X122715462Y-134369814D01*
X122541427Y-134262056D01*
X122541423Y-134262054D01*
X122350554Y-134188111D01*
X122350549Y-134188110D01*
X122149349Y-134150500D01*
X122149347Y-134150500D01*
X121944653Y-134150500D01*
X121944651Y-134150500D01*
X121743450Y-134188110D01*
X121743445Y-134188111D01*
X121552576Y-134262054D01*
X121552572Y-134262056D01*
X121444813Y-134328777D01*
X121378538Y-134369814D01*
X121378536Y-134369815D01*
X121378537Y-134369815D01*
X121378528Y-134369821D01*
X121227268Y-134507714D01*
X121103910Y-134671068D01*
X121103909Y-134671069D01*
X121012673Y-134854295D01*
X121012672Y-134854296D01*
X120956654Y-135051182D01*
X120956654Y-135051183D01*
X120937768Y-135254999D01*
X120616232Y-135254999D01*
X120597345Y-135051179D01*
X120541328Y-134854299D01*
X120450088Y-134671065D01*
X120326732Y-134507715D01*
X120326731Y-134507714D01*
X120175471Y-134369821D01*
X120175466Y-134369817D01*
X120175462Y-134369814D01*
X120001427Y-134262056D01*
X120001423Y-134262054D01*
X119810554Y-134188111D01*
X119810549Y-134188110D01*
X119609349Y-134150500D01*
X119609347Y-134150500D01*
X119404653Y-134150500D01*
X119404651Y-134150500D01*
X119203450Y-134188110D01*
X119203445Y-134188111D01*
X119012576Y-134262054D01*
X119012572Y-134262056D01*
X118904814Y-134328777D01*
X118838538Y-134369814D01*
X118838536Y-134369815D01*
X118838537Y-134369815D01*
X118838528Y-134369821D01*
X118687268Y-134507714D01*
X118563910Y-134671068D01*
X118563909Y-134671069D01*
X118472673Y-134854295D01*
X118472672Y-134854296D01*
X118416654Y-135051182D01*
X118416654Y-135051183D01*
X118397768Y-135255000D01*
X115484520Y-135255000D01*
X116931407Y-133808113D01*
X116947513Y-133795034D01*
X116958956Y-133787560D01*
X116981592Y-133758475D01*
X116985727Y-133753794D01*
X116989113Y-133750409D01*
X116989121Y-133750398D01*
X117002892Y-133731110D01*
X117024904Y-133702827D01*
X117037158Y-133687085D01*
X117037159Y-133687083D01*
X117040953Y-133680073D01*
X117044470Y-133672876D01*
X117044475Y-133672870D01*
X117060390Y-133619410D01*
X117078500Y-133566661D01*
X117078500Y-133566660D01*
X117079816Y-133558775D01*
X117080805Y-133550839D01*
X117078500Y-133495116D01*
X117078500Y-132714999D01*
X118397768Y-132714999D01*
X118416654Y-132918816D01*
X118416654Y-132918817D01*
X118472672Y-133115703D01*
X118472673Y-133115704D01*
X118563909Y-133298930D01*
X118563910Y-133298931D01*
X118563912Y-133298935D01*
X118687267Y-133462285D01*
X118687268Y-133462285D01*
X118838528Y-133600178D01*
X118838532Y-133600181D01*
X118838538Y-133600186D01*
X119012573Y-133707944D01*
X119203444Y-133781888D01*
X119233782Y-133787559D01*
X119404651Y-133819500D01*
X119404653Y-133819500D01*
X119609348Y-133819500D01*
X119709705Y-133800740D01*
X119810556Y-133781888D01*
X120001427Y-133707944D01*
X120175462Y-133600186D01*
X120326732Y-133462285D01*
X120450088Y-133298935D01*
X120541328Y-133115701D01*
X120597345Y-132918821D01*
X120606817Y-132816600D01*
X120896668Y-132816600D01*
X120906999Y-132928102D01*
X120965569Y-133133953D01*
X121060960Y-133325523D01*
X121189937Y-133496317D01*
X121348086Y-133640490D01*
X121348095Y-133640496D01*
X121530055Y-133753162D01*
X121530059Y-133753164D01*
X121729618Y-133830473D01*
X121939990Y-133869800D01*
X121945400Y-133869800D01*
X121945400Y-133315600D01*
X121964613Y-133256469D01*
X122014913Y-133219924D01*
X122046000Y-133215000D01*
X122048000Y-133215000D01*
X122107131Y-133234213D01*
X122143676Y-133284513D01*
X122148600Y-133315600D01*
X122148600Y-133869800D01*
X122154010Y-133869800D01*
X122364381Y-133830473D01*
X122563940Y-133753164D01*
X122563944Y-133753162D01*
X122745904Y-133640496D01*
X122745913Y-133640490D01*
X122904062Y-133496317D01*
X123033038Y-133325523D01*
X123033039Y-133325523D01*
X123128430Y-133133953D01*
X123187000Y-132928102D01*
X123197332Y-132816600D01*
X122647600Y-132816600D01*
X122588469Y-132797387D01*
X122551924Y-132747087D01*
X122547000Y-132716000D01*
X122547000Y-132714000D01*
X122566213Y-132654869D01*
X122616513Y-132618324D01*
X122647600Y-132613400D01*
X123197331Y-132613400D01*
X123187000Y-132501897D01*
X123128430Y-132296046D01*
X123033039Y-132104476D01*
X122904062Y-131933682D01*
X122745913Y-131789509D01*
X122745904Y-131789503D01*
X122563944Y-131676837D01*
X122563940Y-131676835D01*
X122364381Y-131599526D01*
X122154010Y-131560200D01*
X122148600Y-131560200D01*
X122148600Y-132114400D01*
X122129387Y-132173531D01*
X122079087Y-132210076D01*
X122048000Y-132215000D01*
X122046000Y-132215000D01*
X121986869Y-132195787D01*
X121950324Y-132145487D01*
X121945400Y-132114400D01*
X121945400Y-131560200D01*
X121939990Y-131560200D01*
X121729618Y-131599526D01*
X121530059Y-131676835D01*
X121530055Y-131676837D01*
X121348095Y-131789503D01*
X121348086Y-131789509D01*
X121189937Y-131933682D01*
X121060961Y-132104476D01*
X121060960Y-132104476D01*
X120965569Y-132296046D01*
X120906999Y-132501897D01*
X120896668Y-132613400D01*
X121446400Y-132613400D01*
X121505531Y-132632613D01*
X121542076Y-132682913D01*
X121547000Y-132714000D01*
X121547000Y-132716000D01*
X121527787Y-132775131D01*
X121477487Y-132811676D01*
X121446400Y-132816600D01*
X120896668Y-132816600D01*
X120606817Y-132816600D01*
X120616232Y-132715000D01*
X120597345Y-132511179D01*
X120541328Y-132314299D01*
X120450088Y-132131065D01*
X120326732Y-131967715D01*
X120289400Y-131933682D01*
X120175471Y-131829821D01*
X120175466Y-131829817D01*
X120175462Y-131829814D01*
X120001427Y-131722056D01*
X120001423Y-131722054D01*
X119810554Y-131648111D01*
X119810549Y-131648110D01*
X119609349Y-131610500D01*
X119609347Y-131610500D01*
X119404653Y-131610500D01*
X119404651Y-131610500D01*
X119203450Y-131648110D01*
X119203445Y-131648111D01*
X119012576Y-131722054D01*
X119012572Y-131722056D01*
X118904813Y-131788777D01*
X118838538Y-131829814D01*
X118838536Y-131829815D01*
X118838537Y-131829815D01*
X118838528Y-131829821D01*
X118687268Y-131967714D01*
X118563910Y-132131068D01*
X118563909Y-132131069D01*
X118472673Y-132314295D01*
X118472672Y-132314296D01*
X118416654Y-132511182D01*
X118416654Y-132511183D01*
X118397768Y-132714999D01*
X117078500Y-132714999D01*
X117078500Y-130174999D01*
X118397768Y-130174999D01*
X118416654Y-130378816D01*
X118416654Y-130378817D01*
X118472672Y-130575703D01*
X118472673Y-130575704D01*
X118563909Y-130758930D01*
X118563910Y-130758931D01*
X118563912Y-130758935D01*
X118687267Y-130922285D01*
X118687268Y-130922285D01*
X118838528Y-131060178D01*
X118838532Y-131060181D01*
X118838538Y-131060186D01*
X119012573Y-131167944D01*
X119203444Y-131241888D01*
X119252824Y-131251118D01*
X119404651Y-131279500D01*
X119404653Y-131279500D01*
X119609348Y-131279500D01*
X119685261Y-131265309D01*
X119810556Y-131241888D01*
X120001427Y-131167944D01*
X120175462Y-131060186D01*
X120326732Y-130922285D01*
X120450088Y-130758935D01*
X120541328Y-130575701D01*
X120597345Y-130378821D01*
X120616232Y-130175000D01*
X120937768Y-130175000D01*
X120956654Y-130378816D01*
X120956654Y-130378817D01*
X121012672Y-130575703D01*
X121012673Y-130575704D01*
X121103909Y-130758930D01*
X121103910Y-130758931D01*
X121103912Y-130758935D01*
X121227267Y-130922285D01*
X121227268Y-130922285D01*
X121378528Y-131060178D01*
X121378532Y-131060181D01*
X121378538Y-131060186D01*
X121552573Y-131167944D01*
X121743444Y-131241888D01*
X121792824Y-131251118D01*
X121944651Y-131279500D01*
X121944653Y-131279500D01*
X122149348Y-131279500D01*
X122225261Y-131265309D01*
X122350556Y-131241888D01*
X122541427Y-131167944D01*
X122715462Y-131060186D01*
X122866732Y-130922285D01*
X122990088Y-130758935D01*
X123081328Y-130575701D01*
X123137345Y-130378821D01*
X123156232Y-130175000D01*
X123137345Y-129971179D01*
X123081328Y-129774299D01*
X122990088Y-129591065D01*
X122866732Y-129427715D01*
X122842666Y-129405776D01*
X122715471Y-129289821D01*
X122715466Y-129289817D01*
X122715462Y-129289814D01*
X122541427Y-129182056D01*
X122541423Y-129182054D01*
X122350554Y-129108111D01*
X122350549Y-129108110D01*
X122149349Y-129070500D01*
X122149347Y-129070500D01*
X121944653Y-129070500D01*
X121944651Y-129070500D01*
X121743450Y-129108110D01*
X121743445Y-129108111D01*
X121552576Y-129182054D01*
X121552572Y-129182056D01*
X121463506Y-129237204D01*
X121378538Y-129289814D01*
X121378536Y-129289815D01*
X121378537Y-129289815D01*
X121378528Y-129289821D01*
X121227268Y-129427714D01*
X121103910Y-129591068D01*
X121103909Y-129591069D01*
X121012673Y-129774295D01*
X121012672Y-129774296D01*
X120956654Y-129971182D01*
X120956654Y-129971183D01*
X120937768Y-130175000D01*
X120616232Y-130175000D01*
X120597345Y-129971179D01*
X120541328Y-129774299D01*
X120450088Y-129591065D01*
X120326732Y-129427715D01*
X120302666Y-129405776D01*
X120175471Y-129289821D01*
X120175466Y-129289817D01*
X120175462Y-129289814D01*
X120001427Y-129182056D01*
X120001423Y-129182054D01*
X119810554Y-129108111D01*
X119810549Y-129108110D01*
X119609349Y-129070500D01*
X119609347Y-129070500D01*
X119404653Y-129070500D01*
X119404651Y-129070500D01*
X119203450Y-129108110D01*
X119203445Y-129108111D01*
X119012576Y-129182054D01*
X119012572Y-129182056D01*
X118923506Y-129237204D01*
X118838538Y-129289814D01*
X118838536Y-129289815D01*
X118838537Y-129289815D01*
X118838528Y-129289821D01*
X118687268Y-129427714D01*
X118563910Y-129591068D01*
X118563909Y-129591069D01*
X118472673Y-129774295D01*
X118472672Y-129774296D01*
X118416654Y-129971182D01*
X118416654Y-129971183D01*
X118397768Y-130174999D01*
X117078500Y-130174999D01*
X117078500Y-127698500D01*
X117958693Y-127698500D01*
X117977851Y-127856282D01*
X118034213Y-128004895D01*
X118124502Y-128135701D01*
X118124503Y-128135702D01*
X118124504Y-128135703D01*
X118124505Y-128135704D01*
X118243468Y-128241097D01*
X118243469Y-128241098D01*
X118243471Y-128241099D01*
X118384207Y-128314963D01*
X118538529Y-128353000D01*
X118538533Y-128353000D01*
X118697467Y-128353000D01*
X118697471Y-128353000D01*
X118851793Y-128314963D01*
X118992529Y-128241099D01*
X119111498Y-128135701D01*
X119111503Y-128135694D01*
X119119954Y-128123452D01*
X119169356Y-128085702D01*
X119202745Y-128080000D01*
X122097255Y-128080000D01*
X122156386Y-128099213D01*
X122180046Y-128123452D01*
X122188496Y-128135694D01*
X122188505Y-128135704D01*
X122307468Y-128241097D01*
X122307469Y-128241098D01*
X122307471Y-128241099D01*
X122448207Y-128314963D01*
X122602529Y-128353000D01*
X122602533Y-128353000D01*
X122761467Y-128353000D01*
X122761471Y-128353000D01*
X122915793Y-128314963D01*
X123056529Y-128241099D01*
X123175498Y-128135701D01*
X123265787Y-128004895D01*
X123322149Y-127856282D01*
X123341307Y-127698500D01*
X123322149Y-127540718D01*
X123265787Y-127392105D01*
X123175498Y-127261299D01*
X123175495Y-127261296D01*
X123175494Y-127261295D01*
X123056531Y-127155902D01*
X123056530Y-127155901D01*
X122915795Y-127082038D01*
X122915794Y-127082037D01*
X122915793Y-127082037D01*
X122837547Y-127062751D01*
X122761473Y-127044000D01*
X122761471Y-127044000D01*
X122602529Y-127044000D01*
X122602526Y-127044000D01*
X122488415Y-127072126D01*
X122448207Y-127082037D01*
X122448206Y-127082037D01*
X122448204Y-127082038D01*
X122307469Y-127155901D01*
X122307468Y-127155902D01*
X122188505Y-127261295D01*
X122188496Y-127261305D01*
X122180046Y-127273548D01*
X122130644Y-127311298D01*
X122097255Y-127317000D01*
X119202745Y-127317000D01*
X119143614Y-127297787D01*
X119119954Y-127273548D01*
X119111503Y-127261305D01*
X119111494Y-127261295D01*
X118992531Y-127155902D01*
X118992530Y-127155901D01*
X118851795Y-127082038D01*
X118851794Y-127082037D01*
X118851793Y-127082037D01*
X118773546Y-127062751D01*
X118697473Y-127044000D01*
X118697471Y-127044000D01*
X118538529Y-127044000D01*
X118538526Y-127044000D01*
X118424415Y-127072126D01*
X118384207Y-127082037D01*
X118384206Y-127082037D01*
X118384204Y-127082038D01*
X118243469Y-127155901D01*
X118243468Y-127155902D01*
X118124505Y-127261295D01*
X118124504Y-127261296D01*
X118034212Y-127392106D01*
X117989416Y-127510224D01*
X117977851Y-127540718D01*
X117958693Y-127698500D01*
X117078500Y-127698500D01*
X117078500Y-121120699D01*
X117097713Y-121061568D01*
X117112390Y-121045399D01*
X117151673Y-121010597D01*
X117190498Y-120976201D01*
X117280787Y-120845395D01*
X117337149Y-120696782D01*
X117356307Y-120539000D01*
X117347686Y-120468000D01*
X119872693Y-120468000D01*
X119891851Y-120625782D01*
X119948213Y-120774395D01*
X120038502Y-120905201D01*
X120038503Y-120905202D01*
X120038504Y-120905203D01*
X120038505Y-120905204D01*
X120157468Y-121010597D01*
X120157469Y-121010598D01*
X120157471Y-121010599D01*
X120298207Y-121084463D01*
X120452529Y-121122500D01*
X120452533Y-121122500D01*
X120611467Y-121122500D01*
X120611471Y-121122500D01*
X120765793Y-121084463D01*
X120906529Y-121010599D01*
X121025498Y-120905201D01*
X121115787Y-120774395D01*
X121172149Y-120625782D01*
X121191307Y-120468000D01*
X121172149Y-120310218D01*
X121115787Y-120161605D01*
X121025498Y-120030799D01*
X121025495Y-120030796D01*
X121025494Y-120030795D01*
X120906531Y-119925402D01*
X120906530Y-119925401D01*
X120765795Y-119851538D01*
X120765794Y-119851537D01*
X120765793Y-119851537D01*
X120687547Y-119832251D01*
X120611473Y-119813500D01*
X120611471Y-119813500D01*
X120452529Y-119813500D01*
X120452526Y-119813500D01*
X120338414Y-119841626D01*
X120298207Y-119851537D01*
X120298206Y-119851537D01*
X120298204Y-119851538D01*
X120157469Y-119925401D01*
X120157468Y-119925402D01*
X120038505Y-120030795D01*
X120038504Y-120030796D01*
X119948212Y-120161606D01*
X119901606Y-120284497D01*
X119891851Y-120310218D01*
X119872693Y-120468000D01*
X117347686Y-120468000D01*
X117337149Y-120381218D01*
X117280787Y-120232605D01*
X117190498Y-120101799D01*
X117190495Y-120101796D01*
X117190494Y-120101795D01*
X117071531Y-119996402D01*
X117071530Y-119996401D01*
X116930795Y-119922538D01*
X116930794Y-119922537D01*
X116930793Y-119922537D01*
X116852547Y-119903251D01*
X116776473Y-119884500D01*
X116776471Y-119884500D01*
X116617529Y-119884500D01*
X116617526Y-119884500D01*
X116503414Y-119912626D01*
X116463207Y-119922537D01*
X116463206Y-119922537D01*
X116463204Y-119922538D01*
X116322469Y-119996401D01*
X116322468Y-119996402D01*
X116203505Y-120101795D01*
X116203504Y-120101796D01*
X116113212Y-120232606D01*
X116086288Y-120303599D01*
X116056851Y-120381218D01*
X116037693Y-120539000D01*
X116056851Y-120696782D01*
X116113213Y-120845395D01*
X116203502Y-120976201D01*
X116274465Y-121039069D01*
X116281610Y-121045399D01*
X116313129Y-121098992D01*
X116315499Y-121120699D01*
X116315499Y-133303307D01*
X116296286Y-133362438D01*
X116286034Y-133374442D01*
X110346042Y-139314435D01*
X110290644Y-139342661D01*
X110274907Y-139343900D01*
X108759345Y-139343900D01*
X108700214Y-139324687D01*
X108676554Y-139300448D01*
X108668103Y-139288205D01*
X108668094Y-139288195D01*
X108549131Y-139182802D01*
X108549130Y-139182801D01*
X108408395Y-139108938D01*
X108408394Y-139108937D01*
X108408393Y-139108937D01*
X108330146Y-139089651D01*
X108254073Y-139070900D01*
X108254071Y-139070900D01*
X108095129Y-139070900D01*
X108095126Y-139070900D01*
X107981014Y-139099026D01*
X107940807Y-139108937D01*
X107940806Y-139108937D01*
X107940804Y-139108938D01*
X107800069Y-139182801D01*
X107800068Y-139182802D01*
X107681105Y-139288195D01*
X107681104Y-139288196D01*
X107590812Y-139419006D01*
X107534603Y-139567218D01*
X107534451Y-139567618D01*
X107515293Y-139725400D01*
X107534451Y-139883182D01*
X107542774Y-139905128D01*
X107590660Y-140031393D01*
X107590813Y-140031795D01*
X107681102Y-140162601D01*
X107681103Y-140162602D01*
X107681104Y-140162603D01*
X107681105Y-140162604D01*
X107754524Y-140227648D01*
X107786044Y-140281240D01*
X107787641Y-140290501D01*
X107792713Y-140331180D01*
X107793100Y-140337409D01*
X107793100Y-140342212D01*
X107797003Y-140365604D01*
X107803903Y-140420957D01*
X107806186Y-140428626D01*
X107808781Y-140436186D01*
X107835329Y-140485241D01*
X107859824Y-140535346D01*
X107864477Y-140541863D01*
X107869379Y-140548161D01*
X107869380Y-140548162D01*
X107910419Y-140585941D01*
X110881036Y-143556558D01*
X110909261Y-143611954D01*
X110910500Y-143627691D01*
X110910500Y-149567400D01*
X110891287Y-149626531D01*
X110840987Y-149663076D01*
X110809900Y-149668000D01*
X110414100Y-149668000D01*
X110354969Y-149648787D01*
X110318424Y-149598487D01*
X110313500Y-149567400D01*
X110313500Y-144018002D01*
X110315641Y-143997355D01*
X110318445Y-143983982D01*
X110313887Y-143947418D01*
X110313500Y-143941189D01*
X110313500Y-143936394D01*
X110313500Y-143936389D01*
X110309595Y-143912993D01*
X110302696Y-143857640D01*
X110302694Y-143857635D01*
X110300423Y-143850007D01*
X110297819Y-143842423D01*
X110297818Y-143842414D01*
X110271276Y-143793368D01*
X110246777Y-143743254D01*
X110246774Y-143743251D01*
X110242118Y-143736730D01*
X110237223Y-143730441D01*
X110196192Y-143692669D01*
X107260365Y-140756842D01*
X107232139Y-140701444D01*
X107230900Y-140685707D01*
X107230900Y-139287794D01*
X107230900Y-137767095D01*
X107250112Y-137707968D01*
X107264780Y-137691807D01*
X107342898Y-137622601D01*
X107342903Y-137622594D01*
X107351354Y-137610352D01*
X107400756Y-137572602D01*
X107434145Y-137566900D01*
X111564599Y-137566900D01*
X111585243Y-137569040D01*
X111598617Y-137571845D01*
X111635182Y-137567286D01*
X111641411Y-137566900D01*
X111646209Y-137566900D01*
X111646211Y-137566900D01*
X111646213Y-137566899D01*
X111646220Y-137566899D01*
X111663768Y-137563969D01*
X111669604Y-137562996D01*
X111724960Y-137556096D01*
X111724966Y-137556092D01*
X111732612Y-137553817D01*
X111740180Y-137551218D01*
X111740186Y-137551218D01*
X111789241Y-137524670D01*
X111839346Y-137500176D01*
X111839349Y-137500172D01*
X111845860Y-137495523D01*
X111852155Y-137490623D01*
X111852162Y-137490620D01*
X111889941Y-137449580D01*
X115466407Y-133873113D01*
X115482513Y-133860034D01*
X115493956Y-133852560D01*
X115516592Y-133823475D01*
X115520727Y-133818794D01*
X115524113Y-133815409D01*
X115524121Y-133815398D01*
X115537892Y-133796110D01*
X115559904Y-133767827D01*
X115572158Y-133752085D01*
X115572159Y-133752083D01*
X115575953Y-133745073D01*
X115579470Y-133737876D01*
X115579475Y-133737870D01*
X115595390Y-133684410D01*
X115613500Y-133631661D01*
X115613500Y-133631660D01*
X115614816Y-133623775D01*
X115615805Y-133615839D01*
X115613500Y-133560116D01*
X115613500Y-127847115D01*
X115613499Y-122120696D01*
X115632712Y-122061566D01*
X115647383Y-122045402D01*
X115725498Y-121976199D01*
X115815787Y-121845393D01*
X115872149Y-121696780D01*
X115891307Y-121538998D01*
X115872149Y-121381216D01*
X115815787Y-121232603D01*
X115725498Y-121101797D01*
X115725495Y-121101794D01*
X115725494Y-121101793D01*
X115606531Y-120996400D01*
X115606530Y-120996399D01*
X115465795Y-120922536D01*
X115465794Y-120922535D01*
X115465793Y-120922535D01*
X115387547Y-120903249D01*
X115311473Y-120884498D01*
X115311471Y-120884498D01*
X115152529Y-120884498D01*
X115152526Y-120884498D01*
X115038415Y-120912624D01*
X114998207Y-120922535D01*
X114998206Y-120922535D01*
X114998204Y-120922536D01*
X114857469Y-120996399D01*
X114857468Y-120996400D01*
X114738505Y-121101793D01*
X114738504Y-121101794D01*
X114648212Y-121232604D01*
X114630648Y-121278917D01*
X114591851Y-121381216D01*
X114572693Y-121538998D01*
X114591851Y-121696780D01*
X114648213Y-121845393D01*
X114738502Y-121976199D01*
X114738503Y-121976200D01*
X114738504Y-121976201D01*
X114738505Y-121976202D01*
X114816610Y-122045397D01*
X114848130Y-122098989D01*
X114850500Y-122120697D01*
X114850500Y-133368307D01*
X114831287Y-133427438D01*
X114821035Y-133439442D01*
X111486042Y-136774435D01*
X111430644Y-136802661D01*
X111414907Y-136803900D01*
X107434145Y-136803900D01*
X107375014Y-136784687D01*
X107351354Y-136760448D01*
X107342903Y-136748205D01*
X107342894Y-136748195D01*
X107223931Y-136642802D01*
X107223930Y-136642801D01*
X107083195Y-136568938D01*
X107083194Y-136568937D01*
X107083193Y-136568937D01*
X107004947Y-136549651D01*
X106928873Y-136530900D01*
X106928871Y-136530900D01*
X106769929Y-136530900D01*
X106769926Y-136530900D01*
X106655814Y-136559026D01*
X106615607Y-136568937D01*
X106615606Y-136568937D01*
X106615604Y-136568938D01*
X106474869Y-136642801D01*
X106474868Y-136642802D01*
X106355905Y-136748195D01*
X106355904Y-136748196D01*
X106265612Y-136879006D01*
X106209251Y-137027617D01*
X106209251Y-137027618D01*
X106190093Y-137185400D01*
X106209251Y-137343182D01*
X106265613Y-137491795D01*
X106355902Y-137622601D01*
X106355903Y-137622602D01*
X106355904Y-137622603D01*
X106355905Y-137622604D01*
X106434010Y-137691799D01*
X106465530Y-137745391D01*
X106467900Y-137767099D01*
X106467900Y-140835399D01*
X106465759Y-140856045D01*
X106462954Y-140869418D01*
X106467513Y-140905981D01*
X106467900Y-140912210D01*
X106467900Y-140917012D01*
X106471803Y-140940404D01*
X106478703Y-140995757D01*
X106480986Y-141003426D01*
X106483581Y-141010986D01*
X106510129Y-141060041D01*
X106534624Y-141110146D01*
X106539277Y-141116663D01*
X106544179Y-141122961D01*
X106544180Y-141122962D01*
X106585219Y-141160741D01*
X109521036Y-144096558D01*
X109549261Y-144151954D01*
X109550500Y-144167691D01*
X109550500Y-149567400D01*
X109531287Y-149626531D01*
X109480987Y-149663076D01*
X109449900Y-149668000D01*
X83183100Y-149668000D01*
X83123969Y-149648787D01*
X83087424Y-149598487D01*
X83082500Y-149567400D01*
X83082500Y-148751000D01*
X107972193Y-148751000D01*
X107991351Y-148908782D01*
X108047713Y-149057395D01*
X108138002Y-149188201D01*
X108138003Y-149188202D01*
X108138004Y-149188203D01*
X108138005Y-149188204D01*
X108256968Y-149293597D01*
X108256969Y-149293598D01*
X108256971Y-149293599D01*
X108397707Y-149367463D01*
X108552029Y-149405500D01*
X108552033Y-149405500D01*
X108710967Y-149405500D01*
X108710971Y-149405500D01*
X108865293Y-149367463D01*
X109006029Y-149293599D01*
X109124998Y-149188201D01*
X109215287Y-149057395D01*
X109271649Y-148908782D01*
X109290807Y-148751000D01*
X109271649Y-148593218D01*
X109215287Y-148444605D01*
X109124998Y-148313799D01*
X109124995Y-148313796D01*
X109124994Y-148313795D01*
X109006031Y-148208402D01*
X109006030Y-148208401D01*
X108865295Y-148134538D01*
X108865294Y-148134537D01*
X108865293Y-148134537D01*
X108787047Y-148115251D01*
X108710973Y-148096500D01*
X108710971Y-148096500D01*
X108552029Y-148096500D01*
X108552026Y-148096500D01*
X108437915Y-148124626D01*
X108397707Y-148134537D01*
X108397706Y-148134537D01*
X108397704Y-148134538D01*
X108256969Y-148208401D01*
X108256968Y-148208402D01*
X108138005Y-148313795D01*
X108138004Y-148313796D01*
X108047712Y-148444606D01*
X107991351Y-148593218D01*
X107972193Y-148751000D01*
X83082500Y-148751000D01*
X83082500Y-144306883D01*
X83664180Y-144306883D01*
X83668713Y-144343235D01*
X83669100Y-144349464D01*
X83669100Y-144354230D01*
X83672983Y-144377497D01*
X83679847Y-144432563D01*
X83682113Y-144440175D01*
X83684701Y-144447712D01*
X83711097Y-144496487D01*
X83735474Y-144546351D01*
X83740086Y-144552810D01*
X83744979Y-144559096D01*
X83785786Y-144596662D01*
X83850541Y-144661417D01*
X83878767Y-144716815D01*
X83879273Y-144744676D01*
X83871902Y-144805389D01*
X83871902Y-144805391D01*
X83891060Y-144963173D01*
X83947422Y-145111786D01*
X84037711Y-145242592D01*
X84037712Y-145242593D01*
X84037713Y-145242594D01*
X84037714Y-145242595D01*
X84156677Y-145347988D01*
X84156678Y-145347989D01*
X84156680Y-145347990D01*
X84297416Y-145421854D01*
X84451738Y-145459891D01*
X84451742Y-145459891D01*
X84610676Y-145459891D01*
X84610680Y-145459891D01*
X84765002Y-145421854D01*
X84905738Y-145347990D01*
X85024707Y-145242592D01*
X85114996Y-145111786D01*
X85171358Y-144963173D01*
X85190516Y-144805391D01*
X85171358Y-144647609D01*
X85114996Y-144498996D01*
X85028061Y-144373049D01*
X85010283Y-144313473D01*
X85030919Y-144254824D01*
X85082088Y-144219505D01*
X85110854Y-144215304D01*
X85118667Y-144215304D01*
X85118671Y-144215304D01*
X85272993Y-144177267D01*
X85413729Y-144103403D01*
X85532698Y-143998005D01*
X85622987Y-143867199D01*
X85679349Y-143718586D01*
X85698507Y-143560804D01*
X85679349Y-143403022D01*
X85622987Y-143254409D01*
X85532698Y-143123603D01*
X85532695Y-143123600D01*
X85532694Y-143123599D01*
X85413731Y-143018206D01*
X85413730Y-143018205D01*
X85272995Y-142944342D01*
X85272994Y-142944341D01*
X85272993Y-142944341D01*
X85194747Y-142925055D01*
X85118673Y-142906304D01*
X85118671Y-142906304D01*
X84978711Y-142906304D01*
X84919580Y-142887091D01*
X84883035Y-142836791D01*
X84878111Y-142805704D01*
X84878111Y-138450000D01*
X88040693Y-138450000D01*
X88059851Y-138607782D01*
X88094285Y-138698577D01*
X88111625Y-138744299D01*
X88116213Y-138756395D01*
X88206502Y-138887201D01*
X88206503Y-138887202D01*
X88206504Y-138887203D01*
X88206505Y-138887204D01*
X88325468Y-138992597D01*
X88325469Y-138992598D01*
X88325471Y-138992599D01*
X88466207Y-139066463D01*
X88620529Y-139104500D01*
X88620533Y-139104500D01*
X88779467Y-139104500D01*
X88779471Y-139104500D01*
X88933793Y-139066463D01*
X89074529Y-138992599D01*
X89193498Y-138887201D01*
X89283787Y-138756395D01*
X89340149Y-138607782D01*
X89359307Y-138450000D01*
X89340149Y-138292218D01*
X89283787Y-138143605D01*
X89193498Y-138012799D01*
X89193495Y-138012796D01*
X89193493Y-138012794D01*
X89115389Y-137943598D01*
X89083870Y-137890006D01*
X89081500Y-137868299D01*
X89081500Y-135499691D01*
X89100713Y-135440560D01*
X89110959Y-135428562D01*
X98761473Y-125778047D01*
X98816869Y-125749823D01*
X98878277Y-125759549D01*
X98916252Y-125793293D01*
X98920265Y-125799299D01*
X98920266Y-125799301D01*
X98976516Y-125883484D01*
X99060699Y-125939734D01*
X99134933Y-125954500D01*
X99563108Y-125954499D01*
X99622238Y-125973712D01*
X99658783Y-126024012D01*
X99658783Y-126086186D01*
X99634242Y-126126234D01*
X90844441Y-134916035D01*
X90789043Y-134944261D01*
X90773306Y-134945500D01*
X90620526Y-134945500D01*
X90506415Y-134973626D01*
X90466207Y-134983537D01*
X90466206Y-134983537D01*
X90466204Y-134983538D01*
X90325469Y-135057401D01*
X90325468Y-135057402D01*
X90206505Y-135162795D01*
X90206504Y-135162796D01*
X90116212Y-135293606D01*
X90110797Y-135307885D01*
X90059851Y-135442218D01*
X90040693Y-135600000D01*
X90059851Y-135757782D01*
X90116213Y-135906395D01*
X90206502Y-136037201D01*
X90206503Y-136037202D01*
X90206504Y-136037203D01*
X90206505Y-136037204D01*
X90325468Y-136142597D01*
X90325469Y-136142598D01*
X90325471Y-136142599D01*
X90466207Y-136216463D01*
X90620529Y-136254500D01*
X90620533Y-136254500D01*
X90779467Y-136254500D01*
X90779471Y-136254500D01*
X90933793Y-136216463D01*
X91074529Y-136142599D01*
X91193498Y-136037201D01*
X91283787Y-135906395D01*
X91340149Y-135757782D01*
X91359307Y-135600000D01*
X91352241Y-135541808D01*
X91364185Y-135480794D01*
X91380968Y-135458552D01*
X100855557Y-125983964D01*
X100910955Y-125955738D01*
X100926692Y-125954499D01*
X101255056Y-125954499D01*
X101329291Y-125939734D01*
X101400725Y-125892003D01*
X101409104Y-125886404D01*
X101468943Y-125869527D01*
X101520883Y-125886402D01*
X101600699Y-125939734D01*
X101662527Y-125952032D01*
X101716772Y-125982409D01*
X101742802Y-126038872D01*
X101743500Y-126050698D01*
X101743500Y-126475306D01*
X101724287Y-126534437D01*
X101714035Y-126546441D01*
X89665592Y-138594883D01*
X89649484Y-138607964D01*
X89638045Y-138615437D01*
X89615408Y-138644520D01*
X89611288Y-138649187D01*
X89607888Y-138652588D01*
X89594099Y-138671900D01*
X89559840Y-138715917D01*
X89556038Y-138722942D01*
X89552525Y-138730128D01*
X89536610Y-138783586D01*
X89518500Y-138836338D01*
X89517184Y-138844224D01*
X89516194Y-138852161D01*
X89518500Y-138907884D01*
X89518499Y-139143300D01*
X89499286Y-139202432D01*
X89484610Y-139218599D01*
X89406505Y-139287795D01*
X89406497Y-139287804D01*
X89316213Y-139418603D01*
X89316213Y-139418604D01*
X89316061Y-139419005D01*
X89259851Y-139567218D01*
X89240693Y-139725000D01*
X89259851Y-139882782D01*
X89265833Y-139898555D01*
X89300354Y-139989580D01*
X89316213Y-140031395D01*
X89406502Y-140162201D01*
X89406503Y-140162202D01*
X89406504Y-140162203D01*
X89406505Y-140162204D01*
X89525468Y-140267597D01*
X89525469Y-140267598D01*
X89525471Y-140267599D01*
X89666207Y-140341463D01*
X89820529Y-140379500D01*
X89820533Y-140379500D01*
X89979467Y-140379500D01*
X89979471Y-140379500D01*
X90133793Y-140341463D01*
X90274529Y-140267599D01*
X90393498Y-140162201D01*
X90483787Y-140031395D01*
X90540149Y-139882782D01*
X90559307Y-139725000D01*
X90540149Y-139567218D01*
X90483787Y-139418605D01*
X90393498Y-139287799D01*
X90393495Y-139287796D01*
X90393493Y-139287794D01*
X90315389Y-139218598D01*
X90283870Y-139165006D01*
X90281500Y-139143299D01*
X90281500Y-139099691D01*
X90300713Y-139040560D01*
X90310959Y-139028562D01*
X102359410Y-126980111D01*
X102375516Y-126967032D01*
X102386956Y-126959560D01*
X102409601Y-126930463D01*
X102413709Y-126925812D01*
X102417114Y-126922409D01*
X102424000Y-126912762D01*
X102430901Y-126903099D01*
X102465156Y-126859088D01*
X102468960Y-126852057D01*
X102472470Y-126844876D01*
X102472475Y-126844870D01*
X102488389Y-126791413D01*
X102506500Y-126738661D01*
X102506500Y-126738660D01*
X102507816Y-126730775D01*
X102508805Y-126722839D01*
X102506499Y-126667115D01*
X102506499Y-126475306D01*
X102506499Y-126040750D01*
X102525712Y-125981622D01*
X102576012Y-125945077D01*
X102587472Y-125942086D01*
X102599301Y-125939734D01*
X102679110Y-125886406D01*
X102738948Y-125869530D01*
X102790890Y-125886406D01*
X102870699Y-125939734D01*
X102870698Y-125939734D01*
X102882523Y-125942086D01*
X102907525Y-125947059D01*
X102961772Y-125977438D01*
X102987803Y-126033901D01*
X102988500Y-126045726D01*
X102988500Y-127655306D01*
X102969287Y-127714437D01*
X102959035Y-127726441D01*
X90915592Y-139769883D01*
X90899484Y-139782964D01*
X90888045Y-139790437D01*
X90865408Y-139819520D01*
X90861288Y-139824187D01*
X90857888Y-139827588D01*
X90844099Y-139846900D01*
X90809840Y-139890917D01*
X90806038Y-139897942D01*
X90802525Y-139905128D01*
X90786610Y-139958586D01*
X90768500Y-140011338D01*
X90767184Y-140019224D01*
X90766194Y-140027161D01*
X90768500Y-140082884D01*
X90768500Y-145250306D01*
X90749287Y-145309437D01*
X90739035Y-145321441D01*
X89363616Y-146696859D01*
X89308218Y-146725085D01*
X89246810Y-146715359D01*
X89245733Y-146714803D01*
X89233796Y-146708538D01*
X89233793Y-146708537D01*
X89079471Y-146670500D01*
X88920529Y-146670500D01*
X88920526Y-146670500D01*
X88813586Y-146696859D01*
X88766207Y-146708537D01*
X88766206Y-146708537D01*
X88766204Y-146708538D01*
X88625469Y-146782401D01*
X88625468Y-146782402D01*
X88506505Y-146887795D01*
X88506504Y-146887796D01*
X88416212Y-147018606D01*
X88361747Y-147162218D01*
X88359851Y-147167218D01*
X88340693Y-147325000D01*
X88359851Y-147482782D01*
X88416213Y-147631395D01*
X88506502Y-147762201D01*
X88506503Y-147762202D01*
X88506504Y-147762203D01*
X88506505Y-147762204D01*
X88625468Y-147867597D01*
X88625469Y-147867598D01*
X88625471Y-147867599D01*
X88766207Y-147941463D01*
X88920529Y-147979500D01*
X88920533Y-147979500D01*
X89079467Y-147979500D01*
X89079471Y-147979500D01*
X89233793Y-147941463D01*
X89374529Y-147867599D01*
X89493498Y-147762201D01*
X89583787Y-147631395D01*
X89622355Y-147529697D01*
X89645280Y-147494240D01*
X89819520Y-147320000D01*
X105512693Y-147320000D01*
X105531851Y-147477782D01*
X105588213Y-147626395D01*
X105678502Y-147757201D01*
X105678503Y-147757202D01*
X105678504Y-147757203D01*
X105678505Y-147757204D01*
X105797468Y-147862597D01*
X105797469Y-147862598D01*
X105797471Y-147862599D01*
X105938207Y-147936463D01*
X106092529Y-147974500D01*
X106092533Y-147974500D01*
X106251467Y-147974500D01*
X106251471Y-147974500D01*
X106405793Y-147936463D01*
X106546529Y-147862599D01*
X106665498Y-147757201D01*
X106755787Y-147626395D01*
X106812149Y-147477782D01*
X106831307Y-147320000D01*
X106812149Y-147162218D01*
X106755787Y-147013605D01*
X106665498Y-146882799D01*
X106665495Y-146882796D01*
X106665491Y-146882792D01*
X106546531Y-146777402D01*
X106546530Y-146777401D01*
X106405795Y-146703538D01*
X106405794Y-146703537D01*
X106405793Y-146703537D01*
X106327547Y-146684251D01*
X106251473Y-146665500D01*
X106251471Y-146665500D01*
X106092529Y-146665500D01*
X106092526Y-146665500D01*
X105978414Y-146693626D01*
X105938207Y-146703537D01*
X105938206Y-146703537D01*
X105938204Y-146703538D01*
X105797469Y-146777401D01*
X105797468Y-146777402D01*
X105678509Y-146882792D01*
X105678504Y-146882796D01*
X105588212Y-147013606D01*
X105586316Y-147018606D01*
X105531851Y-147162218D01*
X105512693Y-147320000D01*
X89819520Y-147320000D01*
X91384407Y-145755113D01*
X91400513Y-145742034D01*
X91411956Y-145734560D01*
X91434592Y-145705475D01*
X91438727Y-145700794D01*
X91442113Y-145697409D01*
X91442121Y-145697398D01*
X91455892Y-145678110D01*
X91477904Y-145649827D01*
X91490158Y-145634085D01*
X91490159Y-145634083D01*
X91493953Y-145627073D01*
X91497470Y-145619876D01*
X91497475Y-145619870D01*
X91513390Y-145566410D01*
X91531500Y-145513661D01*
X91531500Y-145513660D01*
X91532816Y-145505775D01*
X91533805Y-145497839D01*
X91531500Y-145442116D01*
X91531500Y-140274692D01*
X91550713Y-140215561D01*
X91560965Y-140203557D01*
X97496522Y-134268000D01*
X109872693Y-134268000D01*
X109891851Y-134425782D01*
X109948213Y-134574395D01*
X110038502Y-134705201D01*
X110038503Y-134705202D01*
X110038504Y-134705203D01*
X110038505Y-134705204D01*
X110157468Y-134810597D01*
X110157469Y-134810598D01*
X110157471Y-134810599D01*
X110298207Y-134884463D01*
X110452529Y-134922500D01*
X110452533Y-134922500D01*
X110611467Y-134922500D01*
X110611471Y-134922500D01*
X110765793Y-134884463D01*
X110906529Y-134810599D01*
X111015290Y-134714243D01*
X111072288Y-134689414D01*
X111132998Y-134702829D01*
X111148709Y-134714244D01*
X111257468Y-134810597D01*
X111257469Y-134810598D01*
X111257471Y-134810599D01*
X111398207Y-134884463D01*
X111552529Y-134922500D01*
X111552533Y-134922500D01*
X111711467Y-134922500D01*
X111711471Y-134922500D01*
X111865793Y-134884463D01*
X112006529Y-134810599D01*
X112115292Y-134714242D01*
X112172290Y-134689414D01*
X112232999Y-134702829D01*
X112248701Y-134714237D01*
X112357471Y-134810599D01*
X112498207Y-134884463D01*
X112652529Y-134922500D01*
X112652533Y-134922500D01*
X112811467Y-134922500D01*
X112811471Y-134922500D01*
X112965793Y-134884463D01*
X113106529Y-134810599D01*
X113225498Y-134705201D01*
X113315787Y-134574395D01*
X113372149Y-134425782D01*
X113391307Y-134268000D01*
X113372149Y-134110218D01*
X113315787Y-133961605D01*
X113225498Y-133830799D01*
X113225495Y-133830796D01*
X113225494Y-133830795D01*
X113106531Y-133725402D01*
X113106530Y-133725401D01*
X112965795Y-133651538D01*
X112965794Y-133651537D01*
X112965793Y-133651537D01*
X112885149Y-133631660D01*
X112811473Y-133613500D01*
X112811471Y-133613500D01*
X112652529Y-133613500D01*
X112652526Y-133613500D01*
X112543026Y-133640490D01*
X112498207Y-133651537D01*
X112498206Y-133651537D01*
X112498204Y-133651538D01*
X112357469Y-133725401D01*
X112357468Y-133725402D01*
X112248709Y-133821755D01*
X112191708Y-133846585D01*
X112130999Y-133833169D01*
X112115296Y-133821761D01*
X112006529Y-133725401D01*
X112006528Y-133725400D01*
X111865795Y-133651538D01*
X111865794Y-133651537D01*
X111865793Y-133651537D01*
X111785149Y-133631660D01*
X111711473Y-133613500D01*
X111711471Y-133613500D01*
X111552529Y-133613500D01*
X111552526Y-133613500D01*
X111443026Y-133640490D01*
X111398207Y-133651537D01*
X111398206Y-133651537D01*
X111398204Y-133651538D01*
X111257469Y-133725401D01*
X111257468Y-133725402D01*
X111148710Y-133821755D01*
X111091710Y-133846585D01*
X111031000Y-133833169D01*
X111015290Y-133821755D01*
X110906531Y-133725402D01*
X110906530Y-133725401D01*
X110765795Y-133651538D01*
X110765794Y-133651537D01*
X110765793Y-133651537D01*
X110685149Y-133631660D01*
X110611473Y-133613500D01*
X110611471Y-133613500D01*
X110452529Y-133613500D01*
X110452526Y-133613500D01*
X110343026Y-133640490D01*
X110298207Y-133651537D01*
X110298206Y-133651537D01*
X110298204Y-133651538D01*
X110157469Y-133725401D01*
X110157468Y-133725402D01*
X110038505Y-133830795D01*
X110038504Y-133830796D01*
X109948212Y-133961606D01*
X109891850Y-134110217D01*
X109891851Y-134110218D01*
X109872693Y-134268000D01*
X97496522Y-134268000D01*
X97576412Y-134188110D01*
X102964521Y-128800000D01*
X103540693Y-128800000D01*
X103559851Y-128957782D01*
X103616213Y-129106395D01*
X103706502Y-129237201D01*
X103706503Y-129237202D01*
X103706504Y-129237203D01*
X103706505Y-129237204D01*
X103825468Y-129342597D01*
X103825469Y-129342598D01*
X103825471Y-129342599D01*
X103966207Y-129416463D01*
X104120529Y-129454500D01*
X104120533Y-129454500D01*
X104279467Y-129454500D01*
X104279471Y-129454500D01*
X104433793Y-129416463D01*
X104574529Y-129342599D01*
X104693498Y-129237201D01*
X104783787Y-129106395D01*
X104840149Y-128957782D01*
X104859307Y-128800000D01*
X104840149Y-128642218D01*
X104783787Y-128493605D01*
X104782713Y-128490773D01*
X104779710Y-128428672D01*
X104813782Y-128376665D01*
X104871916Y-128354617D01*
X104876776Y-128354500D01*
X104979467Y-128354500D01*
X104979471Y-128354500D01*
X105133793Y-128316463D01*
X105274529Y-128242599D01*
X105393498Y-128137201D01*
X105393503Y-128137194D01*
X105401954Y-128124952D01*
X105451356Y-128087202D01*
X105484745Y-128081500D01*
X108573590Y-128081500D01*
X108632721Y-128100713D01*
X108640291Y-128106792D01*
X108757471Y-128210605D01*
X108898207Y-128284469D01*
X109052529Y-128322506D01*
X109052533Y-128322506D01*
X109211467Y-128322506D01*
X109211471Y-128322506D01*
X109365793Y-128284469D01*
X109506529Y-128210605D01*
X109625498Y-128105207D01*
X109715787Y-127974401D01*
X109772149Y-127825788D01*
X109791307Y-127668006D01*
X109772149Y-127510224D01*
X109715787Y-127361611D01*
X109625498Y-127230805D01*
X109625495Y-127230802D01*
X109625494Y-127230801D01*
X109506531Y-127125408D01*
X109506530Y-127125407D01*
X109365795Y-127051544D01*
X109365794Y-127051543D01*
X109365793Y-127051543D01*
X109287546Y-127032257D01*
X109211473Y-127013506D01*
X109211471Y-127013506D01*
X109052529Y-127013506D01*
X109052526Y-127013506D01*
X108938415Y-127041632D01*
X108898207Y-127051543D01*
X108898206Y-127051543D01*
X108898204Y-127051544D01*
X108757469Y-127125407D01*
X108757468Y-127125408D01*
X108638505Y-127230801D01*
X108638503Y-127230804D01*
X108607962Y-127275049D01*
X108558559Y-127312798D01*
X108525171Y-127318500D01*
X105484745Y-127318500D01*
X105425614Y-127299287D01*
X105401954Y-127275048D01*
X105393503Y-127262805D01*
X105393494Y-127262795D01*
X105274531Y-127157402D01*
X105274530Y-127157401D01*
X105133795Y-127083538D01*
X105133794Y-127083537D01*
X105133793Y-127083537D01*
X105055546Y-127064251D01*
X104979473Y-127045500D01*
X104979471Y-127045500D01*
X104820529Y-127045500D01*
X104820526Y-127045500D01*
X104706415Y-127073626D01*
X104666207Y-127083537D01*
X104666206Y-127083537D01*
X104666204Y-127083538D01*
X104525469Y-127157401D01*
X104525468Y-127157402D01*
X104406505Y-127262795D01*
X104406504Y-127262796D01*
X104316212Y-127393606D01*
X104271985Y-127510224D01*
X104259851Y-127542218D01*
X104240693Y-127700000D01*
X104259851Y-127857782D01*
X104304078Y-127974399D01*
X104317287Y-128009227D01*
X104320290Y-128071328D01*
X104286218Y-128123335D01*
X104228084Y-128145383D01*
X104223224Y-128145500D01*
X104120526Y-128145500D01*
X104006414Y-128173626D01*
X103966207Y-128183537D01*
X103966206Y-128183537D01*
X103966204Y-128183538D01*
X103825469Y-128257401D01*
X103825468Y-128257402D01*
X103706505Y-128362795D01*
X103706504Y-128362796D01*
X103616212Y-128493606D01*
X103559851Y-128642217D01*
X103559851Y-128642218D01*
X103540693Y-128800000D01*
X102964521Y-128800000D01*
X103604410Y-128160111D01*
X103620516Y-128147032D01*
X103631956Y-128139560D01*
X103654595Y-128110471D01*
X103658716Y-128105805D01*
X103662114Y-128102409D01*
X103675898Y-128083101D01*
X103710158Y-128039085D01*
X103710158Y-128039082D01*
X103713944Y-128032087D01*
X103717470Y-128024875D01*
X103717475Y-128024869D01*
X103733388Y-127971417D01*
X103751500Y-127918661D01*
X103752816Y-127910776D01*
X103753805Y-127902839D01*
X103751499Y-127847115D01*
X103751499Y-126903099D01*
X103751499Y-126045722D01*
X103770712Y-125986594D01*
X103821012Y-125950049D01*
X103832454Y-125947062D01*
X103869301Y-125939734D01*
X103949110Y-125886406D01*
X104008948Y-125869530D01*
X104060890Y-125886406D01*
X104140699Y-125939734D01*
X104214933Y-125954500D01*
X105065066Y-125954499D01*
X105139301Y-125939734D01*
X105223484Y-125883484D01*
X105279734Y-125799301D01*
X105294500Y-125725067D01*
X105294499Y-124174934D01*
X105279734Y-124100699D01*
X105279732Y-124100697D01*
X105279732Y-124100695D01*
X105223485Y-124016517D01*
X105223483Y-124016515D01*
X105180755Y-123987965D01*
X105139301Y-123960266D01*
X105139300Y-123960265D01*
X105139299Y-123960265D01*
X105083498Y-123949166D01*
X105065067Y-123945500D01*
X105065066Y-123945500D01*
X104214934Y-123945500D01*
X104140699Y-123960266D01*
X104060890Y-124013593D01*
X104001050Y-124030469D01*
X103949110Y-124013593D01*
X103869301Y-123960266D01*
X103869298Y-123960265D01*
X103819586Y-123950377D01*
X103795067Y-123945500D01*
X103795066Y-123945500D01*
X102944934Y-123945500D01*
X102870699Y-123960266D01*
X102790890Y-124013593D01*
X102731050Y-124030469D01*
X102679110Y-124013593D01*
X102599301Y-123960266D01*
X102599298Y-123960265D01*
X102549586Y-123950377D01*
X102525067Y-123945500D01*
X102525066Y-123945500D01*
X101674934Y-123945500D01*
X101600698Y-123960266D01*
X101600696Y-123960267D01*
X101520884Y-124013596D01*
X101461044Y-124030472D01*
X101409104Y-124013596D01*
X101370745Y-123987965D01*
X101329291Y-123960266D01*
X101329290Y-123960265D01*
X101329289Y-123960265D01*
X101273488Y-123949166D01*
X101255057Y-123945500D01*
X101255056Y-123945500D01*
X100404924Y-123945500D01*
X100330688Y-123960266D01*
X100330686Y-123960267D01*
X100250884Y-124013589D01*
X100191044Y-124030465D01*
X100139104Y-124013589D01*
X100059300Y-123960265D01*
X99999832Y-123948436D01*
X99985067Y-123945500D01*
X99985066Y-123945500D01*
X99134934Y-123945500D01*
X99060698Y-123960266D01*
X99060695Y-123960267D01*
X98976517Y-124016514D01*
X98976515Y-124016516D01*
X98920265Y-124100700D01*
X98905500Y-124174933D01*
X98905500Y-124533196D01*
X98886287Y-124592327D01*
X98849083Y-124623574D01*
X98825255Y-124635222D01*
X98818738Y-124639875D01*
X98812440Y-124644777D01*
X98774658Y-124685819D01*
X88465592Y-134994883D01*
X88449484Y-135007964D01*
X88438045Y-135015437D01*
X88415408Y-135044520D01*
X88411288Y-135049187D01*
X88407888Y-135052588D01*
X88394099Y-135071900D01*
X88359840Y-135115917D01*
X88356038Y-135122942D01*
X88352525Y-135130128D01*
X88336610Y-135183586D01*
X88318500Y-135236338D01*
X88317184Y-135244221D01*
X88316195Y-135252156D01*
X88316195Y-135252158D01*
X88316195Y-135252159D01*
X88316313Y-135255000D01*
X88318500Y-135307885D01*
X88318500Y-137868299D01*
X88299287Y-137927430D01*
X88284611Y-137943598D01*
X88206506Y-138012794D01*
X88206504Y-138012796D01*
X88116212Y-138143606D01*
X88096454Y-138195704D01*
X88059851Y-138292218D01*
X88040693Y-138450000D01*
X84878111Y-138450000D01*
X84878111Y-133409977D01*
X84878111Y-133300000D01*
X88040693Y-133300000D01*
X88054046Y-133409977D01*
X88059851Y-133457781D01*
X88098661Y-133560116D01*
X88116213Y-133606395D01*
X88206502Y-133737201D01*
X88206503Y-133737202D01*
X88206504Y-133737203D01*
X88206505Y-133737204D01*
X88325468Y-133842597D01*
X88325469Y-133842598D01*
X88325471Y-133842599D01*
X88466207Y-133916463D01*
X88620529Y-133954500D01*
X88620533Y-133954500D01*
X88779467Y-133954500D01*
X88779471Y-133954500D01*
X88933793Y-133916463D01*
X89074529Y-133842599D01*
X89193498Y-133737201D01*
X89283787Y-133606395D01*
X89340149Y-133457782D01*
X89359307Y-133300000D01*
X89357655Y-133286396D01*
X89369598Y-133225381D01*
X89386382Y-133203138D01*
X92934410Y-129655111D01*
X92950516Y-129642032D01*
X92961956Y-129634560D01*
X92984595Y-129605471D01*
X92988716Y-129600805D01*
X92992114Y-129597409D01*
X93005898Y-129578101D01*
X93040158Y-129534085D01*
X93040158Y-129534082D01*
X93043944Y-129527087D01*
X93047470Y-129519875D01*
X93047475Y-129519869D01*
X93063388Y-129466417D01*
X93076675Y-129427715D01*
X93081500Y-129413662D01*
X93082816Y-129405776D01*
X93083805Y-129397838D01*
X93081500Y-129342106D01*
X93081500Y-124100000D01*
X96840693Y-124100000D01*
X96859851Y-124257782D01*
X96916213Y-124406395D01*
X97006502Y-124537201D01*
X97006503Y-124537202D01*
X97006504Y-124537203D01*
X97006505Y-124537204D01*
X97125468Y-124642597D01*
X97125469Y-124642598D01*
X97140183Y-124650320D01*
X97266207Y-124716463D01*
X97420529Y-124754500D01*
X97420533Y-124754500D01*
X97579467Y-124754500D01*
X97579471Y-124754500D01*
X97733793Y-124716463D01*
X97874529Y-124642599D01*
X97993498Y-124537201D01*
X98083787Y-124406395D01*
X98140149Y-124257782D01*
X98159307Y-124100000D01*
X98140149Y-123942218D01*
X98083787Y-123793605D01*
X97993498Y-123662799D01*
X97993495Y-123662796D01*
X97993494Y-123662795D01*
X97874531Y-123557402D01*
X97874530Y-123557401D01*
X97733795Y-123483538D01*
X97733794Y-123483537D01*
X97733793Y-123483537D01*
X97655547Y-123464251D01*
X97579473Y-123445500D01*
X97579471Y-123445500D01*
X97420529Y-123445500D01*
X97420526Y-123445500D01*
X97306414Y-123473626D01*
X97266207Y-123483537D01*
X97266206Y-123483537D01*
X97266204Y-123483538D01*
X97125469Y-123557401D01*
X97125468Y-123557402D01*
X97006505Y-123662795D01*
X97006504Y-123662796D01*
X96916212Y-123793606D01*
X96878787Y-123892289D01*
X96859851Y-123942218D01*
X96840693Y-124100000D01*
X93081500Y-124100000D01*
X93081500Y-123317000D01*
X93340693Y-123317000D01*
X93359851Y-123474782D01*
X93363172Y-123483538D01*
X93415507Y-123621535D01*
X93416213Y-123623395D01*
X93506502Y-123754201D01*
X93506503Y-123754202D01*
X93506504Y-123754203D01*
X93506505Y-123754204D01*
X93625468Y-123859597D01*
X93625469Y-123859598D01*
X93625471Y-123859599D01*
X93766207Y-123933463D01*
X93920529Y-123971500D01*
X93920533Y-123971500D01*
X94079467Y-123971500D01*
X94079471Y-123971500D01*
X94233793Y-123933463D01*
X94374529Y-123859599D01*
X94493498Y-123754201D01*
X94583787Y-123623395D01*
X94640149Y-123474782D01*
X94659307Y-123317000D01*
X94640149Y-123159218D01*
X94583787Y-123010605D01*
X94493498Y-122879799D01*
X94493495Y-122879796D01*
X94493494Y-122879795D01*
X94374531Y-122774402D01*
X94374530Y-122774401D01*
X94233795Y-122700538D01*
X94233794Y-122700537D01*
X94233793Y-122700537D01*
X94155546Y-122681251D01*
X94079473Y-122662500D01*
X94079471Y-122662500D01*
X93920529Y-122662500D01*
X93920526Y-122662500D01*
X93806415Y-122690626D01*
X93766207Y-122700537D01*
X93766206Y-122700537D01*
X93766204Y-122700538D01*
X93625469Y-122774401D01*
X93625468Y-122774402D01*
X93506505Y-122879795D01*
X93506504Y-122879796D01*
X93416212Y-123010606D01*
X93371034Y-123129732D01*
X93359851Y-123159218D01*
X93340693Y-123317000D01*
X93081500Y-123317000D01*
X93081500Y-118699692D01*
X93100713Y-118640561D01*
X93110965Y-118628557D01*
X93918558Y-117820965D01*
X93973956Y-117792739D01*
X93989693Y-117791500D01*
X96004275Y-117791500D01*
X96063406Y-117810713D01*
X96099951Y-117861013D01*
X96102942Y-117872476D01*
X96110265Y-117909300D01*
X96163589Y-117989104D01*
X96180465Y-118048944D01*
X96163589Y-118100885D01*
X96110265Y-118180689D01*
X96095500Y-118254923D01*
X96095500Y-119105055D01*
X96103354Y-119144538D01*
X96110266Y-119179291D01*
X96161003Y-119255223D01*
X96163596Y-119259104D01*
X96180472Y-119318944D01*
X96163596Y-119370885D01*
X96110265Y-119450699D01*
X96095500Y-119524933D01*
X96095500Y-120375065D01*
X96110266Y-120449301D01*
X96110267Y-120449304D01*
X96163592Y-120529109D01*
X96180469Y-120588949D01*
X96163593Y-120640890D01*
X96110265Y-120720699D01*
X96095500Y-120794933D01*
X96095500Y-121645065D01*
X96110266Y-121719301D01*
X96110267Y-121719304D01*
X96163892Y-121799558D01*
X96180769Y-121859398D01*
X96163893Y-121911339D01*
X96110737Y-121990892D01*
X96096000Y-122064983D01*
X96096000Y-122915016D01*
X96110736Y-122989105D01*
X96166876Y-123073123D01*
X96250894Y-123129263D01*
X96324983Y-123143999D01*
X97875016Y-123143999D01*
X97949105Y-123129263D01*
X98033123Y-123073123D01*
X98089263Y-122989105D01*
X98103999Y-122915016D01*
X98103999Y-122064983D01*
X98089263Y-121990894D01*
X98036106Y-121911340D01*
X98019230Y-121851500D01*
X98036107Y-121799558D01*
X98036408Y-121799108D01*
X98089734Y-121719301D01*
X98104500Y-121645067D01*
X98104499Y-120794934D01*
X98089734Y-120720699D01*
X98089732Y-120720697D01*
X98089732Y-120720695D01*
X98036407Y-120640890D01*
X98019530Y-120581050D01*
X98036407Y-120529109D01*
X98089734Y-120449301D01*
X98104500Y-120375067D01*
X98104499Y-119524934D01*
X98089734Y-119450699D01*
X98089732Y-119450697D01*
X98089732Y-119450695D01*
X98036404Y-119370885D01*
X98019527Y-119311045D01*
X98036403Y-119259104D01*
X98089734Y-119179291D01*
X98104500Y-119105057D01*
X98104499Y-118254924D01*
X98089734Y-118180689D01*
X98036410Y-118100885D01*
X98019534Y-118041045D01*
X98036411Y-117989103D01*
X98057461Y-117957600D01*
X98089734Y-117909301D01*
X98104500Y-117835067D01*
X98104499Y-117200000D01*
X98440693Y-117200000D01*
X98459851Y-117357782D01*
X98516213Y-117506395D01*
X98606502Y-117637201D01*
X98606503Y-117637202D01*
X98606504Y-117637203D01*
X98606505Y-117637204D01*
X98725468Y-117742597D01*
X98725469Y-117742598D01*
X98725471Y-117742599D01*
X98866207Y-117816463D01*
X99020529Y-117854500D01*
X99020533Y-117854500D01*
X99179467Y-117854500D01*
X99179471Y-117854500D01*
X99333793Y-117816463D01*
X99474529Y-117742599D01*
X99593498Y-117637201D01*
X99683787Y-117506395D01*
X99740149Y-117357782D01*
X99759307Y-117200000D01*
X99754522Y-117160593D01*
X99766468Y-117099579D01*
X99792605Y-117069077D01*
X99797557Y-117065222D01*
X99797562Y-117065220D01*
X99799975Y-117062597D01*
X99818972Y-117046509D01*
X99821956Y-117044560D01*
X99850096Y-117008403D01*
X99852769Y-117005247D01*
X99883795Y-116971546D01*
X99885228Y-116968277D01*
X99897967Y-116946899D01*
X99900158Y-116944085D01*
X99915039Y-116900736D01*
X99916521Y-116896936D01*
X99934940Y-116854948D01*
X99935235Y-116851385D01*
X99940342Y-116827031D01*
X99941500Y-116823661D01*
X99941500Y-116777854D01*
X99941672Y-116773698D01*
X99941957Y-116770267D01*
X99945454Y-116728060D01*
X99945454Y-116728059D01*
X99945454Y-116728058D01*
X99944578Y-116724598D01*
X99941500Y-116699905D01*
X99941500Y-116045725D01*
X99960713Y-115986594D01*
X100011013Y-115950049D01*
X100022470Y-115947059D01*
X100059301Y-115939734D01*
X100098180Y-115913755D01*
X100158017Y-115896878D01*
X100216349Y-115918397D01*
X100225205Y-115926266D01*
X100254755Y-115955816D01*
X100358995Y-116001843D01*
X100384475Y-116004799D01*
X101275495Y-116004799D01*
X101275510Y-116004798D01*
X101300982Y-116001843D01*
X101300986Y-116001842D01*
X101405224Y-115955816D01*
X101434783Y-115926258D01*
X101490181Y-115898032D01*
X101551589Y-115907758D01*
X101561794Y-115913738D01*
X101600699Y-115939734D01*
X101674933Y-115954500D01*
X102525066Y-115954499D01*
X102599301Y-115939734D01*
X102679110Y-115886406D01*
X102738948Y-115869530D01*
X102790890Y-115886406D01*
X102870699Y-115939734D01*
X102944933Y-115954500D01*
X103795066Y-115954499D01*
X103869301Y-115939734D01*
X103949110Y-115886406D01*
X104008948Y-115869530D01*
X104060890Y-115886406D01*
X104140699Y-115939734D01*
X104214933Y-115954500D01*
X105065066Y-115954499D01*
X105139301Y-115939734D01*
X105223484Y-115883484D01*
X105279734Y-115799301D01*
X105294500Y-115725067D01*
X105294499Y-114174934D01*
X105279734Y-114100699D01*
X105279732Y-114100697D01*
X105279732Y-114100695D01*
X105223485Y-114016517D01*
X105223483Y-114016515D01*
X105171243Y-113981609D01*
X105139301Y-113960266D01*
X105139300Y-113960265D01*
X105139299Y-113960265D01*
X105083498Y-113949166D01*
X105065067Y-113945500D01*
X105065066Y-113945500D01*
X104214934Y-113945500D01*
X104140699Y-113960266D01*
X104060890Y-114013593D01*
X104001050Y-114030469D01*
X103949110Y-114013593D01*
X103869301Y-113960266D01*
X103869298Y-113960265D01*
X103819586Y-113950377D01*
X103795067Y-113945500D01*
X103795066Y-113945500D01*
X102944934Y-113945500D01*
X102870699Y-113960266D01*
X102790890Y-114013593D01*
X102731050Y-114030469D01*
X102679110Y-114013593D01*
X102599301Y-113960266D01*
X102599298Y-113960265D01*
X102549586Y-113950377D01*
X102525067Y-113945500D01*
X102525066Y-113945500D01*
X101674934Y-113945500D01*
X101600698Y-113960266D01*
X101600696Y-113960267D01*
X101561807Y-113986252D01*
X101501967Y-114003128D01*
X101443636Y-113981609D01*
X101434782Y-113973741D01*
X101405224Y-113944183D01*
X101300984Y-113898156D01*
X101275504Y-113895200D01*
X100384484Y-113895200D01*
X100384469Y-113895201D01*
X100358997Y-113898156D01*
X100358993Y-113898157D01*
X100254755Y-113944183D01*
X100225202Y-113973735D01*
X100169804Y-114001960D01*
X100108395Y-113992232D01*
X100098179Y-113986244D01*
X100091977Y-113982100D01*
X100059301Y-113960266D01*
X100059300Y-113960265D01*
X100059299Y-113960265D01*
X100003498Y-113949166D01*
X99985067Y-113945500D01*
X99985066Y-113945500D01*
X99134934Y-113945500D01*
X99060698Y-113960266D01*
X99060695Y-113960267D01*
X98976517Y-114016514D01*
X98976515Y-114016516D01*
X98920265Y-114100700D01*
X98905500Y-114174933D01*
X98905500Y-115725065D01*
X98920266Y-115799301D01*
X98920267Y-115799304D01*
X98976514Y-115883482D01*
X98976515Y-115883483D01*
X98976516Y-115883484D01*
X99060699Y-115939734D01*
X99097524Y-115947059D01*
X99151770Y-115977436D01*
X99177801Y-116033898D01*
X99178499Y-116045725D01*
X99178499Y-116249699D01*
X99178500Y-116444900D01*
X99159287Y-116504031D01*
X99108987Y-116540576D01*
X99077900Y-116545500D01*
X99020526Y-116545500D01*
X98906414Y-116573626D01*
X98866207Y-116583537D01*
X98866206Y-116583537D01*
X98866204Y-116583538D01*
X98725469Y-116657401D01*
X98725468Y-116657402D01*
X98606505Y-116762795D01*
X98606504Y-116762796D01*
X98516212Y-116893606D01*
X98481576Y-116984934D01*
X98459851Y-117042218D01*
X98440693Y-117200000D01*
X98104499Y-117200000D01*
X98104499Y-116984934D01*
X98089734Y-116910699D01*
X98089732Y-116910697D01*
X98089732Y-116910695D01*
X98033485Y-116826517D01*
X98033483Y-116826515D01*
X97991678Y-116798582D01*
X97949301Y-116770266D01*
X97949300Y-116770265D01*
X97949299Y-116770265D01*
X97893498Y-116759166D01*
X97875067Y-116755500D01*
X97875066Y-116755500D01*
X96324934Y-116755500D01*
X96250698Y-116770266D01*
X96250695Y-116770267D01*
X96166517Y-116826514D01*
X96166515Y-116826516D01*
X96110265Y-116910700D01*
X96102941Y-116947525D01*
X96072562Y-117001772D01*
X96016099Y-117027803D01*
X96004274Y-117028500D01*
X93840002Y-117028500D01*
X93819357Y-117026359D01*
X93810629Y-117024529D01*
X93805980Y-117023554D01*
X93773018Y-117027664D01*
X93769416Y-117028113D01*
X93763190Y-117028500D01*
X93758385Y-117028500D01*
X93734993Y-117032404D01*
X93679640Y-117039303D01*
X93671965Y-117041588D01*
X93664414Y-117044181D01*
X93615368Y-117070723D01*
X93565254Y-117095223D01*
X93558763Y-117099856D01*
X93552439Y-117104779D01*
X93552438Y-117104779D01*
X93552438Y-117104780D01*
X93534649Y-117124104D01*
X93514669Y-117145807D01*
X92465592Y-118194883D01*
X92449484Y-118207964D01*
X92438045Y-118215437D01*
X92415408Y-118244520D01*
X92411288Y-118249187D01*
X92407888Y-118252588D01*
X92394099Y-118271900D01*
X92359840Y-118315917D01*
X92356038Y-118322942D01*
X92352525Y-118330128D01*
X92336610Y-118383586D01*
X92318500Y-118436338D01*
X92317184Y-118444224D01*
X92316194Y-118452161D01*
X92318500Y-118507884D01*
X92318500Y-129150306D01*
X92299287Y-129209437D01*
X92289035Y-129221441D01*
X88888188Y-132622287D01*
X88832790Y-132650513D01*
X88792981Y-132648829D01*
X88779473Y-132645500D01*
X88779471Y-132645500D01*
X88620529Y-132645500D01*
X88620526Y-132645500D01*
X88506414Y-132673626D01*
X88466207Y-132683537D01*
X88466206Y-132683537D01*
X88466204Y-132683538D01*
X88325469Y-132757401D01*
X88325468Y-132757402D01*
X88206505Y-132862795D01*
X88206504Y-132862796D01*
X88116212Y-132993606D01*
X88060710Y-133139952D01*
X88059851Y-133142218D01*
X88040693Y-133300000D01*
X84878111Y-133300000D01*
X84878110Y-123987964D01*
X84897323Y-123928834D01*
X84947623Y-123892289D01*
X85009797Y-123892289D01*
X85046485Y-123913622D01*
X85056528Y-123922778D01*
X85056532Y-123922781D01*
X85056538Y-123922786D01*
X85230573Y-124030544D01*
X85230577Y-124030545D01*
X85230582Y-124030548D01*
X85281239Y-124050172D01*
X85329438Y-124089447D01*
X85345500Y-124143979D01*
X85345500Y-125725206D01*
X85343359Y-125745852D01*
X85340580Y-125759101D01*
X85342943Y-125778049D01*
X85344843Y-125793293D01*
X85345113Y-125795453D01*
X85345500Y-125801682D01*
X85345500Y-125806448D01*
X85349383Y-125829715D01*
X85356247Y-125884781D01*
X85358513Y-125892393D01*
X85361101Y-125899930D01*
X85387497Y-125948705D01*
X85411874Y-125998569D01*
X85416486Y-126005028D01*
X85421379Y-126011314D01*
X85421380Y-126011315D01*
X85421381Y-126011316D01*
X85445915Y-126033901D01*
X85462186Y-126048880D01*
X88746445Y-129333140D01*
X88759527Y-129349248D01*
X88766932Y-129360582D01*
X88783555Y-129373520D01*
X88795842Y-129383084D01*
X88800519Y-129387214D01*
X88803886Y-129390581D01*
X88823102Y-129404300D01*
X88866881Y-129438375D01*
X88866883Y-129438375D01*
X88873858Y-129442150D01*
X88881018Y-129445651D01*
X88881021Y-129445653D01*
X88934182Y-129461479D01*
X88948565Y-129466417D01*
X88986671Y-129479500D01*
X88994495Y-129480805D01*
X89002409Y-129481791D01*
X89002410Y-129481792D01*
X89002410Y-129481791D01*
X89002411Y-129481792D01*
X89057825Y-129479500D01*
X89119850Y-129479500D01*
X89178981Y-129498713D01*
X89202640Y-129522950D01*
X89281502Y-129637201D01*
X89281503Y-129637202D01*
X89281504Y-129637203D01*
X89281505Y-129637204D01*
X89400468Y-129742597D01*
X89400469Y-129742598D01*
X89400471Y-129742599D01*
X89541207Y-129816463D01*
X89695529Y-129854500D01*
X89695533Y-129854500D01*
X89854467Y-129854500D01*
X89854471Y-129854500D01*
X90008793Y-129816463D01*
X90149529Y-129742599D01*
X90268498Y-129637201D01*
X90358787Y-129506395D01*
X90415149Y-129357782D01*
X90434307Y-129200000D01*
X90415149Y-129042218D01*
X90358787Y-128893605D01*
X90268498Y-128762799D01*
X90268495Y-128762796D01*
X90268494Y-128762795D01*
X90149531Y-128657402D01*
X90149530Y-128657401D01*
X90008795Y-128583538D01*
X90008794Y-128583537D01*
X90008793Y-128583537D01*
X89930546Y-128564251D01*
X89854473Y-128545500D01*
X89854471Y-128545500D01*
X89695529Y-128545500D01*
X89695526Y-128545500D01*
X89581414Y-128573626D01*
X89541207Y-128583537D01*
X89541206Y-128583537D01*
X89541204Y-128583538D01*
X89400471Y-128657400D01*
X89357805Y-128695200D01*
X89300804Y-128720030D01*
X89291095Y-128720500D01*
X89248864Y-128720500D01*
X89189733Y-128701287D01*
X89177729Y-128691035D01*
X86133965Y-125647271D01*
X86105739Y-125591873D01*
X86104500Y-125576136D01*
X86104500Y-124143979D01*
X86123713Y-124084848D01*
X86168761Y-124050172D01*
X86219417Y-124030548D01*
X86219418Y-124030547D01*
X86219427Y-124030544D01*
X86393462Y-123922786D01*
X86403515Y-123913622D01*
X86426916Y-123892289D01*
X86544732Y-123784885D01*
X86668088Y-123621535D01*
X86759328Y-123438301D01*
X86815345Y-123241421D01*
X86834232Y-123037600D01*
X86815345Y-122833779D01*
X86759328Y-122636899D01*
X86668088Y-122453665D01*
X86544732Y-122290315D01*
X86544731Y-122290314D01*
X86393471Y-122152421D01*
X86393466Y-122152417D01*
X86393462Y-122152414D01*
X86219427Y-122044656D01*
X86219423Y-122044654D01*
X86028554Y-121970711D01*
X86028549Y-121970710D01*
X85827349Y-121933100D01*
X85827347Y-121933100D01*
X85622653Y-121933100D01*
X85622651Y-121933100D01*
X85421450Y-121970710D01*
X85421445Y-121970711D01*
X85230576Y-122044654D01*
X85230572Y-122044656D01*
X85161807Y-122087234D01*
X85056538Y-122152414D01*
X85056536Y-122152415D01*
X85056537Y-122152415D01*
X85056528Y-122152421D01*
X85046482Y-122161580D01*
X84989839Y-122187217D01*
X84928945Y-122174663D01*
X84887060Y-122128715D01*
X84878110Y-122087234D01*
X84878110Y-121512080D01*
X84897323Y-121452949D01*
X84947623Y-121416404D01*
X85009797Y-121416404D01*
X85031669Y-121426548D01*
X85208055Y-121535762D01*
X85208059Y-121535764D01*
X85407618Y-121613073D01*
X85617990Y-121652400D01*
X85623400Y-121652400D01*
X85623400Y-121098200D01*
X85642613Y-121039069D01*
X85692913Y-121002524D01*
X85724000Y-120997600D01*
X85726000Y-120997600D01*
X85785131Y-121016813D01*
X85821676Y-121067113D01*
X85826600Y-121098200D01*
X85826600Y-121652400D01*
X85832010Y-121652400D01*
X86042381Y-121613073D01*
X86241940Y-121535764D01*
X86241944Y-121535762D01*
X86423904Y-121423096D01*
X86423913Y-121423090D01*
X86582062Y-121278917D01*
X86711038Y-121108123D01*
X86711039Y-121108123D01*
X86806430Y-120916553D01*
X86865000Y-120710702D01*
X86875332Y-120599200D01*
X86325600Y-120599200D01*
X86266469Y-120579987D01*
X86229924Y-120529687D01*
X86225000Y-120498600D01*
X86225000Y-120496600D01*
X86244213Y-120437469D01*
X86294513Y-120400924D01*
X86325600Y-120396000D01*
X86875331Y-120396000D01*
X86865000Y-120284497D01*
X86806430Y-120078646D01*
X86711039Y-119887076D01*
X86582062Y-119716282D01*
X86423913Y-119572109D01*
X86423904Y-119572103D01*
X86241944Y-119459437D01*
X86241940Y-119459435D01*
X86042381Y-119382126D01*
X85832010Y-119342800D01*
X85826600Y-119342800D01*
X85826600Y-119897000D01*
X85807387Y-119956131D01*
X85757087Y-119992676D01*
X85726000Y-119997600D01*
X85724000Y-119997600D01*
X85664869Y-119978387D01*
X85628324Y-119928087D01*
X85623400Y-119897000D01*
X85623400Y-119342800D01*
X85617990Y-119342800D01*
X85407618Y-119382126D01*
X85208059Y-119459435D01*
X85208055Y-119459437D01*
X85031669Y-119568652D01*
X84971281Y-119583445D01*
X84913730Y-119559918D01*
X84880999Y-119507057D01*
X84878110Y-119483120D01*
X84878110Y-118907965D01*
X84897323Y-118848834D01*
X84947623Y-118812289D01*
X85009797Y-118812289D01*
X85046485Y-118833622D01*
X85056528Y-118842778D01*
X85056532Y-118842781D01*
X85056538Y-118842786D01*
X85230573Y-118950544D01*
X85421444Y-119024488D01*
X85470824Y-119033718D01*
X85622651Y-119062100D01*
X85622653Y-119062100D01*
X85827348Y-119062100D01*
X85903261Y-119047909D01*
X86028556Y-119024488D01*
X86219427Y-118950544D01*
X86393462Y-118842786D01*
X86403515Y-118833622D01*
X86447411Y-118793605D01*
X86544732Y-118704885D01*
X86668088Y-118541535D01*
X86759328Y-118358301D01*
X86815345Y-118161421D01*
X86834232Y-117957600D01*
X86815345Y-117753779D01*
X86759328Y-117556899D01*
X86681201Y-117400000D01*
X87540693Y-117400000D01*
X87559851Y-117557782D01*
X87616213Y-117706395D01*
X87706502Y-117837201D01*
X87706503Y-117837202D01*
X87706504Y-117837203D01*
X87706505Y-117837204D01*
X87825468Y-117942597D01*
X87825469Y-117942598D01*
X87825471Y-117942599D01*
X87966207Y-118016463D01*
X88120529Y-118054500D01*
X88120533Y-118054500D01*
X88279467Y-118054500D01*
X88279471Y-118054500D01*
X88433793Y-118016463D01*
X88574529Y-117942599D01*
X88693498Y-117837201D01*
X88783787Y-117706395D01*
X88840149Y-117557782D01*
X88859307Y-117400000D01*
X88840149Y-117242218D01*
X88783787Y-117093605D01*
X88693498Y-116962799D01*
X88693495Y-116962796D01*
X88693494Y-116962795D01*
X88574531Y-116857402D01*
X88574530Y-116857401D01*
X88433795Y-116783538D01*
X88433794Y-116783537D01*
X88433793Y-116783537D01*
X88349644Y-116762796D01*
X88279473Y-116745500D01*
X88279471Y-116745500D01*
X88120529Y-116745500D01*
X88120526Y-116745500D01*
X88020045Y-116770267D01*
X87966207Y-116783537D01*
X87966206Y-116783537D01*
X87966204Y-116783538D01*
X87825469Y-116857401D01*
X87825468Y-116857402D01*
X87706505Y-116962795D01*
X87706504Y-116962796D01*
X87616212Y-117093606D01*
X87575863Y-117199999D01*
X87559851Y-117242218D01*
X87540693Y-117400000D01*
X86681201Y-117400000D01*
X86668088Y-117373665D01*
X86544732Y-117210315D01*
X86490192Y-117160595D01*
X86393471Y-117072421D01*
X86393466Y-117072417D01*
X86393462Y-117072414D01*
X86219427Y-116964656D01*
X86219423Y-116964654D01*
X86028554Y-116890711D01*
X86028549Y-116890710D01*
X85827349Y-116853100D01*
X85827347Y-116853100D01*
X85622653Y-116853100D01*
X85622651Y-116853100D01*
X85421450Y-116890710D01*
X85421445Y-116890711D01*
X85230576Y-116964654D01*
X85230572Y-116964656D01*
X85127461Y-117028500D01*
X85056538Y-117072414D01*
X85056536Y-117072415D01*
X85056537Y-117072415D01*
X85056528Y-117072421D01*
X85046482Y-117081580D01*
X84989839Y-117107217D01*
X84928945Y-117094663D01*
X84887060Y-117048715D01*
X84878110Y-117007234D01*
X84878110Y-116367965D01*
X84897323Y-116308834D01*
X84947623Y-116272289D01*
X85009797Y-116272289D01*
X85046485Y-116293622D01*
X85056528Y-116302778D01*
X85056532Y-116302781D01*
X85056538Y-116302786D01*
X85230573Y-116410544D01*
X85421444Y-116484488D01*
X85470824Y-116493718D01*
X85622651Y-116522100D01*
X85622653Y-116522100D01*
X85827348Y-116522100D01*
X85924009Y-116504031D01*
X86028556Y-116484488D01*
X86219427Y-116410544D01*
X86393462Y-116302786D01*
X86403515Y-116293622D01*
X86426916Y-116272289D01*
X86544732Y-116164885D01*
X86668088Y-116001535D01*
X86759328Y-115818301D01*
X86815345Y-115621421D01*
X86834232Y-115417600D01*
X86815345Y-115213779D01*
X86759328Y-115016899D01*
X86668088Y-114833665D01*
X86544732Y-114670315D01*
X86544731Y-114670314D01*
X86393471Y-114532421D01*
X86393466Y-114532417D01*
X86393462Y-114532414D01*
X86219427Y-114424656D01*
X86219423Y-114424654D01*
X86028554Y-114350711D01*
X86028549Y-114350710D01*
X85827349Y-114313100D01*
X85827347Y-114313100D01*
X85622653Y-114313100D01*
X85622651Y-114313100D01*
X85421450Y-114350710D01*
X85421445Y-114350711D01*
X85230576Y-114424654D01*
X85230572Y-114424656D01*
X85161807Y-114467234D01*
X85056538Y-114532414D01*
X85056536Y-114532415D01*
X85056537Y-114532415D01*
X85056528Y-114532421D01*
X85046482Y-114541580D01*
X84989839Y-114567217D01*
X84928945Y-114554663D01*
X84887060Y-114508715D01*
X84878110Y-114467236D01*
X84878110Y-114302850D01*
X84897323Y-114243722D01*
X84907569Y-114231724D01*
X85211739Y-113927553D01*
X85267135Y-113899329D01*
X85319211Y-113904882D01*
X85421444Y-113944488D01*
X85470824Y-113953718D01*
X85622651Y-113982100D01*
X85622653Y-113982100D01*
X85827348Y-113982100D01*
X85903261Y-113967909D01*
X86028556Y-113944488D01*
X86219427Y-113870544D01*
X86393462Y-113762786D01*
X86544732Y-113624885D01*
X86668088Y-113461535D01*
X86759328Y-113278301D01*
X86815345Y-113081421D01*
X86834232Y-112877600D01*
X86815345Y-112673779D01*
X86759328Y-112476899D01*
X86668088Y-112293665D01*
X86544732Y-112130315D01*
X86477936Y-112069422D01*
X86393471Y-111992421D01*
X86393466Y-111992417D01*
X86393462Y-111992414D01*
X86219427Y-111884656D01*
X86219423Y-111884654D01*
X86028554Y-111810711D01*
X86028549Y-111810710D01*
X85827349Y-111773100D01*
X85827347Y-111773100D01*
X85622653Y-111773100D01*
X85622651Y-111773100D01*
X85421450Y-111810710D01*
X85421445Y-111810711D01*
X85230576Y-111884654D01*
X85230572Y-111884656D01*
X85123952Y-111950673D01*
X85056538Y-111992414D01*
X85056536Y-111992415D01*
X85056537Y-111992415D01*
X85056528Y-111992421D01*
X84905268Y-112130314D01*
X84781910Y-112293668D01*
X84781909Y-112293669D01*
X84690673Y-112476895D01*
X84690672Y-112476896D01*
X84634654Y-112673782D01*
X84628870Y-112736199D01*
X84604282Y-112793305D01*
X84550824Y-112825052D01*
X84488915Y-112819314D01*
X84442202Y-112778283D01*
X84428100Y-112726918D01*
X84428100Y-112212862D01*
X84447313Y-112153731D01*
X84457559Y-112141733D01*
X85211739Y-111387553D01*
X85267135Y-111359329D01*
X85319211Y-111364882D01*
X85421444Y-111404488D01*
X85470824Y-111413718D01*
X85622651Y-111442100D01*
X85622653Y-111442100D01*
X85827348Y-111442100D01*
X85903261Y-111427909D01*
X86028556Y-111404488D01*
X86219427Y-111330544D01*
X86393462Y-111222786D01*
X86544732Y-111084885D01*
X86668088Y-110921535D01*
X86759328Y-110738301D01*
X86815345Y-110541421D01*
X86834232Y-110337600D01*
X86815345Y-110133779D01*
X86759328Y-109936899D01*
X86668088Y-109753665D01*
X86544732Y-109590315D01*
X86494749Y-109544749D01*
X86393471Y-109452421D01*
X86393466Y-109452417D01*
X86393462Y-109452414D01*
X86219427Y-109344656D01*
X86219423Y-109344654D01*
X86028554Y-109270711D01*
X86028549Y-109270710D01*
X85827349Y-109233100D01*
X85827347Y-109233100D01*
X85622653Y-109233100D01*
X85622651Y-109233100D01*
X85421450Y-109270710D01*
X85421445Y-109270711D01*
X85230576Y-109344654D01*
X85230572Y-109344656D01*
X85128560Y-109407820D01*
X85056538Y-109452414D01*
X85056536Y-109452415D01*
X85056537Y-109452415D01*
X85056528Y-109452421D01*
X84905268Y-109590314D01*
X84835908Y-109682163D01*
X84793709Y-109738044D01*
X84781910Y-109753668D01*
X84781909Y-109753669D01*
X84690673Y-109936895D01*
X84690672Y-109936896D01*
X84634654Y-110133782D01*
X84634654Y-110133783D01*
X84615768Y-110337599D01*
X84634654Y-110541416D01*
X84634654Y-110541417D01*
X84690672Y-110738303D01*
X84692350Y-110742632D01*
X84691344Y-110743021D01*
X84699790Y-110799704D01*
X84671712Y-110854192D01*
X83815458Y-111710446D01*
X83799352Y-111723526D01*
X83788018Y-111730931D01*
X83765511Y-111759847D01*
X83761391Y-111764513D01*
X83758021Y-111767883D01*
X83758019Y-111767887D01*
X83744305Y-111787093D01*
X83710225Y-111830881D01*
X83710222Y-111830885D01*
X83706451Y-111837851D01*
X83702946Y-111845022D01*
X83699088Y-111857983D01*
X83687120Y-111898182D01*
X83679646Y-111919954D01*
X83669099Y-111950673D01*
X83667793Y-111958503D01*
X83666807Y-111966411D01*
X83669100Y-112021825D01*
X83669100Y-144272988D01*
X83666959Y-144293634D01*
X83664180Y-144306883D01*
X83082500Y-144306883D01*
X83082500Y-108672665D01*
X84620500Y-108672665D01*
X84635266Y-108746901D01*
X84635267Y-108746904D01*
X84691514Y-108831082D01*
X84691515Y-108831083D01*
X84691516Y-108831084D01*
X84775699Y-108887334D01*
X84849933Y-108902100D01*
X86600066Y-108902099D01*
X86674301Y-108887334D01*
X86758484Y-108831084D01*
X86814734Y-108746901D01*
X86829500Y-108672667D01*
X86829499Y-108580489D01*
X86848711Y-108521361D01*
X86899011Y-108484815D01*
X86961185Y-108484814D01*
X87001233Y-108509355D01*
X88997033Y-110505156D01*
X89025258Y-110560552D01*
X89026497Y-110576289D01*
X89026497Y-115089899D01*
X89007284Y-115149030D01*
X88992609Y-115165198D01*
X88914501Y-115234397D01*
X88824210Y-115365206D01*
X88815376Y-115388500D01*
X88767849Y-115513818D01*
X88748691Y-115671600D01*
X88767849Y-115829382D01*
X88788368Y-115883485D01*
X88815799Y-115955816D01*
X88824211Y-115977995D01*
X88914500Y-116108801D01*
X88914501Y-116108802D01*
X88914502Y-116108803D01*
X88914503Y-116108804D01*
X89033466Y-116214197D01*
X89033467Y-116214198D01*
X89033469Y-116214199D01*
X89174205Y-116288063D01*
X89328527Y-116326100D01*
X89328531Y-116326100D01*
X89487465Y-116326100D01*
X89487469Y-116326100D01*
X89641791Y-116288063D01*
X89782527Y-116214199D01*
X89901496Y-116108801D01*
X89991785Y-115977995D01*
X90048147Y-115829382D01*
X90067305Y-115671600D01*
X90048147Y-115513818D01*
X89991785Y-115365205D01*
X89901496Y-115234399D01*
X89901493Y-115234396D01*
X89901491Y-115234394D01*
X89823387Y-115165198D01*
X89791868Y-115111606D01*
X89789498Y-115089899D01*
X89789498Y-113605772D01*
X92633788Y-113605772D01*
X92663413Y-113875018D01*
X92731928Y-114137088D01*
X92837870Y-114386391D01*
X92910000Y-114504579D01*
X92978982Y-114617610D01*
X93068252Y-114724880D01*
X93152256Y-114825821D01*
X93152257Y-114825822D01*
X93353992Y-115006577D01*
X93354002Y-115006585D01*
X93579907Y-115156043D01*
X93579912Y-115156045D01*
X93747045Y-115234394D01*
X93825176Y-115271020D01*
X94084569Y-115349060D01*
X94084570Y-115349060D01*
X94084573Y-115349061D01*
X94240782Y-115372049D01*
X94352561Y-115388500D01*
X94352563Y-115388500D01*
X94555634Y-115388500D01*
X94581681Y-115386593D01*
X94758156Y-115373677D01*
X95022553Y-115314780D01*
X95275558Y-115218014D01*
X95511777Y-115085441D01*
X95726177Y-114919888D01*
X95914186Y-114724881D01*
X96071799Y-114504579D01*
X96195656Y-114263675D01*
X96283118Y-114007305D01*
X96332319Y-113740933D01*
X96342212Y-113470235D01*
X96312586Y-113200982D01*
X96244072Y-112938912D01*
X96138130Y-112689610D01*
X96128468Y-112673779D01*
X95997017Y-112458389D01*
X95823745Y-112250180D01*
X95718759Y-112156112D01*
X95622007Y-112069422D01*
X95621997Y-112069414D01*
X95396092Y-111919956D01*
X95396087Y-111919954D01*
X95150832Y-111804983D01*
X95150828Y-111804982D01*
X95150824Y-111804980D01*
X94990931Y-111756875D01*
X94891426Y-111726938D01*
X94674049Y-111694948D01*
X94623439Y-111687500D01*
X94420369Y-111687500D01*
X94420366Y-111687500D01*
X94350228Y-111692633D01*
X94217844Y-111702323D01*
X94217841Y-111702323D01*
X94217836Y-111702324D01*
X93953451Y-111761218D01*
X93953450Y-111761218D01*
X93700446Y-111857983D01*
X93700440Y-111857986D01*
X93464227Y-111990556D01*
X93464221Y-111990560D01*
X93249819Y-112156114D01*
X93061813Y-112351119D01*
X92904201Y-112571420D01*
X92780342Y-112812327D01*
X92692881Y-113068695D01*
X92643680Y-113335073D01*
X92633788Y-113605765D01*
X92633788Y-113605772D01*
X89789498Y-113605772D01*
X89789498Y-110426599D01*
X89791639Y-110405952D01*
X89794443Y-110392579D01*
X89789885Y-110356015D01*
X89789498Y-110349786D01*
X89789498Y-110344989D01*
X89789498Y-110344987D01*
X89785594Y-110321593D01*
X89778694Y-110266238D01*
X89778694Y-110266237D01*
X89776416Y-110258586D01*
X89773816Y-110251015D01*
X89773816Y-110251012D01*
X89747268Y-110201956D01*
X89722774Y-110151852D01*
X89722771Y-110151849D01*
X89718119Y-110145332D01*
X89713216Y-110139034D01*
X89672179Y-110101257D01*
X88531980Y-108961057D01*
X93826392Y-108961057D01*
X93856668Y-109132752D01*
X93856668Y-109132753D01*
X93925720Y-109292837D01*
X94011324Y-109407822D01*
X94029832Y-109432683D01*
X94163386Y-109544749D01*
X94319185Y-109622994D01*
X94488826Y-109663199D01*
X94488826Y-109663200D01*
X94488829Y-109663200D01*
X94619438Y-109663200D01*
X94684300Y-109655618D01*
X94749164Y-109648037D01*
X94912993Y-109588408D01*
X95058654Y-109492605D01*
X95079855Y-109470134D01*
X95178292Y-109365797D01*
X95178296Y-109365793D01*
X95265467Y-109214807D01*
X95315469Y-109047788D01*
X95325607Y-108873740D01*
X95295332Y-108702046D01*
X95226279Y-108541962D01*
X95122168Y-108402117D01*
X94988614Y-108290051D01*
X94832815Y-108211806D01*
X94832813Y-108211805D01*
X94832812Y-108211805D01*
X94663173Y-108171600D01*
X94663171Y-108171600D01*
X94532564Y-108171600D01*
X94532562Y-108171600D01*
X94402837Y-108186762D01*
X94239007Y-108246391D01*
X94093343Y-108342197D01*
X94093340Y-108342199D01*
X93973707Y-108469002D01*
X93973699Y-108469013D01*
X93886537Y-108619984D01*
X93886533Y-108619993D01*
X93836531Y-108787012D01*
X93826392Y-108961057D01*
X88531980Y-108961057D01*
X87515980Y-107945057D01*
X88746392Y-107945057D01*
X88776668Y-108116752D01*
X88776668Y-108116753D01*
X88845720Y-108276837D01*
X88894381Y-108342199D01*
X88949832Y-108416683D01*
X89083386Y-108528749D01*
X89239185Y-108606994D01*
X89408826Y-108647199D01*
X89408826Y-108647200D01*
X89408829Y-108647200D01*
X89539438Y-108647200D01*
X89604300Y-108639618D01*
X89669164Y-108632037D01*
X89832993Y-108572408D01*
X89978654Y-108476605D01*
X89985823Y-108469007D01*
X90098292Y-108349797D01*
X90098296Y-108349793D01*
X90185467Y-108198807D01*
X90235469Y-108031788D01*
X90245607Y-107857740D01*
X90215332Y-107686046D01*
X90146279Y-107525962D01*
X90042168Y-107386117D01*
X89908614Y-107274051D01*
X89752815Y-107195806D01*
X89752813Y-107195805D01*
X89752812Y-107195805D01*
X89583173Y-107155600D01*
X89583171Y-107155600D01*
X89452564Y-107155600D01*
X89452562Y-107155600D01*
X89322837Y-107170762D01*
X89159007Y-107230391D01*
X89013343Y-107326197D01*
X89013340Y-107326199D01*
X88893707Y-107453002D01*
X88893699Y-107453013D01*
X88806537Y-107603984D01*
X88806533Y-107603993D01*
X88756531Y-107771012D01*
X88746392Y-107945057D01*
X87515980Y-107945057D01*
X87134116Y-107563193D01*
X87121032Y-107547081D01*
X87113561Y-107535645D01*
X87113556Y-107535640D01*
X87084482Y-107513012D01*
X87079804Y-107508881D01*
X87076408Y-107505485D01*
X87076409Y-107505485D01*
X87066754Y-107498592D01*
X87057099Y-107491699D01*
X87013085Y-107457442D01*
X87013084Y-107457441D01*
X87013082Y-107457440D01*
X87006064Y-107453642D01*
X86998868Y-107450124D01*
X86945413Y-107434210D01*
X86897432Y-107417738D01*
X86847744Y-107380365D01*
X86829499Y-107322589D01*
X86829499Y-106929057D01*
X93826392Y-106929057D01*
X93856668Y-107100752D01*
X93856668Y-107100753D01*
X93925720Y-107260837D01*
X94025099Y-107394325D01*
X94029832Y-107400683D01*
X94163386Y-107512749D01*
X94319185Y-107590994D01*
X94488826Y-107631199D01*
X94488826Y-107631200D01*
X94488829Y-107631200D01*
X94619438Y-107631200D01*
X94684300Y-107623618D01*
X94749164Y-107616037D01*
X94912993Y-107556408D01*
X95058654Y-107460605D01*
X95065224Y-107453642D01*
X95178292Y-107333797D01*
X95178296Y-107333793D01*
X95265467Y-107182807D01*
X95315469Y-107015788D01*
X95325607Y-106841740D01*
X95295332Y-106670046D01*
X95226279Y-106509962D01*
X95122168Y-106370117D01*
X94988614Y-106258051D01*
X94832815Y-106179806D01*
X94832813Y-106179805D01*
X94832812Y-106179805D01*
X94663173Y-106139600D01*
X94663171Y-106139600D01*
X94532564Y-106139600D01*
X94532562Y-106139600D01*
X94402837Y-106154762D01*
X94239007Y-106214391D01*
X94093343Y-106310197D01*
X94093340Y-106310199D01*
X93973707Y-106437002D01*
X93973699Y-106437013D01*
X93886537Y-106587984D01*
X93886533Y-106587993D01*
X93836531Y-106755012D01*
X93826392Y-106929057D01*
X86829499Y-106929057D01*
X86829499Y-106922534D01*
X86829498Y-106922533D01*
X86814734Y-106848299D01*
X86814732Y-106848297D01*
X86814732Y-106848295D01*
X86758485Y-106764117D01*
X86758483Y-106764115D01*
X86674302Y-106707867D01*
X86674301Y-106707866D01*
X86674300Y-106707865D01*
X86674299Y-106707865D01*
X86618498Y-106696766D01*
X86600067Y-106693100D01*
X86600066Y-106693100D01*
X84849934Y-106693100D01*
X84775698Y-106707866D01*
X84775695Y-106707867D01*
X84691517Y-106764114D01*
X84691515Y-106764116D01*
X84635265Y-106848300D01*
X84620500Y-106922533D01*
X84620500Y-108672665D01*
X83082500Y-108672665D01*
X83082500Y-106969651D01*
X83082608Y-106966360D01*
X83098962Y-106716829D01*
X83099822Y-106710299D01*
X83100307Y-106707865D01*
X83148285Y-106466663D01*
X83149983Y-106460321D01*
X83229838Y-106225076D01*
X83232355Y-106219003D01*
X83342223Y-105996210D01*
X83345516Y-105990506D01*
X83483533Y-105783950D01*
X83487520Y-105778753D01*
X83651328Y-105591965D01*
X83655965Y-105587328D01*
X83842753Y-105423520D01*
X83847950Y-105419533D01*
X84054511Y-105281512D01*
X84060206Y-105278225D01*
X84283009Y-105168351D01*
X84289083Y-105165836D01*
X84302338Y-105161336D01*
X84334669Y-105156000D01*
X101394400Y-105156000D01*
X101453531Y-105175213D01*
X101490076Y-105225513D01*
X101495000Y-105256600D01*
X101495000Y-110938000D01*
X106567100Y-110938000D01*
X106626231Y-110957213D01*
X106662776Y-111007513D01*
X106667700Y-111038600D01*
X106667700Y-116654900D01*
X106648487Y-116714031D01*
X106598187Y-116750576D01*
X106567100Y-116755500D01*
X106324934Y-116755500D01*
X106250698Y-116770266D01*
X106250695Y-116770267D01*
X106166517Y-116826514D01*
X106166515Y-116826516D01*
X106110265Y-116910700D01*
X106095500Y-116984933D01*
X106095500Y-117835065D01*
X106110266Y-117909301D01*
X106110267Y-117909304D01*
X106136243Y-117948179D01*
X106153120Y-118008019D01*
X106131601Y-118066350D01*
X106123734Y-118075204D01*
X106094183Y-118104755D01*
X106048156Y-118208995D01*
X106045200Y-118234472D01*
X106045200Y-119125495D01*
X106045201Y-119125510D01*
X106048156Y-119150982D01*
X106048157Y-119150986D01*
X106094183Y-119255224D01*
X106123742Y-119284784D01*
X106151968Y-119340182D01*
X106142241Y-119401591D01*
X106136252Y-119411808D01*
X106110265Y-119450699D01*
X106095500Y-119524933D01*
X106095500Y-120375065D01*
X106110266Y-120449301D01*
X106110267Y-120449304D01*
X106163592Y-120529109D01*
X106180469Y-120588949D01*
X106163593Y-120640890D01*
X106110265Y-120720699D01*
X106095500Y-120794933D01*
X106095500Y-121645065D01*
X106110266Y-121719301D01*
X106110267Y-121719304D01*
X106163592Y-121799109D01*
X106180469Y-121858949D01*
X106163593Y-121910890D01*
X106110265Y-121990699D01*
X106095500Y-122064933D01*
X106095500Y-122915065D01*
X106110266Y-122989301D01*
X106110267Y-122989304D01*
X106166514Y-123073482D01*
X106166515Y-123073483D01*
X106166516Y-123073484D01*
X106250699Y-123129734D01*
X106324933Y-123144500D01*
X107875066Y-123144499D01*
X107949301Y-123129734D01*
X108033484Y-123073484D01*
X108089734Y-122989301D01*
X108104500Y-122915067D01*
X108104499Y-122064934D01*
X108089734Y-121990699D01*
X108089732Y-121990697D01*
X108089732Y-121990695D01*
X108036407Y-121910890D01*
X108019530Y-121851050D01*
X108036407Y-121799109D01*
X108089734Y-121719301D01*
X108104500Y-121645067D01*
X108104499Y-120794934D01*
X108089734Y-120720699D01*
X108089732Y-120720697D01*
X108089732Y-120720695D01*
X108036407Y-120640890D01*
X108019530Y-120581050D01*
X108036407Y-120529109D01*
X108089734Y-120449301D01*
X108104500Y-120375067D01*
X108104499Y-119761000D01*
X122022693Y-119761000D01*
X122041851Y-119918782D01*
X122098213Y-120067395D01*
X122188502Y-120198201D01*
X122188503Y-120198202D01*
X122188504Y-120198203D01*
X122188505Y-120198204D01*
X122307468Y-120303597D01*
X122307469Y-120303598D01*
X122307471Y-120303599D01*
X122448207Y-120377463D01*
X122602529Y-120415500D01*
X122602533Y-120415500D01*
X122761467Y-120415500D01*
X122761471Y-120415500D01*
X122915793Y-120377463D01*
X123056529Y-120303599D01*
X123175498Y-120198201D01*
X123265787Y-120067395D01*
X123322149Y-119918782D01*
X123341307Y-119761000D01*
X123322149Y-119603218D01*
X123265787Y-119454605D01*
X123175498Y-119323799D01*
X123175495Y-119323796D01*
X123175494Y-119323795D01*
X123056531Y-119218402D01*
X123056530Y-119218401D01*
X122915795Y-119144538D01*
X122915794Y-119144537D01*
X122915793Y-119144537D01*
X122837546Y-119125251D01*
X122761473Y-119106500D01*
X122761471Y-119106500D01*
X122602529Y-119106500D01*
X122602526Y-119106500D01*
X122525402Y-119125510D01*
X122448207Y-119144537D01*
X122448206Y-119144537D01*
X122448204Y-119144538D01*
X122307469Y-119218401D01*
X122307468Y-119218402D01*
X122188505Y-119323795D01*
X122188504Y-119323796D01*
X122098212Y-119454606D01*
X122054960Y-119568652D01*
X122041851Y-119603218D01*
X122022693Y-119761000D01*
X108104499Y-119761000D01*
X108104499Y-119524934D01*
X108089734Y-119450699D01*
X108089732Y-119450697D01*
X108089732Y-119450695D01*
X108063748Y-119411808D01*
X108046871Y-119351969D01*
X108068389Y-119293637D01*
X108076259Y-119284781D01*
X108105816Y-119255223D01*
X108151843Y-119150984D01*
X108154799Y-119125507D01*
X108154799Y-119100000D01*
X113040693Y-119100000D01*
X113059851Y-119257782D01*
X113116213Y-119406395D01*
X113206502Y-119537201D01*
X113206503Y-119537202D01*
X113206504Y-119537203D01*
X113206505Y-119537204D01*
X113325468Y-119642597D01*
X113325469Y-119642598D01*
X113325471Y-119642599D01*
X113466207Y-119716463D01*
X113620529Y-119754500D01*
X113620533Y-119754500D01*
X113779467Y-119754500D01*
X113779471Y-119754500D01*
X113933793Y-119716463D01*
X114074529Y-119642599D01*
X114193498Y-119537201D01*
X114283787Y-119406395D01*
X114340149Y-119257782D01*
X114359307Y-119100000D01*
X114340149Y-118942218D01*
X114283787Y-118793605D01*
X114193498Y-118662799D01*
X114193495Y-118662796D01*
X114193494Y-118662795D01*
X114074531Y-118557402D01*
X114074530Y-118557401D01*
X113933795Y-118483538D01*
X113933794Y-118483537D01*
X113933793Y-118483537D01*
X113855547Y-118464251D01*
X113779473Y-118445500D01*
X113779471Y-118445500D01*
X113620529Y-118445500D01*
X113620526Y-118445500D01*
X113506414Y-118473626D01*
X113466207Y-118483537D01*
X113466206Y-118483537D01*
X113466204Y-118483538D01*
X113325469Y-118557401D01*
X113325468Y-118557402D01*
X113206505Y-118662795D01*
X113206504Y-118662796D01*
X113116212Y-118793606D01*
X113059850Y-118942217D01*
X113059851Y-118942218D01*
X113040693Y-119100000D01*
X108154799Y-119100000D01*
X108154799Y-118234484D01*
X108154798Y-118234469D01*
X108151843Y-118208997D01*
X108151842Y-118208993D01*
X108105816Y-118104755D01*
X108076265Y-118075203D01*
X108048039Y-118019805D01*
X108057766Y-117958396D01*
X108063744Y-117948195D01*
X108089734Y-117909301D01*
X108104500Y-117835067D01*
X108104499Y-116984934D01*
X108089734Y-116910699D01*
X108089732Y-116910697D01*
X108089732Y-116910695D01*
X108033485Y-116826517D01*
X108033483Y-116826515D01*
X107991678Y-116798582D01*
X107949301Y-116770266D01*
X107949300Y-116770265D01*
X107949299Y-116770265D01*
X107893498Y-116759166D01*
X107875067Y-116755500D01*
X107875066Y-116755500D01*
X107632900Y-116755500D01*
X107573769Y-116736287D01*
X107537887Y-116686900D01*
X120153783Y-116686900D01*
X120172941Y-116844682D01*
X120194214Y-116900773D01*
X120226131Y-116984933D01*
X120229303Y-116993295D01*
X120319592Y-117124101D01*
X120319593Y-117124102D01*
X120319594Y-117124103D01*
X120319595Y-117124104D01*
X120438558Y-117229497D01*
X120438559Y-117229498D01*
X120438561Y-117229499D01*
X120579297Y-117303363D01*
X120733619Y-117341400D01*
X120733623Y-117341400D01*
X120892557Y-117341400D01*
X120892561Y-117341400D01*
X121046883Y-117303363D01*
X121187619Y-117229499D01*
X121306588Y-117124101D01*
X121396877Y-116993295D01*
X121453239Y-116844682D01*
X121472397Y-116686900D01*
X121453239Y-116529118D01*
X121396877Y-116380505D01*
X121306588Y-116249699D01*
X121306585Y-116249696D01*
X121306584Y-116249695D01*
X121187621Y-116144302D01*
X121187620Y-116144301D01*
X121046885Y-116070438D01*
X121046884Y-116070437D01*
X121046883Y-116070437D01*
X120946623Y-116045725D01*
X120892563Y-116032400D01*
X120892561Y-116032400D01*
X120733619Y-116032400D01*
X120733616Y-116032400D01*
X120619505Y-116060526D01*
X120579297Y-116070437D01*
X120579296Y-116070437D01*
X120579294Y-116070438D01*
X120438559Y-116144301D01*
X120438558Y-116144302D01*
X120319595Y-116249695D01*
X120319594Y-116249696D01*
X120229302Y-116380506D01*
X120217910Y-116410545D01*
X120172941Y-116529118D01*
X120153783Y-116686900D01*
X107537887Y-116686900D01*
X107537224Y-116685987D01*
X107532300Y-116654900D01*
X107532300Y-111038600D01*
X107551513Y-110979469D01*
X107601813Y-110942924D01*
X107632900Y-110938000D01*
X112717000Y-110938000D01*
X112717000Y-108187772D01*
X119775788Y-108187772D01*
X119805413Y-108457018D01*
X119873928Y-108719088D01*
X119979870Y-108968391D01*
X120080180Y-109132754D01*
X120120982Y-109199610D01*
X120210252Y-109306880D01*
X120294256Y-109407821D01*
X120294257Y-109407822D01*
X120495992Y-109588577D01*
X120496002Y-109588585D01*
X120721907Y-109738043D01*
X120721912Y-109738045D01*
X120755232Y-109753665D01*
X120967176Y-109853020D01*
X121226569Y-109931060D01*
X121226570Y-109931060D01*
X121226573Y-109931061D01*
X121382782Y-109954049D01*
X121494561Y-109970500D01*
X121494563Y-109970500D01*
X121697634Y-109970500D01*
X121723681Y-109968593D01*
X121900156Y-109955677D01*
X122164553Y-109896780D01*
X122417558Y-109800014D01*
X122653777Y-109667441D01*
X122868177Y-109501888D01*
X123056186Y-109306881D01*
X123213799Y-109086579D01*
X123337656Y-108845675D01*
X123425118Y-108589305D01*
X123474319Y-108322933D01*
X123484212Y-108052235D01*
X123454586Y-107782982D01*
X123386072Y-107520912D01*
X123280130Y-107271610D01*
X123273555Y-107260837D01*
X123175857Y-107100753D01*
X123139018Y-107040390D01*
X122965745Y-106832180D01*
X122889779Y-106764114D01*
X122764007Y-106651422D01*
X122763997Y-106651414D01*
X122538092Y-106501956D01*
X122538087Y-106501954D01*
X122292832Y-106386983D01*
X122292828Y-106386982D01*
X122292824Y-106386980D01*
X122132931Y-106338875D01*
X122033426Y-106308938D01*
X121816049Y-106276948D01*
X121765439Y-106269500D01*
X121562369Y-106269500D01*
X121562366Y-106269500D01*
X121492228Y-106274633D01*
X121359844Y-106284323D01*
X121359841Y-106284323D01*
X121359836Y-106284324D01*
X121095451Y-106343218D01*
X121095450Y-106343218D01*
X120842446Y-106439983D01*
X120842440Y-106439986D01*
X120606227Y-106572556D01*
X120606221Y-106572560D01*
X120391819Y-106738114D01*
X120203813Y-106933119D01*
X120046201Y-107153420D01*
X119922342Y-107394327D01*
X119834881Y-107650695D01*
X119785680Y-107917073D01*
X119775788Y-108187765D01*
X119775788Y-108187772D01*
X112717000Y-108187772D01*
X112717000Y-105129600D01*
X112736213Y-105070469D01*
X112786513Y-105033924D01*
X112817600Y-105029000D01*
X123490548Y-105029000D01*
X123493838Y-105029108D01*
G37*
G04 #@! TD.AperFunction*
M02*
