M48
; DRILL file {KiCad 7.0.9} date 
; FORMAT={-:-/ absolute / metric / decimal}
; #@! TF.CreationDate,2024-01-13T23:59:27+01:00
; #@! TF.GenerationSoftware,Kicad,Pcbnew,7.0.9
; #@! TF.FileFunction,Plated,1,4,PTH
FMAT,2
METRIC
; #@! TA.AperFunction,Plated,PTH,ViaDrill
T1C0.400
; #@! TA.AperFunction,Plated,PTH,ComponentDrill
T2C0.650
; #@! TA.AperFunction,Plated,PTH,ComponentDrill
T3C0.830
; #@! TA.AperFunction,Plated,PTH,ComponentDrill
T4C0.890
; #@! TA.AperFunction,Plated,PTH,ComponentDrill
T5C1.000
; #@! TA.AperFunction,Plated,PTH,ComponentDrill
T6C1.800
%
G90
G05
T1
X58.511Y-119.791
X58.511Y-126.884
X60.071Y-119.761
X63.119Y-119.761
X64.77Y-117.221
X66.015Y-136.627
X66.12Y-152.468
X68.326Y-114.681
X68.326Y-115.951
X68.944Y-136.635
X69.088Y-132.969
X69.088Y-134.112
X69.088Y-135.255
X70.561Y-128.372
X70.739Y-140.538
X71.501Y-112.446
X72.568Y-141.681
X72.644Y-145.669
X73.914Y-115.951
X73.914Y-117.856
X74.828Y-121.531
X74.828Y-122.631
X74.828Y-123.731
X75.844Y-108.458
X75.844Y-110.299
X76.225Y-114.427
X77.495Y-108.458
X77.927Y-145.098
X77.927Y-149.098
X79.121Y-124.816
X79.121Y-131.572
X79.121Y-132.969
X79.121Y-134.112
X79.121Y-135.255
X79.337Y-108.458
X79.46Y-144.53
X79.48Y-146.14
X80.01Y-120.904
X81.242Y-108.458
X81.242Y-110.236
X81.28Y-141.859
X82.474Y-114.325
X82.779Y-143.281
X83.312Y-147.32
X83.5Y-119.1
X84.201Y-107.442
X84.201Y-108.966
X84.201Y-110.49
X84.201Y-111.887
X84.658Y-143.154
X85.039Y-121.531
X85.039Y-122.631
X85.039Y-123.731
X85.5Y-129.9
X85.6Y-126.75
X85.852Y-111.9
X85.852Y-142.037
X87.24Y-111.887
X87.24Y-113.45
X87.24Y-115.0
X87.24Y-116.65
X87.4Y-118.0
X87.4Y-119.35
X87.63Y-148.59
X87.9Y-133.4
X89.662Y-111.9
X89.662Y-113.45
X89.662Y-115.0
X89.662Y-116.65
X90.0Y-125.05
X90.8Y-118.0
X90.8Y-119.35
X91.2Y-139.7
X91.44Y-114.05
X92.83Y-127.0
X93.25Y-143.05
X93.472Y-114.1
X94.1Y-127.0
X95.35Y-133.35
X95.37Y-127.0
X95.4Y-114.1
X96.64Y-127.0
X96.65Y-120.65
X96.65Y-134.65
X97.155Y-139.725
X97.155Y-141.275
X97.155Y-142.799
X97.2Y-114.1
X98.679Y-139.751
X98.679Y-141.3
X98.679Y-142.824
X99.0Y-114.1
X99.1Y-116.9
X100.178Y-139.751
X100.178Y-141.3
X100.178Y-142.824
X100.8Y-114.1
X102.6Y-114.1
X103.734Y-133.375
X103.825Y-126.425
X104.4Y-114.1
X105.029Y-137.16
X105.207Y-147.371
X105.308Y-148.641
X106.2Y-114.1
X108.0Y-114.1
X109.271Y-148.844
X109.8Y-114.1
X111.125Y-146.05
X111.6Y-114.1
X113.03Y-133.579
X113.35Y-114.1
X115.15Y-114.1
T4
X59.372Y-136.056
X59.372Y-138.096
X59.372Y-140.136
X59.372Y-142.177
X61.152Y-135.036
X61.152Y-137.076
X61.152Y-139.117
X61.152Y-141.156
X65.962Y-131.746
X65.962Y-134.036
X65.962Y-143.177
X65.962Y-145.466
T5
X60.706Y-111.76
X60.706Y-114.3
X63.246Y-111.76
X63.246Y-114.3
X73.127Y-151.486
X73.127Y-154.026
X75.667Y-151.486
X75.667Y-154.026
X88.392Y-110.033
T6
X60.392Y-130.476
X60.392Y-146.737
T2
X57.178Y-118.743G85X56.978Y-118.743
G05
X57.178Y-123.593G85X56.978Y-123.593
G05
T3
X54.513Y-117.568G85X53.843Y-117.568
G05
X54.513Y-124.768G85X53.843Y-124.768
G05
T0
M30
