G04 #@! TF.GenerationSoftware,KiCad,Pcbnew,7.0.9*
G04 #@! TF.CreationDate,2024-01-13T23:58:37+01:00*
G04 #@! TF.ProjectId,ithowifi_4l,6974686f-7769-4666-995f-346c2e6b6963,rev?*
G04 #@! TF.SameCoordinates,Original*
G04 #@! TF.FileFunction,Legend,Top*
G04 #@! TF.FilePolarity,Positive*
%FSLAX46Y46*%
G04 Gerber Fmt 4.6, Leading zero omitted, Abs format (unit mm)*
G04 Created by KiCad (PCBNEW 7.0.9) date 2024-01-13 23:58:37*
%MOMM*%
%LPD*%
G01*
G04 APERTURE LIST*
G04 Aperture macros list*
%AMRoundRect*
0 Rectangle with rounded corners*
0 $1 Rounding radius*
0 $2 $3 $4 $5 $6 $7 $8 $9 X,Y pos of 4 corners*
0 Add a 4 corners polygon primitive as box body*
4,1,4,$2,$3,$4,$5,$6,$7,$8,$9,$2,$3,0*
0 Add four circle primitives for the rounded corners*
1,1,$1+$1,$2,$3*
1,1,$1+$1,$4,$5*
1,1,$1+$1,$6,$7*
1,1,$1+$1,$8,$9*
0 Add four rect primitives between the rounded corners*
20,1,$1+$1,$2,$3,$4,$5,0*
20,1,$1+$1,$4,$5,$6,$7,0*
20,1,$1+$1,$6,$7,$8,$9,0*
20,1,$1+$1,$8,$9,$2,$3,0*%
G04 Aperture macros list end*
%ADD10C,0.120000*%
%ADD11C,0.150000*%
%ADD12C,0.223242*%
%ADD13C,0.254000*%
%ADD14C,0.100000*%
%ADD15C,0.635000*%
%ADD16C,0.200000*%
%ADD17R,1.500000X0.900000*%
%ADD18R,0.900000X1.500000*%
%ADD19R,1.050000X1.050000*%
%ADD20RoundRect,0.250000X0.262500X0.450000X-0.262500X0.450000X-0.262500X-0.450000X0.262500X-0.450000X0*%
%ADD21R,1.700000X1.700000*%
%ADD22O,1.700000X1.700000*%
%ADD23RoundRect,0.250000X-0.262500X-0.450000X0.262500X-0.450000X0.262500X0.450000X-0.262500X0.450000X0*%
%ADD24RoundRect,0.250000X0.450000X-0.262500X0.450000X0.262500X-0.450000X0.262500X-0.450000X-0.262500X0*%
%ADD25C,2.500000*%
%ADD26R,1.350000X0.400000*%
%ADD27RoundRect,0.273000X-0.677000X0.637000X-0.677000X-0.637000X0.677000X-0.637000X0.677000X0.637000X0*%
%ADD28O,1.250000X1.050000*%
%ADD29RoundRect,0.250000X0.250000X0.475000X-0.250000X0.475000X-0.250000X-0.475000X0.250000X-0.475000X0*%
%ADD30R,1.000000X0.700000*%
%ADD31R,1.500000X2.000000*%
%ADD32R,3.800000X2.000000*%
%ADD33RoundRect,0.101600X-0.400000X0.750000X-0.400000X-0.750000X0.400000X-0.750000X0.400000X0.750000X0*%
%ADD34RoundRect,0.101600X-0.750000X-0.400000X0.750000X-0.400000X0.750000X0.400000X-0.750000X0.400000X0*%
%ADD35RoundRect,0.101600X0.750000X0.400000X-0.750000X0.400000X-0.750000X-0.400000X0.750000X-0.400000X0*%
%ADD36RoundRect,0.105000X1.655000X-0.420000X1.655000X0.420000X-1.655000X0.420000X-1.655000X-0.420000X0*%
%ADD37RoundRect,0.105000X1.005000X-0.420000X1.005000X0.420000X-1.005000X0.420000X-1.005000X-0.420000X0*%
%ADD38C,3.250000*%
%ADD39C,1.446000*%
%ADD40C,2.700000*%
%ADD41RoundRect,0.250000X0.475000X-0.250000X0.475000X0.250000X-0.475000X0.250000X-0.475000X-0.250000X0*%
%ADD42RoundRect,0.250000X-0.475000X0.250000X-0.475000X-0.250000X0.475000X-0.250000X0.475000X0.250000X0*%
%ADD43R,0.700000X1.000000*%
%ADD44RoundRect,0.250000X-0.787500X-1.025000X0.787500X-1.025000X0.787500X1.025000X-0.787500X1.025000X0*%
%ADD45RoundRect,0.250000X-0.450000X0.262500X-0.450000X-0.262500X0.450000X-0.262500X0.450000X0.262500X0*%
%ADD46RoundRect,0.250000X-0.250000X-0.475000X0.250000X-0.475000X0.250000X0.475000X-0.250000X0.475000X0*%
%ADD47R,0.750000X1.000000*%
%ADD48RoundRect,0.243750X-0.243750X-0.456250X0.243750X-0.456250X0.243750X0.456250X-0.243750X0.456250X0*%
%ADD49RoundRect,0.150000X-0.825000X-0.150000X0.825000X-0.150000X0.825000X0.150000X-0.825000X0.150000X0*%
%ADD50R,1.200000X1.400000*%
%ADD51C,2.000000*%
G04 APERTURE END LIST*
D10*
X101288428Y-116331942D02*
X101377445Y-116071744D01*
X104331119Y-115827549D02*
X104331119Y-115827549D01*
X102851676Y-117612966D02*
X102829629Y-117603872D01*
X101869407Y-115997322D02*
X101828340Y-115997322D01*
X106453645Y-116579135D02*
X106203099Y-117679361D01*
X101801056Y-115793919D02*
X101869407Y-115793919D01*
X101609235Y-117365722D02*
X101705699Y-117467982D01*
X103995448Y-117173647D02*
X103995448Y-117231762D01*
X102206475Y-117105016D02*
X102227699Y-116842634D01*
X101512222Y-116667628D02*
X101512222Y-116755258D01*
X103123695Y-116500903D02*
X103334540Y-116590717D01*
X100713235Y-115233392D02*
X106816560Y-115233392D01*
X103859020Y-117553428D02*
X103831735Y-117576593D01*
X102310107Y-117516750D02*
X102142813Y-117655688D01*
X103093652Y-117687083D02*
X103071604Y-117682409D01*
X102903212Y-116637860D02*
X102835140Y-116519343D01*
X103755946Y-117136411D02*
X103695032Y-116989548D01*
X103074637Y-116760491D02*
X102942074Y-116677280D01*
X102450940Y-117177508D02*
X102361364Y-117437401D01*
X106322124Y-116336057D02*
X106583642Y-116336057D01*
X102157418Y-116201284D02*
X102143361Y-116172328D01*
X103112402Y-116490133D02*
X103123695Y-116500903D01*
X103831735Y-117576593D02*
X103804450Y-117599707D01*
X103755946Y-117189598D02*
X103755946Y-117136411D01*
X103254337Y-116823889D02*
X103074637Y-116760491D01*
X105520652Y-117679361D02*
X105268735Y-117679361D01*
X103355485Y-117715480D02*
X103289892Y-117715480D01*
X101532888Y-116405500D02*
X101512222Y-116667628D01*
X102033120Y-117468236D02*
X102129305Y-117367094D01*
X101937758Y-117715226D02*
X101869407Y-117715226D01*
X106111304Y-117330721D02*
X106322124Y-116336057D01*
X102142813Y-115853457D02*
X102310107Y-115992395D01*
X103399031Y-115997627D02*
X103270044Y-116018557D01*
X102335741Y-116032070D02*
X102361364Y-116071744D01*
X103296501Y-117512077D02*
X103355485Y-117512077D01*
X102361364Y-116071744D02*
X102450940Y-116331942D01*
X103650663Y-117427749D02*
X103668027Y-117413423D01*
X102129305Y-116143118D02*
X102033120Y-116040909D01*
X102806195Y-116285358D02*
X102847541Y-116118074D01*
X101828340Y-115997322D02*
X101705699Y-116040909D01*
X101377445Y-117438468D02*
X101288428Y-117178880D01*
X102206475Y-116405500D02*
X102157418Y-116201284D01*
X102142813Y-117655688D02*
X101937758Y-117715226D01*
X103365406Y-116598185D02*
X103496871Y-116627954D01*
X102806195Y-116341289D02*
X102806195Y-116285358D01*
X103472340Y-115794478D02*
X103620895Y-115815154D01*
X103524156Y-117490842D02*
X103633021Y-117441820D01*
X103630816Y-117680733D02*
X103424106Y-117715480D01*
X105268735Y-116586602D02*
X105268735Y-115827549D01*
X103071056Y-116177053D02*
X103045422Y-116271287D01*
X103000225Y-115919344D02*
X103166966Y-115831714D01*
X103695032Y-116989548D02*
X103682906Y-116977407D01*
X102227699Y-116667628D02*
X102206475Y-116405500D01*
X101800781Y-117715226D02*
X101595732Y-117655688D01*
X107886764Y-118200000D02*
X100713235Y-118200000D01*
X101595179Y-117336817D02*
X101609235Y-117365722D01*
X103888788Y-115890947D02*
X103888788Y-116145354D01*
X102227699Y-116755258D02*
X102227699Y-116755258D01*
X103115429Y-117691756D02*
X103093652Y-117687083D01*
X102033120Y-116040909D02*
X101910199Y-115997322D01*
X104583036Y-117679361D02*
X104331119Y-117679361D01*
X101532888Y-117103899D02*
X101581117Y-117307607D01*
X106942239Y-117679361D02*
X106705206Y-117679361D01*
X105268735Y-117679361D02*
X105268735Y-116797422D01*
X103659482Y-116034813D02*
X103640458Y-116028514D01*
X103668027Y-117413423D02*
X103729485Y-117325234D01*
X103965679Y-116972733D02*
X103995448Y-117123203D01*
X104583036Y-116586602D02*
X105268735Y-116586602D01*
X103729485Y-117325234D02*
X103755946Y-117223533D01*
X102157418Y-117308978D02*
X102206475Y-117105016D01*
X101869407Y-117715226D02*
X101800781Y-117715226D01*
X103270044Y-116018557D02*
X103165594Y-116066817D01*
X101595732Y-117655688D02*
X101428438Y-117517614D01*
X102922781Y-116657722D02*
X102903212Y-116637860D01*
X103045422Y-116302732D02*
X103045422Y-116349570D01*
X106816560Y-114915892D02*
X100395735Y-114915892D01*
X105933808Y-115827549D02*
X106111304Y-117330721D01*
X106816560Y-115233392D02*
X106816560Y-114915892D01*
X106705206Y-117679361D02*
X106453645Y-116579135D01*
X105966016Y-117679361D02*
X105689613Y-115827549D01*
X101288428Y-117178880D02*
X101250389Y-116861075D01*
X103640732Y-115819319D02*
X103660305Y-115823180D01*
X101910199Y-115997322D02*
X101869407Y-115997322D01*
X102489523Y-116755258D02*
X102489523Y-116755258D01*
X103721768Y-116705932D02*
X103856535Y-116797168D01*
X107397814Y-114451732D02*
X107642009Y-114451732D01*
X103428794Y-115997627D02*
X103399031Y-115997627D01*
X101428438Y-117517614D02*
X101403078Y-117478193D01*
X103165594Y-116066817D02*
X103148505Y-116080838D01*
X102361364Y-117437401D02*
X102335741Y-117477076D01*
X102227699Y-116755258D02*
X102227699Y-116667628D01*
X103101099Y-116479364D02*
X103112402Y-116490133D01*
X103045422Y-116349570D02*
X103101099Y-116479364D01*
X101869407Y-115793919D02*
X101937758Y-115793919D01*
X103045422Y-116271287D02*
X103045422Y-116302732D01*
X103583689Y-116912637D02*
X103460768Y-116871286D01*
X107893368Y-114915892D02*
X107886764Y-118200000D01*
X103460768Y-116871286D02*
X103430999Y-116864682D01*
X103804450Y-117599707D02*
X103630816Y-117680733D01*
X107642009Y-114451732D02*
X106942239Y-117679361D01*
X105268735Y-115827549D02*
X105520652Y-115827549D01*
X103416394Y-115794478D02*
X103472340Y-115794478D01*
X102129305Y-117367094D02*
X102143361Y-117338188D01*
X103660305Y-115823180D02*
X103867015Y-115882972D01*
X105520652Y-115827549D02*
X105520652Y-117679361D01*
X105689613Y-115827549D02*
X105689613Y-115827549D01*
X102489523Y-116649442D02*
X102489523Y-116755258D01*
X103876383Y-116818911D02*
X103896225Y-116840450D01*
X103856535Y-116797168D02*
X103876383Y-116818911D01*
X101512222Y-116755258D02*
X101512222Y-116842380D01*
X103071604Y-117682409D02*
X102851676Y-117612966D01*
X108204264Y-114915892D02*
X107893368Y-114915892D01*
X103119839Y-117476822D02*
X103296501Y-117512077D01*
X103448088Y-115997627D02*
X103428794Y-115997627D01*
X102972392Y-115944440D02*
X103000225Y-115919344D01*
X101705699Y-116040909D02*
X101609235Y-116143118D01*
X103633021Y-117441820D02*
X103650663Y-117427749D01*
X101403078Y-117478193D02*
X101377445Y-117438468D01*
X101705699Y-117467982D02*
X101828340Y-117511823D01*
X102143361Y-117338188D02*
X102157418Y-117308978D01*
X103098620Y-117469913D02*
X103119839Y-117476822D01*
X101250389Y-116755258D02*
X101250389Y-116649442D01*
X103148505Y-116080838D02*
X103131142Y-116094350D01*
X102835140Y-116519343D02*
X102806195Y-116385688D01*
X104583036Y-115827549D02*
X104583036Y-116586602D01*
X103355485Y-117512077D02*
X103397649Y-117512077D01*
X102944554Y-115969230D02*
X102972392Y-115944440D01*
X100395735Y-118517500D02*
X108204264Y-118517500D01*
X101910199Y-117511823D02*
X102033120Y-117468236D01*
X100713235Y-118200000D02*
X100713235Y-115233392D01*
X103166966Y-115831714D02*
X103353829Y-115794478D01*
X101250389Y-116649442D02*
X101288428Y-116331942D01*
X102450940Y-116331942D02*
X102489523Y-116649442D01*
X103131142Y-116094350D02*
X103071056Y-116177053D01*
X103289892Y-117715480D02*
X103115429Y-117691756D01*
X100395735Y-114915892D02*
X100395735Y-114915892D01*
X103640458Y-116028514D02*
X103448088Y-115997627D01*
X104331119Y-117679361D02*
X104331119Y-115827549D01*
X103077396Y-117462750D02*
X103098620Y-117469913D01*
X103334540Y-116590717D02*
X103365406Y-116598185D01*
X101595179Y-116172328D02*
X101581117Y-116201284D01*
X104583036Y-116797422D02*
X104583036Y-117679361D01*
X103620895Y-115815154D02*
X103640732Y-115819319D01*
X103896225Y-116840450D02*
X103965679Y-116972733D01*
X101377445Y-116071744D02*
X101403078Y-116032070D01*
X101596555Y-115853457D02*
X101801056Y-115793919D01*
X101512222Y-116842380D02*
X101532888Y-117103899D01*
X106203099Y-117679361D02*
X105966016Y-117679361D01*
X102806195Y-116385688D02*
X102806195Y-116341289D01*
X102847541Y-116118074D02*
X102944554Y-115969230D01*
X103867015Y-115882972D02*
X103888788Y-115891252D01*
X101828340Y-117511823D02*
X101869407Y-117511823D01*
X103297334Y-116833541D02*
X103254337Y-116823889D01*
X103995448Y-117123203D02*
X103995448Y-117173647D01*
X101403078Y-116032070D02*
X101428712Y-115992395D01*
X102829629Y-117603872D02*
X102829629Y-117337325D01*
X103540143Y-116637860D02*
X103721768Y-116705932D01*
X103888788Y-116145354D02*
X103869764Y-116132958D01*
X105268735Y-116797422D02*
X104583036Y-116797422D01*
X101428712Y-115992395D02*
X101596555Y-115853457D01*
X101937758Y-115793919D02*
X102142813Y-115853457D01*
X100395735Y-114915892D02*
X100395735Y-118517500D01*
X102489523Y-116860821D02*
X102450940Y-117177508D01*
X101581117Y-116201284D02*
X101532888Y-116405500D01*
X103670775Y-116965012D02*
X103583689Y-116912637D01*
X103678497Y-116040909D02*
X103659482Y-116034813D01*
X102942074Y-116677280D02*
X102922781Y-116657722D01*
X103995448Y-117231762D02*
X103954381Y-117406260D01*
X103353829Y-115794478D02*
X103416394Y-115794478D01*
X102853327Y-117352209D02*
X103077396Y-117462750D01*
X103682906Y-116977407D02*
X103670775Y-116965012D01*
X103424106Y-117715480D02*
X103355485Y-117715480D01*
X105689613Y-115827549D02*
X105933808Y-115827549D01*
X104331119Y-115827549D02*
X104583036Y-115827549D01*
X108204264Y-118517500D02*
X108204264Y-114915892D01*
X106583642Y-116336057D02*
X106797002Y-117333210D01*
X102310107Y-115992395D02*
X102335741Y-116032070D01*
X103869764Y-116132958D02*
X103678497Y-116040909D01*
X101250389Y-116861075D02*
X101250389Y-116755258D01*
X102335741Y-117477076D02*
X102310107Y-117516750D01*
X103954381Y-117406260D02*
X103859020Y-117553428D01*
X103430999Y-116864682D02*
X103297334Y-116833541D01*
X102489523Y-116755258D02*
X102489523Y-116860821D01*
X103888788Y-115891252D02*
X103888788Y-115890947D01*
X103397649Y-117512077D02*
X103524156Y-117490842D01*
X102829629Y-117337325D02*
X102853327Y-117352209D01*
X101609235Y-116143118D02*
X101595179Y-116172328D01*
X106797002Y-117333210D02*
X107397814Y-114451732D01*
X103496871Y-116627954D02*
X103540143Y-116637860D01*
X101581117Y-117307607D02*
X101595179Y-117336817D01*
X101869407Y-117511823D02*
X101910199Y-117511823D01*
X103755946Y-117223533D02*
X103755946Y-117189598D01*
X102227699Y-116842634D02*
X102227699Y-116755258D01*
X102143361Y-116172328D02*
X102129305Y-116143118D01*
D11*
X77905124Y-154610600D02*
X78047981Y-154658219D01*
X78047981Y-154658219D02*
X78286076Y-154658219D01*
X78286076Y-154658219D02*
X78381314Y-154610600D01*
X78381314Y-154610600D02*
X78428933Y-154562980D01*
X78428933Y-154562980D02*
X78476552Y-154467742D01*
X78476552Y-154467742D02*
X78476552Y-154372504D01*
X78476552Y-154372504D02*
X78428933Y-154277266D01*
X78428933Y-154277266D02*
X78381314Y-154229647D01*
X78381314Y-154229647D02*
X78286076Y-154182028D01*
X78286076Y-154182028D02*
X78095600Y-154134409D01*
X78095600Y-154134409D02*
X78000362Y-154086790D01*
X78000362Y-154086790D02*
X77952743Y-154039171D01*
X77952743Y-154039171D02*
X77905124Y-153943933D01*
X77905124Y-153943933D02*
X77905124Y-153848695D01*
X77905124Y-153848695D02*
X77952743Y-153753457D01*
X77952743Y-153753457D02*
X78000362Y-153705838D01*
X78000362Y-153705838D02*
X78095600Y-153658219D01*
X78095600Y-153658219D02*
X78333695Y-153658219D01*
X78333695Y-153658219D02*
X78476552Y-153705838D01*
X79476552Y-154562980D02*
X79428933Y-154610600D01*
X79428933Y-154610600D02*
X79286076Y-154658219D01*
X79286076Y-154658219D02*
X79190838Y-154658219D01*
X79190838Y-154658219D02*
X79047981Y-154610600D01*
X79047981Y-154610600D02*
X78952743Y-154515361D01*
X78952743Y-154515361D02*
X78905124Y-154420123D01*
X78905124Y-154420123D02*
X78857505Y-154229647D01*
X78857505Y-154229647D02*
X78857505Y-154086790D01*
X78857505Y-154086790D02*
X78905124Y-153896314D01*
X78905124Y-153896314D02*
X78952743Y-153801076D01*
X78952743Y-153801076D02*
X79047981Y-153705838D01*
X79047981Y-153705838D02*
X79190838Y-153658219D01*
X79190838Y-153658219D02*
X79286076Y-153658219D01*
X79286076Y-153658219D02*
X79428933Y-153705838D01*
X79428933Y-153705838D02*
X79476552Y-153753457D01*
X80381314Y-154658219D02*
X79905124Y-154658219D01*
X79905124Y-154658219D02*
X79905124Y-153658219D01*
X77881314Y-152070600D02*
X78024171Y-152118219D01*
X78024171Y-152118219D02*
X78262266Y-152118219D01*
X78262266Y-152118219D02*
X78357504Y-152070600D01*
X78357504Y-152070600D02*
X78405123Y-152022980D01*
X78405123Y-152022980D02*
X78452742Y-151927742D01*
X78452742Y-151927742D02*
X78452742Y-151832504D01*
X78452742Y-151832504D02*
X78405123Y-151737266D01*
X78405123Y-151737266D02*
X78357504Y-151689647D01*
X78357504Y-151689647D02*
X78262266Y-151642028D01*
X78262266Y-151642028D02*
X78071790Y-151594409D01*
X78071790Y-151594409D02*
X77976552Y-151546790D01*
X77976552Y-151546790D02*
X77928933Y-151499171D01*
X77928933Y-151499171D02*
X77881314Y-151403933D01*
X77881314Y-151403933D02*
X77881314Y-151308695D01*
X77881314Y-151308695D02*
X77928933Y-151213457D01*
X77928933Y-151213457D02*
X77976552Y-151165838D01*
X77976552Y-151165838D02*
X78071790Y-151118219D01*
X78071790Y-151118219D02*
X78309885Y-151118219D01*
X78309885Y-151118219D02*
X78452742Y-151165838D01*
X78881314Y-152118219D02*
X78881314Y-151118219D01*
X78881314Y-151118219D02*
X79119409Y-151118219D01*
X79119409Y-151118219D02*
X79262266Y-151165838D01*
X79262266Y-151165838D02*
X79357504Y-151261076D01*
X79357504Y-151261076D02*
X79405123Y-151356314D01*
X79405123Y-151356314D02*
X79452742Y-151546790D01*
X79452742Y-151546790D02*
X79452742Y-151689647D01*
X79452742Y-151689647D02*
X79405123Y-151880123D01*
X79405123Y-151880123D02*
X79357504Y-151975361D01*
X79357504Y-151975361D02*
X79262266Y-152070600D01*
X79262266Y-152070600D02*
X79119409Y-152118219D01*
X79119409Y-152118219D02*
X78881314Y-152118219D01*
X79833695Y-151832504D02*
X80309885Y-151832504D01*
X79738457Y-152118219D02*
X80071790Y-151118219D01*
X80071790Y-151118219D02*
X80405123Y-152118219D01*
X68808695Y-151038838D02*
X68713457Y-150991219D01*
X68713457Y-150991219D02*
X68570600Y-150991219D01*
X68570600Y-150991219D02*
X68427743Y-151038838D01*
X68427743Y-151038838D02*
X68332505Y-151134076D01*
X68332505Y-151134076D02*
X68284886Y-151229314D01*
X68284886Y-151229314D02*
X68237267Y-151419790D01*
X68237267Y-151419790D02*
X68237267Y-151562647D01*
X68237267Y-151562647D02*
X68284886Y-151753123D01*
X68284886Y-151753123D02*
X68332505Y-151848361D01*
X68332505Y-151848361D02*
X68427743Y-151943600D01*
X68427743Y-151943600D02*
X68570600Y-151991219D01*
X68570600Y-151991219D02*
X68665838Y-151991219D01*
X68665838Y-151991219D02*
X68808695Y-151943600D01*
X68808695Y-151943600D02*
X68856314Y-151895980D01*
X68856314Y-151895980D02*
X68856314Y-151562647D01*
X68856314Y-151562647D02*
X68665838Y-151562647D01*
X69284886Y-151991219D02*
X69284886Y-150991219D01*
X69284886Y-150991219D02*
X69856314Y-151991219D01*
X69856314Y-151991219D02*
X69856314Y-150991219D01*
X70332505Y-151991219D02*
X70332505Y-150991219D01*
X70332505Y-150991219D02*
X70570600Y-150991219D01*
X70570600Y-150991219D02*
X70713457Y-151038838D01*
X70713457Y-151038838D02*
X70808695Y-151134076D01*
X70808695Y-151134076D02*
X70856314Y-151229314D01*
X70856314Y-151229314D02*
X70903933Y-151419790D01*
X70903933Y-151419790D02*
X70903933Y-151562647D01*
X70903933Y-151562647D02*
X70856314Y-151753123D01*
X70856314Y-151753123D02*
X70808695Y-151848361D01*
X70808695Y-151848361D02*
X70713457Y-151943600D01*
X70713457Y-151943600D02*
X70570600Y-151991219D01*
X70570600Y-151991219D02*
X70332505Y-151991219D01*
X68507124Y-153658219D02*
X69126171Y-153658219D01*
X69126171Y-153658219D02*
X68792838Y-154039171D01*
X68792838Y-154039171D02*
X68935695Y-154039171D01*
X68935695Y-154039171D02*
X69030933Y-154086790D01*
X69030933Y-154086790D02*
X69078552Y-154134409D01*
X69078552Y-154134409D02*
X69126171Y-154229647D01*
X69126171Y-154229647D02*
X69126171Y-154467742D01*
X69126171Y-154467742D02*
X69078552Y-154562980D01*
X69078552Y-154562980D02*
X69030933Y-154610600D01*
X69030933Y-154610600D02*
X68935695Y-154658219D01*
X68935695Y-154658219D02*
X68649981Y-154658219D01*
X68649981Y-154658219D02*
X68554743Y-154610600D01*
X68554743Y-154610600D02*
X68507124Y-154562980D01*
X69459505Y-153991552D02*
X69697600Y-154658219D01*
X69697600Y-154658219D02*
X69935695Y-153991552D01*
X70221410Y-153658219D02*
X70840457Y-153658219D01*
X70840457Y-153658219D02*
X70507124Y-154039171D01*
X70507124Y-154039171D02*
X70649981Y-154039171D01*
X70649981Y-154039171D02*
X70745219Y-154086790D01*
X70745219Y-154086790D02*
X70792838Y-154134409D01*
X70792838Y-154134409D02*
X70840457Y-154229647D01*
X70840457Y-154229647D02*
X70840457Y-154467742D01*
X70840457Y-154467742D02*
X70792838Y-154562980D01*
X70792838Y-154562980D02*
X70745219Y-154610600D01*
X70745219Y-154610600D02*
X70649981Y-154658219D01*
X70649981Y-154658219D02*
X70364267Y-154658219D01*
X70364267Y-154658219D02*
X70269029Y-154610600D01*
X70269029Y-154610600D02*
X70221410Y-154562980D01*
D12*
X101065629Y-120348069D02*
X101065629Y-118562129D01*
X101065629Y-118562129D02*
X101984112Y-120348069D01*
X101984112Y-120348069D02*
X101984112Y-118562129D01*
X103514918Y-120348069D02*
X102749515Y-120348069D01*
X102749515Y-120348069D02*
X102749515Y-118562129D01*
X104816103Y-118562129D02*
X104050700Y-118562129D01*
X104050700Y-118562129D02*
X103974160Y-119412577D01*
X103974160Y-119412577D02*
X104050700Y-119327532D01*
X104050700Y-119327532D02*
X104203781Y-119242487D01*
X104203781Y-119242487D02*
X104586482Y-119242487D01*
X104586482Y-119242487D02*
X104739563Y-119327532D01*
X104739563Y-119327532D02*
X104816103Y-119412577D01*
X104816103Y-119412577D02*
X104892643Y-119582666D01*
X104892643Y-119582666D02*
X104892643Y-120007890D01*
X104892643Y-120007890D02*
X104816103Y-120177980D01*
X104816103Y-120177980D02*
X104739563Y-120263025D01*
X104739563Y-120263025D02*
X104586482Y-120348069D01*
X104586482Y-120348069D02*
X104203781Y-120348069D01*
X104203781Y-120348069D02*
X104050700Y-120263025D01*
X104050700Y-120263025D02*
X103974160Y-120177980D01*
D11*
X112751142Y-140188819D02*
X112417809Y-139712628D01*
X112179714Y-140188819D02*
X112179714Y-139188819D01*
X112179714Y-139188819D02*
X112560666Y-139188819D01*
X112560666Y-139188819D02*
X112655904Y-139236438D01*
X112655904Y-139236438D02*
X112703523Y-139284057D01*
X112703523Y-139284057D02*
X112751142Y-139379295D01*
X112751142Y-139379295D02*
X112751142Y-139522152D01*
X112751142Y-139522152D02*
X112703523Y-139617390D01*
X112703523Y-139617390D02*
X112655904Y-139665009D01*
X112655904Y-139665009D02*
X112560666Y-139712628D01*
X112560666Y-139712628D02*
X112179714Y-139712628D01*
X113703523Y-140188819D02*
X113132095Y-140188819D01*
X113417809Y-140188819D02*
X113417809Y-139188819D01*
X113417809Y-139188819D02*
X113322571Y-139331676D01*
X113322571Y-139331676D02*
X113227333Y-139426914D01*
X113227333Y-139426914D02*
X113132095Y-139474533D01*
X114322571Y-139188819D02*
X114417809Y-139188819D01*
X114417809Y-139188819D02*
X114513047Y-139236438D01*
X114513047Y-139236438D02*
X114560666Y-139284057D01*
X114560666Y-139284057D02*
X114608285Y-139379295D01*
X114608285Y-139379295D02*
X114655904Y-139569771D01*
X114655904Y-139569771D02*
X114655904Y-139807866D01*
X114655904Y-139807866D02*
X114608285Y-139998342D01*
X114608285Y-139998342D02*
X114560666Y-140093580D01*
X114560666Y-140093580D02*
X114513047Y-140141200D01*
X114513047Y-140141200D02*
X114417809Y-140188819D01*
X114417809Y-140188819D02*
X114322571Y-140188819D01*
X114322571Y-140188819D02*
X114227333Y-140141200D01*
X114227333Y-140141200D02*
X114179714Y-140093580D01*
X114179714Y-140093580D02*
X114132095Y-139998342D01*
X114132095Y-139998342D02*
X114084476Y-139807866D01*
X114084476Y-139807866D02*
X114084476Y-139569771D01*
X114084476Y-139569771D02*
X114132095Y-139379295D01*
X114132095Y-139379295D02*
X114179714Y-139284057D01*
X114179714Y-139284057D02*
X114227333Y-139236438D01*
X114227333Y-139236438D02*
X114322571Y-139188819D01*
X72183666Y-148679819D02*
X72183666Y-149394104D01*
X72183666Y-149394104D02*
X72136047Y-149536961D01*
X72136047Y-149536961D02*
X72040809Y-149632200D01*
X72040809Y-149632200D02*
X71897952Y-149679819D01*
X71897952Y-149679819D02*
X71802714Y-149679819D01*
X73136047Y-148679819D02*
X72659857Y-148679819D01*
X72659857Y-148679819D02*
X72612238Y-149156009D01*
X72612238Y-149156009D02*
X72659857Y-149108390D01*
X72659857Y-149108390D02*
X72755095Y-149060771D01*
X72755095Y-149060771D02*
X72993190Y-149060771D01*
X72993190Y-149060771D02*
X73088428Y-149108390D01*
X73088428Y-149108390D02*
X73136047Y-149156009D01*
X73136047Y-149156009D02*
X73183666Y-149251247D01*
X73183666Y-149251247D02*
X73183666Y-149489342D01*
X73183666Y-149489342D02*
X73136047Y-149584580D01*
X73136047Y-149584580D02*
X73088428Y-149632200D01*
X73088428Y-149632200D02*
X72993190Y-149679819D01*
X72993190Y-149679819D02*
X72755095Y-149679819D01*
X72755095Y-149679819D02*
X72659857Y-149632200D01*
X72659857Y-149632200D02*
X72612238Y-149584580D01*
X112831642Y-145171319D02*
X112498309Y-144695128D01*
X112260214Y-145171319D02*
X112260214Y-144171319D01*
X112260214Y-144171319D02*
X112641166Y-144171319D01*
X112641166Y-144171319D02*
X112736404Y-144218938D01*
X112736404Y-144218938D02*
X112784023Y-144266557D01*
X112784023Y-144266557D02*
X112831642Y-144361795D01*
X112831642Y-144361795D02*
X112831642Y-144504652D01*
X112831642Y-144504652D02*
X112784023Y-144599890D01*
X112784023Y-144599890D02*
X112736404Y-144647509D01*
X112736404Y-144647509D02*
X112641166Y-144695128D01*
X112641166Y-144695128D02*
X112260214Y-144695128D01*
X113784023Y-145171319D02*
X113212595Y-145171319D01*
X113498309Y-145171319D02*
X113498309Y-144171319D01*
X113498309Y-144171319D02*
X113403071Y-144314176D01*
X113403071Y-144314176D02*
X113307833Y-144409414D01*
X113307833Y-144409414D02*
X113212595Y-144457033D01*
X114164976Y-144266557D02*
X114212595Y-144218938D01*
X114212595Y-144218938D02*
X114307833Y-144171319D01*
X114307833Y-144171319D02*
X114545928Y-144171319D01*
X114545928Y-144171319D02*
X114641166Y-144218938D01*
X114641166Y-144218938D02*
X114688785Y-144266557D01*
X114688785Y-144266557D02*
X114736404Y-144361795D01*
X114736404Y-144361795D02*
X114736404Y-144457033D01*
X114736404Y-144457033D02*
X114688785Y-144599890D01*
X114688785Y-144599890D02*
X114117357Y-145171319D01*
X114117357Y-145171319D02*
X114736404Y-145171319D01*
X85404819Y-132230357D02*
X84928628Y-132563690D01*
X85404819Y-132801785D02*
X84404819Y-132801785D01*
X84404819Y-132801785D02*
X84404819Y-132420833D01*
X84404819Y-132420833D02*
X84452438Y-132325595D01*
X84452438Y-132325595D02*
X84500057Y-132277976D01*
X84500057Y-132277976D02*
X84595295Y-132230357D01*
X84595295Y-132230357D02*
X84738152Y-132230357D01*
X84738152Y-132230357D02*
X84833390Y-132277976D01*
X84833390Y-132277976D02*
X84881009Y-132325595D01*
X84881009Y-132325595D02*
X84928628Y-132420833D01*
X84928628Y-132420833D02*
X84928628Y-132801785D01*
X85404819Y-131277976D02*
X85404819Y-131849404D01*
X85404819Y-131563690D02*
X84404819Y-131563690D01*
X84404819Y-131563690D02*
X84547676Y-131658928D01*
X84547676Y-131658928D02*
X84642914Y-131754166D01*
X84642914Y-131754166D02*
X84690533Y-131849404D01*
X84404819Y-130944642D02*
X84404819Y-130325595D01*
X84404819Y-130325595D02*
X84785771Y-130658928D01*
X84785771Y-130658928D02*
X84785771Y-130516071D01*
X84785771Y-130516071D02*
X84833390Y-130420833D01*
X84833390Y-130420833D02*
X84881009Y-130373214D01*
X84881009Y-130373214D02*
X84976247Y-130325595D01*
X84976247Y-130325595D02*
X85214342Y-130325595D01*
X85214342Y-130325595D02*
X85309580Y-130373214D01*
X85309580Y-130373214D02*
X85357200Y-130420833D01*
X85357200Y-130420833D02*
X85404819Y-130516071D01*
X85404819Y-130516071D02*
X85404819Y-130801785D01*
X85404819Y-130801785D02*
X85357200Y-130897023D01*
X85357200Y-130897023D02*
X85309580Y-130944642D01*
X53870266Y-114796219D02*
X53870266Y-115510504D01*
X53870266Y-115510504D02*
X53822647Y-115653361D01*
X53822647Y-115653361D02*
X53727409Y-115748600D01*
X53727409Y-115748600D02*
X53584552Y-115796219D01*
X53584552Y-115796219D02*
X53489314Y-115796219D01*
X54870266Y-115796219D02*
X54298838Y-115796219D01*
X54584552Y-115796219D02*
X54584552Y-114796219D01*
X54584552Y-114796219D02*
X54489314Y-114939076D01*
X54489314Y-114939076D02*
X54394076Y-115034314D01*
X54394076Y-115034314D02*
X54298838Y-115081933D01*
X112719333Y-147777080D02*
X112671714Y-147824700D01*
X112671714Y-147824700D02*
X112528857Y-147872319D01*
X112528857Y-147872319D02*
X112433619Y-147872319D01*
X112433619Y-147872319D02*
X112290762Y-147824700D01*
X112290762Y-147824700D02*
X112195524Y-147729461D01*
X112195524Y-147729461D02*
X112147905Y-147634223D01*
X112147905Y-147634223D02*
X112100286Y-147443747D01*
X112100286Y-147443747D02*
X112100286Y-147300890D01*
X112100286Y-147300890D02*
X112147905Y-147110414D01*
X112147905Y-147110414D02*
X112195524Y-147015176D01*
X112195524Y-147015176D02*
X112290762Y-146919938D01*
X112290762Y-146919938D02*
X112433619Y-146872319D01*
X112433619Y-146872319D02*
X112528857Y-146872319D01*
X112528857Y-146872319D02*
X112671714Y-146919938D01*
X112671714Y-146919938D02*
X112719333Y-146967557D01*
X113052667Y-146872319D02*
X113719333Y-146872319D01*
X113719333Y-146872319D02*
X113290762Y-147872319D01*
X73945761Y-142155057D02*
X73850523Y-142107438D01*
X73850523Y-142107438D02*
X73755285Y-142012200D01*
X73755285Y-142012200D02*
X73612428Y-141869342D01*
X73612428Y-141869342D02*
X73517190Y-141821723D01*
X73517190Y-141821723D02*
X73421952Y-141821723D01*
X73469571Y-142059819D02*
X73374333Y-142012200D01*
X73374333Y-142012200D02*
X73279095Y-141916961D01*
X73279095Y-141916961D02*
X73231476Y-141726485D01*
X73231476Y-141726485D02*
X73231476Y-141393152D01*
X73231476Y-141393152D02*
X73279095Y-141202676D01*
X73279095Y-141202676D02*
X73374333Y-141107438D01*
X73374333Y-141107438D02*
X73469571Y-141059819D01*
X73469571Y-141059819D02*
X73660047Y-141059819D01*
X73660047Y-141059819D02*
X73755285Y-141107438D01*
X73755285Y-141107438D02*
X73850523Y-141202676D01*
X73850523Y-141202676D02*
X73898142Y-141393152D01*
X73898142Y-141393152D02*
X73898142Y-141726485D01*
X73898142Y-141726485D02*
X73850523Y-141916961D01*
X73850523Y-141916961D02*
X73755285Y-142012200D01*
X73755285Y-142012200D02*
X73660047Y-142059819D01*
X73660047Y-142059819D02*
X73469571Y-142059819D01*
X74279095Y-141155057D02*
X74326714Y-141107438D01*
X74326714Y-141107438D02*
X74421952Y-141059819D01*
X74421952Y-141059819D02*
X74660047Y-141059819D01*
X74660047Y-141059819D02*
X74755285Y-141107438D01*
X74755285Y-141107438D02*
X74802904Y-141155057D01*
X74802904Y-141155057D02*
X74850523Y-141250295D01*
X74850523Y-141250295D02*
X74850523Y-141345533D01*
X74850523Y-141345533D02*
X74802904Y-141488390D01*
X74802904Y-141488390D02*
X74231476Y-142059819D01*
X74231476Y-142059819D02*
X74850523Y-142059819D01*
X73945761Y-146219057D02*
X73850523Y-146171438D01*
X73850523Y-146171438D02*
X73755285Y-146076200D01*
X73755285Y-146076200D02*
X73612428Y-145933342D01*
X73612428Y-145933342D02*
X73517190Y-145885723D01*
X73517190Y-145885723D02*
X73421952Y-145885723D01*
X73469571Y-146123819D02*
X73374333Y-146076200D01*
X73374333Y-146076200D02*
X73279095Y-145980961D01*
X73279095Y-145980961D02*
X73231476Y-145790485D01*
X73231476Y-145790485D02*
X73231476Y-145457152D01*
X73231476Y-145457152D02*
X73279095Y-145266676D01*
X73279095Y-145266676D02*
X73374333Y-145171438D01*
X73374333Y-145171438D02*
X73469571Y-145123819D01*
X73469571Y-145123819D02*
X73660047Y-145123819D01*
X73660047Y-145123819D02*
X73755285Y-145171438D01*
X73755285Y-145171438D02*
X73850523Y-145266676D01*
X73850523Y-145266676D02*
X73898142Y-145457152D01*
X73898142Y-145457152D02*
X73898142Y-145790485D01*
X73898142Y-145790485D02*
X73850523Y-145980961D01*
X73850523Y-145980961D02*
X73755285Y-146076200D01*
X73755285Y-146076200D02*
X73660047Y-146123819D01*
X73660047Y-146123819D02*
X73469571Y-146123819D01*
X74850523Y-146123819D02*
X74279095Y-146123819D01*
X74564809Y-146123819D02*
X74564809Y-145123819D01*
X74564809Y-145123819D02*
X74469571Y-145266676D01*
X74469571Y-145266676D02*
X74374333Y-145361914D01*
X74374333Y-145361914D02*
X74279095Y-145409533D01*
X83018333Y-147774819D02*
X82685000Y-147298628D01*
X82446905Y-147774819D02*
X82446905Y-146774819D01*
X82446905Y-146774819D02*
X82827857Y-146774819D01*
X82827857Y-146774819D02*
X82923095Y-146822438D01*
X82923095Y-146822438D02*
X82970714Y-146870057D01*
X82970714Y-146870057D02*
X83018333Y-146965295D01*
X83018333Y-146965295D02*
X83018333Y-147108152D01*
X83018333Y-147108152D02*
X82970714Y-147203390D01*
X82970714Y-147203390D02*
X82923095Y-147251009D01*
X82923095Y-147251009D02*
X82827857Y-147298628D01*
X82827857Y-147298628D02*
X82446905Y-147298628D01*
X83970714Y-147774819D02*
X83399286Y-147774819D01*
X83685000Y-147774819D02*
X83685000Y-146774819D01*
X83685000Y-146774819D02*
X83589762Y-146917676D01*
X83589762Y-146917676D02*
X83494524Y-147012914D01*
X83494524Y-147012914D02*
X83399286Y-147060533D01*
X83018333Y-143710819D02*
X82685000Y-143234628D01*
X82446905Y-143710819D02*
X82446905Y-142710819D01*
X82446905Y-142710819D02*
X82827857Y-142710819D01*
X82827857Y-142710819D02*
X82923095Y-142758438D01*
X82923095Y-142758438D02*
X82970714Y-142806057D01*
X82970714Y-142806057D02*
X83018333Y-142901295D01*
X83018333Y-142901295D02*
X83018333Y-143044152D01*
X83018333Y-143044152D02*
X82970714Y-143139390D01*
X82970714Y-143139390D02*
X82923095Y-143187009D01*
X82923095Y-143187009D02*
X82827857Y-143234628D01*
X82827857Y-143234628D02*
X82446905Y-143234628D01*
X83399286Y-142806057D02*
X83446905Y-142758438D01*
X83446905Y-142758438D02*
X83542143Y-142710819D01*
X83542143Y-142710819D02*
X83780238Y-142710819D01*
X83780238Y-142710819D02*
X83875476Y-142758438D01*
X83875476Y-142758438D02*
X83923095Y-142806057D01*
X83923095Y-142806057D02*
X83970714Y-142901295D01*
X83970714Y-142901295D02*
X83970714Y-142996533D01*
X83970714Y-142996533D02*
X83923095Y-143139390D01*
X83923095Y-143139390D02*
X83351667Y-143710819D01*
X83351667Y-143710819D02*
X83970714Y-143710819D01*
X68667333Y-147774819D02*
X68334000Y-147298628D01*
X68095905Y-147774819D02*
X68095905Y-146774819D01*
X68095905Y-146774819D02*
X68476857Y-146774819D01*
X68476857Y-146774819D02*
X68572095Y-146822438D01*
X68572095Y-146822438D02*
X68619714Y-146870057D01*
X68619714Y-146870057D02*
X68667333Y-146965295D01*
X68667333Y-146965295D02*
X68667333Y-147108152D01*
X68667333Y-147108152D02*
X68619714Y-147203390D01*
X68619714Y-147203390D02*
X68572095Y-147251009D01*
X68572095Y-147251009D02*
X68476857Y-147298628D01*
X68476857Y-147298628D02*
X68095905Y-147298628D01*
X69000667Y-146774819D02*
X69619714Y-146774819D01*
X69619714Y-146774819D02*
X69286381Y-147155771D01*
X69286381Y-147155771D02*
X69429238Y-147155771D01*
X69429238Y-147155771D02*
X69524476Y-147203390D01*
X69524476Y-147203390D02*
X69572095Y-147251009D01*
X69572095Y-147251009D02*
X69619714Y-147346247D01*
X69619714Y-147346247D02*
X69619714Y-147584342D01*
X69619714Y-147584342D02*
X69572095Y-147679580D01*
X69572095Y-147679580D02*
X69524476Y-147727200D01*
X69524476Y-147727200D02*
X69429238Y-147774819D01*
X69429238Y-147774819D02*
X69143524Y-147774819D01*
X69143524Y-147774819D02*
X69048286Y-147727200D01*
X69048286Y-147727200D02*
X69000667Y-147679580D01*
X68286333Y-128978819D02*
X67953000Y-128502628D01*
X67714905Y-128978819D02*
X67714905Y-127978819D01*
X67714905Y-127978819D02*
X68095857Y-127978819D01*
X68095857Y-127978819D02*
X68191095Y-128026438D01*
X68191095Y-128026438D02*
X68238714Y-128074057D01*
X68238714Y-128074057D02*
X68286333Y-128169295D01*
X68286333Y-128169295D02*
X68286333Y-128312152D01*
X68286333Y-128312152D02*
X68238714Y-128407390D01*
X68238714Y-128407390D02*
X68191095Y-128455009D01*
X68191095Y-128455009D02*
X68095857Y-128502628D01*
X68095857Y-128502628D02*
X67714905Y-128502628D01*
X69191095Y-127978819D02*
X68714905Y-127978819D01*
X68714905Y-127978819D02*
X68667286Y-128455009D01*
X68667286Y-128455009D02*
X68714905Y-128407390D01*
X68714905Y-128407390D02*
X68810143Y-128359771D01*
X68810143Y-128359771D02*
X69048238Y-128359771D01*
X69048238Y-128359771D02*
X69143476Y-128407390D01*
X69143476Y-128407390D02*
X69191095Y-128455009D01*
X69191095Y-128455009D02*
X69238714Y-128550247D01*
X69238714Y-128550247D02*
X69238714Y-128788342D01*
X69238714Y-128788342D02*
X69191095Y-128883580D01*
X69191095Y-128883580D02*
X69143476Y-128931200D01*
X69143476Y-128931200D02*
X69048238Y-128978819D01*
X69048238Y-128978819D02*
X68810143Y-128978819D01*
X68810143Y-128978819D02*
X68714905Y-128931200D01*
X68714905Y-128931200D02*
X68667286Y-128883580D01*
X82296095Y-112738819D02*
X82296095Y-113548342D01*
X82296095Y-113548342D02*
X82343714Y-113643580D01*
X82343714Y-113643580D02*
X82391333Y-113691200D01*
X82391333Y-113691200D02*
X82486571Y-113738819D01*
X82486571Y-113738819D02*
X82677047Y-113738819D01*
X82677047Y-113738819D02*
X82772285Y-113691200D01*
X82772285Y-113691200D02*
X82819904Y-113643580D01*
X82819904Y-113643580D02*
X82867523Y-113548342D01*
X82867523Y-113548342D02*
X82867523Y-112738819D01*
X83772285Y-113072152D02*
X83772285Y-113738819D01*
X83534190Y-112691200D02*
X83296095Y-113405485D01*
X83296095Y-113405485D02*
X83915142Y-113405485D01*
X86938095Y-124154819D02*
X86938095Y-124964342D01*
X86938095Y-124964342D02*
X86985714Y-125059580D01*
X86985714Y-125059580D02*
X87033333Y-125107200D01*
X87033333Y-125107200D02*
X87128571Y-125154819D01*
X87128571Y-125154819D02*
X87319047Y-125154819D01*
X87319047Y-125154819D02*
X87414285Y-125107200D01*
X87414285Y-125107200D02*
X87461904Y-125059580D01*
X87461904Y-125059580D02*
X87509523Y-124964342D01*
X87509523Y-124964342D02*
X87509523Y-124154819D01*
X87938095Y-124250057D02*
X87985714Y-124202438D01*
X87985714Y-124202438D02*
X88080952Y-124154819D01*
X88080952Y-124154819D02*
X88319047Y-124154819D01*
X88319047Y-124154819D02*
X88414285Y-124202438D01*
X88414285Y-124202438D02*
X88461904Y-124250057D01*
X88461904Y-124250057D02*
X88509523Y-124345295D01*
X88509523Y-124345295D02*
X88509523Y-124440533D01*
X88509523Y-124440533D02*
X88461904Y-124583390D01*
X88461904Y-124583390D02*
X87890476Y-125154819D01*
X87890476Y-125154819D02*
X88509523Y-125154819D01*
X62079633Y-151432419D02*
X61746300Y-150956228D01*
X61508205Y-151432419D02*
X61508205Y-150432419D01*
X61508205Y-150432419D02*
X61889157Y-150432419D01*
X61889157Y-150432419D02*
X61984395Y-150480038D01*
X61984395Y-150480038D02*
X62032014Y-150527657D01*
X62032014Y-150527657D02*
X62079633Y-150622895D01*
X62079633Y-150622895D02*
X62079633Y-150765752D01*
X62079633Y-150765752D02*
X62032014Y-150860990D01*
X62032014Y-150860990D02*
X61984395Y-150908609D01*
X61984395Y-150908609D02*
X61889157Y-150956228D01*
X61889157Y-150956228D02*
X61508205Y-150956228D01*
X62936776Y-150432419D02*
X62746300Y-150432419D01*
X62746300Y-150432419D02*
X62651062Y-150480038D01*
X62651062Y-150480038D02*
X62603443Y-150527657D01*
X62603443Y-150527657D02*
X62508205Y-150670514D01*
X62508205Y-150670514D02*
X62460586Y-150860990D01*
X62460586Y-150860990D02*
X62460586Y-151241942D01*
X62460586Y-151241942D02*
X62508205Y-151337180D01*
X62508205Y-151337180D02*
X62555824Y-151384800D01*
X62555824Y-151384800D02*
X62651062Y-151432419D01*
X62651062Y-151432419D02*
X62841538Y-151432419D01*
X62841538Y-151432419D02*
X62936776Y-151384800D01*
X62936776Y-151384800D02*
X62984395Y-151337180D01*
X62984395Y-151337180D02*
X63032014Y-151241942D01*
X63032014Y-151241942D02*
X63032014Y-151003847D01*
X63032014Y-151003847D02*
X62984395Y-150908609D01*
X62984395Y-150908609D02*
X62936776Y-150860990D01*
X62936776Y-150860990D02*
X62841538Y-150813371D01*
X62841538Y-150813371D02*
X62651062Y-150813371D01*
X62651062Y-150813371D02*
X62555824Y-150860990D01*
X62555824Y-150860990D02*
X62508205Y-150908609D01*
X62508205Y-150908609D02*
X62460586Y-151003847D01*
X76529904Y-140339680D02*
X76529904Y-139530157D01*
X76529904Y-139530157D02*
X76482285Y-139434919D01*
X76482285Y-139434919D02*
X76434666Y-139387300D01*
X76434666Y-139387300D02*
X76339428Y-139339680D01*
X76339428Y-139339680D02*
X76148952Y-139339680D01*
X76148952Y-139339680D02*
X76053714Y-139387300D01*
X76053714Y-139387300D02*
X76006095Y-139434919D01*
X76006095Y-139434919D02*
X75958476Y-139530157D01*
X75958476Y-139530157D02*
X75958476Y-140339680D01*
X75006095Y-140339680D02*
X75482285Y-140339680D01*
X75482285Y-140339680D02*
X75529904Y-139863490D01*
X75529904Y-139863490D02*
X75482285Y-139911109D01*
X75482285Y-139911109D02*
X75387047Y-139958728D01*
X75387047Y-139958728D02*
X75148952Y-139958728D01*
X75148952Y-139958728D02*
X75053714Y-139911109D01*
X75053714Y-139911109D02*
X75006095Y-139863490D01*
X75006095Y-139863490D02*
X74958476Y-139768252D01*
X74958476Y-139768252D02*
X74958476Y-139530157D01*
X74958476Y-139530157D02*
X75006095Y-139434919D01*
X75006095Y-139434919D02*
X75053714Y-139387300D01*
X75053714Y-139387300D02*
X75148952Y-139339680D01*
X75148952Y-139339680D02*
X75387047Y-139339680D01*
X75387047Y-139339680D02*
X75482285Y-139387300D01*
X75482285Y-139387300D02*
X75529904Y-139434919D01*
D13*
X56327318Y-149076832D02*
X57234461Y-149076832D01*
X57234461Y-149076832D02*
X57415889Y-149137309D01*
X57415889Y-149137309D02*
X57536842Y-149258261D01*
X57536842Y-149258261D02*
X57597318Y-149439690D01*
X57597318Y-149439690D02*
X57597318Y-149560642D01*
X56448270Y-148532547D02*
X56387794Y-148472071D01*
X56387794Y-148472071D02*
X56327318Y-148351118D01*
X56327318Y-148351118D02*
X56327318Y-148048737D01*
X56327318Y-148048737D02*
X56387794Y-147927785D01*
X56387794Y-147927785D02*
X56448270Y-147867309D01*
X56448270Y-147867309D02*
X56569222Y-147806832D01*
X56569222Y-147806832D02*
X56690175Y-147806832D01*
X56690175Y-147806832D02*
X56871603Y-147867309D01*
X56871603Y-147867309D02*
X57597318Y-148593023D01*
X57597318Y-148593023D02*
X57597318Y-147806832D01*
D11*
X68667333Y-143710819D02*
X68334000Y-143234628D01*
X68095905Y-143710819D02*
X68095905Y-142710819D01*
X68095905Y-142710819D02*
X68476857Y-142710819D01*
X68476857Y-142710819D02*
X68572095Y-142758438D01*
X68572095Y-142758438D02*
X68619714Y-142806057D01*
X68619714Y-142806057D02*
X68667333Y-142901295D01*
X68667333Y-142901295D02*
X68667333Y-143044152D01*
X68667333Y-143044152D02*
X68619714Y-143139390D01*
X68619714Y-143139390D02*
X68572095Y-143187009D01*
X68572095Y-143187009D02*
X68476857Y-143234628D01*
X68476857Y-143234628D02*
X68095905Y-143234628D01*
X69524476Y-143044152D02*
X69524476Y-143710819D01*
X69286381Y-142663200D02*
X69048286Y-143377485D01*
X69048286Y-143377485D02*
X69667333Y-143377485D01*
X82782580Y-136183666D02*
X82830200Y-136231285D01*
X82830200Y-136231285D02*
X82877819Y-136374142D01*
X82877819Y-136374142D02*
X82877819Y-136469380D01*
X82877819Y-136469380D02*
X82830200Y-136612237D01*
X82830200Y-136612237D02*
X82734961Y-136707475D01*
X82734961Y-136707475D02*
X82639723Y-136755094D01*
X82639723Y-136755094D02*
X82449247Y-136802713D01*
X82449247Y-136802713D02*
X82306390Y-136802713D01*
X82306390Y-136802713D02*
X82115914Y-136755094D01*
X82115914Y-136755094D02*
X82020676Y-136707475D01*
X82020676Y-136707475D02*
X81925438Y-136612237D01*
X81925438Y-136612237D02*
X81877819Y-136469380D01*
X81877819Y-136469380D02*
X81877819Y-136374142D01*
X81877819Y-136374142D02*
X81925438Y-136231285D01*
X81925438Y-136231285D02*
X81973057Y-136183666D01*
X81877819Y-135326523D02*
X81877819Y-135516999D01*
X81877819Y-135516999D02*
X81925438Y-135612237D01*
X81925438Y-135612237D02*
X81973057Y-135659856D01*
X81973057Y-135659856D02*
X82115914Y-135755094D01*
X82115914Y-135755094D02*
X82306390Y-135802713D01*
X82306390Y-135802713D02*
X82687342Y-135802713D01*
X82687342Y-135802713D02*
X82782580Y-135755094D01*
X82782580Y-135755094D02*
X82830200Y-135707475D01*
X82830200Y-135707475D02*
X82877819Y-135612237D01*
X82877819Y-135612237D02*
X82877819Y-135421761D01*
X82877819Y-135421761D02*
X82830200Y-135326523D01*
X82830200Y-135326523D02*
X82782580Y-135278904D01*
X82782580Y-135278904D02*
X82687342Y-135231285D01*
X82687342Y-135231285D02*
X82449247Y-135231285D01*
X82449247Y-135231285D02*
X82354009Y-135278904D01*
X82354009Y-135278904D02*
X82306390Y-135326523D01*
X82306390Y-135326523D02*
X82258771Y-135421761D01*
X82258771Y-135421761D02*
X82258771Y-135612237D01*
X82258771Y-135612237D02*
X82306390Y-135707475D01*
X82306390Y-135707475D02*
X82354009Y-135755094D01*
X82354009Y-135755094D02*
X82449247Y-135802713D01*
X82782580Y-132500666D02*
X82830200Y-132548285D01*
X82830200Y-132548285D02*
X82877819Y-132691142D01*
X82877819Y-132691142D02*
X82877819Y-132786380D01*
X82877819Y-132786380D02*
X82830200Y-132929237D01*
X82830200Y-132929237D02*
X82734961Y-133024475D01*
X82734961Y-133024475D02*
X82639723Y-133072094D01*
X82639723Y-133072094D02*
X82449247Y-133119713D01*
X82449247Y-133119713D02*
X82306390Y-133119713D01*
X82306390Y-133119713D02*
X82115914Y-133072094D01*
X82115914Y-133072094D02*
X82020676Y-133024475D01*
X82020676Y-133024475D02*
X81925438Y-132929237D01*
X81925438Y-132929237D02*
X81877819Y-132786380D01*
X81877819Y-132786380D02*
X81877819Y-132691142D01*
X81877819Y-132691142D02*
X81925438Y-132548285D01*
X81925438Y-132548285D02*
X81973057Y-132500666D01*
X81877819Y-132167332D02*
X81877819Y-131548285D01*
X81877819Y-131548285D02*
X82258771Y-131881618D01*
X82258771Y-131881618D02*
X82258771Y-131738761D01*
X82258771Y-131738761D02*
X82306390Y-131643523D01*
X82306390Y-131643523D02*
X82354009Y-131595904D01*
X82354009Y-131595904D02*
X82449247Y-131548285D01*
X82449247Y-131548285D02*
X82687342Y-131548285D01*
X82687342Y-131548285D02*
X82782580Y-131595904D01*
X82782580Y-131595904D02*
X82830200Y-131643523D01*
X82830200Y-131643523D02*
X82877819Y-131738761D01*
X82877819Y-131738761D02*
X82877819Y-132024475D01*
X82877819Y-132024475D02*
X82830200Y-132119713D01*
X82830200Y-132119713D02*
X82782580Y-132167332D01*
X100707142Y-126434819D02*
X100373809Y-125958628D01*
X100135714Y-126434819D02*
X100135714Y-125434819D01*
X100135714Y-125434819D02*
X100516666Y-125434819D01*
X100516666Y-125434819D02*
X100611904Y-125482438D01*
X100611904Y-125482438D02*
X100659523Y-125530057D01*
X100659523Y-125530057D02*
X100707142Y-125625295D01*
X100707142Y-125625295D02*
X100707142Y-125768152D01*
X100707142Y-125768152D02*
X100659523Y-125863390D01*
X100659523Y-125863390D02*
X100611904Y-125911009D01*
X100611904Y-125911009D02*
X100516666Y-125958628D01*
X100516666Y-125958628D02*
X100135714Y-125958628D01*
X101659523Y-126434819D02*
X101088095Y-126434819D01*
X101373809Y-126434819D02*
X101373809Y-125434819D01*
X101373809Y-125434819D02*
X101278571Y-125577676D01*
X101278571Y-125577676D02*
X101183333Y-125672914D01*
X101183333Y-125672914D02*
X101088095Y-125720533D01*
X102611904Y-126434819D02*
X102040476Y-126434819D01*
X102326190Y-126434819D02*
X102326190Y-125434819D01*
X102326190Y-125434819D02*
X102230952Y-125577676D01*
X102230952Y-125577676D02*
X102135714Y-125672914D01*
X102135714Y-125672914D02*
X102040476Y-125720533D01*
X85521761Y-125710057D02*
X85426523Y-125662438D01*
X85426523Y-125662438D02*
X85331285Y-125567200D01*
X85331285Y-125567200D02*
X85188428Y-125424342D01*
X85188428Y-125424342D02*
X85093190Y-125376723D01*
X85093190Y-125376723D02*
X84997952Y-125376723D01*
X85045571Y-125614819D02*
X84950333Y-125567200D01*
X84950333Y-125567200D02*
X84855095Y-125471961D01*
X84855095Y-125471961D02*
X84807476Y-125281485D01*
X84807476Y-125281485D02*
X84807476Y-124948152D01*
X84807476Y-124948152D02*
X84855095Y-124757676D01*
X84855095Y-124757676D02*
X84950333Y-124662438D01*
X84950333Y-124662438D02*
X85045571Y-124614819D01*
X85045571Y-124614819D02*
X85236047Y-124614819D01*
X85236047Y-124614819D02*
X85331285Y-124662438D01*
X85331285Y-124662438D02*
X85426523Y-124757676D01*
X85426523Y-124757676D02*
X85474142Y-124948152D01*
X85474142Y-124948152D02*
X85474142Y-125281485D01*
X85474142Y-125281485D02*
X85426523Y-125471961D01*
X85426523Y-125471961D02*
X85331285Y-125567200D01*
X85331285Y-125567200D02*
X85236047Y-125614819D01*
X85236047Y-125614819D02*
X85045571Y-125614819D01*
X86331285Y-124948152D02*
X86331285Y-125614819D01*
X86093190Y-124567200D02*
X85855095Y-125281485D01*
X85855095Y-125281485D02*
X86474142Y-125281485D01*
X103760057Y-124745238D02*
X103712438Y-124840476D01*
X103712438Y-124840476D02*
X103617200Y-124935714D01*
X103617200Y-124935714D02*
X103474342Y-125078571D01*
X103474342Y-125078571D02*
X103426723Y-125173809D01*
X103426723Y-125173809D02*
X103426723Y-125269047D01*
X103664819Y-125221428D02*
X103617200Y-125316666D01*
X103617200Y-125316666D02*
X103521961Y-125411904D01*
X103521961Y-125411904D02*
X103331485Y-125459523D01*
X103331485Y-125459523D02*
X102998152Y-125459523D01*
X102998152Y-125459523D02*
X102807676Y-125411904D01*
X102807676Y-125411904D02*
X102712438Y-125316666D01*
X102712438Y-125316666D02*
X102664819Y-125221428D01*
X102664819Y-125221428D02*
X102664819Y-125030952D01*
X102664819Y-125030952D02*
X102712438Y-124935714D01*
X102712438Y-124935714D02*
X102807676Y-124840476D01*
X102807676Y-124840476D02*
X102998152Y-124792857D01*
X102998152Y-124792857D02*
X103331485Y-124792857D01*
X103331485Y-124792857D02*
X103521961Y-124840476D01*
X103521961Y-124840476D02*
X103617200Y-124935714D01*
X103617200Y-124935714D02*
X103664819Y-125030952D01*
X103664819Y-125030952D02*
X103664819Y-125221428D01*
X102664819Y-124459523D02*
X102664819Y-123840476D01*
X102664819Y-123840476D02*
X103045771Y-124173809D01*
X103045771Y-124173809D02*
X103045771Y-124030952D01*
X103045771Y-124030952D02*
X103093390Y-123935714D01*
X103093390Y-123935714D02*
X103141009Y-123888095D01*
X103141009Y-123888095D02*
X103236247Y-123840476D01*
X103236247Y-123840476D02*
X103474342Y-123840476D01*
X103474342Y-123840476D02*
X103569580Y-123888095D01*
X103569580Y-123888095D02*
X103617200Y-123935714D01*
X103617200Y-123935714D02*
X103664819Y-124030952D01*
X103664819Y-124030952D02*
X103664819Y-124316666D01*
X103664819Y-124316666D02*
X103617200Y-124411904D01*
X103617200Y-124411904D02*
X103569580Y-124459523D01*
X79767133Y-119890780D02*
X79719514Y-119938400D01*
X79719514Y-119938400D02*
X79576657Y-119986019D01*
X79576657Y-119986019D02*
X79481419Y-119986019D01*
X79481419Y-119986019D02*
X79338562Y-119938400D01*
X79338562Y-119938400D02*
X79243324Y-119843161D01*
X79243324Y-119843161D02*
X79195705Y-119747923D01*
X79195705Y-119747923D02*
X79148086Y-119557447D01*
X79148086Y-119557447D02*
X79148086Y-119414590D01*
X79148086Y-119414590D02*
X79195705Y-119224114D01*
X79195705Y-119224114D02*
X79243324Y-119128876D01*
X79243324Y-119128876D02*
X79338562Y-119033638D01*
X79338562Y-119033638D02*
X79481419Y-118986019D01*
X79481419Y-118986019D02*
X79576657Y-118986019D01*
X79576657Y-118986019D02*
X79719514Y-119033638D01*
X79719514Y-119033638D02*
X79767133Y-119081257D01*
X80624276Y-119319352D02*
X80624276Y-119986019D01*
X80386181Y-118938400D02*
X80148086Y-119652685D01*
X80148086Y-119652685D02*
X80767133Y-119652685D01*
X105384819Y-122896666D02*
X104908628Y-123229999D01*
X105384819Y-123468094D02*
X104384819Y-123468094D01*
X104384819Y-123468094D02*
X104384819Y-123087142D01*
X104384819Y-123087142D02*
X104432438Y-122991904D01*
X104432438Y-122991904D02*
X104480057Y-122944285D01*
X104480057Y-122944285D02*
X104575295Y-122896666D01*
X104575295Y-122896666D02*
X104718152Y-122896666D01*
X104718152Y-122896666D02*
X104813390Y-122944285D01*
X104813390Y-122944285D02*
X104861009Y-122991904D01*
X104861009Y-122991904D02*
X104908628Y-123087142D01*
X104908628Y-123087142D02*
X104908628Y-123468094D01*
X105384819Y-122420475D02*
X105384819Y-122229999D01*
X105384819Y-122229999D02*
X105337200Y-122134761D01*
X105337200Y-122134761D02*
X105289580Y-122087142D01*
X105289580Y-122087142D02*
X105146723Y-121991904D01*
X105146723Y-121991904D02*
X104956247Y-121944285D01*
X104956247Y-121944285D02*
X104575295Y-121944285D01*
X104575295Y-121944285D02*
X104480057Y-121991904D01*
X104480057Y-121991904D02*
X104432438Y-122039523D01*
X104432438Y-122039523D02*
X104384819Y-122134761D01*
X104384819Y-122134761D02*
X104384819Y-122325237D01*
X104384819Y-122325237D02*
X104432438Y-122420475D01*
X104432438Y-122420475D02*
X104480057Y-122468094D01*
X104480057Y-122468094D02*
X104575295Y-122515713D01*
X104575295Y-122515713D02*
X104813390Y-122515713D01*
X104813390Y-122515713D02*
X104908628Y-122468094D01*
X104908628Y-122468094D02*
X104956247Y-122420475D01*
X104956247Y-122420475D02*
X105003866Y-122325237D01*
X105003866Y-122325237D02*
X105003866Y-122134761D01*
X105003866Y-122134761D02*
X104956247Y-122039523D01*
X104956247Y-122039523D02*
X104908628Y-121991904D01*
X104908628Y-121991904D02*
X104813390Y-121944285D01*
X112815033Y-142548780D02*
X112767414Y-142596400D01*
X112767414Y-142596400D02*
X112624557Y-142644019D01*
X112624557Y-142644019D02*
X112529319Y-142644019D01*
X112529319Y-142644019D02*
X112386462Y-142596400D01*
X112386462Y-142596400D02*
X112291224Y-142501161D01*
X112291224Y-142501161D02*
X112243605Y-142405923D01*
X112243605Y-142405923D02*
X112195986Y-142215447D01*
X112195986Y-142215447D02*
X112195986Y-142072590D01*
X112195986Y-142072590D02*
X112243605Y-141882114D01*
X112243605Y-141882114D02*
X112291224Y-141786876D01*
X112291224Y-141786876D02*
X112386462Y-141691638D01*
X112386462Y-141691638D02*
X112529319Y-141644019D01*
X112529319Y-141644019D02*
X112624557Y-141644019D01*
X112624557Y-141644019D02*
X112767414Y-141691638D01*
X112767414Y-141691638D02*
X112815033Y-141739257D01*
X113386462Y-142072590D02*
X113291224Y-142024971D01*
X113291224Y-142024971D02*
X113243605Y-141977352D01*
X113243605Y-141977352D02*
X113195986Y-141882114D01*
X113195986Y-141882114D02*
X113195986Y-141834495D01*
X113195986Y-141834495D02*
X113243605Y-141739257D01*
X113243605Y-141739257D02*
X113291224Y-141691638D01*
X113291224Y-141691638D02*
X113386462Y-141644019D01*
X113386462Y-141644019D02*
X113576938Y-141644019D01*
X113576938Y-141644019D02*
X113672176Y-141691638D01*
X113672176Y-141691638D02*
X113719795Y-141739257D01*
X113719795Y-141739257D02*
X113767414Y-141834495D01*
X113767414Y-141834495D02*
X113767414Y-141882114D01*
X113767414Y-141882114D02*
X113719795Y-141977352D01*
X113719795Y-141977352D02*
X113672176Y-142024971D01*
X113672176Y-142024971D02*
X113576938Y-142072590D01*
X113576938Y-142072590D02*
X113386462Y-142072590D01*
X113386462Y-142072590D02*
X113291224Y-142120209D01*
X113291224Y-142120209D02*
X113243605Y-142167828D01*
X113243605Y-142167828D02*
X113195986Y-142263066D01*
X113195986Y-142263066D02*
X113195986Y-142453542D01*
X113195986Y-142453542D02*
X113243605Y-142548780D01*
X113243605Y-142548780D02*
X113291224Y-142596400D01*
X113291224Y-142596400D02*
X113386462Y-142644019D01*
X113386462Y-142644019D02*
X113576938Y-142644019D01*
X113576938Y-142644019D02*
X113672176Y-142596400D01*
X113672176Y-142596400D02*
X113719795Y-142548780D01*
X113719795Y-142548780D02*
X113767414Y-142453542D01*
X113767414Y-142453542D02*
X113767414Y-142263066D01*
X113767414Y-142263066D02*
X113719795Y-142167828D01*
X113719795Y-142167828D02*
X113672176Y-142120209D01*
X113672176Y-142120209D02*
X113576938Y-142072590D01*
X61555333Y-120628580D02*
X61507714Y-120676200D01*
X61507714Y-120676200D02*
X61364857Y-120723819D01*
X61364857Y-120723819D02*
X61269619Y-120723819D01*
X61269619Y-120723819D02*
X61126762Y-120676200D01*
X61126762Y-120676200D02*
X61031524Y-120580961D01*
X61031524Y-120580961D02*
X60983905Y-120485723D01*
X60983905Y-120485723D02*
X60936286Y-120295247D01*
X60936286Y-120295247D02*
X60936286Y-120152390D01*
X60936286Y-120152390D02*
X60983905Y-119961914D01*
X60983905Y-119961914D02*
X61031524Y-119866676D01*
X61031524Y-119866676D02*
X61126762Y-119771438D01*
X61126762Y-119771438D02*
X61269619Y-119723819D01*
X61269619Y-119723819D02*
X61364857Y-119723819D01*
X61364857Y-119723819D02*
X61507714Y-119771438D01*
X61507714Y-119771438D02*
X61555333Y-119819057D01*
X62031524Y-120723819D02*
X62222000Y-120723819D01*
X62222000Y-120723819D02*
X62317238Y-120676200D01*
X62317238Y-120676200D02*
X62364857Y-120628580D01*
X62364857Y-120628580D02*
X62460095Y-120485723D01*
X62460095Y-120485723D02*
X62507714Y-120295247D01*
X62507714Y-120295247D02*
X62507714Y-119914295D01*
X62507714Y-119914295D02*
X62460095Y-119819057D01*
X62460095Y-119819057D02*
X62412476Y-119771438D01*
X62412476Y-119771438D02*
X62317238Y-119723819D01*
X62317238Y-119723819D02*
X62126762Y-119723819D01*
X62126762Y-119723819D02*
X62031524Y-119771438D01*
X62031524Y-119771438D02*
X61983905Y-119819057D01*
X61983905Y-119819057D02*
X61936286Y-119914295D01*
X61936286Y-119914295D02*
X61936286Y-120152390D01*
X61936286Y-120152390D02*
X61983905Y-120247628D01*
X61983905Y-120247628D02*
X62031524Y-120295247D01*
X62031524Y-120295247D02*
X62126762Y-120342866D01*
X62126762Y-120342866D02*
X62317238Y-120342866D01*
X62317238Y-120342866D02*
X62412476Y-120295247D01*
X62412476Y-120295247D02*
X62460095Y-120247628D01*
X62460095Y-120247628D02*
X62507714Y-120152390D01*
X66526580Y-129293857D02*
X66574200Y-129341476D01*
X66574200Y-129341476D02*
X66621819Y-129484333D01*
X66621819Y-129484333D02*
X66621819Y-129579571D01*
X66621819Y-129579571D02*
X66574200Y-129722428D01*
X66574200Y-129722428D02*
X66478961Y-129817666D01*
X66478961Y-129817666D02*
X66383723Y-129865285D01*
X66383723Y-129865285D02*
X66193247Y-129912904D01*
X66193247Y-129912904D02*
X66050390Y-129912904D01*
X66050390Y-129912904D02*
X65859914Y-129865285D01*
X65859914Y-129865285D02*
X65764676Y-129817666D01*
X65764676Y-129817666D02*
X65669438Y-129722428D01*
X65669438Y-129722428D02*
X65621819Y-129579571D01*
X65621819Y-129579571D02*
X65621819Y-129484333D01*
X65621819Y-129484333D02*
X65669438Y-129341476D01*
X65669438Y-129341476D02*
X65717057Y-129293857D01*
X66621819Y-128341476D02*
X66621819Y-128912904D01*
X66621819Y-128627190D02*
X65621819Y-128627190D01*
X65621819Y-128627190D02*
X65764676Y-128722428D01*
X65764676Y-128722428D02*
X65859914Y-128817666D01*
X65859914Y-128817666D02*
X65907533Y-128912904D01*
X65621819Y-127722428D02*
X65621819Y-127627190D01*
X65621819Y-127627190D02*
X65669438Y-127531952D01*
X65669438Y-127531952D02*
X65717057Y-127484333D01*
X65717057Y-127484333D02*
X65812295Y-127436714D01*
X65812295Y-127436714D02*
X66002771Y-127389095D01*
X66002771Y-127389095D02*
X66240866Y-127389095D01*
X66240866Y-127389095D02*
X66431342Y-127436714D01*
X66431342Y-127436714D02*
X66526580Y-127484333D01*
X66526580Y-127484333D02*
X66574200Y-127531952D01*
X66574200Y-127531952D02*
X66621819Y-127627190D01*
X66621819Y-127627190D02*
X66621819Y-127722428D01*
X66621819Y-127722428D02*
X66574200Y-127817666D01*
X66574200Y-127817666D02*
X66526580Y-127865285D01*
X66526580Y-127865285D02*
X66431342Y-127912904D01*
X66431342Y-127912904D02*
X66240866Y-127960523D01*
X66240866Y-127960523D02*
X66002771Y-127960523D01*
X66002771Y-127960523D02*
X65812295Y-127912904D01*
X65812295Y-127912904D02*
X65717057Y-127865285D01*
X65717057Y-127865285D02*
X65669438Y-127817666D01*
X65669438Y-127817666D02*
X65621819Y-127722428D01*
X59229666Y-108928819D02*
X59229666Y-109643104D01*
X59229666Y-109643104D02*
X59182047Y-109785961D01*
X59182047Y-109785961D02*
X59086809Y-109881200D01*
X59086809Y-109881200D02*
X58943952Y-109928819D01*
X58943952Y-109928819D02*
X58848714Y-109928819D01*
X60134428Y-109262152D02*
X60134428Y-109928819D01*
X59896333Y-108881200D02*
X59658238Y-109595485D01*
X59658238Y-109595485D02*
X60277285Y-109595485D01*
X59495333Y-117834580D02*
X59447714Y-117882200D01*
X59447714Y-117882200D02*
X59304857Y-117929819D01*
X59304857Y-117929819D02*
X59209619Y-117929819D01*
X59209619Y-117929819D02*
X59066762Y-117882200D01*
X59066762Y-117882200D02*
X58971524Y-117786961D01*
X58971524Y-117786961D02*
X58923905Y-117691723D01*
X58923905Y-117691723D02*
X58876286Y-117501247D01*
X58876286Y-117501247D02*
X58876286Y-117358390D01*
X58876286Y-117358390D02*
X58923905Y-117167914D01*
X58923905Y-117167914D02*
X58971524Y-117072676D01*
X58971524Y-117072676D02*
X59066762Y-116977438D01*
X59066762Y-116977438D02*
X59209619Y-116929819D01*
X59209619Y-116929819D02*
X59304857Y-116929819D01*
X59304857Y-116929819D02*
X59447714Y-116977438D01*
X59447714Y-116977438D02*
X59495333Y-117025057D01*
X59876286Y-117025057D02*
X59923905Y-116977438D01*
X59923905Y-116977438D02*
X60019143Y-116929819D01*
X60019143Y-116929819D02*
X60257238Y-116929819D01*
X60257238Y-116929819D02*
X60352476Y-116977438D01*
X60352476Y-116977438D02*
X60400095Y-117025057D01*
X60400095Y-117025057D02*
X60447714Y-117120295D01*
X60447714Y-117120295D02*
X60447714Y-117215533D01*
X60447714Y-117215533D02*
X60400095Y-117358390D01*
X60400095Y-117358390D02*
X59828667Y-117929819D01*
X59828667Y-117929819D02*
X60447714Y-117929819D01*
X73730333Y-111232819D02*
X73397000Y-110756628D01*
X73158905Y-111232819D02*
X73158905Y-110232819D01*
X73158905Y-110232819D02*
X73539857Y-110232819D01*
X73539857Y-110232819D02*
X73635095Y-110280438D01*
X73635095Y-110280438D02*
X73682714Y-110328057D01*
X73682714Y-110328057D02*
X73730333Y-110423295D01*
X73730333Y-110423295D02*
X73730333Y-110566152D01*
X73730333Y-110566152D02*
X73682714Y-110661390D01*
X73682714Y-110661390D02*
X73635095Y-110709009D01*
X73635095Y-110709009D02*
X73539857Y-110756628D01*
X73539857Y-110756628D02*
X73158905Y-110756628D01*
X74063667Y-110232819D02*
X74730333Y-110232819D01*
X74730333Y-110232819D02*
X74301762Y-111232819D01*
X73730333Y-108692819D02*
X73397000Y-108216628D01*
X73158905Y-108692819D02*
X73158905Y-107692819D01*
X73158905Y-107692819D02*
X73539857Y-107692819D01*
X73539857Y-107692819D02*
X73635095Y-107740438D01*
X73635095Y-107740438D02*
X73682714Y-107788057D01*
X73682714Y-107788057D02*
X73730333Y-107883295D01*
X73730333Y-107883295D02*
X73730333Y-108026152D01*
X73730333Y-108026152D02*
X73682714Y-108121390D01*
X73682714Y-108121390D02*
X73635095Y-108169009D01*
X73635095Y-108169009D02*
X73539857Y-108216628D01*
X73539857Y-108216628D02*
X73158905Y-108216628D01*
X74301762Y-108121390D02*
X74206524Y-108073771D01*
X74206524Y-108073771D02*
X74158905Y-108026152D01*
X74158905Y-108026152D02*
X74111286Y-107930914D01*
X74111286Y-107930914D02*
X74111286Y-107883295D01*
X74111286Y-107883295D02*
X74158905Y-107788057D01*
X74158905Y-107788057D02*
X74206524Y-107740438D01*
X74206524Y-107740438D02*
X74301762Y-107692819D01*
X74301762Y-107692819D02*
X74492238Y-107692819D01*
X74492238Y-107692819D02*
X74587476Y-107740438D01*
X74587476Y-107740438D02*
X74635095Y-107788057D01*
X74635095Y-107788057D02*
X74682714Y-107883295D01*
X74682714Y-107883295D02*
X74682714Y-107930914D01*
X74682714Y-107930914D02*
X74635095Y-108026152D01*
X74635095Y-108026152D02*
X74587476Y-108073771D01*
X74587476Y-108073771D02*
X74492238Y-108121390D01*
X74492238Y-108121390D02*
X74301762Y-108121390D01*
X74301762Y-108121390D02*
X74206524Y-108169009D01*
X74206524Y-108169009D02*
X74158905Y-108216628D01*
X74158905Y-108216628D02*
X74111286Y-108311866D01*
X74111286Y-108311866D02*
X74111286Y-108502342D01*
X74111286Y-108502342D02*
X74158905Y-108597580D01*
X74158905Y-108597580D02*
X74206524Y-108645200D01*
X74206524Y-108645200D02*
X74301762Y-108692819D01*
X74301762Y-108692819D02*
X74492238Y-108692819D01*
X74492238Y-108692819D02*
X74587476Y-108645200D01*
X74587476Y-108645200D02*
X74635095Y-108597580D01*
X74635095Y-108597580D02*
X74682714Y-108502342D01*
X74682714Y-108502342D02*
X74682714Y-108311866D01*
X74682714Y-108311866D02*
X74635095Y-108216628D01*
X74635095Y-108216628D02*
X74587476Y-108169009D01*
X74587476Y-108169009D02*
X74492238Y-108121390D01*
X68326095Y-123406819D02*
X68326095Y-124216342D01*
X68326095Y-124216342D02*
X68373714Y-124311580D01*
X68373714Y-124311580D02*
X68421333Y-124359200D01*
X68421333Y-124359200D02*
X68516571Y-124406819D01*
X68516571Y-124406819D02*
X68707047Y-124406819D01*
X68707047Y-124406819D02*
X68802285Y-124359200D01*
X68802285Y-124359200D02*
X68849904Y-124311580D01*
X68849904Y-124311580D02*
X68897523Y-124216342D01*
X68897523Y-124216342D02*
X68897523Y-123406819D01*
X69278476Y-123406819D02*
X69897523Y-123406819D01*
X69897523Y-123406819D02*
X69564190Y-123787771D01*
X69564190Y-123787771D02*
X69707047Y-123787771D01*
X69707047Y-123787771D02*
X69802285Y-123835390D01*
X69802285Y-123835390D02*
X69849904Y-123883009D01*
X69849904Y-123883009D02*
X69897523Y-123978247D01*
X69897523Y-123978247D02*
X69897523Y-124216342D01*
X69897523Y-124216342D02*
X69849904Y-124311580D01*
X69849904Y-124311580D02*
X69802285Y-124359200D01*
X69802285Y-124359200D02*
X69707047Y-124406819D01*
X69707047Y-124406819D02*
X69421333Y-124406819D01*
X69421333Y-124406819D02*
X69326095Y-124359200D01*
X69326095Y-124359200D02*
X69278476Y-124311580D01*
X62515809Y-128629628D02*
X62515809Y-129105819D01*
X62182476Y-128105819D02*
X62515809Y-128629628D01*
X62515809Y-128629628D02*
X62849142Y-128105819D01*
X63706285Y-129105819D02*
X63134857Y-129105819D01*
X63420571Y-129105819D02*
X63420571Y-128105819D01*
X63420571Y-128105819D02*
X63325333Y-128248676D01*
X63325333Y-128248676D02*
X63230095Y-128343914D01*
X63230095Y-128343914D02*
X63134857Y-128391533D01*
X59650333Y-123803580D02*
X59602714Y-123851200D01*
X59602714Y-123851200D02*
X59459857Y-123898819D01*
X59459857Y-123898819D02*
X59364619Y-123898819D01*
X59364619Y-123898819D02*
X59221762Y-123851200D01*
X59221762Y-123851200D02*
X59126524Y-123755961D01*
X59126524Y-123755961D02*
X59078905Y-123660723D01*
X59078905Y-123660723D02*
X59031286Y-123470247D01*
X59031286Y-123470247D02*
X59031286Y-123327390D01*
X59031286Y-123327390D02*
X59078905Y-123136914D01*
X59078905Y-123136914D02*
X59126524Y-123041676D01*
X59126524Y-123041676D02*
X59221762Y-122946438D01*
X59221762Y-122946438D02*
X59364619Y-122898819D01*
X59364619Y-122898819D02*
X59459857Y-122898819D01*
X59459857Y-122898819D02*
X59602714Y-122946438D01*
X59602714Y-122946438D02*
X59650333Y-122994057D01*
X60602714Y-123898819D02*
X60031286Y-123898819D01*
X60317000Y-123898819D02*
X60317000Y-122898819D01*
X60317000Y-122898819D02*
X60221762Y-123041676D01*
X60221762Y-123041676D02*
X60126524Y-123136914D01*
X60126524Y-123136914D02*
X60031286Y-123184533D01*
X85830580Y-116949457D02*
X85878200Y-116997076D01*
X85878200Y-116997076D02*
X85925819Y-117139933D01*
X85925819Y-117139933D02*
X85925819Y-117235171D01*
X85925819Y-117235171D02*
X85878200Y-117378028D01*
X85878200Y-117378028D02*
X85782961Y-117473266D01*
X85782961Y-117473266D02*
X85687723Y-117520885D01*
X85687723Y-117520885D02*
X85497247Y-117568504D01*
X85497247Y-117568504D02*
X85354390Y-117568504D01*
X85354390Y-117568504D02*
X85163914Y-117520885D01*
X85163914Y-117520885D02*
X85068676Y-117473266D01*
X85068676Y-117473266D02*
X84973438Y-117378028D01*
X84973438Y-117378028D02*
X84925819Y-117235171D01*
X84925819Y-117235171D02*
X84925819Y-117139933D01*
X84925819Y-117139933D02*
X84973438Y-116997076D01*
X84973438Y-116997076D02*
X85021057Y-116949457D01*
X85925819Y-115997076D02*
X85925819Y-116568504D01*
X85925819Y-116282790D02*
X84925819Y-116282790D01*
X84925819Y-116282790D02*
X85068676Y-116378028D01*
X85068676Y-116378028D02*
X85163914Y-116473266D01*
X85163914Y-116473266D02*
X85211533Y-116568504D01*
X85925819Y-115044695D02*
X85925819Y-115616123D01*
X85925819Y-115330409D02*
X84925819Y-115330409D01*
X84925819Y-115330409D02*
X85068676Y-115425647D01*
X85068676Y-115425647D02*
X85163914Y-115520885D01*
X85163914Y-115520885D02*
X85211533Y-115616123D01*
D10*
X106993200Y-156105406D02*
X106993200Y-149355406D01*
X106993200Y-156105406D02*
X88993200Y-156105406D01*
X106993200Y-131355406D02*
X106993200Y-130605406D01*
X106993200Y-130605406D02*
X106243200Y-130605406D01*
X106243200Y-130605406D02*
X104493200Y-130605406D01*
X89743200Y-130605406D02*
X91493200Y-130605406D01*
X88993200Y-156105406D02*
X88993200Y-149355406D01*
X88993200Y-150165406D02*
X106993200Y-150165406D01*
X88993200Y-131355406D02*
X88993200Y-130605406D01*
X88993200Y-130605406D02*
X89743200Y-130605406D01*
X110446064Y-140469000D02*
X109991936Y-140469000D01*
X110446064Y-138999000D02*
X109991936Y-138999000D01*
X76996600Y-155355600D02*
X75666600Y-155355600D01*
X76996600Y-154025600D02*
X76996600Y-155355600D01*
X76996600Y-152755600D02*
X76996600Y-150155600D01*
X76996600Y-152755600D02*
X74396600Y-152755600D01*
X76996600Y-150155600D02*
X71796600Y-150155600D01*
X74396600Y-155355600D02*
X71796600Y-155355600D01*
X74396600Y-152755600D02*
X74396600Y-155355600D01*
X71796600Y-155355600D02*
X71796600Y-150155600D01*
X110015436Y-144019600D02*
X110469564Y-144019600D01*
X110015436Y-145489600D02*
X110469564Y-145489600D01*
X85865000Y-131814564D02*
X85865000Y-131360436D01*
X87335000Y-131814564D02*
X87335000Y-131360436D01*
X110493252Y-148147500D02*
X109970748Y-148147500D01*
X110493252Y-146677500D02*
X109970748Y-146677500D01*
X77638202Y-144894092D02*
X75063202Y-144894092D01*
X77213202Y-141674092D02*
X75063202Y-141674092D01*
X75063202Y-144894092D02*
X75063202Y-143984092D01*
X75063202Y-142584092D02*
X75063202Y-141674092D01*
X77638200Y-148956600D02*
X75063200Y-148956600D01*
X77213200Y-145736600D02*
X75063200Y-145736600D01*
X75063200Y-148956600D02*
X75063200Y-148046600D01*
X75063200Y-146646600D02*
X75063200Y-145736600D01*
X80161636Y-146585000D02*
X80615764Y-146585000D01*
X80161636Y-148055000D02*
X80615764Y-148055000D01*
X80161636Y-142584500D02*
X80615764Y-142584500D01*
X80161636Y-144054500D02*
X80615764Y-144054500D01*
X71935264Y-148107000D02*
X71481136Y-148107000D01*
X71935264Y-146637000D02*
X71481136Y-146637000D01*
X69338564Y-127481000D02*
X68884436Y-127481000D01*
X69338564Y-126011000D02*
X68884436Y-126011000D01*
X75101400Y-117549500D02*
X75101400Y-111539500D01*
X81921400Y-115299500D02*
X81921400Y-111539500D01*
X75101400Y-111539500D02*
X76361400Y-111539500D01*
X81921400Y-111539500D02*
X80661400Y-111539500D01*
D14*
X99100000Y-115600000D02*
X99100000Y-125600000D01*
X89100000Y-115600000D02*
X99100000Y-115600000D01*
X89100000Y-115600000D02*
X89100000Y-125600000D01*
X89100000Y-125600000D02*
X99100000Y-125600000D01*
D15*
X97990324Y-114791648D02*
G75*
G03*
X97910000Y-114810610I-80324J160648D01*
G01*
D10*
X65417864Y-151712600D02*
X64963736Y-151712600D01*
X65417864Y-150242600D02*
X64963736Y-150242600D01*
D11*
X70518000Y-138744500D02*
X77818000Y-138744500D01*
X77818000Y-138744500D02*
X77818000Y-137594500D01*
X70518000Y-137594500D02*
X70518000Y-138744500D01*
X77818000Y-130594500D02*
X77818000Y-129444500D01*
X70518000Y-129444500D02*
X70518000Y-130594500D01*
X77818000Y-129444500D02*
X70518000Y-129444500D01*
D10*
X79368000Y-138294500D02*
G75*
G03*
X79368000Y-138294500I-500000J0D01*
G01*
D14*
X67182500Y-130456500D02*
X67182500Y-146736500D01*
X62332500Y-130456500D02*
X67182500Y-130456500D01*
X58832500Y-130476500D02*
X51432500Y-130476500D01*
X51432500Y-130476500D02*
X51432500Y-146736500D01*
X67182500Y-146736500D02*
X62332500Y-146736500D01*
X51432500Y-146736500D02*
X58832500Y-146736500D01*
D16*
X58372500Y-147176500D02*
X58372500Y-147176500D01*
X58372500Y-147376500D02*
X58372500Y-147376500D01*
X58372500Y-147376500D02*
G75*
G03*
X58372500Y-147176500I0J100000D01*
G01*
X58372500Y-147176500D02*
G75*
G03*
X58372500Y-147376500I0J-100000D01*
G01*
D10*
X71882764Y-143978500D02*
X71428636Y-143978500D01*
X71882764Y-142508500D02*
X71428636Y-142508500D01*
X79910000Y-136217252D02*
X79910000Y-135694748D01*
X81380000Y-136217252D02*
X81380000Y-135694748D01*
X81380000Y-132006748D02*
X81380000Y-132529252D01*
X79910000Y-132006748D02*
X79910000Y-132529252D01*
X102089564Y-128485000D02*
X101635436Y-128485000D01*
X102089564Y-127015000D02*
X101635436Y-127015000D01*
X87100000Y-129310000D02*
X84525000Y-129310000D01*
X86675000Y-126090000D02*
X84525000Y-126090000D01*
X84525000Y-129310000D02*
X84525000Y-128400000D01*
X84525000Y-127000000D02*
X84525000Y-126090000D01*
X107310000Y-125200000D02*
X107310000Y-127775000D01*
X104090000Y-125625000D02*
X104090000Y-127775000D01*
X107310000Y-127775000D02*
X106400000Y-127775000D01*
X105000000Y-127775000D02*
X104090000Y-127775000D01*
X75523800Y-120371200D02*
X75523800Y-124891200D01*
X75523800Y-124891200D02*
X83583800Y-124891200D01*
X83583800Y-120371200D02*
X75523800Y-120371200D01*
X107435000Y-122460436D02*
X107435000Y-122914564D01*
X105965000Y-122460436D02*
X105965000Y-122914564D01*
X109989948Y-141454200D02*
X110512452Y-141454200D01*
X109989948Y-142924200D02*
X110512452Y-142924200D01*
X63253252Y-122655000D02*
X62730748Y-122655000D01*
X63253252Y-121185000D02*
X62730748Y-121185000D01*
X66902000Y-125148748D02*
X66902000Y-125671252D01*
X65432000Y-125148748D02*
X65432000Y-125671252D01*
X64576000Y-115630000D02*
X63246000Y-115630000D01*
X64576000Y-114300000D02*
X64576000Y-115630000D01*
X64576000Y-113030000D02*
X64576000Y-110430000D01*
X64576000Y-113030000D02*
X61976000Y-113030000D01*
X64576000Y-110430000D02*
X59376000Y-110430000D01*
X61976000Y-115630000D02*
X59376000Y-115630000D01*
X61976000Y-113030000D02*
X61976000Y-115630000D01*
X59376000Y-115630000D02*
X59376000Y-110430000D01*
X62811252Y-118210000D02*
X62288748Y-118210000D01*
X62811252Y-116740000D02*
X62288748Y-116740000D01*
X65514500Y-107706000D02*
X65514500Y-109626000D01*
X65514500Y-109626000D02*
X68199500Y-109626000D01*
X68199500Y-107706000D02*
X65514500Y-107706000D01*
X71276564Y-111827000D02*
X70822436Y-111827000D01*
X71276564Y-110357000D02*
X70822436Y-110357000D01*
X71276564Y-109401000D02*
X70822436Y-109401000D01*
X71276564Y-107931000D02*
X70822436Y-107931000D01*
X69013400Y-112799600D02*
X65563400Y-112799600D01*
X69013400Y-112799600D02*
X70963400Y-112799600D01*
X69013400Y-122919600D02*
X67063400Y-122919600D01*
X69013400Y-122919600D02*
X70963400Y-122919600D01*
X64642000Y-123603000D02*
X61342000Y-123603000D01*
X61342000Y-123603000D02*
X61342000Y-127603000D01*
X89643000Y-110032800D02*
G75*
G03*
X89643000Y-110032800I-1251000J0D01*
G01*
X65514500Y-110132000D02*
X65514500Y-112052000D01*
X65514500Y-112052000D02*
X68199500Y-112052000D01*
X68199500Y-110132000D02*
X65514500Y-110132000D01*
X59082000Y-126179252D02*
X59082000Y-125656748D01*
X60552000Y-126179252D02*
X60552000Y-125656748D01*
X83085000Y-116466252D02*
X83085000Y-115943748D01*
X84555000Y-116466252D02*
X84555000Y-115943748D01*
%LPC*%
D17*
X106743200Y-148615406D03*
X106743200Y-147345406D03*
X106743200Y-146075406D03*
X106743200Y-144805406D03*
X106743200Y-143535406D03*
X106743200Y-142265406D03*
X106743200Y-140995406D03*
X106743200Y-139725406D03*
X106743200Y-138455406D03*
X106743200Y-137185406D03*
X106743200Y-135915406D03*
X106743200Y-134645406D03*
X106743200Y-133375406D03*
X106743200Y-132105406D03*
D18*
X103713200Y-130855406D03*
X102443200Y-130855406D03*
X101173200Y-130855406D03*
X99903200Y-130855406D03*
X98633200Y-130855406D03*
X97363200Y-130855406D03*
X96093200Y-130855406D03*
X94823200Y-130855406D03*
X93553200Y-130855406D03*
X92283200Y-130855406D03*
D17*
X89243200Y-132105406D03*
X89243200Y-133375406D03*
X89243200Y-134645406D03*
X89243200Y-135915406D03*
X89243200Y-137185406D03*
X89243200Y-138455406D03*
X89243200Y-139725406D03*
X89243200Y-140995406D03*
X89243200Y-142265406D03*
X89243200Y-143535406D03*
X89243200Y-144805406D03*
X89243200Y-146075406D03*
X89243200Y-147345406D03*
X89243200Y-148615406D03*
D19*
X100198200Y-142800406D03*
X100198200Y-141275406D03*
X100198200Y-139750406D03*
X98673200Y-142800406D03*
X98673200Y-141275406D03*
X98673200Y-139750406D03*
X97148200Y-142800406D03*
X97148200Y-141275406D03*
X97148200Y-139750406D03*
D20*
X111131500Y-139734000D03*
X109306500Y-139734000D03*
D21*
X75666600Y-154025600D03*
D22*
X73126600Y-154025600D03*
X75666600Y-151485600D03*
X73126600Y-151485600D03*
D23*
X109330000Y-144754600D03*
X111155000Y-144754600D03*
D24*
X86600000Y-132500000D03*
X86600000Y-130675000D03*
D25*
X55482000Y-109381000D03*
D26*
X56853200Y-119868000D03*
X56853200Y-120518000D03*
X56853200Y-121168000D03*
X56853200Y-121818000D03*
X56853200Y-122468000D03*
D27*
X54178200Y-117568000D03*
D28*
X57078200Y-118743000D03*
X57078200Y-123593000D03*
D27*
X54178200Y-124768000D03*
D29*
X111182000Y-147412500D03*
X109282000Y-147412500D03*
D30*
X77338202Y-144234092D03*
X77338202Y-142334092D03*
X74938202Y-143284092D03*
X77338200Y-148296600D03*
X77338200Y-146396600D03*
X74938200Y-147346600D03*
D23*
X79476200Y-147320000D03*
X81301200Y-147320000D03*
X79476200Y-143319500D03*
X81301200Y-143319500D03*
D20*
X72620700Y-147372000D03*
X70795700Y-147372000D03*
X70024000Y-126746000D03*
X68199000Y-126746000D03*
D31*
X76211400Y-116599500D03*
X78511400Y-116599500D03*
D32*
X78511400Y-110299500D03*
D31*
X80811400Y-116599500D03*
D33*
X96640000Y-115600000D03*
X95370010Y-115600000D03*
X94100000Y-115600000D03*
X92830000Y-115600000D03*
X91560000Y-115600000D03*
D34*
X89100000Y-118060000D03*
D35*
X89100000Y-119329990D03*
X89100000Y-120600000D03*
X89100000Y-121870000D03*
X89100000Y-123140000D03*
D33*
X91560000Y-125600000D03*
X92830000Y-125600000D03*
X94100000Y-125600000D03*
X95370010Y-125600000D03*
X96640000Y-125600000D03*
D34*
X99100000Y-123140000D03*
X99100000Y-121870000D03*
X99100000Y-120600000D03*
X99100000Y-119329990D03*
X99100000Y-118060000D03*
D20*
X66103300Y-150977600D03*
X64278300Y-150977600D03*
D36*
X76708000Y-136634500D03*
X76708000Y-134094500D03*
X76708000Y-131554500D03*
D37*
X70978000Y-131554500D03*
D36*
X71628000Y-134094500D03*
D37*
X70978000Y-136634500D03*
D25*
X113013000Y-109508000D03*
X113013000Y-153704000D03*
X55482000Y-153704000D03*
D38*
X56832500Y-132256500D03*
X56832500Y-144956500D03*
D39*
X59372500Y-142176500D03*
X61152500Y-141156500D03*
X59372500Y-140136500D03*
X61152500Y-139116500D03*
X59372500Y-138096500D03*
X61152500Y-137076500D03*
X59372500Y-136056500D03*
X61152500Y-135036500D03*
X65962500Y-145466500D03*
X65962500Y-143176500D03*
X65962500Y-134036500D03*
X65962500Y-131746500D03*
D40*
X60392500Y-130476500D03*
X60392500Y-146736500D03*
D20*
X72568200Y-143243500D03*
X70743200Y-143243500D03*
D41*
X80645000Y-136906000D03*
X80645000Y-135006000D03*
D42*
X80645000Y-131318000D03*
X80645000Y-133218000D03*
D20*
X102775000Y-127750000D03*
X100950000Y-127750000D03*
D30*
X86800000Y-128650000D03*
X86800000Y-126750000D03*
X84400000Y-127700000D03*
D43*
X106650000Y-125500000D03*
X104750000Y-125500000D03*
X105700000Y-127900000D03*
D44*
X76821300Y-122631200D03*
X83046300Y-122631200D03*
D45*
X106700000Y-121775000D03*
X106700000Y-123600000D03*
D46*
X109301200Y-142189200D03*
X111201200Y-142189200D03*
D47*
X109250000Y-130638011D03*
X109250000Y-136638011D03*
X113000000Y-130638011D03*
X113000000Y-136638011D03*
D29*
X63942000Y-121920000D03*
X62042000Y-121920000D03*
D42*
X66167000Y-124460000D03*
X66167000Y-126360000D03*
D21*
X63246000Y-114300000D03*
D22*
X60706000Y-114300000D03*
X63246000Y-111760000D03*
X60706000Y-111760000D03*
D29*
X63500000Y-117475000D03*
X61600000Y-117475000D03*
D48*
X66262000Y-108666000D03*
X68137000Y-108666000D03*
D20*
X71962000Y-111092000D03*
X70137000Y-111092000D03*
X71962000Y-108666000D03*
X70137000Y-108666000D03*
D49*
X66538400Y-113414600D03*
X66538400Y-114684600D03*
X66538400Y-115954600D03*
X66538400Y-117224600D03*
X66538400Y-118494600D03*
X66538400Y-119764600D03*
X66538400Y-121034600D03*
X66538400Y-122304600D03*
X71488400Y-122304600D03*
X71488400Y-121034600D03*
X71488400Y-119764600D03*
X71488400Y-118494600D03*
X71488400Y-117224600D03*
X71488400Y-115954600D03*
X71488400Y-114684600D03*
X71488400Y-113414600D03*
D50*
X62142000Y-124503000D03*
X62142000Y-126703000D03*
X63842000Y-126703000D03*
X63842000Y-124503000D03*
D51*
X88392000Y-110032800D03*
D48*
X66262000Y-111092000D03*
X68137000Y-111092000D03*
D41*
X59817000Y-126868000D03*
X59817000Y-124968000D03*
D47*
X112991593Y-126444000D03*
X112991593Y-120444000D03*
X109241593Y-126444000D03*
X109241593Y-120444000D03*
D41*
X83820000Y-117155000D03*
X83820000Y-115255000D03*
%LPD*%
M02*
