%TF.GenerationSoftware,KiCad,Pcbnew,7.0.9*%
%TF.CreationDate,2024-01-13T23:59:28+01:00*%
%TF.ProjectId,ithowifi_4l,6974686f-7769-4666-995f-346c2e6b6963,rev?*%
%TF.SameCoordinates,Original*%
%TF.FileFunction,Drillmap*%
%TF.FilePolarity,Positive*%
%FSLAX45Y45*%
G04 Gerber Fmt 4.5, Leading zero omitted, Abs format (unit mm)*
G04 Created by KiCad (PCBNEW 7.0.9) date 2024-01-13 23:59:28*
%MOMM*%
%LPD*%
G01*
G04 APERTURE LIST*
%ADD10C,0.100000*%
%ADD11C,0.200000*%
%ADD12C,0.250000*%
%ADD13C,0.325000*%
G04 APERTURE END LIST*
D10*
X5273200Y-15596800D02*
G75*
G03*
X5323200Y-15646800I50000J0D01*
G01*
X9189925Y-10666800D02*
X5323200Y-10666800D01*
X8886055Y-15646800D02*
X5323200Y-15646800D01*
X11533200Y-15646800D02*
X10716055Y-15646800D01*
X10666060Y-15596800D02*
G75*
G03*
X10716055Y-15646800I50000J0D01*
G01*
X11533200Y-15646800D02*
G75*
G03*
X11583200Y-15596800I0J50000D01*
G01*
X11583200Y-15596800D02*
X11583200Y-10716800D01*
X10666055Y-14996800D02*
X8936055Y-14996800D01*
X5273200Y-15596800D02*
X5273200Y-10716800D01*
X11583200Y-10716800D02*
G75*
G03*
X11533200Y-10666800I-50000J0D01*
G01*
X11533200Y-10666800D02*
X11069326Y-10666800D01*
X11069326Y-10666794D02*
G75*
G03*
X11018520Y-10716800I4J-50816D01*
G01*
X9240519Y-11254740D02*
G75*
G03*
X9331960Y-11343045I86321J-2110D01*
G01*
X11018520Y-11292600D02*
X11018520Y-10716800D01*
X10666055Y-15596800D02*
X10666055Y-14996800D01*
X5323200Y-10666800D02*
G75*
G03*
X5273200Y-10716800I0J-50000D01*
G01*
X8886055Y-15646795D02*
G75*
G03*
X8936055Y-15596800I5J49995D01*
G01*
X10967322Y-11343130D02*
X9331960Y-11343045D01*
X8936055Y-14996800D02*
X8936055Y-15596800D01*
X9240714Y-10716800D02*
G75*
G03*
X9189925Y-10666800I-50794J-800D01*
G01*
X10967322Y-11343134D02*
G75*
G03*
X11018520Y-11292600I-2J51204D01*
G01*
X9240520Y-11254740D02*
X9240715Y-10716800D01*
D11*
D12*
X5423200Y-10813100D02*
X5673200Y-11063100D01*
X5673200Y-10813100D02*
X5423200Y-11063100D01*
X5423200Y-15245400D02*
X5673200Y-15495400D01*
X5673200Y-15245400D02*
X5423200Y-15495400D01*
X11176300Y-10825800D02*
X11426300Y-11075800D01*
X11426300Y-10825800D02*
X11176300Y-11075800D01*
X11176300Y-15245400D02*
X11426300Y-15495400D01*
X11426300Y-15245400D02*
X11176300Y-15495400D01*
D13*
X5845750Y-13225650D02*
G75*
G03*
X5845750Y-13225650I-162500J0D01*
G01*
X5845750Y-14495650D02*
G75*
G03*
X5845750Y-14495650I-162500J0D01*
G01*
D11*
X5528977Y-15963284D02*
X5528977Y-15763284D01*
X5528977Y-15763284D02*
X5576596Y-15763284D01*
X5576596Y-15763284D02*
X5605167Y-15772808D01*
X5605167Y-15772808D02*
X5624215Y-15791855D01*
X5624215Y-15791855D02*
X5633739Y-15810903D01*
X5633739Y-15810903D02*
X5643262Y-15848998D01*
X5643262Y-15848998D02*
X5643262Y-15877569D01*
X5643262Y-15877569D02*
X5633739Y-15915665D01*
X5633739Y-15915665D02*
X5624215Y-15934712D01*
X5624215Y-15934712D02*
X5605167Y-15953760D01*
X5605167Y-15953760D02*
X5576596Y-15963284D01*
X5576596Y-15963284D02*
X5528977Y-15963284D01*
X5728977Y-15963284D02*
X5728977Y-15829950D01*
X5728977Y-15868046D02*
X5738501Y-15848998D01*
X5738501Y-15848998D02*
X5748024Y-15839474D01*
X5748024Y-15839474D02*
X5767072Y-15829950D01*
X5767072Y-15829950D02*
X5786120Y-15829950D01*
X5852786Y-15963284D02*
X5852786Y-15829950D01*
X5852786Y-15763284D02*
X5843262Y-15772808D01*
X5843262Y-15772808D02*
X5852786Y-15782331D01*
X5852786Y-15782331D02*
X5862310Y-15772808D01*
X5862310Y-15772808D02*
X5852786Y-15763284D01*
X5852786Y-15763284D02*
X5852786Y-15782331D01*
X5976596Y-15963284D02*
X5957548Y-15953760D01*
X5957548Y-15953760D02*
X5948024Y-15934712D01*
X5948024Y-15934712D02*
X5948024Y-15763284D01*
X6081358Y-15963284D02*
X6062310Y-15953760D01*
X6062310Y-15953760D02*
X6052786Y-15934712D01*
X6052786Y-15934712D02*
X6052786Y-15763284D01*
X6309929Y-15963284D02*
X6309929Y-15763284D01*
X6309929Y-15763284D02*
X6376596Y-15906141D01*
X6376596Y-15906141D02*
X6443262Y-15763284D01*
X6443262Y-15763284D02*
X6443262Y-15963284D01*
X6624215Y-15963284D02*
X6624215Y-15858522D01*
X6624215Y-15858522D02*
X6614691Y-15839474D01*
X6614691Y-15839474D02*
X6595643Y-15829950D01*
X6595643Y-15829950D02*
X6557548Y-15829950D01*
X6557548Y-15829950D02*
X6538501Y-15839474D01*
X6624215Y-15953760D02*
X6605167Y-15963284D01*
X6605167Y-15963284D02*
X6557548Y-15963284D01*
X6557548Y-15963284D02*
X6538501Y-15953760D01*
X6538501Y-15953760D02*
X6528977Y-15934712D01*
X6528977Y-15934712D02*
X6528977Y-15915665D01*
X6528977Y-15915665D02*
X6538501Y-15896617D01*
X6538501Y-15896617D02*
X6557548Y-15887093D01*
X6557548Y-15887093D02*
X6605167Y-15887093D01*
X6605167Y-15887093D02*
X6624215Y-15877569D01*
X6719453Y-15829950D02*
X6719453Y-16029950D01*
X6719453Y-15839474D02*
X6738501Y-15829950D01*
X6738501Y-15829950D02*
X6776596Y-15829950D01*
X6776596Y-15829950D02*
X6795643Y-15839474D01*
X6795643Y-15839474D02*
X6805167Y-15848998D01*
X6805167Y-15848998D02*
X6814691Y-15868046D01*
X6814691Y-15868046D02*
X6814691Y-15925188D01*
X6814691Y-15925188D02*
X6805167Y-15944236D01*
X6805167Y-15944236D02*
X6795643Y-15953760D01*
X6795643Y-15953760D02*
X6776596Y-15963284D01*
X6776596Y-15963284D02*
X6738501Y-15963284D01*
X6738501Y-15963284D02*
X6719453Y-15953760D01*
X6900405Y-15944236D02*
X6909929Y-15953760D01*
X6909929Y-15953760D02*
X6900405Y-15963284D01*
X6900405Y-15963284D02*
X6890882Y-15953760D01*
X6890882Y-15953760D02*
X6900405Y-15944236D01*
X6900405Y-15944236D02*
X6900405Y-15963284D01*
X6900405Y-15839474D02*
X6909929Y-15848998D01*
X6909929Y-15848998D02*
X6900405Y-15858522D01*
X6900405Y-15858522D02*
X6890882Y-15848998D01*
X6890882Y-15848998D02*
X6900405Y-15839474D01*
X6900405Y-15839474D02*
X6900405Y-15858522D01*
X5068200Y-16191800D02*
X5268200Y-16391800D01*
X5268200Y-16191800D02*
X5068200Y-16391800D01*
X5519453Y-16202331D02*
X5528977Y-16192808D01*
X5528977Y-16192808D02*
X5548024Y-16183284D01*
X5548024Y-16183284D02*
X5595643Y-16183284D01*
X5595643Y-16183284D02*
X5614691Y-16192808D01*
X5614691Y-16192808D02*
X5624215Y-16202331D01*
X5624215Y-16202331D02*
X5633739Y-16221379D01*
X5633739Y-16221379D02*
X5633739Y-16240427D01*
X5633739Y-16240427D02*
X5624215Y-16268998D01*
X5624215Y-16268998D02*
X5509929Y-16383284D01*
X5509929Y-16383284D02*
X5633739Y-16383284D01*
X5719453Y-16364236D02*
X5728977Y-16373760D01*
X5728977Y-16373760D02*
X5719453Y-16383284D01*
X5719453Y-16383284D02*
X5709929Y-16373760D01*
X5709929Y-16373760D02*
X5719453Y-16364236D01*
X5719453Y-16364236D02*
X5719453Y-16383284D01*
X5909929Y-16183284D02*
X5814691Y-16183284D01*
X5814691Y-16183284D02*
X5805167Y-16278522D01*
X5805167Y-16278522D02*
X5814691Y-16268998D01*
X5814691Y-16268998D02*
X5833739Y-16259474D01*
X5833739Y-16259474D02*
X5881358Y-16259474D01*
X5881358Y-16259474D02*
X5900405Y-16268998D01*
X5900405Y-16268998D02*
X5909929Y-16278522D01*
X5909929Y-16278522D02*
X5919453Y-16297569D01*
X5919453Y-16297569D02*
X5919453Y-16345188D01*
X5919453Y-16345188D02*
X5909929Y-16364236D01*
X5909929Y-16364236D02*
X5900405Y-16373760D01*
X5900405Y-16373760D02*
X5881358Y-16383284D01*
X5881358Y-16383284D02*
X5833739Y-16383284D01*
X5833739Y-16383284D02*
X5814691Y-16373760D01*
X5814691Y-16373760D02*
X5805167Y-16364236D01*
X6043262Y-16183284D02*
X6062310Y-16183284D01*
X6062310Y-16183284D02*
X6081358Y-16192808D01*
X6081358Y-16192808D02*
X6090882Y-16202331D01*
X6090882Y-16202331D02*
X6100405Y-16221379D01*
X6100405Y-16221379D02*
X6109929Y-16259474D01*
X6109929Y-16259474D02*
X6109929Y-16307093D01*
X6109929Y-16307093D02*
X6100405Y-16345188D01*
X6100405Y-16345188D02*
X6090882Y-16364236D01*
X6090882Y-16364236D02*
X6081358Y-16373760D01*
X6081358Y-16373760D02*
X6062310Y-16383284D01*
X6062310Y-16383284D02*
X6043262Y-16383284D01*
X6043262Y-16383284D02*
X6024215Y-16373760D01*
X6024215Y-16373760D02*
X6014691Y-16364236D01*
X6014691Y-16364236D02*
X6005167Y-16345188D01*
X6005167Y-16345188D02*
X5995643Y-16307093D01*
X5995643Y-16307093D02*
X5995643Y-16259474D01*
X5995643Y-16259474D02*
X6005167Y-16221379D01*
X6005167Y-16221379D02*
X6014691Y-16202331D01*
X6014691Y-16202331D02*
X6024215Y-16192808D01*
X6024215Y-16192808D02*
X6043262Y-16183284D01*
X6233739Y-16183284D02*
X6252786Y-16183284D01*
X6252786Y-16183284D02*
X6271834Y-16192808D01*
X6271834Y-16192808D02*
X6281358Y-16202331D01*
X6281358Y-16202331D02*
X6290882Y-16221379D01*
X6290882Y-16221379D02*
X6300405Y-16259474D01*
X6300405Y-16259474D02*
X6300405Y-16307093D01*
X6300405Y-16307093D02*
X6290882Y-16345188D01*
X6290882Y-16345188D02*
X6281358Y-16364236D01*
X6281358Y-16364236D02*
X6271834Y-16373760D01*
X6271834Y-16373760D02*
X6252786Y-16383284D01*
X6252786Y-16383284D02*
X6233739Y-16383284D01*
X6233739Y-16383284D02*
X6214691Y-16373760D01*
X6214691Y-16373760D02*
X6205167Y-16364236D01*
X6205167Y-16364236D02*
X6195643Y-16345188D01*
X6195643Y-16345188D02*
X6186120Y-16307093D01*
X6186120Y-16307093D02*
X6186120Y-16259474D01*
X6186120Y-16259474D02*
X6195643Y-16221379D01*
X6195643Y-16221379D02*
X6205167Y-16202331D01*
X6205167Y-16202331D02*
X6214691Y-16192808D01*
X6214691Y-16192808D02*
X6233739Y-16183284D01*
X6386120Y-16383284D02*
X6386120Y-16249950D01*
X6386120Y-16268998D02*
X6395643Y-16259474D01*
X6395643Y-16259474D02*
X6414691Y-16249950D01*
X6414691Y-16249950D02*
X6443263Y-16249950D01*
X6443263Y-16249950D02*
X6462310Y-16259474D01*
X6462310Y-16259474D02*
X6471834Y-16278522D01*
X6471834Y-16278522D02*
X6471834Y-16383284D01*
X6471834Y-16278522D02*
X6481358Y-16259474D01*
X6481358Y-16259474D02*
X6500405Y-16249950D01*
X6500405Y-16249950D02*
X6528977Y-16249950D01*
X6528977Y-16249950D02*
X6548024Y-16259474D01*
X6548024Y-16259474D02*
X6557548Y-16278522D01*
X6557548Y-16278522D02*
X6557548Y-16383284D01*
X6652786Y-16383284D02*
X6652786Y-16249950D01*
X6652786Y-16268998D02*
X6662310Y-16259474D01*
X6662310Y-16259474D02*
X6681358Y-16249950D01*
X6681358Y-16249950D02*
X6709929Y-16249950D01*
X6709929Y-16249950D02*
X6728977Y-16259474D01*
X6728977Y-16259474D02*
X6738501Y-16278522D01*
X6738501Y-16278522D02*
X6738501Y-16383284D01*
X6738501Y-16278522D02*
X6748024Y-16259474D01*
X6748024Y-16259474D02*
X6767072Y-16249950D01*
X6767072Y-16249950D02*
X6795643Y-16249950D01*
X6795643Y-16249950D02*
X6814691Y-16259474D01*
X6814691Y-16259474D02*
X6824215Y-16278522D01*
X6824215Y-16278522D02*
X6824215Y-16383284D01*
X7214691Y-16173760D02*
X7043263Y-16430903D01*
X7471834Y-16183284D02*
X7490882Y-16183284D01*
X7490882Y-16183284D02*
X7509929Y-16192808D01*
X7509929Y-16192808D02*
X7519453Y-16202331D01*
X7519453Y-16202331D02*
X7528977Y-16221379D01*
X7528977Y-16221379D02*
X7538501Y-16259474D01*
X7538501Y-16259474D02*
X7538501Y-16307093D01*
X7538501Y-16307093D02*
X7528977Y-16345188D01*
X7528977Y-16345188D02*
X7519453Y-16364236D01*
X7519453Y-16364236D02*
X7509929Y-16373760D01*
X7509929Y-16373760D02*
X7490882Y-16383284D01*
X7490882Y-16383284D02*
X7471834Y-16383284D01*
X7471834Y-16383284D02*
X7452786Y-16373760D01*
X7452786Y-16373760D02*
X7443263Y-16364236D01*
X7443263Y-16364236D02*
X7433739Y-16345188D01*
X7433739Y-16345188D02*
X7424215Y-16307093D01*
X7424215Y-16307093D02*
X7424215Y-16259474D01*
X7424215Y-16259474D02*
X7433739Y-16221379D01*
X7433739Y-16221379D02*
X7443263Y-16202331D01*
X7443263Y-16202331D02*
X7452786Y-16192808D01*
X7452786Y-16192808D02*
X7471834Y-16183284D01*
X7624215Y-16364236D02*
X7633739Y-16373760D01*
X7633739Y-16373760D02*
X7624215Y-16383284D01*
X7624215Y-16383284D02*
X7614691Y-16373760D01*
X7614691Y-16373760D02*
X7624215Y-16364236D01*
X7624215Y-16364236D02*
X7624215Y-16383284D01*
X7757548Y-16183284D02*
X7776596Y-16183284D01*
X7776596Y-16183284D02*
X7795644Y-16192808D01*
X7795644Y-16192808D02*
X7805167Y-16202331D01*
X7805167Y-16202331D02*
X7814691Y-16221379D01*
X7814691Y-16221379D02*
X7824215Y-16259474D01*
X7824215Y-16259474D02*
X7824215Y-16307093D01*
X7824215Y-16307093D02*
X7814691Y-16345188D01*
X7814691Y-16345188D02*
X7805167Y-16364236D01*
X7805167Y-16364236D02*
X7795644Y-16373760D01*
X7795644Y-16373760D02*
X7776596Y-16383284D01*
X7776596Y-16383284D02*
X7757548Y-16383284D01*
X7757548Y-16383284D02*
X7738501Y-16373760D01*
X7738501Y-16373760D02*
X7728977Y-16364236D01*
X7728977Y-16364236D02*
X7719453Y-16345188D01*
X7719453Y-16345188D02*
X7709929Y-16307093D01*
X7709929Y-16307093D02*
X7709929Y-16259474D01*
X7709929Y-16259474D02*
X7719453Y-16221379D01*
X7719453Y-16221379D02*
X7728977Y-16202331D01*
X7728977Y-16202331D02*
X7738501Y-16192808D01*
X7738501Y-16192808D02*
X7757548Y-16183284D01*
X7919453Y-16383284D02*
X7957548Y-16383284D01*
X7957548Y-16383284D02*
X7976596Y-16373760D01*
X7976596Y-16373760D02*
X7986120Y-16364236D01*
X7986120Y-16364236D02*
X8005167Y-16335665D01*
X8005167Y-16335665D02*
X8014691Y-16297569D01*
X8014691Y-16297569D02*
X8014691Y-16221379D01*
X8014691Y-16221379D02*
X8005167Y-16202331D01*
X8005167Y-16202331D02*
X7995644Y-16192808D01*
X7995644Y-16192808D02*
X7976596Y-16183284D01*
X7976596Y-16183284D02*
X7938501Y-16183284D01*
X7938501Y-16183284D02*
X7919453Y-16192808D01*
X7919453Y-16192808D02*
X7909929Y-16202331D01*
X7909929Y-16202331D02*
X7900406Y-16221379D01*
X7900406Y-16221379D02*
X7900406Y-16268998D01*
X7900406Y-16268998D02*
X7909929Y-16288046D01*
X7909929Y-16288046D02*
X7919453Y-16297569D01*
X7919453Y-16297569D02*
X7938501Y-16307093D01*
X7938501Y-16307093D02*
X7976596Y-16307093D01*
X7976596Y-16307093D02*
X7995644Y-16297569D01*
X7995644Y-16297569D02*
X8005167Y-16288046D01*
X8005167Y-16288046D02*
X8014691Y-16268998D01*
X8128977Y-16268998D02*
X8109929Y-16259474D01*
X8109929Y-16259474D02*
X8100406Y-16249950D01*
X8100406Y-16249950D02*
X8090882Y-16230903D01*
X8090882Y-16230903D02*
X8090882Y-16221379D01*
X8090882Y-16221379D02*
X8100406Y-16202331D01*
X8100406Y-16202331D02*
X8109929Y-16192808D01*
X8109929Y-16192808D02*
X8128977Y-16183284D01*
X8128977Y-16183284D02*
X8167072Y-16183284D01*
X8167072Y-16183284D02*
X8186120Y-16192808D01*
X8186120Y-16192808D02*
X8195644Y-16202331D01*
X8195644Y-16202331D02*
X8205167Y-16221379D01*
X8205167Y-16221379D02*
X8205167Y-16230903D01*
X8205167Y-16230903D02*
X8195644Y-16249950D01*
X8195644Y-16249950D02*
X8186120Y-16259474D01*
X8186120Y-16259474D02*
X8167072Y-16268998D01*
X8167072Y-16268998D02*
X8128977Y-16268998D01*
X8128977Y-16268998D02*
X8109929Y-16278522D01*
X8109929Y-16278522D02*
X8100406Y-16288046D01*
X8100406Y-16288046D02*
X8090882Y-16307093D01*
X8090882Y-16307093D02*
X8090882Y-16345188D01*
X8090882Y-16345188D02*
X8100406Y-16364236D01*
X8100406Y-16364236D02*
X8109929Y-16373760D01*
X8109929Y-16373760D02*
X8128977Y-16383284D01*
X8128977Y-16383284D02*
X8167072Y-16383284D01*
X8167072Y-16383284D02*
X8186120Y-16373760D01*
X8186120Y-16373760D02*
X8195644Y-16364236D01*
X8195644Y-16364236D02*
X8205167Y-16345188D01*
X8205167Y-16345188D02*
X8205167Y-16307093D01*
X8205167Y-16307093D02*
X8195644Y-16288046D01*
X8195644Y-16288046D02*
X8186120Y-16278522D01*
X8186120Y-16278522D02*
X8167072Y-16268998D01*
X8376596Y-16249950D02*
X8376596Y-16383284D01*
X8328977Y-16173760D02*
X8281358Y-16316617D01*
X8281358Y-16316617D02*
X8405168Y-16316617D01*
X8471834Y-16183284D02*
X8471834Y-16221379D01*
X8548025Y-16183284D02*
X8548025Y-16221379D01*
X8843263Y-16459474D02*
X8833739Y-16449950D01*
X8833739Y-16449950D02*
X8814691Y-16421379D01*
X8814691Y-16421379D02*
X8805168Y-16402331D01*
X8805168Y-16402331D02*
X8795644Y-16373760D01*
X8795644Y-16373760D02*
X8786120Y-16326141D01*
X8786120Y-16326141D02*
X8786120Y-16288046D01*
X8786120Y-16288046D02*
X8795644Y-16240427D01*
X8795644Y-16240427D02*
X8805168Y-16211855D01*
X8805168Y-16211855D02*
X8814691Y-16192808D01*
X8814691Y-16192808D02*
X8833739Y-16164236D01*
X8833739Y-16164236D02*
X8843263Y-16154712D01*
X9005168Y-16249950D02*
X9005168Y-16383284D01*
X8957549Y-16173760D02*
X8909930Y-16316617D01*
X8909930Y-16316617D02*
X9033739Y-16316617D01*
X9262311Y-16383284D02*
X9262311Y-16183284D01*
X9348025Y-16383284D02*
X9348025Y-16278522D01*
X9348025Y-16278522D02*
X9338501Y-16259474D01*
X9338501Y-16259474D02*
X9319453Y-16249950D01*
X9319453Y-16249950D02*
X9290882Y-16249950D01*
X9290882Y-16249950D02*
X9271834Y-16259474D01*
X9271834Y-16259474D02*
X9262311Y-16268998D01*
X9471834Y-16383284D02*
X9452787Y-16373760D01*
X9452787Y-16373760D02*
X9443263Y-16364236D01*
X9443263Y-16364236D02*
X9433739Y-16345188D01*
X9433739Y-16345188D02*
X9433739Y-16288046D01*
X9433739Y-16288046D02*
X9443263Y-16268998D01*
X9443263Y-16268998D02*
X9452787Y-16259474D01*
X9452787Y-16259474D02*
X9471834Y-16249950D01*
X9471834Y-16249950D02*
X9500406Y-16249950D01*
X9500406Y-16249950D02*
X9519453Y-16259474D01*
X9519453Y-16259474D02*
X9528977Y-16268998D01*
X9528977Y-16268998D02*
X9538501Y-16288046D01*
X9538501Y-16288046D02*
X9538501Y-16345188D01*
X9538501Y-16345188D02*
X9528977Y-16364236D01*
X9528977Y-16364236D02*
X9519453Y-16373760D01*
X9519453Y-16373760D02*
X9500406Y-16383284D01*
X9500406Y-16383284D02*
X9471834Y-16383284D01*
X9652787Y-16383284D02*
X9633739Y-16373760D01*
X9633739Y-16373760D02*
X9624215Y-16354712D01*
X9624215Y-16354712D02*
X9624215Y-16183284D01*
X9805168Y-16373760D02*
X9786120Y-16383284D01*
X9786120Y-16383284D02*
X9748025Y-16383284D01*
X9748025Y-16383284D02*
X9728977Y-16373760D01*
X9728977Y-16373760D02*
X9719453Y-16354712D01*
X9719453Y-16354712D02*
X9719453Y-16278522D01*
X9719453Y-16278522D02*
X9728977Y-16259474D01*
X9728977Y-16259474D02*
X9748025Y-16249950D01*
X9748025Y-16249950D02*
X9786120Y-16249950D01*
X9786120Y-16249950D02*
X9805168Y-16259474D01*
X9805168Y-16259474D02*
X9814692Y-16278522D01*
X9814692Y-16278522D02*
X9814692Y-16297569D01*
X9814692Y-16297569D02*
X9719453Y-16316617D01*
X9890882Y-16373760D02*
X9909930Y-16383284D01*
X9909930Y-16383284D02*
X9948025Y-16383284D01*
X9948025Y-16383284D02*
X9967073Y-16373760D01*
X9967073Y-16373760D02*
X9976596Y-16354712D01*
X9976596Y-16354712D02*
X9976596Y-16345188D01*
X9976596Y-16345188D02*
X9967073Y-16326141D01*
X9967073Y-16326141D02*
X9948025Y-16316617D01*
X9948025Y-16316617D02*
X9919453Y-16316617D01*
X9919453Y-16316617D02*
X9900406Y-16307093D01*
X9900406Y-16307093D02*
X9890882Y-16288046D01*
X9890882Y-16288046D02*
X9890882Y-16278522D01*
X9890882Y-16278522D02*
X9900406Y-16259474D01*
X9900406Y-16259474D02*
X9919453Y-16249950D01*
X9919453Y-16249950D02*
X9948025Y-16249950D01*
X9948025Y-16249950D02*
X9967073Y-16259474D01*
X10043263Y-16459474D02*
X10052787Y-16449950D01*
X10052787Y-16449950D02*
X10071834Y-16421379D01*
X10071834Y-16421379D02*
X10081358Y-16402331D01*
X10081358Y-16402331D02*
X10090882Y-16373760D01*
X10090882Y-16373760D02*
X10100406Y-16326141D01*
X10100406Y-16326141D02*
X10100406Y-16288046D01*
X10100406Y-16288046D02*
X10090882Y-16240427D01*
X10090882Y-16240427D02*
X10081358Y-16211855D01*
X10081358Y-16211855D02*
X10071834Y-16192808D01*
X10071834Y-16192808D02*
X10052787Y-16164236D01*
X10052787Y-16164236D02*
X10043263Y-16154712D01*
X10405168Y-16459474D02*
X10395644Y-16449950D01*
X10395644Y-16449950D02*
X10376596Y-16421379D01*
X10376596Y-16421379D02*
X10367073Y-16402331D01*
X10367073Y-16402331D02*
X10357549Y-16373760D01*
X10357549Y-16373760D02*
X10348025Y-16326141D01*
X10348025Y-16326141D02*
X10348025Y-16288046D01*
X10348025Y-16288046D02*
X10357549Y-16240427D01*
X10357549Y-16240427D02*
X10367073Y-16211855D01*
X10367073Y-16211855D02*
X10376596Y-16192808D01*
X10376596Y-16192808D02*
X10395644Y-16164236D01*
X10395644Y-16164236D02*
X10405168Y-16154712D01*
X10481358Y-16249950D02*
X10481358Y-16383284D01*
X10481358Y-16268998D02*
X10490882Y-16259474D01*
X10490882Y-16259474D02*
X10509930Y-16249950D01*
X10509930Y-16249950D02*
X10538501Y-16249950D01*
X10538501Y-16249950D02*
X10557549Y-16259474D01*
X10557549Y-16259474D02*
X10567073Y-16278522D01*
X10567073Y-16278522D02*
X10567073Y-16383284D01*
X10690882Y-16383284D02*
X10671834Y-16373760D01*
X10671834Y-16373760D02*
X10662311Y-16364236D01*
X10662311Y-16364236D02*
X10652787Y-16345188D01*
X10652787Y-16345188D02*
X10652787Y-16288046D01*
X10652787Y-16288046D02*
X10662311Y-16268998D01*
X10662311Y-16268998D02*
X10671834Y-16259474D01*
X10671834Y-16259474D02*
X10690882Y-16249950D01*
X10690882Y-16249950D02*
X10719454Y-16249950D01*
X10719454Y-16249950D02*
X10738501Y-16259474D01*
X10738501Y-16259474D02*
X10748025Y-16268998D01*
X10748025Y-16268998D02*
X10757549Y-16288046D01*
X10757549Y-16288046D02*
X10757549Y-16345188D01*
X10757549Y-16345188D02*
X10748025Y-16364236D01*
X10748025Y-16364236D02*
X10738501Y-16373760D01*
X10738501Y-16373760D02*
X10719454Y-16383284D01*
X10719454Y-16383284D02*
X10690882Y-16383284D01*
X10814692Y-16249950D02*
X10890882Y-16249950D01*
X10843263Y-16183284D02*
X10843263Y-16354712D01*
X10843263Y-16354712D02*
X10852787Y-16373760D01*
X10852787Y-16373760D02*
X10871834Y-16383284D01*
X10871834Y-16383284D02*
X10890882Y-16383284D01*
X11109930Y-16249950D02*
X11109930Y-16449950D01*
X11109930Y-16259474D02*
X11128977Y-16249950D01*
X11128977Y-16249950D02*
X11167073Y-16249950D01*
X11167073Y-16249950D02*
X11186120Y-16259474D01*
X11186120Y-16259474D02*
X11195644Y-16268998D01*
X11195644Y-16268998D02*
X11205168Y-16288046D01*
X11205168Y-16288046D02*
X11205168Y-16345188D01*
X11205168Y-16345188D02*
X11195644Y-16364236D01*
X11195644Y-16364236D02*
X11186120Y-16373760D01*
X11186120Y-16373760D02*
X11167073Y-16383284D01*
X11167073Y-16383284D02*
X11128977Y-16383284D01*
X11128977Y-16383284D02*
X11109930Y-16373760D01*
X11319453Y-16383284D02*
X11300406Y-16373760D01*
X11300406Y-16373760D02*
X11290882Y-16354712D01*
X11290882Y-16354712D02*
X11290882Y-16183284D01*
X11481358Y-16383284D02*
X11481358Y-16278522D01*
X11481358Y-16278522D02*
X11471834Y-16259474D01*
X11471834Y-16259474D02*
X11452787Y-16249950D01*
X11452787Y-16249950D02*
X11414692Y-16249950D01*
X11414692Y-16249950D02*
X11395644Y-16259474D01*
X11481358Y-16373760D02*
X11462311Y-16383284D01*
X11462311Y-16383284D02*
X11414692Y-16383284D01*
X11414692Y-16383284D02*
X11395644Y-16373760D01*
X11395644Y-16373760D02*
X11386120Y-16354712D01*
X11386120Y-16354712D02*
X11386120Y-16335665D01*
X11386120Y-16335665D02*
X11395644Y-16316617D01*
X11395644Y-16316617D02*
X11414692Y-16307093D01*
X11414692Y-16307093D02*
X11462311Y-16307093D01*
X11462311Y-16307093D02*
X11481358Y-16297569D01*
X11548025Y-16249950D02*
X11624215Y-16249950D01*
X11576596Y-16183284D02*
X11576596Y-16354712D01*
X11576596Y-16354712D02*
X11586120Y-16373760D01*
X11586120Y-16373760D02*
X11605168Y-16383284D01*
X11605168Y-16383284D02*
X11624215Y-16383284D01*
X11767073Y-16373760D02*
X11748025Y-16383284D01*
X11748025Y-16383284D02*
X11709930Y-16383284D01*
X11709930Y-16383284D02*
X11690882Y-16373760D01*
X11690882Y-16373760D02*
X11681358Y-16354712D01*
X11681358Y-16354712D02*
X11681358Y-16278522D01*
X11681358Y-16278522D02*
X11690882Y-16259474D01*
X11690882Y-16259474D02*
X11709930Y-16249950D01*
X11709930Y-16249950D02*
X11748025Y-16249950D01*
X11748025Y-16249950D02*
X11767073Y-16259474D01*
X11767073Y-16259474D02*
X11776596Y-16278522D01*
X11776596Y-16278522D02*
X11776596Y-16297569D01*
X11776596Y-16297569D02*
X11681358Y-16316617D01*
X11948025Y-16383284D02*
X11948025Y-16183284D01*
X11948025Y-16373760D02*
X11928977Y-16383284D01*
X11928977Y-16383284D02*
X11890882Y-16383284D01*
X11890882Y-16383284D02*
X11871834Y-16373760D01*
X11871834Y-16373760D02*
X11862311Y-16364236D01*
X11862311Y-16364236D02*
X11852787Y-16345188D01*
X11852787Y-16345188D02*
X11852787Y-16288046D01*
X11852787Y-16288046D02*
X11862311Y-16268998D01*
X11862311Y-16268998D02*
X11871834Y-16259474D01*
X11871834Y-16259474D02*
X11890882Y-16249950D01*
X11890882Y-16249950D02*
X11928977Y-16249950D01*
X11928977Y-16249950D02*
X11948025Y-16259474D01*
X12024215Y-16459474D02*
X12033739Y-16449950D01*
X12033739Y-16449950D02*
X12052787Y-16421379D01*
X12052787Y-16421379D02*
X12062311Y-16402331D01*
X12062311Y-16402331D02*
X12071834Y-16373760D01*
X12071834Y-16373760D02*
X12081358Y-16326141D01*
X12081358Y-16326141D02*
X12081358Y-16288046D01*
X12081358Y-16288046D02*
X12071834Y-16240427D01*
X12071834Y-16240427D02*
X12062311Y-16211855D01*
X12062311Y-16211855D02*
X12052787Y-16192808D01*
X12052787Y-16192808D02*
X12033739Y-16164236D01*
X12033739Y-16164236D02*
X12024215Y-16154712D01*
X5268200Y-16611800D02*
G75*
G03*
X5268200Y-16611800I-100000J0D01*
G01*
X5509929Y-16503284D02*
X5633739Y-16503284D01*
X5633739Y-16503284D02*
X5567072Y-16579474D01*
X5567072Y-16579474D02*
X5595643Y-16579474D01*
X5595643Y-16579474D02*
X5614691Y-16588998D01*
X5614691Y-16588998D02*
X5624215Y-16598522D01*
X5624215Y-16598522D02*
X5633739Y-16617569D01*
X5633739Y-16617569D02*
X5633739Y-16665188D01*
X5633739Y-16665188D02*
X5624215Y-16684236D01*
X5624215Y-16684236D02*
X5614691Y-16693760D01*
X5614691Y-16693760D02*
X5595643Y-16703284D01*
X5595643Y-16703284D02*
X5538501Y-16703284D01*
X5538501Y-16703284D02*
X5519453Y-16693760D01*
X5519453Y-16693760D02*
X5509929Y-16684236D01*
X5719453Y-16684236D02*
X5728977Y-16693760D01*
X5728977Y-16693760D02*
X5719453Y-16703284D01*
X5719453Y-16703284D02*
X5709929Y-16693760D01*
X5709929Y-16693760D02*
X5719453Y-16684236D01*
X5719453Y-16684236D02*
X5719453Y-16703284D01*
X5805167Y-16522331D02*
X5814691Y-16512808D01*
X5814691Y-16512808D02*
X5833739Y-16503284D01*
X5833739Y-16503284D02*
X5881358Y-16503284D01*
X5881358Y-16503284D02*
X5900405Y-16512808D01*
X5900405Y-16512808D02*
X5909929Y-16522331D01*
X5909929Y-16522331D02*
X5919453Y-16541379D01*
X5919453Y-16541379D02*
X5919453Y-16560427D01*
X5919453Y-16560427D02*
X5909929Y-16588998D01*
X5909929Y-16588998D02*
X5795643Y-16703284D01*
X5795643Y-16703284D02*
X5919453Y-16703284D01*
X6100405Y-16503284D02*
X6005167Y-16503284D01*
X6005167Y-16503284D02*
X5995643Y-16598522D01*
X5995643Y-16598522D02*
X6005167Y-16588998D01*
X6005167Y-16588998D02*
X6024215Y-16579474D01*
X6024215Y-16579474D02*
X6071834Y-16579474D01*
X6071834Y-16579474D02*
X6090882Y-16588998D01*
X6090882Y-16588998D02*
X6100405Y-16598522D01*
X6100405Y-16598522D02*
X6109929Y-16617569D01*
X6109929Y-16617569D02*
X6109929Y-16665188D01*
X6109929Y-16665188D02*
X6100405Y-16684236D01*
X6100405Y-16684236D02*
X6090882Y-16693760D01*
X6090882Y-16693760D02*
X6071834Y-16703284D01*
X6071834Y-16703284D02*
X6024215Y-16703284D01*
X6024215Y-16703284D02*
X6005167Y-16693760D01*
X6005167Y-16693760D02*
X5995643Y-16684236D01*
X6233739Y-16503284D02*
X6252786Y-16503284D01*
X6252786Y-16503284D02*
X6271834Y-16512808D01*
X6271834Y-16512808D02*
X6281358Y-16522331D01*
X6281358Y-16522331D02*
X6290882Y-16541379D01*
X6290882Y-16541379D02*
X6300405Y-16579474D01*
X6300405Y-16579474D02*
X6300405Y-16627093D01*
X6300405Y-16627093D02*
X6290882Y-16665188D01*
X6290882Y-16665188D02*
X6281358Y-16684236D01*
X6281358Y-16684236D02*
X6271834Y-16693760D01*
X6271834Y-16693760D02*
X6252786Y-16703284D01*
X6252786Y-16703284D02*
X6233739Y-16703284D01*
X6233739Y-16703284D02*
X6214691Y-16693760D01*
X6214691Y-16693760D02*
X6205167Y-16684236D01*
X6205167Y-16684236D02*
X6195643Y-16665188D01*
X6195643Y-16665188D02*
X6186120Y-16627093D01*
X6186120Y-16627093D02*
X6186120Y-16579474D01*
X6186120Y-16579474D02*
X6195643Y-16541379D01*
X6195643Y-16541379D02*
X6205167Y-16522331D01*
X6205167Y-16522331D02*
X6214691Y-16512808D01*
X6214691Y-16512808D02*
X6233739Y-16503284D01*
X6386120Y-16703284D02*
X6386120Y-16569950D01*
X6386120Y-16588998D02*
X6395643Y-16579474D01*
X6395643Y-16579474D02*
X6414691Y-16569950D01*
X6414691Y-16569950D02*
X6443263Y-16569950D01*
X6443263Y-16569950D02*
X6462310Y-16579474D01*
X6462310Y-16579474D02*
X6471834Y-16598522D01*
X6471834Y-16598522D02*
X6471834Y-16703284D01*
X6471834Y-16598522D02*
X6481358Y-16579474D01*
X6481358Y-16579474D02*
X6500405Y-16569950D01*
X6500405Y-16569950D02*
X6528977Y-16569950D01*
X6528977Y-16569950D02*
X6548024Y-16579474D01*
X6548024Y-16579474D02*
X6557548Y-16598522D01*
X6557548Y-16598522D02*
X6557548Y-16703284D01*
X6652786Y-16703284D02*
X6652786Y-16569950D01*
X6652786Y-16588998D02*
X6662310Y-16579474D01*
X6662310Y-16579474D02*
X6681358Y-16569950D01*
X6681358Y-16569950D02*
X6709929Y-16569950D01*
X6709929Y-16569950D02*
X6728977Y-16579474D01*
X6728977Y-16579474D02*
X6738501Y-16598522D01*
X6738501Y-16598522D02*
X6738501Y-16703284D01*
X6738501Y-16598522D02*
X6748024Y-16579474D01*
X6748024Y-16579474D02*
X6767072Y-16569950D01*
X6767072Y-16569950D02*
X6795643Y-16569950D01*
X6795643Y-16569950D02*
X6814691Y-16579474D01*
X6814691Y-16579474D02*
X6824215Y-16598522D01*
X6824215Y-16598522D02*
X6824215Y-16703284D01*
X7214691Y-16493760D02*
X7043263Y-16750903D01*
X7471834Y-16503284D02*
X7490882Y-16503284D01*
X7490882Y-16503284D02*
X7509929Y-16512808D01*
X7509929Y-16512808D02*
X7519453Y-16522331D01*
X7519453Y-16522331D02*
X7528977Y-16541379D01*
X7528977Y-16541379D02*
X7538501Y-16579474D01*
X7538501Y-16579474D02*
X7538501Y-16627093D01*
X7538501Y-16627093D02*
X7528977Y-16665188D01*
X7528977Y-16665188D02*
X7519453Y-16684236D01*
X7519453Y-16684236D02*
X7509929Y-16693760D01*
X7509929Y-16693760D02*
X7490882Y-16703284D01*
X7490882Y-16703284D02*
X7471834Y-16703284D01*
X7471834Y-16703284D02*
X7452786Y-16693760D01*
X7452786Y-16693760D02*
X7443263Y-16684236D01*
X7443263Y-16684236D02*
X7433739Y-16665188D01*
X7433739Y-16665188D02*
X7424215Y-16627093D01*
X7424215Y-16627093D02*
X7424215Y-16579474D01*
X7424215Y-16579474D02*
X7433739Y-16541379D01*
X7433739Y-16541379D02*
X7443263Y-16522331D01*
X7443263Y-16522331D02*
X7452786Y-16512808D01*
X7452786Y-16512808D02*
X7471834Y-16503284D01*
X7624215Y-16684236D02*
X7633739Y-16693760D01*
X7633739Y-16693760D02*
X7624215Y-16703284D01*
X7624215Y-16703284D02*
X7614691Y-16693760D01*
X7614691Y-16693760D02*
X7624215Y-16684236D01*
X7624215Y-16684236D02*
X7624215Y-16703284D01*
X7824215Y-16703284D02*
X7709929Y-16703284D01*
X7767072Y-16703284D02*
X7767072Y-16503284D01*
X7767072Y-16503284D02*
X7748025Y-16531855D01*
X7748025Y-16531855D02*
X7728977Y-16550903D01*
X7728977Y-16550903D02*
X7709929Y-16560427D01*
X7900406Y-16522331D02*
X7909929Y-16512808D01*
X7909929Y-16512808D02*
X7928977Y-16503284D01*
X7928977Y-16503284D02*
X7976596Y-16503284D01*
X7976596Y-16503284D02*
X7995644Y-16512808D01*
X7995644Y-16512808D02*
X8005167Y-16522331D01*
X8005167Y-16522331D02*
X8014691Y-16541379D01*
X8014691Y-16541379D02*
X8014691Y-16560427D01*
X8014691Y-16560427D02*
X8005167Y-16588998D01*
X8005167Y-16588998D02*
X7890882Y-16703284D01*
X7890882Y-16703284D02*
X8014691Y-16703284D01*
X8128977Y-16588998D02*
X8109929Y-16579474D01*
X8109929Y-16579474D02*
X8100406Y-16569950D01*
X8100406Y-16569950D02*
X8090882Y-16550903D01*
X8090882Y-16550903D02*
X8090882Y-16541379D01*
X8090882Y-16541379D02*
X8100406Y-16522331D01*
X8100406Y-16522331D02*
X8109929Y-16512808D01*
X8109929Y-16512808D02*
X8128977Y-16503284D01*
X8128977Y-16503284D02*
X8167072Y-16503284D01*
X8167072Y-16503284D02*
X8186120Y-16512808D01*
X8186120Y-16512808D02*
X8195644Y-16522331D01*
X8195644Y-16522331D02*
X8205167Y-16541379D01*
X8205167Y-16541379D02*
X8205167Y-16550903D01*
X8205167Y-16550903D02*
X8195644Y-16569950D01*
X8195644Y-16569950D02*
X8186120Y-16579474D01*
X8186120Y-16579474D02*
X8167072Y-16588998D01*
X8167072Y-16588998D02*
X8128977Y-16588998D01*
X8128977Y-16588998D02*
X8109929Y-16598522D01*
X8109929Y-16598522D02*
X8100406Y-16608046D01*
X8100406Y-16608046D02*
X8090882Y-16627093D01*
X8090882Y-16627093D02*
X8090882Y-16665188D01*
X8090882Y-16665188D02*
X8100406Y-16684236D01*
X8100406Y-16684236D02*
X8109929Y-16693760D01*
X8109929Y-16693760D02*
X8128977Y-16703284D01*
X8128977Y-16703284D02*
X8167072Y-16703284D01*
X8167072Y-16703284D02*
X8186120Y-16693760D01*
X8186120Y-16693760D02*
X8195644Y-16684236D01*
X8195644Y-16684236D02*
X8205167Y-16665188D01*
X8205167Y-16665188D02*
X8205167Y-16627093D01*
X8205167Y-16627093D02*
X8195644Y-16608046D01*
X8195644Y-16608046D02*
X8186120Y-16598522D01*
X8186120Y-16598522D02*
X8167072Y-16588998D01*
X8328977Y-16503284D02*
X8348025Y-16503284D01*
X8348025Y-16503284D02*
X8367072Y-16512808D01*
X8367072Y-16512808D02*
X8376596Y-16522331D01*
X8376596Y-16522331D02*
X8386120Y-16541379D01*
X8386120Y-16541379D02*
X8395644Y-16579474D01*
X8395644Y-16579474D02*
X8395644Y-16627093D01*
X8395644Y-16627093D02*
X8386120Y-16665188D01*
X8386120Y-16665188D02*
X8376596Y-16684236D01*
X8376596Y-16684236D02*
X8367072Y-16693760D01*
X8367072Y-16693760D02*
X8348025Y-16703284D01*
X8348025Y-16703284D02*
X8328977Y-16703284D01*
X8328977Y-16703284D02*
X8309929Y-16693760D01*
X8309929Y-16693760D02*
X8300406Y-16684236D01*
X8300406Y-16684236D02*
X8290882Y-16665188D01*
X8290882Y-16665188D02*
X8281358Y-16627093D01*
X8281358Y-16627093D02*
X8281358Y-16579474D01*
X8281358Y-16579474D02*
X8290882Y-16541379D01*
X8290882Y-16541379D02*
X8300406Y-16522331D01*
X8300406Y-16522331D02*
X8309929Y-16512808D01*
X8309929Y-16512808D02*
X8328977Y-16503284D01*
X8471834Y-16503284D02*
X8471834Y-16541379D01*
X8548025Y-16503284D02*
X8548025Y-16541379D01*
X8843263Y-16779474D02*
X8833739Y-16769950D01*
X8833739Y-16769950D02*
X8814691Y-16741379D01*
X8814691Y-16741379D02*
X8805168Y-16722331D01*
X8805168Y-16722331D02*
X8795644Y-16693760D01*
X8795644Y-16693760D02*
X8786120Y-16646141D01*
X8786120Y-16646141D02*
X8786120Y-16608046D01*
X8786120Y-16608046D02*
X8795644Y-16560427D01*
X8795644Y-16560427D02*
X8805168Y-16531855D01*
X8805168Y-16531855D02*
X8814691Y-16512808D01*
X8814691Y-16512808D02*
X8833739Y-16484236D01*
X8833739Y-16484236D02*
X8843263Y-16474712D01*
X8909930Y-16522331D02*
X8919453Y-16512808D01*
X8919453Y-16512808D02*
X8938501Y-16503284D01*
X8938501Y-16503284D02*
X8986120Y-16503284D01*
X8986120Y-16503284D02*
X9005168Y-16512808D01*
X9005168Y-16512808D02*
X9014691Y-16522331D01*
X9014691Y-16522331D02*
X9024215Y-16541379D01*
X9024215Y-16541379D02*
X9024215Y-16560427D01*
X9024215Y-16560427D02*
X9014691Y-16588998D01*
X9014691Y-16588998D02*
X8900406Y-16703284D01*
X8900406Y-16703284D02*
X9024215Y-16703284D01*
X9262311Y-16703284D02*
X9262311Y-16503284D01*
X9348025Y-16703284D02*
X9348025Y-16598522D01*
X9348025Y-16598522D02*
X9338501Y-16579474D01*
X9338501Y-16579474D02*
X9319453Y-16569950D01*
X9319453Y-16569950D02*
X9290882Y-16569950D01*
X9290882Y-16569950D02*
X9271834Y-16579474D01*
X9271834Y-16579474D02*
X9262311Y-16588998D01*
X9471834Y-16703284D02*
X9452787Y-16693760D01*
X9452787Y-16693760D02*
X9443263Y-16684236D01*
X9443263Y-16684236D02*
X9433739Y-16665188D01*
X9433739Y-16665188D02*
X9433739Y-16608046D01*
X9433739Y-16608046D02*
X9443263Y-16588998D01*
X9443263Y-16588998D02*
X9452787Y-16579474D01*
X9452787Y-16579474D02*
X9471834Y-16569950D01*
X9471834Y-16569950D02*
X9500406Y-16569950D01*
X9500406Y-16569950D02*
X9519453Y-16579474D01*
X9519453Y-16579474D02*
X9528977Y-16588998D01*
X9528977Y-16588998D02*
X9538501Y-16608046D01*
X9538501Y-16608046D02*
X9538501Y-16665188D01*
X9538501Y-16665188D02*
X9528977Y-16684236D01*
X9528977Y-16684236D02*
X9519453Y-16693760D01*
X9519453Y-16693760D02*
X9500406Y-16703284D01*
X9500406Y-16703284D02*
X9471834Y-16703284D01*
X9652787Y-16703284D02*
X9633739Y-16693760D01*
X9633739Y-16693760D02*
X9624215Y-16674712D01*
X9624215Y-16674712D02*
X9624215Y-16503284D01*
X9805168Y-16693760D02*
X9786120Y-16703284D01*
X9786120Y-16703284D02*
X9748025Y-16703284D01*
X9748025Y-16703284D02*
X9728977Y-16693760D01*
X9728977Y-16693760D02*
X9719453Y-16674712D01*
X9719453Y-16674712D02*
X9719453Y-16598522D01*
X9719453Y-16598522D02*
X9728977Y-16579474D01*
X9728977Y-16579474D02*
X9748025Y-16569950D01*
X9748025Y-16569950D02*
X9786120Y-16569950D01*
X9786120Y-16569950D02*
X9805168Y-16579474D01*
X9805168Y-16579474D02*
X9814692Y-16598522D01*
X9814692Y-16598522D02*
X9814692Y-16617569D01*
X9814692Y-16617569D02*
X9719453Y-16636617D01*
X9890882Y-16693760D02*
X9909930Y-16703284D01*
X9909930Y-16703284D02*
X9948025Y-16703284D01*
X9948025Y-16703284D02*
X9967073Y-16693760D01*
X9967073Y-16693760D02*
X9976596Y-16674712D01*
X9976596Y-16674712D02*
X9976596Y-16665188D01*
X9976596Y-16665188D02*
X9967073Y-16646141D01*
X9967073Y-16646141D02*
X9948025Y-16636617D01*
X9948025Y-16636617D02*
X9919453Y-16636617D01*
X9919453Y-16636617D02*
X9900406Y-16627093D01*
X9900406Y-16627093D02*
X9890882Y-16608046D01*
X9890882Y-16608046D02*
X9890882Y-16598522D01*
X9890882Y-16598522D02*
X9900406Y-16579474D01*
X9900406Y-16579474D02*
X9919453Y-16569950D01*
X9919453Y-16569950D02*
X9948025Y-16569950D01*
X9948025Y-16569950D02*
X9967073Y-16579474D01*
X10043263Y-16779474D02*
X10052787Y-16769950D01*
X10052787Y-16769950D02*
X10071834Y-16741379D01*
X10071834Y-16741379D02*
X10081358Y-16722331D01*
X10081358Y-16722331D02*
X10090882Y-16693760D01*
X10090882Y-16693760D02*
X10100406Y-16646141D01*
X10100406Y-16646141D02*
X10100406Y-16608046D01*
X10100406Y-16608046D02*
X10090882Y-16560427D01*
X10090882Y-16560427D02*
X10081358Y-16531855D01*
X10081358Y-16531855D02*
X10071834Y-16512808D01*
X10071834Y-16512808D02*
X10052787Y-16484236D01*
X10052787Y-16484236D02*
X10043263Y-16474712D01*
X10405168Y-16779474D02*
X10395644Y-16769950D01*
X10395644Y-16769950D02*
X10376596Y-16741379D01*
X10376596Y-16741379D02*
X10367073Y-16722331D01*
X10367073Y-16722331D02*
X10357549Y-16693760D01*
X10357549Y-16693760D02*
X10348025Y-16646141D01*
X10348025Y-16646141D02*
X10348025Y-16608046D01*
X10348025Y-16608046D02*
X10357549Y-16560427D01*
X10357549Y-16560427D02*
X10367073Y-16531855D01*
X10367073Y-16531855D02*
X10376596Y-16512808D01*
X10376596Y-16512808D02*
X10395644Y-16484236D01*
X10395644Y-16484236D02*
X10405168Y-16474712D01*
X10481358Y-16569950D02*
X10481358Y-16703284D01*
X10481358Y-16588998D02*
X10490882Y-16579474D01*
X10490882Y-16579474D02*
X10509930Y-16569950D01*
X10509930Y-16569950D02*
X10538501Y-16569950D01*
X10538501Y-16569950D02*
X10557549Y-16579474D01*
X10557549Y-16579474D02*
X10567073Y-16598522D01*
X10567073Y-16598522D02*
X10567073Y-16703284D01*
X10690882Y-16703284D02*
X10671834Y-16693760D01*
X10671834Y-16693760D02*
X10662311Y-16684236D01*
X10662311Y-16684236D02*
X10652787Y-16665188D01*
X10652787Y-16665188D02*
X10652787Y-16608046D01*
X10652787Y-16608046D02*
X10662311Y-16588998D01*
X10662311Y-16588998D02*
X10671834Y-16579474D01*
X10671834Y-16579474D02*
X10690882Y-16569950D01*
X10690882Y-16569950D02*
X10719454Y-16569950D01*
X10719454Y-16569950D02*
X10738501Y-16579474D01*
X10738501Y-16579474D02*
X10748025Y-16588998D01*
X10748025Y-16588998D02*
X10757549Y-16608046D01*
X10757549Y-16608046D02*
X10757549Y-16665188D01*
X10757549Y-16665188D02*
X10748025Y-16684236D01*
X10748025Y-16684236D02*
X10738501Y-16693760D01*
X10738501Y-16693760D02*
X10719454Y-16703284D01*
X10719454Y-16703284D02*
X10690882Y-16703284D01*
X10814692Y-16569950D02*
X10890882Y-16569950D01*
X10843263Y-16503284D02*
X10843263Y-16674712D01*
X10843263Y-16674712D02*
X10852787Y-16693760D01*
X10852787Y-16693760D02*
X10871834Y-16703284D01*
X10871834Y-16703284D02*
X10890882Y-16703284D01*
X11109930Y-16569950D02*
X11109930Y-16769950D01*
X11109930Y-16579474D02*
X11128977Y-16569950D01*
X11128977Y-16569950D02*
X11167073Y-16569950D01*
X11167073Y-16569950D02*
X11186120Y-16579474D01*
X11186120Y-16579474D02*
X11195644Y-16588998D01*
X11195644Y-16588998D02*
X11205168Y-16608046D01*
X11205168Y-16608046D02*
X11205168Y-16665188D01*
X11205168Y-16665188D02*
X11195644Y-16684236D01*
X11195644Y-16684236D02*
X11186120Y-16693760D01*
X11186120Y-16693760D02*
X11167073Y-16703284D01*
X11167073Y-16703284D02*
X11128977Y-16703284D01*
X11128977Y-16703284D02*
X11109930Y-16693760D01*
X11319453Y-16703284D02*
X11300406Y-16693760D01*
X11300406Y-16693760D02*
X11290882Y-16674712D01*
X11290882Y-16674712D02*
X11290882Y-16503284D01*
X11481358Y-16703284D02*
X11481358Y-16598522D01*
X11481358Y-16598522D02*
X11471834Y-16579474D01*
X11471834Y-16579474D02*
X11452787Y-16569950D01*
X11452787Y-16569950D02*
X11414692Y-16569950D01*
X11414692Y-16569950D02*
X11395644Y-16579474D01*
X11481358Y-16693760D02*
X11462311Y-16703284D01*
X11462311Y-16703284D02*
X11414692Y-16703284D01*
X11414692Y-16703284D02*
X11395644Y-16693760D01*
X11395644Y-16693760D02*
X11386120Y-16674712D01*
X11386120Y-16674712D02*
X11386120Y-16655665D01*
X11386120Y-16655665D02*
X11395644Y-16636617D01*
X11395644Y-16636617D02*
X11414692Y-16627093D01*
X11414692Y-16627093D02*
X11462311Y-16627093D01*
X11462311Y-16627093D02*
X11481358Y-16617569D01*
X11548025Y-16569950D02*
X11624215Y-16569950D01*
X11576596Y-16503284D02*
X11576596Y-16674712D01*
X11576596Y-16674712D02*
X11586120Y-16693760D01*
X11586120Y-16693760D02*
X11605168Y-16703284D01*
X11605168Y-16703284D02*
X11624215Y-16703284D01*
X11767073Y-16693760D02*
X11748025Y-16703284D01*
X11748025Y-16703284D02*
X11709930Y-16703284D01*
X11709930Y-16703284D02*
X11690882Y-16693760D01*
X11690882Y-16693760D02*
X11681358Y-16674712D01*
X11681358Y-16674712D02*
X11681358Y-16598522D01*
X11681358Y-16598522D02*
X11690882Y-16579474D01*
X11690882Y-16579474D02*
X11709930Y-16569950D01*
X11709930Y-16569950D02*
X11748025Y-16569950D01*
X11748025Y-16569950D02*
X11767073Y-16579474D01*
X11767073Y-16579474D02*
X11776596Y-16598522D01*
X11776596Y-16598522D02*
X11776596Y-16617569D01*
X11776596Y-16617569D02*
X11681358Y-16636617D01*
X11948025Y-16703284D02*
X11948025Y-16503284D01*
X11948025Y-16693760D02*
X11928977Y-16703284D01*
X11928977Y-16703284D02*
X11890882Y-16703284D01*
X11890882Y-16703284D02*
X11871834Y-16693760D01*
X11871834Y-16693760D02*
X11862311Y-16684236D01*
X11862311Y-16684236D02*
X11852787Y-16665188D01*
X11852787Y-16665188D02*
X11852787Y-16608046D01*
X11852787Y-16608046D02*
X11862311Y-16588998D01*
X11862311Y-16588998D02*
X11871834Y-16579474D01*
X11871834Y-16579474D02*
X11890882Y-16569950D01*
X11890882Y-16569950D02*
X11928977Y-16569950D01*
X11928977Y-16569950D02*
X11948025Y-16579474D01*
X12024215Y-16779474D02*
X12033739Y-16769950D01*
X12033739Y-16769950D02*
X12052787Y-16741379D01*
X12052787Y-16741379D02*
X12062311Y-16722331D01*
X12062311Y-16722331D02*
X12071834Y-16693760D01*
X12071834Y-16693760D02*
X12081358Y-16646141D01*
X12081358Y-16646141D02*
X12081358Y-16608046D01*
X12081358Y-16608046D02*
X12071834Y-16560427D01*
X12071834Y-16560427D02*
X12062311Y-16531855D01*
X12062311Y-16531855D02*
X12052787Y-16512808D01*
X12052787Y-16512808D02*
X12033739Y-16484236D01*
X12033739Y-16484236D02*
X12024215Y-16474712D01*
M02*
