%TF.GenerationSoftware,KiCad,Pcbnew,7.0.9*%
%TF.CreationDate,2024-01-13T23:59:28+01:00*%
%TF.ProjectId,ithowifi_4l,6974686f-7769-4666-995f-346c2e6b6963,rev?*%
%TF.SameCoordinates,Original*%
%TF.FileFunction,Drillmap*%
%TF.FilePolarity,Positive*%
%FSLAX45Y45*%
G04 Gerber Fmt 4.5, Leading zero omitted, Abs format (unit mm)*
G04 Created by KiCad (PCBNEW 7.0.9) date 2024-01-13 23:59:28*
%MOMM*%
%LPD*%
G01*
G04 APERTURE LIST*
%ADD10C,0.100000*%
%ADD11C,0.200000*%
%ADD12C,0.180000*%
G04 APERTURE END LIST*
D10*
X5273200Y-15596800D02*
G75*
G03*
X5323200Y-15646800I50000J0D01*
G01*
X9189925Y-10666800D02*
X5323200Y-10666800D01*
X8886055Y-15646800D02*
X5323200Y-15646800D01*
X11533200Y-15646800D02*
X10716055Y-15646800D01*
X10666060Y-15596800D02*
G75*
G03*
X10716055Y-15646800I50000J0D01*
G01*
X11533200Y-15646800D02*
G75*
G03*
X11583200Y-15596800I0J50000D01*
G01*
X11583200Y-15596800D02*
X11583200Y-10716800D01*
X10666055Y-14996800D02*
X8936055Y-14996800D01*
X5273200Y-15596800D02*
X5273200Y-10716800D01*
X11583200Y-10716800D02*
G75*
G03*
X11533200Y-10666800I-50000J0D01*
G01*
X11533200Y-10666800D02*
X11069326Y-10666800D01*
X11069326Y-10666794D02*
G75*
G03*
X11018520Y-10716800I4J-50816D01*
G01*
X9240519Y-11254740D02*
G75*
G03*
X9331960Y-11343045I86321J-2110D01*
G01*
X11018520Y-11292600D02*
X11018520Y-10716800D01*
X10666055Y-15596800D02*
X10666055Y-14996800D01*
X5323200Y-10666800D02*
G75*
G03*
X5273200Y-10716800I0J-50000D01*
G01*
X8886055Y-15646795D02*
G75*
G03*
X8936055Y-15596800I5J49995D01*
G01*
X10967322Y-11343130D02*
X9331960Y-11343045D01*
X8936055Y-14996800D02*
X8936055Y-15596800D01*
X9240714Y-10716800D02*
G75*
G03*
X9189925Y-10666800I-50794J-800D01*
G01*
X10967322Y-11343134D02*
G75*
G03*
X11018520Y-11292600I-2J51204D01*
G01*
X9240520Y-11254740D02*
X9240715Y-10716800D01*
D11*
D10*
X5831087Y-11959099D02*
X5871087Y-11999099D01*
X5871087Y-11959099D02*
X5831087Y-11999099D01*
X5831087Y-12668373D02*
X5871087Y-12708373D01*
X5871087Y-12668373D02*
X5831087Y-12708373D01*
X5987100Y-11956100D02*
X6027100Y-11996100D01*
X6027100Y-11956100D02*
X5987100Y-11996100D01*
X6291900Y-11956100D02*
X6331900Y-11996100D01*
X6331900Y-11956100D02*
X6291900Y-11996100D01*
X6457000Y-11702100D02*
X6497000Y-11742100D01*
X6497000Y-11702100D02*
X6457000Y-11742100D01*
X6581460Y-13642660D02*
X6621460Y-13682660D01*
X6621460Y-13642660D02*
X6581460Y-13682660D01*
X6592030Y-15226760D02*
X6632030Y-15266760D01*
X6632030Y-15226760D02*
X6592030Y-15266760D01*
X6812600Y-11448100D02*
X6852600Y-11488100D01*
X6852600Y-11448100D02*
X6812600Y-11488100D01*
X6812600Y-11575100D02*
X6852600Y-11615100D01*
X6852600Y-11575100D02*
X6812600Y-11615100D01*
X6874350Y-13643450D02*
X6914350Y-13683450D01*
X6914350Y-13643450D02*
X6874350Y-13683450D01*
X6888800Y-13276900D02*
X6928800Y-13316900D01*
X6928800Y-13276900D02*
X6888800Y-13316900D01*
X6888800Y-13391200D02*
X6928800Y-13431200D01*
X6928800Y-13391200D02*
X6888800Y-13431200D01*
X6888800Y-13505500D02*
X6928800Y-13545500D01*
X6928800Y-13505500D02*
X6888800Y-13545500D01*
X7036120Y-12817160D02*
X7076120Y-12857160D01*
X7076120Y-12817160D02*
X7036120Y-12857160D01*
X7053900Y-14033820D02*
X7093900Y-14073820D01*
X7093900Y-14033820D02*
X7053900Y-14073820D01*
X7130100Y-11224580D02*
X7170100Y-11264580D01*
X7170100Y-11224580D02*
X7130100Y-11264580D01*
X7236780Y-14148120D02*
X7276780Y-14188120D01*
X7276780Y-14148120D02*
X7236780Y-14188120D01*
X7244400Y-14546900D02*
X7284400Y-14586900D01*
X7284400Y-14546900D02*
X7244400Y-14586900D01*
X7371400Y-11575100D02*
X7411400Y-11615100D01*
X7411400Y-11575100D02*
X7371400Y-11615100D01*
X7371400Y-11765600D02*
X7411400Y-11805600D01*
X7411400Y-11765600D02*
X7371400Y-11805600D01*
X7462840Y-12133120D02*
X7502840Y-12173120D01*
X7502840Y-12133120D02*
X7462840Y-12173120D01*
X7462840Y-12243120D02*
X7502840Y-12283120D01*
X7502840Y-12243120D02*
X7462840Y-12283120D01*
X7462840Y-12353120D02*
X7502840Y-12393120D01*
X7502840Y-12353120D02*
X7462840Y-12393120D01*
X7564440Y-10825800D02*
X7604440Y-10865800D01*
X7604440Y-10825800D02*
X7564440Y-10865800D01*
X7564440Y-11009950D02*
X7604440Y-11049950D01*
X7604440Y-11009950D02*
X7564440Y-11049950D01*
X7602540Y-11422700D02*
X7642540Y-11462700D01*
X7642540Y-11422700D02*
X7602540Y-11462700D01*
X7729540Y-10825800D02*
X7769540Y-10865800D01*
X7769540Y-10825800D02*
X7729540Y-10865800D01*
X7772720Y-14489751D02*
X7812720Y-14529751D01*
X7812720Y-14489751D02*
X7772720Y-14529751D01*
X7772720Y-14889800D02*
X7812720Y-14929800D01*
X7812720Y-14889800D02*
X7772720Y-14929800D01*
X7892100Y-12461560D02*
X7932100Y-12501560D01*
X7932100Y-12461560D02*
X7892100Y-12501560D01*
X7892100Y-13137200D02*
X7932100Y-13177200D01*
X7932100Y-13137200D02*
X7892100Y-13177200D01*
X7892100Y-13276900D02*
X7932100Y-13316900D01*
X7932100Y-13276900D02*
X7892100Y-13316900D01*
X7892100Y-13391200D02*
X7932100Y-13431200D01*
X7932100Y-13391200D02*
X7892100Y-13431200D01*
X7892100Y-13505500D02*
X7932100Y-13545500D01*
X7932100Y-13505500D02*
X7892100Y-13545500D01*
X7913690Y-10825800D02*
X7953690Y-10865800D01*
X7953690Y-10825800D02*
X7913690Y-10865800D01*
X7926000Y-14433000D02*
X7966000Y-14473000D01*
X7966000Y-14433000D02*
X7926000Y-14473000D01*
X7928000Y-14594000D02*
X7968000Y-14634000D01*
X7968000Y-14594000D02*
X7928000Y-14634000D01*
X7981000Y-12070400D02*
X8021000Y-12110400D01*
X8021000Y-12070400D02*
X7981000Y-12110400D01*
X8104190Y-10825800D02*
X8144190Y-10865800D01*
X8144190Y-10825800D02*
X8104190Y-10865800D01*
X8104190Y-11003600D02*
X8144190Y-11043600D01*
X8144190Y-11003600D02*
X8104190Y-11043600D01*
X8108000Y-14165900D02*
X8148000Y-14205900D01*
X8148000Y-14165900D02*
X8108000Y-14205900D01*
X8227380Y-11412540D02*
X8267380Y-11452540D01*
X8267380Y-11412540D02*
X8227380Y-11452540D01*
X8257860Y-14308140D02*
X8297860Y-14348140D01*
X8297860Y-14308140D02*
X8257860Y-14348140D01*
X8311200Y-14712000D02*
X8351200Y-14752000D01*
X8351200Y-14712000D02*
X8311200Y-14752000D01*
X8330000Y-11889999D02*
X8370000Y-11929999D01*
X8370000Y-11889999D02*
X8330000Y-11929999D01*
X8400100Y-10724200D02*
X8440100Y-10764200D01*
X8440100Y-10724200D02*
X8400100Y-10764200D01*
X8400100Y-10876600D02*
X8440100Y-10916600D01*
X8440100Y-10876600D02*
X8400100Y-10916600D01*
X8400100Y-11029000D02*
X8440100Y-11069000D01*
X8440100Y-11029000D02*
X8400100Y-11069000D01*
X8400100Y-11168700D02*
X8440100Y-11208700D01*
X8440100Y-11168700D02*
X8400100Y-11208700D01*
X8445820Y-14295440D02*
X8485820Y-14335440D01*
X8485820Y-14295440D02*
X8445820Y-14335440D01*
X8483920Y-12133120D02*
X8523920Y-12173120D01*
X8523920Y-12133120D02*
X8483920Y-12173120D01*
X8483920Y-12243120D02*
X8523920Y-12283120D01*
X8523920Y-12243120D02*
X8483920Y-12283120D01*
X8483920Y-12353120D02*
X8523920Y-12393120D01*
X8523920Y-12353120D02*
X8483920Y-12393120D01*
X8530000Y-12970000D02*
X8570000Y-13010000D01*
X8570000Y-12970000D02*
X8530000Y-13010000D01*
X8540000Y-12655000D02*
X8580000Y-12695000D01*
X8580000Y-12655000D02*
X8540000Y-12695000D01*
X8565200Y-11170000D02*
X8605200Y-11210000D01*
X8605200Y-11170000D02*
X8565200Y-11210000D01*
X8565200Y-14183680D02*
X8605200Y-14223680D01*
X8605200Y-14183680D02*
X8565200Y-14223680D01*
X8703960Y-11168700D02*
X8743960Y-11208700D01*
X8743960Y-11168700D02*
X8703960Y-11208700D01*
X8703960Y-11325000D02*
X8743960Y-11365000D01*
X8743960Y-11325000D02*
X8703960Y-11365000D01*
X8703960Y-11480000D02*
X8743960Y-11520000D01*
X8743960Y-11480000D02*
X8703960Y-11520000D01*
X8703960Y-11645000D02*
X8743960Y-11685000D01*
X8743960Y-11645000D02*
X8703960Y-11685000D01*
X8720000Y-11780000D02*
X8760000Y-11820000D01*
X8760000Y-11780000D02*
X8720000Y-11820000D01*
X8720000Y-11915000D02*
X8760000Y-11955000D01*
X8760000Y-11915000D02*
X8720000Y-11955000D01*
X8743000Y-14839000D02*
X8783000Y-14879000D01*
X8783000Y-14839000D02*
X8743000Y-14879000D01*
X8770000Y-13320000D02*
X8810000Y-13360000D01*
X8810000Y-13320000D02*
X8770000Y-13360000D01*
X8946200Y-11170000D02*
X8986200Y-11210000D01*
X8986200Y-11170000D02*
X8946200Y-11210000D01*
X8946200Y-11325000D02*
X8986200Y-11365000D01*
X8986200Y-11325000D02*
X8946200Y-11365000D01*
X8946200Y-11480000D02*
X8986200Y-11520000D01*
X8986200Y-11480000D02*
X8946200Y-11520000D01*
X8946200Y-11645000D02*
X8986200Y-11685000D01*
X8986200Y-11645000D02*
X8946200Y-11685000D01*
X8980000Y-12485000D02*
X9020000Y-12525000D01*
X9020000Y-12485000D02*
X8980000Y-12525000D01*
X9060000Y-11780000D02*
X9100000Y-11820000D01*
X9100000Y-11780000D02*
X9060000Y-11820000D01*
X9060000Y-11915000D02*
X9100000Y-11955000D01*
X9100000Y-11915000D02*
X9060000Y-11955000D01*
X9100000Y-13950000D02*
X9140000Y-13990000D01*
X9140000Y-13950000D02*
X9100000Y-13990000D01*
X9124000Y-11385000D02*
X9164000Y-11425000D01*
X9164000Y-11385000D02*
X9124000Y-11425000D01*
X9263000Y-12680000D02*
X9303000Y-12720000D01*
X9303000Y-12680000D02*
X9263000Y-12720000D01*
X9305000Y-14285000D02*
X9345000Y-14325000D01*
X9345000Y-14285000D02*
X9305000Y-14325000D01*
X9327200Y-11390000D02*
X9367200Y-11430000D01*
X9367200Y-11390000D02*
X9327200Y-11430000D01*
X9390000Y-12680000D02*
X9430000Y-12720000D01*
X9430000Y-12680000D02*
X9390000Y-12720000D01*
X9515000Y-13315000D02*
X9555000Y-13355000D01*
X9555000Y-13315000D02*
X9515000Y-13355000D01*
X9517001Y-12680000D02*
X9557001Y-12720000D01*
X9557001Y-12680000D02*
X9517001Y-12720000D01*
X9520000Y-11390000D02*
X9560000Y-11430000D01*
X9560000Y-11390000D02*
X9520000Y-11430000D01*
X9644000Y-12680000D02*
X9684000Y-12720000D01*
X9684000Y-12680000D02*
X9644000Y-12720000D01*
X9645000Y-12045000D02*
X9685000Y-12085000D01*
X9685000Y-12045000D02*
X9645000Y-12085000D01*
X9645000Y-13445000D02*
X9685000Y-13485000D01*
X9685000Y-13445000D02*
X9645000Y-13485000D01*
X9695500Y-13952540D02*
X9735500Y-13992540D01*
X9735500Y-13952540D02*
X9695500Y-13992540D01*
X9695500Y-14107480D02*
X9735500Y-14147480D01*
X9735500Y-14107480D02*
X9695500Y-14147480D01*
X9695500Y-14259880D02*
X9735500Y-14299880D01*
X9735500Y-14259880D02*
X9695500Y-14299880D01*
X9700000Y-11390000D02*
X9740000Y-11430000D01*
X9740000Y-11390000D02*
X9700000Y-11430000D01*
X9847900Y-13955080D02*
X9887900Y-13995080D01*
X9887900Y-13955080D02*
X9847900Y-13995080D01*
X9847900Y-14110020D02*
X9887900Y-14150020D01*
X9887900Y-14110020D02*
X9847900Y-14150020D01*
X9847900Y-14262420D02*
X9887900Y-14302420D01*
X9887900Y-14262420D02*
X9847900Y-14302420D01*
X9880000Y-11390000D02*
X9920000Y-11430000D01*
X9920000Y-11390000D02*
X9880000Y-11430000D01*
X9890000Y-11670000D02*
X9930000Y-11710000D01*
X9930000Y-11670000D02*
X9890000Y-11710000D01*
X9997760Y-13955080D02*
X10037760Y-13995080D01*
X10037760Y-13955080D02*
X9997760Y-13995080D01*
X9997760Y-14110020D02*
X10037760Y-14150020D01*
X10037760Y-14110020D02*
X9997760Y-14150020D01*
X9997760Y-14262420D02*
X10037760Y-14302420D01*
X10037760Y-14262420D02*
X9997760Y-14302420D01*
X10060000Y-11390000D02*
X10100000Y-11430000D01*
X10100000Y-11390000D02*
X10060000Y-11430000D01*
X10240000Y-11390000D02*
X10280000Y-11430000D01*
X10280000Y-11390000D02*
X10240000Y-11430000D01*
X10353360Y-13317540D02*
X10393360Y-13357540D01*
X10393360Y-13317540D02*
X10353360Y-13357540D01*
X10362500Y-12622500D02*
X10402500Y-12662500D01*
X10402500Y-12622500D02*
X10362500Y-12662500D01*
X10420000Y-11390000D02*
X10460000Y-11430000D01*
X10460000Y-11390000D02*
X10420000Y-11430000D01*
X10482900Y-13696000D02*
X10522900Y-13736000D01*
X10522900Y-13696000D02*
X10482900Y-13736000D01*
X10500680Y-14717080D02*
X10540680Y-14757080D01*
X10540680Y-14717080D02*
X10500680Y-14757080D01*
X10510840Y-14844080D02*
X10550840Y-14884080D01*
X10550840Y-14844080D02*
X10510840Y-14884080D01*
X10600000Y-11390000D02*
X10640000Y-11430000D01*
X10640000Y-11390000D02*
X10600000Y-11430000D01*
X10780000Y-11390000D02*
X10820000Y-11430000D01*
X10820000Y-11390000D02*
X10780000Y-11430000D01*
X10907080Y-14864400D02*
X10947080Y-14904400D01*
X10947080Y-14864400D02*
X10907080Y-14904400D01*
X10960000Y-11390000D02*
X11000000Y-11430000D01*
X11000000Y-11390000D02*
X10960000Y-11430000D01*
X11092500Y-14585000D02*
X11132500Y-14625000D01*
X11132500Y-14585000D02*
X11092500Y-14625000D01*
X11140000Y-11390000D02*
X11180000Y-11430000D01*
X11180000Y-11390000D02*
X11140000Y-11430000D01*
X11283000Y-13337860D02*
X11323000Y-13377860D01*
X11323000Y-13337860D02*
X11283000Y-13377860D01*
X11315000Y-11390000D02*
X11355000Y-11430000D01*
X11355000Y-11390000D02*
X11315000Y-11430000D01*
X11495000Y-11390000D02*
X11535000Y-11430000D01*
X11535000Y-11390000D02*
X11495000Y-11430000D01*
X5740320Y-11874300D02*
G75*
G03*
X5740320Y-11874300I-32500J0D01*
G01*
X5717820Y-11841800D02*
X5697820Y-11841800D01*
X5697820Y-11841800D02*
G75*
G03*
X5697820Y-11906800I0J-32500D01*
G01*
X5697820Y-11906800D02*
X5717820Y-11906800D01*
X5717820Y-11906800D02*
G75*
G03*
X5717820Y-11841800I0J32500D01*
G01*
X5740320Y-12359300D02*
G75*
G03*
X5740320Y-12359300I-32500J0D01*
G01*
X5717820Y-12326800D02*
X5697820Y-12326800D01*
X5697820Y-12326800D02*
G75*
G03*
X5697820Y-12391800I0J-32500D01*
G01*
X5697820Y-12391800D02*
X5717820Y-12391800D01*
X5717820Y-12391800D02*
G75*
G03*
X5717820Y-12326800I0J32500D01*
G01*
X5417820Y-11715300D02*
X5417820Y-11798300D01*
X5376320Y-11756800D02*
X5459320Y-11756800D01*
X5451320Y-11715300D02*
X5384320Y-11715300D01*
X5384320Y-11715300D02*
G75*
G03*
X5384320Y-11798300I0J-41500D01*
G01*
X5384320Y-11798300D02*
X5451320Y-11798300D01*
X5451320Y-11798300D02*
G75*
G03*
X5451320Y-11715300I0J41500D01*
G01*
X5417820Y-12435300D02*
X5417820Y-12518300D01*
X5376320Y-12476800D02*
X5459320Y-12476800D01*
X5451320Y-12435300D02*
X5384320Y-12435300D01*
X5384320Y-12435300D02*
G75*
G03*
X5384320Y-12518300I0J-41500D01*
G01*
X5384320Y-12518300D02*
X5451320Y-12518300D01*
X5451320Y-12518300D02*
G75*
G03*
X5451320Y-12435300I0J41500D01*
G01*
X5968717Y-13637117D02*
X5968717Y-13574183D01*
X5905783Y-13574183D01*
X5905783Y-13637117D01*
X5968717Y-13637117D01*
X5968717Y-13841117D02*
X5968717Y-13778183D01*
X5905783Y-13778183D01*
X5905783Y-13841117D01*
X5968717Y-13841117D01*
X5968717Y-14045117D02*
X5968717Y-13982183D01*
X5905783Y-13982183D01*
X5905783Y-14045117D01*
X5968717Y-14045117D01*
X5968717Y-14249117D02*
X5968717Y-14186183D01*
X5905783Y-14186183D01*
X5905783Y-14249117D01*
X5968717Y-14249117D01*
X6146717Y-13535117D02*
X6146717Y-13472183D01*
X6083783Y-13472183D01*
X6083783Y-13535117D01*
X6146717Y-13535117D01*
X6146717Y-13739117D02*
X6146717Y-13676183D01*
X6083783Y-13676183D01*
X6083783Y-13739117D01*
X6146717Y-13739117D01*
X6146717Y-13943117D02*
X6146717Y-13880183D01*
X6083783Y-13880183D01*
X6083783Y-13943117D01*
X6146717Y-13943117D01*
X6146717Y-14147117D02*
X6146717Y-14084183D01*
X6083783Y-14084183D01*
X6083783Y-14147117D01*
X6146717Y-14147117D01*
X6627717Y-13206117D02*
X6627717Y-13143183D01*
X6564783Y-13143183D01*
X6564783Y-13206117D01*
X6627717Y-13206117D01*
X6627717Y-13435117D02*
X6627717Y-13372183D01*
X6564783Y-13372183D01*
X6564783Y-13435117D01*
X6627717Y-13435117D01*
X6627717Y-14349117D02*
X6627717Y-14286183D01*
X6564783Y-14286183D01*
X6564783Y-14349117D01*
X6627717Y-14349117D01*
X6627717Y-14578117D02*
X6627717Y-14515183D01*
X6564783Y-14515183D01*
X6564783Y-14578117D01*
X6627717Y-14578117D01*
X6070600Y-11226000D02*
X6120600Y-11176000D01*
X6070600Y-11126000D01*
X6020600Y-11176000D01*
X6070600Y-11226000D01*
X6070600Y-11480000D02*
X6120600Y-11430000D01*
X6070600Y-11380000D01*
X6020600Y-11430000D01*
X6070600Y-11480000D01*
X6324600Y-11226000D02*
X6374600Y-11176000D01*
X6324600Y-11126000D01*
X6274600Y-11176000D01*
X6324600Y-11226000D01*
X6324600Y-11480000D02*
X6374600Y-11430000D01*
X6324600Y-11380000D01*
X6274600Y-11430000D01*
X6324600Y-11480000D01*
X7312660Y-15198560D02*
X7362660Y-15148560D01*
X7312660Y-15098560D01*
X7262660Y-15148560D01*
X7312660Y-15198560D01*
X7312660Y-15452560D02*
X7362660Y-15402560D01*
X7312660Y-15352560D01*
X7262660Y-15402560D01*
X7312660Y-15452560D01*
X7566660Y-15198560D02*
X7616660Y-15148560D01*
X7566660Y-15098560D01*
X7516660Y-15148560D01*
X7566660Y-15198560D01*
X7566660Y-15452560D02*
X7616660Y-15402560D01*
X7566660Y-15352560D01*
X7516660Y-15402560D01*
X7566660Y-15452560D01*
X8839200Y-11053280D02*
X8889200Y-11003280D01*
X8839200Y-10953280D01*
X8789200Y-11003280D01*
X8839200Y-11053280D01*
D12*
X5949250Y-12957650D02*
X6129250Y-13137650D01*
X6129250Y-12957650D02*
X5949250Y-13137650D01*
X6129250Y-13047650D02*
G75*
G03*
X6129250Y-13047650I-90000J0D01*
G01*
X5949250Y-14583650D02*
X6129250Y-14763650D01*
X6129250Y-14583650D02*
X5949250Y-14763650D01*
X6129250Y-14673650D02*
G75*
G03*
X6129250Y-14673650I-90000J0D01*
G01*
D11*
X5528977Y-15963284D02*
X5528977Y-15763284D01*
X5528977Y-15763284D02*
X5576596Y-15763284D01*
X5576596Y-15763284D02*
X5605167Y-15772808D01*
X5605167Y-15772808D02*
X5624215Y-15791855D01*
X5624215Y-15791855D02*
X5633739Y-15810903D01*
X5633739Y-15810903D02*
X5643262Y-15848998D01*
X5643262Y-15848998D02*
X5643262Y-15877569D01*
X5643262Y-15877569D02*
X5633739Y-15915665D01*
X5633739Y-15915665D02*
X5624215Y-15934712D01*
X5624215Y-15934712D02*
X5605167Y-15953760D01*
X5605167Y-15953760D02*
X5576596Y-15963284D01*
X5576596Y-15963284D02*
X5528977Y-15963284D01*
X5728977Y-15963284D02*
X5728977Y-15829950D01*
X5728977Y-15868046D02*
X5738501Y-15848998D01*
X5738501Y-15848998D02*
X5748024Y-15839474D01*
X5748024Y-15839474D02*
X5767072Y-15829950D01*
X5767072Y-15829950D02*
X5786120Y-15829950D01*
X5852786Y-15963284D02*
X5852786Y-15829950D01*
X5852786Y-15763284D02*
X5843262Y-15772808D01*
X5843262Y-15772808D02*
X5852786Y-15782331D01*
X5852786Y-15782331D02*
X5862310Y-15772808D01*
X5862310Y-15772808D02*
X5852786Y-15763284D01*
X5852786Y-15763284D02*
X5852786Y-15782331D01*
X5976596Y-15963284D02*
X5957548Y-15953760D01*
X5957548Y-15953760D02*
X5948024Y-15934712D01*
X5948024Y-15934712D02*
X5948024Y-15763284D01*
X6081358Y-15963284D02*
X6062310Y-15953760D01*
X6062310Y-15953760D02*
X6052786Y-15934712D01*
X6052786Y-15934712D02*
X6052786Y-15763284D01*
X6309929Y-15963284D02*
X6309929Y-15763284D01*
X6309929Y-15763284D02*
X6376596Y-15906141D01*
X6376596Y-15906141D02*
X6443262Y-15763284D01*
X6443262Y-15763284D02*
X6443262Y-15963284D01*
X6624215Y-15963284D02*
X6624215Y-15858522D01*
X6624215Y-15858522D02*
X6614691Y-15839474D01*
X6614691Y-15839474D02*
X6595643Y-15829950D01*
X6595643Y-15829950D02*
X6557548Y-15829950D01*
X6557548Y-15829950D02*
X6538501Y-15839474D01*
X6624215Y-15953760D02*
X6605167Y-15963284D01*
X6605167Y-15963284D02*
X6557548Y-15963284D01*
X6557548Y-15963284D02*
X6538501Y-15953760D01*
X6538501Y-15953760D02*
X6528977Y-15934712D01*
X6528977Y-15934712D02*
X6528977Y-15915665D01*
X6528977Y-15915665D02*
X6538501Y-15896617D01*
X6538501Y-15896617D02*
X6557548Y-15887093D01*
X6557548Y-15887093D02*
X6605167Y-15887093D01*
X6605167Y-15887093D02*
X6624215Y-15877569D01*
X6719453Y-15829950D02*
X6719453Y-16029950D01*
X6719453Y-15839474D02*
X6738501Y-15829950D01*
X6738501Y-15829950D02*
X6776596Y-15829950D01*
X6776596Y-15829950D02*
X6795643Y-15839474D01*
X6795643Y-15839474D02*
X6805167Y-15848998D01*
X6805167Y-15848998D02*
X6814691Y-15868046D01*
X6814691Y-15868046D02*
X6814691Y-15925188D01*
X6814691Y-15925188D02*
X6805167Y-15944236D01*
X6805167Y-15944236D02*
X6795643Y-15953760D01*
X6795643Y-15953760D02*
X6776596Y-15963284D01*
X6776596Y-15963284D02*
X6738501Y-15963284D01*
X6738501Y-15963284D02*
X6719453Y-15953760D01*
X6900405Y-15944236D02*
X6909929Y-15953760D01*
X6909929Y-15953760D02*
X6900405Y-15963284D01*
X6900405Y-15963284D02*
X6890882Y-15953760D01*
X6890882Y-15953760D02*
X6900405Y-15944236D01*
X6900405Y-15944236D02*
X6900405Y-15963284D01*
X6900405Y-15839474D02*
X6909929Y-15848998D01*
X6909929Y-15848998D02*
X6900405Y-15858522D01*
X6900405Y-15858522D02*
X6890882Y-15848998D01*
X6890882Y-15848998D02*
X6900405Y-15839474D01*
X6900405Y-15839474D02*
X6900405Y-15858522D01*
D10*
X5228200Y-16271800D02*
X5268200Y-16311800D01*
X5268200Y-16271800D02*
X5228200Y-16311800D01*
D11*
X5567072Y-16183284D02*
X5586120Y-16183284D01*
X5586120Y-16183284D02*
X5605167Y-16192808D01*
X5605167Y-16192808D02*
X5614691Y-16202331D01*
X5614691Y-16202331D02*
X5624215Y-16221379D01*
X5624215Y-16221379D02*
X5633739Y-16259474D01*
X5633739Y-16259474D02*
X5633739Y-16307093D01*
X5633739Y-16307093D02*
X5624215Y-16345188D01*
X5624215Y-16345188D02*
X5614691Y-16364236D01*
X5614691Y-16364236D02*
X5605167Y-16373760D01*
X5605167Y-16373760D02*
X5586120Y-16383284D01*
X5586120Y-16383284D02*
X5567072Y-16383284D01*
X5567072Y-16383284D02*
X5548024Y-16373760D01*
X5548024Y-16373760D02*
X5538501Y-16364236D01*
X5538501Y-16364236D02*
X5528977Y-16345188D01*
X5528977Y-16345188D02*
X5519453Y-16307093D01*
X5519453Y-16307093D02*
X5519453Y-16259474D01*
X5519453Y-16259474D02*
X5528977Y-16221379D01*
X5528977Y-16221379D02*
X5538501Y-16202331D01*
X5538501Y-16202331D02*
X5548024Y-16192808D01*
X5548024Y-16192808D02*
X5567072Y-16183284D01*
X5719453Y-16364236D02*
X5728977Y-16373760D01*
X5728977Y-16373760D02*
X5719453Y-16383284D01*
X5719453Y-16383284D02*
X5709929Y-16373760D01*
X5709929Y-16373760D02*
X5719453Y-16364236D01*
X5719453Y-16364236D02*
X5719453Y-16383284D01*
X5900405Y-16249950D02*
X5900405Y-16383284D01*
X5852786Y-16173760D02*
X5805167Y-16316617D01*
X5805167Y-16316617D02*
X5928977Y-16316617D01*
X6043262Y-16183284D02*
X6062310Y-16183284D01*
X6062310Y-16183284D02*
X6081358Y-16192808D01*
X6081358Y-16192808D02*
X6090882Y-16202331D01*
X6090882Y-16202331D02*
X6100405Y-16221379D01*
X6100405Y-16221379D02*
X6109929Y-16259474D01*
X6109929Y-16259474D02*
X6109929Y-16307093D01*
X6109929Y-16307093D02*
X6100405Y-16345188D01*
X6100405Y-16345188D02*
X6090882Y-16364236D01*
X6090882Y-16364236D02*
X6081358Y-16373760D01*
X6081358Y-16373760D02*
X6062310Y-16383284D01*
X6062310Y-16383284D02*
X6043262Y-16383284D01*
X6043262Y-16383284D02*
X6024215Y-16373760D01*
X6024215Y-16373760D02*
X6014691Y-16364236D01*
X6014691Y-16364236D02*
X6005167Y-16345188D01*
X6005167Y-16345188D02*
X5995643Y-16307093D01*
X5995643Y-16307093D02*
X5995643Y-16259474D01*
X5995643Y-16259474D02*
X6005167Y-16221379D01*
X6005167Y-16221379D02*
X6014691Y-16202331D01*
X6014691Y-16202331D02*
X6024215Y-16192808D01*
X6024215Y-16192808D02*
X6043262Y-16183284D01*
X6233739Y-16183284D02*
X6252786Y-16183284D01*
X6252786Y-16183284D02*
X6271834Y-16192808D01*
X6271834Y-16192808D02*
X6281358Y-16202331D01*
X6281358Y-16202331D02*
X6290882Y-16221379D01*
X6290882Y-16221379D02*
X6300405Y-16259474D01*
X6300405Y-16259474D02*
X6300405Y-16307093D01*
X6300405Y-16307093D02*
X6290882Y-16345188D01*
X6290882Y-16345188D02*
X6281358Y-16364236D01*
X6281358Y-16364236D02*
X6271834Y-16373760D01*
X6271834Y-16373760D02*
X6252786Y-16383284D01*
X6252786Y-16383284D02*
X6233739Y-16383284D01*
X6233739Y-16383284D02*
X6214691Y-16373760D01*
X6214691Y-16373760D02*
X6205167Y-16364236D01*
X6205167Y-16364236D02*
X6195643Y-16345188D01*
X6195643Y-16345188D02*
X6186120Y-16307093D01*
X6186120Y-16307093D02*
X6186120Y-16259474D01*
X6186120Y-16259474D02*
X6195643Y-16221379D01*
X6195643Y-16221379D02*
X6205167Y-16202331D01*
X6205167Y-16202331D02*
X6214691Y-16192808D01*
X6214691Y-16192808D02*
X6233739Y-16183284D01*
X6386120Y-16383284D02*
X6386120Y-16249950D01*
X6386120Y-16268998D02*
X6395643Y-16259474D01*
X6395643Y-16259474D02*
X6414691Y-16249950D01*
X6414691Y-16249950D02*
X6443263Y-16249950D01*
X6443263Y-16249950D02*
X6462310Y-16259474D01*
X6462310Y-16259474D02*
X6471834Y-16278522D01*
X6471834Y-16278522D02*
X6471834Y-16383284D01*
X6471834Y-16278522D02*
X6481358Y-16259474D01*
X6481358Y-16259474D02*
X6500405Y-16249950D01*
X6500405Y-16249950D02*
X6528977Y-16249950D01*
X6528977Y-16249950D02*
X6548024Y-16259474D01*
X6548024Y-16259474D02*
X6557548Y-16278522D01*
X6557548Y-16278522D02*
X6557548Y-16383284D01*
X6652786Y-16383284D02*
X6652786Y-16249950D01*
X6652786Y-16268998D02*
X6662310Y-16259474D01*
X6662310Y-16259474D02*
X6681358Y-16249950D01*
X6681358Y-16249950D02*
X6709929Y-16249950D01*
X6709929Y-16249950D02*
X6728977Y-16259474D01*
X6728977Y-16259474D02*
X6738501Y-16278522D01*
X6738501Y-16278522D02*
X6738501Y-16383284D01*
X6738501Y-16278522D02*
X6748024Y-16259474D01*
X6748024Y-16259474D02*
X6767072Y-16249950D01*
X6767072Y-16249950D02*
X6795643Y-16249950D01*
X6795643Y-16249950D02*
X6814691Y-16259474D01*
X6814691Y-16259474D02*
X6824215Y-16278522D01*
X6824215Y-16278522D02*
X6824215Y-16383284D01*
X7214691Y-16173760D02*
X7043263Y-16430903D01*
X7471834Y-16183284D02*
X7490882Y-16183284D01*
X7490882Y-16183284D02*
X7509929Y-16192808D01*
X7509929Y-16192808D02*
X7519453Y-16202331D01*
X7519453Y-16202331D02*
X7528977Y-16221379D01*
X7528977Y-16221379D02*
X7538501Y-16259474D01*
X7538501Y-16259474D02*
X7538501Y-16307093D01*
X7538501Y-16307093D02*
X7528977Y-16345188D01*
X7528977Y-16345188D02*
X7519453Y-16364236D01*
X7519453Y-16364236D02*
X7509929Y-16373760D01*
X7509929Y-16373760D02*
X7490882Y-16383284D01*
X7490882Y-16383284D02*
X7471834Y-16383284D01*
X7471834Y-16383284D02*
X7452786Y-16373760D01*
X7452786Y-16373760D02*
X7443263Y-16364236D01*
X7443263Y-16364236D02*
X7433739Y-16345188D01*
X7433739Y-16345188D02*
X7424215Y-16307093D01*
X7424215Y-16307093D02*
X7424215Y-16259474D01*
X7424215Y-16259474D02*
X7433739Y-16221379D01*
X7433739Y-16221379D02*
X7443263Y-16202331D01*
X7443263Y-16202331D02*
X7452786Y-16192808D01*
X7452786Y-16192808D02*
X7471834Y-16183284D01*
X7624215Y-16364236D02*
X7633739Y-16373760D01*
X7633739Y-16373760D02*
X7624215Y-16383284D01*
X7624215Y-16383284D02*
X7614691Y-16373760D01*
X7614691Y-16373760D02*
X7624215Y-16364236D01*
X7624215Y-16364236D02*
X7624215Y-16383284D01*
X7757548Y-16183284D02*
X7776596Y-16183284D01*
X7776596Y-16183284D02*
X7795644Y-16192808D01*
X7795644Y-16192808D02*
X7805167Y-16202331D01*
X7805167Y-16202331D02*
X7814691Y-16221379D01*
X7814691Y-16221379D02*
X7824215Y-16259474D01*
X7824215Y-16259474D02*
X7824215Y-16307093D01*
X7824215Y-16307093D02*
X7814691Y-16345188D01*
X7814691Y-16345188D02*
X7805167Y-16364236D01*
X7805167Y-16364236D02*
X7795644Y-16373760D01*
X7795644Y-16373760D02*
X7776596Y-16383284D01*
X7776596Y-16383284D02*
X7757548Y-16383284D01*
X7757548Y-16383284D02*
X7738501Y-16373760D01*
X7738501Y-16373760D02*
X7728977Y-16364236D01*
X7728977Y-16364236D02*
X7719453Y-16345188D01*
X7719453Y-16345188D02*
X7709929Y-16307093D01*
X7709929Y-16307093D02*
X7709929Y-16259474D01*
X7709929Y-16259474D02*
X7719453Y-16221379D01*
X7719453Y-16221379D02*
X7728977Y-16202331D01*
X7728977Y-16202331D02*
X7738501Y-16192808D01*
X7738501Y-16192808D02*
X7757548Y-16183284D01*
X8014691Y-16383284D02*
X7900406Y-16383284D01*
X7957548Y-16383284D02*
X7957548Y-16183284D01*
X7957548Y-16183284D02*
X7938501Y-16211855D01*
X7938501Y-16211855D02*
X7919453Y-16230903D01*
X7919453Y-16230903D02*
X7900406Y-16240427D01*
X8195644Y-16183284D02*
X8100406Y-16183284D01*
X8100406Y-16183284D02*
X8090882Y-16278522D01*
X8090882Y-16278522D02*
X8100406Y-16268998D01*
X8100406Y-16268998D02*
X8119453Y-16259474D01*
X8119453Y-16259474D02*
X8167072Y-16259474D01*
X8167072Y-16259474D02*
X8186120Y-16268998D01*
X8186120Y-16268998D02*
X8195644Y-16278522D01*
X8195644Y-16278522D02*
X8205167Y-16297569D01*
X8205167Y-16297569D02*
X8205167Y-16345188D01*
X8205167Y-16345188D02*
X8195644Y-16364236D01*
X8195644Y-16364236D02*
X8186120Y-16373760D01*
X8186120Y-16373760D02*
X8167072Y-16383284D01*
X8167072Y-16383284D02*
X8119453Y-16383284D01*
X8119453Y-16383284D02*
X8100406Y-16373760D01*
X8100406Y-16373760D02*
X8090882Y-16364236D01*
X8271834Y-16183284D02*
X8405168Y-16183284D01*
X8405168Y-16183284D02*
X8319453Y-16383284D01*
X8471834Y-16183284D02*
X8471834Y-16221379D01*
X8548025Y-16183284D02*
X8548025Y-16221379D01*
X8843263Y-16459474D02*
X8833739Y-16449950D01*
X8833739Y-16449950D02*
X8814691Y-16421379D01*
X8814691Y-16421379D02*
X8805168Y-16402331D01*
X8805168Y-16402331D02*
X8795644Y-16373760D01*
X8795644Y-16373760D02*
X8786120Y-16326141D01*
X8786120Y-16326141D02*
X8786120Y-16288046D01*
X8786120Y-16288046D02*
X8795644Y-16240427D01*
X8795644Y-16240427D02*
X8805168Y-16211855D01*
X8805168Y-16211855D02*
X8814691Y-16192808D01*
X8814691Y-16192808D02*
X8833739Y-16164236D01*
X8833739Y-16164236D02*
X8843263Y-16154712D01*
X9024215Y-16383284D02*
X8909930Y-16383284D01*
X8967072Y-16383284D02*
X8967072Y-16183284D01*
X8967072Y-16183284D02*
X8948025Y-16211855D01*
X8948025Y-16211855D02*
X8928977Y-16230903D01*
X8928977Y-16230903D02*
X8909930Y-16240427D01*
X9214691Y-16383284D02*
X9100406Y-16383284D01*
X9157549Y-16383284D02*
X9157549Y-16183284D01*
X9157549Y-16183284D02*
X9138501Y-16211855D01*
X9138501Y-16211855D02*
X9119453Y-16230903D01*
X9119453Y-16230903D02*
X9100406Y-16240427D01*
X9281358Y-16183284D02*
X9405168Y-16183284D01*
X9405168Y-16183284D02*
X9338501Y-16259474D01*
X9338501Y-16259474D02*
X9367072Y-16259474D01*
X9367072Y-16259474D02*
X9386120Y-16268998D01*
X9386120Y-16268998D02*
X9395644Y-16278522D01*
X9395644Y-16278522D02*
X9405168Y-16297569D01*
X9405168Y-16297569D02*
X9405168Y-16345188D01*
X9405168Y-16345188D02*
X9395644Y-16364236D01*
X9395644Y-16364236D02*
X9386120Y-16373760D01*
X9386120Y-16373760D02*
X9367072Y-16383284D01*
X9367072Y-16383284D02*
X9309930Y-16383284D01*
X9309930Y-16383284D02*
X9290882Y-16373760D01*
X9290882Y-16373760D02*
X9281358Y-16364236D01*
X9643263Y-16383284D02*
X9643263Y-16183284D01*
X9728977Y-16383284D02*
X9728977Y-16278522D01*
X9728977Y-16278522D02*
X9719453Y-16259474D01*
X9719453Y-16259474D02*
X9700406Y-16249950D01*
X9700406Y-16249950D02*
X9671834Y-16249950D01*
X9671834Y-16249950D02*
X9652787Y-16259474D01*
X9652787Y-16259474D02*
X9643263Y-16268998D01*
X9852787Y-16383284D02*
X9833739Y-16373760D01*
X9833739Y-16373760D02*
X9824215Y-16364236D01*
X9824215Y-16364236D02*
X9814692Y-16345188D01*
X9814692Y-16345188D02*
X9814692Y-16288046D01*
X9814692Y-16288046D02*
X9824215Y-16268998D01*
X9824215Y-16268998D02*
X9833739Y-16259474D01*
X9833739Y-16259474D02*
X9852787Y-16249950D01*
X9852787Y-16249950D02*
X9881358Y-16249950D01*
X9881358Y-16249950D02*
X9900406Y-16259474D01*
X9900406Y-16259474D02*
X9909930Y-16268998D01*
X9909930Y-16268998D02*
X9919453Y-16288046D01*
X9919453Y-16288046D02*
X9919453Y-16345188D01*
X9919453Y-16345188D02*
X9909930Y-16364236D01*
X9909930Y-16364236D02*
X9900406Y-16373760D01*
X9900406Y-16373760D02*
X9881358Y-16383284D01*
X9881358Y-16383284D02*
X9852787Y-16383284D01*
X10033739Y-16383284D02*
X10014692Y-16373760D01*
X10014692Y-16373760D02*
X10005168Y-16354712D01*
X10005168Y-16354712D02*
X10005168Y-16183284D01*
X10186120Y-16373760D02*
X10167073Y-16383284D01*
X10167073Y-16383284D02*
X10128977Y-16383284D01*
X10128977Y-16383284D02*
X10109930Y-16373760D01*
X10109930Y-16373760D02*
X10100406Y-16354712D01*
X10100406Y-16354712D02*
X10100406Y-16278522D01*
X10100406Y-16278522D02*
X10109930Y-16259474D01*
X10109930Y-16259474D02*
X10128977Y-16249950D01*
X10128977Y-16249950D02*
X10167073Y-16249950D01*
X10167073Y-16249950D02*
X10186120Y-16259474D01*
X10186120Y-16259474D02*
X10195644Y-16278522D01*
X10195644Y-16278522D02*
X10195644Y-16297569D01*
X10195644Y-16297569D02*
X10100406Y-16316617D01*
X10271834Y-16373760D02*
X10290882Y-16383284D01*
X10290882Y-16383284D02*
X10328977Y-16383284D01*
X10328977Y-16383284D02*
X10348025Y-16373760D01*
X10348025Y-16373760D02*
X10357549Y-16354712D01*
X10357549Y-16354712D02*
X10357549Y-16345188D01*
X10357549Y-16345188D02*
X10348025Y-16326141D01*
X10348025Y-16326141D02*
X10328977Y-16316617D01*
X10328977Y-16316617D02*
X10300406Y-16316617D01*
X10300406Y-16316617D02*
X10281358Y-16307093D01*
X10281358Y-16307093D02*
X10271834Y-16288046D01*
X10271834Y-16288046D02*
X10271834Y-16278522D01*
X10271834Y-16278522D02*
X10281358Y-16259474D01*
X10281358Y-16259474D02*
X10300406Y-16249950D01*
X10300406Y-16249950D02*
X10328977Y-16249950D01*
X10328977Y-16249950D02*
X10348025Y-16259474D01*
X10424215Y-16459474D02*
X10433739Y-16449950D01*
X10433739Y-16449950D02*
X10452787Y-16421379D01*
X10452787Y-16421379D02*
X10462311Y-16402331D01*
X10462311Y-16402331D02*
X10471834Y-16373760D01*
X10471834Y-16373760D02*
X10481358Y-16326141D01*
X10481358Y-16326141D02*
X10481358Y-16288046D01*
X10481358Y-16288046D02*
X10471834Y-16240427D01*
X10471834Y-16240427D02*
X10462311Y-16211855D01*
X10462311Y-16211855D02*
X10452787Y-16192808D01*
X10452787Y-16192808D02*
X10433739Y-16164236D01*
X10433739Y-16164236D02*
X10424215Y-16154712D01*
D10*
X5268200Y-16555800D02*
G75*
G03*
X5268200Y-16555800I-32500J0D01*
G01*
D11*
X5567072Y-16447284D02*
X5586120Y-16447284D01*
X5586120Y-16447284D02*
X5605167Y-16456808D01*
X5605167Y-16456808D02*
X5614691Y-16466331D01*
X5614691Y-16466331D02*
X5624215Y-16485379D01*
X5624215Y-16485379D02*
X5633739Y-16523474D01*
X5633739Y-16523474D02*
X5633739Y-16571093D01*
X5633739Y-16571093D02*
X5624215Y-16609188D01*
X5624215Y-16609188D02*
X5614691Y-16628236D01*
X5614691Y-16628236D02*
X5605167Y-16637760D01*
X5605167Y-16637760D02*
X5586120Y-16647284D01*
X5586120Y-16647284D02*
X5567072Y-16647284D01*
X5567072Y-16647284D02*
X5548024Y-16637760D01*
X5548024Y-16637760D02*
X5538501Y-16628236D01*
X5538501Y-16628236D02*
X5528977Y-16609188D01*
X5528977Y-16609188D02*
X5519453Y-16571093D01*
X5519453Y-16571093D02*
X5519453Y-16523474D01*
X5519453Y-16523474D02*
X5528977Y-16485379D01*
X5528977Y-16485379D02*
X5538501Y-16466331D01*
X5538501Y-16466331D02*
X5548024Y-16456808D01*
X5548024Y-16456808D02*
X5567072Y-16447284D01*
X5719453Y-16628236D02*
X5728977Y-16637760D01*
X5728977Y-16637760D02*
X5719453Y-16647284D01*
X5719453Y-16647284D02*
X5709929Y-16637760D01*
X5709929Y-16637760D02*
X5719453Y-16628236D01*
X5719453Y-16628236D02*
X5719453Y-16647284D01*
X5900405Y-16447284D02*
X5862310Y-16447284D01*
X5862310Y-16447284D02*
X5843262Y-16456808D01*
X5843262Y-16456808D02*
X5833739Y-16466331D01*
X5833739Y-16466331D02*
X5814691Y-16494903D01*
X5814691Y-16494903D02*
X5805167Y-16532998D01*
X5805167Y-16532998D02*
X5805167Y-16609188D01*
X5805167Y-16609188D02*
X5814691Y-16628236D01*
X5814691Y-16628236D02*
X5824215Y-16637760D01*
X5824215Y-16637760D02*
X5843262Y-16647284D01*
X5843262Y-16647284D02*
X5881358Y-16647284D01*
X5881358Y-16647284D02*
X5900405Y-16637760D01*
X5900405Y-16637760D02*
X5909929Y-16628236D01*
X5909929Y-16628236D02*
X5919453Y-16609188D01*
X5919453Y-16609188D02*
X5919453Y-16561569D01*
X5919453Y-16561569D02*
X5909929Y-16542522D01*
X5909929Y-16542522D02*
X5900405Y-16532998D01*
X5900405Y-16532998D02*
X5881358Y-16523474D01*
X5881358Y-16523474D02*
X5843262Y-16523474D01*
X5843262Y-16523474D02*
X5824215Y-16532998D01*
X5824215Y-16532998D02*
X5814691Y-16542522D01*
X5814691Y-16542522D02*
X5805167Y-16561569D01*
X6100405Y-16447284D02*
X6005167Y-16447284D01*
X6005167Y-16447284D02*
X5995643Y-16542522D01*
X5995643Y-16542522D02*
X6005167Y-16532998D01*
X6005167Y-16532998D02*
X6024215Y-16523474D01*
X6024215Y-16523474D02*
X6071834Y-16523474D01*
X6071834Y-16523474D02*
X6090882Y-16532998D01*
X6090882Y-16532998D02*
X6100405Y-16542522D01*
X6100405Y-16542522D02*
X6109929Y-16561569D01*
X6109929Y-16561569D02*
X6109929Y-16609188D01*
X6109929Y-16609188D02*
X6100405Y-16628236D01*
X6100405Y-16628236D02*
X6090882Y-16637760D01*
X6090882Y-16637760D02*
X6071834Y-16647284D01*
X6071834Y-16647284D02*
X6024215Y-16647284D01*
X6024215Y-16647284D02*
X6005167Y-16637760D01*
X6005167Y-16637760D02*
X5995643Y-16628236D01*
X6233739Y-16447284D02*
X6252786Y-16447284D01*
X6252786Y-16447284D02*
X6271834Y-16456808D01*
X6271834Y-16456808D02*
X6281358Y-16466331D01*
X6281358Y-16466331D02*
X6290882Y-16485379D01*
X6290882Y-16485379D02*
X6300405Y-16523474D01*
X6300405Y-16523474D02*
X6300405Y-16571093D01*
X6300405Y-16571093D02*
X6290882Y-16609188D01*
X6290882Y-16609188D02*
X6281358Y-16628236D01*
X6281358Y-16628236D02*
X6271834Y-16637760D01*
X6271834Y-16637760D02*
X6252786Y-16647284D01*
X6252786Y-16647284D02*
X6233739Y-16647284D01*
X6233739Y-16647284D02*
X6214691Y-16637760D01*
X6214691Y-16637760D02*
X6205167Y-16628236D01*
X6205167Y-16628236D02*
X6195643Y-16609188D01*
X6195643Y-16609188D02*
X6186120Y-16571093D01*
X6186120Y-16571093D02*
X6186120Y-16523474D01*
X6186120Y-16523474D02*
X6195643Y-16485379D01*
X6195643Y-16485379D02*
X6205167Y-16466331D01*
X6205167Y-16466331D02*
X6214691Y-16456808D01*
X6214691Y-16456808D02*
X6233739Y-16447284D01*
X6386120Y-16647284D02*
X6386120Y-16513950D01*
X6386120Y-16532998D02*
X6395643Y-16523474D01*
X6395643Y-16523474D02*
X6414691Y-16513950D01*
X6414691Y-16513950D02*
X6443263Y-16513950D01*
X6443263Y-16513950D02*
X6462310Y-16523474D01*
X6462310Y-16523474D02*
X6471834Y-16542522D01*
X6471834Y-16542522D02*
X6471834Y-16647284D01*
X6471834Y-16542522D02*
X6481358Y-16523474D01*
X6481358Y-16523474D02*
X6500405Y-16513950D01*
X6500405Y-16513950D02*
X6528977Y-16513950D01*
X6528977Y-16513950D02*
X6548024Y-16523474D01*
X6548024Y-16523474D02*
X6557548Y-16542522D01*
X6557548Y-16542522D02*
X6557548Y-16647284D01*
X6652786Y-16647284D02*
X6652786Y-16513950D01*
X6652786Y-16532998D02*
X6662310Y-16523474D01*
X6662310Y-16523474D02*
X6681358Y-16513950D01*
X6681358Y-16513950D02*
X6709929Y-16513950D01*
X6709929Y-16513950D02*
X6728977Y-16523474D01*
X6728977Y-16523474D02*
X6738501Y-16542522D01*
X6738501Y-16542522D02*
X6738501Y-16647284D01*
X6738501Y-16542522D02*
X6748024Y-16523474D01*
X6748024Y-16523474D02*
X6767072Y-16513950D01*
X6767072Y-16513950D02*
X6795643Y-16513950D01*
X6795643Y-16513950D02*
X6814691Y-16523474D01*
X6814691Y-16523474D02*
X6824215Y-16542522D01*
X6824215Y-16542522D02*
X6824215Y-16647284D01*
X7214691Y-16437760D02*
X7043263Y-16694903D01*
X7471834Y-16447284D02*
X7490882Y-16447284D01*
X7490882Y-16447284D02*
X7509929Y-16456808D01*
X7509929Y-16456808D02*
X7519453Y-16466331D01*
X7519453Y-16466331D02*
X7528977Y-16485379D01*
X7528977Y-16485379D02*
X7538501Y-16523474D01*
X7538501Y-16523474D02*
X7538501Y-16571093D01*
X7538501Y-16571093D02*
X7528977Y-16609188D01*
X7528977Y-16609188D02*
X7519453Y-16628236D01*
X7519453Y-16628236D02*
X7509929Y-16637760D01*
X7509929Y-16637760D02*
X7490882Y-16647284D01*
X7490882Y-16647284D02*
X7471834Y-16647284D01*
X7471834Y-16647284D02*
X7452786Y-16637760D01*
X7452786Y-16637760D02*
X7443263Y-16628236D01*
X7443263Y-16628236D02*
X7433739Y-16609188D01*
X7433739Y-16609188D02*
X7424215Y-16571093D01*
X7424215Y-16571093D02*
X7424215Y-16523474D01*
X7424215Y-16523474D02*
X7433739Y-16485379D01*
X7433739Y-16485379D02*
X7443263Y-16466331D01*
X7443263Y-16466331D02*
X7452786Y-16456808D01*
X7452786Y-16456808D02*
X7471834Y-16447284D01*
X7624215Y-16628236D02*
X7633739Y-16637760D01*
X7633739Y-16637760D02*
X7624215Y-16647284D01*
X7624215Y-16647284D02*
X7614691Y-16637760D01*
X7614691Y-16637760D02*
X7624215Y-16628236D01*
X7624215Y-16628236D02*
X7624215Y-16647284D01*
X7757548Y-16447284D02*
X7776596Y-16447284D01*
X7776596Y-16447284D02*
X7795644Y-16456808D01*
X7795644Y-16456808D02*
X7805167Y-16466331D01*
X7805167Y-16466331D02*
X7814691Y-16485379D01*
X7814691Y-16485379D02*
X7824215Y-16523474D01*
X7824215Y-16523474D02*
X7824215Y-16571093D01*
X7824215Y-16571093D02*
X7814691Y-16609188D01*
X7814691Y-16609188D02*
X7805167Y-16628236D01*
X7805167Y-16628236D02*
X7795644Y-16637760D01*
X7795644Y-16637760D02*
X7776596Y-16647284D01*
X7776596Y-16647284D02*
X7757548Y-16647284D01*
X7757548Y-16647284D02*
X7738501Y-16637760D01*
X7738501Y-16637760D02*
X7728977Y-16628236D01*
X7728977Y-16628236D02*
X7719453Y-16609188D01*
X7719453Y-16609188D02*
X7709929Y-16571093D01*
X7709929Y-16571093D02*
X7709929Y-16523474D01*
X7709929Y-16523474D02*
X7719453Y-16485379D01*
X7719453Y-16485379D02*
X7728977Y-16466331D01*
X7728977Y-16466331D02*
X7738501Y-16456808D01*
X7738501Y-16456808D02*
X7757548Y-16447284D01*
X7900406Y-16466331D02*
X7909929Y-16456808D01*
X7909929Y-16456808D02*
X7928977Y-16447284D01*
X7928977Y-16447284D02*
X7976596Y-16447284D01*
X7976596Y-16447284D02*
X7995644Y-16456808D01*
X7995644Y-16456808D02*
X8005167Y-16466331D01*
X8005167Y-16466331D02*
X8014691Y-16485379D01*
X8014691Y-16485379D02*
X8014691Y-16504427D01*
X8014691Y-16504427D02*
X8005167Y-16532998D01*
X8005167Y-16532998D02*
X7890882Y-16647284D01*
X7890882Y-16647284D02*
X8014691Y-16647284D01*
X8195644Y-16447284D02*
X8100406Y-16447284D01*
X8100406Y-16447284D02*
X8090882Y-16542522D01*
X8090882Y-16542522D02*
X8100406Y-16532998D01*
X8100406Y-16532998D02*
X8119453Y-16523474D01*
X8119453Y-16523474D02*
X8167072Y-16523474D01*
X8167072Y-16523474D02*
X8186120Y-16532998D01*
X8186120Y-16532998D02*
X8195644Y-16542522D01*
X8195644Y-16542522D02*
X8205167Y-16561569D01*
X8205167Y-16561569D02*
X8205167Y-16609188D01*
X8205167Y-16609188D02*
X8195644Y-16628236D01*
X8195644Y-16628236D02*
X8186120Y-16637760D01*
X8186120Y-16637760D02*
X8167072Y-16647284D01*
X8167072Y-16647284D02*
X8119453Y-16647284D01*
X8119453Y-16647284D02*
X8100406Y-16637760D01*
X8100406Y-16637760D02*
X8090882Y-16628236D01*
X8376596Y-16447284D02*
X8338501Y-16447284D01*
X8338501Y-16447284D02*
X8319453Y-16456808D01*
X8319453Y-16456808D02*
X8309929Y-16466331D01*
X8309929Y-16466331D02*
X8290882Y-16494903D01*
X8290882Y-16494903D02*
X8281358Y-16532998D01*
X8281358Y-16532998D02*
X8281358Y-16609188D01*
X8281358Y-16609188D02*
X8290882Y-16628236D01*
X8290882Y-16628236D02*
X8300406Y-16637760D01*
X8300406Y-16637760D02*
X8319453Y-16647284D01*
X8319453Y-16647284D02*
X8357548Y-16647284D01*
X8357548Y-16647284D02*
X8376596Y-16637760D01*
X8376596Y-16637760D02*
X8386120Y-16628236D01*
X8386120Y-16628236D02*
X8395644Y-16609188D01*
X8395644Y-16609188D02*
X8395644Y-16561569D01*
X8395644Y-16561569D02*
X8386120Y-16542522D01*
X8386120Y-16542522D02*
X8376596Y-16532998D01*
X8376596Y-16532998D02*
X8357548Y-16523474D01*
X8357548Y-16523474D02*
X8319453Y-16523474D01*
X8319453Y-16523474D02*
X8300406Y-16532998D01*
X8300406Y-16532998D02*
X8290882Y-16542522D01*
X8290882Y-16542522D02*
X8281358Y-16561569D01*
X8471834Y-16447284D02*
X8471834Y-16485379D01*
X8548025Y-16447284D02*
X8548025Y-16485379D01*
X8843263Y-16723474D02*
X8833739Y-16713950D01*
X8833739Y-16713950D02*
X8814691Y-16685379D01*
X8814691Y-16685379D02*
X8805168Y-16666331D01*
X8805168Y-16666331D02*
X8795644Y-16637760D01*
X8795644Y-16637760D02*
X8786120Y-16590141D01*
X8786120Y-16590141D02*
X8786120Y-16552046D01*
X8786120Y-16552046D02*
X8795644Y-16504427D01*
X8795644Y-16504427D02*
X8805168Y-16475855D01*
X8805168Y-16475855D02*
X8814691Y-16456808D01*
X8814691Y-16456808D02*
X8833739Y-16428236D01*
X8833739Y-16428236D02*
X8843263Y-16418712D01*
X8957549Y-16447284D02*
X8976596Y-16447284D01*
X8976596Y-16447284D02*
X8995644Y-16456808D01*
X8995644Y-16456808D02*
X9005168Y-16466331D01*
X9005168Y-16466331D02*
X9014691Y-16485379D01*
X9014691Y-16485379D02*
X9024215Y-16523474D01*
X9024215Y-16523474D02*
X9024215Y-16571093D01*
X9024215Y-16571093D02*
X9014691Y-16609188D01*
X9014691Y-16609188D02*
X9005168Y-16628236D01*
X9005168Y-16628236D02*
X8995644Y-16637760D01*
X8995644Y-16637760D02*
X8976596Y-16647284D01*
X8976596Y-16647284D02*
X8957549Y-16647284D01*
X8957549Y-16647284D02*
X8938501Y-16637760D01*
X8938501Y-16637760D02*
X8928977Y-16628236D01*
X8928977Y-16628236D02*
X8919453Y-16609188D01*
X8919453Y-16609188D02*
X8909930Y-16571093D01*
X8909930Y-16571093D02*
X8909930Y-16523474D01*
X8909930Y-16523474D02*
X8919453Y-16485379D01*
X8919453Y-16485379D02*
X8928977Y-16466331D01*
X8928977Y-16466331D02*
X8938501Y-16456808D01*
X8938501Y-16456808D02*
X8957549Y-16447284D01*
X9262311Y-16647284D02*
X9262311Y-16447284D01*
X9348025Y-16647284D02*
X9348025Y-16542522D01*
X9348025Y-16542522D02*
X9338501Y-16523474D01*
X9338501Y-16523474D02*
X9319453Y-16513950D01*
X9319453Y-16513950D02*
X9290882Y-16513950D01*
X9290882Y-16513950D02*
X9271834Y-16523474D01*
X9271834Y-16523474D02*
X9262311Y-16532998D01*
X9471834Y-16647284D02*
X9452787Y-16637760D01*
X9452787Y-16637760D02*
X9443263Y-16628236D01*
X9443263Y-16628236D02*
X9433739Y-16609188D01*
X9433739Y-16609188D02*
X9433739Y-16552046D01*
X9433739Y-16552046D02*
X9443263Y-16532998D01*
X9443263Y-16532998D02*
X9452787Y-16523474D01*
X9452787Y-16523474D02*
X9471834Y-16513950D01*
X9471834Y-16513950D02*
X9500406Y-16513950D01*
X9500406Y-16513950D02*
X9519453Y-16523474D01*
X9519453Y-16523474D02*
X9528977Y-16532998D01*
X9528977Y-16532998D02*
X9538501Y-16552046D01*
X9538501Y-16552046D02*
X9538501Y-16609188D01*
X9538501Y-16609188D02*
X9528977Y-16628236D01*
X9528977Y-16628236D02*
X9519453Y-16637760D01*
X9519453Y-16637760D02*
X9500406Y-16647284D01*
X9500406Y-16647284D02*
X9471834Y-16647284D01*
X9652787Y-16647284D02*
X9633739Y-16637760D01*
X9633739Y-16637760D02*
X9624215Y-16618712D01*
X9624215Y-16618712D02*
X9624215Y-16447284D01*
X9805168Y-16637760D02*
X9786120Y-16647284D01*
X9786120Y-16647284D02*
X9748025Y-16647284D01*
X9748025Y-16647284D02*
X9728977Y-16637760D01*
X9728977Y-16637760D02*
X9719453Y-16618712D01*
X9719453Y-16618712D02*
X9719453Y-16542522D01*
X9719453Y-16542522D02*
X9728977Y-16523474D01*
X9728977Y-16523474D02*
X9748025Y-16513950D01*
X9748025Y-16513950D02*
X9786120Y-16513950D01*
X9786120Y-16513950D02*
X9805168Y-16523474D01*
X9805168Y-16523474D02*
X9814692Y-16542522D01*
X9814692Y-16542522D02*
X9814692Y-16561569D01*
X9814692Y-16561569D02*
X9719453Y-16580617D01*
X9890882Y-16637760D02*
X9909930Y-16647284D01*
X9909930Y-16647284D02*
X9948025Y-16647284D01*
X9948025Y-16647284D02*
X9967073Y-16637760D01*
X9967073Y-16637760D02*
X9976596Y-16618712D01*
X9976596Y-16618712D02*
X9976596Y-16609188D01*
X9976596Y-16609188D02*
X9967073Y-16590141D01*
X9967073Y-16590141D02*
X9948025Y-16580617D01*
X9948025Y-16580617D02*
X9919453Y-16580617D01*
X9919453Y-16580617D02*
X9900406Y-16571093D01*
X9900406Y-16571093D02*
X9890882Y-16552046D01*
X9890882Y-16552046D02*
X9890882Y-16542522D01*
X9890882Y-16542522D02*
X9900406Y-16523474D01*
X9900406Y-16523474D02*
X9919453Y-16513950D01*
X9919453Y-16513950D02*
X9948025Y-16513950D01*
X9948025Y-16513950D02*
X9967073Y-16523474D01*
X10214692Y-16571093D02*
X10367073Y-16571093D01*
X10290882Y-16647284D02*
X10290882Y-16494903D01*
X10605168Y-16466331D02*
X10614692Y-16456808D01*
X10614692Y-16456808D02*
X10633739Y-16447284D01*
X10633739Y-16447284D02*
X10681358Y-16447284D01*
X10681358Y-16447284D02*
X10700406Y-16456808D01*
X10700406Y-16456808D02*
X10709930Y-16466331D01*
X10709930Y-16466331D02*
X10719454Y-16485379D01*
X10719454Y-16485379D02*
X10719454Y-16504427D01*
X10719454Y-16504427D02*
X10709930Y-16532998D01*
X10709930Y-16532998D02*
X10595644Y-16647284D01*
X10595644Y-16647284D02*
X10719454Y-16647284D01*
X10948025Y-16637760D02*
X10967073Y-16647284D01*
X10967073Y-16647284D02*
X11005168Y-16647284D01*
X11005168Y-16647284D02*
X11024216Y-16637760D01*
X11024216Y-16637760D02*
X11033739Y-16618712D01*
X11033739Y-16618712D02*
X11033739Y-16609188D01*
X11033739Y-16609188D02*
X11024216Y-16590141D01*
X11024216Y-16590141D02*
X11005168Y-16580617D01*
X11005168Y-16580617D02*
X10976596Y-16580617D01*
X10976596Y-16580617D02*
X10957549Y-16571093D01*
X10957549Y-16571093D02*
X10948025Y-16552046D01*
X10948025Y-16552046D02*
X10948025Y-16542522D01*
X10948025Y-16542522D02*
X10957549Y-16523474D01*
X10957549Y-16523474D02*
X10976596Y-16513950D01*
X10976596Y-16513950D02*
X11005168Y-16513950D01*
X11005168Y-16513950D02*
X11024216Y-16523474D01*
X11148025Y-16647284D02*
X11128977Y-16637760D01*
X11128977Y-16637760D02*
X11119454Y-16618712D01*
X11119454Y-16618712D02*
X11119454Y-16447284D01*
X11252787Y-16647284D02*
X11233739Y-16637760D01*
X11233739Y-16637760D02*
X11224215Y-16628236D01*
X11224215Y-16628236D02*
X11214692Y-16609188D01*
X11214692Y-16609188D02*
X11214692Y-16552046D01*
X11214692Y-16552046D02*
X11224215Y-16532998D01*
X11224215Y-16532998D02*
X11233739Y-16523474D01*
X11233739Y-16523474D02*
X11252787Y-16513950D01*
X11252787Y-16513950D02*
X11281358Y-16513950D01*
X11281358Y-16513950D02*
X11300406Y-16523474D01*
X11300406Y-16523474D02*
X11309930Y-16532998D01*
X11309930Y-16532998D02*
X11319454Y-16552046D01*
X11319454Y-16552046D02*
X11319454Y-16609188D01*
X11319454Y-16609188D02*
X11309930Y-16628236D01*
X11309930Y-16628236D02*
X11300406Y-16637760D01*
X11300406Y-16637760D02*
X11281358Y-16647284D01*
X11281358Y-16647284D02*
X11252787Y-16647284D01*
X11376596Y-16513950D02*
X11452787Y-16513950D01*
X11405168Y-16447284D02*
X11405168Y-16618712D01*
X11405168Y-16618712D02*
X11414692Y-16637760D01*
X11414692Y-16637760D02*
X11433739Y-16647284D01*
X11433739Y-16647284D02*
X11452787Y-16647284D01*
X11509930Y-16637760D02*
X11528977Y-16647284D01*
X11528977Y-16647284D02*
X11567073Y-16647284D01*
X11567073Y-16647284D02*
X11586120Y-16637760D01*
X11586120Y-16637760D02*
X11595644Y-16618712D01*
X11595644Y-16618712D02*
X11595644Y-16609188D01*
X11595644Y-16609188D02*
X11586120Y-16590141D01*
X11586120Y-16590141D02*
X11567073Y-16580617D01*
X11567073Y-16580617D02*
X11538501Y-16580617D01*
X11538501Y-16580617D02*
X11519454Y-16571093D01*
X11519454Y-16571093D02*
X11509930Y-16552046D01*
X11509930Y-16552046D02*
X11509930Y-16542522D01*
X11509930Y-16542522D02*
X11519454Y-16523474D01*
X11519454Y-16523474D02*
X11538501Y-16513950D01*
X11538501Y-16513950D02*
X11567073Y-16513950D01*
X11567073Y-16513950D02*
X11586120Y-16523474D01*
X11662311Y-16723474D02*
X11671835Y-16713950D01*
X11671835Y-16713950D02*
X11690882Y-16685379D01*
X11690882Y-16685379D02*
X11700406Y-16666331D01*
X11700406Y-16666331D02*
X11709930Y-16637760D01*
X11709930Y-16637760D02*
X11719454Y-16590141D01*
X11719454Y-16590141D02*
X11719454Y-16552046D01*
X11719454Y-16552046D02*
X11709930Y-16504427D01*
X11709930Y-16504427D02*
X11700406Y-16475855D01*
X11700406Y-16475855D02*
X11690882Y-16456808D01*
X11690882Y-16456808D02*
X11671835Y-16428236D01*
X11671835Y-16428236D02*
X11662311Y-16418712D01*
D10*
X5226700Y-16778300D02*
X5226700Y-16861300D01*
X5185200Y-16819800D02*
X5268200Y-16819800D01*
D11*
X5567072Y-16711284D02*
X5586120Y-16711284D01*
X5586120Y-16711284D02*
X5605167Y-16720808D01*
X5605167Y-16720808D02*
X5614691Y-16730331D01*
X5614691Y-16730331D02*
X5624215Y-16749379D01*
X5624215Y-16749379D02*
X5633739Y-16787474D01*
X5633739Y-16787474D02*
X5633739Y-16835093D01*
X5633739Y-16835093D02*
X5624215Y-16873189D01*
X5624215Y-16873189D02*
X5614691Y-16892236D01*
X5614691Y-16892236D02*
X5605167Y-16901760D01*
X5605167Y-16901760D02*
X5586120Y-16911284D01*
X5586120Y-16911284D02*
X5567072Y-16911284D01*
X5567072Y-16911284D02*
X5548024Y-16901760D01*
X5548024Y-16901760D02*
X5538501Y-16892236D01*
X5538501Y-16892236D02*
X5528977Y-16873189D01*
X5528977Y-16873189D02*
X5519453Y-16835093D01*
X5519453Y-16835093D02*
X5519453Y-16787474D01*
X5519453Y-16787474D02*
X5528977Y-16749379D01*
X5528977Y-16749379D02*
X5538501Y-16730331D01*
X5538501Y-16730331D02*
X5548024Y-16720808D01*
X5548024Y-16720808D02*
X5567072Y-16711284D01*
X5719453Y-16892236D02*
X5728977Y-16901760D01*
X5728977Y-16901760D02*
X5719453Y-16911284D01*
X5719453Y-16911284D02*
X5709929Y-16901760D01*
X5709929Y-16901760D02*
X5719453Y-16892236D01*
X5719453Y-16892236D02*
X5719453Y-16911284D01*
X5843262Y-16796998D02*
X5824215Y-16787474D01*
X5824215Y-16787474D02*
X5814691Y-16777950D01*
X5814691Y-16777950D02*
X5805167Y-16758903D01*
X5805167Y-16758903D02*
X5805167Y-16749379D01*
X5805167Y-16749379D02*
X5814691Y-16730331D01*
X5814691Y-16730331D02*
X5824215Y-16720808D01*
X5824215Y-16720808D02*
X5843262Y-16711284D01*
X5843262Y-16711284D02*
X5881358Y-16711284D01*
X5881358Y-16711284D02*
X5900405Y-16720808D01*
X5900405Y-16720808D02*
X5909929Y-16730331D01*
X5909929Y-16730331D02*
X5919453Y-16749379D01*
X5919453Y-16749379D02*
X5919453Y-16758903D01*
X5919453Y-16758903D02*
X5909929Y-16777950D01*
X5909929Y-16777950D02*
X5900405Y-16787474D01*
X5900405Y-16787474D02*
X5881358Y-16796998D01*
X5881358Y-16796998D02*
X5843262Y-16796998D01*
X5843262Y-16796998D02*
X5824215Y-16806522D01*
X5824215Y-16806522D02*
X5814691Y-16816046D01*
X5814691Y-16816046D02*
X5805167Y-16835093D01*
X5805167Y-16835093D02*
X5805167Y-16873189D01*
X5805167Y-16873189D02*
X5814691Y-16892236D01*
X5814691Y-16892236D02*
X5824215Y-16901760D01*
X5824215Y-16901760D02*
X5843262Y-16911284D01*
X5843262Y-16911284D02*
X5881358Y-16911284D01*
X5881358Y-16911284D02*
X5900405Y-16901760D01*
X5900405Y-16901760D02*
X5909929Y-16892236D01*
X5909929Y-16892236D02*
X5919453Y-16873189D01*
X5919453Y-16873189D02*
X5919453Y-16835093D01*
X5919453Y-16835093D02*
X5909929Y-16816046D01*
X5909929Y-16816046D02*
X5900405Y-16806522D01*
X5900405Y-16806522D02*
X5881358Y-16796998D01*
X5986120Y-16711284D02*
X6109929Y-16711284D01*
X6109929Y-16711284D02*
X6043262Y-16787474D01*
X6043262Y-16787474D02*
X6071834Y-16787474D01*
X6071834Y-16787474D02*
X6090882Y-16796998D01*
X6090882Y-16796998D02*
X6100405Y-16806522D01*
X6100405Y-16806522D02*
X6109929Y-16825570D01*
X6109929Y-16825570D02*
X6109929Y-16873189D01*
X6109929Y-16873189D02*
X6100405Y-16892236D01*
X6100405Y-16892236D02*
X6090882Y-16901760D01*
X6090882Y-16901760D02*
X6071834Y-16911284D01*
X6071834Y-16911284D02*
X6014691Y-16911284D01*
X6014691Y-16911284D02*
X5995643Y-16901760D01*
X5995643Y-16901760D02*
X5986120Y-16892236D01*
X6233739Y-16711284D02*
X6252786Y-16711284D01*
X6252786Y-16711284D02*
X6271834Y-16720808D01*
X6271834Y-16720808D02*
X6281358Y-16730331D01*
X6281358Y-16730331D02*
X6290882Y-16749379D01*
X6290882Y-16749379D02*
X6300405Y-16787474D01*
X6300405Y-16787474D02*
X6300405Y-16835093D01*
X6300405Y-16835093D02*
X6290882Y-16873189D01*
X6290882Y-16873189D02*
X6281358Y-16892236D01*
X6281358Y-16892236D02*
X6271834Y-16901760D01*
X6271834Y-16901760D02*
X6252786Y-16911284D01*
X6252786Y-16911284D02*
X6233739Y-16911284D01*
X6233739Y-16911284D02*
X6214691Y-16901760D01*
X6214691Y-16901760D02*
X6205167Y-16892236D01*
X6205167Y-16892236D02*
X6195643Y-16873189D01*
X6195643Y-16873189D02*
X6186120Y-16835093D01*
X6186120Y-16835093D02*
X6186120Y-16787474D01*
X6186120Y-16787474D02*
X6195643Y-16749379D01*
X6195643Y-16749379D02*
X6205167Y-16730331D01*
X6205167Y-16730331D02*
X6214691Y-16720808D01*
X6214691Y-16720808D02*
X6233739Y-16711284D01*
X6386120Y-16911284D02*
X6386120Y-16777950D01*
X6386120Y-16796998D02*
X6395643Y-16787474D01*
X6395643Y-16787474D02*
X6414691Y-16777950D01*
X6414691Y-16777950D02*
X6443263Y-16777950D01*
X6443263Y-16777950D02*
X6462310Y-16787474D01*
X6462310Y-16787474D02*
X6471834Y-16806522D01*
X6471834Y-16806522D02*
X6471834Y-16911284D01*
X6471834Y-16806522D02*
X6481358Y-16787474D01*
X6481358Y-16787474D02*
X6500405Y-16777950D01*
X6500405Y-16777950D02*
X6528977Y-16777950D01*
X6528977Y-16777950D02*
X6548024Y-16787474D01*
X6548024Y-16787474D02*
X6557548Y-16806522D01*
X6557548Y-16806522D02*
X6557548Y-16911284D01*
X6652786Y-16911284D02*
X6652786Y-16777950D01*
X6652786Y-16796998D02*
X6662310Y-16787474D01*
X6662310Y-16787474D02*
X6681358Y-16777950D01*
X6681358Y-16777950D02*
X6709929Y-16777950D01*
X6709929Y-16777950D02*
X6728977Y-16787474D01*
X6728977Y-16787474D02*
X6738501Y-16806522D01*
X6738501Y-16806522D02*
X6738501Y-16911284D01*
X6738501Y-16806522D02*
X6748024Y-16787474D01*
X6748024Y-16787474D02*
X6767072Y-16777950D01*
X6767072Y-16777950D02*
X6795643Y-16777950D01*
X6795643Y-16777950D02*
X6814691Y-16787474D01*
X6814691Y-16787474D02*
X6824215Y-16806522D01*
X6824215Y-16806522D02*
X6824215Y-16911284D01*
X7214691Y-16701760D02*
X7043263Y-16958903D01*
X7471834Y-16711284D02*
X7490882Y-16711284D01*
X7490882Y-16711284D02*
X7509929Y-16720808D01*
X7509929Y-16720808D02*
X7519453Y-16730331D01*
X7519453Y-16730331D02*
X7528977Y-16749379D01*
X7528977Y-16749379D02*
X7538501Y-16787474D01*
X7538501Y-16787474D02*
X7538501Y-16835093D01*
X7538501Y-16835093D02*
X7528977Y-16873189D01*
X7528977Y-16873189D02*
X7519453Y-16892236D01*
X7519453Y-16892236D02*
X7509929Y-16901760D01*
X7509929Y-16901760D02*
X7490882Y-16911284D01*
X7490882Y-16911284D02*
X7471834Y-16911284D01*
X7471834Y-16911284D02*
X7452786Y-16901760D01*
X7452786Y-16901760D02*
X7443263Y-16892236D01*
X7443263Y-16892236D02*
X7433739Y-16873189D01*
X7433739Y-16873189D02*
X7424215Y-16835093D01*
X7424215Y-16835093D02*
X7424215Y-16787474D01*
X7424215Y-16787474D02*
X7433739Y-16749379D01*
X7433739Y-16749379D02*
X7443263Y-16730331D01*
X7443263Y-16730331D02*
X7452786Y-16720808D01*
X7452786Y-16720808D02*
X7471834Y-16711284D01*
X7624215Y-16892236D02*
X7633739Y-16901760D01*
X7633739Y-16901760D02*
X7624215Y-16911284D01*
X7624215Y-16911284D02*
X7614691Y-16901760D01*
X7614691Y-16901760D02*
X7624215Y-16892236D01*
X7624215Y-16892236D02*
X7624215Y-16911284D01*
X7757548Y-16711284D02*
X7776596Y-16711284D01*
X7776596Y-16711284D02*
X7795644Y-16720808D01*
X7795644Y-16720808D02*
X7805167Y-16730331D01*
X7805167Y-16730331D02*
X7814691Y-16749379D01*
X7814691Y-16749379D02*
X7824215Y-16787474D01*
X7824215Y-16787474D02*
X7824215Y-16835093D01*
X7824215Y-16835093D02*
X7814691Y-16873189D01*
X7814691Y-16873189D02*
X7805167Y-16892236D01*
X7805167Y-16892236D02*
X7795644Y-16901760D01*
X7795644Y-16901760D02*
X7776596Y-16911284D01*
X7776596Y-16911284D02*
X7757548Y-16911284D01*
X7757548Y-16911284D02*
X7738501Y-16901760D01*
X7738501Y-16901760D02*
X7728977Y-16892236D01*
X7728977Y-16892236D02*
X7719453Y-16873189D01*
X7719453Y-16873189D02*
X7709929Y-16835093D01*
X7709929Y-16835093D02*
X7709929Y-16787474D01*
X7709929Y-16787474D02*
X7719453Y-16749379D01*
X7719453Y-16749379D02*
X7728977Y-16730331D01*
X7728977Y-16730331D02*
X7738501Y-16720808D01*
X7738501Y-16720808D02*
X7757548Y-16711284D01*
X7890882Y-16711284D02*
X8014691Y-16711284D01*
X8014691Y-16711284D02*
X7948025Y-16787474D01*
X7948025Y-16787474D02*
X7976596Y-16787474D01*
X7976596Y-16787474D02*
X7995644Y-16796998D01*
X7995644Y-16796998D02*
X8005167Y-16806522D01*
X8005167Y-16806522D02*
X8014691Y-16825570D01*
X8014691Y-16825570D02*
X8014691Y-16873189D01*
X8014691Y-16873189D02*
X8005167Y-16892236D01*
X8005167Y-16892236D02*
X7995644Y-16901760D01*
X7995644Y-16901760D02*
X7976596Y-16911284D01*
X7976596Y-16911284D02*
X7919453Y-16911284D01*
X7919453Y-16911284D02*
X7900406Y-16901760D01*
X7900406Y-16901760D02*
X7890882Y-16892236D01*
X8090882Y-16730331D02*
X8100406Y-16720808D01*
X8100406Y-16720808D02*
X8119453Y-16711284D01*
X8119453Y-16711284D02*
X8167072Y-16711284D01*
X8167072Y-16711284D02*
X8186120Y-16720808D01*
X8186120Y-16720808D02*
X8195644Y-16730331D01*
X8195644Y-16730331D02*
X8205167Y-16749379D01*
X8205167Y-16749379D02*
X8205167Y-16768427D01*
X8205167Y-16768427D02*
X8195644Y-16796998D01*
X8195644Y-16796998D02*
X8081358Y-16911284D01*
X8081358Y-16911284D02*
X8205167Y-16911284D01*
X8271834Y-16711284D02*
X8405168Y-16711284D01*
X8405168Y-16711284D02*
X8319453Y-16911284D01*
X8471834Y-16711284D02*
X8471834Y-16749379D01*
X8548025Y-16711284D02*
X8548025Y-16749379D01*
X8843263Y-16987474D02*
X8833739Y-16977950D01*
X8833739Y-16977950D02*
X8814691Y-16949379D01*
X8814691Y-16949379D02*
X8805168Y-16930331D01*
X8805168Y-16930331D02*
X8795644Y-16901760D01*
X8795644Y-16901760D02*
X8786120Y-16854141D01*
X8786120Y-16854141D02*
X8786120Y-16816046D01*
X8786120Y-16816046D02*
X8795644Y-16768427D01*
X8795644Y-16768427D02*
X8805168Y-16739855D01*
X8805168Y-16739855D02*
X8814691Y-16720808D01*
X8814691Y-16720808D02*
X8833739Y-16692236D01*
X8833739Y-16692236D02*
X8843263Y-16682712D01*
X8957549Y-16711284D02*
X8976596Y-16711284D01*
X8976596Y-16711284D02*
X8995644Y-16720808D01*
X8995644Y-16720808D02*
X9005168Y-16730331D01*
X9005168Y-16730331D02*
X9014691Y-16749379D01*
X9014691Y-16749379D02*
X9024215Y-16787474D01*
X9024215Y-16787474D02*
X9024215Y-16835093D01*
X9024215Y-16835093D02*
X9014691Y-16873189D01*
X9014691Y-16873189D02*
X9005168Y-16892236D01*
X9005168Y-16892236D02*
X8995644Y-16901760D01*
X8995644Y-16901760D02*
X8976596Y-16911284D01*
X8976596Y-16911284D02*
X8957549Y-16911284D01*
X8957549Y-16911284D02*
X8938501Y-16901760D01*
X8938501Y-16901760D02*
X8928977Y-16892236D01*
X8928977Y-16892236D02*
X8919453Y-16873189D01*
X8919453Y-16873189D02*
X8909930Y-16835093D01*
X8909930Y-16835093D02*
X8909930Y-16787474D01*
X8909930Y-16787474D02*
X8919453Y-16749379D01*
X8919453Y-16749379D02*
X8928977Y-16730331D01*
X8928977Y-16730331D02*
X8938501Y-16720808D01*
X8938501Y-16720808D02*
X8957549Y-16711284D01*
X9262311Y-16911284D02*
X9262311Y-16711284D01*
X9348025Y-16911284D02*
X9348025Y-16806522D01*
X9348025Y-16806522D02*
X9338501Y-16787474D01*
X9338501Y-16787474D02*
X9319453Y-16777950D01*
X9319453Y-16777950D02*
X9290882Y-16777950D01*
X9290882Y-16777950D02*
X9271834Y-16787474D01*
X9271834Y-16787474D02*
X9262311Y-16796998D01*
X9471834Y-16911284D02*
X9452787Y-16901760D01*
X9452787Y-16901760D02*
X9443263Y-16892236D01*
X9443263Y-16892236D02*
X9433739Y-16873189D01*
X9433739Y-16873189D02*
X9433739Y-16816046D01*
X9433739Y-16816046D02*
X9443263Y-16796998D01*
X9443263Y-16796998D02*
X9452787Y-16787474D01*
X9452787Y-16787474D02*
X9471834Y-16777950D01*
X9471834Y-16777950D02*
X9500406Y-16777950D01*
X9500406Y-16777950D02*
X9519453Y-16787474D01*
X9519453Y-16787474D02*
X9528977Y-16796998D01*
X9528977Y-16796998D02*
X9538501Y-16816046D01*
X9538501Y-16816046D02*
X9538501Y-16873189D01*
X9538501Y-16873189D02*
X9528977Y-16892236D01*
X9528977Y-16892236D02*
X9519453Y-16901760D01*
X9519453Y-16901760D02*
X9500406Y-16911284D01*
X9500406Y-16911284D02*
X9471834Y-16911284D01*
X9652787Y-16911284D02*
X9633739Y-16901760D01*
X9633739Y-16901760D02*
X9624215Y-16882712D01*
X9624215Y-16882712D02*
X9624215Y-16711284D01*
X9805168Y-16901760D02*
X9786120Y-16911284D01*
X9786120Y-16911284D02*
X9748025Y-16911284D01*
X9748025Y-16911284D02*
X9728977Y-16901760D01*
X9728977Y-16901760D02*
X9719453Y-16882712D01*
X9719453Y-16882712D02*
X9719453Y-16806522D01*
X9719453Y-16806522D02*
X9728977Y-16787474D01*
X9728977Y-16787474D02*
X9748025Y-16777950D01*
X9748025Y-16777950D02*
X9786120Y-16777950D01*
X9786120Y-16777950D02*
X9805168Y-16787474D01*
X9805168Y-16787474D02*
X9814692Y-16806522D01*
X9814692Y-16806522D02*
X9814692Y-16825570D01*
X9814692Y-16825570D02*
X9719453Y-16844617D01*
X9890882Y-16901760D02*
X9909930Y-16911284D01*
X9909930Y-16911284D02*
X9948025Y-16911284D01*
X9948025Y-16911284D02*
X9967073Y-16901760D01*
X9967073Y-16901760D02*
X9976596Y-16882712D01*
X9976596Y-16882712D02*
X9976596Y-16873189D01*
X9976596Y-16873189D02*
X9967073Y-16854141D01*
X9967073Y-16854141D02*
X9948025Y-16844617D01*
X9948025Y-16844617D02*
X9919453Y-16844617D01*
X9919453Y-16844617D02*
X9900406Y-16835093D01*
X9900406Y-16835093D02*
X9890882Y-16816046D01*
X9890882Y-16816046D02*
X9890882Y-16806522D01*
X9890882Y-16806522D02*
X9900406Y-16787474D01*
X9900406Y-16787474D02*
X9919453Y-16777950D01*
X9919453Y-16777950D02*
X9948025Y-16777950D01*
X9948025Y-16777950D02*
X9967073Y-16787474D01*
X10214692Y-16835093D02*
X10367073Y-16835093D01*
X10290882Y-16911284D02*
X10290882Y-16758903D01*
X10605168Y-16730331D02*
X10614692Y-16720808D01*
X10614692Y-16720808D02*
X10633739Y-16711284D01*
X10633739Y-16711284D02*
X10681358Y-16711284D01*
X10681358Y-16711284D02*
X10700406Y-16720808D01*
X10700406Y-16720808D02*
X10709930Y-16730331D01*
X10709930Y-16730331D02*
X10719454Y-16749379D01*
X10719454Y-16749379D02*
X10719454Y-16768427D01*
X10719454Y-16768427D02*
X10709930Y-16796998D01*
X10709930Y-16796998D02*
X10595644Y-16911284D01*
X10595644Y-16911284D02*
X10719454Y-16911284D01*
X10948025Y-16901760D02*
X10967073Y-16911284D01*
X10967073Y-16911284D02*
X11005168Y-16911284D01*
X11005168Y-16911284D02*
X11024216Y-16901760D01*
X11024216Y-16901760D02*
X11033739Y-16882712D01*
X11033739Y-16882712D02*
X11033739Y-16873189D01*
X11033739Y-16873189D02*
X11024216Y-16854141D01*
X11024216Y-16854141D02*
X11005168Y-16844617D01*
X11005168Y-16844617D02*
X10976596Y-16844617D01*
X10976596Y-16844617D02*
X10957549Y-16835093D01*
X10957549Y-16835093D02*
X10948025Y-16816046D01*
X10948025Y-16816046D02*
X10948025Y-16806522D01*
X10948025Y-16806522D02*
X10957549Y-16787474D01*
X10957549Y-16787474D02*
X10976596Y-16777950D01*
X10976596Y-16777950D02*
X11005168Y-16777950D01*
X11005168Y-16777950D02*
X11024216Y-16787474D01*
X11148025Y-16911284D02*
X11128977Y-16901760D01*
X11128977Y-16901760D02*
X11119454Y-16882712D01*
X11119454Y-16882712D02*
X11119454Y-16711284D01*
X11252787Y-16911284D02*
X11233739Y-16901760D01*
X11233739Y-16901760D02*
X11224215Y-16892236D01*
X11224215Y-16892236D02*
X11214692Y-16873189D01*
X11214692Y-16873189D02*
X11214692Y-16816046D01*
X11214692Y-16816046D02*
X11224215Y-16796998D01*
X11224215Y-16796998D02*
X11233739Y-16787474D01*
X11233739Y-16787474D02*
X11252787Y-16777950D01*
X11252787Y-16777950D02*
X11281358Y-16777950D01*
X11281358Y-16777950D02*
X11300406Y-16787474D01*
X11300406Y-16787474D02*
X11309930Y-16796998D01*
X11309930Y-16796998D02*
X11319454Y-16816046D01*
X11319454Y-16816046D02*
X11319454Y-16873189D01*
X11319454Y-16873189D02*
X11309930Y-16892236D01*
X11309930Y-16892236D02*
X11300406Y-16901760D01*
X11300406Y-16901760D02*
X11281358Y-16911284D01*
X11281358Y-16911284D02*
X11252787Y-16911284D01*
X11376596Y-16777950D02*
X11452787Y-16777950D01*
X11405168Y-16711284D02*
X11405168Y-16882712D01*
X11405168Y-16882712D02*
X11414692Y-16901760D01*
X11414692Y-16901760D02*
X11433739Y-16911284D01*
X11433739Y-16911284D02*
X11452787Y-16911284D01*
X11509930Y-16901760D02*
X11528977Y-16911284D01*
X11528977Y-16911284D02*
X11567073Y-16911284D01*
X11567073Y-16911284D02*
X11586120Y-16901760D01*
X11586120Y-16901760D02*
X11595644Y-16882712D01*
X11595644Y-16882712D02*
X11595644Y-16873189D01*
X11595644Y-16873189D02*
X11586120Y-16854141D01*
X11586120Y-16854141D02*
X11567073Y-16844617D01*
X11567073Y-16844617D02*
X11538501Y-16844617D01*
X11538501Y-16844617D02*
X11519454Y-16835093D01*
X11519454Y-16835093D02*
X11509930Y-16816046D01*
X11509930Y-16816046D02*
X11509930Y-16806522D01*
X11509930Y-16806522D02*
X11519454Y-16787474D01*
X11519454Y-16787474D02*
X11538501Y-16777950D01*
X11538501Y-16777950D02*
X11567073Y-16777950D01*
X11567073Y-16777950D02*
X11586120Y-16787474D01*
X11662311Y-16987474D02*
X11671835Y-16977950D01*
X11671835Y-16977950D02*
X11690882Y-16949379D01*
X11690882Y-16949379D02*
X11700406Y-16930331D01*
X11700406Y-16930331D02*
X11709930Y-16901760D01*
X11709930Y-16901760D02*
X11719454Y-16854141D01*
X11719454Y-16854141D02*
X11719454Y-16816046D01*
X11719454Y-16816046D02*
X11709930Y-16768427D01*
X11709930Y-16768427D02*
X11700406Y-16739855D01*
X11700406Y-16739855D02*
X11690882Y-16720808D01*
X11690882Y-16720808D02*
X11671835Y-16692236D01*
X11671835Y-16692236D02*
X11662311Y-16682712D01*
D10*
X5255167Y-17115267D02*
X5255167Y-17052333D01*
X5192233Y-17052333D01*
X5192233Y-17115267D01*
X5255167Y-17115267D01*
D11*
X5567072Y-16975284D02*
X5586120Y-16975284D01*
X5586120Y-16975284D02*
X5605167Y-16984808D01*
X5605167Y-16984808D02*
X5614691Y-16994331D01*
X5614691Y-16994331D02*
X5624215Y-17013379D01*
X5624215Y-17013379D02*
X5633739Y-17051474D01*
X5633739Y-17051474D02*
X5633739Y-17099093D01*
X5633739Y-17099093D02*
X5624215Y-17137189D01*
X5624215Y-17137189D02*
X5614691Y-17156236D01*
X5614691Y-17156236D02*
X5605167Y-17165760D01*
X5605167Y-17165760D02*
X5586120Y-17175284D01*
X5586120Y-17175284D02*
X5567072Y-17175284D01*
X5567072Y-17175284D02*
X5548024Y-17165760D01*
X5548024Y-17165760D02*
X5538501Y-17156236D01*
X5538501Y-17156236D02*
X5528977Y-17137189D01*
X5528977Y-17137189D02*
X5519453Y-17099093D01*
X5519453Y-17099093D02*
X5519453Y-17051474D01*
X5519453Y-17051474D02*
X5528977Y-17013379D01*
X5528977Y-17013379D02*
X5538501Y-16994331D01*
X5538501Y-16994331D02*
X5548024Y-16984808D01*
X5548024Y-16984808D02*
X5567072Y-16975284D01*
X5719453Y-17156236D02*
X5728977Y-17165760D01*
X5728977Y-17165760D02*
X5719453Y-17175284D01*
X5719453Y-17175284D02*
X5709929Y-17165760D01*
X5709929Y-17165760D02*
X5719453Y-17156236D01*
X5719453Y-17156236D02*
X5719453Y-17175284D01*
X5843262Y-17060998D02*
X5824215Y-17051474D01*
X5824215Y-17051474D02*
X5814691Y-17041950D01*
X5814691Y-17041950D02*
X5805167Y-17022903D01*
X5805167Y-17022903D02*
X5805167Y-17013379D01*
X5805167Y-17013379D02*
X5814691Y-16994331D01*
X5814691Y-16994331D02*
X5824215Y-16984808D01*
X5824215Y-16984808D02*
X5843262Y-16975284D01*
X5843262Y-16975284D02*
X5881358Y-16975284D01*
X5881358Y-16975284D02*
X5900405Y-16984808D01*
X5900405Y-16984808D02*
X5909929Y-16994331D01*
X5909929Y-16994331D02*
X5919453Y-17013379D01*
X5919453Y-17013379D02*
X5919453Y-17022903D01*
X5919453Y-17022903D02*
X5909929Y-17041950D01*
X5909929Y-17041950D02*
X5900405Y-17051474D01*
X5900405Y-17051474D02*
X5881358Y-17060998D01*
X5881358Y-17060998D02*
X5843262Y-17060998D01*
X5843262Y-17060998D02*
X5824215Y-17070522D01*
X5824215Y-17070522D02*
X5814691Y-17080046D01*
X5814691Y-17080046D02*
X5805167Y-17099093D01*
X5805167Y-17099093D02*
X5805167Y-17137189D01*
X5805167Y-17137189D02*
X5814691Y-17156236D01*
X5814691Y-17156236D02*
X5824215Y-17165760D01*
X5824215Y-17165760D02*
X5843262Y-17175284D01*
X5843262Y-17175284D02*
X5881358Y-17175284D01*
X5881358Y-17175284D02*
X5900405Y-17165760D01*
X5900405Y-17165760D02*
X5909929Y-17156236D01*
X5909929Y-17156236D02*
X5919453Y-17137189D01*
X5919453Y-17137189D02*
X5919453Y-17099093D01*
X5919453Y-17099093D02*
X5909929Y-17080046D01*
X5909929Y-17080046D02*
X5900405Y-17070522D01*
X5900405Y-17070522D02*
X5881358Y-17060998D01*
X6014691Y-17175284D02*
X6052786Y-17175284D01*
X6052786Y-17175284D02*
X6071834Y-17165760D01*
X6071834Y-17165760D02*
X6081358Y-17156236D01*
X6081358Y-17156236D02*
X6100405Y-17127665D01*
X6100405Y-17127665D02*
X6109929Y-17089570D01*
X6109929Y-17089570D02*
X6109929Y-17013379D01*
X6109929Y-17013379D02*
X6100405Y-16994331D01*
X6100405Y-16994331D02*
X6090882Y-16984808D01*
X6090882Y-16984808D02*
X6071834Y-16975284D01*
X6071834Y-16975284D02*
X6033739Y-16975284D01*
X6033739Y-16975284D02*
X6014691Y-16984808D01*
X6014691Y-16984808D02*
X6005167Y-16994331D01*
X6005167Y-16994331D02*
X5995643Y-17013379D01*
X5995643Y-17013379D02*
X5995643Y-17060998D01*
X5995643Y-17060998D02*
X6005167Y-17080046D01*
X6005167Y-17080046D02*
X6014691Y-17089570D01*
X6014691Y-17089570D02*
X6033739Y-17099093D01*
X6033739Y-17099093D02*
X6071834Y-17099093D01*
X6071834Y-17099093D02*
X6090882Y-17089570D01*
X6090882Y-17089570D02*
X6100405Y-17080046D01*
X6100405Y-17080046D02*
X6109929Y-17060998D01*
X6233739Y-16975284D02*
X6252786Y-16975284D01*
X6252786Y-16975284D02*
X6271834Y-16984808D01*
X6271834Y-16984808D02*
X6281358Y-16994331D01*
X6281358Y-16994331D02*
X6290882Y-17013379D01*
X6290882Y-17013379D02*
X6300405Y-17051474D01*
X6300405Y-17051474D02*
X6300405Y-17099093D01*
X6300405Y-17099093D02*
X6290882Y-17137189D01*
X6290882Y-17137189D02*
X6281358Y-17156236D01*
X6281358Y-17156236D02*
X6271834Y-17165760D01*
X6271834Y-17165760D02*
X6252786Y-17175284D01*
X6252786Y-17175284D02*
X6233739Y-17175284D01*
X6233739Y-17175284D02*
X6214691Y-17165760D01*
X6214691Y-17165760D02*
X6205167Y-17156236D01*
X6205167Y-17156236D02*
X6195643Y-17137189D01*
X6195643Y-17137189D02*
X6186120Y-17099093D01*
X6186120Y-17099093D02*
X6186120Y-17051474D01*
X6186120Y-17051474D02*
X6195643Y-17013379D01*
X6195643Y-17013379D02*
X6205167Y-16994331D01*
X6205167Y-16994331D02*
X6214691Y-16984808D01*
X6214691Y-16984808D02*
X6233739Y-16975284D01*
X6386120Y-17175284D02*
X6386120Y-17041950D01*
X6386120Y-17060998D02*
X6395643Y-17051474D01*
X6395643Y-17051474D02*
X6414691Y-17041950D01*
X6414691Y-17041950D02*
X6443263Y-17041950D01*
X6443263Y-17041950D02*
X6462310Y-17051474D01*
X6462310Y-17051474D02*
X6471834Y-17070522D01*
X6471834Y-17070522D02*
X6471834Y-17175284D01*
X6471834Y-17070522D02*
X6481358Y-17051474D01*
X6481358Y-17051474D02*
X6500405Y-17041950D01*
X6500405Y-17041950D02*
X6528977Y-17041950D01*
X6528977Y-17041950D02*
X6548024Y-17051474D01*
X6548024Y-17051474D02*
X6557548Y-17070522D01*
X6557548Y-17070522D02*
X6557548Y-17175284D01*
X6652786Y-17175284D02*
X6652786Y-17041950D01*
X6652786Y-17060998D02*
X6662310Y-17051474D01*
X6662310Y-17051474D02*
X6681358Y-17041950D01*
X6681358Y-17041950D02*
X6709929Y-17041950D01*
X6709929Y-17041950D02*
X6728977Y-17051474D01*
X6728977Y-17051474D02*
X6738501Y-17070522D01*
X6738501Y-17070522D02*
X6738501Y-17175284D01*
X6738501Y-17070522D02*
X6748024Y-17051474D01*
X6748024Y-17051474D02*
X6767072Y-17041950D01*
X6767072Y-17041950D02*
X6795643Y-17041950D01*
X6795643Y-17041950D02*
X6814691Y-17051474D01*
X6814691Y-17051474D02*
X6824215Y-17070522D01*
X6824215Y-17070522D02*
X6824215Y-17175284D01*
X7214691Y-16965760D02*
X7043263Y-17222903D01*
X7471834Y-16975284D02*
X7490882Y-16975284D01*
X7490882Y-16975284D02*
X7509929Y-16984808D01*
X7509929Y-16984808D02*
X7519453Y-16994331D01*
X7519453Y-16994331D02*
X7528977Y-17013379D01*
X7528977Y-17013379D02*
X7538501Y-17051474D01*
X7538501Y-17051474D02*
X7538501Y-17099093D01*
X7538501Y-17099093D02*
X7528977Y-17137189D01*
X7528977Y-17137189D02*
X7519453Y-17156236D01*
X7519453Y-17156236D02*
X7509929Y-17165760D01*
X7509929Y-17165760D02*
X7490882Y-17175284D01*
X7490882Y-17175284D02*
X7471834Y-17175284D01*
X7471834Y-17175284D02*
X7452786Y-17165760D01*
X7452786Y-17165760D02*
X7443263Y-17156236D01*
X7443263Y-17156236D02*
X7433739Y-17137189D01*
X7433739Y-17137189D02*
X7424215Y-17099093D01*
X7424215Y-17099093D02*
X7424215Y-17051474D01*
X7424215Y-17051474D02*
X7433739Y-17013379D01*
X7433739Y-17013379D02*
X7443263Y-16994331D01*
X7443263Y-16994331D02*
X7452786Y-16984808D01*
X7452786Y-16984808D02*
X7471834Y-16975284D01*
X7624215Y-17156236D02*
X7633739Y-17165760D01*
X7633739Y-17165760D02*
X7624215Y-17175284D01*
X7624215Y-17175284D02*
X7614691Y-17165760D01*
X7614691Y-17165760D02*
X7624215Y-17156236D01*
X7624215Y-17156236D02*
X7624215Y-17175284D01*
X7757548Y-16975284D02*
X7776596Y-16975284D01*
X7776596Y-16975284D02*
X7795644Y-16984808D01*
X7795644Y-16984808D02*
X7805167Y-16994331D01*
X7805167Y-16994331D02*
X7814691Y-17013379D01*
X7814691Y-17013379D02*
X7824215Y-17051474D01*
X7824215Y-17051474D02*
X7824215Y-17099093D01*
X7824215Y-17099093D02*
X7814691Y-17137189D01*
X7814691Y-17137189D02*
X7805167Y-17156236D01*
X7805167Y-17156236D02*
X7795644Y-17165760D01*
X7795644Y-17165760D02*
X7776596Y-17175284D01*
X7776596Y-17175284D02*
X7757548Y-17175284D01*
X7757548Y-17175284D02*
X7738501Y-17165760D01*
X7738501Y-17165760D02*
X7728977Y-17156236D01*
X7728977Y-17156236D02*
X7719453Y-17137189D01*
X7719453Y-17137189D02*
X7709929Y-17099093D01*
X7709929Y-17099093D02*
X7709929Y-17051474D01*
X7709929Y-17051474D02*
X7719453Y-17013379D01*
X7719453Y-17013379D02*
X7728977Y-16994331D01*
X7728977Y-16994331D02*
X7738501Y-16984808D01*
X7738501Y-16984808D02*
X7757548Y-16975284D01*
X7890882Y-16975284D02*
X8014691Y-16975284D01*
X8014691Y-16975284D02*
X7948025Y-17051474D01*
X7948025Y-17051474D02*
X7976596Y-17051474D01*
X7976596Y-17051474D02*
X7995644Y-17060998D01*
X7995644Y-17060998D02*
X8005167Y-17070522D01*
X8005167Y-17070522D02*
X8014691Y-17089570D01*
X8014691Y-17089570D02*
X8014691Y-17137189D01*
X8014691Y-17137189D02*
X8005167Y-17156236D01*
X8005167Y-17156236D02*
X7995644Y-17165760D01*
X7995644Y-17165760D02*
X7976596Y-17175284D01*
X7976596Y-17175284D02*
X7919453Y-17175284D01*
X7919453Y-17175284D02*
X7900406Y-17165760D01*
X7900406Y-17165760D02*
X7890882Y-17156236D01*
X8195644Y-16975284D02*
X8100406Y-16975284D01*
X8100406Y-16975284D02*
X8090882Y-17070522D01*
X8090882Y-17070522D02*
X8100406Y-17060998D01*
X8100406Y-17060998D02*
X8119453Y-17051474D01*
X8119453Y-17051474D02*
X8167072Y-17051474D01*
X8167072Y-17051474D02*
X8186120Y-17060998D01*
X8186120Y-17060998D02*
X8195644Y-17070522D01*
X8195644Y-17070522D02*
X8205167Y-17089570D01*
X8205167Y-17089570D02*
X8205167Y-17137189D01*
X8205167Y-17137189D02*
X8195644Y-17156236D01*
X8195644Y-17156236D02*
X8186120Y-17165760D01*
X8186120Y-17165760D02*
X8167072Y-17175284D01*
X8167072Y-17175284D02*
X8119453Y-17175284D01*
X8119453Y-17175284D02*
X8100406Y-17165760D01*
X8100406Y-17165760D02*
X8090882Y-17156236D01*
X8328977Y-16975284D02*
X8348025Y-16975284D01*
X8348025Y-16975284D02*
X8367072Y-16984808D01*
X8367072Y-16984808D02*
X8376596Y-16994331D01*
X8376596Y-16994331D02*
X8386120Y-17013379D01*
X8386120Y-17013379D02*
X8395644Y-17051474D01*
X8395644Y-17051474D02*
X8395644Y-17099093D01*
X8395644Y-17099093D02*
X8386120Y-17137189D01*
X8386120Y-17137189D02*
X8376596Y-17156236D01*
X8376596Y-17156236D02*
X8367072Y-17165760D01*
X8367072Y-17165760D02*
X8348025Y-17175284D01*
X8348025Y-17175284D02*
X8328977Y-17175284D01*
X8328977Y-17175284D02*
X8309929Y-17165760D01*
X8309929Y-17165760D02*
X8300406Y-17156236D01*
X8300406Y-17156236D02*
X8290882Y-17137189D01*
X8290882Y-17137189D02*
X8281358Y-17099093D01*
X8281358Y-17099093D02*
X8281358Y-17051474D01*
X8281358Y-17051474D02*
X8290882Y-17013379D01*
X8290882Y-17013379D02*
X8300406Y-16994331D01*
X8300406Y-16994331D02*
X8309929Y-16984808D01*
X8309929Y-16984808D02*
X8328977Y-16975284D01*
X8471834Y-16975284D02*
X8471834Y-17013379D01*
X8548025Y-16975284D02*
X8548025Y-17013379D01*
X8843263Y-17251474D02*
X8833739Y-17241950D01*
X8833739Y-17241950D02*
X8814691Y-17213379D01*
X8814691Y-17213379D02*
X8805168Y-17194331D01*
X8805168Y-17194331D02*
X8795644Y-17165760D01*
X8795644Y-17165760D02*
X8786120Y-17118141D01*
X8786120Y-17118141D02*
X8786120Y-17080046D01*
X8786120Y-17080046D02*
X8795644Y-17032427D01*
X8795644Y-17032427D02*
X8805168Y-17003855D01*
X8805168Y-17003855D02*
X8814691Y-16984808D01*
X8814691Y-16984808D02*
X8833739Y-16956236D01*
X8833739Y-16956236D02*
X8843263Y-16946712D01*
X9024215Y-17175284D02*
X8909930Y-17175284D01*
X8967072Y-17175284D02*
X8967072Y-16975284D01*
X8967072Y-16975284D02*
X8948025Y-17003855D01*
X8948025Y-17003855D02*
X8928977Y-17022903D01*
X8928977Y-17022903D02*
X8909930Y-17032427D01*
X9100406Y-16994331D02*
X9109930Y-16984808D01*
X9109930Y-16984808D02*
X9128977Y-16975284D01*
X9128977Y-16975284D02*
X9176596Y-16975284D01*
X9176596Y-16975284D02*
X9195644Y-16984808D01*
X9195644Y-16984808D02*
X9205168Y-16994331D01*
X9205168Y-16994331D02*
X9214691Y-17013379D01*
X9214691Y-17013379D02*
X9214691Y-17032427D01*
X9214691Y-17032427D02*
X9205168Y-17060998D01*
X9205168Y-17060998D02*
X9090882Y-17175284D01*
X9090882Y-17175284D02*
X9214691Y-17175284D01*
X9452787Y-17175284D02*
X9452787Y-16975284D01*
X9538501Y-17175284D02*
X9538501Y-17070522D01*
X9538501Y-17070522D02*
X9528977Y-17051474D01*
X9528977Y-17051474D02*
X9509930Y-17041950D01*
X9509930Y-17041950D02*
X9481358Y-17041950D01*
X9481358Y-17041950D02*
X9462311Y-17051474D01*
X9462311Y-17051474D02*
X9452787Y-17060998D01*
X9662311Y-17175284D02*
X9643263Y-17165760D01*
X9643263Y-17165760D02*
X9633739Y-17156236D01*
X9633739Y-17156236D02*
X9624215Y-17137189D01*
X9624215Y-17137189D02*
X9624215Y-17080046D01*
X9624215Y-17080046D02*
X9633739Y-17060998D01*
X9633739Y-17060998D02*
X9643263Y-17051474D01*
X9643263Y-17051474D02*
X9662311Y-17041950D01*
X9662311Y-17041950D02*
X9690882Y-17041950D01*
X9690882Y-17041950D02*
X9709930Y-17051474D01*
X9709930Y-17051474D02*
X9719453Y-17060998D01*
X9719453Y-17060998D02*
X9728977Y-17080046D01*
X9728977Y-17080046D02*
X9728977Y-17137189D01*
X9728977Y-17137189D02*
X9719453Y-17156236D01*
X9719453Y-17156236D02*
X9709930Y-17165760D01*
X9709930Y-17165760D02*
X9690882Y-17175284D01*
X9690882Y-17175284D02*
X9662311Y-17175284D01*
X9843263Y-17175284D02*
X9824215Y-17165760D01*
X9824215Y-17165760D02*
X9814692Y-17146712D01*
X9814692Y-17146712D02*
X9814692Y-16975284D01*
X9995644Y-17165760D02*
X9976596Y-17175284D01*
X9976596Y-17175284D02*
X9938501Y-17175284D01*
X9938501Y-17175284D02*
X9919453Y-17165760D01*
X9919453Y-17165760D02*
X9909930Y-17146712D01*
X9909930Y-17146712D02*
X9909930Y-17070522D01*
X9909930Y-17070522D02*
X9919453Y-17051474D01*
X9919453Y-17051474D02*
X9938501Y-17041950D01*
X9938501Y-17041950D02*
X9976596Y-17041950D01*
X9976596Y-17041950D02*
X9995644Y-17051474D01*
X9995644Y-17051474D02*
X10005168Y-17070522D01*
X10005168Y-17070522D02*
X10005168Y-17089570D01*
X10005168Y-17089570D02*
X9909930Y-17108617D01*
X10081358Y-17165760D02*
X10100406Y-17175284D01*
X10100406Y-17175284D02*
X10138501Y-17175284D01*
X10138501Y-17175284D02*
X10157549Y-17165760D01*
X10157549Y-17165760D02*
X10167073Y-17146712D01*
X10167073Y-17146712D02*
X10167073Y-17137189D01*
X10167073Y-17137189D02*
X10157549Y-17118141D01*
X10157549Y-17118141D02*
X10138501Y-17108617D01*
X10138501Y-17108617D02*
X10109930Y-17108617D01*
X10109930Y-17108617D02*
X10090882Y-17099093D01*
X10090882Y-17099093D02*
X10081358Y-17080046D01*
X10081358Y-17080046D02*
X10081358Y-17070522D01*
X10081358Y-17070522D02*
X10090882Y-17051474D01*
X10090882Y-17051474D02*
X10109930Y-17041950D01*
X10109930Y-17041950D02*
X10138501Y-17041950D01*
X10138501Y-17041950D02*
X10157549Y-17051474D01*
X10233739Y-17251474D02*
X10243263Y-17241950D01*
X10243263Y-17241950D02*
X10262311Y-17213379D01*
X10262311Y-17213379D02*
X10271834Y-17194331D01*
X10271834Y-17194331D02*
X10281358Y-17165760D01*
X10281358Y-17165760D02*
X10290882Y-17118141D01*
X10290882Y-17118141D02*
X10290882Y-17080046D01*
X10290882Y-17080046D02*
X10281358Y-17032427D01*
X10281358Y-17032427D02*
X10271834Y-17003855D01*
X10271834Y-17003855D02*
X10262311Y-16984808D01*
X10262311Y-16984808D02*
X10243263Y-16956236D01*
X10243263Y-16956236D02*
X10233739Y-16946712D01*
D10*
X5218200Y-17397800D02*
X5268200Y-17347800D01*
X5218200Y-17297800D01*
X5168200Y-17347800D01*
X5218200Y-17397800D01*
D11*
X5633739Y-17439284D02*
X5519453Y-17439284D01*
X5576596Y-17439284D02*
X5576596Y-17239284D01*
X5576596Y-17239284D02*
X5557548Y-17267855D01*
X5557548Y-17267855D02*
X5538501Y-17286903D01*
X5538501Y-17286903D02*
X5519453Y-17296427D01*
X5719453Y-17420236D02*
X5728977Y-17429760D01*
X5728977Y-17429760D02*
X5719453Y-17439284D01*
X5719453Y-17439284D02*
X5709929Y-17429760D01*
X5709929Y-17429760D02*
X5719453Y-17420236D01*
X5719453Y-17420236D02*
X5719453Y-17439284D01*
X5852786Y-17239284D02*
X5871834Y-17239284D01*
X5871834Y-17239284D02*
X5890882Y-17248808D01*
X5890882Y-17248808D02*
X5900405Y-17258331D01*
X5900405Y-17258331D02*
X5909929Y-17277379D01*
X5909929Y-17277379D02*
X5919453Y-17315474D01*
X5919453Y-17315474D02*
X5919453Y-17363093D01*
X5919453Y-17363093D02*
X5909929Y-17401189D01*
X5909929Y-17401189D02*
X5900405Y-17420236D01*
X5900405Y-17420236D02*
X5890882Y-17429760D01*
X5890882Y-17429760D02*
X5871834Y-17439284D01*
X5871834Y-17439284D02*
X5852786Y-17439284D01*
X5852786Y-17439284D02*
X5833739Y-17429760D01*
X5833739Y-17429760D02*
X5824215Y-17420236D01*
X5824215Y-17420236D02*
X5814691Y-17401189D01*
X5814691Y-17401189D02*
X5805167Y-17363093D01*
X5805167Y-17363093D02*
X5805167Y-17315474D01*
X5805167Y-17315474D02*
X5814691Y-17277379D01*
X5814691Y-17277379D02*
X5824215Y-17258331D01*
X5824215Y-17258331D02*
X5833739Y-17248808D01*
X5833739Y-17248808D02*
X5852786Y-17239284D01*
X6043262Y-17239284D02*
X6062310Y-17239284D01*
X6062310Y-17239284D02*
X6081358Y-17248808D01*
X6081358Y-17248808D02*
X6090882Y-17258331D01*
X6090882Y-17258331D02*
X6100405Y-17277379D01*
X6100405Y-17277379D02*
X6109929Y-17315474D01*
X6109929Y-17315474D02*
X6109929Y-17363093D01*
X6109929Y-17363093D02*
X6100405Y-17401189D01*
X6100405Y-17401189D02*
X6090882Y-17420236D01*
X6090882Y-17420236D02*
X6081358Y-17429760D01*
X6081358Y-17429760D02*
X6062310Y-17439284D01*
X6062310Y-17439284D02*
X6043262Y-17439284D01*
X6043262Y-17439284D02*
X6024215Y-17429760D01*
X6024215Y-17429760D02*
X6014691Y-17420236D01*
X6014691Y-17420236D02*
X6005167Y-17401189D01*
X6005167Y-17401189D02*
X5995643Y-17363093D01*
X5995643Y-17363093D02*
X5995643Y-17315474D01*
X5995643Y-17315474D02*
X6005167Y-17277379D01*
X6005167Y-17277379D02*
X6014691Y-17258331D01*
X6014691Y-17258331D02*
X6024215Y-17248808D01*
X6024215Y-17248808D02*
X6043262Y-17239284D01*
X6233739Y-17239284D02*
X6252786Y-17239284D01*
X6252786Y-17239284D02*
X6271834Y-17248808D01*
X6271834Y-17248808D02*
X6281358Y-17258331D01*
X6281358Y-17258331D02*
X6290882Y-17277379D01*
X6290882Y-17277379D02*
X6300405Y-17315474D01*
X6300405Y-17315474D02*
X6300405Y-17363093D01*
X6300405Y-17363093D02*
X6290882Y-17401189D01*
X6290882Y-17401189D02*
X6281358Y-17420236D01*
X6281358Y-17420236D02*
X6271834Y-17429760D01*
X6271834Y-17429760D02*
X6252786Y-17439284D01*
X6252786Y-17439284D02*
X6233739Y-17439284D01*
X6233739Y-17439284D02*
X6214691Y-17429760D01*
X6214691Y-17429760D02*
X6205167Y-17420236D01*
X6205167Y-17420236D02*
X6195643Y-17401189D01*
X6195643Y-17401189D02*
X6186120Y-17363093D01*
X6186120Y-17363093D02*
X6186120Y-17315474D01*
X6186120Y-17315474D02*
X6195643Y-17277379D01*
X6195643Y-17277379D02*
X6205167Y-17258331D01*
X6205167Y-17258331D02*
X6214691Y-17248808D01*
X6214691Y-17248808D02*
X6233739Y-17239284D01*
X6386120Y-17439284D02*
X6386120Y-17305950D01*
X6386120Y-17324998D02*
X6395643Y-17315474D01*
X6395643Y-17315474D02*
X6414691Y-17305950D01*
X6414691Y-17305950D02*
X6443263Y-17305950D01*
X6443263Y-17305950D02*
X6462310Y-17315474D01*
X6462310Y-17315474D02*
X6471834Y-17334522D01*
X6471834Y-17334522D02*
X6471834Y-17439284D01*
X6471834Y-17334522D02*
X6481358Y-17315474D01*
X6481358Y-17315474D02*
X6500405Y-17305950D01*
X6500405Y-17305950D02*
X6528977Y-17305950D01*
X6528977Y-17305950D02*
X6548024Y-17315474D01*
X6548024Y-17315474D02*
X6557548Y-17334522D01*
X6557548Y-17334522D02*
X6557548Y-17439284D01*
X6652786Y-17439284D02*
X6652786Y-17305950D01*
X6652786Y-17324998D02*
X6662310Y-17315474D01*
X6662310Y-17315474D02*
X6681358Y-17305950D01*
X6681358Y-17305950D02*
X6709929Y-17305950D01*
X6709929Y-17305950D02*
X6728977Y-17315474D01*
X6728977Y-17315474D02*
X6738501Y-17334522D01*
X6738501Y-17334522D02*
X6738501Y-17439284D01*
X6738501Y-17334522D02*
X6748024Y-17315474D01*
X6748024Y-17315474D02*
X6767072Y-17305950D01*
X6767072Y-17305950D02*
X6795643Y-17305950D01*
X6795643Y-17305950D02*
X6814691Y-17315474D01*
X6814691Y-17315474D02*
X6824215Y-17334522D01*
X6824215Y-17334522D02*
X6824215Y-17439284D01*
X7214691Y-17229760D02*
X7043263Y-17486903D01*
X7471834Y-17239284D02*
X7490882Y-17239284D01*
X7490882Y-17239284D02*
X7509929Y-17248808D01*
X7509929Y-17248808D02*
X7519453Y-17258331D01*
X7519453Y-17258331D02*
X7528977Y-17277379D01*
X7528977Y-17277379D02*
X7538501Y-17315474D01*
X7538501Y-17315474D02*
X7538501Y-17363093D01*
X7538501Y-17363093D02*
X7528977Y-17401189D01*
X7528977Y-17401189D02*
X7519453Y-17420236D01*
X7519453Y-17420236D02*
X7509929Y-17429760D01*
X7509929Y-17429760D02*
X7490882Y-17439284D01*
X7490882Y-17439284D02*
X7471834Y-17439284D01*
X7471834Y-17439284D02*
X7452786Y-17429760D01*
X7452786Y-17429760D02*
X7443263Y-17420236D01*
X7443263Y-17420236D02*
X7433739Y-17401189D01*
X7433739Y-17401189D02*
X7424215Y-17363093D01*
X7424215Y-17363093D02*
X7424215Y-17315474D01*
X7424215Y-17315474D02*
X7433739Y-17277379D01*
X7433739Y-17277379D02*
X7443263Y-17258331D01*
X7443263Y-17258331D02*
X7452786Y-17248808D01*
X7452786Y-17248808D02*
X7471834Y-17239284D01*
X7624215Y-17420236D02*
X7633739Y-17429760D01*
X7633739Y-17429760D02*
X7624215Y-17439284D01*
X7624215Y-17439284D02*
X7614691Y-17429760D01*
X7614691Y-17429760D02*
X7624215Y-17420236D01*
X7624215Y-17420236D02*
X7624215Y-17439284D01*
X7757548Y-17239284D02*
X7776596Y-17239284D01*
X7776596Y-17239284D02*
X7795644Y-17248808D01*
X7795644Y-17248808D02*
X7805167Y-17258331D01*
X7805167Y-17258331D02*
X7814691Y-17277379D01*
X7814691Y-17277379D02*
X7824215Y-17315474D01*
X7824215Y-17315474D02*
X7824215Y-17363093D01*
X7824215Y-17363093D02*
X7814691Y-17401189D01*
X7814691Y-17401189D02*
X7805167Y-17420236D01*
X7805167Y-17420236D02*
X7795644Y-17429760D01*
X7795644Y-17429760D02*
X7776596Y-17439284D01*
X7776596Y-17439284D02*
X7757548Y-17439284D01*
X7757548Y-17439284D02*
X7738501Y-17429760D01*
X7738501Y-17429760D02*
X7728977Y-17420236D01*
X7728977Y-17420236D02*
X7719453Y-17401189D01*
X7719453Y-17401189D02*
X7709929Y-17363093D01*
X7709929Y-17363093D02*
X7709929Y-17315474D01*
X7709929Y-17315474D02*
X7719453Y-17277379D01*
X7719453Y-17277379D02*
X7728977Y-17258331D01*
X7728977Y-17258331D02*
X7738501Y-17248808D01*
X7738501Y-17248808D02*
X7757548Y-17239284D01*
X7890882Y-17239284D02*
X8014691Y-17239284D01*
X8014691Y-17239284D02*
X7948025Y-17315474D01*
X7948025Y-17315474D02*
X7976596Y-17315474D01*
X7976596Y-17315474D02*
X7995644Y-17324998D01*
X7995644Y-17324998D02*
X8005167Y-17334522D01*
X8005167Y-17334522D02*
X8014691Y-17353570D01*
X8014691Y-17353570D02*
X8014691Y-17401189D01*
X8014691Y-17401189D02*
X8005167Y-17420236D01*
X8005167Y-17420236D02*
X7995644Y-17429760D01*
X7995644Y-17429760D02*
X7976596Y-17439284D01*
X7976596Y-17439284D02*
X7919453Y-17439284D01*
X7919453Y-17439284D02*
X7900406Y-17429760D01*
X7900406Y-17429760D02*
X7890882Y-17420236D01*
X8109929Y-17439284D02*
X8148025Y-17439284D01*
X8148025Y-17439284D02*
X8167072Y-17429760D01*
X8167072Y-17429760D02*
X8176596Y-17420236D01*
X8176596Y-17420236D02*
X8195644Y-17391665D01*
X8195644Y-17391665D02*
X8205167Y-17353570D01*
X8205167Y-17353570D02*
X8205167Y-17277379D01*
X8205167Y-17277379D02*
X8195644Y-17258331D01*
X8195644Y-17258331D02*
X8186120Y-17248808D01*
X8186120Y-17248808D02*
X8167072Y-17239284D01*
X8167072Y-17239284D02*
X8128977Y-17239284D01*
X8128977Y-17239284D02*
X8109929Y-17248808D01*
X8109929Y-17248808D02*
X8100406Y-17258331D01*
X8100406Y-17258331D02*
X8090882Y-17277379D01*
X8090882Y-17277379D02*
X8090882Y-17324998D01*
X8090882Y-17324998D02*
X8100406Y-17344046D01*
X8100406Y-17344046D02*
X8109929Y-17353570D01*
X8109929Y-17353570D02*
X8128977Y-17363093D01*
X8128977Y-17363093D02*
X8167072Y-17363093D01*
X8167072Y-17363093D02*
X8186120Y-17353570D01*
X8186120Y-17353570D02*
X8195644Y-17344046D01*
X8195644Y-17344046D02*
X8205167Y-17324998D01*
X8376596Y-17305950D02*
X8376596Y-17439284D01*
X8328977Y-17229760D02*
X8281358Y-17372617D01*
X8281358Y-17372617D02*
X8405168Y-17372617D01*
X8471834Y-17239284D02*
X8471834Y-17277379D01*
X8548025Y-17239284D02*
X8548025Y-17277379D01*
X8843263Y-17515474D02*
X8833739Y-17505950D01*
X8833739Y-17505950D02*
X8814691Y-17477379D01*
X8814691Y-17477379D02*
X8805168Y-17458331D01*
X8805168Y-17458331D02*
X8795644Y-17429760D01*
X8795644Y-17429760D02*
X8786120Y-17382141D01*
X8786120Y-17382141D02*
X8786120Y-17344046D01*
X8786120Y-17344046D02*
X8795644Y-17296427D01*
X8795644Y-17296427D02*
X8805168Y-17267855D01*
X8805168Y-17267855D02*
X8814691Y-17248808D01*
X8814691Y-17248808D02*
X8833739Y-17220236D01*
X8833739Y-17220236D02*
X8843263Y-17210712D01*
X8928977Y-17439284D02*
X8967072Y-17439284D01*
X8967072Y-17439284D02*
X8986120Y-17429760D01*
X8986120Y-17429760D02*
X8995644Y-17420236D01*
X8995644Y-17420236D02*
X9014691Y-17391665D01*
X9014691Y-17391665D02*
X9024215Y-17353570D01*
X9024215Y-17353570D02*
X9024215Y-17277379D01*
X9024215Y-17277379D02*
X9014691Y-17258331D01*
X9014691Y-17258331D02*
X9005168Y-17248808D01*
X9005168Y-17248808D02*
X8986120Y-17239284D01*
X8986120Y-17239284D02*
X8948025Y-17239284D01*
X8948025Y-17239284D02*
X8928977Y-17248808D01*
X8928977Y-17248808D02*
X8919453Y-17258331D01*
X8919453Y-17258331D02*
X8909930Y-17277379D01*
X8909930Y-17277379D02*
X8909930Y-17324998D01*
X8909930Y-17324998D02*
X8919453Y-17344046D01*
X8919453Y-17344046D02*
X8928977Y-17353570D01*
X8928977Y-17353570D02*
X8948025Y-17363093D01*
X8948025Y-17363093D02*
X8986120Y-17363093D01*
X8986120Y-17363093D02*
X9005168Y-17353570D01*
X9005168Y-17353570D02*
X9014691Y-17344046D01*
X9014691Y-17344046D02*
X9024215Y-17324998D01*
X9262311Y-17439284D02*
X9262311Y-17239284D01*
X9348025Y-17439284D02*
X9348025Y-17334522D01*
X9348025Y-17334522D02*
X9338501Y-17315474D01*
X9338501Y-17315474D02*
X9319453Y-17305950D01*
X9319453Y-17305950D02*
X9290882Y-17305950D01*
X9290882Y-17305950D02*
X9271834Y-17315474D01*
X9271834Y-17315474D02*
X9262311Y-17324998D01*
X9471834Y-17439284D02*
X9452787Y-17429760D01*
X9452787Y-17429760D02*
X9443263Y-17420236D01*
X9443263Y-17420236D02*
X9433739Y-17401189D01*
X9433739Y-17401189D02*
X9433739Y-17344046D01*
X9433739Y-17344046D02*
X9443263Y-17324998D01*
X9443263Y-17324998D02*
X9452787Y-17315474D01*
X9452787Y-17315474D02*
X9471834Y-17305950D01*
X9471834Y-17305950D02*
X9500406Y-17305950D01*
X9500406Y-17305950D02*
X9519453Y-17315474D01*
X9519453Y-17315474D02*
X9528977Y-17324998D01*
X9528977Y-17324998D02*
X9538501Y-17344046D01*
X9538501Y-17344046D02*
X9538501Y-17401189D01*
X9538501Y-17401189D02*
X9528977Y-17420236D01*
X9528977Y-17420236D02*
X9519453Y-17429760D01*
X9519453Y-17429760D02*
X9500406Y-17439284D01*
X9500406Y-17439284D02*
X9471834Y-17439284D01*
X9652787Y-17439284D02*
X9633739Y-17429760D01*
X9633739Y-17429760D02*
X9624215Y-17410712D01*
X9624215Y-17410712D02*
X9624215Y-17239284D01*
X9805168Y-17429760D02*
X9786120Y-17439284D01*
X9786120Y-17439284D02*
X9748025Y-17439284D01*
X9748025Y-17439284D02*
X9728977Y-17429760D01*
X9728977Y-17429760D02*
X9719453Y-17410712D01*
X9719453Y-17410712D02*
X9719453Y-17334522D01*
X9719453Y-17334522D02*
X9728977Y-17315474D01*
X9728977Y-17315474D02*
X9748025Y-17305950D01*
X9748025Y-17305950D02*
X9786120Y-17305950D01*
X9786120Y-17305950D02*
X9805168Y-17315474D01*
X9805168Y-17315474D02*
X9814692Y-17334522D01*
X9814692Y-17334522D02*
X9814692Y-17353570D01*
X9814692Y-17353570D02*
X9719453Y-17372617D01*
X9890882Y-17429760D02*
X9909930Y-17439284D01*
X9909930Y-17439284D02*
X9948025Y-17439284D01*
X9948025Y-17439284D02*
X9967073Y-17429760D01*
X9967073Y-17429760D02*
X9976596Y-17410712D01*
X9976596Y-17410712D02*
X9976596Y-17401189D01*
X9976596Y-17401189D02*
X9967073Y-17382141D01*
X9967073Y-17382141D02*
X9948025Y-17372617D01*
X9948025Y-17372617D02*
X9919453Y-17372617D01*
X9919453Y-17372617D02*
X9900406Y-17363093D01*
X9900406Y-17363093D02*
X9890882Y-17344046D01*
X9890882Y-17344046D02*
X9890882Y-17334522D01*
X9890882Y-17334522D02*
X9900406Y-17315474D01*
X9900406Y-17315474D02*
X9919453Y-17305950D01*
X9919453Y-17305950D02*
X9948025Y-17305950D01*
X9948025Y-17305950D02*
X9967073Y-17315474D01*
X10043263Y-17515474D02*
X10052787Y-17505950D01*
X10052787Y-17505950D02*
X10071834Y-17477379D01*
X10071834Y-17477379D02*
X10081358Y-17458331D01*
X10081358Y-17458331D02*
X10090882Y-17429760D01*
X10090882Y-17429760D02*
X10100406Y-17382141D01*
X10100406Y-17382141D02*
X10100406Y-17344046D01*
X10100406Y-17344046D02*
X10090882Y-17296427D01*
X10090882Y-17296427D02*
X10081358Y-17267855D01*
X10081358Y-17267855D02*
X10071834Y-17248808D01*
X10071834Y-17248808D02*
X10052787Y-17220236D01*
X10052787Y-17220236D02*
X10043263Y-17210712D01*
D12*
X5088200Y-17521800D02*
X5268200Y-17701800D01*
X5268200Y-17521800D02*
X5088200Y-17701800D01*
X5268200Y-17611800D02*
G75*
G03*
X5268200Y-17611800I-90000J0D01*
G01*
D11*
X5633739Y-17703284D02*
X5519453Y-17703284D01*
X5576596Y-17703284D02*
X5576596Y-17503284D01*
X5576596Y-17503284D02*
X5557548Y-17531855D01*
X5557548Y-17531855D02*
X5538501Y-17550903D01*
X5538501Y-17550903D02*
X5519453Y-17560427D01*
X5719453Y-17684236D02*
X5728977Y-17693760D01*
X5728977Y-17693760D02*
X5719453Y-17703284D01*
X5719453Y-17703284D02*
X5709929Y-17693760D01*
X5709929Y-17693760D02*
X5719453Y-17684236D01*
X5719453Y-17684236D02*
X5719453Y-17703284D01*
X5843262Y-17588998D02*
X5824215Y-17579474D01*
X5824215Y-17579474D02*
X5814691Y-17569950D01*
X5814691Y-17569950D02*
X5805167Y-17550903D01*
X5805167Y-17550903D02*
X5805167Y-17541379D01*
X5805167Y-17541379D02*
X5814691Y-17522331D01*
X5814691Y-17522331D02*
X5824215Y-17512808D01*
X5824215Y-17512808D02*
X5843262Y-17503284D01*
X5843262Y-17503284D02*
X5881358Y-17503284D01*
X5881358Y-17503284D02*
X5900405Y-17512808D01*
X5900405Y-17512808D02*
X5909929Y-17522331D01*
X5909929Y-17522331D02*
X5919453Y-17541379D01*
X5919453Y-17541379D02*
X5919453Y-17550903D01*
X5919453Y-17550903D02*
X5909929Y-17569950D01*
X5909929Y-17569950D02*
X5900405Y-17579474D01*
X5900405Y-17579474D02*
X5881358Y-17588998D01*
X5881358Y-17588998D02*
X5843262Y-17588998D01*
X5843262Y-17588998D02*
X5824215Y-17598522D01*
X5824215Y-17598522D02*
X5814691Y-17608046D01*
X5814691Y-17608046D02*
X5805167Y-17627093D01*
X5805167Y-17627093D02*
X5805167Y-17665189D01*
X5805167Y-17665189D02*
X5814691Y-17684236D01*
X5814691Y-17684236D02*
X5824215Y-17693760D01*
X5824215Y-17693760D02*
X5843262Y-17703284D01*
X5843262Y-17703284D02*
X5881358Y-17703284D01*
X5881358Y-17703284D02*
X5900405Y-17693760D01*
X5900405Y-17693760D02*
X5909929Y-17684236D01*
X5909929Y-17684236D02*
X5919453Y-17665189D01*
X5919453Y-17665189D02*
X5919453Y-17627093D01*
X5919453Y-17627093D02*
X5909929Y-17608046D01*
X5909929Y-17608046D02*
X5900405Y-17598522D01*
X5900405Y-17598522D02*
X5881358Y-17588998D01*
X6043262Y-17503284D02*
X6062310Y-17503284D01*
X6062310Y-17503284D02*
X6081358Y-17512808D01*
X6081358Y-17512808D02*
X6090882Y-17522331D01*
X6090882Y-17522331D02*
X6100405Y-17541379D01*
X6100405Y-17541379D02*
X6109929Y-17579474D01*
X6109929Y-17579474D02*
X6109929Y-17627093D01*
X6109929Y-17627093D02*
X6100405Y-17665189D01*
X6100405Y-17665189D02*
X6090882Y-17684236D01*
X6090882Y-17684236D02*
X6081358Y-17693760D01*
X6081358Y-17693760D02*
X6062310Y-17703284D01*
X6062310Y-17703284D02*
X6043262Y-17703284D01*
X6043262Y-17703284D02*
X6024215Y-17693760D01*
X6024215Y-17693760D02*
X6014691Y-17684236D01*
X6014691Y-17684236D02*
X6005167Y-17665189D01*
X6005167Y-17665189D02*
X5995643Y-17627093D01*
X5995643Y-17627093D02*
X5995643Y-17579474D01*
X5995643Y-17579474D02*
X6005167Y-17541379D01*
X6005167Y-17541379D02*
X6014691Y-17522331D01*
X6014691Y-17522331D02*
X6024215Y-17512808D01*
X6024215Y-17512808D02*
X6043262Y-17503284D01*
X6233739Y-17503284D02*
X6252786Y-17503284D01*
X6252786Y-17503284D02*
X6271834Y-17512808D01*
X6271834Y-17512808D02*
X6281358Y-17522331D01*
X6281358Y-17522331D02*
X6290882Y-17541379D01*
X6290882Y-17541379D02*
X6300405Y-17579474D01*
X6300405Y-17579474D02*
X6300405Y-17627093D01*
X6300405Y-17627093D02*
X6290882Y-17665189D01*
X6290882Y-17665189D02*
X6281358Y-17684236D01*
X6281358Y-17684236D02*
X6271834Y-17693760D01*
X6271834Y-17693760D02*
X6252786Y-17703284D01*
X6252786Y-17703284D02*
X6233739Y-17703284D01*
X6233739Y-17703284D02*
X6214691Y-17693760D01*
X6214691Y-17693760D02*
X6205167Y-17684236D01*
X6205167Y-17684236D02*
X6195643Y-17665189D01*
X6195643Y-17665189D02*
X6186120Y-17627093D01*
X6186120Y-17627093D02*
X6186120Y-17579474D01*
X6186120Y-17579474D02*
X6195643Y-17541379D01*
X6195643Y-17541379D02*
X6205167Y-17522331D01*
X6205167Y-17522331D02*
X6214691Y-17512808D01*
X6214691Y-17512808D02*
X6233739Y-17503284D01*
X6386120Y-17703284D02*
X6386120Y-17569950D01*
X6386120Y-17588998D02*
X6395643Y-17579474D01*
X6395643Y-17579474D02*
X6414691Y-17569950D01*
X6414691Y-17569950D02*
X6443263Y-17569950D01*
X6443263Y-17569950D02*
X6462310Y-17579474D01*
X6462310Y-17579474D02*
X6471834Y-17598522D01*
X6471834Y-17598522D02*
X6471834Y-17703284D01*
X6471834Y-17598522D02*
X6481358Y-17579474D01*
X6481358Y-17579474D02*
X6500405Y-17569950D01*
X6500405Y-17569950D02*
X6528977Y-17569950D01*
X6528977Y-17569950D02*
X6548024Y-17579474D01*
X6548024Y-17579474D02*
X6557548Y-17598522D01*
X6557548Y-17598522D02*
X6557548Y-17703284D01*
X6652786Y-17703284D02*
X6652786Y-17569950D01*
X6652786Y-17588998D02*
X6662310Y-17579474D01*
X6662310Y-17579474D02*
X6681358Y-17569950D01*
X6681358Y-17569950D02*
X6709929Y-17569950D01*
X6709929Y-17569950D02*
X6728977Y-17579474D01*
X6728977Y-17579474D02*
X6738501Y-17598522D01*
X6738501Y-17598522D02*
X6738501Y-17703284D01*
X6738501Y-17598522D02*
X6748024Y-17579474D01*
X6748024Y-17579474D02*
X6767072Y-17569950D01*
X6767072Y-17569950D02*
X6795643Y-17569950D01*
X6795643Y-17569950D02*
X6814691Y-17579474D01*
X6814691Y-17579474D02*
X6824215Y-17598522D01*
X6824215Y-17598522D02*
X6824215Y-17703284D01*
X7214691Y-17493760D02*
X7043263Y-17750903D01*
X7471834Y-17503284D02*
X7490882Y-17503284D01*
X7490882Y-17503284D02*
X7509929Y-17512808D01*
X7509929Y-17512808D02*
X7519453Y-17522331D01*
X7519453Y-17522331D02*
X7528977Y-17541379D01*
X7528977Y-17541379D02*
X7538501Y-17579474D01*
X7538501Y-17579474D02*
X7538501Y-17627093D01*
X7538501Y-17627093D02*
X7528977Y-17665189D01*
X7528977Y-17665189D02*
X7519453Y-17684236D01*
X7519453Y-17684236D02*
X7509929Y-17693760D01*
X7509929Y-17693760D02*
X7490882Y-17703284D01*
X7490882Y-17703284D02*
X7471834Y-17703284D01*
X7471834Y-17703284D02*
X7452786Y-17693760D01*
X7452786Y-17693760D02*
X7443263Y-17684236D01*
X7443263Y-17684236D02*
X7433739Y-17665189D01*
X7433739Y-17665189D02*
X7424215Y-17627093D01*
X7424215Y-17627093D02*
X7424215Y-17579474D01*
X7424215Y-17579474D02*
X7433739Y-17541379D01*
X7433739Y-17541379D02*
X7443263Y-17522331D01*
X7443263Y-17522331D02*
X7452786Y-17512808D01*
X7452786Y-17512808D02*
X7471834Y-17503284D01*
X7624215Y-17684236D02*
X7633739Y-17693760D01*
X7633739Y-17693760D02*
X7624215Y-17703284D01*
X7624215Y-17703284D02*
X7614691Y-17693760D01*
X7614691Y-17693760D02*
X7624215Y-17684236D01*
X7624215Y-17684236D02*
X7624215Y-17703284D01*
X7757548Y-17503284D02*
X7776596Y-17503284D01*
X7776596Y-17503284D02*
X7795644Y-17512808D01*
X7795644Y-17512808D02*
X7805167Y-17522331D01*
X7805167Y-17522331D02*
X7814691Y-17541379D01*
X7814691Y-17541379D02*
X7824215Y-17579474D01*
X7824215Y-17579474D02*
X7824215Y-17627093D01*
X7824215Y-17627093D02*
X7814691Y-17665189D01*
X7814691Y-17665189D02*
X7805167Y-17684236D01*
X7805167Y-17684236D02*
X7795644Y-17693760D01*
X7795644Y-17693760D02*
X7776596Y-17703284D01*
X7776596Y-17703284D02*
X7757548Y-17703284D01*
X7757548Y-17703284D02*
X7738501Y-17693760D01*
X7738501Y-17693760D02*
X7728977Y-17684236D01*
X7728977Y-17684236D02*
X7719453Y-17665189D01*
X7719453Y-17665189D02*
X7709929Y-17627093D01*
X7709929Y-17627093D02*
X7709929Y-17579474D01*
X7709929Y-17579474D02*
X7719453Y-17541379D01*
X7719453Y-17541379D02*
X7728977Y-17522331D01*
X7728977Y-17522331D02*
X7738501Y-17512808D01*
X7738501Y-17512808D02*
X7757548Y-17503284D01*
X7890882Y-17503284D02*
X8024215Y-17503284D01*
X8024215Y-17503284D02*
X7938501Y-17703284D01*
X8138501Y-17503284D02*
X8157548Y-17503284D01*
X8157548Y-17503284D02*
X8176596Y-17512808D01*
X8176596Y-17512808D02*
X8186120Y-17522331D01*
X8186120Y-17522331D02*
X8195644Y-17541379D01*
X8195644Y-17541379D02*
X8205167Y-17579474D01*
X8205167Y-17579474D02*
X8205167Y-17627093D01*
X8205167Y-17627093D02*
X8195644Y-17665189D01*
X8195644Y-17665189D02*
X8186120Y-17684236D01*
X8186120Y-17684236D02*
X8176596Y-17693760D01*
X8176596Y-17693760D02*
X8157548Y-17703284D01*
X8157548Y-17703284D02*
X8138501Y-17703284D01*
X8138501Y-17703284D02*
X8119453Y-17693760D01*
X8119453Y-17693760D02*
X8109929Y-17684236D01*
X8109929Y-17684236D02*
X8100406Y-17665189D01*
X8100406Y-17665189D02*
X8090882Y-17627093D01*
X8090882Y-17627093D02*
X8090882Y-17579474D01*
X8090882Y-17579474D02*
X8100406Y-17541379D01*
X8100406Y-17541379D02*
X8109929Y-17522331D01*
X8109929Y-17522331D02*
X8119453Y-17512808D01*
X8119453Y-17512808D02*
X8138501Y-17503284D01*
X8300406Y-17703284D02*
X8338501Y-17703284D01*
X8338501Y-17703284D02*
X8357548Y-17693760D01*
X8357548Y-17693760D02*
X8367072Y-17684236D01*
X8367072Y-17684236D02*
X8386120Y-17655665D01*
X8386120Y-17655665D02*
X8395644Y-17617570D01*
X8395644Y-17617570D02*
X8395644Y-17541379D01*
X8395644Y-17541379D02*
X8386120Y-17522331D01*
X8386120Y-17522331D02*
X8376596Y-17512808D01*
X8376596Y-17512808D02*
X8357548Y-17503284D01*
X8357548Y-17503284D02*
X8319453Y-17503284D01*
X8319453Y-17503284D02*
X8300406Y-17512808D01*
X8300406Y-17512808D02*
X8290882Y-17522331D01*
X8290882Y-17522331D02*
X8281358Y-17541379D01*
X8281358Y-17541379D02*
X8281358Y-17588998D01*
X8281358Y-17588998D02*
X8290882Y-17608046D01*
X8290882Y-17608046D02*
X8300406Y-17617570D01*
X8300406Y-17617570D02*
X8319453Y-17627093D01*
X8319453Y-17627093D02*
X8357548Y-17627093D01*
X8357548Y-17627093D02*
X8376596Y-17617570D01*
X8376596Y-17617570D02*
X8386120Y-17608046D01*
X8386120Y-17608046D02*
X8395644Y-17588998D01*
X8471834Y-17503284D02*
X8471834Y-17541379D01*
X8548025Y-17503284D02*
X8548025Y-17541379D01*
X8843263Y-17779474D02*
X8833739Y-17769950D01*
X8833739Y-17769950D02*
X8814691Y-17741379D01*
X8814691Y-17741379D02*
X8805168Y-17722331D01*
X8805168Y-17722331D02*
X8795644Y-17693760D01*
X8795644Y-17693760D02*
X8786120Y-17646141D01*
X8786120Y-17646141D02*
X8786120Y-17608046D01*
X8786120Y-17608046D02*
X8795644Y-17560427D01*
X8795644Y-17560427D02*
X8805168Y-17531855D01*
X8805168Y-17531855D02*
X8814691Y-17512808D01*
X8814691Y-17512808D02*
X8833739Y-17484236D01*
X8833739Y-17484236D02*
X8843263Y-17474712D01*
X8909930Y-17522331D02*
X8919453Y-17512808D01*
X8919453Y-17512808D02*
X8938501Y-17503284D01*
X8938501Y-17503284D02*
X8986120Y-17503284D01*
X8986120Y-17503284D02*
X9005168Y-17512808D01*
X9005168Y-17512808D02*
X9014691Y-17522331D01*
X9014691Y-17522331D02*
X9024215Y-17541379D01*
X9024215Y-17541379D02*
X9024215Y-17560427D01*
X9024215Y-17560427D02*
X9014691Y-17588998D01*
X9014691Y-17588998D02*
X8900406Y-17703284D01*
X8900406Y-17703284D02*
X9024215Y-17703284D01*
X9262311Y-17703284D02*
X9262311Y-17503284D01*
X9348025Y-17703284D02*
X9348025Y-17598522D01*
X9348025Y-17598522D02*
X9338501Y-17579474D01*
X9338501Y-17579474D02*
X9319453Y-17569950D01*
X9319453Y-17569950D02*
X9290882Y-17569950D01*
X9290882Y-17569950D02*
X9271834Y-17579474D01*
X9271834Y-17579474D02*
X9262311Y-17588998D01*
X9471834Y-17703284D02*
X9452787Y-17693760D01*
X9452787Y-17693760D02*
X9443263Y-17684236D01*
X9443263Y-17684236D02*
X9433739Y-17665189D01*
X9433739Y-17665189D02*
X9433739Y-17608046D01*
X9433739Y-17608046D02*
X9443263Y-17588998D01*
X9443263Y-17588998D02*
X9452787Y-17579474D01*
X9452787Y-17579474D02*
X9471834Y-17569950D01*
X9471834Y-17569950D02*
X9500406Y-17569950D01*
X9500406Y-17569950D02*
X9519453Y-17579474D01*
X9519453Y-17579474D02*
X9528977Y-17588998D01*
X9528977Y-17588998D02*
X9538501Y-17608046D01*
X9538501Y-17608046D02*
X9538501Y-17665189D01*
X9538501Y-17665189D02*
X9528977Y-17684236D01*
X9528977Y-17684236D02*
X9519453Y-17693760D01*
X9519453Y-17693760D02*
X9500406Y-17703284D01*
X9500406Y-17703284D02*
X9471834Y-17703284D01*
X9652787Y-17703284D02*
X9633739Y-17693760D01*
X9633739Y-17693760D02*
X9624215Y-17674712D01*
X9624215Y-17674712D02*
X9624215Y-17503284D01*
X9805168Y-17693760D02*
X9786120Y-17703284D01*
X9786120Y-17703284D02*
X9748025Y-17703284D01*
X9748025Y-17703284D02*
X9728977Y-17693760D01*
X9728977Y-17693760D02*
X9719453Y-17674712D01*
X9719453Y-17674712D02*
X9719453Y-17598522D01*
X9719453Y-17598522D02*
X9728977Y-17579474D01*
X9728977Y-17579474D02*
X9748025Y-17569950D01*
X9748025Y-17569950D02*
X9786120Y-17569950D01*
X9786120Y-17569950D02*
X9805168Y-17579474D01*
X9805168Y-17579474D02*
X9814692Y-17598522D01*
X9814692Y-17598522D02*
X9814692Y-17617570D01*
X9814692Y-17617570D02*
X9719453Y-17636617D01*
X9890882Y-17693760D02*
X9909930Y-17703284D01*
X9909930Y-17703284D02*
X9948025Y-17703284D01*
X9948025Y-17703284D02*
X9967073Y-17693760D01*
X9967073Y-17693760D02*
X9976596Y-17674712D01*
X9976596Y-17674712D02*
X9976596Y-17665189D01*
X9976596Y-17665189D02*
X9967073Y-17646141D01*
X9967073Y-17646141D02*
X9948025Y-17636617D01*
X9948025Y-17636617D02*
X9919453Y-17636617D01*
X9919453Y-17636617D02*
X9900406Y-17627093D01*
X9900406Y-17627093D02*
X9890882Y-17608046D01*
X9890882Y-17608046D02*
X9890882Y-17598522D01*
X9890882Y-17598522D02*
X9900406Y-17579474D01*
X9900406Y-17579474D02*
X9919453Y-17569950D01*
X9919453Y-17569950D02*
X9948025Y-17569950D01*
X9948025Y-17569950D02*
X9967073Y-17579474D01*
X10043263Y-17779474D02*
X10052787Y-17769950D01*
X10052787Y-17769950D02*
X10071834Y-17741379D01*
X10071834Y-17741379D02*
X10081358Y-17722331D01*
X10081358Y-17722331D02*
X10090882Y-17693760D01*
X10090882Y-17693760D02*
X10100406Y-17646141D01*
X10100406Y-17646141D02*
X10100406Y-17608046D01*
X10100406Y-17608046D02*
X10090882Y-17560427D01*
X10090882Y-17560427D02*
X10081358Y-17531855D01*
X10081358Y-17531855D02*
X10071834Y-17512808D01*
X10071834Y-17512808D02*
X10052787Y-17484236D01*
X10052787Y-17484236D02*
X10043263Y-17474712D01*
M02*
