G04 #@! TF.GenerationSoftware,KiCad,Pcbnew,7.0.9*
G04 #@! TF.CreationDate,2024-01-13T23:58:37+01:00*
G04 #@! TF.ProjectId,ithowifi_4l,6974686f-7769-4666-995f-346c2e6b6963,rev?*
G04 #@! TF.SameCoordinates,Original*
G04 #@! TF.FileFunction,Copper,L3,Inr*
G04 #@! TF.FilePolarity,Positive*
%FSLAX46Y46*%
G04 Gerber Fmt 4.6, Leading zero omitted, Abs format (unit mm)*
G04 Created by KiCad (PCBNEW 7.0.9) date 2024-01-13 23:58:37*
%MOMM*%
%LPD*%
G01*
G04 APERTURE LIST*
G04 Aperture macros list*
%AMRoundRect*
0 Rectangle with rounded corners*
0 $1 Rounding radius*
0 $2 $3 $4 $5 $6 $7 $8 $9 X,Y pos of 4 corners*
0 Add a 4 corners polygon primitive as box body*
4,1,4,$2,$3,$4,$5,$6,$7,$8,$9,$2,$3,0*
0 Add four circle primitives for the rounded corners*
1,1,$1+$1,$2,$3*
1,1,$1+$1,$4,$5*
1,1,$1+$1,$6,$7*
1,1,$1+$1,$8,$9*
0 Add four rect primitives between the rounded corners*
20,1,$1+$1,$2,$3,$4,$5,0*
20,1,$1+$1,$4,$5,$6,$7,0*
20,1,$1+$1,$6,$7,$8,$9,0*
20,1,$1+$1,$8,$9,$2,$3,0*%
G04 Aperture macros list end*
G04 #@! TA.AperFunction,ComponentPad*
%ADD10R,1.700000X1.700000*%
G04 #@! TD*
G04 #@! TA.AperFunction,ComponentPad*
%ADD11O,1.700000X1.700000*%
G04 #@! TD*
G04 #@! TA.AperFunction,ComponentPad*
%ADD12RoundRect,0.273000X-0.677000X0.637000X-0.677000X-0.637000X0.677000X-0.637000X0.677000X0.637000X0*%
G04 #@! TD*
G04 #@! TA.AperFunction,ComponentPad*
%ADD13O,1.250000X1.050000*%
G04 #@! TD*
G04 #@! TA.AperFunction,ComponentPad*
%ADD14C,1.446000*%
G04 #@! TD*
G04 #@! TA.AperFunction,ComponentPad*
%ADD15C,2.700000*%
G04 #@! TD*
G04 #@! TA.AperFunction,ComponentPad*
%ADD16C,2.000000*%
G04 #@! TD*
G04 #@! TA.AperFunction,ViaPad*
%ADD17C,0.800000*%
G04 #@! TD*
G04 APERTURE END LIST*
D10*
X75666600Y-154025600D03*
D11*
X73126600Y-154025600D03*
X75666600Y-151485600D03*
X73126600Y-151485600D03*
D12*
X54178200Y-117568000D03*
D13*
X57078200Y-118743000D03*
X57078200Y-123593000D03*
D12*
X54178200Y-124768000D03*
D14*
X59372500Y-142176500D03*
X61152500Y-141156500D03*
X59372500Y-140136500D03*
X61152500Y-139116500D03*
X59372500Y-138096500D03*
X61152500Y-137076500D03*
X59372500Y-136056500D03*
X61152500Y-135036500D03*
X65962500Y-145466500D03*
X65962500Y-143176500D03*
X65962500Y-134036500D03*
X65962500Y-131746500D03*
D15*
X60392500Y-130476500D03*
X60392500Y-146736500D03*
D10*
X63246000Y-114300000D03*
D11*
X60706000Y-114300000D03*
X63246000Y-111760000D03*
X60706000Y-111760000D03*
D16*
X88392000Y-110032800D03*
D17*
X85039200Y-121531200D03*
X85039200Y-123731200D03*
X85039200Y-122631200D03*
X109270800Y-148844000D03*
X76225400Y-114427000D03*
X108000000Y-114100000D03*
X104400000Y-114100000D03*
X102600000Y-114100000D03*
X79121000Y-134112000D03*
X100800000Y-114100000D03*
X87400000Y-118000000D03*
X87239600Y-116650000D03*
X115150000Y-114100000D03*
X100177600Y-142824200D03*
X89662000Y-113450000D03*
X87400000Y-119350000D03*
X100177600Y-141300200D03*
X93472000Y-114100000D03*
X100177600Y-139750800D03*
X98679000Y-139750800D03*
X91440000Y-114050000D03*
X97155000Y-139725400D03*
X98679000Y-141300200D03*
X69088000Y-132969000D03*
X89662000Y-111900000D03*
X87239600Y-113450000D03*
X89662000Y-116650000D03*
X111600000Y-114100000D03*
X89662000Y-115000000D03*
X79121000Y-135255000D03*
X84201000Y-111887000D03*
X84201000Y-107442000D03*
X95400000Y-114100000D03*
X90800000Y-118000000D03*
X85852000Y-111900000D03*
X69088000Y-135255000D03*
X82473800Y-114325400D03*
X97155000Y-141274800D03*
X69088000Y-134112000D03*
X98679000Y-142824200D03*
X87630000Y-148590000D03*
X97200000Y-114100000D03*
X84201000Y-108966000D03*
X90800000Y-119350000D03*
X113350000Y-114100000D03*
X87239600Y-115000000D03*
X79121000Y-132969000D03*
X105308400Y-148640800D03*
X109800000Y-114100000D03*
X99000000Y-114100000D03*
X106200000Y-114100000D03*
X97155000Y-142798800D03*
X84201000Y-110490000D03*
X87239600Y-111887000D03*
X58510873Y-126883727D03*
X79121000Y-131572000D03*
X70739000Y-140538200D03*
X58510873Y-119790990D03*
X79121000Y-124815600D03*
X80010000Y-120904000D03*
X74828400Y-121531200D03*
X74828400Y-123731200D03*
X74828400Y-122631200D03*
X75844400Y-110299500D03*
X75844400Y-108458000D03*
X77495400Y-108458000D03*
X79336900Y-108458000D03*
X81241900Y-108458000D03*
X81241900Y-110236000D03*
X66120300Y-152467600D03*
X113030000Y-133578600D03*
X64770000Y-117221000D03*
X71501000Y-112445800D03*
X70561200Y-128371600D03*
X83312000Y-147320000D03*
X85500000Y-129900000D03*
X77927200Y-145097506D03*
X105206800Y-147370800D03*
X81280000Y-141859000D03*
X111125000Y-146050000D03*
X96650000Y-120650000D03*
X77927200Y-149098000D03*
X93250000Y-143050000D03*
X94100000Y-127000000D03*
X91200000Y-139700000D03*
X92830000Y-127000000D03*
X96650000Y-134650000D03*
X96640000Y-127000000D03*
X95350000Y-133350000D03*
X95370010Y-127000000D03*
X99100004Y-116900000D03*
X87900000Y-133400000D03*
X79460000Y-144530000D03*
X103733600Y-133375400D03*
X105029000Y-137160000D03*
X79480000Y-146140000D03*
X60071000Y-119761000D03*
X63119000Y-119761000D03*
X66014600Y-136626600D03*
X68943500Y-136634500D03*
X82778600Y-143281400D03*
X68326000Y-114681000D03*
X85852000Y-142036800D03*
X84658200Y-143154400D03*
X68326000Y-115951000D03*
X72644000Y-145669000D03*
X72567800Y-141681200D03*
X73914000Y-115951000D03*
X90000000Y-125050000D03*
X103825000Y-126425000D03*
X83500000Y-119099992D03*
X73914000Y-117856000D03*
X85600000Y-126750000D03*
G04 #@! TA.AperFunction,Conductor*
G36*
X84793604Y-106737713D02*
G01*
X84830149Y-106788013D01*
X84835071Y-106819768D01*
X84757385Y-118510500D01*
X84756000Y-118719000D01*
X92375999Y-118719000D01*
X92376000Y-118719000D01*
X92388087Y-116900000D01*
X98440697Y-116900000D01*
X98459855Y-117057781D01*
X98514360Y-117201500D01*
X98516217Y-117206395D01*
X98606506Y-117337201D01*
X98606507Y-117337202D01*
X98606508Y-117337203D01*
X98606509Y-117337204D01*
X98725472Y-117442597D01*
X98725473Y-117442598D01*
X98725475Y-117442599D01*
X98866211Y-117516463D01*
X99020533Y-117554500D01*
X99020537Y-117554500D01*
X99179471Y-117554500D01*
X99179475Y-117554500D01*
X99333797Y-117516463D01*
X99474533Y-117442599D01*
X99593502Y-117337201D01*
X99683791Y-117206395D01*
X99740153Y-117057782D01*
X99759311Y-116900000D01*
X99740153Y-116742218D01*
X99683791Y-116593605D01*
X99593502Y-116462799D01*
X99593499Y-116462796D01*
X99593498Y-116462795D01*
X99474535Y-116357402D01*
X99474534Y-116357401D01*
X99333799Y-116283538D01*
X99333798Y-116283537D01*
X99333797Y-116283537D01*
X99255551Y-116264251D01*
X99179477Y-116245500D01*
X99179475Y-116245500D01*
X99020533Y-116245500D01*
X99020530Y-116245500D01*
X98906419Y-116273626D01*
X98866211Y-116283537D01*
X98866210Y-116283537D01*
X98866208Y-116283538D01*
X98725473Y-116357401D01*
X98725472Y-116357402D01*
X98606509Y-116462795D01*
X98606508Y-116462796D01*
X98516216Y-116593606D01*
X98459855Y-116742218D01*
X98440697Y-116900000D01*
X92388087Y-116900000D01*
X92412371Y-113245452D01*
X92431977Y-113186452D01*
X92482518Y-113150242D01*
X92544691Y-113150655D01*
X92589198Y-113180476D01*
X92630781Y-113228764D01*
X92762226Y-113334199D01*
X92910731Y-113413828D01*
X93071290Y-113464968D01*
X93071294Y-113464968D01*
X93071300Y-113464970D01*
X93154823Y-113475423D01*
X93238492Y-113485895D01*
X93319612Y-113481035D01*
X93322617Y-113480946D01*
X109631484Y-113481802D01*
X109631571Y-113481831D01*
X109631572Y-113481805D01*
X109673216Y-113481842D01*
X109673216Y-113481843D01*
X109736073Y-113481901D01*
X109858685Y-113454153D01*
X109965889Y-113403016D01*
X110027530Y-113394900D01*
X110082170Y-113424566D01*
X110108938Y-113480683D01*
X110109782Y-113495676D01*
X110108999Y-113537999D01*
X110109000Y-113538000D01*
X115680900Y-113538000D01*
X115740031Y-113557213D01*
X115776576Y-113607513D01*
X115781500Y-113638600D01*
X115781500Y-149666404D01*
X115762287Y-149725535D01*
X115711987Y-149762080D01*
X115680903Y-149767004D01*
X81532000Y-149767999D01*
X81532000Y-156316900D01*
X81512787Y-156376031D01*
X81462487Y-156412576D01*
X81431400Y-156417500D01*
X53235298Y-156417500D01*
X53228727Y-156417069D01*
X53210655Y-156414690D01*
X53128792Y-156403912D01*
X53103425Y-156397115D01*
X53019487Y-156362347D01*
X52996743Y-156349216D01*
X52924660Y-156293904D01*
X52906095Y-156275339D01*
X52850781Y-156203252D01*
X52837654Y-156180516D01*
X52802884Y-156096574D01*
X52796087Y-156071206D01*
X52782931Y-155971274D01*
X52782500Y-155964702D01*
X52782500Y-153828340D01*
X53981500Y-153828340D01*
X54022429Y-154073613D01*
X54103171Y-154308809D01*
X54103172Y-154308810D01*
X54221521Y-154527501D01*
X54221523Y-154527503D01*
X54221526Y-154527509D01*
X54374262Y-154723744D01*
X54374266Y-154723749D01*
X54521668Y-154859441D01*
X54557215Y-154892164D01*
X54765393Y-155028173D01*
X54993119Y-155128063D01*
X55234179Y-155189108D01*
X55234182Y-155189108D01*
X55234185Y-155189109D01*
X55373890Y-155200684D01*
X55419933Y-155204500D01*
X55419935Y-155204500D01*
X55544065Y-155204500D01*
X55544067Y-155204500D01*
X55596623Y-155200145D01*
X55729814Y-155189109D01*
X55729816Y-155189108D01*
X55729821Y-155189108D01*
X55970881Y-155128063D01*
X56198607Y-155028173D01*
X56406785Y-154892164D01*
X56589738Y-154723744D01*
X56742474Y-154527509D01*
X56860828Y-154308810D01*
X56941571Y-154073614D01*
X56949583Y-154025600D01*
X72017368Y-154025600D01*
X72036254Y-154229416D01*
X72036254Y-154229417D01*
X72092272Y-154426303D01*
X72092273Y-154426304D01*
X72183509Y-154609530D01*
X72183510Y-154609531D01*
X72183512Y-154609535D01*
X72306868Y-154772885D01*
X72458128Y-154910778D01*
X72458132Y-154910781D01*
X72458138Y-154910786D01*
X72632173Y-155018544D01*
X72823044Y-155092488D01*
X72872424Y-155101718D01*
X73024251Y-155130100D01*
X73024253Y-155130100D01*
X73228948Y-155130100D01*
X73307950Y-155115332D01*
X73430156Y-155092488D01*
X73621027Y-155018544D01*
X73795062Y-154910786D01*
X73806164Y-154900665D01*
X74562100Y-154900665D01*
X74576866Y-154974901D01*
X74576867Y-154974904D01*
X74633114Y-155059082D01*
X74633115Y-155059083D01*
X74633116Y-155059084D01*
X74717299Y-155115334D01*
X74791533Y-155130100D01*
X76541666Y-155130099D01*
X76615901Y-155115334D01*
X76700084Y-155059084D01*
X76756334Y-154974901D01*
X76771100Y-154900667D01*
X76771099Y-153150534D01*
X76756334Y-153076299D01*
X76756332Y-153076297D01*
X76756332Y-153076295D01*
X76700085Y-152992117D01*
X76700083Y-152992115D01*
X76650092Y-152958712D01*
X76615901Y-152935866D01*
X76615900Y-152935865D01*
X76615899Y-152935865D01*
X76560098Y-152924766D01*
X76541667Y-152921100D01*
X76541666Y-152921100D01*
X74791534Y-152921100D01*
X74717298Y-152935866D01*
X74717295Y-152935867D01*
X74633117Y-152992114D01*
X74633115Y-152992116D01*
X74576865Y-153076300D01*
X74562100Y-153150533D01*
X74562100Y-154900665D01*
X73806164Y-154900665D01*
X73946332Y-154772885D01*
X74069688Y-154609535D01*
X74160928Y-154426301D01*
X74216945Y-154229421D01*
X74235832Y-154025600D01*
X74216945Y-153821779D01*
X74160928Y-153624899D01*
X74069688Y-153441665D01*
X73946332Y-153278315D01*
X73946331Y-153278314D01*
X73795071Y-153140421D01*
X73795066Y-153140417D01*
X73795062Y-153140414D01*
X73621027Y-153032656D01*
X73621023Y-153032654D01*
X73430154Y-152958711D01*
X73430149Y-152958710D01*
X73228949Y-152921100D01*
X73228947Y-152921100D01*
X73024253Y-152921100D01*
X73024251Y-152921100D01*
X72823050Y-152958710D01*
X72823045Y-152958711D01*
X72632176Y-153032654D01*
X72632172Y-153032656D01*
X72549151Y-153084061D01*
X72458138Y-153140414D01*
X72458137Y-153140415D01*
X72458128Y-153140421D01*
X72306868Y-153278314D01*
X72183510Y-153441668D01*
X72183509Y-153441669D01*
X72092273Y-153624895D01*
X72092272Y-153624896D01*
X72036254Y-153821782D01*
X72036254Y-153821783D01*
X72017368Y-154025600D01*
X56949583Y-154025600D01*
X56982500Y-153828335D01*
X56982500Y-153579665D01*
X56941571Y-153334386D01*
X56860828Y-153099190D01*
X56764451Y-152921101D01*
X56742478Y-152880498D01*
X56742477Y-152880497D01*
X56742474Y-152880491D01*
X56589738Y-152684256D01*
X56589736Y-152684254D01*
X56589733Y-152684250D01*
X56406788Y-152515839D01*
X56406785Y-152515836D01*
X56332954Y-152467600D01*
X65460993Y-152467600D01*
X65480151Y-152625382D01*
X65536513Y-152773995D01*
X65626802Y-152904801D01*
X65626803Y-152904802D01*
X65626804Y-152904803D01*
X65626805Y-152904804D01*
X65745768Y-153010197D01*
X65745769Y-153010198D01*
X65745771Y-153010199D01*
X65886507Y-153084063D01*
X66040829Y-153122100D01*
X66040833Y-153122100D01*
X66199767Y-153122100D01*
X66199771Y-153122100D01*
X66354093Y-153084063D01*
X66494829Y-153010199D01*
X66613798Y-152904801D01*
X66704087Y-152773995D01*
X66760449Y-152625382D01*
X66779607Y-152467600D01*
X66760449Y-152309818D01*
X66704087Y-152161205D01*
X66613798Y-152030399D01*
X66613795Y-152030396D01*
X66613794Y-152030395D01*
X66494831Y-151925002D01*
X66494830Y-151925001D01*
X66354095Y-151851138D01*
X66354094Y-151851137D01*
X66354093Y-151851137D01*
X66275847Y-151831851D01*
X66199773Y-151813100D01*
X66199771Y-151813100D01*
X66040829Y-151813100D01*
X66040826Y-151813100D01*
X65926715Y-151841226D01*
X65886507Y-151851137D01*
X65886506Y-151851137D01*
X65886504Y-151851138D01*
X65745769Y-151925001D01*
X65745768Y-151925002D01*
X65626805Y-152030395D01*
X65626804Y-152030396D01*
X65536512Y-152161206D01*
X65514635Y-152218892D01*
X65480151Y-152309818D01*
X65460993Y-152467600D01*
X56332954Y-152467600D01*
X56198612Y-152379830D01*
X56198610Y-152379829D01*
X56198607Y-152379827D01*
X55970881Y-152279937D01*
X55729814Y-152218890D01*
X55563478Y-152205108D01*
X55544067Y-152203500D01*
X55419933Y-152203500D01*
X55401485Y-152205028D01*
X55234185Y-152218890D01*
X54993118Y-152279937D01*
X54924997Y-152309818D01*
X54765393Y-152379827D01*
X54765391Y-152379828D01*
X54765387Y-152379830D01*
X54557214Y-152515836D01*
X54557211Y-152515839D01*
X54374266Y-152684250D01*
X54221521Y-152880498D01*
X54103172Y-153099189D01*
X54103171Y-153099190D01*
X54022429Y-153334386D01*
X53981500Y-153579659D01*
X53981500Y-153828340D01*
X52782500Y-153828340D01*
X52782500Y-151358599D01*
X71978620Y-151358599D01*
X71978621Y-151358600D01*
X72642782Y-151358600D01*
X72626600Y-151413711D01*
X72626600Y-151557489D01*
X72642782Y-151612600D01*
X71978621Y-151612600D01*
X71986599Y-151698698D01*
X72045168Y-151904551D01*
X72045169Y-151904552D01*
X72140560Y-152096123D01*
X72269537Y-152266917D01*
X72427686Y-152411090D01*
X72427695Y-152411096D01*
X72609655Y-152523762D01*
X72609659Y-152523764D01*
X72809219Y-152601073D01*
X72999599Y-152636662D01*
X72999600Y-152636662D01*
X72999600Y-151972481D01*
X73090837Y-151985600D01*
X73162363Y-151985600D01*
X73253600Y-151972481D01*
X73253600Y-152636662D01*
X73443980Y-152601073D01*
X73643540Y-152523764D01*
X73643544Y-152523762D01*
X73825504Y-152411096D01*
X73825513Y-152411090D01*
X73983662Y-152266917D01*
X74112638Y-152096123D01*
X74112639Y-152096123D01*
X74208030Y-151904552D01*
X74208031Y-151904551D01*
X74266600Y-151698698D01*
X74274579Y-151612600D01*
X73610418Y-151612600D01*
X73626600Y-151557489D01*
X73626600Y-151485600D01*
X74557368Y-151485600D01*
X74576254Y-151689416D01*
X74576254Y-151689417D01*
X74632272Y-151886303D01*
X74632273Y-151886304D01*
X74723509Y-152069530D01*
X74723510Y-152069531D01*
X74723512Y-152069535D01*
X74836301Y-152218892D01*
X74846868Y-152232885D01*
X74998128Y-152370778D01*
X74998132Y-152370781D01*
X74998138Y-152370786D01*
X75172173Y-152478544D01*
X75363044Y-152552488D01*
X75412424Y-152561718D01*
X75564251Y-152590100D01*
X75564253Y-152590100D01*
X75768948Y-152590100D01*
X75844861Y-152575909D01*
X75970156Y-152552488D01*
X76161027Y-152478544D01*
X76335062Y-152370786D01*
X76486332Y-152232885D01*
X76609688Y-152069535D01*
X76700928Y-151886301D01*
X76756945Y-151689421D01*
X76775832Y-151485600D01*
X76756945Y-151281779D01*
X76700928Y-151084899D01*
X76609688Y-150901665D01*
X76486332Y-150738315D01*
X76449000Y-150704282D01*
X76335071Y-150600421D01*
X76335066Y-150600417D01*
X76335062Y-150600414D01*
X76161027Y-150492656D01*
X76161023Y-150492654D01*
X75970154Y-150418711D01*
X75970149Y-150418710D01*
X75768949Y-150381100D01*
X75768947Y-150381100D01*
X75564253Y-150381100D01*
X75564251Y-150381100D01*
X75363050Y-150418710D01*
X75363045Y-150418711D01*
X75172176Y-150492654D01*
X75172172Y-150492656D01*
X75064414Y-150559377D01*
X74998138Y-150600414D01*
X74998137Y-150600415D01*
X74998128Y-150600421D01*
X74846868Y-150738314D01*
X74723510Y-150901668D01*
X74723509Y-150901669D01*
X74632273Y-151084895D01*
X74632272Y-151084896D01*
X74576254Y-151281782D01*
X74576254Y-151281783D01*
X74557368Y-151485600D01*
X73626600Y-151485600D01*
X73626600Y-151413711D01*
X73610418Y-151358600D01*
X74274579Y-151358600D01*
X74274579Y-151358599D01*
X74266600Y-151272501D01*
X74208031Y-151066648D01*
X74208030Y-151066647D01*
X74112639Y-150875076D01*
X73983662Y-150704282D01*
X73825513Y-150560109D01*
X73825504Y-150560103D01*
X73643544Y-150447437D01*
X73643540Y-150447435D01*
X73443981Y-150370126D01*
X73253600Y-150334537D01*
X73253600Y-150998718D01*
X73162363Y-150985600D01*
X73090837Y-150985600D01*
X72999600Y-150998718D01*
X72999600Y-150334537D01*
X72809218Y-150370126D01*
X72609659Y-150447435D01*
X72609655Y-150447437D01*
X72427695Y-150560103D01*
X72427686Y-150560109D01*
X72269537Y-150704282D01*
X72140561Y-150875076D01*
X72140560Y-150875076D01*
X72045169Y-151066647D01*
X72045168Y-151066648D01*
X71986599Y-151272501D01*
X71978620Y-151358599D01*
X52782500Y-151358599D01*
X52782500Y-149098000D01*
X77267893Y-149098000D01*
X77287051Y-149255782D01*
X77343413Y-149404395D01*
X77433702Y-149535201D01*
X77433703Y-149535202D01*
X77433704Y-149535203D01*
X77433705Y-149535204D01*
X77552668Y-149640597D01*
X77552669Y-149640598D01*
X77552671Y-149640599D01*
X77693407Y-149714463D01*
X77847729Y-149752500D01*
X77847733Y-149752500D01*
X78006667Y-149752500D01*
X78006671Y-149752500D01*
X78160993Y-149714463D01*
X78301729Y-149640599D01*
X78420698Y-149535201D01*
X78510987Y-149404395D01*
X78567349Y-149255782D01*
X78586507Y-149098000D01*
X78567349Y-148940218D01*
X78510987Y-148791605D01*
X78420698Y-148660799D01*
X78420695Y-148660796D01*
X78420694Y-148660795D01*
X78301731Y-148555402D01*
X78301730Y-148555401D01*
X78160995Y-148481538D01*
X78160994Y-148481537D01*
X78160993Y-148481537D01*
X78082747Y-148462251D01*
X78006673Y-148443500D01*
X78006671Y-148443500D01*
X77847729Y-148443500D01*
X77847726Y-148443500D01*
X77733615Y-148471626D01*
X77693407Y-148481537D01*
X77693406Y-148481537D01*
X77693404Y-148481538D01*
X77552669Y-148555401D01*
X77552668Y-148555402D01*
X77433705Y-148660795D01*
X77433704Y-148660796D01*
X77343412Y-148791606D01*
X77287051Y-148940218D01*
X77267893Y-149098000D01*
X52782500Y-149098000D01*
X52782500Y-145025187D01*
X54953238Y-145025187D01*
X54983263Y-145298071D01*
X55052704Y-145563682D01*
X55160077Y-145816353D01*
X55275711Y-146005825D01*
X55303095Y-146050696D01*
X55377414Y-146140000D01*
X55478711Y-146261720D01*
X55478715Y-146261725D01*
X55683179Y-146444925D01*
X55912138Y-146596403D01*
X55912143Y-146596405D01*
X56160709Y-146712928D01*
X56160713Y-146712929D01*
X56160721Y-146712933D01*
X56423619Y-146792027D01*
X56423620Y-146792027D01*
X56423623Y-146792028D01*
X56581941Y-146815327D01*
X56695231Y-146832000D01*
X56695233Y-146832000D01*
X56901051Y-146832000D01*
X56934802Y-146829529D01*
X57106305Y-146816977D01*
X57374275Y-146757284D01*
X57428617Y-146736500D01*
X58783039Y-146736500D01*
X58802853Y-146988272D01*
X58802854Y-146988278D01*
X58861810Y-147233849D01*
X58958457Y-147467174D01*
X58958459Y-147467180D01*
X59090420Y-147682519D01*
X59090423Y-147682522D01*
X59254436Y-147874558D01*
X59254441Y-147874563D01*
X59446477Y-148038576D01*
X59446480Y-148038579D01*
X59661819Y-148170540D01*
X59661825Y-148170542D01*
X59895150Y-148267189D01*
X60128535Y-148323219D01*
X60140725Y-148326146D01*
X60392500Y-148345961D01*
X60644275Y-148326146D01*
X60730196Y-148305517D01*
X60889849Y-148267189D01*
X60950794Y-148241944D01*
X61123180Y-148170540D01*
X61338517Y-148038581D01*
X61530561Y-147874561D01*
X61694581Y-147682517D01*
X61826540Y-147467180D01*
X61887504Y-147320000D01*
X82652693Y-147320000D01*
X82671851Y-147477782D01*
X82728213Y-147626395D01*
X82818502Y-147757201D01*
X82818503Y-147757202D01*
X82818504Y-147757203D01*
X82818505Y-147757204D01*
X82937468Y-147862597D01*
X82937469Y-147862598D01*
X82937471Y-147862599D01*
X83078207Y-147936463D01*
X83232529Y-147974500D01*
X83232533Y-147974500D01*
X83391467Y-147974500D01*
X83391471Y-147974500D01*
X83545793Y-147936463D01*
X83686529Y-147862599D01*
X83805498Y-147757201D01*
X83895787Y-147626395D01*
X83952149Y-147477782D01*
X83965139Y-147370800D01*
X104547493Y-147370800D01*
X104566651Y-147528582D01*
X104623013Y-147677195D01*
X104713302Y-147808001D01*
X104713303Y-147808002D01*
X104713304Y-147808003D01*
X104713305Y-147808004D01*
X104832268Y-147913397D01*
X104832269Y-147913398D01*
X104832271Y-147913399D01*
X104973007Y-147987263D01*
X105127329Y-148025300D01*
X105127333Y-148025300D01*
X105286267Y-148025300D01*
X105286271Y-148025300D01*
X105440593Y-147987263D01*
X105581329Y-147913399D01*
X105700298Y-147808001D01*
X105790587Y-147677195D01*
X105846949Y-147528582D01*
X105866107Y-147370800D01*
X105846949Y-147213018D01*
X105790587Y-147064405D01*
X105700298Y-146933599D01*
X105700295Y-146933596D01*
X105700294Y-146933595D01*
X105581331Y-146828202D01*
X105581330Y-146828201D01*
X105440595Y-146754338D01*
X105440594Y-146754337D01*
X105440593Y-146754337D01*
X105362347Y-146735051D01*
X105286273Y-146716300D01*
X105286271Y-146716300D01*
X105127329Y-146716300D01*
X105127326Y-146716300D01*
X105045374Y-146736500D01*
X104973007Y-146754337D01*
X104973006Y-146754337D01*
X104973004Y-146754338D01*
X104832269Y-146828201D01*
X104832268Y-146828202D01*
X104713305Y-146933595D01*
X104713304Y-146933596D01*
X104623012Y-147064406D01*
X104585917Y-147162218D01*
X104566651Y-147213018D01*
X104547493Y-147370800D01*
X83965139Y-147370800D01*
X83971307Y-147320000D01*
X83952149Y-147162218D01*
X83895787Y-147013605D01*
X83805498Y-146882799D01*
X83805495Y-146882796D01*
X83805494Y-146882795D01*
X83686531Y-146777402D01*
X83686530Y-146777401D01*
X83545795Y-146703538D01*
X83545794Y-146703537D01*
X83545793Y-146703537D01*
X83460836Y-146682597D01*
X83391473Y-146665500D01*
X83391471Y-146665500D01*
X83232529Y-146665500D01*
X83232526Y-146665500D01*
X83118415Y-146693626D01*
X83078207Y-146703537D01*
X83078206Y-146703537D01*
X83078204Y-146703538D01*
X82937469Y-146777401D01*
X82937468Y-146777402D01*
X82818505Y-146882795D01*
X82818504Y-146882796D01*
X82728212Y-147013606D01*
X82671851Y-147162218D01*
X82652693Y-147320000D01*
X61887504Y-147320000D01*
X61923188Y-147233851D01*
X61923187Y-147233851D01*
X61923189Y-147233849D01*
X61963869Y-147064405D01*
X61982146Y-146988275D01*
X62001961Y-146736500D01*
X61982146Y-146484725D01*
X61955554Y-146373962D01*
X61923189Y-146239150D01*
X61826542Y-146005825D01*
X61826540Y-146005819D01*
X61694579Y-145790480D01*
X61694576Y-145790477D01*
X61530563Y-145598441D01*
X61530558Y-145598436D01*
X61376080Y-145466500D01*
X64980270Y-145466500D01*
X64999143Y-145658127D01*
X65055039Y-145842387D01*
X65145801Y-146012191D01*
X65145810Y-146012204D01*
X65266625Y-146159416D01*
X65267959Y-146161041D01*
X65267964Y-146161045D01*
X65416795Y-146283189D01*
X65416808Y-146283198D01*
X65586612Y-146373960D01*
X65586614Y-146373960D01*
X65586617Y-146373962D01*
X65714428Y-146412733D01*
X65770872Y-146429856D01*
X65770873Y-146429856D01*
X65770876Y-146429857D01*
X65962500Y-146448730D01*
X66154124Y-146429857D01*
X66338383Y-146373962D01*
X66338387Y-146373960D01*
X66508191Y-146283198D01*
X66508192Y-146283196D01*
X66508198Y-146283194D01*
X66657041Y-146161041D01*
X66779194Y-146012198D01*
X66782601Y-146005825D01*
X66869960Y-145842387D01*
X66869960Y-145842386D01*
X66869962Y-145842383D01*
X66922558Y-145669000D01*
X71984693Y-145669000D01*
X72003851Y-145826782D01*
X72060213Y-145975395D01*
X72150502Y-146106201D01*
X72150503Y-146106202D01*
X72150504Y-146106203D01*
X72150505Y-146106204D01*
X72269468Y-146211597D01*
X72269469Y-146211598D01*
X72269471Y-146211599D01*
X72410207Y-146285463D01*
X72564529Y-146323500D01*
X72564533Y-146323500D01*
X72723467Y-146323500D01*
X72723471Y-146323500D01*
X72877793Y-146285463D01*
X73018529Y-146211599D01*
X73099347Y-146140000D01*
X78820693Y-146140000D01*
X78839851Y-146297782D01*
X78862080Y-146356395D01*
X78889940Y-146429856D01*
X78896213Y-146446395D01*
X78986502Y-146577201D01*
X78986503Y-146577202D01*
X78986504Y-146577203D01*
X78986505Y-146577204D01*
X79105468Y-146682597D01*
X79105469Y-146682598D01*
X79105471Y-146682599D01*
X79246207Y-146756463D01*
X79400529Y-146794500D01*
X79400533Y-146794500D01*
X79559467Y-146794500D01*
X79559471Y-146794500D01*
X79713793Y-146756463D01*
X79854529Y-146682599D01*
X79973498Y-146577201D01*
X80063787Y-146446395D01*
X80120149Y-146297782D01*
X80139307Y-146140000D01*
X80128379Y-146050000D01*
X110465693Y-146050000D01*
X110484851Y-146207782D01*
X110541213Y-146356395D01*
X110631502Y-146487201D01*
X110631503Y-146487202D01*
X110631504Y-146487203D01*
X110631505Y-146487204D01*
X110750468Y-146592597D01*
X110750469Y-146592598D01*
X110750471Y-146592599D01*
X110891207Y-146666463D01*
X111045529Y-146704500D01*
X111045533Y-146704500D01*
X111204467Y-146704500D01*
X111204471Y-146704500D01*
X111358793Y-146666463D01*
X111499529Y-146592599D01*
X111618498Y-146487201D01*
X111708787Y-146356395D01*
X111765149Y-146207782D01*
X111784307Y-146050000D01*
X111765149Y-145892218D01*
X111708787Y-145743605D01*
X111618498Y-145612799D01*
X111618495Y-145612796D01*
X111618494Y-145612795D01*
X111499531Y-145507402D01*
X111499530Y-145507401D01*
X111358795Y-145433538D01*
X111358794Y-145433537D01*
X111358793Y-145433537D01*
X111280547Y-145414251D01*
X111204473Y-145395500D01*
X111204471Y-145395500D01*
X111045529Y-145395500D01*
X111045526Y-145395500D01*
X110931415Y-145423626D01*
X110891207Y-145433537D01*
X110891206Y-145433537D01*
X110891204Y-145433538D01*
X110750469Y-145507401D01*
X110750468Y-145507402D01*
X110631505Y-145612795D01*
X110631504Y-145612796D01*
X110541212Y-145743606D01*
X110484851Y-145892218D01*
X110465693Y-146050000D01*
X80128379Y-146050000D01*
X80120149Y-145982218D01*
X80063787Y-145833605D01*
X79973498Y-145702799D01*
X79973495Y-145702796D01*
X79973494Y-145702795D01*
X79854531Y-145597402D01*
X79854530Y-145597401D01*
X79713795Y-145523538D01*
X79713794Y-145523537D01*
X79713793Y-145523537D01*
X79635547Y-145504251D01*
X79559473Y-145485500D01*
X79559471Y-145485500D01*
X79400529Y-145485500D01*
X79400526Y-145485500D01*
X79311673Y-145507401D01*
X79246207Y-145523537D01*
X79246206Y-145523537D01*
X79246204Y-145523538D01*
X79105469Y-145597401D01*
X79105468Y-145597402D01*
X78986505Y-145702795D01*
X78986504Y-145702796D01*
X78896212Y-145833606D01*
X78857327Y-145936137D01*
X78839851Y-145982218D01*
X78820693Y-146140000D01*
X73099347Y-146140000D01*
X73137498Y-146106201D01*
X73227787Y-145975395D01*
X73284149Y-145826782D01*
X73303307Y-145669000D01*
X73284149Y-145511218D01*
X73227787Y-145362605D01*
X73137498Y-145231799D01*
X73137495Y-145231796D01*
X73137494Y-145231795D01*
X73018531Y-145126402D01*
X73018530Y-145126401D01*
X72963475Y-145097506D01*
X77267893Y-145097506D01*
X77287051Y-145255288D01*
X77343413Y-145403901D01*
X77433702Y-145534707D01*
X77433703Y-145534708D01*
X77433704Y-145534709D01*
X77433705Y-145534710D01*
X77552668Y-145640103D01*
X77552669Y-145640104D01*
X77552671Y-145640105D01*
X77693407Y-145713969D01*
X77847729Y-145752006D01*
X77847733Y-145752006D01*
X78006667Y-145752006D01*
X78006671Y-145752006D01*
X78160993Y-145713969D01*
X78301729Y-145640105D01*
X78420698Y-145534707D01*
X78510987Y-145403901D01*
X78567349Y-145255288D01*
X78586507Y-145097506D01*
X78567349Y-144939724D01*
X78510987Y-144791111D01*
X78420698Y-144660305D01*
X78420695Y-144660302D01*
X78420694Y-144660301D01*
X78301731Y-144554908D01*
X78301730Y-144554907D01*
X78254273Y-144530000D01*
X78800693Y-144530000D01*
X78819851Y-144687782D01*
X78876213Y-144836395D01*
X78966502Y-144967201D01*
X78966503Y-144967202D01*
X78966504Y-144967203D01*
X78966505Y-144967204D01*
X79085468Y-145072597D01*
X79085469Y-145072598D01*
X79085471Y-145072599D01*
X79226207Y-145146463D01*
X79380529Y-145184500D01*
X79380533Y-145184500D01*
X79539467Y-145184500D01*
X79539471Y-145184500D01*
X79693793Y-145146463D01*
X79834529Y-145072599D01*
X79953498Y-144967201D01*
X80043787Y-144836395D01*
X80100149Y-144687782D01*
X80119307Y-144530000D01*
X80100149Y-144372218D01*
X80043787Y-144223605D01*
X79953498Y-144092799D01*
X79953495Y-144092796D01*
X79953494Y-144092795D01*
X79834531Y-143987402D01*
X79834530Y-143987401D01*
X79693795Y-143913538D01*
X79693794Y-143913537D01*
X79693793Y-143913537D01*
X79615547Y-143894251D01*
X79539473Y-143875500D01*
X79539471Y-143875500D01*
X79380529Y-143875500D01*
X79380526Y-143875500D01*
X79266415Y-143903626D01*
X79226207Y-143913537D01*
X79226206Y-143913537D01*
X79226204Y-143913538D01*
X79085469Y-143987401D01*
X79085468Y-143987402D01*
X78966505Y-144092795D01*
X78966504Y-144092796D01*
X78876212Y-144223606D01*
X78828536Y-144349317D01*
X78819851Y-144372218D01*
X78800693Y-144530000D01*
X78254273Y-144530000D01*
X78160995Y-144481044D01*
X78160994Y-144481043D01*
X78160993Y-144481043D01*
X78082747Y-144461757D01*
X78006673Y-144443006D01*
X78006671Y-144443006D01*
X77847729Y-144443006D01*
X77847726Y-144443006D01*
X77733615Y-144471132D01*
X77693407Y-144481043D01*
X77693406Y-144481043D01*
X77693404Y-144481044D01*
X77552669Y-144554907D01*
X77552668Y-144554908D01*
X77433705Y-144660301D01*
X77433704Y-144660302D01*
X77343412Y-144791112D01*
X77306739Y-144887812D01*
X77287051Y-144939724D01*
X77267893Y-145097506D01*
X72963475Y-145097506D01*
X72877795Y-145052538D01*
X72877794Y-145052537D01*
X72877793Y-145052537D01*
X72799547Y-145033251D01*
X72723473Y-145014500D01*
X72723471Y-145014500D01*
X72564529Y-145014500D01*
X72564526Y-145014500D01*
X72450415Y-145042626D01*
X72410207Y-145052537D01*
X72410206Y-145052537D01*
X72410204Y-145052538D01*
X72269469Y-145126401D01*
X72269468Y-145126402D01*
X72150505Y-145231795D01*
X72150504Y-145231796D01*
X72060212Y-145362606D01*
X72020810Y-145466500D01*
X72003851Y-145511218D01*
X71984693Y-145669000D01*
X66922558Y-145669000D01*
X66925857Y-145658124D01*
X66944730Y-145466500D01*
X66925857Y-145274876D01*
X66869962Y-145090617D01*
X66869960Y-145090614D01*
X66869960Y-145090612D01*
X66779198Y-144920808D01*
X66779189Y-144920795D01*
X66657045Y-144771964D01*
X66657041Y-144771959D01*
X66554472Y-144687782D01*
X66508204Y-144649810D01*
X66508191Y-144649801D01*
X66338387Y-144559039D01*
X66154127Y-144503143D01*
X65962500Y-144484270D01*
X65770872Y-144503143D01*
X65586612Y-144559039D01*
X65416808Y-144649801D01*
X65416795Y-144649810D01*
X65267964Y-144771954D01*
X65267954Y-144771964D01*
X65145810Y-144920795D01*
X65145801Y-144920808D01*
X65055039Y-145090612D01*
X64999143Y-145274872D01*
X64980270Y-145466500D01*
X61376080Y-145466500D01*
X61338522Y-145434423D01*
X61338519Y-145434420D01*
X61123180Y-145302459D01*
X61123174Y-145302457D01*
X60889849Y-145205810D01*
X60644278Y-145146854D01*
X60644272Y-145146853D01*
X60392500Y-145127039D01*
X60140727Y-145146853D01*
X60140721Y-145146854D01*
X59895150Y-145205810D01*
X59661825Y-145302457D01*
X59661819Y-145302459D01*
X59446480Y-145434420D01*
X59446477Y-145434423D01*
X59254441Y-145598436D01*
X59254436Y-145598441D01*
X59090423Y-145790477D01*
X59090420Y-145790480D01*
X58958459Y-146005819D01*
X58958457Y-146005825D01*
X58861810Y-146239150D01*
X58802854Y-146484721D01*
X58802853Y-146484727D01*
X58783039Y-146736500D01*
X57428617Y-146736500D01*
X57630698Y-146659211D01*
X57870109Y-146524847D01*
X57870114Y-146524842D01*
X57870119Y-146524840D01*
X57968685Y-146448729D01*
X58087404Y-146357057D01*
X58277954Y-146159416D01*
X58437696Y-145936137D01*
X58563227Y-145691979D01*
X58651870Y-145432146D01*
X58701736Y-145162174D01*
X58711762Y-144887820D01*
X58685574Y-144649810D01*
X58681736Y-144614928D01*
X58646734Y-144481044D01*
X58612296Y-144349318D01*
X58504923Y-144096648D01*
X58361905Y-143862304D01*
X58186291Y-143651282D01*
X58186288Y-143651279D01*
X58186284Y-143651274D01*
X57981820Y-143468074D01*
X57752861Y-143316596D01*
X57752856Y-143316594D01*
X57504290Y-143200071D01*
X57504284Y-143200069D01*
X57504281Y-143200068D01*
X57504279Y-143200067D01*
X57425945Y-143176500D01*
X64980270Y-143176500D01*
X64999143Y-143368127D01*
X65055039Y-143552387D01*
X65145801Y-143722191D01*
X65145810Y-143722204D01*
X65229352Y-143823999D01*
X65267959Y-143871041D01*
X65267964Y-143871045D01*
X65416795Y-143993189D01*
X65416808Y-143993198D01*
X65586612Y-144083960D01*
X65586614Y-144083960D01*
X65586617Y-144083962D01*
X65714428Y-144122733D01*
X65770872Y-144139856D01*
X65770873Y-144139856D01*
X65770876Y-144139857D01*
X65962500Y-144158730D01*
X66154124Y-144139857D01*
X66338383Y-144083962D01*
X66508198Y-143993194D01*
X66657041Y-143871041D01*
X66779194Y-143722198D01*
X66788655Y-143704499D01*
X66869960Y-143552387D01*
X66869960Y-143552386D01*
X66869962Y-143552383D01*
X66925857Y-143368124D01*
X66934398Y-143281400D01*
X82119293Y-143281400D01*
X82138451Y-143439182D01*
X82194813Y-143587795D01*
X82285102Y-143718601D01*
X82285103Y-143718602D01*
X82285104Y-143718603D01*
X82285105Y-143718604D01*
X82404068Y-143823997D01*
X82404069Y-143823998D01*
X82404071Y-143823999D01*
X82544807Y-143897863D01*
X82699129Y-143935900D01*
X82699133Y-143935900D01*
X82858067Y-143935900D01*
X82858071Y-143935900D01*
X83012393Y-143897863D01*
X83153129Y-143823999D01*
X83272098Y-143718601D01*
X83362387Y-143587795D01*
X83418749Y-143439182D01*
X83437907Y-143281400D01*
X83422487Y-143154400D01*
X83998893Y-143154400D01*
X84018051Y-143312182D01*
X84074413Y-143460795D01*
X84164702Y-143591601D01*
X84164703Y-143591602D01*
X84164704Y-143591603D01*
X84164705Y-143591604D01*
X84283668Y-143696997D01*
X84283669Y-143696998D01*
X84283671Y-143696999D01*
X84424407Y-143770863D01*
X84578729Y-143808900D01*
X84578733Y-143808900D01*
X84737667Y-143808900D01*
X84737671Y-143808900D01*
X84891993Y-143770863D01*
X85032729Y-143696999D01*
X85151698Y-143591601D01*
X85241987Y-143460795D01*
X85298349Y-143312182D01*
X85317507Y-143154400D01*
X85304831Y-143050000D01*
X92590693Y-143050000D01*
X92609851Y-143207782D01*
X92666213Y-143356395D01*
X92756502Y-143487201D01*
X92756503Y-143487202D01*
X92756504Y-143487203D01*
X92756505Y-143487204D01*
X92875468Y-143592597D01*
X92875469Y-143592598D01*
X92875471Y-143592599D01*
X93016207Y-143666463D01*
X93170529Y-143704500D01*
X93170533Y-143704500D01*
X93329467Y-143704500D01*
X93329471Y-143704500D01*
X93483793Y-143666463D01*
X93624529Y-143592599D01*
X93743498Y-143487201D01*
X93833787Y-143356395D01*
X93890149Y-143207782D01*
X93909307Y-143050000D01*
X93890149Y-142892218D01*
X93833787Y-142743605D01*
X93743498Y-142612799D01*
X93743495Y-142612796D01*
X93743494Y-142612795D01*
X93624531Y-142507402D01*
X93624530Y-142507401D01*
X93483795Y-142433538D01*
X93483794Y-142433537D01*
X93483793Y-142433537D01*
X93405547Y-142414251D01*
X93329473Y-142395500D01*
X93329471Y-142395500D01*
X93170529Y-142395500D01*
X93170526Y-142395500D01*
X93056415Y-142423626D01*
X93016207Y-142433537D01*
X93016206Y-142433537D01*
X93016204Y-142433538D01*
X92875469Y-142507401D01*
X92875468Y-142507402D01*
X92756505Y-142612795D01*
X92756504Y-142612796D01*
X92666212Y-142743606D01*
X92617885Y-142871035D01*
X92609851Y-142892218D01*
X92590693Y-143050000D01*
X85304831Y-143050000D01*
X85298349Y-142996618D01*
X85241987Y-142848005D01*
X85151698Y-142717199D01*
X85151695Y-142717196D01*
X85151694Y-142717195D01*
X85032731Y-142611802D01*
X85032730Y-142611801D01*
X84891995Y-142537938D01*
X84891994Y-142537937D01*
X84891993Y-142537937D01*
X84813747Y-142518651D01*
X84737673Y-142499900D01*
X84737671Y-142499900D01*
X84578729Y-142499900D01*
X84578726Y-142499900D01*
X84464615Y-142528026D01*
X84424407Y-142537937D01*
X84424406Y-142537937D01*
X84424404Y-142537938D01*
X84283669Y-142611801D01*
X84283668Y-142611802D01*
X84164705Y-142717195D01*
X84164704Y-142717196D01*
X84074412Y-142848006D01*
X84057645Y-142892218D01*
X84018051Y-142996618D01*
X83998893Y-143154400D01*
X83422487Y-143154400D01*
X83418749Y-143123618D01*
X83362387Y-142975005D01*
X83272098Y-142844199D01*
X83272095Y-142844196D01*
X83272094Y-142844195D01*
X83153131Y-142738802D01*
X83153130Y-142738801D01*
X83012395Y-142664938D01*
X83012394Y-142664937D01*
X83012393Y-142664937D01*
X82934147Y-142645651D01*
X82858073Y-142626900D01*
X82858071Y-142626900D01*
X82699129Y-142626900D01*
X82699126Y-142626900D01*
X82592178Y-142653261D01*
X82544807Y-142664937D01*
X82544806Y-142664937D01*
X82544804Y-142664938D01*
X82404069Y-142738801D01*
X82404068Y-142738802D01*
X82285105Y-142844195D01*
X82285104Y-142844196D01*
X82194812Y-142975006D01*
X82148916Y-143096024D01*
X82138451Y-143123618D01*
X82119293Y-143281400D01*
X66934398Y-143281400D01*
X66944730Y-143176500D01*
X66925857Y-142984876D01*
X66869962Y-142800617D01*
X66869960Y-142800614D01*
X66869960Y-142800612D01*
X66779198Y-142630808D01*
X66779189Y-142630795D01*
X66657045Y-142481964D01*
X66657041Y-142481959D01*
X66647344Y-142474001D01*
X66508204Y-142359810D01*
X66508191Y-142359801D01*
X66338387Y-142269039D01*
X66154127Y-142213143D01*
X65962500Y-142194270D01*
X65770872Y-142213143D01*
X65586612Y-142269039D01*
X65416808Y-142359801D01*
X65416795Y-142359810D01*
X65267964Y-142481954D01*
X65267954Y-142481964D01*
X65145810Y-142630795D01*
X65145801Y-142630808D01*
X65055039Y-142800612D01*
X64999143Y-142984872D01*
X64980270Y-143176500D01*
X57425945Y-143176500D01*
X57356862Y-143155716D01*
X57241376Y-143120971D01*
X57021063Y-143088548D01*
X56969769Y-143081000D01*
X56763953Y-143081000D01*
X56763949Y-143081000D01*
X56678980Y-143087219D01*
X56558695Y-143096023D01*
X56558692Y-143096023D01*
X56558687Y-143096024D01*
X56290729Y-143155714D01*
X56290728Y-143155714D01*
X56034306Y-143253786D01*
X56034294Y-143253792D01*
X55794901Y-143388146D01*
X55794880Y-143388159D01*
X55577599Y-143555940D01*
X55577592Y-143555946D01*
X55387045Y-143753584D01*
X55227304Y-143976862D01*
X55101771Y-144221023D01*
X55013129Y-144480854D01*
X54963263Y-144750832D01*
X54953238Y-145025180D01*
X54953238Y-145025187D01*
X52782500Y-145025187D01*
X52782500Y-140136500D01*
X58339727Y-140136500D01*
X58359571Y-140337987D01*
X58418340Y-140531722D01*
X58418341Y-140531723D01*
X58513776Y-140710269D01*
X58513780Y-140710276D01*
X58561261Y-140768132D01*
X58978570Y-140350822D01*
X58982766Y-140361513D01*
X59066405Y-140466392D01*
X59159047Y-140529554D01*
X58740865Y-140947737D01*
X58740865Y-140947738D01*
X58798721Y-140995218D01*
X58798725Y-140995221D01*
X58977272Y-141090656D01*
X58979678Y-141091653D01*
X58980584Y-141092426D01*
X58981634Y-141092988D01*
X58981510Y-141093218D01*
X59026958Y-141132030D01*
X59041474Y-141192486D01*
X59017683Y-141249929D01*
X58988607Y-141273318D01*
X58826805Y-141359803D01*
X58826795Y-141359810D01*
X58677964Y-141481954D01*
X58677954Y-141481964D01*
X58555810Y-141630795D01*
X58555801Y-141630808D01*
X58465039Y-141800612D01*
X58409143Y-141984872D01*
X58390270Y-142176500D01*
X58409143Y-142368127D01*
X58465039Y-142552387D01*
X58555801Y-142722191D01*
X58555810Y-142722204D01*
X58677954Y-142871035D01*
X58677959Y-142871041D01*
X58677964Y-142871045D01*
X58826795Y-142993189D01*
X58826808Y-142993198D01*
X58996612Y-143083960D01*
X58996614Y-143083960D01*
X58996617Y-143083962D01*
X59118618Y-143120971D01*
X59180872Y-143139856D01*
X59180873Y-143139856D01*
X59180876Y-143139857D01*
X59372500Y-143158730D01*
X59564124Y-143139857D01*
X59748383Y-143083962D01*
X59753925Y-143081000D01*
X59918191Y-142993198D01*
X59918192Y-142993196D01*
X59918198Y-142993194D01*
X60067041Y-142871041D01*
X60189194Y-142722198D01*
X60205710Y-142691300D01*
X60279960Y-142552387D01*
X60279960Y-142552386D01*
X60279962Y-142552383D01*
X60335857Y-142368124D01*
X60354730Y-142176500D01*
X60335857Y-141984876D01*
X60335856Y-141984872D01*
X60335856Y-141984871D01*
X60335072Y-141980930D01*
X60342380Y-141919186D01*
X60384584Y-141873531D01*
X60445564Y-141861401D01*
X60497557Y-141883539D01*
X60606796Y-141973189D01*
X60606801Y-141973193D01*
X60606808Y-141973198D01*
X60776612Y-142063960D01*
X60776614Y-142063960D01*
X60776617Y-142063962D01*
X60904428Y-142102733D01*
X60960872Y-142119856D01*
X60960873Y-142119856D01*
X60960876Y-142119857D01*
X61152500Y-142138730D01*
X61344124Y-142119857D01*
X61528383Y-142063962D01*
X61616651Y-142016782D01*
X61698191Y-141973198D01*
X61698192Y-141973196D01*
X61698198Y-141973194D01*
X61847041Y-141851041D01*
X61969194Y-141702198D01*
X61980418Y-141681200D01*
X71908493Y-141681200D01*
X71927651Y-141838982D01*
X71984013Y-141987595D01*
X72074302Y-142118401D01*
X72074303Y-142118402D01*
X72074304Y-142118403D01*
X72074305Y-142118404D01*
X72193268Y-142223797D01*
X72193269Y-142223798D01*
X72193271Y-142223799D01*
X72334007Y-142297663D01*
X72488329Y-142335700D01*
X72488333Y-142335700D01*
X72647267Y-142335700D01*
X72647271Y-142335700D01*
X72801593Y-142297663D01*
X72942329Y-142223799D01*
X73061298Y-142118401D01*
X73151587Y-141987595D01*
X73200357Y-141859000D01*
X80620693Y-141859000D01*
X80639851Y-142016782D01*
X80696213Y-142165395D01*
X80786502Y-142296201D01*
X80786503Y-142296202D01*
X80786504Y-142296203D01*
X80786505Y-142296204D01*
X80905468Y-142401597D01*
X80905469Y-142401598D01*
X80905471Y-142401599D01*
X81046207Y-142475463D01*
X81200529Y-142513500D01*
X81200533Y-142513500D01*
X81359467Y-142513500D01*
X81359471Y-142513500D01*
X81513793Y-142475463D01*
X81654529Y-142401599D01*
X81773498Y-142296201D01*
X81863787Y-142165395D01*
X81912557Y-142036800D01*
X85192693Y-142036800D01*
X85211851Y-142194582D01*
X85268213Y-142343195D01*
X85358502Y-142474001D01*
X85358503Y-142474002D01*
X85358504Y-142474003D01*
X85358505Y-142474004D01*
X85477468Y-142579397D01*
X85477469Y-142579398D01*
X85477471Y-142579399D01*
X85618207Y-142653263D01*
X85772529Y-142691300D01*
X85772533Y-142691300D01*
X85931467Y-142691300D01*
X85931471Y-142691300D01*
X86085793Y-142653263D01*
X86226529Y-142579399D01*
X86345498Y-142474001D01*
X86435787Y-142343195D01*
X86492149Y-142194582D01*
X86511307Y-142036800D01*
X86492149Y-141879018D01*
X86435787Y-141730405D01*
X86345498Y-141599599D01*
X86345495Y-141599596D01*
X86345494Y-141599595D01*
X86226531Y-141494202D01*
X86226530Y-141494201D01*
X86085795Y-141420338D01*
X86085794Y-141420337D01*
X86085793Y-141420337D01*
X86007547Y-141401051D01*
X85931473Y-141382300D01*
X85931471Y-141382300D01*
X85772529Y-141382300D01*
X85772526Y-141382300D01*
X85658415Y-141410426D01*
X85618207Y-141420337D01*
X85618206Y-141420337D01*
X85618204Y-141420338D01*
X85477469Y-141494201D01*
X85477468Y-141494202D01*
X85358505Y-141599595D01*
X85358504Y-141599596D01*
X85268212Y-141730406D01*
X85241585Y-141800617D01*
X85211851Y-141879018D01*
X85192693Y-142036800D01*
X81912557Y-142036800D01*
X81920149Y-142016782D01*
X81939307Y-141859000D01*
X81920149Y-141701218D01*
X81863787Y-141552605D01*
X81773498Y-141421799D01*
X81773495Y-141421796D01*
X81773493Y-141421794D01*
X81654531Y-141316402D01*
X81654530Y-141316401D01*
X81513795Y-141242538D01*
X81513794Y-141242537D01*
X81513793Y-141242537D01*
X81435547Y-141223251D01*
X81359473Y-141204500D01*
X81359471Y-141204500D01*
X81200529Y-141204500D01*
X81200526Y-141204500D01*
X81103157Y-141228500D01*
X81046207Y-141242537D01*
X81046206Y-141242537D01*
X81046204Y-141242538D01*
X80905469Y-141316401D01*
X80905468Y-141316402D01*
X80786507Y-141421794D01*
X80786504Y-141421796D01*
X80696212Y-141552606D01*
X80666554Y-141630808D01*
X80639851Y-141701218D01*
X80620693Y-141859000D01*
X73200357Y-141859000D01*
X73207949Y-141838982D01*
X73227107Y-141681200D01*
X73207949Y-141523418D01*
X73151587Y-141374805D01*
X73061298Y-141243999D01*
X73061295Y-141243996D01*
X73061293Y-141243994D01*
X72942331Y-141138602D01*
X72942330Y-141138601D01*
X72801595Y-141064738D01*
X72801594Y-141064737D01*
X72801593Y-141064737D01*
X72723347Y-141045451D01*
X72647273Y-141026700D01*
X72647271Y-141026700D01*
X72488329Y-141026700D01*
X72488326Y-141026700D01*
X72374215Y-141054826D01*
X72334007Y-141064737D01*
X72334006Y-141064737D01*
X72334004Y-141064738D01*
X72193269Y-141138601D01*
X72193268Y-141138602D01*
X72074307Y-141243994D01*
X72074304Y-141243996D01*
X71984012Y-141374806D01*
X71938732Y-141494201D01*
X71927651Y-141523418D01*
X71908493Y-141681200D01*
X61980418Y-141681200D01*
X62024037Y-141599595D01*
X62059960Y-141532387D01*
X62059960Y-141532386D01*
X62059962Y-141532383D01*
X62115857Y-141348124D01*
X62134730Y-141156500D01*
X62115857Y-140964876D01*
X62059962Y-140780617D01*
X62059960Y-140780614D01*
X62059960Y-140780612D01*
X61969198Y-140610808D01*
X61969189Y-140610795D01*
X61909611Y-140538200D01*
X70079693Y-140538200D01*
X70098851Y-140695982D01*
X70155213Y-140844595D01*
X70245502Y-140975401D01*
X70245503Y-140975402D01*
X70245504Y-140975403D01*
X70245505Y-140975404D01*
X70364468Y-141080797D01*
X70364469Y-141080798D01*
X70364471Y-141080799D01*
X70505207Y-141154663D01*
X70659529Y-141192700D01*
X70659533Y-141192700D01*
X70818467Y-141192700D01*
X70818471Y-141192700D01*
X70972793Y-141154663D01*
X71113529Y-141080799D01*
X71232498Y-140975401D01*
X71322787Y-140844595D01*
X71379149Y-140695982D01*
X71398307Y-140538200D01*
X71379149Y-140380418D01*
X71322787Y-140231805D01*
X71232498Y-140100999D01*
X71232495Y-140100996D01*
X71232494Y-140100995D01*
X71113531Y-139995602D01*
X71113530Y-139995601D01*
X70972795Y-139921738D01*
X70972794Y-139921737D01*
X70972793Y-139921737D01*
X70894547Y-139902451D01*
X70818473Y-139883700D01*
X70818471Y-139883700D01*
X70659529Y-139883700D01*
X70659526Y-139883700D01*
X70546793Y-139911487D01*
X70505207Y-139921737D01*
X70505206Y-139921737D01*
X70505204Y-139921738D01*
X70364469Y-139995601D01*
X70364468Y-139995602D01*
X70245505Y-140100995D01*
X70245504Y-140100996D01*
X70155212Y-140231806D01*
X70123107Y-140316461D01*
X70098851Y-140380418D01*
X70079693Y-140538200D01*
X61909611Y-140538200D01*
X61847045Y-140461964D01*
X61847041Y-140461959D01*
X61792365Y-140417087D01*
X61698204Y-140339810D01*
X61698194Y-140339803D01*
X61536392Y-140253318D01*
X61493300Y-140208500D01*
X61484782Y-140146912D01*
X61514091Y-140092079D01*
X61545325Y-140071651D01*
X61547732Y-140070654D01*
X61726283Y-139975215D01*
X61784132Y-139927739D01*
X61784133Y-139927738D01*
X61364644Y-139508249D01*
X61406009Y-139488329D01*
X61504344Y-139397087D01*
X61544002Y-139328397D01*
X61963738Y-139748133D01*
X61963739Y-139748132D01*
X62003240Y-139700000D01*
X90540693Y-139700000D01*
X90559851Y-139857782D01*
X90589141Y-139935012D01*
X90608911Y-139987143D01*
X90616213Y-140006395D01*
X90706502Y-140137201D01*
X90706503Y-140137202D01*
X90706504Y-140137203D01*
X90706505Y-140137204D01*
X90825468Y-140242597D01*
X90825469Y-140242598D01*
X90825471Y-140242599D01*
X90966207Y-140316463D01*
X91120529Y-140354500D01*
X91120533Y-140354500D01*
X91279467Y-140354500D01*
X91279471Y-140354500D01*
X91433793Y-140316463D01*
X91574529Y-140242599D01*
X91693498Y-140137201D01*
X91783787Y-140006395D01*
X91840149Y-139857782D01*
X91859307Y-139700000D01*
X91840149Y-139542218D01*
X91783787Y-139393605D01*
X91693498Y-139262799D01*
X91693495Y-139262796D01*
X91693494Y-139262795D01*
X91574531Y-139157402D01*
X91574530Y-139157401D01*
X91433795Y-139083538D01*
X91433794Y-139083537D01*
X91433793Y-139083537D01*
X91337720Y-139059857D01*
X91279473Y-139045500D01*
X91279471Y-139045500D01*
X91120529Y-139045500D01*
X91120526Y-139045500D01*
X91017765Y-139070829D01*
X90966207Y-139083537D01*
X90966206Y-139083537D01*
X90966204Y-139083538D01*
X90825469Y-139157401D01*
X90825468Y-139157402D01*
X90706505Y-139262795D01*
X90706504Y-139262796D01*
X90616212Y-139393606D01*
X90574017Y-139504866D01*
X90559851Y-139542218D01*
X90540693Y-139700000D01*
X62003240Y-139700000D01*
X62011215Y-139690283D01*
X62106659Y-139511723D01*
X62106659Y-139511722D01*
X62165428Y-139317987D01*
X62185272Y-139116500D01*
X62165428Y-138915012D01*
X62106659Y-138721277D01*
X62106658Y-138721276D01*
X62011221Y-138542725D01*
X62011218Y-138542721D01*
X61963738Y-138484865D01*
X61546428Y-138902174D01*
X61542234Y-138891487D01*
X61458595Y-138786608D01*
X61365950Y-138723443D01*
X61784133Y-138305261D01*
X61726276Y-138257780D01*
X61726269Y-138257776D01*
X61547723Y-138162341D01*
X61545314Y-138161343D01*
X61544407Y-138160568D01*
X61543366Y-138160012D01*
X61543488Y-138159783D01*
X61498038Y-138120962D01*
X61483525Y-138060506D01*
X61507320Y-138003065D01*
X61536393Y-137979681D01*
X61698191Y-137893198D01*
X61698192Y-137893196D01*
X61698198Y-137893194D01*
X61847041Y-137771041D01*
X61969194Y-137622198D01*
X62052473Y-137466395D01*
X62059960Y-137452387D01*
X62059960Y-137452386D01*
X62059962Y-137452383D01*
X62115857Y-137268124D01*
X62134730Y-137076500D01*
X62115857Y-136884876D01*
X62115853Y-136884864D01*
X62097583Y-136824637D01*
X62059962Y-136700617D01*
X62059960Y-136700614D01*
X62059960Y-136700612D01*
X62020400Y-136626600D01*
X65355293Y-136626600D01*
X65374451Y-136784382D01*
X65430813Y-136932995D01*
X65521102Y-137063801D01*
X65521103Y-137063802D01*
X65521104Y-137063803D01*
X65521105Y-137063804D01*
X65640068Y-137169197D01*
X65640069Y-137169198D01*
X65640071Y-137169199D01*
X65780807Y-137243063D01*
X65935129Y-137281100D01*
X65935133Y-137281100D01*
X66094067Y-137281100D01*
X66094071Y-137281100D01*
X66248393Y-137243063D01*
X66389129Y-137169199D01*
X66508098Y-137063801D01*
X66598387Y-136932995D01*
X66654749Y-136784382D01*
X66672948Y-136634500D01*
X68284193Y-136634500D01*
X68303351Y-136792282D01*
X68359713Y-136940895D01*
X68450002Y-137071701D01*
X68450003Y-137071702D01*
X68450004Y-137071703D01*
X68450005Y-137071704D01*
X68568968Y-137177097D01*
X68568969Y-137177098D01*
X68568971Y-137177099D01*
X68709707Y-137250963D01*
X68864029Y-137289000D01*
X68864033Y-137289000D01*
X69022967Y-137289000D01*
X69022971Y-137289000D01*
X69177293Y-137250963D01*
X69318029Y-137177099D01*
X69337330Y-137160000D01*
X104369693Y-137160000D01*
X104388851Y-137317782D01*
X104445213Y-137466395D01*
X104535502Y-137597201D01*
X104535503Y-137597202D01*
X104535504Y-137597203D01*
X104535505Y-137597204D01*
X104654468Y-137702597D01*
X104654469Y-137702598D01*
X104654471Y-137702599D01*
X104795207Y-137776463D01*
X104949529Y-137814500D01*
X104949533Y-137814500D01*
X105108467Y-137814500D01*
X105108471Y-137814500D01*
X105262793Y-137776463D01*
X105403529Y-137702599D01*
X105522498Y-137597201D01*
X105612787Y-137466395D01*
X105669149Y-137317782D01*
X105688307Y-137160000D01*
X105669149Y-137002218D01*
X105612787Y-136853605D01*
X105522498Y-136722799D01*
X105522495Y-136722796D01*
X105522494Y-136722795D01*
X105403531Y-136617402D01*
X105403530Y-136617401D01*
X105262795Y-136543538D01*
X105262794Y-136543537D01*
X105262793Y-136543537D01*
X105184547Y-136524251D01*
X105108473Y-136505500D01*
X105108471Y-136505500D01*
X104949529Y-136505500D01*
X104949526Y-136505500D01*
X104835415Y-136533626D01*
X104795207Y-136543537D01*
X104795206Y-136543537D01*
X104795204Y-136543538D01*
X104654469Y-136617401D01*
X104654468Y-136617402D01*
X104535505Y-136722795D01*
X104535504Y-136722796D01*
X104445212Y-136853606D01*
X104388851Y-137002218D01*
X104369693Y-137160000D01*
X69337330Y-137160000D01*
X69436998Y-137071701D01*
X69527287Y-136940895D01*
X69583649Y-136792282D01*
X69602807Y-136634500D01*
X69583649Y-136476718D01*
X69527287Y-136328105D01*
X69436998Y-136197299D01*
X69436995Y-136197296D01*
X69436994Y-136197295D01*
X69318031Y-136091902D01*
X69318030Y-136091901D01*
X69177295Y-136018038D01*
X69177294Y-136018037D01*
X69177293Y-136018037D01*
X69087005Y-135995783D01*
X69022973Y-135980000D01*
X69022971Y-135980000D01*
X68864029Y-135980000D01*
X68864026Y-135980000D01*
X68749915Y-136008126D01*
X68709707Y-136018037D01*
X68709706Y-136018037D01*
X68709704Y-136018038D01*
X68568969Y-136091901D01*
X68568968Y-136091902D01*
X68450005Y-136197295D01*
X68450004Y-136197296D01*
X68359712Y-136328106D01*
X68320165Y-136432383D01*
X68303351Y-136476718D01*
X68284193Y-136634500D01*
X66672948Y-136634500D01*
X66673907Y-136626600D01*
X66654749Y-136468818D01*
X66598387Y-136320205D01*
X66508098Y-136189399D01*
X66508095Y-136189396D01*
X66508094Y-136189395D01*
X66389131Y-136084002D01*
X66389130Y-136084001D01*
X66248395Y-136010138D01*
X66248394Y-136010137D01*
X66248393Y-136010137D01*
X66170147Y-135990851D01*
X66094073Y-135972100D01*
X66094071Y-135972100D01*
X65935129Y-135972100D01*
X65935126Y-135972100D01*
X65839043Y-135995783D01*
X65780807Y-136010137D01*
X65780806Y-136010137D01*
X65780804Y-136010138D01*
X65640069Y-136084001D01*
X65640068Y-136084002D01*
X65521105Y-136189395D01*
X65521104Y-136189396D01*
X65430812Y-136320206D01*
X65374451Y-136468818D01*
X65355293Y-136626600D01*
X62020400Y-136626600D01*
X61969198Y-136530808D01*
X61969189Y-136530795D01*
X61847045Y-136381964D01*
X61847041Y-136381959D01*
X61847035Y-136381954D01*
X61698204Y-136259810D01*
X61698191Y-136259801D01*
X61528387Y-136169039D01*
X61512113Y-136164102D01*
X61474745Y-136152767D01*
X61423739Y-136117218D01*
X61403369Y-136058475D01*
X61421418Y-135998978D01*
X61470991Y-135961452D01*
X61474724Y-135960239D01*
X61528383Y-135943962D01*
X61698198Y-135853194D01*
X61847041Y-135731041D01*
X61969194Y-135582198D01*
X62059962Y-135412383D01*
X62115857Y-135228124D01*
X62134730Y-135036500D01*
X62115857Y-134844876D01*
X62059962Y-134660617D01*
X62059960Y-134660614D01*
X62059960Y-134660612D01*
X61969198Y-134490808D01*
X61969189Y-134490795D01*
X61847045Y-134341964D01*
X61847041Y-134341959D01*
X61847035Y-134341954D01*
X61698204Y-134219810D01*
X61698191Y-134219801D01*
X61528387Y-134129039D01*
X61344127Y-134073143D01*
X61152500Y-134054270D01*
X60960872Y-134073143D01*
X60776612Y-134129039D01*
X60606808Y-134219801D01*
X60606795Y-134219810D01*
X60457964Y-134341954D01*
X60457954Y-134341964D01*
X60335810Y-134490795D01*
X60335801Y-134490808D01*
X60245039Y-134660612D01*
X60189143Y-134844872D01*
X60170270Y-135036500D01*
X60189144Y-135228130D01*
X60189929Y-135232078D01*
X60182615Y-135293821D01*
X60140407Y-135339473D01*
X60079427Y-135351597D01*
X60027440Y-135329459D01*
X59918198Y-135239806D01*
X59918191Y-135239801D01*
X59748387Y-135149039D01*
X59564127Y-135093143D01*
X59372500Y-135074270D01*
X59180872Y-135093143D01*
X58996612Y-135149039D01*
X58826808Y-135239801D01*
X58826795Y-135239810D01*
X58677964Y-135361954D01*
X58677954Y-135361964D01*
X58555810Y-135510795D01*
X58555801Y-135510808D01*
X58465039Y-135680612D01*
X58409143Y-135864872D01*
X58390270Y-136056500D01*
X58409143Y-136248127D01*
X58465039Y-136432387D01*
X58555801Y-136602191D01*
X58555810Y-136602204D01*
X58654778Y-136722795D01*
X58677959Y-136751041D01*
X58677964Y-136751045D01*
X58826795Y-136873189D01*
X58826808Y-136873198D01*
X58996612Y-136963960D01*
X58996614Y-136963960D01*
X58996617Y-136963962D01*
X59050252Y-136980232D01*
X59101260Y-137015783D01*
X59121630Y-137074526D01*
X59103581Y-137134022D01*
X59054008Y-137171548D01*
X59050260Y-137172765D01*
X59036017Y-137177085D01*
X58996612Y-137189039D01*
X58826808Y-137279801D01*
X58826795Y-137279810D01*
X58677964Y-137401954D01*
X58677954Y-137401964D01*
X58555810Y-137550795D01*
X58555801Y-137550808D01*
X58465039Y-137720612D01*
X58409143Y-137904872D01*
X58390270Y-138096500D01*
X58409143Y-138288127D01*
X58465039Y-138472387D01*
X58555801Y-138642191D01*
X58555810Y-138642204D01*
X58639904Y-138744671D01*
X58677959Y-138791041D01*
X58677964Y-138791045D01*
X58826795Y-138913189D01*
X58826805Y-138913196D01*
X58988607Y-138999681D01*
X59031699Y-139044499D01*
X59040217Y-139106087D01*
X59010909Y-139160920D01*
X58979690Y-139181341D01*
X58977278Y-139182340D01*
X58798722Y-139277780D01*
X58740866Y-139325261D01*
X59160355Y-139744750D01*
X59118991Y-139764671D01*
X59020656Y-139855913D01*
X58980997Y-139924602D01*
X58561261Y-139504866D01*
X58513780Y-139562722D01*
X58418341Y-139741276D01*
X58418340Y-139741277D01*
X58359571Y-139935012D01*
X58339727Y-140136500D01*
X52782500Y-140136500D01*
X52782500Y-132325187D01*
X54953238Y-132325187D01*
X54983263Y-132598071D01*
X55052704Y-132863682D01*
X55160077Y-133116353D01*
X55255193Y-133272206D01*
X55303095Y-133350696D01*
X55475433Y-133557782D01*
X55478711Y-133561720D01*
X55478715Y-133561725D01*
X55683179Y-133744925D01*
X55912138Y-133896403D01*
X55912143Y-133896405D01*
X56160709Y-134012928D01*
X56160713Y-134012929D01*
X56160721Y-134012933D01*
X56423619Y-134092027D01*
X56423620Y-134092027D01*
X56423623Y-134092028D01*
X56581941Y-134115327D01*
X56695231Y-134132000D01*
X56695233Y-134132000D01*
X56901051Y-134132000D01*
X56934802Y-134129529D01*
X57106305Y-134116977D01*
X57374275Y-134057284D01*
X57428617Y-134036500D01*
X64980270Y-134036500D01*
X64999143Y-134228127D01*
X65055039Y-134412387D01*
X65145801Y-134582191D01*
X65145810Y-134582204D01*
X65210159Y-134660612D01*
X65267959Y-134731041D01*
X65267964Y-134731045D01*
X65416795Y-134853189D01*
X65416808Y-134853198D01*
X65586612Y-134943960D01*
X65586614Y-134943960D01*
X65586617Y-134943962D01*
X65714428Y-134982733D01*
X65770872Y-134999856D01*
X65770873Y-134999856D01*
X65770876Y-134999857D01*
X65962500Y-135018730D01*
X66154124Y-134999857D01*
X66338383Y-134943962D01*
X66508198Y-134853194D01*
X66657041Y-134731041D01*
X66723550Y-134650000D01*
X95990693Y-134650000D01*
X96009851Y-134807782D01*
X96066213Y-134956395D01*
X96156502Y-135087201D01*
X96156503Y-135087202D01*
X96156504Y-135087203D01*
X96156505Y-135087204D01*
X96275468Y-135192597D01*
X96275469Y-135192598D01*
X96275471Y-135192599D01*
X96416207Y-135266463D01*
X96570529Y-135304500D01*
X96570533Y-135304500D01*
X96729467Y-135304500D01*
X96729471Y-135304500D01*
X96883793Y-135266463D01*
X97024529Y-135192599D01*
X97143498Y-135087201D01*
X97233787Y-134956395D01*
X97290149Y-134807782D01*
X97309307Y-134650000D01*
X97290149Y-134492218D01*
X97233787Y-134343605D01*
X97143498Y-134212799D01*
X97143495Y-134212796D01*
X97143494Y-134212795D01*
X97024531Y-134107402D01*
X97024530Y-134107401D01*
X96883795Y-134033538D01*
X96883794Y-134033537D01*
X96883793Y-134033537D01*
X96805547Y-134014251D01*
X96729473Y-133995500D01*
X96729471Y-133995500D01*
X96570529Y-133995500D01*
X96570526Y-133995500D01*
X96456415Y-134023626D01*
X96416207Y-134033537D01*
X96416206Y-134033537D01*
X96416204Y-134033538D01*
X96275469Y-134107401D01*
X96275468Y-134107402D01*
X96156505Y-134212795D01*
X96156504Y-134212796D01*
X96066212Y-134343606D01*
X96040127Y-134412387D01*
X96009851Y-134492218D01*
X95990693Y-134650000D01*
X66723550Y-134650000D01*
X66779194Y-134582198D01*
X66827290Y-134492218D01*
X66869960Y-134412387D01*
X66869960Y-134412386D01*
X66869962Y-134412383D01*
X66925857Y-134228124D01*
X66944730Y-134036500D01*
X66925857Y-133844876D01*
X66923529Y-133837203D01*
X66892945Y-133736381D01*
X66869962Y-133660617D01*
X66869960Y-133660614D01*
X66869960Y-133660612D01*
X66779198Y-133490808D01*
X66779189Y-133490795D01*
X66704675Y-133400000D01*
X87240693Y-133400000D01*
X87259851Y-133557782D01*
X87294285Y-133648577D01*
X87306882Y-133681793D01*
X87316213Y-133706395D01*
X87406502Y-133837201D01*
X87406503Y-133837202D01*
X87406504Y-133837203D01*
X87406505Y-133837204D01*
X87525468Y-133942597D01*
X87525469Y-133942598D01*
X87525471Y-133942599D01*
X87666207Y-134016463D01*
X87820529Y-134054500D01*
X87820533Y-134054500D01*
X87979467Y-134054500D01*
X87979471Y-134054500D01*
X88133793Y-134016463D01*
X88274529Y-133942599D01*
X88393498Y-133837201D01*
X88483787Y-133706395D01*
X88540149Y-133557782D01*
X88559307Y-133400000D01*
X88553236Y-133350000D01*
X94690693Y-133350000D01*
X94709851Y-133507782D01*
X94766213Y-133656395D01*
X94856502Y-133787201D01*
X94856503Y-133787202D01*
X94856504Y-133787203D01*
X94856505Y-133787204D01*
X94975468Y-133892597D01*
X94975469Y-133892598D01*
X94975471Y-133892599D01*
X95116207Y-133966463D01*
X95270529Y-134004500D01*
X95270533Y-134004500D01*
X95429467Y-134004500D01*
X95429471Y-134004500D01*
X95583793Y-133966463D01*
X95724529Y-133892599D01*
X95843498Y-133787201D01*
X95933787Y-133656395D01*
X95990149Y-133507782D01*
X96006223Y-133375400D01*
X103074293Y-133375400D01*
X103093451Y-133533182D01*
X103104274Y-133561720D01*
X103140429Y-133657053D01*
X103149813Y-133681795D01*
X103240102Y-133812601D01*
X103240103Y-133812602D01*
X103240104Y-133812603D01*
X103240105Y-133812604D01*
X103359068Y-133917997D01*
X103359069Y-133917998D01*
X103359071Y-133917999D01*
X103499807Y-133991863D01*
X103654129Y-134029900D01*
X103654133Y-134029900D01*
X103813067Y-134029900D01*
X103813071Y-134029900D01*
X103967393Y-133991863D01*
X104108129Y-133917999D01*
X104227098Y-133812601D01*
X104317387Y-133681795D01*
X104356524Y-133578600D01*
X112370693Y-133578600D01*
X112389851Y-133736382D01*
X112446213Y-133884995D01*
X112536502Y-134015801D01*
X112536503Y-134015802D01*
X112536504Y-134015803D01*
X112536505Y-134015804D01*
X112655468Y-134121197D01*
X112655469Y-134121198D01*
X112655471Y-134121199D01*
X112796207Y-134195063D01*
X112950529Y-134233100D01*
X112950533Y-134233100D01*
X113109467Y-134233100D01*
X113109471Y-134233100D01*
X113263793Y-134195063D01*
X113404529Y-134121199D01*
X113523498Y-134015801D01*
X113613787Y-133884995D01*
X113670149Y-133736382D01*
X113689307Y-133578600D01*
X113670149Y-133420818D01*
X113613787Y-133272205D01*
X113523498Y-133141399D01*
X113523495Y-133141396D01*
X113523494Y-133141395D01*
X113404531Y-133036002D01*
X113404530Y-133036001D01*
X113263795Y-132962138D01*
X113263794Y-132962137D01*
X113263793Y-132962137D01*
X113166657Y-132938195D01*
X113109473Y-132924100D01*
X113109471Y-132924100D01*
X112950529Y-132924100D01*
X112950526Y-132924100D01*
X112836415Y-132952226D01*
X112796207Y-132962137D01*
X112796206Y-132962137D01*
X112796204Y-132962138D01*
X112655469Y-133036001D01*
X112655468Y-133036002D01*
X112536505Y-133141395D01*
X112536504Y-133141396D01*
X112446212Y-133272206D01*
X112416709Y-133350000D01*
X112389851Y-133420818D01*
X112370693Y-133578600D01*
X104356524Y-133578600D01*
X104373749Y-133533182D01*
X104392907Y-133375400D01*
X104373749Y-133217618D01*
X104317387Y-133069005D01*
X104227098Y-132938199D01*
X104227095Y-132938196D01*
X104227094Y-132938195D01*
X104108131Y-132832802D01*
X104108130Y-132832801D01*
X103967395Y-132758938D01*
X103967394Y-132758937D01*
X103967393Y-132758937D01*
X103889147Y-132739651D01*
X103813073Y-132720900D01*
X103813071Y-132720900D01*
X103654129Y-132720900D01*
X103654126Y-132720900D01*
X103554323Y-132745500D01*
X103499807Y-132758937D01*
X103499806Y-132758937D01*
X103499804Y-132758938D01*
X103359069Y-132832801D01*
X103359068Y-132832802D01*
X103240105Y-132938195D01*
X103240104Y-132938196D01*
X103149812Y-133069006D01*
X103131856Y-133116352D01*
X103093451Y-133217618D01*
X103074293Y-133375400D01*
X96006223Y-133375400D01*
X96009307Y-133350000D01*
X95990149Y-133192218D01*
X95933787Y-133043605D01*
X95843498Y-132912799D01*
X95843495Y-132912796D01*
X95843494Y-132912795D01*
X95724531Y-132807402D01*
X95724530Y-132807401D01*
X95583795Y-132733538D01*
X95583794Y-132733537D01*
X95583793Y-132733537D01*
X95487716Y-132709856D01*
X95429473Y-132695500D01*
X95429471Y-132695500D01*
X95270529Y-132695500D01*
X95270526Y-132695500D01*
X95167477Y-132720900D01*
X95116207Y-132733537D01*
X95116206Y-132733537D01*
X95116204Y-132733538D01*
X94975469Y-132807401D01*
X94975468Y-132807402D01*
X94856505Y-132912795D01*
X94856504Y-132912796D01*
X94766212Y-133043606D01*
X94747250Y-133093605D01*
X94709851Y-133192218D01*
X94690693Y-133350000D01*
X88553236Y-133350000D01*
X88540149Y-133242218D01*
X88483787Y-133093605D01*
X88393498Y-132962799D01*
X88393495Y-132962796D01*
X88393494Y-132962795D01*
X88274531Y-132857402D01*
X88274530Y-132857401D01*
X88133795Y-132783538D01*
X88133794Y-132783537D01*
X88133793Y-132783537D01*
X88055547Y-132764251D01*
X87979473Y-132745500D01*
X87979471Y-132745500D01*
X87820529Y-132745500D01*
X87820526Y-132745500D01*
X87706415Y-132773626D01*
X87666207Y-132783537D01*
X87666206Y-132783537D01*
X87666204Y-132783538D01*
X87525469Y-132857401D01*
X87525468Y-132857402D01*
X87406505Y-132962795D01*
X87406504Y-132962796D01*
X87316212Y-133093606D01*
X87269181Y-133217618D01*
X87259851Y-133242218D01*
X87240693Y-133400000D01*
X66704675Y-133400000D01*
X66657045Y-133341964D01*
X66657041Y-133341959D01*
X66657035Y-133341954D01*
X66508204Y-133219810D01*
X66508191Y-133219801D01*
X66338387Y-133129039D01*
X66154127Y-133073143D01*
X65962500Y-133054270D01*
X65770872Y-133073143D01*
X65586612Y-133129039D01*
X65416808Y-133219801D01*
X65416795Y-133219810D01*
X65267964Y-133341954D01*
X65267954Y-133341964D01*
X65145810Y-133490795D01*
X65145801Y-133490808D01*
X65055039Y-133660612D01*
X64999143Y-133844872D01*
X64980270Y-134036500D01*
X57428617Y-134036500D01*
X57630698Y-133959211D01*
X57870109Y-133824847D01*
X57870114Y-133824842D01*
X57870119Y-133824840D01*
X58023509Y-133706395D01*
X58087404Y-133657057D01*
X58277954Y-133459416D01*
X58437696Y-133236137D01*
X58563227Y-132991979D01*
X58651870Y-132732146D01*
X58701736Y-132462174D01*
X58711762Y-132187820D01*
X58691887Y-132007188D01*
X58681736Y-131914928D01*
X58646089Y-131778579D01*
X58612296Y-131649318D01*
X58504923Y-131396648D01*
X58489033Y-131370612D01*
X58389292Y-131207180D01*
X58361905Y-131162304D01*
X58186291Y-130951282D01*
X58186288Y-130951279D01*
X58186284Y-130951274D01*
X57981820Y-130768074D01*
X57752861Y-130616596D01*
X57752856Y-130616594D01*
X57504290Y-130500071D01*
X57504284Y-130500069D01*
X57504281Y-130500068D01*
X57504279Y-130500067D01*
X57425945Y-130476500D01*
X58783039Y-130476500D01*
X58802853Y-130728272D01*
X58802854Y-130728278D01*
X58861810Y-130973849D01*
X58958457Y-131207174D01*
X58958459Y-131207180D01*
X59090420Y-131422519D01*
X59090423Y-131422522D01*
X59254436Y-131614558D01*
X59254441Y-131614563D01*
X59446477Y-131778576D01*
X59446480Y-131778579D01*
X59661819Y-131910540D01*
X59661825Y-131910542D01*
X59895150Y-132007189D01*
X60128535Y-132063219D01*
X60140725Y-132066146D01*
X60392500Y-132085961D01*
X60644275Y-132066146D01*
X60730196Y-132045517D01*
X60889849Y-132007189D01*
X60950794Y-131981944D01*
X61123180Y-131910540D01*
X61338517Y-131778581D01*
X61376079Y-131746500D01*
X64980270Y-131746500D01*
X64999143Y-131938127D01*
X65055039Y-132122387D01*
X65145801Y-132292191D01*
X65145810Y-132292204D01*
X65267954Y-132441035D01*
X65267959Y-132441041D01*
X65267964Y-132441045D01*
X65416795Y-132563189D01*
X65416808Y-132563198D01*
X65586612Y-132653960D01*
X65586614Y-132653960D01*
X65586617Y-132653962D01*
X65714428Y-132692733D01*
X65770872Y-132709856D01*
X65770873Y-132709856D01*
X65770876Y-132709857D01*
X65962500Y-132728730D01*
X66154124Y-132709857D01*
X66338383Y-132653962D01*
X66508198Y-132563194D01*
X66657041Y-132441041D01*
X66779194Y-132292198D01*
X66814311Y-132226500D01*
X66869960Y-132122387D01*
X66869960Y-132122386D01*
X66869962Y-132122383D01*
X66925857Y-131938124D01*
X66944730Y-131746500D01*
X66927544Y-131572000D01*
X78461693Y-131572000D01*
X78480851Y-131729782D01*
X78537213Y-131878395D01*
X78627502Y-132009201D01*
X78627503Y-132009202D01*
X78627504Y-132009203D01*
X78627505Y-132009204D01*
X78746468Y-132114597D01*
X78746469Y-132114598D01*
X78746471Y-132114599D01*
X78887207Y-132188463D01*
X79041529Y-132226500D01*
X79041533Y-132226500D01*
X79200467Y-132226500D01*
X79200471Y-132226500D01*
X79354793Y-132188463D01*
X79495529Y-132114599D01*
X79614498Y-132009201D01*
X79704787Y-131878395D01*
X79761149Y-131729782D01*
X79780307Y-131572000D01*
X79761149Y-131414218D01*
X79704787Y-131265605D01*
X79614498Y-131134799D01*
X79614495Y-131134796D01*
X79614494Y-131134795D01*
X79495531Y-131029402D01*
X79495530Y-131029401D01*
X79354795Y-130955538D01*
X79354794Y-130955537D01*
X79354793Y-130955537D01*
X79250415Y-130929810D01*
X79200473Y-130917500D01*
X79200471Y-130917500D01*
X79041529Y-130917500D01*
X79041526Y-130917500D01*
X78927415Y-130945626D01*
X78887207Y-130955537D01*
X78887206Y-130955537D01*
X78887204Y-130955538D01*
X78746469Y-131029401D01*
X78746468Y-131029402D01*
X78627505Y-131134795D01*
X78627504Y-131134796D01*
X78537212Y-131265606D01*
X78532943Y-131276863D01*
X78480851Y-131414218D01*
X78461693Y-131572000D01*
X66927544Y-131572000D01*
X66925857Y-131554876D01*
X66869962Y-131370617D01*
X66869960Y-131370614D01*
X66869960Y-131370612D01*
X66779198Y-131200808D01*
X66779189Y-131200795D01*
X66657045Y-131051964D01*
X66657041Y-131051959D01*
X66657035Y-131051954D01*
X66508204Y-130929810D01*
X66508191Y-130929801D01*
X66338387Y-130839039D01*
X66154127Y-130783143D01*
X65962500Y-130764270D01*
X65770872Y-130783143D01*
X65586612Y-130839039D01*
X65416808Y-130929801D01*
X65416795Y-130929810D01*
X65267964Y-131051954D01*
X65267954Y-131051964D01*
X65145810Y-131200795D01*
X65145801Y-131200808D01*
X65055039Y-131370612D01*
X64999143Y-131554872D01*
X64980270Y-131746500D01*
X61376079Y-131746500D01*
X61530561Y-131614561D01*
X61694581Y-131422517D01*
X61826540Y-131207180D01*
X61923188Y-130973851D01*
X61923187Y-130973851D01*
X61923189Y-130973849D01*
X61982145Y-130728278D01*
X61982146Y-130728275D01*
X62001961Y-130476500D01*
X61982146Y-130224725D01*
X61977745Y-130206393D01*
X61923189Y-129979150D01*
X61890404Y-129900000D01*
X84840693Y-129900000D01*
X84859851Y-130057782D01*
X84916213Y-130206395D01*
X85006502Y-130337201D01*
X85006503Y-130337202D01*
X85006504Y-130337203D01*
X85006505Y-130337204D01*
X85125468Y-130442597D01*
X85125469Y-130442598D01*
X85125471Y-130442599D01*
X85266207Y-130516463D01*
X85420529Y-130554500D01*
X85420533Y-130554500D01*
X85579467Y-130554500D01*
X85579471Y-130554500D01*
X85733793Y-130516463D01*
X85874529Y-130442599D01*
X85993498Y-130337201D01*
X86083787Y-130206395D01*
X86140149Y-130057782D01*
X86159307Y-129900000D01*
X86140149Y-129742218D01*
X86083787Y-129593605D01*
X85993498Y-129462799D01*
X85993495Y-129462796D01*
X85993494Y-129462795D01*
X85874531Y-129357402D01*
X85874530Y-129357401D01*
X85733795Y-129283538D01*
X85733794Y-129283537D01*
X85733793Y-129283537D01*
X85655547Y-129264251D01*
X85579473Y-129245500D01*
X85579471Y-129245500D01*
X85420529Y-129245500D01*
X85420526Y-129245500D01*
X85306415Y-129273626D01*
X85266207Y-129283537D01*
X85266206Y-129283537D01*
X85266204Y-129283538D01*
X85125469Y-129357401D01*
X85125468Y-129357402D01*
X85006505Y-129462795D01*
X85006504Y-129462796D01*
X84916212Y-129593606D01*
X84859851Y-129742218D01*
X84840693Y-129900000D01*
X61890404Y-129900000D01*
X61826542Y-129745825D01*
X61826540Y-129745819D01*
X61694579Y-129530480D01*
X61694576Y-129530477D01*
X61530563Y-129338441D01*
X61530558Y-129338436D01*
X61338522Y-129174423D01*
X61338519Y-129174420D01*
X61123180Y-129042459D01*
X61123174Y-129042457D01*
X60889849Y-128945810D01*
X60644278Y-128886854D01*
X60644272Y-128886853D01*
X60392500Y-128867039D01*
X60140727Y-128886853D01*
X60140721Y-128886854D01*
X59895150Y-128945810D01*
X59661825Y-129042457D01*
X59661819Y-129042459D01*
X59446480Y-129174420D01*
X59446477Y-129174423D01*
X59254441Y-129338436D01*
X59254436Y-129338441D01*
X59090423Y-129530477D01*
X59090420Y-129530480D01*
X58958459Y-129745819D01*
X58958457Y-129745825D01*
X58861810Y-129979150D01*
X58802854Y-130224721D01*
X58802853Y-130224727D01*
X58783039Y-130476500D01*
X57425945Y-130476500D01*
X57356862Y-130455716D01*
X57241376Y-130420971D01*
X57021063Y-130388548D01*
X56969769Y-130381000D01*
X56763953Y-130381000D01*
X56763949Y-130381000D01*
X56678980Y-130387219D01*
X56558695Y-130396023D01*
X56558692Y-130396023D01*
X56558687Y-130396024D01*
X56290729Y-130455714D01*
X56290728Y-130455714D01*
X56034306Y-130553786D01*
X56034294Y-130553792D01*
X55794901Y-130688146D01*
X55794880Y-130688159D01*
X55577599Y-130855940D01*
X55577592Y-130855946D01*
X55387045Y-131053584D01*
X55227304Y-131276862D01*
X55101771Y-131521023D01*
X55013129Y-131780854D01*
X54963263Y-132050832D01*
X54953238Y-132325180D01*
X54953238Y-132325187D01*
X52782500Y-132325187D01*
X52782500Y-128371600D01*
X69901893Y-128371600D01*
X69921051Y-128529382D01*
X69977413Y-128677995D01*
X70067702Y-128808801D01*
X70067703Y-128808802D01*
X70067704Y-128808803D01*
X70067705Y-128808804D01*
X70186668Y-128914197D01*
X70186669Y-128914198D01*
X70186671Y-128914199D01*
X70327407Y-128988063D01*
X70481729Y-129026100D01*
X70481733Y-129026100D01*
X70640667Y-129026100D01*
X70640671Y-129026100D01*
X70794993Y-128988063D01*
X70935729Y-128914199D01*
X71054698Y-128808801D01*
X71144987Y-128677995D01*
X71201349Y-128529382D01*
X71220507Y-128371600D01*
X71201349Y-128213818D01*
X71144987Y-128065205D01*
X71054698Y-127934399D01*
X71054695Y-127934396D01*
X71054694Y-127934395D01*
X70935731Y-127829002D01*
X70935730Y-127829001D01*
X70794995Y-127755138D01*
X70794994Y-127755137D01*
X70794993Y-127755137D01*
X70716747Y-127735851D01*
X70640673Y-127717100D01*
X70640671Y-127717100D01*
X70481729Y-127717100D01*
X70481726Y-127717100D01*
X70367615Y-127745226D01*
X70327407Y-127755137D01*
X70327406Y-127755137D01*
X70327404Y-127755138D01*
X70186669Y-127829001D01*
X70186668Y-127829002D01*
X70067705Y-127934395D01*
X70067704Y-127934396D01*
X69977412Y-128065206D01*
X69921051Y-128213818D01*
X69901893Y-128371600D01*
X52782500Y-128371600D01*
X52782500Y-126883727D01*
X57851566Y-126883727D01*
X57870718Y-127041463D01*
X57870724Y-127041508D01*
X57919974Y-127171371D01*
X57927086Y-127190122D01*
X58017375Y-127320928D01*
X58017376Y-127320929D01*
X58017377Y-127320930D01*
X58017378Y-127320931D01*
X58136341Y-127426324D01*
X58136342Y-127426325D01*
X58136344Y-127426326D01*
X58277080Y-127500190D01*
X58431402Y-127538227D01*
X58431406Y-127538227D01*
X58590340Y-127538227D01*
X58590344Y-127538227D01*
X58744666Y-127500190D01*
X58885402Y-127426326D01*
X59004371Y-127320928D01*
X59094660Y-127190122D01*
X59151022Y-127041509D01*
X59170180Y-126883727D01*
X59153943Y-126750000D01*
X84940693Y-126750000D01*
X84959851Y-126907782D01*
X85016213Y-127056395D01*
X85106502Y-127187201D01*
X85106503Y-127187202D01*
X85106504Y-127187203D01*
X85106505Y-127187204D01*
X85225468Y-127292597D01*
X85225469Y-127292598D01*
X85225471Y-127292599D01*
X85366207Y-127366463D01*
X85520529Y-127404500D01*
X85520533Y-127404500D01*
X85679467Y-127404500D01*
X85679471Y-127404500D01*
X85833793Y-127366463D01*
X85974529Y-127292599D01*
X86093498Y-127187201D01*
X86183787Y-127056395D01*
X86205175Y-127000000D01*
X92170693Y-127000000D01*
X92189851Y-127157782D01*
X92246213Y-127306395D01*
X92336502Y-127437201D01*
X92336503Y-127437202D01*
X92336504Y-127437203D01*
X92336505Y-127437204D01*
X92455468Y-127542597D01*
X92455469Y-127542598D01*
X92455471Y-127542599D01*
X92596207Y-127616463D01*
X92750529Y-127654500D01*
X92750533Y-127654500D01*
X92909467Y-127654500D01*
X92909471Y-127654500D01*
X93063793Y-127616463D01*
X93204529Y-127542599D01*
X93323498Y-127437201D01*
X93382209Y-127352142D01*
X93431610Y-127314395D01*
X93493766Y-127312893D01*
X93544935Y-127348212D01*
X93547778Y-127352124D01*
X93606502Y-127437201D01*
X93606503Y-127437202D01*
X93606504Y-127437203D01*
X93606505Y-127437204D01*
X93725468Y-127542597D01*
X93725469Y-127542598D01*
X93725471Y-127542599D01*
X93866207Y-127616463D01*
X94020529Y-127654500D01*
X94020533Y-127654500D01*
X94179467Y-127654500D01*
X94179471Y-127654500D01*
X94333793Y-127616463D01*
X94474529Y-127542599D01*
X94593498Y-127437201D01*
X94652214Y-127352136D01*
X94701615Y-127314387D01*
X94763771Y-127312884D01*
X94814939Y-127348203D01*
X94817786Y-127352122D01*
X94817807Y-127352152D01*
X94876511Y-127437200D01*
X94876515Y-127437204D01*
X94995478Y-127542597D01*
X94995479Y-127542598D01*
X94995481Y-127542599D01*
X95136217Y-127616463D01*
X95290539Y-127654500D01*
X95290543Y-127654500D01*
X95449477Y-127654500D01*
X95449481Y-127654500D01*
X95603803Y-127616463D01*
X95744539Y-127542599D01*
X95863508Y-127437201D01*
X95922213Y-127352151D01*
X95971615Y-127314402D01*
X96033771Y-127312900D01*
X96084940Y-127348219D01*
X96087797Y-127352152D01*
X96146501Y-127437200D01*
X96146505Y-127437204D01*
X96265468Y-127542597D01*
X96265469Y-127542598D01*
X96265471Y-127542599D01*
X96406207Y-127616463D01*
X96560529Y-127654500D01*
X96560533Y-127654500D01*
X96719467Y-127654500D01*
X96719471Y-127654500D01*
X96873793Y-127616463D01*
X97014529Y-127542599D01*
X97133498Y-127437201D01*
X97223787Y-127306395D01*
X97280149Y-127157782D01*
X97299307Y-127000000D01*
X97280149Y-126842218D01*
X97223787Y-126693605D01*
X97133498Y-126562799D01*
X97133495Y-126562796D01*
X97133494Y-126562795D01*
X97014531Y-126457402D01*
X97014530Y-126457401D01*
X96952795Y-126425000D01*
X103165693Y-126425000D01*
X103184851Y-126582782D01*
X103241213Y-126731395D01*
X103331502Y-126862201D01*
X103331503Y-126862202D01*
X103331504Y-126862203D01*
X103331505Y-126862204D01*
X103450468Y-126967597D01*
X103450469Y-126967598D01*
X103450471Y-126967599D01*
X103591207Y-127041463D01*
X103745529Y-127079500D01*
X103745533Y-127079500D01*
X103904467Y-127079500D01*
X103904471Y-127079500D01*
X104058793Y-127041463D01*
X104199529Y-126967599D01*
X104318498Y-126862201D01*
X104408787Y-126731395D01*
X104465149Y-126582782D01*
X104484307Y-126425000D01*
X104465149Y-126267218D01*
X104408787Y-126118605D01*
X104318498Y-125987799D01*
X104318495Y-125987796D01*
X104318494Y-125987795D01*
X104199531Y-125882402D01*
X104199530Y-125882401D01*
X104058795Y-125808538D01*
X104058794Y-125808537D01*
X104058793Y-125808537D01*
X103980547Y-125789251D01*
X103904473Y-125770500D01*
X103904471Y-125770500D01*
X103745529Y-125770500D01*
X103745526Y-125770500D01*
X103631415Y-125798626D01*
X103591207Y-125808537D01*
X103591206Y-125808537D01*
X103591204Y-125808538D01*
X103450469Y-125882401D01*
X103450468Y-125882402D01*
X103331505Y-125987795D01*
X103331504Y-125987796D01*
X103241212Y-126118606D01*
X103207537Y-126207401D01*
X103184851Y-126267218D01*
X103165693Y-126425000D01*
X96952795Y-126425000D01*
X96873795Y-126383538D01*
X96873794Y-126383537D01*
X96873793Y-126383537D01*
X96795547Y-126364251D01*
X96719473Y-126345500D01*
X96719471Y-126345500D01*
X96560529Y-126345500D01*
X96560526Y-126345500D01*
X96446415Y-126373626D01*
X96406207Y-126383537D01*
X96406206Y-126383537D01*
X96406204Y-126383538D01*
X96265469Y-126457401D01*
X96265468Y-126457402D01*
X96146505Y-126562795D01*
X96146504Y-126562796D01*
X96146502Y-126562799D01*
X96126196Y-126592218D01*
X96087797Y-126647848D01*
X96038394Y-126685597D01*
X95976238Y-126687099D01*
X95925070Y-126651780D01*
X95922213Y-126647848D01*
X95863508Y-126562799D01*
X95863505Y-126562796D01*
X95863504Y-126562795D01*
X95744541Y-126457402D01*
X95744540Y-126457401D01*
X95603805Y-126383538D01*
X95603804Y-126383537D01*
X95603803Y-126383537D01*
X95525557Y-126364251D01*
X95449483Y-126345500D01*
X95449481Y-126345500D01*
X95290539Y-126345500D01*
X95290536Y-126345500D01*
X95176425Y-126373626D01*
X95136217Y-126383537D01*
X95136216Y-126383537D01*
X95136214Y-126383538D01*
X94995479Y-126457401D01*
X94995478Y-126457402D01*
X94876515Y-126562795D01*
X94876514Y-126562796D01*
X94876512Y-126562799D01*
X94817795Y-126647863D01*
X94768395Y-126685612D01*
X94706239Y-126687114D01*
X94655070Y-126651795D01*
X94652223Y-126647877D01*
X94593498Y-126562799D01*
X94593495Y-126562796D01*
X94593494Y-126562795D01*
X94474531Y-126457402D01*
X94474530Y-126457401D01*
X94333795Y-126383538D01*
X94333794Y-126383537D01*
X94333793Y-126383537D01*
X94255547Y-126364251D01*
X94179473Y-126345500D01*
X94179471Y-126345500D01*
X94020529Y-126345500D01*
X94020526Y-126345500D01*
X93906415Y-126373626D01*
X93866207Y-126383537D01*
X93866206Y-126383537D01*
X93866204Y-126383538D01*
X93725469Y-126457401D01*
X93725468Y-126457402D01*
X93606505Y-126562795D01*
X93606504Y-126562796D01*
X93547792Y-126647855D01*
X93498389Y-126685604D01*
X93436233Y-126687106D01*
X93385065Y-126651787D01*
X93382208Y-126647855D01*
X93382203Y-126647848D01*
X93323498Y-126562799D01*
X93323495Y-126562796D01*
X93323494Y-126562795D01*
X93204531Y-126457402D01*
X93204530Y-126457401D01*
X93063795Y-126383538D01*
X93063794Y-126383537D01*
X93063793Y-126383537D01*
X92985547Y-126364251D01*
X92909473Y-126345500D01*
X92909471Y-126345500D01*
X92750529Y-126345500D01*
X92750526Y-126345500D01*
X92636415Y-126373626D01*
X92596207Y-126383537D01*
X92596206Y-126383537D01*
X92596204Y-126383538D01*
X92455469Y-126457401D01*
X92455468Y-126457402D01*
X92336505Y-126562795D01*
X92336504Y-126562796D01*
X92246212Y-126693606D01*
X92231881Y-126731395D01*
X92189851Y-126842218D01*
X92170693Y-127000000D01*
X86205175Y-127000000D01*
X86240149Y-126907782D01*
X86259307Y-126750000D01*
X86240149Y-126592218D01*
X86183787Y-126443605D01*
X86093498Y-126312799D01*
X86093495Y-126312796D01*
X86093494Y-126312795D01*
X85974531Y-126207402D01*
X85974530Y-126207401D01*
X85833795Y-126133538D01*
X85833794Y-126133537D01*
X85833793Y-126133537D01*
X85755547Y-126114251D01*
X85679473Y-126095500D01*
X85679471Y-126095500D01*
X85520529Y-126095500D01*
X85520526Y-126095500D01*
X85426788Y-126118605D01*
X85366207Y-126133537D01*
X85366206Y-126133537D01*
X85366204Y-126133538D01*
X85225469Y-126207401D01*
X85225468Y-126207402D01*
X85106505Y-126312795D01*
X85106504Y-126312796D01*
X85016212Y-126443606D01*
X85010980Y-126457402D01*
X84959851Y-126592218D01*
X84940693Y-126750000D01*
X59153943Y-126750000D01*
X59151022Y-126725945D01*
X59094660Y-126577332D01*
X59004371Y-126446526D01*
X59004368Y-126446523D01*
X59004367Y-126446522D01*
X58885404Y-126341129D01*
X58885403Y-126341128D01*
X58744668Y-126267265D01*
X58744667Y-126267264D01*
X58744666Y-126267264D01*
X58666420Y-126247978D01*
X58590346Y-126229227D01*
X58590344Y-126229227D01*
X58431402Y-126229227D01*
X58431399Y-126229227D01*
X58317288Y-126257353D01*
X58277080Y-126267264D01*
X58277079Y-126267264D01*
X58277077Y-126267265D01*
X58136342Y-126341128D01*
X58136341Y-126341129D01*
X58017378Y-126446522D01*
X58017377Y-126446523D01*
X57927085Y-126577333D01*
X57886026Y-126685597D01*
X57870724Y-126725945D01*
X57851566Y-126883727D01*
X52782500Y-126883727D01*
X52782500Y-125535589D01*
X52801713Y-125476458D01*
X52852013Y-125439913D01*
X52914187Y-125439913D01*
X52964487Y-125476458D01*
X52982983Y-125523597D01*
X52983879Y-125531064D01*
X52983879Y-125531066D01*
X52983880Y-125531067D01*
X53037077Y-125665964D01*
X53124695Y-125781505D01*
X53240236Y-125869123D01*
X53375133Y-125922320D01*
X53459905Y-125932500D01*
X54896494Y-125932499D01*
X54981267Y-125922320D01*
X55116164Y-125869123D01*
X55231705Y-125781505D01*
X55319323Y-125665964D01*
X55372520Y-125531067D01*
X55382700Y-125446295D01*
X55382700Y-124815600D01*
X78461693Y-124815600D01*
X78480851Y-124973382D01*
X78537213Y-125121995D01*
X78627502Y-125252801D01*
X78627503Y-125252802D01*
X78627504Y-125252803D01*
X78627505Y-125252804D01*
X78746468Y-125358197D01*
X78746469Y-125358198D01*
X78746471Y-125358199D01*
X78887207Y-125432063D01*
X79041529Y-125470100D01*
X79041533Y-125470100D01*
X79200467Y-125470100D01*
X79200471Y-125470100D01*
X79354793Y-125432063D01*
X79495529Y-125358199D01*
X79614498Y-125252801D01*
X79704787Y-125121995D01*
X79732091Y-125050000D01*
X89340693Y-125050000D01*
X89359851Y-125207782D01*
X89416213Y-125356395D01*
X89506502Y-125487201D01*
X89506503Y-125487202D01*
X89506504Y-125487203D01*
X89506505Y-125487204D01*
X89625468Y-125592597D01*
X89625469Y-125592598D01*
X89625471Y-125592599D01*
X89766207Y-125666463D01*
X89920529Y-125704500D01*
X89920533Y-125704500D01*
X90079467Y-125704500D01*
X90079471Y-125704500D01*
X90233793Y-125666463D01*
X90374529Y-125592599D01*
X90493498Y-125487201D01*
X90583787Y-125356395D01*
X90640149Y-125207782D01*
X90659307Y-125050000D01*
X90640149Y-124892218D01*
X90583787Y-124743605D01*
X90493498Y-124612799D01*
X90493495Y-124612796D01*
X90493494Y-124612795D01*
X90374531Y-124507402D01*
X90374530Y-124507401D01*
X90233795Y-124433538D01*
X90233794Y-124433537D01*
X90233793Y-124433537D01*
X90155547Y-124414251D01*
X90079473Y-124395500D01*
X90079471Y-124395500D01*
X89920529Y-124395500D01*
X89920526Y-124395500D01*
X89806415Y-124423626D01*
X89766207Y-124433537D01*
X89766206Y-124433537D01*
X89766204Y-124433538D01*
X89625469Y-124507401D01*
X89625468Y-124507402D01*
X89506505Y-124612795D01*
X89506504Y-124612796D01*
X89416212Y-124743606D01*
X89359851Y-124892218D01*
X89340693Y-125050000D01*
X79732091Y-125050000D01*
X79761149Y-124973382D01*
X79780307Y-124815600D01*
X79761149Y-124657818D01*
X79704787Y-124509205D01*
X79614498Y-124378399D01*
X79614495Y-124378396D01*
X79614494Y-124378395D01*
X79495531Y-124273002D01*
X79495530Y-124273001D01*
X79354795Y-124199138D01*
X79354794Y-124199137D01*
X79354793Y-124199137D01*
X79276547Y-124179851D01*
X79200473Y-124161100D01*
X79200471Y-124161100D01*
X79041529Y-124161100D01*
X79041526Y-124161100D01*
X78927415Y-124189226D01*
X78887207Y-124199137D01*
X78887206Y-124199137D01*
X78887204Y-124199138D01*
X78746469Y-124273001D01*
X78746468Y-124273002D01*
X78627505Y-124378395D01*
X78627504Y-124378396D01*
X78537212Y-124509206D01*
X78480851Y-124657818D01*
X78461693Y-124815600D01*
X55382700Y-124815600D01*
X55382699Y-124089706D01*
X55372520Y-124004933D01*
X55319323Y-123870036D01*
X55231705Y-123754495D01*
X55116164Y-123666877D01*
X54981267Y-123613680D01*
X54981265Y-123613679D01*
X54981262Y-123613679D01*
X54896508Y-123603501D01*
X54896499Y-123603500D01*
X54896495Y-123603500D01*
X54896488Y-123603500D01*
X53459913Y-123603500D01*
X53459905Y-123603501D01*
X53375135Y-123613679D01*
X53240236Y-123666877D01*
X53124695Y-123754495D01*
X53037077Y-123870036D01*
X52983880Y-124004933D01*
X52983879Y-124004937D01*
X52982982Y-124012410D01*
X52956856Y-124068829D01*
X52902557Y-124099115D01*
X52840827Y-124091702D01*
X52795243Y-124049420D01*
X52782500Y-124000415D01*
X52782500Y-123593004D01*
X56193768Y-123593004D01*
X56213434Y-123767551D01*
X56249296Y-123870036D01*
X56271451Y-123933352D01*
X56364906Y-124082085D01*
X56489115Y-124206294D01*
X56637848Y-124299749D01*
X56803647Y-124357765D01*
X56934426Y-124372500D01*
X56934434Y-124372500D01*
X57221966Y-124372500D01*
X57221974Y-124372500D01*
X57352753Y-124357765D01*
X57518552Y-124299749D01*
X57667285Y-124206294D01*
X57791494Y-124082085D01*
X57884949Y-123933352D01*
X57942965Y-123767553D01*
X57947061Y-123731200D01*
X74169093Y-123731200D01*
X74188251Y-123888982D01*
X74222685Y-123979777D01*
X74235061Y-124012410D01*
X74244613Y-124037595D01*
X74334902Y-124168401D01*
X74334903Y-124168402D01*
X74334904Y-124168403D01*
X74334905Y-124168404D01*
X74453868Y-124273797D01*
X74453869Y-124273798D01*
X74453871Y-124273799D01*
X74594607Y-124347663D01*
X74748929Y-124385700D01*
X74748933Y-124385700D01*
X74907867Y-124385700D01*
X74907871Y-124385700D01*
X75062193Y-124347663D01*
X75202929Y-124273799D01*
X75321898Y-124168401D01*
X75412187Y-124037595D01*
X75468549Y-123888982D01*
X75487707Y-123731200D01*
X75468549Y-123573418D01*
X75412187Y-123424805D01*
X75321898Y-123293999D01*
X75321895Y-123293996D01*
X75321894Y-123293995D01*
X75279571Y-123256500D01*
X75248051Y-123202908D01*
X75254052Y-123141024D01*
X75279571Y-123105900D01*
X75321893Y-123068405D01*
X75321898Y-123068401D01*
X75412187Y-122937595D01*
X75468549Y-122788982D01*
X75487707Y-122631200D01*
X75468549Y-122473418D01*
X75412187Y-122324805D01*
X75321898Y-122193999D01*
X75321895Y-122193996D01*
X75321894Y-122193995D01*
X75279571Y-122156500D01*
X75248051Y-122102908D01*
X75254052Y-122041024D01*
X75279571Y-122005900D01*
X75321893Y-121968405D01*
X75321898Y-121968401D01*
X75412187Y-121837595D01*
X75468549Y-121688982D01*
X75487707Y-121531200D01*
X75468549Y-121373418D01*
X75412187Y-121224805D01*
X75321898Y-121093999D01*
X75321895Y-121093996D01*
X75321894Y-121093995D01*
X75202931Y-120988602D01*
X75202930Y-120988601D01*
X75062195Y-120914738D01*
X75062194Y-120914737D01*
X75062193Y-120914737D01*
X75018631Y-120904000D01*
X79350693Y-120904000D01*
X79369851Y-121061782D01*
X79426213Y-121210395D01*
X79516502Y-121341201D01*
X79516503Y-121341202D01*
X79516504Y-121341203D01*
X79516505Y-121341204D01*
X79635468Y-121446597D01*
X79635469Y-121446598D01*
X79635471Y-121446599D01*
X79776207Y-121520463D01*
X79930529Y-121558500D01*
X79930533Y-121558500D01*
X80089467Y-121558500D01*
X80089471Y-121558500D01*
X80243793Y-121520463D01*
X80384529Y-121446599D01*
X80503498Y-121341201D01*
X80593787Y-121210395D01*
X80650149Y-121061782D01*
X80669307Y-120904000D01*
X80650149Y-120746218D01*
X80613658Y-120650000D01*
X95990693Y-120650000D01*
X96009851Y-120807782D01*
X96066213Y-120956395D01*
X96156502Y-121087201D01*
X96156503Y-121087202D01*
X96156504Y-121087203D01*
X96156505Y-121087204D01*
X96275468Y-121192597D01*
X96275469Y-121192598D01*
X96275471Y-121192599D01*
X96416207Y-121266463D01*
X96570529Y-121304500D01*
X96570533Y-121304500D01*
X96729467Y-121304500D01*
X96729471Y-121304500D01*
X96883793Y-121266463D01*
X97024529Y-121192599D01*
X97143498Y-121087201D01*
X97233787Y-120956395D01*
X97290149Y-120807782D01*
X97309307Y-120650000D01*
X97290149Y-120492218D01*
X97233787Y-120343605D01*
X97143498Y-120212799D01*
X97143495Y-120212796D01*
X97143494Y-120212795D01*
X97024531Y-120107402D01*
X97024530Y-120107401D01*
X96883795Y-120033538D01*
X96883794Y-120033537D01*
X96883793Y-120033537D01*
X96805547Y-120014251D01*
X96729473Y-119995500D01*
X96729471Y-119995500D01*
X96570529Y-119995500D01*
X96570526Y-119995500D01*
X96456415Y-120023626D01*
X96416207Y-120033537D01*
X96416206Y-120033537D01*
X96416204Y-120033538D01*
X96275469Y-120107401D01*
X96275468Y-120107402D01*
X96156505Y-120212795D01*
X96156504Y-120212796D01*
X96066212Y-120343606D01*
X96027573Y-120445489D01*
X96009851Y-120492218D01*
X95990693Y-120650000D01*
X80613658Y-120650000D01*
X80593787Y-120597605D01*
X80503498Y-120466799D01*
X80503495Y-120466796D01*
X80503494Y-120466795D01*
X80384531Y-120361402D01*
X80384530Y-120361401D01*
X80243795Y-120287538D01*
X80243794Y-120287537D01*
X80243793Y-120287537D01*
X80165547Y-120268251D01*
X80089473Y-120249500D01*
X80089471Y-120249500D01*
X79930529Y-120249500D01*
X79930526Y-120249500D01*
X79816415Y-120277626D01*
X79776207Y-120287537D01*
X79776206Y-120287537D01*
X79776204Y-120287538D01*
X79635469Y-120361401D01*
X79635468Y-120361402D01*
X79516505Y-120466795D01*
X79516504Y-120466796D01*
X79426212Y-120597606D01*
X79406342Y-120650000D01*
X79369851Y-120746218D01*
X79350693Y-120904000D01*
X75018631Y-120904000D01*
X74983947Y-120895451D01*
X74907873Y-120876700D01*
X74907871Y-120876700D01*
X74748929Y-120876700D01*
X74748926Y-120876700D01*
X74638169Y-120904000D01*
X74594607Y-120914737D01*
X74594606Y-120914737D01*
X74594604Y-120914738D01*
X74453869Y-120988601D01*
X74453868Y-120988602D01*
X74334905Y-121093995D01*
X74334904Y-121093996D01*
X74244612Y-121224806D01*
X74214388Y-121304500D01*
X74188251Y-121373418D01*
X74169093Y-121531200D01*
X74188251Y-121688982D01*
X74244613Y-121837595D01*
X74334902Y-121968401D01*
X74334903Y-121968402D01*
X74334904Y-121968403D01*
X74334906Y-121968405D01*
X74377229Y-122005901D01*
X74408748Y-122059493D01*
X74402747Y-122121377D01*
X74377229Y-122156499D01*
X74334906Y-122193994D01*
X74334904Y-122193996D01*
X74244612Y-122324806D01*
X74188251Y-122473418D01*
X74169093Y-122631200D01*
X74188251Y-122788982D01*
X74244613Y-122937595D01*
X74334902Y-123068401D01*
X74334903Y-123068402D01*
X74334904Y-123068403D01*
X74334906Y-123068405D01*
X74377229Y-123105901D01*
X74408748Y-123159493D01*
X74402747Y-123221377D01*
X74377229Y-123256499D01*
X74334906Y-123293994D01*
X74334904Y-123293996D01*
X74244612Y-123424806D01*
X74188251Y-123573418D01*
X74169093Y-123731200D01*
X57947061Y-123731200D01*
X57962632Y-123593000D01*
X57962632Y-123592995D01*
X57942965Y-123418448D01*
X57899417Y-123293994D01*
X57884949Y-123252648D01*
X57791494Y-123103915D01*
X57667285Y-122979706D01*
X57518552Y-122886251D01*
X57518551Y-122886250D01*
X57518550Y-122886250D01*
X57352755Y-122828235D01*
X57326597Y-122825288D01*
X57221974Y-122813500D01*
X56934426Y-122813500D01*
X56839314Y-122824216D01*
X56803644Y-122828235D01*
X56637849Y-122886250D01*
X56489116Y-122979705D01*
X56489113Y-122979707D01*
X56364907Y-123103913D01*
X56364905Y-123103916D01*
X56271450Y-123252649D01*
X56213434Y-123418448D01*
X56193768Y-123592995D01*
X56193768Y-123593004D01*
X52782500Y-123593004D01*
X52782500Y-119790990D01*
X57851566Y-119790990D01*
X57870724Y-119948772D01*
X57927086Y-120097385D01*
X58017375Y-120228191D01*
X58017376Y-120228192D01*
X58017377Y-120228193D01*
X58017378Y-120228194D01*
X58136341Y-120333587D01*
X58136342Y-120333588D01*
X58136344Y-120333589D01*
X58277080Y-120407453D01*
X58431402Y-120445490D01*
X58431406Y-120445490D01*
X58590340Y-120445490D01*
X58590344Y-120445490D01*
X58744666Y-120407453D01*
X58885402Y-120333589D01*
X59004371Y-120228191D01*
X59094660Y-120097385D01*
X59151022Y-119948772D01*
X59170180Y-119790990D01*
X59166539Y-119761000D01*
X59411693Y-119761000D01*
X59430851Y-119918782D01*
X59487213Y-120067395D01*
X59577502Y-120198201D01*
X59577503Y-120198202D01*
X59577504Y-120198203D01*
X59577505Y-120198204D01*
X59696468Y-120303597D01*
X59696469Y-120303598D01*
X59696471Y-120303599D01*
X59837207Y-120377463D01*
X59991529Y-120415500D01*
X59991533Y-120415500D01*
X60150467Y-120415500D01*
X60150471Y-120415500D01*
X60304793Y-120377463D01*
X60445529Y-120303599D01*
X60564498Y-120198201D01*
X60654787Y-120067395D01*
X60711149Y-119918782D01*
X60730307Y-119761000D01*
X62459693Y-119761000D01*
X62478851Y-119918782D01*
X62535213Y-120067395D01*
X62625502Y-120198201D01*
X62625503Y-120198202D01*
X62625504Y-120198203D01*
X62625505Y-120198204D01*
X62744468Y-120303597D01*
X62744469Y-120303598D01*
X62744471Y-120303599D01*
X62885207Y-120377463D01*
X63039529Y-120415500D01*
X63039533Y-120415500D01*
X63198467Y-120415500D01*
X63198471Y-120415500D01*
X63352793Y-120377463D01*
X63493529Y-120303599D01*
X63612498Y-120198201D01*
X63702787Y-120067395D01*
X63759149Y-119918782D01*
X63778307Y-119761000D01*
X63759149Y-119603218D01*
X63702787Y-119454605D01*
X63612498Y-119323799D01*
X63612495Y-119323796D01*
X63612494Y-119323795D01*
X63493531Y-119218402D01*
X63493530Y-119218401D01*
X63352795Y-119144538D01*
X63352794Y-119144537D01*
X63352793Y-119144537D01*
X63274547Y-119125251D01*
X63198473Y-119106500D01*
X63198471Y-119106500D01*
X63039529Y-119106500D01*
X63039526Y-119106500D01*
X62925415Y-119134626D01*
X62885207Y-119144537D01*
X62885206Y-119144537D01*
X62885204Y-119144538D01*
X62744469Y-119218401D01*
X62744468Y-119218402D01*
X62625505Y-119323795D01*
X62625504Y-119323796D01*
X62535212Y-119454606D01*
X62503891Y-119537193D01*
X62478851Y-119603218D01*
X62459693Y-119761000D01*
X60730307Y-119761000D01*
X60711149Y-119603218D01*
X60654787Y-119454605D01*
X60564498Y-119323799D01*
X60564495Y-119323796D01*
X60564494Y-119323795D01*
X60445531Y-119218402D01*
X60445530Y-119218401D01*
X60304795Y-119144538D01*
X60304794Y-119144537D01*
X60304793Y-119144537D01*
X60226547Y-119125251D01*
X60150473Y-119106500D01*
X60150471Y-119106500D01*
X59991529Y-119106500D01*
X59991526Y-119106500D01*
X59877415Y-119134626D01*
X59837207Y-119144537D01*
X59837206Y-119144537D01*
X59837204Y-119144538D01*
X59696469Y-119218401D01*
X59696468Y-119218402D01*
X59577505Y-119323795D01*
X59577504Y-119323796D01*
X59487212Y-119454606D01*
X59455891Y-119537193D01*
X59430851Y-119603218D01*
X59411693Y-119761000D01*
X59166539Y-119761000D01*
X59151022Y-119633208D01*
X59094660Y-119484595D01*
X59004371Y-119353789D01*
X59004368Y-119353786D01*
X59004367Y-119353785D01*
X58885404Y-119248392D01*
X58885403Y-119248391D01*
X58744668Y-119174528D01*
X58744667Y-119174527D01*
X58744666Y-119174527D01*
X58666420Y-119155241D01*
X58590346Y-119136490D01*
X58590344Y-119136490D01*
X58431402Y-119136490D01*
X58431399Y-119136490D01*
X58317288Y-119164616D01*
X58277080Y-119174527D01*
X58277079Y-119174527D01*
X58277077Y-119174528D01*
X58136342Y-119248391D01*
X58136341Y-119248392D01*
X58017378Y-119353785D01*
X58017377Y-119353786D01*
X57927085Y-119484596D01*
X57882098Y-119603218D01*
X57870724Y-119633208D01*
X57851566Y-119790990D01*
X52782500Y-119790990D01*
X52782500Y-118743004D01*
X56193768Y-118743004D01*
X56213434Y-118917551D01*
X56213435Y-118917553D01*
X56271451Y-119083352D01*
X56364906Y-119232085D01*
X56489115Y-119356294D01*
X56637848Y-119449749D01*
X56803647Y-119507765D01*
X56934426Y-119522500D01*
X56934434Y-119522500D01*
X57221966Y-119522500D01*
X57221974Y-119522500D01*
X57352753Y-119507765D01*
X57518552Y-119449749D01*
X57667285Y-119356294D01*
X57791494Y-119232085D01*
X57874493Y-119099992D01*
X82840693Y-119099992D01*
X82855070Y-119218402D01*
X82859851Y-119257773D01*
X82896263Y-119353785D01*
X82916213Y-119406387D01*
X83006502Y-119537193D01*
X83006503Y-119537194D01*
X83006504Y-119537195D01*
X83006505Y-119537196D01*
X83125468Y-119642589D01*
X83125469Y-119642590D01*
X83125471Y-119642591D01*
X83266207Y-119716455D01*
X83420529Y-119754492D01*
X83420533Y-119754492D01*
X83579467Y-119754492D01*
X83579471Y-119754492D01*
X83733793Y-119716455D01*
X83874529Y-119642591D01*
X83993498Y-119537193D01*
X84083787Y-119406387D01*
X84140149Y-119257774D01*
X84159307Y-119099992D01*
X84140149Y-118942210D01*
X84083787Y-118793597D01*
X83993498Y-118662791D01*
X83993495Y-118662788D01*
X83993494Y-118662787D01*
X83874531Y-118557394D01*
X83874530Y-118557393D01*
X83733795Y-118483530D01*
X83733794Y-118483529D01*
X83733793Y-118483529D01*
X83655547Y-118464243D01*
X83579473Y-118445492D01*
X83579471Y-118445492D01*
X83420529Y-118445492D01*
X83420526Y-118445492D01*
X83311103Y-118472463D01*
X83266207Y-118483529D01*
X83266206Y-118483529D01*
X83266204Y-118483530D01*
X83125469Y-118557393D01*
X83125468Y-118557394D01*
X83006505Y-118662787D01*
X83006504Y-118662788D01*
X82916212Y-118793598D01*
X82869203Y-118917551D01*
X82859851Y-118942210D01*
X82840693Y-119099992D01*
X57874493Y-119099992D01*
X57884949Y-119083352D01*
X57942965Y-118917553D01*
X57962632Y-118743000D01*
X57962632Y-118742995D01*
X57942965Y-118568448D01*
X57913251Y-118483529D01*
X57884949Y-118402648D01*
X57791494Y-118253915D01*
X57667285Y-118129706D01*
X57518552Y-118036251D01*
X57518551Y-118036250D01*
X57518550Y-118036250D01*
X57352755Y-117978235D01*
X57326597Y-117975288D01*
X57221974Y-117963500D01*
X56934426Y-117963500D01*
X56839314Y-117974216D01*
X56803644Y-117978235D01*
X56637849Y-118036250D01*
X56489116Y-118129705D01*
X56489113Y-118129707D01*
X56364907Y-118253913D01*
X56364905Y-118253916D01*
X56271450Y-118402649D01*
X56213434Y-118568448D01*
X56193768Y-118742995D01*
X56193768Y-118743004D01*
X52782500Y-118743004D01*
X52782500Y-118335589D01*
X52801713Y-118276458D01*
X52852013Y-118239913D01*
X52914187Y-118239913D01*
X52964487Y-118276458D01*
X52982983Y-118323597D01*
X52983879Y-118331064D01*
X52983879Y-118331066D01*
X52983880Y-118331067D01*
X53037077Y-118465964D01*
X53124695Y-118581505D01*
X53240236Y-118669123D01*
X53375133Y-118722320D01*
X53459905Y-118732500D01*
X54896494Y-118732499D01*
X54981267Y-118722320D01*
X55116164Y-118669123D01*
X55231705Y-118581505D01*
X55319323Y-118465964D01*
X55372520Y-118331067D01*
X55382700Y-118246295D01*
X55382699Y-117221000D01*
X64110693Y-117221000D01*
X64129851Y-117378782D01*
X64186213Y-117527395D01*
X64276502Y-117658201D01*
X64276503Y-117658202D01*
X64276504Y-117658203D01*
X64276505Y-117658204D01*
X64395468Y-117763597D01*
X64395469Y-117763598D01*
X64395471Y-117763599D01*
X64536207Y-117837463D01*
X64690529Y-117875500D01*
X64690533Y-117875500D01*
X64849467Y-117875500D01*
X64849471Y-117875500D01*
X64928586Y-117856000D01*
X73254693Y-117856000D01*
X73273851Y-118013782D01*
X73308285Y-118104577D01*
X73317815Y-118129706D01*
X73330213Y-118162395D01*
X73420502Y-118293201D01*
X73420503Y-118293202D01*
X73420504Y-118293203D01*
X73420505Y-118293204D01*
X73539468Y-118398597D01*
X73539469Y-118398598D01*
X73539471Y-118398599D01*
X73680207Y-118472463D01*
X73834529Y-118510500D01*
X73834533Y-118510500D01*
X73993467Y-118510500D01*
X73993471Y-118510500D01*
X74147793Y-118472463D01*
X74288529Y-118398599D01*
X74407498Y-118293201D01*
X74497787Y-118162395D01*
X74554149Y-118013782D01*
X74573307Y-117856000D01*
X74554149Y-117698218D01*
X74497787Y-117549605D01*
X74407498Y-117418799D01*
X74407495Y-117418796D01*
X74407494Y-117418795D01*
X74288531Y-117313402D01*
X74288530Y-117313401D01*
X74147795Y-117239538D01*
X74147794Y-117239537D01*
X74147793Y-117239537D01*
X74069547Y-117220251D01*
X73993473Y-117201500D01*
X73993471Y-117201500D01*
X73834529Y-117201500D01*
X73834526Y-117201500D01*
X73755414Y-117221000D01*
X73680207Y-117239537D01*
X73680206Y-117239537D01*
X73680204Y-117239538D01*
X73539469Y-117313401D01*
X73539468Y-117313402D01*
X73420505Y-117418795D01*
X73420504Y-117418796D01*
X73330212Y-117549606D01*
X73289027Y-117658203D01*
X73273851Y-117698218D01*
X73254693Y-117856000D01*
X64928586Y-117856000D01*
X65003793Y-117837463D01*
X65144529Y-117763599D01*
X65263498Y-117658201D01*
X65353787Y-117527395D01*
X65410149Y-117378782D01*
X65429307Y-117221000D01*
X65410149Y-117063218D01*
X65353787Y-116914605D01*
X65263498Y-116783799D01*
X65263495Y-116783796D01*
X65263494Y-116783795D01*
X65144531Y-116678402D01*
X65144530Y-116678401D01*
X65003795Y-116604538D01*
X65003794Y-116604537D01*
X65003793Y-116604537D01*
X64925547Y-116585251D01*
X64849473Y-116566500D01*
X64849471Y-116566500D01*
X64690529Y-116566500D01*
X64690526Y-116566500D01*
X64580560Y-116593605D01*
X64536207Y-116604537D01*
X64536206Y-116604537D01*
X64536204Y-116604538D01*
X64395469Y-116678401D01*
X64395468Y-116678402D01*
X64276505Y-116783795D01*
X64276504Y-116783796D01*
X64186212Y-116914606D01*
X64131913Y-117057781D01*
X64129851Y-117063218D01*
X64110693Y-117221000D01*
X55382699Y-117221000D01*
X55382699Y-116889706D01*
X55372520Y-116804933D01*
X55319323Y-116670036D01*
X55231705Y-116554495D01*
X55116164Y-116466877D01*
X54981267Y-116413680D01*
X54981265Y-116413679D01*
X54981262Y-116413679D01*
X54896508Y-116403501D01*
X54896499Y-116403500D01*
X54896495Y-116403500D01*
X54896488Y-116403500D01*
X53459913Y-116403500D01*
X53459905Y-116403501D01*
X53375135Y-116413679D01*
X53240236Y-116466877D01*
X53124695Y-116554495D01*
X53037077Y-116670036D01*
X52983880Y-116804933D01*
X52983879Y-116804937D01*
X52982982Y-116812410D01*
X52956856Y-116868829D01*
X52902557Y-116899115D01*
X52840827Y-116891702D01*
X52795243Y-116849420D01*
X52782500Y-116800415D01*
X52782500Y-115951000D01*
X67666693Y-115951000D01*
X67685851Y-116108782D01*
X67742213Y-116257395D01*
X67832502Y-116388201D01*
X67832503Y-116388202D01*
X67832504Y-116388203D01*
X67832505Y-116388204D01*
X67951468Y-116493597D01*
X67951469Y-116493598D01*
X67951471Y-116493599D01*
X68092207Y-116567463D01*
X68246529Y-116605500D01*
X68246533Y-116605500D01*
X68405467Y-116605500D01*
X68405471Y-116605500D01*
X68559793Y-116567463D01*
X68700529Y-116493599D01*
X68819498Y-116388201D01*
X68909787Y-116257395D01*
X68966149Y-116108782D01*
X68985307Y-115951000D01*
X73254693Y-115951000D01*
X73273851Y-116108782D01*
X73330213Y-116257395D01*
X73420502Y-116388201D01*
X73420503Y-116388202D01*
X73420504Y-116388203D01*
X73420505Y-116388204D01*
X73539468Y-116493597D01*
X73539469Y-116493598D01*
X73539471Y-116493599D01*
X73680207Y-116567463D01*
X73834529Y-116605500D01*
X73834533Y-116605500D01*
X73993467Y-116605500D01*
X73993471Y-116605500D01*
X74147793Y-116567463D01*
X74288529Y-116493599D01*
X74407498Y-116388201D01*
X74497787Y-116257395D01*
X74554149Y-116108782D01*
X74573307Y-115951000D01*
X74554149Y-115793218D01*
X74497787Y-115644605D01*
X74407498Y-115513799D01*
X74407495Y-115513796D01*
X74407494Y-115513795D01*
X74288531Y-115408402D01*
X74288530Y-115408401D01*
X74147795Y-115334538D01*
X74147794Y-115334537D01*
X74147793Y-115334537D01*
X74069547Y-115315251D01*
X73993473Y-115296500D01*
X73993471Y-115296500D01*
X73834529Y-115296500D01*
X73834526Y-115296500D01*
X73755414Y-115316000D01*
X73680207Y-115334537D01*
X73680206Y-115334537D01*
X73680204Y-115334538D01*
X73539469Y-115408401D01*
X73539468Y-115408402D01*
X73420505Y-115513795D01*
X73420504Y-115513796D01*
X73330212Y-115644606D01*
X73273851Y-115793218D01*
X73254693Y-115951000D01*
X68985307Y-115951000D01*
X68966149Y-115793218D01*
X68909787Y-115644605D01*
X68819498Y-115513799D01*
X68819495Y-115513796D01*
X68819494Y-115513795D01*
X68700531Y-115408402D01*
X68700527Y-115408399D01*
X68694196Y-115405077D01*
X68650766Y-115360586D01*
X68641782Y-115299064D01*
X68670675Y-115244012D01*
X68694196Y-115226923D01*
X68700527Y-115223600D01*
X68700526Y-115223600D01*
X68700529Y-115223599D01*
X68819498Y-115118201D01*
X68909787Y-114987395D01*
X68966149Y-114838782D01*
X68985307Y-114681000D01*
X68966149Y-114523218D01*
X68909787Y-114374605D01*
X68819498Y-114243799D01*
X68819495Y-114243796D01*
X68819494Y-114243795D01*
X68700531Y-114138402D01*
X68700530Y-114138401D01*
X68559795Y-114064538D01*
X68559794Y-114064537D01*
X68559793Y-114064537D01*
X68481547Y-114045251D01*
X68405473Y-114026500D01*
X68405471Y-114026500D01*
X68246529Y-114026500D01*
X68246526Y-114026500D01*
X68132415Y-114054626D01*
X68092207Y-114064537D01*
X68092206Y-114064537D01*
X68092204Y-114064538D01*
X67951469Y-114138401D01*
X67951468Y-114138402D01*
X67832505Y-114243795D01*
X67832504Y-114243796D01*
X67742212Y-114374606D01*
X67693209Y-114503816D01*
X67685851Y-114523218D01*
X67666693Y-114681000D01*
X67685851Y-114838782D01*
X67742213Y-114987395D01*
X67832502Y-115118201D01*
X67832503Y-115118202D01*
X67832504Y-115118203D01*
X67832505Y-115118204D01*
X67951468Y-115223597D01*
X67951469Y-115223597D01*
X67951471Y-115223599D01*
X67956417Y-115226195D01*
X67957806Y-115226924D01*
X68001235Y-115271417D01*
X68010217Y-115332939D01*
X67981322Y-115387991D01*
X67957806Y-115405076D01*
X67951470Y-115408401D01*
X67951468Y-115408402D01*
X67832505Y-115513795D01*
X67832504Y-115513796D01*
X67742212Y-115644606D01*
X67685851Y-115793218D01*
X67666693Y-115951000D01*
X52782500Y-115951000D01*
X52782500Y-114300000D01*
X59596768Y-114300000D01*
X59615654Y-114503816D01*
X59615654Y-114503817D01*
X59671672Y-114700703D01*
X59671673Y-114700704D01*
X59762909Y-114883930D01*
X59762910Y-114883931D01*
X59762912Y-114883935D01*
X59886268Y-115047285D01*
X60037528Y-115185178D01*
X60037532Y-115185181D01*
X60037538Y-115185186D01*
X60211573Y-115292944D01*
X60402444Y-115366888D01*
X60451824Y-115376118D01*
X60603651Y-115404500D01*
X60603653Y-115404500D01*
X60808348Y-115404500D01*
X60896663Y-115387991D01*
X61009556Y-115366888D01*
X61200427Y-115292944D01*
X61374462Y-115185186D01*
X61385564Y-115175065D01*
X62141500Y-115175065D01*
X62156266Y-115249301D01*
X62156267Y-115249304D01*
X62212514Y-115333482D01*
X62212515Y-115333483D01*
X62212516Y-115333484D01*
X62296699Y-115389734D01*
X62370933Y-115404500D01*
X64121066Y-115404499D01*
X64195301Y-115389734D01*
X64279484Y-115333484D01*
X64335734Y-115249301D01*
X64350500Y-115175067D01*
X64350499Y-113424934D01*
X64335734Y-113350699D01*
X64335732Y-113350697D01*
X64335732Y-113350695D01*
X64279485Y-113266517D01*
X64279483Y-113266515D01*
X64229492Y-113233112D01*
X64195301Y-113210266D01*
X64195300Y-113210265D01*
X64195299Y-113210265D01*
X64139498Y-113199166D01*
X64121067Y-113195500D01*
X64121066Y-113195500D01*
X62370934Y-113195500D01*
X62296698Y-113210266D01*
X62296695Y-113210267D01*
X62212517Y-113266514D01*
X62212515Y-113266516D01*
X62156265Y-113350700D01*
X62141500Y-113424933D01*
X62141500Y-115175065D01*
X61385564Y-115175065D01*
X61525732Y-115047285D01*
X61649088Y-114883935D01*
X61740328Y-114700701D01*
X61796345Y-114503821D01*
X61815232Y-114300000D01*
X61796345Y-114096179D01*
X61740328Y-113899299D01*
X61649088Y-113716065D01*
X61525732Y-113552715D01*
X61525731Y-113552714D01*
X61374471Y-113414821D01*
X61374466Y-113414817D01*
X61374462Y-113414814D01*
X61200427Y-113307056D01*
X61200423Y-113307054D01*
X61009554Y-113233111D01*
X61009549Y-113233110D01*
X60808349Y-113195500D01*
X60808347Y-113195500D01*
X60603653Y-113195500D01*
X60603651Y-113195500D01*
X60402450Y-113233110D01*
X60402445Y-113233111D01*
X60211576Y-113307054D01*
X60211572Y-113307056D01*
X60117388Y-113365373D01*
X60037538Y-113414814D01*
X60037537Y-113414815D01*
X60037528Y-113414821D01*
X59886268Y-113552714D01*
X59762910Y-113716068D01*
X59762909Y-113716069D01*
X59671673Y-113899295D01*
X59671672Y-113899296D01*
X59615654Y-114096182D01*
X59615654Y-114096183D01*
X59596768Y-114300000D01*
X52782500Y-114300000D01*
X52782500Y-111632999D01*
X59558020Y-111632999D01*
X59558021Y-111633000D01*
X60222182Y-111633000D01*
X60206000Y-111688111D01*
X60206000Y-111831889D01*
X60222182Y-111887000D01*
X59558021Y-111887000D01*
X59565999Y-111973098D01*
X59624568Y-112178951D01*
X59624569Y-112178952D01*
X59719960Y-112370523D01*
X59848937Y-112541317D01*
X60007086Y-112685490D01*
X60007095Y-112685496D01*
X60189055Y-112798162D01*
X60189059Y-112798164D01*
X60388619Y-112875473D01*
X60578999Y-112911062D01*
X60579000Y-112911062D01*
X60579000Y-112246881D01*
X60670237Y-112260000D01*
X60741763Y-112260000D01*
X60833000Y-112246881D01*
X60833000Y-112911062D01*
X61023380Y-112875473D01*
X61222940Y-112798164D01*
X61222944Y-112798162D01*
X61404904Y-112685496D01*
X61404913Y-112685490D01*
X61563062Y-112541317D01*
X61692038Y-112370523D01*
X61692039Y-112370523D01*
X61787430Y-112178952D01*
X61787431Y-112178951D01*
X61846000Y-111973098D01*
X61853979Y-111887000D01*
X61189818Y-111887000D01*
X61206000Y-111831889D01*
X61206000Y-111760000D01*
X62136768Y-111760000D01*
X62155654Y-111963816D01*
X62155654Y-111963817D01*
X62211672Y-112160703D01*
X62211673Y-112160704D01*
X62302909Y-112343930D01*
X62302910Y-112343931D01*
X62302912Y-112343935D01*
X62379837Y-112445800D01*
X62426268Y-112507285D01*
X62577528Y-112645178D01*
X62577532Y-112645181D01*
X62577538Y-112645186D01*
X62751573Y-112752944D01*
X62942444Y-112826888D01*
X62991824Y-112836118D01*
X63143651Y-112864500D01*
X63143653Y-112864500D01*
X63348348Y-112864500D01*
X63424261Y-112850309D01*
X63549556Y-112826888D01*
X63740427Y-112752944D01*
X63914462Y-112645186D01*
X64065732Y-112507285D01*
X64112163Y-112445800D01*
X70841693Y-112445800D01*
X70860851Y-112603582D01*
X70891915Y-112685490D01*
X70903466Y-112715949D01*
X70917213Y-112752195D01*
X71007502Y-112883001D01*
X71007503Y-112883002D01*
X71007504Y-112883003D01*
X71007505Y-112883004D01*
X71126468Y-112988397D01*
X71126469Y-112988398D01*
X71141183Y-112996120D01*
X71267207Y-113062263D01*
X71421529Y-113100300D01*
X71421533Y-113100300D01*
X71580467Y-113100300D01*
X71580471Y-113100300D01*
X71734793Y-113062263D01*
X71875529Y-112988399D01*
X71994498Y-112883001D01*
X72084787Y-112752195D01*
X72141149Y-112603582D01*
X72160307Y-112445800D01*
X72141149Y-112288018D01*
X72084787Y-112139405D01*
X71994498Y-112008599D01*
X71994495Y-112008596D01*
X71994494Y-112008595D01*
X71875531Y-111903202D01*
X71875530Y-111903201D01*
X71734795Y-111829338D01*
X71734794Y-111829337D01*
X71734793Y-111829337D01*
X71656547Y-111810051D01*
X71580473Y-111791300D01*
X71580471Y-111791300D01*
X71421529Y-111791300D01*
X71421526Y-111791300D01*
X71307415Y-111819426D01*
X71267207Y-111829337D01*
X71267206Y-111829337D01*
X71267204Y-111829338D01*
X71126469Y-111903201D01*
X71126468Y-111903202D01*
X71007505Y-112008595D01*
X71007504Y-112008596D01*
X70917212Y-112139406D01*
X70899939Y-112184952D01*
X70860851Y-112288018D01*
X70841693Y-112445800D01*
X64112163Y-112445800D01*
X64189088Y-112343935D01*
X64280328Y-112160701D01*
X64336345Y-111963821D01*
X64355232Y-111760000D01*
X64336345Y-111556179D01*
X64280328Y-111359299D01*
X64189088Y-111176065D01*
X64065732Y-111012715D01*
X64065731Y-111012714D01*
X63914471Y-110874821D01*
X63914466Y-110874817D01*
X63914462Y-110874814D01*
X63740427Y-110767056D01*
X63740423Y-110767054D01*
X63549554Y-110693111D01*
X63549549Y-110693110D01*
X63348349Y-110655500D01*
X63348347Y-110655500D01*
X63143653Y-110655500D01*
X63143651Y-110655500D01*
X62942450Y-110693110D01*
X62942445Y-110693111D01*
X62751576Y-110767054D01*
X62751572Y-110767056D01*
X62643814Y-110833777D01*
X62577538Y-110874814D01*
X62577537Y-110874815D01*
X62577528Y-110874821D01*
X62426268Y-111012714D01*
X62302910Y-111176068D01*
X62302909Y-111176069D01*
X62211673Y-111359295D01*
X62211672Y-111359296D01*
X62155654Y-111556182D01*
X62155654Y-111556183D01*
X62136768Y-111760000D01*
X61206000Y-111760000D01*
X61206000Y-111688111D01*
X61189818Y-111633000D01*
X61853979Y-111633000D01*
X61853979Y-111632999D01*
X61846000Y-111546901D01*
X61787431Y-111341048D01*
X61787430Y-111341047D01*
X61692039Y-111149476D01*
X61563062Y-110978682D01*
X61404913Y-110834509D01*
X61404904Y-110834503D01*
X61222944Y-110721837D01*
X61222940Y-110721835D01*
X61023381Y-110644526D01*
X60833000Y-110608937D01*
X60833000Y-111273118D01*
X60741763Y-111260000D01*
X60670237Y-111260000D01*
X60579000Y-111273118D01*
X60579000Y-110608937D01*
X60388618Y-110644526D01*
X60189059Y-110721835D01*
X60189055Y-110721837D01*
X60007095Y-110834503D01*
X60007086Y-110834509D01*
X59848937Y-110978682D01*
X59719961Y-111149476D01*
X59719960Y-111149476D01*
X59624569Y-111341047D01*
X59624568Y-111341048D01*
X59565999Y-111546901D01*
X59558020Y-111632999D01*
X52782500Y-111632999D01*
X52782500Y-109505340D01*
X53981500Y-109505340D01*
X54002692Y-109632335D01*
X54022429Y-109750614D01*
X54024588Y-109756902D01*
X54103171Y-109985809D01*
X54103172Y-109985810D01*
X54221521Y-110204501D01*
X54221523Y-110204503D01*
X54221526Y-110204509D01*
X54368843Y-110393782D01*
X54374266Y-110400749D01*
X54442436Y-110463503D01*
X54557215Y-110569164D01*
X54765393Y-110705173D01*
X54993119Y-110805063D01*
X55234179Y-110866108D01*
X55234182Y-110866108D01*
X55234185Y-110866109D01*
X55373890Y-110877684D01*
X55419933Y-110881500D01*
X55419935Y-110881500D01*
X55544065Y-110881500D01*
X55544067Y-110881500D01*
X55596623Y-110877145D01*
X55729814Y-110866109D01*
X55729816Y-110866108D01*
X55729821Y-110866108D01*
X55970881Y-110805063D01*
X56198607Y-110705173D01*
X56406785Y-110569164D01*
X56589738Y-110400744D01*
X56668539Y-110299500D01*
X75185093Y-110299500D01*
X75204251Y-110457282D01*
X75260613Y-110605895D01*
X75350902Y-110736701D01*
X75350903Y-110736702D01*
X75350904Y-110736703D01*
X75350905Y-110736704D01*
X75469868Y-110842097D01*
X75469869Y-110842098D01*
X75469871Y-110842099D01*
X75610607Y-110915963D01*
X75764929Y-110954000D01*
X75764933Y-110954000D01*
X75923867Y-110954000D01*
X75923871Y-110954000D01*
X76078193Y-110915963D01*
X76218929Y-110842099D01*
X76337898Y-110736701D01*
X76428187Y-110605895D01*
X76484549Y-110457282D01*
X76503707Y-110299500D01*
X76495997Y-110236000D01*
X80582593Y-110236000D01*
X80601751Y-110393782D01*
X80625833Y-110457281D01*
X80652556Y-110527744D01*
X80658113Y-110542395D01*
X80748402Y-110673201D01*
X80748403Y-110673202D01*
X80748404Y-110673203D01*
X80748405Y-110673204D01*
X80867368Y-110778597D01*
X80867369Y-110778598D01*
X80867371Y-110778599D01*
X81008107Y-110852463D01*
X81162429Y-110890500D01*
X81162433Y-110890500D01*
X81321367Y-110890500D01*
X81321371Y-110890500D01*
X81475693Y-110852463D01*
X81616429Y-110778599D01*
X81735398Y-110673201D01*
X81825687Y-110542395D01*
X81882049Y-110393782D01*
X81901207Y-110236000D01*
X81882049Y-110078218D01*
X81825687Y-109929605D01*
X81735398Y-109798799D01*
X81735395Y-109798796D01*
X81735394Y-109798795D01*
X81616431Y-109693402D01*
X81616430Y-109693401D01*
X81475695Y-109619538D01*
X81475694Y-109619537D01*
X81475693Y-109619537D01*
X81397447Y-109600251D01*
X81321373Y-109581500D01*
X81321371Y-109581500D01*
X81162429Y-109581500D01*
X81162426Y-109581500D01*
X81048315Y-109609626D01*
X81008107Y-109619537D01*
X81008106Y-109619537D01*
X81008104Y-109619538D01*
X80867369Y-109693401D01*
X80867368Y-109693402D01*
X80748405Y-109798795D01*
X80748404Y-109798796D01*
X80658112Y-109929606D01*
X80636797Y-109985809D01*
X80601751Y-110078218D01*
X80582593Y-110236000D01*
X76495997Y-110236000D01*
X76484549Y-110141718D01*
X76428187Y-109993105D01*
X76337898Y-109862299D01*
X76337895Y-109862296D01*
X76337894Y-109862295D01*
X76218931Y-109756902D01*
X76218930Y-109756901D01*
X76078195Y-109683038D01*
X76078194Y-109683037D01*
X76078193Y-109683037D01*
X75999947Y-109663751D01*
X75923873Y-109645000D01*
X75923871Y-109645000D01*
X75764929Y-109645000D01*
X75764926Y-109645000D01*
X75650815Y-109673126D01*
X75610607Y-109683037D01*
X75610606Y-109683037D01*
X75610604Y-109683038D01*
X75469869Y-109756901D01*
X75469868Y-109756902D01*
X75350905Y-109862295D01*
X75350904Y-109862296D01*
X75260612Y-109993106D01*
X75215214Y-110112810D01*
X75204251Y-110141718D01*
X75185093Y-110299500D01*
X56668539Y-110299500D01*
X56742474Y-110204509D01*
X56860828Y-109985810D01*
X56941571Y-109750614D01*
X56982500Y-109505335D01*
X56982500Y-109256665D01*
X56941571Y-109011386D01*
X56860828Y-108776190D01*
X56742474Y-108557491D01*
X56665037Y-108458000D01*
X75185093Y-108458000D01*
X75204251Y-108615782D01*
X75260613Y-108764395D01*
X75350902Y-108895201D01*
X75350903Y-108895202D01*
X75350904Y-108895203D01*
X75350905Y-108895204D01*
X75469868Y-109000597D01*
X75469869Y-109000598D01*
X75469871Y-109000599D01*
X75610607Y-109074463D01*
X75764929Y-109112500D01*
X75764933Y-109112500D01*
X75923867Y-109112500D01*
X75923871Y-109112500D01*
X76078193Y-109074463D01*
X76218929Y-109000599D01*
X76337898Y-108895201D01*
X76428187Y-108764395D01*
X76484549Y-108615782D01*
X76503707Y-108458000D01*
X76836093Y-108458000D01*
X76855251Y-108615782D01*
X76911613Y-108764395D01*
X77001902Y-108895201D01*
X77001903Y-108895202D01*
X77001904Y-108895203D01*
X77001905Y-108895204D01*
X77120868Y-109000597D01*
X77120869Y-109000598D01*
X77120871Y-109000599D01*
X77261607Y-109074463D01*
X77415929Y-109112500D01*
X77415933Y-109112500D01*
X77574867Y-109112500D01*
X77574871Y-109112500D01*
X77729193Y-109074463D01*
X77869929Y-109000599D01*
X77988898Y-108895201D01*
X78079187Y-108764395D01*
X78135549Y-108615782D01*
X78154707Y-108458000D01*
X78677593Y-108458000D01*
X78696751Y-108615782D01*
X78753113Y-108764395D01*
X78843402Y-108895201D01*
X78843403Y-108895202D01*
X78843404Y-108895203D01*
X78843405Y-108895204D01*
X78962368Y-109000597D01*
X78962369Y-109000598D01*
X78962371Y-109000599D01*
X79103107Y-109074463D01*
X79257429Y-109112500D01*
X79257433Y-109112500D01*
X79416367Y-109112500D01*
X79416371Y-109112500D01*
X79570693Y-109074463D01*
X79711429Y-109000599D01*
X79830398Y-108895201D01*
X79920687Y-108764395D01*
X79977049Y-108615782D01*
X79996207Y-108458000D01*
X80582593Y-108458000D01*
X80601751Y-108615782D01*
X80658113Y-108764395D01*
X80748402Y-108895201D01*
X80748403Y-108895202D01*
X80748404Y-108895203D01*
X80748405Y-108895204D01*
X80867368Y-109000597D01*
X80867369Y-109000598D01*
X80867371Y-109000599D01*
X81008107Y-109074463D01*
X81162429Y-109112500D01*
X81162433Y-109112500D01*
X81321367Y-109112500D01*
X81321371Y-109112500D01*
X81475693Y-109074463D01*
X81616429Y-109000599D01*
X81735398Y-108895201D01*
X81825687Y-108764395D01*
X81882049Y-108615782D01*
X81901207Y-108458000D01*
X81882049Y-108300218D01*
X81825687Y-108151605D01*
X81735398Y-108020799D01*
X81735395Y-108020796D01*
X81735394Y-108020795D01*
X81616431Y-107915402D01*
X81616430Y-107915401D01*
X81475695Y-107841538D01*
X81475694Y-107841537D01*
X81475693Y-107841537D01*
X81397447Y-107822251D01*
X81321373Y-107803500D01*
X81321371Y-107803500D01*
X81162429Y-107803500D01*
X81162426Y-107803500D01*
X81048315Y-107831626D01*
X81008107Y-107841537D01*
X81008106Y-107841537D01*
X81008104Y-107841538D01*
X80867369Y-107915401D01*
X80867368Y-107915402D01*
X80748405Y-108020795D01*
X80748404Y-108020796D01*
X80658112Y-108151606D01*
X80601751Y-108300218D01*
X80582593Y-108458000D01*
X79996207Y-108458000D01*
X79977049Y-108300218D01*
X79920687Y-108151605D01*
X79830398Y-108020799D01*
X79830395Y-108020796D01*
X79830394Y-108020795D01*
X79711431Y-107915402D01*
X79711430Y-107915401D01*
X79570695Y-107841538D01*
X79570694Y-107841537D01*
X79570693Y-107841537D01*
X79492447Y-107822251D01*
X79416373Y-107803500D01*
X79416371Y-107803500D01*
X79257429Y-107803500D01*
X79257426Y-107803500D01*
X79143315Y-107831626D01*
X79103107Y-107841537D01*
X79103106Y-107841537D01*
X79103104Y-107841538D01*
X78962369Y-107915401D01*
X78962368Y-107915402D01*
X78843405Y-108020795D01*
X78843404Y-108020796D01*
X78753112Y-108151606D01*
X78696751Y-108300218D01*
X78677593Y-108458000D01*
X78154707Y-108458000D01*
X78135549Y-108300218D01*
X78079187Y-108151605D01*
X77988898Y-108020799D01*
X77988895Y-108020796D01*
X77988894Y-108020795D01*
X77869931Y-107915402D01*
X77869930Y-107915401D01*
X77729195Y-107841538D01*
X77729194Y-107841537D01*
X77729193Y-107841537D01*
X77650947Y-107822251D01*
X77574873Y-107803500D01*
X77574871Y-107803500D01*
X77415929Y-107803500D01*
X77415926Y-107803500D01*
X77301815Y-107831626D01*
X77261607Y-107841537D01*
X77261606Y-107841537D01*
X77261604Y-107841538D01*
X77120869Y-107915401D01*
X77120868Y-107915402D01*
X77001905Y-108020795D01*
X77001904Y-108020796D01*
X76911612Y-108151606D01*
X76855251Y-108300218D01*
X76836093Y-108458000D01*
X76503707Y-108458000D01*
X76484549Y-108300218D01*
X76428187Y-108151605D01*
X76337898Y-108020799D01*
X76337895Y-108020796D01*
X76337894Y-108020795D01*
X76218931Y-107915402D01*
X76218930Y-107915401D01*
X76078195Y-107841538D01*
X76078194Y-107841537D01*
X76078193Y-107841537D01*
X75999947Y-107822251D01*
X75923873Y-107803500D01*
X75923871Y-107803500D01*
X75764929Y-107803500D01*
X75764926Y-107803500D01*
X75650815Y-107831626D01*
X75610607Y-107841537D01*
X75610606Y-107841537D01*
X75610604Y-107841538D01*
X75469869Y-107915401D01*
X75469868Y-107915402D01*
X75350905Y-108020795D01*
X75350904Y-108020796D01*
X75260612Y-108151606D01*
X75204251Y-108300218D01*
X75185093Y-108458000D01*
X56665037Y-108458000D01*
X56589738Y-108361256D01*
X56589736Y-108361254D01*
X56589733Y-108361250D01*
X56406788Y-108192839D01*
X56406785Y-108192836D01*
X56198612Y-108056830D01*
X56198610Y-108056829D01*
X56198607Y-108056827D01*
X55970881Y-107956937D01*
X55806864Y-107915402D01*
X55729814Y-107895890D01*
X55563478Y-107882108D01*
X55544067Y-107880500D01*
X55419933Y-107880500D01*
X55401485Y-107882028D01*
X55234185Y-107895890D01*
X54993118Y-107956937D01*
X54877847Y-108007500D01*
X54765393Y-108056827D01*
X54765391Y-108056828D01*
X54765387Y-108056830D01*
X54557214Y-108192836D01*
X54557211Y-108192839D01*
X54374266Y-108361250D01*
X54221521Y-108557498D01*
X54103172Y-108776189D01*
X54103171Y-108776190D01*
X54022429Y-109011386D01*
X53981500Y-109256659D01*
X53981500Y-109505340D01*
X52782500Y-109505340D01*
X52782500Y-107171297D01*
X52782931Y-107164725D01*
X52796087Y-107064793D01*
X52802884Y-107039425D01*
X52825415Y-106985031D01*
X52837656Y-106955479D01*
X52850778Y-106932750D01*
X52906099Y-106860655D01*
X52924655Y-106842099D01*
X52996750Y-106786778D01*
X53019479Y-106773656D01*
X53103427Y-106738883D01*
X53128791Y-106732087D01*
X53228726Y-106718930D01*
X53235298Y-106718500D01*
X53248408Y-106718500D01*
X84734473Y-106718500D01*
X84793604Y-106737713D01*
G37*
G04 #@! TD.AperFunction*
M02*
