G04 #@! TF.GenerationSoftware,KiCad,Pcbnew,7.0.7*
G04 #@! TF.CreationDate,2023-09-22T23:03:23+02:00*
G04 #@! TF.ProjectId,ithowifi_4l,6974686f-7769-4666-995f-346c2e6b6963,rev?*
G04 #@! TF.SameCoordinates,Original*
G04 #@! TF.FileFunction,Copper,L4,Bot*
G04 #@! TF.FilePolarity,Positive*
%FSLAX46Y46*%
G04 Gerber Fmt 4.6, Leading zero omitted, Abs format (unit mm)*
G04 Created by KiCad (PCBNEW 7.0.7) date 2023-09-22 23:03:23*
%MOMM*%
%LPD*%
G01*
G04 APERTURE LIST*
G04 #@! TA.AperFunction,ComponentPad*
%ADD10R,1.700000X1.700000*%
G04 #@! TD*
G04 #@! TA.AperFunction,ComponentPad*
%ADD11O,1.700000X1.700000*%
G04 #@! TD*
G04 #@! TA.AperFunction,ComponentPad*
%ADD12C,2.000000*%
G04 #@! TD*
G04 #@! TA.AperFunction,SMDPad,CuDef*
%ADD13R,1.500000X5.080000*%
G04 #@! TD*
G04 #@! TA.AperFunction,SMDPad,CuDef*
%ADD14O,1.300000X1.750000*%
G04 #@! TD*
G04 #@! TA.AperFunction,SMDPad,CuDef*
%ADD15C,1.750000*%
G04 #@! TD*
G04 #@! TA.AperFunction,ViaPad*
%ADD16C,0.800000*%
G04 #@! TD*
G04 #@! TA.AperFunction,Conductor*
%ADD17C,0.406400*%
G04 #@! TD*
G04 #@! TA.AperFunction,Conductor*
%ADD18C,0.250000*%
G04 #@! TD*
G04 #@! TA.AperFunction,Conductor*
%ADD19C,0.254000*%
G04 #@! TD*
G04 #@! TA.AperFunction,Conductor*
%ADD20C,0.293370*%
G04 #@! TD*
G04 #@! TA.AperFunction,Conductor*
%ADD21C,0.370840*%
G04 #@! TD*
G04 APERTURE END LIST*
D10*
X85725000Y-107797600D03*
D11*
X85725000Y-110337600D03*
X85725000Y-112877600D03*
X85725000Y-115417600D03*
X85725000Y-117957600D03*
X85725000Y-120497600D03*
X85725000Y-123037600D03*
D10*
X111292000Y-151928000D03*
D11*
X113832000Y-151928000D03*
X111292000Y-154468000D03*
X113832000Y-154468000D03*
D12*
X105182180Y-109251460D03*
D10*
X122047000Y-137795000D03*
D11*
X119507000Y-137795000D03*
X122047000Y-135255000D03*
X119507000Y-135255000D03*
X122047000Y-132715000D03*
X119507000Y-132715000D03*
X122047000Y-130175000D03*
X119507000Y-130175000D03*
D13*
X105181400Y-107848400D03*
X100931400Y-107848400D03*
X109431400Y-107848400D03*
D14*
X113172000Y-131039000D03*
X111172000Y-131039000D03*
X109172000Y-131039000D03*
X107172000Y-131039000D03*
X105172000Y-131039000D03*
X103172000Y-131039000D03*
X101172000Y-131039000D03*
X99172000Y-131039000D03*
D15*
X102672000Y-112039000D03*
X105172000Y-112039000D03*
X107672000Y-112039000D03*
D16*
X109220000Y-112014000D03*
X99187000Y-107442000D03*
X99187000Y-105918000D03*
X101092000Y-112014000D03*
X99187000Y-110871000D03*
X99187000Y-112522000D03*
X99187000Y-109093000D03*
X111125000Y-110871000D03*
X111125000Y-114173000D03*
X111125000Y-112522000D03*
X105918000Y-114173000D03*
X109220000Y-114173000D03*
X102489000Y-114173000D03*
X104140000Y-114173000D03*
X100965000Y-114173000D03*
X107569000Y-114173000D03*
X99187000Y-114173000D03*
X102432000Y-138568000D03*
X111632000Y-124053600D03*
X112732000Y-124053600D03*
X110532000Y-124053600D03*
X86741000Y-128270000D03*
X111125000Y-105918000D03*
X111125000Y-107442000D03*
X111125000Y-109093000D03*
X101727000Y-132715000D03*
X113792000Y-143764000D03*
X96647000Y-139750800D03*
X106172000Y-148590000D03*
X89154000Y-148590000D03*
X96647000Y-142798800D03*
X98171000Y-142798800D03*
X114681000Y-144780000D03*
X113792000Y-145796000D03*
X95148400Y-142798800D03*
X96647000Y-141274800D03*
X95148400Y-141274800D03*
X95148400Y-139750800D03*
X98171000Y-139750800D03*
X98171000Y-141274800D03*
X122682000Y-127698500D03*
X118618000Y-127698500D03*
X106172000Y-147320000D03*
X111632000Y-134268000D03*
X112732000Y-134268000D03*
X110532000Y-134268000D03*
X122682000Y-119761000D03*
X108631500Y-148751000D03*
X112395000Y-118872000D03*
X98552000Y-123317000D03*
X93726000Y-123317000D03*
X104902000Y-126492000D03*
X114681000Y-147320000D03*
X120813090Y-116686900D03*
X120532000Y-120468000D03*
X89407998Y-115671600D03*
X89309400Y-147345400D03*
X95504000Y-133668000D03*
X89154000Y-138430000D03*
X89662000Y-136397998D03*
X89281000Y-133350000D03*
X85039200Y-143560804D03*
X84531209Y-144805391D03*
X106849400Y-137185400D03*
X115232000Y-121538998D03*
X108174600Y-139725400D03*
X116697000Y-120539000D03*
X103378008Y-121920000D03*
X109132000Y-127668006D03*
X91524600Y-129294600D03*
D17*
X101117000Y-112039000D02*
X101092000Y-112014000D01*
D18*
X109431400Y-107848400D02*
X110718600Y-107848400D01*
X100931400Y-107848400D02*
X99593400Y-107848400D01*
X110718600Y-107848400D02*
X111125000Y-107442000D01*
D17*
X107672000Y-112039000D02*
X109195000Y-112039000D01*
D18*
X99593400Y-107848400D02*
X99187000Y-107442000D01*
D17*
X102672000Y-112039000D02*
X101117000Y-112039000D01*
X109195000Y-112039000D02*
X109220000Y-112014000D01*
D19*
X122682000Y-127698500D02*
X118618000Y-127698500D01*
D17*
X113172000Y-131039000D02*
X113172000Y-133828000D01*
X113172000Y-133828000D02*
X112732000Y-134268000D01*
D19*
X86829000Y-107797600D02*
X89407998Y-110376598D01*
X89407998Y-110376598D02*
X89407998Y-115671600D01*
X85725000Y-107797600D02*
X86829000Y-107797600D01*
X109172000Y-131039000D02*
X109172000Y-133398000D01*
X94918000Y-135968000D02*
X89309400Y-141576600D01*
X106602000Y-135968000D02*
X94918000Y-135968000D01*
X109172000Y-133398000D02*
X106602000Y-135968000D01*
X89309400Y-141576600D02*
X89309400Y-147345400D01*
X105172000Y-132168000D02*
X103672000Y-133668000D01*
X105172000Y-131039000D02*
X105172000Y-132168000D01*
X103672000Y-133668000D02*
X95504000Y-133668000D01*
X107172000Y-131039000D02*
X107172000Y-132985000D01*
X93378000Y-134968000D02*
X89916000Y-138430000D01*
X107172000Y-132985000D02*
X105189000Y-134968000D01*
X105189000Y-134968000D02*
X93378000Y-134968000D01*
X89916000Y-138430000D02*
X89154000Y-138430000D01*
X99172000Y-131039000D02*
X95020998Y-131039000D01*
X95020998Y-131039000D02*
X89662000Y-136397998D01*
X103172000Y-131039000D02*
X103172000Y-129932500D01*
X102525500Y-129286000D02*
X93345000Y-129286000D01*
X103172000Y-129932500D02*
X102525500Y-129286000D01*
X93345000Y-129286000D02*
X89281000Y-133350000D01*
D18*
X84498611Y-114103989D02*
X84498611Y-143020215D01*
X85725000Y-112877600D02*
X84498611Y-114103989D01*
X85039200Y-143560804D02*
X84498611Y-143020215D01*
X85725000Y-110337600D02*
X84048600Y-112014000D01*
X84048600Y-144322782D02*
X84531209Y-144805391D01*
X84048600Y-112014000D02*
X84048600Y-144322782D01*
D19*
X109932000Y-153108000D02*
X109932000Y-143968000D01*
X106849400Y-137185400D02*
X111614600Y-137185400D01*
X111614600Y-137185400D02*
X115232000Y-133568000D01*
X109932000Y-143968000D02*
X106849400Y-140885400D01*
X106849400Y-140885400D02*
X106849400Y-137185400D01*
X115232000Y-133568000D02*
X115232000Y-121538998D01*
X111292000Y-154468000D02*
X109932000Y-153108000D01*
X111292000Y-143428000D02*
X108174600Y-140310600D01*
X108174600Y-140310600D02*
X108174600Y-139725400D01*
X116697000Y-133503000D02*
X110474600Y-139725400D01*
X116697000Y-120539000D02*
X116697000Y-133503000D01*
X110474600Y-139725400D02*
X108174600Y-139725400D01*
X111292000Y-151928000D02*
X111292000Y-143428000D01*
X109132000Y-127668006D02*
X103383994Y-121920000D01*
X103383994Y-121920000D02*
X103378008Y-121920000D01*
D18*
X91524600Y-123579600D02*
X91524600Y-129294600D01*
X90982600Y-123037600D02*
X91524600Y-123579600D01*
X85725000Y-123037600D02*
X90982600Y-123037600D01*
D20*
X105172000Y-107857800D02*
X105181400Y-107848400D01*
D21*
X105172000Y-112039000D02*
X105172000Y-107857800D01*
G04 #@! TA.AperFunction,Conductor*
G36*
X123493838Y-105029108D02*
G01*
X123561676Y-105033553D01*
X123583172Y-105034962D01*
X123589680Y-105035818D01*
X123833332Y-105084284D01*
X123839681Y-105085985D01*
X124074917Y-105165836D01*
X124080996Y-105168355D01*
X124303789Y-105278223D01*
X124309493Y-105281516D01*
X124516040Y-105419527D01*
X124521253Y-105423527D01*
X124708023Y-105587318D01*
X124712679Y-105591974D01*
X124876471Y-105778744D01*
X124880472Y-105783959D01*
X125018483Y-105990506D01*
X125021776Y-105996210D01*
X125131644Y-106219003D01*
X125134165Y-106225088D01*
X125214011Y-106460306D01*
X125215715Y-106466668D01*
X125264177Y-106710299D01*
X125265037Y-106716829D01*
X125281391Y-106966360D01*
X125281499Y-106969651D01*
X125281500Y-149451592D01*
X125281500Y-149464702D01*
X125281069Y-149471275D01*
X125267912Y-149571207D01*
X125261119Y-149596564D01*
X125257258Y-149605888D01*
X125216884Y-149653170D01*
X125164312Y-149668000D01*
X115832000Y-149668000D01*
X115832000Y-150214526D01*
X115822038Y-150258173D01*
X115809105Y-150285030D01*
X115781500Y-150405972D01*
X115781500Y-150457955D01*
X115781499Y-155964709D01*
X115781068Y-155971282D01*
X115767912Y-156071207D01*
X115761115Y-156096574D01*
X115726347Y-156180512D01*
X115713216Y-156203256D01*
X115657906Y-156275337D01*
X115639337Y-156293906D01*
X115567256Y-156349216D01*
X115544512Y-156362347D01*
X115460574Y-156397115D01*
X115435207Y-156403912D01*
X115350910Y-156415010D01*
X115335272Y-156417069D01*
X115328702Y-156417500D01*
X112732600Y-156417500D01*
X112673469Y-156398287D01*
X112636924Y-156347987D01*
X112632000Y-156316900D01*
X112632000Y-155076557D01*
X112651213Y-155017426D01*
X112701513Y-154980881D01*
X112763687Y-154980881D01*
X112813987Y-155017426D01*
X112822653Y-155031716D01*
X112845958Y-155078519D01*
X112845961Y-155078523D01*
X112974937Y-155249317D01*
X113133086Y-155393490D01*
X113133095Y-155393496D01*
X113315055Y-155506162D01*
X113315059Y-155506164D01*
X113514619Y-155583473D01*
X113704999Y-155619062D01*
X113705000Y-155619062D01*
X113705000Y-155068600D01*
X113724213Y-155009469D01*
X113774513Y-154972924D01*
X113805600Y-154968000D01*
X113858400Y-154968000D01*
X113917531Y-154987213D01*
X113954076Y-155037513D01*
X113959000Y-155068600D01*
X113959000Y-155619062D01*
X114149380Y-155583473D01*
X114348940Y-155506164D01*
X114348944Y-155506162D01*
X114530904Y-155393496D01*
X114530913Y-155393490D01*
X114689062Y-155249317D01*
X114818038Y-155078523D01*
X114818039Y-155078523D01*
X114913430Y-154886952D01*
X114913431Y-154886951D01*
X114972000Y-154681098D01*
X114979979Y-154595000D01*
X114432600Y-154595000D01*
X114373469Y-154575787D01*
X114336924Y-154525487D01*
X114332000Y-154494400D01*
X114332000Y-154441600D01*
X114351213Y-154382469D01*
X114401513Y-154345924D01*
X114432600Y-154341000D01*
X114979979Y-154341000D01*
X114979979Y-154340999D01*
X114972000Y-154254901D01*
X114913431Y-154049048D01*
X114913430Y-154049047D01*
X114818039Y-153857476D01*
X114689062Y-153686682D01*
X114530913Y-153542509D01*
X114530904Y-153542503D01*
X114348944Y-153429837D01*
X114348940Y-153429835D01*
X114149381Y-153352526D01*
X113959000Y-153316937D01*
X113959000Y-153867400D01*
X113939787Y-153926531D01*
X113889487Y-153963076D01*
X113858400Y-153968000D01*
X113805600Y-153968000D01*
X113746469Y-153948787D01*
X113709924Y-153898487D01*
X113705000Y-153867400D01*
X113704999Y-153316937D01*
X113514618Y-153352526D01*
X113315059Y-153429835D01*
X113315055Y-153429837D01*
X113133095Y-153542503D01*
X113133086Y-153542509D01*
X112974937Y-153686682D01*
X112845961Y-153857476D01*
X112845960Y-153857476D01*
X112822653Y-153904284D01*
X112779097Y-153948652D01*
X112717781Y-153958945D01*
X112662125Y-153931231D01*
X112633388Y-153876096D01*
X112632000Y-153859442D01*
X112632000Y-152423712D01*
X112651213Y-152364581D01*
X112701513Y-152328036D01*
X112763687Y-152328036D01*
X112813987Y-152364581D01*
X112822653Y-152378870D01*
X112888909Y-152511930D01*
X112888910Y-152511931D01*
X112888912Y-152511935D01*
X113012268Y-152675285D01*
X113163528Y-152813178D01*
X113163532Y-152813181D01*
X113163538Y-152813186D01*
X113337573Y-152920944D01*
X113528444Y-152994888D01*
X113577824Y-153004118D01*
X113729651Y-153032500D01*
X113729653Y-153032500D01*
X113934348Y-153032500D01*
X114013339Y-153017734D01*
X114135556Y-152994888D01*
X114326427Y-152920944D01*
X114500462Y-152813186D01*
X114651732Y-152675285D01*
X114775088Y-152511935D01*
X114866328Y-152328701D01*
X114922345Y-152131821D01*
X114941232Y-151928000D01*
X114922345Y-151724179D01*
X114866328Y-151527299D01*
X114775088Y-151344065D01*
X114651732Y-151180715D01*
X114651731Y-151180714D01*
X114500471Y-151042821D01*
X114500466Y-151042817D01*
X114500462Y-151042814D01*
X114326427Y-150935056D01*
X114326423Y-150935054D01*
X114135554Y-150861111D01*
X114135549Y-150861110D01*
X113934349Y-150823500D01*
X113934347Y-150823500D01*
X113729653Y-150823500D01*
X113729651Y-150823500D01*
X113528450Y-150861110D01*
X113528445Y-150861111D01*
X113337576Y-150935054D01*
X113337572Y-150935056D01*
X113267087Y-150978699D01*
X113163538Y-151042814D01*
X113163536Y-151042815D01*
X113163537Y-151042815D01*
X113163528Y-151042821D01*
X113012268Y-151180714D01*
X112888910Y-151344068D01*
X112888909Y-151344069D01*
X112822653Y-151477129D01*
X112779097Y-151521497D01*
X112717781Y-151531790D01*
X112662125Y-151504076D01*
X112633388Y-151448941D01*
X112632000Y-151432287D01*
X112632000Y-149668000D01*
X111774100Y-149668000D01*
X111714969Y-149648787D01*
X111678424Y-149598487D01*
X111673500Y-149567400D01*
X111673500Y-147320000D01*
X114021693Y-147320000D01*
X114040851Y-147477782D01*
X114097213Y-147626395D01*
X114187502Y-147757201D01*
X114187503Y-147757202D01*
X114187504Y-147757203D01*
X114187505Y-147757204D01*
X114306468Y-147862597D01*
X114306469Y-147862598D01*
X114306471Y-147862599D01*
X114447207Y-147936463D01*
X114601529Y-147974500D01*
X114601533Y-147974500D01*
X114760467Y-147974500D01*
X114760471Y-147974500D01*
X114914793Y-147936463D01*
X115055529Y-147862599D01*
X115174498Y-147757201D01*
X115264787Y-147626395D01*
X115321149Y-147477782D01*
X115340307Y-147320000D01*
X115321149Y-147162218D01*
X115264787Y-147013605D01*
X115174498Y-146882799D01*
X115174495Y-146882796D01*
X115174494Y-146882795D01*
X115055531Y-146777402D01*
X115055530Y-146777401D01*
X114914795Y-146703538D01*
X114914794Y-146703537D01*
X114914793Y-146703537D01*
X114836546Y-146684251D01*
X114760473Y-146665500D01*
X114760471Y-146665500D01*
X114601529Y-146665500D01*
X114601526Y-146665500D01*
X114487415Y-146693626D01*
X114447207Y-146703537D01*
X114447206Y-146703537D01*
X114447204Y-146703538D01*
X114306469Y-146777401D01*
X114306468Y-146777402D01*
X114187505Y-146882795D01*
X114187504Y-146882796D01*
X114097212Y-147013606D01*
X114040850Y-147162218D01*
X114040851Y-147162218D01*
X114021693Y-147320000D01*
X111673500Y-147320000D01*
X111673500Y-143478001D01*
X111675641Y-143457354D01*
X111678445Y-143443981D01*
X111673887Y-143407417D01*
X111673500Y-143401188D01*
X111673500Y-143396391D01*
X111673499Y-143396379D01*
X111669596Y-143372997D01*
X111662696Y-143317643D01*
X111662696Y-143317639D01*
X111662692Y-143317632D01*
X111660413Y-143309975D01*
X111657816Y-143302408D01*
X111631839Y-143254410D01*
X111631272Y-143253362D01*
X111606776Y-143203254D01*
X111602121Y-143196734D01*
X111597219Y-143190436D01*
X111575915Y-143170825D01*
X111556180Y-143152658D01*
X108685735Y-140282213D01*
X108657511Y-140226818D01*
X108667237Y-140165410D01*
X108674089Y-140153921D01*
X108675280Y-140152195D01*
X108676566Y-140150334D01*
X108725977Y-140112595D01*
X108759345Y-140106900D01*
X110424599Y-140106900D01*
X110445243Y-140109040D01*
X110458617Y-140111845D01*
X110495182Y-140107286D01*
X110501411Y-140106900D01*
X110506209Y-140106900D01*
X110506211Y-140106900D01*
X110506213Y-140106899D01*
X110506220Y-140106899D01*
X110523768Y-140103969D01*
X110529604Y-140102996D01*
X110584960Y-140096096D01*
X110584966Y-140096092D01*
X110592612Y-140093817D01*
X110600180Y-140091218D01*
X110600186Y-140091218D01*
X110649241Y-140064670D01*
X110699346Y-140040176D01*
X110699349Y-140040172D01*
X110705860Y-140035523D01*
X110712155Y-140030623D01*
X110712162Y-140030620D01*
X110749941Y-139989580D01*
X112944522Y-137794999D01*
X118397768Y-137794999D01*
X118416654Y-137998816D01*
X118416654Y-137998817D01*
X118472672Y-138195703D01*
X118472673Y-138195704D01*
X118563909Y-138378930D01*
X118563910Y-138378931D01*
X118563912Y-138378935D01*
X118687268Y-138542285D01*
X118838528Y-138680178D01*
X118838532Y-138680181D01*
X118838538Y-138680186D01*
X119012573Y-138787944D01*
X119203444Y-138861888D01*
X119252824Y-138871118D01*
X119404651Y-138899500D01*
X119404653Y-138899500D01*
X119609348Y-138899500D01*
X119688350Y-138884732D01*
X119810556Y-138861888D01*
X120001427Y-138787944D01*
X120175462Y-138680186D01*
X120186564Y-138670065D01*
X120942500Y-138670065D01*
X120957266Y-138744301D01*
X120957267Y-138744304D01*
X121013514Y-138828482D01*
X121013515Y-138828483D01*
X121013516Y-138828484D01*
X121097699Y-138884734D01*
X121171933Y-138899500D01*
X122922066Y-138899499D01*
X122996301Y-138884734D01*
X123080484Y-138828484D01*
X123136734Y-138744301D01*
X123151500Y-138670067D01*
X123151499Y-136919934D01*
X123136734Y-136845699D01*
X123136732Y-136845697D01*
X123136732Y-136845695D01*
X123080485Y-136761517D01*
X123080483Y-136761515D01*
X123030492Y-136728112D01*
X122996301Y-136705266D01*
X122996300Y-136705265D01*
X122996299Y-136705265D01*
X122940498Y-136694166D01*
X122922067Y-136690500D01*
X122922066Y-136690500D01*
X121171934Y-136690500D01*
X121097698Y-136705266D01*
X121097695Y-136705267D01*
X121013517Y-136761514D01*
X121013515Y-136761516D01*
X120957265Y-136845700D01*
X120942500Y-136919933D01*
X120942500Y-138670065D01*
X120186564Y-138670065D01*
X120326732Y-138542285D01*
X120450088Y-138378935D01*
X120541328Y-138195701D01*
X120597345Y-137998821D01*
X120616232Y-137795000D01*
X120597345Y-137591179D01*
X120541328Y-137394299D01*
X120450088Y-137211065D01*
X120326732Y-137047715D01*
X120304687Y-137027618D01*
X120175471Y-136909821D01*
X120175466Y-136909817D01*
X120175462Y-136909814D01*
X120001427Y-136802056D01*
X120001423Y-136802054D01*
X119810554Y-136728111D01*
X119810549Y-136728110D01*
X119609349Y-136690500D01*
X119609347Y-136690500D01*
X119404653Y-136690500D01*
X119404651Y-136690500D01*
X119203450Y-136728110D01*
X119203445Y-136728111D01*
X119012576Y-136802054D01*
X119012572Y-136802056D01*
X118904814Y-136868777D01*
X118838538Y-136909814D01*
X118838536Y-136909815D01*
X118838537Y-136909815D01*
X118838528Y-136909821D01*
X118687268Y-137047714D01*
X118563910Y-137211068D01*
X118563909Y-137211069D01*
X118472673Y-137394295D01*
X118472672Y-137394296D01*
X118416654Y-137591182D01*
X118416654Y-137591183D01*
X118397768Y-137794999D01*
X112944522Y-137794999D01*
X115484520Y-135255000D01*
X118397768Y-135255000D01*
X118416654Y-135458816D01*
X118416654Y-135458817D01*
X118472672Y-135655703D01*
X118472673Y-135655704D01*
X118563909Y-135838930D01*
X118563910Y-135838931D01*
X118563912Y-135838935D01*
X118655935Y-135960793D01*
X118687268Y-136002285D01*
X118838528Y-136140178D01*
X118838532Y-136140181D01*
X118838538Y-136140186D01*
X119012573Y-136247944D01*
X119203444Y-136321888D01*
X119252824Y-136331118D01*
X119404651Y-136359500D01*
X119404653Y-136359500D01*
X119609348Y-136359500D01*
X119714691Y-136339808D01*
X119810556Y-136321888D01*
X120001427Y-136247944D01*
X120175462Y-136140186D01*
X120326732Y-136002285D01*
X120450088Y-135838935D01*
X120541328Y-135655701D01*
X120597345Y-135458821D01*
X120616232Y-135255000D01*
X120616232Y-135254999D01*
X120937768Y-135254999D01*
X120956654Y-135458816D01*
X120956654Y-135458817D01*
X121012672Y-135655703D01*
X121012673Y-135655704D01*
X121103909Y-135838930D01*
X121103910Y-135838931D01*
X121103912Y-135838935D01*
X121195935Y-135960793D01*
X121227268Y-136002285D01*
X121378528Y-136140178D01*
X121378532Y-136140181D01*
X121378538Y-136140186D01*
X121552573Y-136247944D01*
X121743444Y-136321888D01*
X121792824Y-136331118D01*
X121944651Y-136359500D01*
X121944653Y-136359500D01*
X122149348Y-136359500D01*
X122254691Y-136339808D01*
X122350556Y-136321888D01*
X122541427Y-136247944D01*
X122715462Y-136140186D01*
X122866732Y-136002285D01*
X122990088Y-135838935D01*
X123081328Y-135655701D01*
X123137345Y-135458821D01*
X123156232Y-135255000D01*
X123137345Y-135051179D01*
X123081328Y-134854299D01*
X122990088Y-134671065D01*
X122866732Y-134507715D01*
X122866731Y-134507714D01*
X122715471Y-134369821D01*
X122715466Y-134369817D01*
X122715462Y-134369814D01*
X122541427Y-134262056D01*
X122541423Y-134262054D01*
X122350554Y-134188111D01*
X122350549Y-134188110D01*
X122149349Y-134150500D01*
X122149347Y-134150500D01*
X121944653Y-134150500D01*
X121944651Y-134150500D01*
X121743450Y-134188110D01*
X121743445Y-134188111D01*
X121552576Y-134262054D01*
X121552572Y-134262056D01*
X121454954Y-134322499D01*
X121378538Y-134369814D01*
X121378536Y-134369815D01*
X121378537Y-134369815D01*
X121378528Y-134369821D01*
X121227268Y-134507714D01*
X121156934Y-134600852D01*
X121117387Y-134653222D01*
X121103910Y-134671068D01*
X121103909Y-134671069D01*
X121012673Y-134854295D01*
X121012672Y-134854296D01*
X120956654Y-135051182D01*
X120956654Y-135051183D01*
X120937768Y-135254999D01*
X120616232Y-135254999D01*
X120597345Y-135051179D01*
X120541328Y-134854299D01*
X120450088Y-134671065D01*
X120326732Y-134507715D01*
X120326731Y-134507714D01*
X120175471Y-134369821D01*
X120175466Y-134369817D01*
X120175462Y-134369814D01*
X120001427Y-134262056D01*
X120001423Y-134262054D01*
X119810554Y-134188111D01*
X119810549Y-134188110D01*
X119609349Y-134150500D01*
X119609347Y-134150500D01*
X119404653Y-134150500D01*
X119404651Y-134150500D01*
X119203450Y-134188110D01*
X119203445Y-134188111D01*
X119012576Y-134262054D01*
X119012572Y-134262056D01*
X118914954Y-134322499D01*
X118838538Y-134369814D01*
X118838536Y-134369815D01*
X118838537Y-134369815D01*
X118838528Y-134369821D01*
X118687268Y-134507714D01*
X118616934Y-134600852D01*
X118577387Y-134653222D01*
X118563910Y-134671068D01*
X118563909Y-134671069D01*
X118472673Y-134854295D01*
X118472672Y-134854296D01*
X118416654Y-135051182D01*
X118416654Y-135051183D01*
X118397768Y-135255000D01*
X115484520Y-135255000D01*
X116931407Y-133808113D01*
X116947513Y-133795034D01*
X116958956Y-133787560D01*
X116981592Y-133758475D01*
X116985727Y-133753794D01*
X116989113Y-133750409D01*
X116989121Y-133750398D01*
X117002892Y-133731110D01*
X117034867Y-133690028D01*
X117037158Y-133687085D01*
X117037159Y-133687083D01*
X117040953Y-133680073D01*
X117044470Y-133672876D01*
X117044475Y-133672870D01*
X117060390Y-133619410D01*
X117078500Y-133566661D01*
X117078500Y-133566660D01*
X117079816Y-133558775D01*
X117080805Y-133550839D01*
X117078500Y-133495116D01*
X117078500Y-132714999D01*
X118397768Y-132714999D01*
X118416654Y-132918816D01*
X118416654Y-132918817D01*
X118472672Y-133115703D01*
X118472673Y-133115704D01*
X118563909Y-133298930D01*
X118563910Y-133298931D01*
X118563912Y-133298935D01*
X118632768Y-133390115D01*
X118687268Y-133462285D01*
X118838528Y-133600178D01*
X118838532Y-133600181D01*
X118838538Y-133600186D01*
X119012573Y-133707944D01*
X119203444Y-133781888D01*
X119233782Y-133787559D01*
X119404651Y-133819500D01*
X119404653Y-133819500D01*
X119609348Y-133819500D01*
X119709705Y-133800740D01*
X119810556Y-133781888D01*
X120001427Y-133707944D01*
X120175462Y-133600186D01*
X120326732Y-133462285D01*
X120450088Y-133298935D01*
X120541328Y-133115701D01*
X120597345Y-132918821D01*
X120616232Y-132715000D01*
X120604463Y-132587999D01*
X120899020Y-132587999D01*
X120899021Y-132588000D01*
X121446400Y-132588000D01*
X121505531Y-132607213D01*
X121542076Y-132657513D01*
X121547000Y-132688600D01*
X121547000Y-132741400D01*
X121527787Y-132800531D01*
X121477487Y-132837076D01*
X121446400Y-132842000D01*
X120899021Y-132842000D01*
X120906999Y-132928098D01*
X120965568Y-133133951D01*
X120965569Y-133133952D01*
X121060960Y-133325523D01*
X121189937Y-133496317D01*
X121348086Y-133640490D01*
X121348095Y-133640496D01*
X121530055Y-133753162D01*
X121530059Y-133753164D01*
X121729619Y-133830473D01*
X121919999Y-133866062D01*
X121920000Y-133866061D01*
X121920000Y-133315600D01*
X121939213Y-133256469D01*
X121989513Y-133219924D01*
X122020600Y-133215000D01*
X122073400Y-133215000D01*
X122132531Y-133234213D01*
X122169076Y-133284513D01*
X122174000Y-133315600D01*
X122174000Y-133866062D01*
X122364380Y-133830473D01*
X122563940Y-133753164D01*
X122563944Y-133753162D01*
X122745904Y-133640496D01*
X122745913Y-133640490D01*
X122904062Y-133496317D01*
X123033038Y-133325523D01*
X123033039Y-133325523D01*
X123128430Y-133133952D01*
X123128431Y-133133951D01*
X123187000Y-132928098D01*
X123194979Y-132842000D01*
X122647600Y-132842000D01*
X122588469Y-132822787D01*
X122551924Y-132772487D01*
X122547000Y-132741400D01*
X122547000Y-132688600D01*
X122566213Y-132629469D01*
X122616513Y-132592924D01*
X122647600Y-132588000D01*
X123194979Y-132588000D01*
X123194979Y-132587999D01*
X123187000Y-132501901D01*
X123128431Y-132296048D01*
X123128430Y-132296047D01*
X123033039Y-132104476D01*
X122904062Y-131933682D01*
X122745913Y-131789509D01*
X122745904Y-131789503D01*
X122563944Y-131676837D01*
X122563940Y-131676835D01*
X122364381Y-131599526D01*
X122173999Y-131563937D01*
X122174000Y-132114400D01*
X122154787Y-132173531D01*
X122104487Y-132210076D01*
X122073400Y-132215000D01*
X122020600Y-132215000D01*
X121961469Y-132195787D01*
X121924924Y-132145487D01*
X121920000Y-132114400D01*
X121920000Y-131563937D01*
X121729618Y-131599526D01*
X121530059Y-131676835D01*
X121530055Y-131676837D01*
X121348095Y-131789503D01*
X121348086Y-131789509D01*
X121189937Y-131933682D01*
X121060961Y-132104476D01*
X121060960Y-132104476D01*
X120965569Y-132296047D01*
X120965568Y-132296048D01*
X120906999Y-132501901D01*
X120899020Y-132587999D01*
X120604463Y-132587999D01*
X120597345Y-132511179D01*
X120541328Y-132314299D01*
X120450088Y-132131065D01*
X120326732Y-131967715D01*
X120317829Y-131959599D01*
X120175471Y-131829821D01*
X120175466Y-131829817D01*
X120175462Y-131829814D01*
X120001427Y-131722056D01*
X120001423Y-131722054D01*
X119810554Y-131648111D01*
X119810549Y-131648110D01*
X119609349Y-131610500D01*
X119609347Y-131610500D01*
X119404653Y-131610500D01*
X119404651Y-131610500D01*
X119203450Y-131648110D01*
X119203445Y-131648111D01*
X119012576Y-131722054D01*
X119012572Y-131722056D01*
X118904813Y-131788777D01*
X118838538Y-131829814D01*
X118838536Y-131829815D01*
X118838537Y-131829815D01*
X118838528Y-131829821D01*
X118687268Y-131967714D01*
X118610286Y-132069656D01*
X118581205Y-132108166D01*
X118563910Y-132131068D01*
X118563909Y-132131069D01*
X118472673Y-132314295D01*
X118472672Y-132314296D01*
X118416654Y-132511182D01*
X118416654Y-132511183D01*
X118397768Y-132714999D01*
X117078500Y-132714999D01*
X117078500Y-130174999D01*
X118397768Y-130174999D01*
X118416654Y-130378816D01*
X118416654Y-130378817D01*
X118472672Y-130575703D01*
X118472673Y-130575704D01*
X118563909Y-130758930D01*
X118563910Y-130758931D01*
X118563912Y-130758935D01*
X118687267Y-130922285D01*
X118687268Y-130922285D01*
X118838528Y-131060178D01*
X118838532Y-131060181D01*
X118838538Y-131060186D01*
X119012573Y-131167944D01*
X119203444Y-131241888D01*
X119252824Y-131251118D01*
X119404651Y-131279500D01*
X119404653Y-131279500D01*
X119609348Y-131279500D01*
X119685261Y-131265309D01*
X119810556Y-131241888D01*
X120001427Y-131167944D01*
X120175462Y-131060186D01*
X120326732Y-130922285D01*
X120450088Y-130758935D01*
X120541328Y-130575701D01*
X120597345Y-130378821D01*
X120616232Y-130175000D01*
X120937768Y-130175000D01*
X120956654Y-130378816D01*
X120956654Y-130378817D01*
X121012672Y-130575703D01*
X121012673Y-130575704D01*
X121103909Y-130758930D01*
X121103910Y-130758931D01*
X121103912Y-130758935D01*
X121227267Y-130922285D01*
X121227268Y-130922285D01*
X121378528Y-131060178D01*
X121378532Y-131060181D01*
X121378538Y-131060186D01*
X121552573Y-131167944D01*
X121743444Y-131241888D01*
X121792824Y-131251118D01*
X121944651Y-131279500D01*
X121944653Y-131279500D01*
X122149348Y-131279500D01*
X122225261Y-131265309D01*
X122350556Y-131241888D01*
X122541427Y-131167944D01*
X122715462Y-131060186D01*
X122866732Y-130922285D01*
X122990088Y-130758935D01*
X123081328Y-130575701D01*
X123137345Y-130378821D01*
X123156232Y-130175000D01*
X123137345Y-129971179D01*
X123081328Y-129774299D01*
X122990088Y-129591065D01*
X122866732Y-129427715D01*
X122866731Y-129427714D01*
X122715471Y-129289821D01*
X122715466Y-129289817D01*
X122715462Y-129289814D01*
X122541427Y-129182056D01*
X122541423Y-129182054D01*
X122350554Y-129108111D01*
X122350549Y-129108110D01*
X122149349Y-129070500D01*
X122149347Y-129070500D01*
X121944653Y-129070500D01*
X121944651Y-129070500D01*
X121743450Y-129108110D01*
X121743445Y-129108111D01*
X121552576Y-129182054D01*
X121552572Y-129182056D01*
X121444814Y-129248777D01*
X121378538Y-129289814D01*
X121378536Y-129289815D01*
X121378537Y-129289815D01*
X121378528Y-129289821D01*
X121227268Y-129427714D01*
X121103910Y-129591068D01*
X121103909Y-129591069D01*
X121012673Y-129774295D01*
X121012672Y-129774296D01*
X120956654Y-129971182D01*
X120956654Y-129971183D01*
X120937768Y-130175000D01*
X120616232Y-130175000D01*
X120597345Y-129971179D01*
X120541328Y-129774299D01*
X120450088Y-129591065D01*
X120326732Y-129427715D01*
X120326731Y-129427714D01*
X120175471Y-129289821D01*
X120175466Y-129289817D01*
X120175462Y-129289814D01*
X120001427Y-129182056D01*
X120001423Y-129182054D01*
X119810554Y-129108111D01*
X119810549Y-129108110D01*
X119609349Y-129070500D01*
X119609347Y-129070500D01*
X119404653Y-129070500D01*
X119404651Y-129070500D01*
X119203450Y-129108110D01*
X119203445Y-129108111D01*
X119012576Y-129182054D01*
X119012572Y-129182056D01*
X118904814Y-129248777D01*
X118838538Y-129289814D01*
X118838536Y-129289815D01*
X118838537Y-129289815D01*
X118838528Y-129289821D01*
X118687268Y-129427714D01*
X118563910Y-129591068D01*
X118563909Y-129591069D01*
X118472673Y-129774295D01*
X118472672Y-129774296D01*
X118416654Y-129971182D01*
X118416654Y-129971183D01*
X118397768Y-130174999D01*
X117078500Y-130174999D01*
X117078500Y-127698500D01*
X117958693Y-127698500D01*
X117977851Y-127856282D01*
X118034213Y-128004895D01*
X118124502Y-128135701D01*
X118124503Y-128135702D01*
X118124504Y-128135703D01*
X118124505Y-128135704D01*
X118243468Y-128241097D01*
X118243469Y-128241098D01*
X118243471Y-128241099D01*
X118384207Y-128314963D01*
X118538529Y-128353000D01*
X118538533Y-128353000D01*
X118697467Y-128353000D01*
X118697471Y-128353000D01*
X118851793Y-128314963D01*
X118992529Y-128241099D01*
X119111498Y-128135701D01*
X119111503Y-128135694D01*
X119119954Y-128123452D01*
X119169356Y-128085702D01*
X119202745Y-128080000D01*
X122097255Y-128080000D01*
X122156386Y-128099213D01*
X122180046Y-128123452D01*
X122188496Y-128135694D01*
X122188505Y-128135704D01*
X122307468Y-128241097D01*
X122307469Y-128241098D01*
X122307471Y-128241099D01*
X122448207Y-128314963D01*
X122602529Y-128353000D01*
X122602533Y-128353000D01*
X122761467Y-128353000D01*
X122761471Y-128353000D01*
X122915793Y-128314963D01*
X123056529Y-128241099D01*
X123175498Y-128135701D01*
X123265787Y-128004895D01*
X123322149Y-127856282D01*
X123341307Y-127698500D01*
X123322149Y-127540718D01*
X123265787Y-127392105D01*
X123175498Y-127261299D01*
X123175495Y-127261296D01*
X123175494Y-127261295D01*
X123056531Y-127155902D01*
X123056530Y-127155901D01*
X122915795Y-127082038D01*
X122915794Y-127082037D01*
X122915793Y-127082037D01*
X122837547Y-127062751D01*
X122761473Y-127044000D01*
X122761471Y-127044000D01*
X122602529Y-127044000D01*
X122602526Y-127044000D01*
X122488415Y-127072126D01*
X122448207Y-127082037D01*
X122448206Y-127082037D01*
X122448204Y-127082038D01*
X122307469Y-127155901D01*
X122307468Y-127155902D01*
X122188505Y-127261295D01*
X122188496Y-127261305D01*
X122180046Y-127273548D01*
X122130644Y-127311298D01*
X122097255Y-127317000D01*
X119202745Y-127317000D01*
X119143614Y-127297787D01*
X119119954Y-127273548D01*
X119111503Y-127261305D01*
X119111494Y-127261295D01*
X118992531Y-127155902D01*
X118992530Y-127155901D01*
X118851795Y-127082038D01*
X118851794Y-127082037D01*
X118851793Y-127082037D01*
X118773546Y-127062751D01*
X118697473Y-127044000D01*
X118697471Y-127044000D01*
X118538529Y-127044000D01*
X118538526Y-127044000D01*
X118424415Y-127072126D01*
X118384207Y-127082037D01*
X118384206Y-127082037D01*
X118384204Y-127082038D01*
X118243469Y-127155901D01*
X118243468Y-127155902D01*
X118124505Y-127261295D01*
X118124504Y-127261296D01*
X118034212Y-127392106D01*
X117989416Y-127510224D01*
X117977851Y-127540718D01*
X117958693Y-127698500D01*
X117078500Y-127698500D01*
X117078500Y-121120699D01*
X117097713Y-121061568D01*
X117112390Y-121045399D01*
X117151673Y-121010597D01*
X117190498Y-120976201D01*
X117280787Y-120845395D01*
X117337149Y-120696782D01*
X117356307Y-120539000D01*
X117347686Y-120468000D01*
X119872693Y-120468000D01*
X119891851Y-120625782D01*
X119948213Y-120774395D01*
X120038502Y-120905201D01*
X120038503Y-120905202D01*
X120038504Y-120905203D01*
X120038505Y-120905204D01*
X120157468Y-121010597D01*
X120157469Y-121010598D01*
X120157471Y-121010599D01*
X120298207Y-121084463D01*
X120452529Y-121122500D01*
X120452533Y-121122500D01*
X120611467Y-121122500D01*
X120611471Y-121122500D01*
X120765793Y-121084463D01*
X120906529Y-121010599D01*
X121025498Y-120905201D01*
X121115787Y-120774395D01*
X121172149Y-120625782D01*
X121191307Y-120468000D01*
X121172149Y-120310218D01*
X121115787Y-120161605D01*
X121025498Y-120030799D01*
X121025495Y-120030796D01*
X121025494Y-120030795D01*
X120906531Y-119925402D01*
X120906530Y-119925401D01*
X120765795Y-119851538D01*
X120765794Y-119851537D01*
X120765793Y-119851537D01*
X120687547Y-119832251D01*
X120611473Y-119813500D01*
X120611471Y-119813500D01*
X120452529Y-119813500D01*
X120452526Y-119813500D01*
X120338414Y-119841626D01*
X120298207Y-119851537D01*
X120298206Y-119851537D01*
X120298204Y-119851538D01*
X120157469Y-119925401D01*
X120157468Y-119925402D01*
X120038505Y-120030795D01*
X120038504Y-120030796D01*
X119948212Y-120161606D01*
X119901604Y-120284501D01*
X119891851Y-120310218D01*
X119872693Y-120468000D01*
X117347686Y-120468000D01*
X117337149Y-120381218D01*
X117280787Y-120232605D01*
X117190498Y-120101799D01*
X117190495Y-120101796D01*
X117190494Y-120101795D01*
X117071531Y-119996402D01*
X117071530Y-119996401D01*
X116930795Y-119922538D01*
X116930794Y-119922537D01*
X116930793Y-119922537D01*
X116852547Y-119903251D01*
X116776473Y-119884500D01*
X116776471Y-119884500D01*
X116617529Y-119884500D01*
X116617526Y-119884500D01*
X116503414Y-119912626D01*
X116463207Y-119922537D01*
X116463206Y-119922537D01*
X116463204Y-119922538D01*
X116322469Y-119996401D01*
X116322468Y-119996402D01*
X116203505Y-120101795D01*
X116203504Y-120101796D01*
X116113212Y-120232606D01*
X116086288Y-120303599D01*
X116056851Y-120381218D01*
X116037693Y-120539000D01*
X116056851Y-120696782D01*
X116113213Y-120845395D01*
X116203502Y-120976201D01*
X116274465Y-121039069D01*
X116281610Y-121045399D01*
X116313129Y-121098992D01*
X116315499Y-121120699D01*
X116315499Y-133303307D01*
X116296286Y-133362438D01*
X116286034Y-133374442D01*
X110346042Y-139314435D01*
X110290644Y-139342661D01*
X110274907Y-139343900D01*
X108759345Y-139343900D01*
X108700214Y-139324687D01*
X108676554Y-139300448D01*
X108668103Y-139288205D01*
X108668094Y-139288195D01*
X108549131Y-139182802D01*
X108549130Y-139182801D01*
X108408395Y-139108938D01*
X108408394Y-139108937D01*
X108408393Y-139108937D01*
X108330146Y-139089651D01*
X108254073Y-139070900D01*
X108254071Y-139070900D01*
X108095129Y-139070900D01*
X108095126Y-139070900D01*
X107981014Y-139099026D01*
X107940807Y-139108937D01*
X107940806Y-139108937D01*
X107940804Y-139108938D01*
X107800069Y-139182801D01*
X107800068Y-139182802D01*
X107681105Y-139288195D01*
X107681104Y-139288196D01*
X107590812Y-139419006D01*
X107534451Y-139567617D01*
X107534451Y-139567618D01*
X107515293Y-139725400D01*
X107534451Y-139883182D01*
X107590813Y-140031795D01*
X107681102Y-140162601D01*
X107681103Y-140162602D01*
X107681104Y-140162603D01*
X107681105Y-140162604D01*
X107754524Y-140227648D01*
X107786044Y-140281240D01*
X107787641Y-140290501D01*
X107792713Y-140331180D01*
X107793100Y-140337409D01*
X107793100Y-140342212D01*
X107797003Y-140365604D01*
X107803903Y-140420957D01*
X107806186Y-140428626D01*
X107808781Y-140436186D01*
X107835329Y-140485241D01*
X107859824Y-140535346D01*
X107864477Y-140541863D01*
X107869379Y-140548161D01*
X107869380Y-140548162D01*
X107910419Y-140585941D01*
X110881036Y-143556558D01*
X110909261Y-143611954D01*
X110910500Y-143627691D01*
X110910500Y-149567400D01*
X110891287Y-149626531D01*
X110840987Y-149663076D01*
X110809900Y-149668000D01*
X110414100Y-149668000D01*
X110354969Y-149648787D01*
X110318424Y-149598487D01*
X110313500Y-149567400D01*
X110313500Y-144018002D01*
X110315641Y-143997355D01*
X110318445Y-143983982D01*
X110313887Y-143947418D01*
X110313500Y-143941189D01*
X110313500Y-143936394D01*
X110313500Y-143936389D01*
X110309595Y-143912993D01*
X110302696Y-143857640D01*
X110302694Y-143857635D01*
X110300423Y-143850007D01*
X110297819Y-143842423D01*
X110297818Y-143842414D01*
X110271276Y-143793368D01*
X110246777Y-143743254D01*
X110246774Y-143743251D01*
X110242118Y-143736730D01*
X110237223Y-143730441D01*
X110196192Y-143692669D01*
X107260365Y-140756842D01*
X107232139Y-140701444D01*
X107230900Y-140685707D01*
X107230900Y-139288195D01*
X107230900Y-137767095D01*
X107250112Y-137707968D01*
X107264780Y-137691807D01*
X107342898Y-137622601D01*
X107342903Y-137622594D01*
X107351354Y-137610352D01*
X107400756Y-137572602D01*
X107434145Y-137566900D01*
X111564599Y-137566900D01*
X111585243Y-137569040D01*
X111598617Y-137571845D01*
X111635182Y-137567286D01*
X111641411Y-137566900D01*
X111646209Y-137566900D01*
X111646211Y-137566900D01*
X111646213Y-137566899D01*
X111646220Y-137566899D01*
X111663768Y-137563969D01*
X111669604Y-137562996D01*
X111724960Y-137556096D01*
X111724966Y-137556092D01*
X111732612Y-137553817D01*
X111740180Y-137551218D01*
X111740186Y-137551218D01*
X111789241Y-137524670D01*
X111839346Y-137500176D01*
X111839349Y-137500172D01*
X111845860Y-137495523D01*
X111852155Y-137490623D01*
X111852162Y-137490620D01*
X111889941Y-137449580D01*
X115466407Y-133873113D01*
X115482513Y-133860034D01*
X115493956Y-133852560D01*
X115516592Y-133823475D01*
X115520727Y-133818794D01*
X115524113Y-133815409D01*
X115524121Y-133815398D01*
X115537892Y-133796110D01*
X115559973Y-133767740D01*
X115572158Y-133752085D01*
X115572159Y-133752083D01*
X115575953Y-133745073D01*
X115579470Y-133737876D01*
X115579475Y-133737870D01*
X115595390Y-133684410D01*
X115613500Y-133631661D01*
X115613500Y-133631660D01*
X115614816Y-133623775D01*
X115615805Y-133615839D01*
X115613500Y-133560116D01*
X115613500Y-127856281D01*
X115613499Y-122120696D01*
X115632712Y-122061566D01*
X115647383Y-122045402D01*
X115725498Y-121976199D01*
X115815787Y-121845393D01*
X115872149Y-121696780D01*
X115891307Y-121538998D01*
X115872149Y-121381216D01*
X115815787Y-121232603D01*
X115725498Y-121101797D01*
X115725495Y-121101794D01*
X115725494Y-121101793D01*
X115606531Y-120996400D01*
X115606530Y-120996399D01*
X115465795Y-120922536D01*
X115465794Y-120922535D01*
X115465793Y-120922535D01*
X115387547Y-120903249D01*
X115311473Y-120884498D01*
X115311471Y-120884498D01*
X115152529Y-120884498D01*
X115152526Y-120884498D01*
X115038415Y-120912624D01*
X114998207Y-120922535D01*
X114998206Y-120922535D01*
X114998204Y-120922536D01*
X114857469Y-120996399D01*
X114857468Y-120996400D01*
X114738505Y-121101793D01*
X114738504Y-121101794D01*
X114648212Y-121232604D01*
X114593298Y-121377401D01*
X114591851Y-121381216D01*
X114572693Y-121538998D01*
X114591851Y-121696780D01*
X114648213Y-121845393D01*
X114738502Y-121976199D01*
X114738503Y-121976200D01*
X114738504Y-121976201D01*
X114738505Y-121976202D01*
X114816610Y-122045397D01*
X114848130Y-122098989D01*
X114850500Y-122120697D01*
X114850500Y-133368307D01*
X114831287Y-133427438D01*
X114821035Y-133439442D01*
X111486042Y-136774435D01*
X111430644Y-136802661D01*
X111414907Y-136803900D01*
X107434145Y-136803900D01*
X107375014Y-136784687D01*
X107351354Y-136760448D01*
X107342903Y-136748205D01*
X107342894Y-136748195D01*
X107223931Y-136642802D01*
X107223930Y-136642801D01*
X107083195Y-136568938D01*
X107083194Y-136568937D01*
X107083193Y-136568937D01*
X107004947Y-136549651D01*
X106928873Y-136530900D01*
X106928871Y-136530900D01*
X106769929Y-136530900D01*
X106769922Y-136530900D01*
X106764055Y-136531612D01*
X106758600Y-136530543D01*
X106747963Y-136536314D01*
X106615603Y-136568938D01*
X106474869Y-136642801D01*
X106474868Y-136642802D01*
X106355905Y-136748195D01*
X106355904Y-136748196D01*
X106265612Y-136879006D01*
X106242254Y-136940596D01*
X106209251Y-137027618D01*
X106190093Y-137185400D01*
X106209251Y-137343182D01*
X106265613Y-137491795D01*
X106355902Y-137622601D01*
X106355903Y-137622602D01*
X106355904Y-137622603D01*
X106355905Y-137622604D01*
X106434010Y-137691799D01*
X106465530Y-137745391D01*
X106467900Y-137767099D01*
X106467900Y-140835399D01*
X106465759Y-140856045D01*
X106462954Y-140869418D01*
X106467513Y-140905981D01*
X106467900Y-140912210D01*
X106467900Y-140917012D01*
X106471803Y-140940404D01*
X106478703Y-140995757D01*
X106480986Y-141003426D01*
X106483581Y-141010986D01*
X106510129Y-141060041D01*
X106534624Y-141110146D01*
X106539277Y-141116663D01*
X106544179Y-141122961D01*
X106544180Y-141122962D01*
X106585219Y-141160741D01*
X109521036Y-144096558D01*
X109549261Y-144151954D01*
X109550500Y-144167691D01*
X109550500Y-149567400D01*
X109531287Y-149626531D01*
X109480987Y-149663076D01*
X109449900Y-149668000D01*
X83183100Y-149668000D01*
X83123969Y-149648787D01*
X83087424Y-149598487D01*
X83082500Y-149567400D01*
X83082500Y-148751000D01*
X107972193Y-148751000D01*
X107991351Y-148908782D01*
X108047713Y-149057395D01*
X108138002Y-149188201D01*
X108138003Y-149188202D01*
X108138004Y-149188203D01*
X108138005Y-149188204D01*
X108256968Y-149293597D01*
X108256969Y-149293598D01*
X108256971Y-149293599D01*
X108397707Y-149367463D01*
X108552029Y-149405500D01*
X108552033Y-149405500D01*
X108710967Y-149405500D01*
X108710971Y-149405500D01*
X108865293Y-149367463D01*
X109006029Y-149293599D01*
X109124998Y-149188201D01*
X109215287Y-149057395D01*
X109271649Y-148908782D01*
X109290807Y-148751000D01*
X109271649Y-148593218D01*
X109215287Y-148444605D01*
X109124998Y-148313799D01*
X109124995Y-148313796D01*
X109124994Y-148313795D01*
X109006031Y-148208402D01*
X109006030Y-148208401D01*
X108865295Y-148134538D01*
X108865294Y-148134537D01*
X108865293Y-148134537D01*
X108787047Y-148115251D01*
X108710973Y-148096500D01*
X108710971Y-148096500D01*
X108552029Y-148096500D01*
X108552026Y-148096500D01*
X108437915Y-148124626D01*
X108397707Y-148134537D01*
X108397706Y-148134537D01*
X108397704Y-148134538D01*
X108256969Y-148208401D01*
X108256968Y-148208402D01*
X108138005Y-148313795D01*
X108138004Y-148313796D01*
X108047712Y-148444606D01*
X107991351Y-148593218D01*
X107972193Y-148751000D01*
X83082500Y-148751000D01*
X83082500Y-144306883D01*
X83664180Y-144306883D01*
X83668713Y-144343235D01*
X83669100Y-144349464D01*
X83669100Y-144354230D01*
X83672983Y-144377497D01*
X83679847Y-144432563D01*
X83682113Y-144440175D01*
X83684701Y-144447712D01*
X83711097Y-144496487D01*
X83735474Y-144546351D01*
X83740086Y-144552810D01*
X83744979Y-144559096D01*
X83785786Y-144596662D01*
X83850541Y-144661417D01*
X83878767Y-144716815D01*
X83879273Y-144744676D01*
X83871902Y-144805389D01*
X83871902Y-144805391D01*
X83891060Y-144963173D01*
X83947422Y-145111786D01*
X84037711Y-145242592D01*
X84037712Y-145242593D01*
X84037713Y-145242594D01*
X84037714Y-145242595D01*
X84156677Y-145347988D01*
X84156678Y-145347989D01*
X84156680Y-145347990D01*
X84297416Y-145421854D01*
X84451738Y-145459891D01*
X84451742Y-145459891D01*
X84610676Y-145459891D01*
X84610680Y-145459891D01*
X84765002Y-145421854D01*
X84905738Y-145347990D01*
X85024707Y-145242592D01*
X85114996Y-145111786D01*
X85171358Y-144963173D01*
X85190516Y-144805391D01*
X85171358Y-144647609D01*
X85114996Y-144498996D01*
X85028061Y-144373049D01*
X85010283Y-144313473D01*
X85030919Y-144254824D01*
X85082088Y-144219505D01*
X85110854Y-144215304D01*
X85118667Y-144215304D01*
X85118671Y-144215304D01*
X85272993Y-144177267D01*
X85413729Y-144103403D01*
X85532698Y-143998005D01*
X85622987Y-143867199D01*
X85679349Y-143718586D01*
X85698507Y-143560804D01*
X85679349Y-143403022D01*
X85622987Y-143254409D01*
X85532698Y-143123603D01*
X85532695Y-143123600D01*
X85532694Y-143123599D01*
X85413731Y-143018206D01*
X85413730Y-143018205D01*
X85272995Y-142944342D01*
X85272994Y-142944341D01*
X85272993Y-142944341D01*
X85194747Y-142925055D01*
X85118673Y-142906304D01*
X85118671Y-142906304D01*
X84978711Y-142906304D01*
X84919580Y-142887091D01*
X84883035Y-142836791D01*
X84878111Y-142805704D01*
X84878111Y-138430000D01*
X88494693Y-138430000D01*
X88513851Y-138587782D01*
X88545058Y-138670067D01*
X88548892Y-138680178D01*
X88570213Y-138736395D01*
X88660502Y-138867201D01*
X88660503Y-138867202D01*
X88660504Y-138867203D01*
X88660505Y-138867204D01*
X88779468Y-138972597D01*
X88779469Y-138972598D01*
X88779471Y-138972599D01*
X88920207Y-139046463D01*
X89074529Y-139084500D01*
X89074533Y-139084500D01*
X89233467Y-139084500D01*
X89233471Y-139084500D01*
X89387793Y-139046463D01*
X89528529Y-138972599D01*
X89647498Y-138867201D01*
X89651165Y-138861889D01*
X89655954Y-138854952D01*
X89705356Y-138817202D01*
X89738745Y-138811500D01*
X89865999Y-138811500D01*
X89886643Y-138813640D01*
X89900017Y-138816445D01*
X89936582Y-138811886D01*
X89942811Y-138811500D01*
X89947609Y-138811500D01*
X89947611Y-138811500D01*
X89947613Y-138811499D01*
X89947620Y-138811499D01*
X89965168Y-138808569D01*
X89971004Y-138807596D01*
X90026360Y-138800696D01*
X90026366Y-138800692D01*
X90034012Y-138798417D01*
X90041580Y-138795818D01*
X90041586Y-138795818D01*
X90090641Y-138769270D01*
X90140746Y-138744776D01*
X90140749Y-138744772D01*
X90147260Y-138740123D01*
X90153555Y-138735223D01*
X90153562Y-138735220D01*
X90191341Y-138694180D01*
X91837807Y-137047714D01*
X93506557Y-135378965D01*
X93561955Y-135350739D01*
X93577692Y-135349500D01*
X105138999Y-135349500D01*
X105159643Y-135351640D01*
X105173017Y-135354445D01*
X105209582Y-135349886D01*
X105215811Y-135349500D01*
X105220609Y-135349500D01*
X105220611Y-135349500D01*
X105220613Y-135349499D01*
X105220620Y-135349499D01*
X105238168Y-135346569D01*
X105244004Y-135345596D01*
X105299360Y-135338696D01*
X105299366Y-135338692D01*
X105307012Y-135336417D01*
X105314580Y-135333818D01*
X105314586Y-135333818D01*
X105363641Y-135307270D01*
X105413746Y-135282776D01*
X105413749Y-135282772D01*
X105420260Y-135278123D01*
X105426555Y-135273223D01*
X105426562Y-135273220D01*
X105464341Y-135232180D01*
X107406407Y-133290113D01*
X107422513Y-133277034D01*
X107433956Y-133269560D01*
X107456592Y-133240475D01*
X107460727Y-133235794D01*
X107464113Y-133232409D01*
X107465258Y-133230805D01*
X107477892Y-133213110D01*
X107499904Y-133184827D01*
X107512158Y-133169085D01*
X107512159Y-133169083D01*
X107515953Y-133162073D01*
X107519470Y-133154876D01*
X107519475Y-133154870D01*
X107535387Y-133101420D01*
X107553500Y-133048661D01*
X107553500Y-133048656D01*
X107554810Y-133040806D01*
X107555804Y-133032839D01*
X107553500Y-132977130D01*
X107553499Y-132149574D01*
X107572712Y-132090443D01*
X107613183Y-132057670D01*
X107626741Y-132051635D01*
X107780562Y-131939877D01*
X107907786Y-131798580D01*
X108002853Y-131633920D01*
X108061608Y-131453092D01*
X108071951Y-131354680D01*
X108097239Y-131297882D01*
X108151084Y-131266794D01*
X108212917Y-131273293D01*
X108259122Y-131314896D01*
X108272049Y-131354681D01*
X108282391Y-131453090D01*
X108341145Y-131633917D01*
X108341146Y-131633918D01*
X108341147Y-131633920D01*
X108436214Y-131798580D01*
X108517753Y-131889138D01*
X108563439Y-131939878D01*
X108640259Y-131995691D01*
X108717256Y-132051633D01*
X108717258Y-132051634D01*
X108717256Y-132051634D01*
X108724031Y-132054650D01*
X108730815Y-132057670D01*
X108777021Y-132099271D01*
X108790500Y-132149574D01*
X108790500Y-133198307D01*
X108771287Y-133257438D01*
X108761035Y-133269442D01*
X106473442Y-135557035D01*
X106418044Y-135585261D01*
X106402307Y-135586500D01*
X94968001Y-135586500D01*
X94947356Y-135584359D01*
X94941345Y-135583098D01*
X94933980Y-135581554D01*
X94897418Y-135586113D01*
X94891189Y-135586500D01*
X94886388Y-135586500D01*
X94874692Y-135588451D01*
X94862995Y-135590403D01*
X94856094Y-135591263D01*
X94807641Y-135597303D01*
X94799976Y-135599585D01*
X94792414Y-135602181D01*
X94743358Y-135628729D01*
X94693255Y-135653222D01*
X94686738Y-135657875D01*
X94680440Y-135662777D01*
X94642658Y-135703819D01*
X89074992Y-141271483D01*
X89058884Y-141284564D01*
X89047445Y-141292037D01*
X89024808Y-141321120D01*
X89020688Y-141325787D01*
X89017288Y-141329188D01*
X89003499Y-141348500D01*
X88969240Y-141392517D01*
X88965438Y-141399542D01*
X88961925Y-141406728D01*
X88946010Y-141460186D01*
X88927900Y-141512938D01*
X88926584Y-141520824D01*
X88925594Y-141528761D01*
X88927900Y-141584484D01*
X88927900Y-146763699D01*
X88908687Y-146822830D01*
X88894011Y-146838998D01*
X88815906Y-146908194D01*
X88815904Y-146908196D01*
X88725612Y-147039006D01*
X88678884Y-147162218D01*
X88669251Y-147187618D01*
X88650093Y-147345400D01*
X88669251Y-147503182D01*
X88725613Y-147651795D01*
X88815902Y-147782601D01*
X88815903Y-147782602D01*
X88815904Y-147782603D01*
X88815905Y-147782604D01*
X88934868Y-147887997D01*
X88934869Y-147887998D01*
X88934871Y-147887999D01*
X89075607Y-147961863D01*
X89229929Y-147999900D01*
X89229933Y-147999900D01*
X89388867Y-147999900D01*
X89388871Y-147999900D01*
X89543193Y-147961863D01*
X89683929Y-147887999D01*
X89802898Y-147782601D01*
X89893187Y-147651795D01*
X89949549Y-147503182D01*
X89968707Y-147345400D01*
X89965623Y-147320000D01*
X105512693Y-147320000D01*
X105531851Y-147477782D01*
X105588213Y-147626395D01*
X105678502Y-147757201D01*
X105678503Y-147757202D01*
X105678504Y-147757203D01*
X105678505Y-147757204D01*
X105797468Y-147862597D01*
X105797469Y-147862598D01*
X105797471Y-147862599D01*
X105938207Y-147936463D01*
X106092529Y-147974500D01*
X106092533Y-147974500D01*
X106251467Y-147974500D01*
X106251471Y-147974500D01*
X106405793Y-147936463D01*
X106546529Y-147862599D01*
X106665498Y-147757201D01*
X106755787Y-147626395D01*
X106812149Y-147477782D01*
X106831307Y-147320000D01*
X106812149Y-147162218D01*
X106755787Y-147013605D01*
X106665498Y-146882799D01*
X106665495Y-146882796D01*
X106665494Y-146882795D01*
X106546531Y-146777402D01*
X106546530Y-146777401D01*
X106405795Y-146703538D01*
X106405794Y-146703537D01*
X106405793Y-146703537D01*
X106327547Y-146684251D01*
X106251473Y-146665500D01*
X106251471Y-146665500D01*
X106092529Y-146665500D01*
X106092526Y-146665500D01*
X105978414Y-146693626D01*
X105938207Y-146703537D01*
X105938206Y-146703537D01*
X105938204Y-146703538D01*
X105797469Y-146777401D01*
X105797468Y-146777402D01*
X105678505Y-146882795D01*
X105678504Y-146882796D01*
X105588212Y-147013606D01*
X105531850Y-147162217D01*
X105531851Y-147162218D01*
X105512693Y-147320000D01*
X89965623Y-147320000D01*
X89949549Y-147187618D01*
X89893187Y-147039005D01*
X89802898Y-146908199D01*
X89802895Y-146908196D01*
X89802893Y-146908194D01*
X89724789Y-146838998D01*
X89693270Y-146785406D01*
X89690900Y-146763699D01*
X89690900Y-141776292D01*
X89710113Y-141717161D01*
X89720365Y-141705157D01*
X95046557Y-136378965D01*
X95101955Y-136350739D01*
X95117692Y-136349500D01*
X106551999Y-136349500D01*
X106572643Y-136351640D01*
X106586017Y-136354445D01*
X106622582Y-136349886D01*
X106628811Y-136349500D01*
X106633609Y-136349500D01*
X106633611Y-136349500D01*
X106633613Y-136349499D01*
X106633620Y-136349499D01*
X106651168Y-136346569D01*
X106657004Y-136345596D01*
X106711443Y-136338810D01*
X106719521Y-136340364D01*
X106720803Y-136339735D01*
X106719701Y-136336524D01*
X106727580Y-136333818D01*
X106727586Y-136333818D01*
X106776641Y-136307270D01*
X106826746Y-136282776D01*
X106826749Y-136282772D01*
X106833260Y-136278123D01*
X106839555Y-136273223D01*
X106839562Y-136273220D01*
X106877341Y-136232180D01*
X108841521Y-134268000D01*
X109872693Y-134268000D01*
X109891851Y-134425782D01*
X109948213Y-134574395D01*
X110038502Y-134705201D01*
X110038503Y-134705202D01*
X110038504Y-134705203D01*
X110038505Y-134705204D01*
X110157468Y-134810597D01*
X110157469Y-134810598D01*
X110157471Y-134810599D01*
X110298207Y-134884463D01*
X110452529Y-134922500D01*
X110452533Y-134922500D01*
X110611467Y-134922500D01*
X110611471Y-134922500D01*
X110765793Y-134884463D01*
X110906529Y-134810599D01*
X111015290Y-134714243D01*
X111072288Y-134689414D01*
X111132998Y-134702829D01*
X111148709Y-134714244D01*
X111257468Y-134810597D01*
X111257469Y-134810598D01*
X111257471Y-134810599D01*
X111398207Y-134884463D01*
X111552529Y-134922500D01*
X111552533Y-134922500D01*
X111711467Y-134922500D01*
X111711471Y-134922500D01*
X111865793Y-134884463D01*
X112006529Y-134810599D01*
X112115292Y-134714242D01*
X112172290Y-134689414D01*
X112232999Y-134702829D01*
X112248701Y-134714237D01*
X112357471Y-134810599D01*
X112498207Y-134884463D01*
X112652529Y-134922500D01*
X112652533Y-134922500D01*
X112811467Y-134922500D01*
X112811471Y-134922500D01*
X112965793Y-134884463D01*
X113106529Y-134810599D01*
X113225498Y-134705201D01*
X113315787Y-134574395D01*
X113372149Y-134425782D01*
X113388784Y-134288774D01*
X113414983Y-134232393D01*
X113417487Y-134229796D01*
X113475462Y-134171820D01*
X113479663Y-134168066D01*
X113511308Y-134142832D01*
X113545354Y-134092894D01*
X113581230Y-134044285D01*
X113581231Y-134044282D01*
X113584755Y-134037616D01*
X113585154Y-134037827D01*
X113586167Y-134035820D01*
X113585760Y-134035624D01*
X113589027Y-134028836D01*
X113589031Y-134028832D01*
X113606843Y-133971085D01*
X113626800Y-133914053D01*
X113626800Y-133914046D01*
X113628201Y-133906647D01*
X113628645Y-133906731D01*
X113629022Y-133904512D01*
X113628576Y-133904445D01*
X113629700Y-133896988D01*
X113629700Y-133836563D01*
X113631960Y-133776174D01*
X113631116Y-133768683D01*
X113631560Y-133768632D01*
X113629700Y-133754494D01*
X113629700Y-132100743D01*
X113648913Y-132041612D01*
X113671169Y-132019356D01*
X113742246Y-131967715D01*
X113780562Y-131939877D01*
X113907786Y-131798580D01*
X114002853Y-131633920D01*
X114061608Y-131453092D01*
X114076500Y-131311401D01*
X114076500Y-130766599D01*
X114061608Y-130624908D01*
X114002853Y-130444080D01*
X113907786Y-130279420D01*
X113780562Y-130138123D01*
X113780561Y-130138122D01*
X113780560Y-130138121D01*
X113626744Y-130026367D01*
X113626743Y-130026366D01*
X113626741Y-130026365D01*
X113453045Y-129949031D01*
X113267067Y-129909500D01*
X113076933Y-129909500D01*
X112983944Y-129929265D01*
X112890954Y-129949031D01*
X112790500Y-129993756D01*
X112727405Y-130021848D01*
X112717255Y-130026367D01*
X112563439Y-130138121D01*
X112436212Y-130279422D01*
X112341147Y-130444080D01*
X112293752Y-130589945D01*
X112257207Y-130640244D01*
X112198076Y-130659457D01*
X112138944Y-130640244D01*
X112102400Y-130589944D01*
X112102090Y-130588973D01*
X112053946Y-130435528D01*
X111959705Y-130265739D01*
X111959704Y-130265738D01*
X111833219Y-130118400D01*
X111679659Y-129999536D01*
X111505317Y-129914017D01*
X111317326Y-129865343D01*
X111317328Y-129865343D01*
X111299000Y-129864413D01*
X111299000Y-132210481D01*
X111412559Y-132193086D01*
X111594654Y-132125645D01*
X111759452Y-132022926D01*
X111900197Y-131889138D01*
X112011131Y-131729754D01*
X112087707Y-131551311D01*
X112087711Y-131551299D01*
X112098889Y-131496906D01*
X112129611Y-131442852D01*
X112186237Y-131417180D01*
X112247139Y-131429694D01*
X112289054Y-131475616D01*
X112293106Y-131486067D01*
X112316318Y-131557507D01*
X112341147Y-131633920D01*
X112436214Y-131798580D01*
X112517753Y-131889138D01*
X112563439Y-131939878D01*
X112672831Y-132019356D01*
X112709376Y-132069656D01*
X112714300Y-132100743D01*
X112714300Y-133519459D01*
X112695087Y-133578590D01*
X112644787Y-133615135D01*
X112637776Y-133617136D01*
X112498203Y-133651538D01*
X112357469Y-133725401D01*
X112357468Y-133725402D01*
X112248709Y-133821755D01*
X112191708Y-133846585D01*
X112130999Y-133833169D01*
X112115296Y-133821761D01*
X112006529Y-133725401D01*
X112006528Y-133725400D01*
X111865795Y-133651538D01*
X111865794Y-133651537D01*
X111865793Y-133651537D01*
X111785149Y-133631660D01*
X111711473Y-133613500D01*
X111711471Y-133613500D01*
X111552529Y-133613500D01*
X111552526Y-133613500D01*
X111443026Y-133640490D01*
X111398207Y-133651537D01*
X111398206Y-133651537D01*
X111398204Y-133651538D01*
X111257469Y-133725401D01*
X111257468Y-133725402D01*
X111148710Y-133821755D01*
X111091710Y-133846585D01*
X111031000Y-133833169D01*
X111015290Y-133821755D01*
X110906531Y-133725402D01*
X110906530Y-133725401D01*
X110765795Y-133651538D01*
X110765794Y-133651537D01*
X110765793Y-133651537D01*
X110685149Y-133631660D01*
X110611473Y-133613500D01*
X110611471Y-133613500D01*
X110452529Y-133613500D01*
X110452526Y-133613500D01*
X110343026Y-133640490D01*
X110298207Y-133651537D01*
X110298206Y-133651537D01*
X110298204Y-133651538D01*
X110157469Y-133725401D01*
X110157468Y-133725402D01*
X110038505Y-133830795D01*
X110038504Y-133830796D01*
X109948212Y-133961606D01*
X109913003Y-134054444D01*
X109891851Y-134110218D01*
X109872693Y-134268000D01*
X108841521Y-134268000D01*
X109406410Y-133703111D01*
X109422516Y-133690032D01*
X109433956Y-133682560D01*
X109456601Y-133653463D01*
X109460709Y-133648812D01*
X109464114Y-133645409D01*
X109471000Y-133635762D01*
X109477901Y-133626099D01*
X109512156Y-133582088D01*
X109515960Y-133575057D01*
X109519470Y-133567876D01*
X109519475Y-133567870D01*
X109535389Y-133514413D01*
X109553500Y-133461661D01*
X109553500Y-133461660D01*
X109554816Y-133453775D01*
X109555805Y-133445838D01*
X109553500Y-133390115D01*
X109553500Y-132149574D01*
X109572713Y-132090443D01*
X109613184Y-132057670D01*
X109626741Y-132051635D01*
X109780562Y-131939877D01*
X109907786Y-131798580D01*
X110002853Y-131633920D01*
X110050248Y-131488053D01*
X110086792Y-131437755D01*
X110145923Y-131418542D01*
X110205054Y-131437755D01*
X110241599Y-131488055D01*
X110241909Y-131489026D01*
X110290053Y-131642471D01*
X110384294Y-131812260D01*
X110384295Y-131812261D01*
X110510780Y-131959599D01*
X110664340Y-132078463D01*
X110838682Y-132163982D01*
X110838691Y-132163985D01*
X111026660Y-132212655D01*
X111026675Y-132212657D01*
X111044999Y-132213586D01*
X111045000Y-132213585D01*
X111045000Y-129867516D01*
X110931439Y-129884914D01*
X110749345Y-129952354D01*
X110584547Y-130055073D01*
X110443802Y-130188861D01*
X110332868Y-130348245D01*
X110256292Y-130526688D01*
X110256289Y-130526697D01*
X110245110Y-130581095D01*
X110214387Y-130635148D01*
X110157760Y-130660820D01*
X110096858Y-130648304D01*
X110054945Y-130602381D01*
X110050893Y-130591931D01*
X110002854Y-130444082D01*
X110002853Y-130444081D01*
X110002853Y-130444080D01*
X109907786Y-130279420D01*
X109780562Y-130138123D01*
X109780561Y-130138122D01*
X109780560Y-130138121D01*
X109626744Y-130026367D01*
X109626743Y-130026366D01*
X109626741Y-130026365D01*
X109453045Y-129949031D01*
X109267067Y-129909500D01*
X109076933Y-129909500D01*
X108983943Y-129929265D01*
X108890954Y-129949031D01*
X108790500Y-129993756D01*
X108727405Y-130021848D01*
X108717255Y-130026367D01*
X108563439Y-130138121D01*
X108436212Y-130279422D01*
X108341147Y-130444080D01*
X108341145Y-130444082D01*
X108282391Y-130624909D01*
X108272049Y-130723318D01*
X108246761Y-130780117D01*
X108192916Y-130811205D01*
X108131083Y-130804706D01*
X108084878Y-130763103D01*
X108071951Y-130723318D01*
X108066682Y-130673182D01*
X108061608Y-130624908D01*
X108002853Y-130444080D01*
X107907786Y-130279420D01*
X107780562Y-130138123D01*
X107780561Y-130138122D01*
X107780560Y-130138121D01*
X107626744Y-130026367D01*
X107626743Y-130026366D01*
X107626741Y-130026365D01*
X107453045Y-129949031D01*
X107267067Y-129909500D01*
X107076933Y-129909500D01*
X106983943Y-129929265D01*
X106890954Y-129949031D01*
X106790500Y-129993756D01*
X106727405Y-130021848D01*
X106717255Y-130026367D01*
X106563439Y-130138121D01*
X106436212Y-130279422D01*
X106341147Y-130444080D01*
X106341145Y-130444082D01*
X106282391Y-130624909D01*
X106272049Y-130723318D01*
X106246761Y-130780117D01*
X106192916Y-130811205D01*
X106131083Y-130804706D01*
X106084878Y-130763103D01*
X106071951Y-130723318D01*
X106066682Y-130673182D01*
X106061608Y-130624908D01*
X106002853Y-130444080D01*
X105907786Y-130279420D01*
X105780562Y-130138123D01*
X105780561Y-130138122D01*
X105780560Y-130138121D01*
X105626744Y-130026367D01*
X105626743Y-130026366D01*
X105626741Y-130026365D01*
X105453045Y-129949031D01*
X105267067Y-129909500D01*
X105076933Y-129909500D01*
X104983944Y-129929265D01*
X104890954Y-129949031D01*
X104790500Y-129993756D01*
X104727405Y-130021848D01*
X104717255Y-130026367D01*
X104563439Y-130138121D01*
X104436212Y-130279422D01*
X104341147Y-130444080D01*
X104341145Y-130444082D01*
X104282391Y-130624909D01*
X104272049Y-130723318D01*
X104246761Y-130780117D01*
X104192916Y-130811205D01*
X104131083Y-130804706D01*
X104084878Y-130763103D01*
X104071951Y-130723318D01*
X104066682Y-130673182D01*
X104061608Y-130624908D01*
X104002853Y-130444080D01*
X103907786Y-130279420D01*
X103780562Y-130138123D01*
X103780561Y-130138122D01*
X103780560Y-130138121D01*
X103626744Y-130026367D01*
X103626743Y-130026366D01*
X103626741Y-130026365D01*
X103616592Y-130021846D01*
X103570390Y-129980245D01*
X103557685Y-129942392D01*
X103553887Y-129911914D01*
X103553500Y-129905687D01*
X103553500Y-129900891D01*
X103553500Y-129900889D01*
X103549596Y-129877495D01*
X103542696Y-129822140D01*
X103542696Y-129822139D01*
X103540418Y-129814488D01*
X103537818Y-129806917D01*
X103537818Y-129806914D01*
X103511270Y-129757858D01*
X103486776Y-129707754D01*
X103486773Y-129707751D01*
X103482121Y-129701234D01*
X103477219Y-129694936D01*
X103447414Y-129667500D01*
X103436181Y-129657159D01*
X102830616Y-129051593D01*
X102817532Y-129035481D01*
X102810061Y-129024045D01*
X102810056Y-129024040D01*
X102780982Y-129001412D01*
X102776304Y-128997281D01*
X102772908Y-128993885D01*
X102772909Y-128993885D01*
X102763254Y-128986992D01*
X102753599Y-128980099D01*
X102709585Y-128945842D01*
X102709584Y-128945841D01*
X102709582Y-128945840D01*
X102702564Y-128942042D01*
X102695368Y-128938524D01*
X102641913Y-128922610D01*
X102589159Y-128904499D01*
X102581285Y-128903185D01*
X102573338Y-128902194D01*
X102517616Y-128904500D01*
X93395002Y-128904500D01*
X93374357Y-128902359D01*
X93365629Y-128900529D01*
X93360980Y-128899554D01*
X93328018Y-128903664D01*
X93324416Y-128904113D01*
X93318190Y-128904500D01*
X93313385Y-128904500D01*
X93289993Y-128908404D01*
X93234640Y-128915303D01*
X93226972Y-128917586D01*
X93219414Y-128920181D01*
X93170358Y-128946729D01*
X93120255Y-128971222D01*
X93113738Y-128975875D01*
X93107440Y-128980777D01*
X93069658Y-129021819D01*
X89425441Y-132666035D01*
X89370043Y-132694261D01*
X89354306Y-132695500D01*
X89201526Y-132695500D01*
X89122414Y-132715000D01*
X89047207Y-132733537D01*
X89047206Y-132733537D01*
X89047204Y-132733538D01*
X88906469Y-132807401D01*
X88906468Y-132807402D01*
X88787505Y-132912795D01*
X88787504Y-132912796D01*
X88697212Y-133043606D01*
X88649625Y-133169083D01*
X88640851Y-133192218D01*
X88621693Y-133350000D01*
X88640851Y-133507782D01*
X88663640Y-133567870D01*
X88695370Y-133651537D01*
X88697213Y-133656395D01*
X88787502Y-133787201D01*
X88787503Y-133787202D01*
X88787504Y-133787203D01*
X88787505Y-133787204D01*
X88906468Y-133892597D01*
X88906469Y-133892598D01*
X88921183Y-133900320D01*
X89047207Y-133966463D01*
X89201529Y-134004500D01*
X89201533Y-134004500D01*
X89360467Y-134004500D01*
X89360471Y-134004500D01*
X89514793Y-133966463D01*
X89655529Y-133892599D01*
X89774498Y-133787201D01*
X89864787Y-133656395D01*
X89921149Y-133507782D01*
X89940307Y-133350000D01*
X89933241Y-133291808D01*
X89945185Y-133230794D01*
X89961968Y-133208552D01*
X93473557Y-129696965D01*
X93528956Y-129668739D01*
X93544693Y-129667500D01*
X102325808Y-129667500D01*
X102384939Y-129686713D01*
X102396943Y-129696965D01*
X102639232Y-129939254D01*
X102667458Y-129994652D01*
X102657732Y-130056060D01*
X102627229Y-130091776D01*
X102563437Y-130138123D01*
X102436212Y-130279422D01*
X102341147Y-130444080D01*
X102341145Y-130444082D01*
X102282391Y-130624909D01*
X102272049Y-130723318D01*
X102246761Y-130780117D01*
X102192916Y-130811205D01*
X102131083Y-130804706D01*
X102084878Y-130763103D01*
X102071951Y-130723318D01*
X102066682Y-130673182D01*
X102061608Y-130624908D01*
X102002853Y-130444080D01*
X101907786Y-130279420D01*
X101780562Y-130138123D01*
X101780561Y-130138122D01*
X101780560Y-130138121D01*
X101626744Y-130026367D01*
X101626743Y-130026366D01*
X101626741Y-130026365D01*
X101453045Y-129949031D01*
X101267067Y-129909500D01*
X101076933Y-129909500D01*
X100983943Y-129929265D01*
X100890954Y-129949031D01*
X100790500Y-129993756D01*
X100727405Y-130021848D01*
X100717255Y-130026367D01*
X100563439Y-130138121D01*
X100436212Y-130279422D01*
X100341147Y-130444080D01*
X100341145Y-130444082D01*
X100282391Y-130624909D01*
X100272049Y-130723318D01*
X100246761Y-130780117D01*
X100192916Y-130811205D01*
X100131083Y-130804706D01*
X100084878Y-130763103D01*
X100071951Y-130723318D01*
X100066682Y-130673182D01*
X100061608Y-130624908D01*
X100002853Y-130444080D01*
X99907786Y-130279420D01*
X99780562Y-130138123D01*
X99780561Y-130138122D01*
X99780560Y-130138121D01*
X99626744Y-130026367D01*
X99626743Y-130026366D01*
X99626741Y-130026365D01*
X99453045Y-129949031D01*
X99267067Y-129909500D01*
X99076933Y-129909500D01*
X98983943Y-129929265D01*
X98890954Y-129949031D01*
X98790500Y-129993756D01*
X98727405Y-130021848D01*
X98717255Y-130026367D01*
X98563439Y-130138121D01*
X98436212Y-130279422D01*
X98341147Y-130444080D01*
X98341145Y-130444082D01*
X98294388Y-130587987D01*
X98257843Y-130638287D01*
X98198712Y-130657500D01*
X95071000Y-130657500D01*
X95050355Y-130655359D01*
X95041627Y-130653529D01*
X95036978Y-130652554D01*
X95004016Y-130656664D01*
X95000414Y-130657113D01*
X94994188Y-130657500D01*
X94989383Y-130657500D01*
X94965991Y-130661404D01*
X94910638Y-130668303D01*
X94902963Y-130670588D01*
X94895412Y-130673181D01*
X94846366Y-130699723D01*
X94796252Y-130724223D01*
X94789761Y-130728856D01*
X94783437Y-130733779D01*
X94745667Y-130774807D01*
X89806441Y-135714033D01*
X89751043Y-135742259D01*
X89735306Y-135743498D01*
X89582526Y-135743498D01*
X89468415Y-135771624D01*
X89428207Y-135781535D01*
X89428206Y-135781535D01*
X89428204Y-135781536D01*
X89287469Y-135855399D01*
X89287468Y-135855400D01*
X89168505Y-135960793D01*
X89168504Y-135960794D01*
X89078212Y-136091604D01*
X89024899Y-136232180D01*
X89021851Y-136240216D01*
X89002693Y-136397998D01*
X89021851Y-136555780D01*
X89078213Y-136704393D01*
X89168502Y-136835199D01*
X89168503Y-136835200D01*
X89168504Y-136835201D01*
X89168505Y-136835202D01*
X89287468Y-136940595D01*
X89287469Y-136940596D01*
X89287471Y-136940597D01*
X89428207Y-137014461D01*
X89582529Y-137052498D01*
X89582533Y-137052498D01*
X89741467Y-137052498D01*
X89741471Y-137052498D01*
X89895793Y-137014461D01*
X90036529Y-136940597D01*
X90155498Y-136835199D01*
X90245787Y-136704393D01*
X90302149Y-136555780D01*
X90321307Y-136397998D01*
X90314241Y-136339806D01*
X90326185Y-136278792D01*
X90342968Y-136256550D01*
X95149555Y-131449965D01*
X95204954Y-131421739D01*
X95220691Y-131420500D01*
X98198712Y-131420500D01*
X98257843Y-131439713D01*
X98294388Y-131490013D01*
X98341145Y-131633917D01*
X98341146Y-131633918D01*
X98341147Y-131633920D01*
X98436214Y-131798580D01*
X98517753Y-131889138D01*
X98563439Y-131939878D01*
X98640259Y-131995691D01*
X98717259Y-132051635D01*
X98890955Y-132128969D01*
X99076933Y-132168500D01*
X99076934Y-132168500D01*
X99267066Y-132168500D01*
X99267067Y-132168500D01*
X99453045Y-132128969D01*
X99626741Y-132051635D01*
X99780562Y-131939877D01*
X99907786Y-131798580D01*
X100002853Y-131633920D01*
X100061608Y-131453092D01*
X100071951Y-131354680D01*
X100097239Y-131297882D01*
X100151084Y-131266794D01*
X100212917Y-131273293D01*
X100259122Y-131314896D01*
X100272049Y-131354681D01*
X100282391Y-131453090D01*
X100341145Y-131633917D01*
X100341146Y-131633918D01*
X100341147Y-131633920D01*
X100436214Y-131798580D01*
X100517753Y-131889138D01*
X100563439Y-131939878D01*
X100640259Y-131995691D01*
X100717259Y-132051635D01*
X100890955Y-132128969D01*
X101076933Y-132168500D01*
X101076934Y-132168500D01*
X101267066Y-132168500D01*
X101267067Y-132168500D01*
X101453045Y-132128969D01*
X101626741Y-132051635D01*
X101780562Y-131939877D01*
X101907786Y-131798580D01*
X102002853Y-131633920D01*
X102061608Y-131453092D01*
X102071951Y-131354680D01*
X102097239Y-131297882D01*
X102151084Y-131266794D01*
X102212917Y-131273293D01*
X102259122Y-131314896D01*
X102272049Y-131354681D01*
X102282391Y-131453090D01*
X102341145Y-131633917D01*
X102341146Y-131633918D01*
X102341147Y-131633920D01*
X102436214Y-131798580D01*
X102517753Y-131889138D01*
X102563439Y-131939878D01*
X102640259Y-131995691D01*
X102717259Y-132051635D01*
X102890955Y-132128969D01*
X103076933Y-132168500D01*
X103076934Y-132168500D01*
X103267066Y-132168500D01*
X103267067Y-132168500D01*
X103453045Y-132128969D01*
X103626741Y-132051635D01*
X103780562Y-131939877D01*
X103907786Y-131798580D01*
X104002853Y-131633920D01*
X104061608Y-131453092D01*
X104071951Y-131354680D01*
X104097239Y-131297882D01*
X104151084Y-131266794D01*
X104212917Y-131273293D01*
X104259122Y-131314896D01*
X104272049Y-131354681D01*
X104282391Y-131453090D01*
X104341145Y-131633917D01*
X104341146Y-131633918D01*
X104341147Y-131633920D01*
X104436214Y-131798580D01*
X104563438Y-131939877D01*
X104601754Y-131967715D01*
X104640259Y-131995691D01*
X104676803Y-132045991D01*
X104676803Y-132108166D01*
X104652262Y-132148213D01*
X103543442Y-133257035D01*
X103488044Y-133285261D01*
X103472307Y-133286500D01*
X96088745Y-133286500D01*
X96029614Y-133267287D01*
X96005954Y-133243048D01*
X95997503Y-133230805D01*
X95997493Y-133230794D01*
X95878531Y-133125402D01*
X95878530Y-133125401D01*
X95737795Y-133051538D01*
X95737794Y-133051537D01*
X95737793Y-133051537D01*
X95659546Y-133032251D01*
X95583473Y-133013500D01*
X95583471Y-133013500D01*
X95424529Y-133013500D01*
X95424526Y-133013500D01*
X95314657Y-133040581D01*
X95270207Y-133051537D01*
X95270206Y-133051537D01*
X95270204Y-133051538D01*
X95129469Y-133125401D01*
X95129468Y-133125402D01*
X95010507Y-133230794D01*
X95010504Y-133230796D01*
X94920212Y-133361606D01*
X94890693Y-133439442D01*
X94863851Y-133510218D01*
X94844693Y-133668000D01*
X94863851Y-133825782D01*
X94889191Y-133892597D01*
X94918957Y-133971085D01*
X94920213Y-133974395D01*
X95010502Y-134105201D01*
X95010503Y-134105202D01*
X95010504Y-134105203D01*
X95010505Y-134105204D01*
X95129468Y-134210597D01*
X95129469Y-134210598D01*
X95129471Y-134210599D01*
X95270207Y-134284463D01*
X95424529Y-134322500D01*
X95424533Y-134322500D01*
X95583467Y-134322500D01*
X95583471Y-134322500D01*
X95737793Y-134284463D01*
X95878529Y-134210599D01*
X95997498Y-134105201D01*
X95997503Y-134105194D01*
X96005954Y-134092952D01*
X96055356Y-134055202D01*
X96088745Y-134049500D01*
X103621999Y-134049500D01*
X103642643Y-134051640D01*
X103656017Y-134054445D01*
X103692582Y-134049886D01*
X103698811Y-134049500D01*
X103703609Y-134049500D01*
X103703611Y-134049500D01*
X103703613Y-134049499D01*
X103703620Y-134049499D01*
X103721168Y-134046569D01*
X103727004Y-134045596D01*
X103782360Y-134038696D01*
X103782366Y-134038692D01*
X103790012Y-134036417D01*
X103797580Y-134033818D01*
X103797586Y-134033818D01*
X103846641Y-134007270D01*
X103896746Y-133982776D01*
X103896749Y-133982772D01*
X103903260Y-133978123D01*
X103909555Y-133973223D01*
X103909562Y-133973220D01*
X103947341Y-133932180D01*
X105406407Y-132473113D01*
X105422513Y-132460034D01*
X105433956Y-132452560D01*
X105456592Y-132423475D01*
X105460727Y-132418794D01*
X105464113Y-132415409D01*
X105464121Y-132415398D01*
X105477892Y-132396110D01*
X105499904Y-132367827D01*
X105512158Y-132352085D01*
X105512159Y-132352083D01*
X105515953Y-132345073D01*
X105519470Y-132337876D01*
X105519475Y-132337870D01*
X105535390Y-132284410D01*
X105553500Y-132231661D01*
X105553500Y-132231660D01*
X105554816Y-132223775D01*
X105555805Y-132215839D01*
X105553500Y-132160116D01*
X105553500Y-132149574D01*
X105572713Y-132090443D01*
X105613184Y-132057670D01*
X105626741Y-132051635D01*
X105780562Y-131939877D01*
X105907786Y-131798580D01*
X106002853Y-131633920D01*
X106061608Y-131453092D01*
X106071951Y-131354680D01*
X106097239Y-131297882D01*
X106151084Y-131266794D01*
X106212917Y-131273293D01*
X106259122Y-131314896D01*
X106272049Y-131354681D01*
X106282391Y-131453090D01*
X106341145Y-131633917D01*
X106341146Y-131633918D01*
X106341147Y-131633920D01*
X106436214Y-131798580D01*
X106517753Y-131889138D01*
X106563439Y-131939878D01*
X106640259Y-131995691D01*
X106717256Y-132051633D01*
X106717258Y-132051634D01*
X106717256Y-132051634D01*
X106724031Y-132054650D01*
X106730815Y-132057670D01*
X106777021Y-132099271D01*
X106790500Y-132149574D01*
X106790500Y-132785307D01*
X106771287Y-132844438D01*
X106761035Y-132856442D01*
X105060442Y-134557035D01*
X105005044Y-134585261D01*
X104989307Y-134586500D01*
X93428001Y-134586500D01*
X93407356Y-134584359D01*
X93398628Y-134582529D01*
X93393979Y-134581554D01*
X93361017Y-134585664D01*
X93357415Y-134586113D01*
X93351189Y-134586500D01*
X93346389Y-134586500D01*
X93322996Y-134590403D01*
X93309156Y-134592128D01*
X93267636Y-134597304D01*
X93259994Y-134599579D01*
X93252413Y-134602181D01*
X93203362Y-134628727D01*
X93153255Y-134653222D01*
X93146738Y-134657875D01*
X93140440Y-134662777D01*
X93102658Y-134703819D01*
X89800716Y-138005760D01*
X89745318Y-138033986D01*
X89683910Y-138024260D01*
X89652346Y-137996633D01*
X89651533Y-137997354D01*
X89647494Y-137992795D01*
X89528531Y-137887402D01*
X89528530Y-137887401D01*
X89387795Y-137813538D01*
X89387794Y-137813537D01*
X89387793Y-137813537D01*
X89309546Y-137794251D01*
X89233473Y-137775500D01*
X89233471Y-137775500D01*
X89074529Y-137775500D01*
X89074526Y-137775500D01*
X88995414Y-137795000D01*
X88920207Y-137813537D01*
X88920206Y-137813537D01*
X88920204Y-137813538D01*
X88779469Y-137887401D01*
X88779468Y-137887402D01*
X88660505Y-137992795D01*
X88660504Y-137992796D01*
X88570212Y-138123606D01*
X88542869Y-138195704D01*
X88513851Y-138272218D01*
X88494693Y-138430000D01*
X84878111Y-138430000D01*
X84878111Y-133409977D01*
X84878110Y-123987964D01*
X84897323Y-123928834D01*
X84947623Y-123892289D01*
X85009797Y-123892289D01*
X85046485Y-123913622D01*
X85056528Y-123922778D01*
X85056532Y-123922781D01*
X85056538Y-123922786D01*
X85230573Y-124030544D01*
X85421444Y-124104488D01*
X85470824Y-124113718D01*
X85622651Y-124142100D01*
X85622653Y-124142100D01*
X85827348Y-124142100D01*
X85903261Y-124127909D01*
X86028556Y-124104488D01*
X86219427Y-124030544D01*
X86393462Y-123922786D01*
X86403515Y-123913622D01*
X86426916Y-123892289D01*
X86544732Y-123784885D01*
X86668088Y-123621535D01*
X86742120Y-123472858D01*
X86785677Y-123428490D01*
X86832174Y-123417100D01*
X90783736Y-123417100D01*
X90842867Y-123436313D01*
X90854870Y-123446564D01*
X91115634Y-123707329D01*
X91143860Y-123762726D01*
X91145099Y-123778463D01*
X91145099Y-128711127D01*
X91125886Y-128770258D01*
X91111211Y-128786426D01*
X91031103Y-128857397D01*
X90940812Y-128988206D01*
X90884451Y-129136818D01*
X90865293Y-129294600D01*
X90884451Y-129452381D01*
X90937048Y-129591069D01*
X90940813Y-129600995D01*
X91031102Y-129731801D01*
X91031103Y-129731802D01*
X91031104Y-129731803D01*
X91031105Y-129731804D01*
X91150068Y-129837197D01*
X91150069Y-129837198D01*
X91150071Y-129837199D01*
X91290807Y-129911063D01*
X91445129Y-129949100D01*
X91445133Y-129949100D01*
X91604067Y-129949100D01*
X91604071Y-129949100D01*
X91758393Y-129911063D01*
X91899129Y-129837199D01*
X92018098Y-129731801D01*
X92108387Y-129600995D01*
X92164749Y-129452382D01*
X92183907Y-129294600D01*
X92164749Y-129136818D01*
X92108387Y-128988205D01*
X92018098Y-128857399D01*
X92018095Y-128857396D01*
X92018093Y-128857394D01*
X91937989Y-128786426D01*
X91906470Y-128732834D01*
X91904100Y-128711127D01*
X91904100Y-126492000D01*
X104242693Y-126492000D01*
X104261851Y-126649782D01*
X104318213Y-126798395D01*
X104408502Y-126929201D01*
X104408503Y-126929202D01*
X104408504Y-126929203D01*
X104408505Y-126929204D01*
X104527468Y-127034597D01*
X104527469Y-127034598D01*
X104527471Y-127034599D01*
X104668207Y-127108463D01*
X104822529Y-127146500D01*
X104822533Y-127146500D01*
X104981467Y-127146500D01*
X104981471Y-127146500D01*
X105135793Y-127108463D01*
X105276529Y-127034599D01*
X105395498Y-126929201D01*
X105485787Y-126798395D01*
X105542149Y-126649782D01*
X105561307Y-126492000D01*
X105542149Y-126334218D01*
X105485787Y-126185605D01*
X105395498Y-126054799D01*
X105395495Y-126054796D01*
X105395494Y-126054795D01*
X105276531Y-125949402D01*
X105276530Y-125949401D01*
X105135795Y-125875538D01*
X105135794Y-125875537D01*
X105135793Y-125875537D01*
X105057547Y-125856251D01*
X104981473Y-125837500D01*
X104981471Y-125837500D01*
X104822529Y-125837500D01*
X104822526Y-125837500D01*
X104708415Y-125865626D01*
X104668207Y-125875537D01*
X104668206Y-125875537D01*
X104668204Y-125875538D01*
X104527469Y-125949401D01*
X104527468Y-125949402D01*
X104408505Y-126054795D01*
X104408504Y-126054796D01*
X104318212Y-126185606D01*
X104261851Y-126334218D01*
X104242693Y-126492000D01*
X91904100Y-126492000D01*
X91904100Y-123629394D01*
X91906241Y-123608747D01*
X91909019Y-123595498D01*
X91904487Y-123559144D01*
X91904100Y-123552915D01*
X91904100Y-123548160D01*
X91904100Y-123548157D01*
X91900216Y-123524882D01*
X91893352Y-123469818D01*
X91893350Y-123469814D01*
X91891083Y-123462201D01*
X91888500Y-123454676D01*
X91888500Y-123454673D01*
X91862099Y-123405889D01*
X91837726Y-123356032D01*
X91837724Y-123356030D01*
X91833129Y-123349594D01*
X91828218Y-123343283D01*
X91799667Y-123317000D01*
X93066693Y-123317000D01*
X93085617Y-123472858D01*
X93085851Y-123474781D01*
X93141507Y-123621535D01*
X93142213Y-123623395D01*
X93232502Y-123754201D01*
X93232503Y-123754202D01*
X93232504Y-123754203D01*
X93232505Y-123754204D01*
X93351468Y-123859597D01*
X93351469Y-123859598D01*
X93351471Y-123859599D01*
X93492207Y-123933463D01*
X93646529Y-123971500D01*
X93646533Y-123971500D01*
X93805467Y-123971500D01*
X93805471Y-123971500D01*
X93959793Y-123933463D01*
X94100529Y-123859599D01*
X94219498Y-123754201D01*
X94309787Y-123623395D01*
X94366149Y-123474782D01*
X94385307Y-123317000D01*
X97892693Y-123317000D01*
X97911617Y-123472858D01*
X97911851Y-123474781D01*
X97967507Y-123621535D01*
X97968213Y-123623395D01*
X98058502Y-123754201D01*
X98058503Y-123754202D01*
X98058504Y-123754203D01*
X98058505Y-123754204D01*
X98177468Y-123859597D01*
X98177469Y-123859598D01*
X98177471Y-123859599D01*
X98318207Y-123933463D01*
X98472529Y-123971500D01*
X98472533Y-123971500D01*
X98631467Y-123971500D01*
X98631471Y-123971500D01*
X98785793Y-123933463D01*
X98926529Y-123859599D01*
X99045498Y-123754201D01*
X99135787Y-123623395D01*
X99192149Y-123474782D01*
X99211307Y-123317000D01*
X99192149Y-123159218D01*
X99135787Y-123010605D01*
X99045498Y-122879799D01*
X99045495Y-122879796D01*
X99045494Y-122879795D01*
X98926531Y-122774402D01*
X98926530Y-122774401D01*
X98785795Y-122700538D01*
X98785794Y-122700537D01*
X98785793Y-122700537D01*
X98707546Y-122681251D01*
X98631473Y-122662500D01*
X98631471Y-122662500D01*
X98472529Y-122662500D01*
X98472526Y-122662500D01*
X98358415Y-122690626D01*
X98318207Y-122700537D01*
X98318206Y-122700537D01*
X98318204Y-122700538D01*
X98177469Y-122774401D01*
X98177468Y-122774402D01*
X98058505Y-122879795D01*
X98058504Y-122879796D01*
X97968212Y-123010606D01*
X97911851Y-123159218D01*
X97892693Y-123317000D01*
X94385307Y-123317000D01*
X94366149Y-123159218D01*
X94309787Y-123010605D01*
X94219498Y-122879799D01*
X94219495Y-122879796D01*
X94219494Y-122879795D01*
X94100531Y-122774402D01*
X94100530Y-122774401D01*
X93959795Y-122700538D01*
X93959794Y-122700537D01*
X93959793Y-122700537D01*
X93881546Y-122681251D01*
X93805473Y-122662500D01*
X93805471Y-122662500D01*
X93646529Y-122662500D01*
X93646526Y-122662500D01*
X93532415Y-122690626D01*
X93492207Y-122700537D01*
X93492206Y-122700537D01*
X93492204Y-122700538D01*
X93351469Y-122774401D01*
X93351468Y-122774402D01*
X93232505Y-122879795D01*
X93232504Y-122879796D01*
X93142212Y-123010606D01*
X93085850Y-123159217D01*
X93085851Y-123159218D01*
X93066693Y-123317000D01*
X91799667Y-123317000D01*
X91787413Y-123305719D01*
X91286154Y-122804460D01*
X91273070Y-122788347D01*
X91265671Y-122777023D01*
X91265668Y-122777018D01*
X91255503Y-122769106D01*
X91236751Y-122754510D01*
X91232075Y-122750381D01*
X91228711Y-122747017D01*
X91209507Y-122733305D01*
X91165718Y-122699224D01*
X91158752Y-122695454D01*
X91151581Y-122691948D01*
X91151579Y-122691947D01*
X91098417Y-122676120D01*
X91058744Y-122662500D01*
X91045925Y-122658099D01*
X91038100Y-122656793D01*
X91030188Y-122655807D01*
X90974775Y-122658100D01*
X86832174Y-122658100D01*
X86773043Y-122638887D01*
X86742121Y-122602342D01*
X86668090Y-122453669D01*
X86668089Y-122453668D01*
X86668088Y-122453665D01*
X86544732Y-122290315D01*
X86544731Y-122290314D01*
X86393471Y-122152421D01*
X86393466Y-122152417D01*
X86393462Y-122152414D01*
X86219427Y-122044656D01*
X86219423Y-122044654D01*
X86028554Y-121970711D01*
X86028549Y-121970710D01*
X85827349Y-121933100D01*
X85827347Y-121933100D01*
X85622653Y-121933100D01*
X85622651Y-121933100D01*
X85421450Y-121970710D01*
X85421445Y-121970711D01*
X85230576Y-122044654D01*
X85230572Y-122044656D01*
X85161807Y-122087234D01*
X85056538Y-122152414D01*
X85056536Y-122152415D01*
X85056537Y-122152415D01*
X85056528Y-122152421D01*
X85046482Y-122161580D01*
X84989839Y-122187217D01*
X84928945Y-122174663D01*
X84887060Y-122128715D01*
X84878110Y-122087234D01*
X84878110Y-121920000D01*
X102718701Y-121920000D01*
X102737859Y-122077782D01*
X102794221Y-122226395D01*
X102884510Y-122357201D01*
X102884511Y-122357202D01*
X102884512Y-122357203D01*
X102884513Y-122357204D01*
X103003476Y-122462597D01*
X103003477Y-122462598D01*
X103003479Y-122462599D01*
X103144215Y-122536463D01*
X103298537Y-122574500D01*
X103298541Y-122574500D01*
X103457302Y-122574500D01*
X103516433Y-122593713D01*
X103528437Y-122603965D01*
X108451026Y-127526555D01*
X108479252Y-127581953D01*
X108479758Y-127609814D01*
X108472693Y-127668006D01*
X108491851Y-127825788D01*
X108548213Y-127974401D01*
X108638502Y-128105207D01*
X108638503Y-128105208D01*
X108638504Y-128105209D01*
X108638505Y-128105210D01*
X108757468Y-128210603D01*
X108757469Y-128210604D01*
X108757471Y-128210605D01*
X108898207Y-128284469D01*
X109052529Y-128322506D01*
X109052533Y-128322506D01*
X109211467Y-128322506D01*
X109211471Y-128322506D01*
X109365793Y-128284469D01*
X109506529Y-128210605D01*
X109625498Y-128105207D01*
X109715787Y-127974401D01*
X109772149Y-127825788D01*
X109791307Y-127668006D01*
X109772149Y-127510224D01*
X109715787Y-127361611D01*
X109625498Y-127230805D01*
X109625495Y-127230802D01*
X109625494Y-127230801D01*
X109506531Y-127125408D01*
X109506530Y-127125407D01*
X109365795Y-127051544D01*
X109365794Y-127051543D01*
X109365793Y-127051543D01*
X109287546Y-127032257D01*
X109211473Y-127013506D01*
X109211471Y-127013506D01*
X109058692Y-127013506D01*
X108999561Y-126994293D01*
X108987557Y-126984041D01*
X104059628Y-122056111D01*
X104031402Y-122000713D01*
X104030897Y-121972853D01*
X104037315Y-121920000D01*
X104018157Y-121762218D01*
X103961795Y-121613605D01*
X103871506Y-121482799D01*
X103871503Y-121482796D01*
X103871502Y-121482795D01*
X103752539Y-121377402D01*
X103752538Y-121377401D01*
X103611803Y-121303538D01*
X103611802Y-121303537D01*
X103611801Y-121303537D01*
X103511914Y-121278917D01*
X103457481Y-121265500D01*
X103457479Y-121265500D01*
X103298537Y-121265500D01*
X103298534Y-121265500D01*
X103184423Y-121293626D01*
X103144215Y-121303537D01*
X103144214Y-121303537D01*
X103144212Y-121303538D01*
X103003477Y-121377401D01*
X103003476Y-121377402D01*
X102884513Y-121482795D01*
X102884512Y-121482796D01*
X102794220Y-121613606D01*
X102737858Y-121762218D01*
X102737859Y-121762218D01*
X102718701Y-121920000D01*
X84878110Y-121920000D01*
X84878110Y-121512080D01*
X84897323Y-121452949D01*
X84947623Y-121416404D01*
X85009797Y-121416404D01*
X85031669Y-121426548D01*
X85208055Y-121535762D01*
X85208059Y-121535764D01*
X85407619Y-121613073D01*
X85597999Y-121648662D01*
X85598000Y-121648662D01*
X85598000Y-121098200D01*
X85617213Y-121039069D01*
X85667513Y-121002524D01*
X85698600Y-120997600D01*
X85751400Y-120997600D01*
X85810531Y-121016813D01*
X85847076Y-121067113D01*
X85852000Y-121098200D01*
X85852000Y-121648662D01*
X86042380Y-121613073D01*
X86241940Y-121535764D01*
X86241944Y-121535762D01*
X86423904Y-121423096D01*
X86423913Y-121423090D01*
X86582062Y-121278917D01*
X86711038Y-121108123D01*
X86711039Y-121108123D01*
X86806430Y-120916552D01*
X86806431Y-120916551D01*
X86865000Y-120710698D01*
X86872979Y-120624600D01*
X86325600Y-120624600D01*
X86266469Y-120605387D01*
X86229924Y-120555087D01*
X86225000Y-120524000D01*
X86225000Y-120471200D01*
X86244213Y-120412069D01*
X86294513Y-120375524D01*
X86325600Y-120370600D01*
X86872979Y-120370600D01*
X86872979Y-120370599D01*
X86865000Y-120284501D01*
X86806431Y-120078648D01*
X86806430Y-120078647D01*
X86711039Y-119887076D01*
X86615831Y-119761000D01*
X122022693Y-119761000D01*
X122041851Y-119918782D01*
X122098213Y-120067395D01*
X122188502Y-120198201D01*
X122188503Y-120198202D01*
X122188504Y-120198203D01*
X122188505Y-120198204D01*
X122307468Y-120303597D01*
X122307469Y-120303598D01*
X122307471Y-120303599D01*
X122448207Y-120377463D01*
X122602529Y-120415500D01*
X122602533Y-120415500D01*
X122761467Y-120415500D01*
X122761471Y-120415500D01*
X122915793Y-120377463D01*
X123056529Y-120303599D01*
X123175498Y-120198201D01*
X123265787Y-120067395D01*
X123322149Y-119918782D01*
X123341307Y-119761000D01*
X123322149Y-119603218D01*
X123265787Y-119454605D01*
X123175498Y-119323799D01*
X123175495Y-119323796D01*
X123175494Y-119323795D01*
X123056531Y-119218402D01*
X123056530Y-119218401D01*
X122915795Y-119144538D01*
X122915794Y-119144537D01*
X122915793Y-119144537D01*
X122837546Y-119125251D01*
X122761473Y-119106500D01*
X122761471Y-119106500D01*
X122602529Y-119106500D01*
X122602526Y-119106500D01*
X122488415Y-119134626D01*
X122448207Y-119144537D01*
X122448206Y-119144537D01*
X122448204Y-119144538D01*
X122307469Y-119218401D01*
X122307468Y-119218402D01*
X122188505Y-119323795D01*
X122188504Y-119323796D01*
X122098212Y-119454606D01*
X122054960Y-119568652D01*
X122041851Y-119603218D01*
X122022693Y-119761000D01*
X86615831Y-119761000D01*
X86582062Y-119716282D01*
X86423913Y-119572109D01*
X86423904Y-119572103D01*
X86241944Y-119459437D01*
X86241940Y-119459435D01*
X86042381Y-119382126D01*
X85852000Y-119346537D01*
X85852000Y-119897000D01*
X85832787Y-119956131D01*
X85782487Y-119992676D01*
X85751400Y-119997600D01*
X85698600Y-119997600D01*
X85639469Y-119978387D01*
X85602924Y-119928087D01*
X85598000Y-119897000D01*
X85598000Y-119346537D01*
X85407618Y-119382126D01*
X85208059Y-119459435D01*
X85208055Y-119459437D01*
X85031669Y-119568652D01*
X84971281Y-119583445D01*
X84913730Y-119559918D01*
X84880999Y-119507057D01*
X84878110Y-119483120D01*
X84878110Y-118907965D01*
X84897323Y-118848834D01*
X84947623Y-118812289D01*
X85009797Y-118812289D01*
X85046485Y-118833622D01*
X85056528Y-118842778D01*
X85056532Y-118842781D01*
X85056538Y-118842786D01*
X85230573Y-118950544D01*
X85421444Y-119024488D01*
X85449765Y-119029782D01*
X85622651Y-119062100D01*
X85622653Y-119062100D01*
X85827348Y-119062100D01*
X85903261Y-119047909D01*
X86028556Y-119024488D01*
X86219427Y-118950544D01*
X86346280Y-118872000D01*
X111735693Y-118872000D01*
X111754851Y-119029782D01*
X111811213Y-119178395D01*
X111901502Y-119309201D01*
X111901503Y-119309202D01*
X111901504Y-119309203D01*
X111901505Y-119309204D01*
X112020468Y-119414597D01*
X112020469Y-119414598D01*
X112020471Y-119414599D01*
X112161207Y-119488463D01*
X112315529Y-119526500D01*
X112315533Y-119526500D01*
X112474467Y-119526500D01*
X112474471Y-119526500D01*
X112628793Y-119488463D01*
X112769529Y-119414599D01*
X112888498Y-119309201D01*
X112978787Y-119178395D01*
X113035149Y-119029782D01*
X113054307Y-118872000D01*
X113035149Y-118714218D01*
X112978787Y-118565605D01*
X112888498Y-118434799D01*
X112888495Y-118434796D01*
X112888494Y-118434795D01*
X112769531Y-118329402D01*
X112769530Y-118329401D01*
X112628795Y-118255538D01*
X112628794Y-118255537D01*
X112628793Y-118255537D01*
X112550546Y-118236251D01*
X112474473Y-118217500D01*
X112474471Y-118217500D01*
X112315529Y-118217500D01*
X112315526Y-118217500D01*
X112201415Y-118245626D01*
X112161207Y-118255537D01*
X112161206Y-118255537D01*
X112161204Y-118255538D01*
X112020469Y-118329401D01*
X112020468Y-118329402D01*
X111901505Y-118434795D01*
X111901504Y-118434796D01*
X111811212Y-118565606D01*
X111772029Y-118668923D01*
X111754851Y-118714218D01*
X111735693Y-118872000D01*
X86346280Y-118872000D01*
X86393462Y-118842786D01*
X86403515Y-118833622D01*
X86426916Y-118812289D01*
X86544732Y-118704885D01*
X86668088Y-118541535D01*
X86759328Y-118358301D01*
X86815345Y-118161421D01*
X86834232Y-117957600D01*
X86815345Y-117753779D01*
X86759328Y-117556899D01*
X86668088Y-117373665D01*
X86544732Y-117210315D01*
X86544731Y-117210314D01*
X86393471Y-117072421D01*
X86393466Y-117072417D01*
X86393462Y-117072414D01*
X86219427Y-116964656D01*
X86219423Y-116964654D01*
X86028554Y-116890711D01*
X86028549Y-116890710D01*
X85827349Y-116853100D01*
X85827347Y-116853100D01*
X85622653Y-116853100D01*
X85622651Y-116853100D01*
X85421450Y-116890710D01*
X85421445Y-116890711D01*
X85230576Y-116964654D01*
X85230572Y-116964656D01*
X85184319Y-116993295D01*
X85056538Y-117072414D01*
X85056536Y-117072415D01*
X85056537Y-117072415D01*
X85056528Y-117072421D01*
X85046482Y-117081580D01*
X84989839Y-117107217D01*
X84928945Y-117094663D01*
X84887060Y-117048715D01*
X84878110Y-117007234D01*
X84878110Y-116686899D01*
X120153783Y-116686899D01*
X120172941Y-116844681D01*
X120218441Y-116964656D01*
X120229303Y-116993295D01*
X120319592Y-117124101D01*
X120319593Y-117124102D01*
X120319594Y-117124103D01*
X120319595Y-117124104D01*
X120438558Y-117229497D01*
X120438559Y-117229498D01*
X120438561Y-117229499D01*
X120579297Y-117303363D01*
X120733619Y-117341400D01*
X120733623Y-117341400D01*
X120892557Y-117341400D01*
X120892561Y-117341400D01*
X121046883Y-117303363D01*
X121187619Y-117229499D01*
X121306588Y-117124101D01*
X121396877Y-116993295D01*
X121453239Y-116844682D01*
X121472397Y-116686900D01*
X121453239Y-116529118D01*
X121396877Y-116380505D01*
X121306588Y-116249699D01*
X121306585Y-116249696D01*
X121306584Y-116249695D01*
X121187621Y-116144302D01*
X121187620Y-116144301D01*
X121046885Y-116070438D01*
X121046884Y-116070437D01*
X121046883Y-116070437D01*
X120968636Y-116051151D01*
X120892563Y-116032400D01*
X120892561Y-116032400D01*
X120733619Y-116032400D01*
X120733616Y-116032400D01*
X120619505Y-116060526D01*
X120579297Y-116070437D01*
X120579296Y-116070437D01*
X120579294Y-116070438D01*
X120438559Y-116144301D01*
X120438558Y-116144302D01*
X120319595Y-116249695D01*
X120319594Y-116249696D01*
X120229302Y-116380506D01*
X120172941Y-116529118D01*
X120153783Y-116686899D01*
X84878110Y-116686899D01*
X84878110Y-116367965D01*
X84897323Y-116308834D01*
X84947623Y-116272289D01*
X85009797Y-116272289D01*
X85046485Y-116293622D01*
X85056528Y-116302778D01*
X85056532Y-116302781D01*
X85056538Y-116302786D01*
X85230573Y-116410544D01*
X85421444Y-116484488D01*
X85470824Y-116493718D01*
X85622651Y-116522100D01*
X85622653Y-116522100D01*
X85827348Y-116522100D01*
X85903261Y-116507909D01*
X86028556Y-116484488D01*
X86219427Y-116410544D01*
X86393462Y-116302786D01*
X86403515Y-116293622D01*
X86426916Y-116272289D01*
X86544732Y-116164885D01*
X86668088Y-116001535D01*
X86759328Y-115818301D01*
X86815345Y-115621421D01*
X86834232Y-115417600D01*
X86815345Y-115213779D01*
X86759328Y-115016899D01*
X86668088Y-114833665D01*
X86544732Y-114670315D01*
X86544731Y-114670314D01*
X86393471Y-114532421D01*
X86393466Y-114532417D01*
X86393462Y-114532414D01*
X86219427Y-114424656D01*
X86219423Y-114424654D01*
X86028554Y-114350711D01*
X86028549Y-114350710D01*
X85827349Y-114313100D01*
X85827347Y-114313100D01*
X85622653Y-114313100D01*
X85622651Y-114313100D01*
X85421450Y-114350710D01*
X85421445Y-114350711D01*
X85230576Y-114424654D01*
X85230572Y-114424656D01*
X85161807Y-114467234D01*
X85056538Y-114532414D01*
X85056536Y-114532415D01*
X85056537Y-114532415D01*
X85056528Y-114532421D01*
X85046482Y-114541580D01*
X84989839Y-114567217D01*
X84928945Y-114554663D01*
X84887060Y-114508715D01*
X84878110Y-114467236D01*
X84878110Y-114302850D01*
X84897323Y-114243722D01*
X84907569Y-114231724D01*
X85211739Y-113927553D01*
X85267135Y-113899329D01*
X85319211Y-113904882D01*
X85421444Y-113944488D01*
X85470824Y-113953718D01*
X85622651Y-113982100D01*
X85622653Y-113982100D01*
X85827348Y-113982100D01*
X85903261Y-113967909D01*
X86028556Y-113944488D01*
X86219427Y-113870544D01*
X86393462Y-113762786D01*
X86544732Y-113624885D01*
X86668088Y-113461535D01*
X86759328Y-113278301D01*
X86815345Y-113081421D01*
X86834232Y-112877600D01*
X86815345Y-112673779D01*
X86759328Y-112476899D01*
X86668088Y-112293665D01*
X86544732Y-112130315D01*
X86477936Y-112069422D01*
X86393471Y-111992421D01*
X86393466Y-111992417D01*
X86393462Y-111992414D01*
X86219427Y-111884656D01*
X86219423Y-111884654D01*
X86028554Y-111810711D01*
X86028549Y-111810710D01*
X85827349Y-111773100D01*
X85827347Y-111773100D01*
X85622653Y-111773100D01*
X85622651Y-111773100D01*
X85421450Y-111810710D01*
X85421445Y-111810711D01*
X85230576Y-111884654D01*
X85230572Y-111884656D01*
X85123952Y-111950673D01*
X85056538Y-111992414D01*
X85056536Y-111992415D01*
X85056537Y-111992415D01*
X85056528Y-111992421D01*
X84905268Y-112130314D01*
X84781910Y-112293668D01*
X84781909Y-112293669D01*
X84690673Y-112476895D01*
X84690672Y-112476896D01*
X84634654Y-112673782D01*
X84628870Y-112736199D01*
X84604282Y-112793305D01*
X84550824Y-112825052D01*
X84488915Y-112819314D01*
X84442202Y-112778283D01*
X84428100Y-112726918D01*
X84428100Y-112212862D01*
X84447313Y-112153731D01*
X84457559Y-112141733D01*
X85211739Y-111387553D01*
X85267135Y-111359329D01*
X85319211Y-111364882D01*
X85421444Y-111404488D01*
X85470824Y-111413718D01*
X85622651Y-111442100D01*
X85622653Y-111442100D01*
X85827348Y-111442100D01*
X85903261Y-111427909D01*
X86028556Y-111404488D01*
X86219427Y-111330544D01*
X86393462Y-111222786D01*
X86544732Y-111084885D01*
X86668088Y-110921535D01*
X86759328Y-110738301D01*
X86815345Y-110541421D01*
X86834232Y-110337600D01*
X86815345Y-110133779D01*
X86759328Y-109936899D01*
X86668088Y-109753665D01*
X86544732Y-109590315D01*
X86494749Y-109544749D01*
X86393471Y-109452421D01*
X86393466Y-109452417D01*
X86393462Y-109452414D01*
X86219427Y-109344656D01*
X86219423Y-109344654D01*
X86028554Y-109270711D01*
X86028549Y-109270710D01*
X85827349Y-109233100D01*
X85827347Y-109233100D01*
X85622653Y-109233100D01*
X85622651Y-109233100D01*
X85421450Y-109270710D01*
X85421445Y-109270711D01*
X85230576Y-109344654D01*
X85230572Y-109344656D01*
X85128560Y-109407820D01*
X85056538Y-109452414D01*
X85056536Y-109452415D01*
X85056537Y-109452415D01*
X85056528Y-109452421D01*
X84905268Y-109590314D01*
X84835908Y-109682163D01*
X84793709Y-109738044D01*
X84781910Y-109753668D01*
X84781909Y-109753669D01*
X84690673Y-109936895D01*
X84690672Y-109936896D01*
X84634654Y-110133782D01*
X84634654Y-110133783D01*
X84615768Y-110337599D01*
X84634654Y-110541416D01*
X84634654Y-110541417D01*
X84690672Y-110738303D01*
X84692350Y-110742632D01*
X84691344Y-110743021D01*
X84699790Y-110799704D01*
X84671712Y-110854192D01*
X83815458Y-111710446D01*
X83799352Y-111723526D01*
X83788018Y-111730931D01*
X83765511Y-111759847D01*
X83761391Y-111764513D01*
X83758021Y-111767883D01*
X83758019Y-111767887D01*
X83744305Y-111787093D01*
X83710470Y-111830566D01*
X83710222Y-111830885D01*
X83706451Y-111837851D01*
X83702946Y-111845022D01*
X83699088Y-111857983D01*
X83687120Y-111898182D01*
X83679646Y-111919954D01*
X83669099Y-111950673D01*
X83667793Y-111958503D01*
X83666807Y-111966411D01*
X83669100Y-112021825D01*
X83669100Y-144272988D01*
X83666959Y-144293634D01*
X83664180Y-144306883D01*
X83082500Y-144306883D01*
X83082500Y-108672665D01*
X84620500Y-108672665D01*
X84635266Y-108746901D01*
X84635267Y-108746904D01*
X84691514Y-108831082D01*
X84691515Y-108831083D01*
X84691516Y-108831084D01*
X84775699Y-108887334D01*
X84849933Y-108902100D01*
X86600066Y-108902099D01*
X86674301Y-108887334D01*
X86758484Y-108831084D01*
X86814734Y-108746901D01*
X86829500Y-108672667D01*
X86829499Y-108580489D01*
X86848711Y-108521361D01*
X86899011Y-108484815D01*
X86961185Y-108484814D01*
X87001233Y-108509355D01*
X88997033Y-110505156D01*
X89025258Y-110560552D01*
X89026497Y-110576289D01*
X89026497Y-115089899D01*
X89007284Y-115149030D01*
X88992609Y-115165198D01*
X88914501Y-115234397D01*
X88824210Y-115365206D01*
X88815376Y-115388500D01*
X88767849Y-115513818D01*
X88748691Y-115671600D01*
X88767849Y-115829382D01*
X88824211Y-115977995D01*
X88914500Y-116108801D01*
X88914501Y-116108802D01*
X88914502Y-116108803D01*
X88914503Y-116108804D01*
X89033466Y-116214197D01*
X89033467Y-116214198D01*
X89033469Y-116214199D01*
X89174205Y-116288063D01*
X89328527Y-116326100D01*
X89328531Y-116326100D01*
X89487465Y-116326100D01*
X89487469Y-116326100D01*
X89641791Y-116288063D01*
X89782527Y-116214199D01*
X89901496Y-116108801D01*
X89991785Y-115977995D01*
X90048147Y-115829382D01*
X90067305Y-115671600D01*
X90048147Y-115513818D01*
X89991785Y-115365205D01*
X89901496Y-115234399D01*
X89901493Y-115234396D01*
X89901491Y-115234394D01*
X89823387Y-115165198D01*
X89791868Y-115111606D01*
X89789498Y-115089899D01*
X89789498Y-113605772D01*
X92633788Y-113605772D01*
X92663413Y-113875018D01*
X92731928Y-114137088D01*
X92837870Y-114386391D01*
X92910000Y-114504579D01*
X92978982Y-114617610D01*
X93068252Y-114724880D01*
X93152256Y-114825821D01*
X93152257Y-114825822D01*
X93353992Y-115006577D01*
X93354002Y-115006585D01*
X93579907Y-115156043D01*
X93579912Y-115156045D01*
X93747045Y-115234394D01*
X93825176Y-115271020D01*
X94084569Y-115349060D01*
X94084570Y-115349060D01*
X94084573Y-115349061D01*
X94240782Y-115372049D01*
X94352561Y-115388500D01*
X94352563Y-115388500D01*
X94555634Y-115388500D01*
X94581681Y-115386593D01*
X94758156Y-115373677D01*
X95022553Y-115314780D01*
X95275558Y-115218014D01*
X95511777Y-115085441D01*
X95726177Y-114919888D01*
X95914186Y-114724881D01*
X96071799Y-114504579D01*
X96195656Y-114263675D01*
X96283118Y-114007305D01*
X96332319Y-113740933D01*
X96342212Y-113470235D01*
X96312586Y-113200982D01*
X96244072Y-112938912D01*
X96138130Y-112689610D01*
X96128468Y-112673779D01*
X95997017Y-112458389D01*
X95989013Y-112448771D01*
X95823745Y-112250180D01*
X95823742Y-112250177D01*
X95622007Y-112069422D01*
X95621997Y-112069414D01*
X95396092Y-111919956D01*
X95396087Y-111919954D01*
X95150832Y-111804983D01*
X95150828Y-111804982D01*
X95150824Y-111804980D01*
X94990931Y-111756875D01*
X94891426Y-111726938D01*
X94674049Y-111694948D01*
X94623439Y-111687500D01*
X94420369Y-111687500D01*
X94420366Y-111687500D01*
X94350228Y-111692633D01*
X94217844Y-111702323D01*
X94217841Y-111702323D01*
X94217836Y-111702324D01*
X93953451Y-111761218D01*
X93953450Y-111761218D01*
X93700446Y-111857983D01*
X93700440Y-111857986D01*
X93464227Y-111990556D01*
X93464221Y-111990560D01*
X93249819Y-112156114D01*
X93061813Y-112351119D01*
X92904201Y-112571420D01*
X92780342Y-112812327D01*
X92692881Y-113068695D01*
X92643680Y-113335073D01*
X92633788Y-113605765D01*
X92633788Y-113605772D01*
X89789498Y-113605772D01*
X89789498Y-110426599D01*
X89791639Y-110405952D01*
X89794443Y-110392579D01*
X89789885Y-110356015D01*
X89789498Y-110349786D01*
X89789498Y-110344989D01*
X89789498Y-110344987D01*
X89785594Y-110321593D01*
X89778694Y-110266238D01*
X89778694Y-110266237D01*
X89776416Y-110258586D01*
X89773816Y-110251015D01*
X89773816Y-110251012D01*
X89747268Y-110201956D01*
X89722774Y-110151852D01*
X89722771Y-110151849D01*
X89718119Y-110145332D01*
X89713216Y-110139034D01*
X89672179Y-110101257D01*
X88531980Y-108961057D01*
X93826392Y-108961057D01*
X93856668Y-109132752D01*
X93856668Y-109132753D01*
X93925720Y-109292837D01*
X94011324Y-109407822D01*
X94029832Y-109432683D01*
X94163386Y-109544749D01*
X94319185Y-109622994D01*
X94488826Y-109663199D01*
X94488826Y-109663200D01*
X94488829Y-109663200D01*
X94619438Y-109663200D01*
X94684300Y-109655618D01*
X94749164Y-109648037D01*
X94912993Y-109588408D01*
X95058654Y-109492605D01*
X95079855Y-109470134D01*
X95178292Y-109365797D01*
X95178296Y-109365793D01*
X95265467Y-109214807D01*
X95315469Y-109047788D01*
X95325607Y-108873740D01*
X95295332Y-108702046D01*
X95226279Y-108541962D01*
X95122168Y-108402117D01*
X94988614Y-108290051D01*
X94832815Y-108211806D01*
X94832813Y-108211805D01*
X94832812Y-108211805D01*
X94663173Y-108171600D01*
X94663171Y-108171600D01*
X94532564Y-108171600D01*
X94532562Y-108171600D01*
X94402837Y-108186762D01*
X94239007Y-108246391D01*
X94093343Y-108342197D01*
X94093340Y-108342199D01*
X93973707Y-108469002D01*
X93973699Y-108469013D01*
X93886537Y-108619984D01*
X93886533Y-108619993D01*
X93836531Y-108787012D01*
X93826392Y-108961057D01*
X88531980Y-108961057D01*
X87515980Y-107945057D01*
X88746392Y-107945057D01*
X88776668Y-108116752D01*
X88776668Y-108116753D01*
X88845720Y-108276837D01*
X88894381Y-108342199D01*
X88949832Y-108416683D01*
X89083386Y-108528749D01*
X89239185Y-108606994D01*
X89408826Y-108647199D01*
X89408826Y-108647200D01*
X89408829Y-108647200D01*
X89539438Y-108647200D01*
X89604300Y-108639618D01*
X89669164Y-108632037D01*
X89832993Y-108572408D01*
X89978654Y-108476605D01*
X89985823Y-108469007D01*
X90098292Y-108349797D01*
X90098296Y-108349793D01*
X90185467Y-108198807D01*
X90235469Y-108031788D01*
X90245607Y-107857740D01*
X90215332Y-107686046D01*
X90146279Y-107525962D01*
X90042168Y-107386117D01*
X89908614Y-107274051D01*
X89752815Y-107195806D01*
X89752813Y-107195805D01*
X89752812Y-107195805D01*
X89583173Y-107155600D01*
X89583171Y-107155600D01*
X89452564Y-107155600D01*
X89452562Y-107155600D01*
X89322837Y-107170762D01*
X89159007Y-107230391D01*
X89013343Y-107326197D01*
X89013340Y-107326199D01*
X88893707Y-107453002D01*
X88893699Y-107453013D01*
X88806537Y-107603984D01*
X88806533Y-107603993D01*
X88756531Y-107771012D01*
X88746392Y-107945057D01*
X87515980Y-107945057D01*
X87134116Y-107563193D01*
X87121032Y-107547081D01*
X87113561Y-107535645D01*
X87113556Y-107535640D01*
X87084482Y-107513012D01*
X87079804Y-107508881D01*
X87076408Y-107505485D01*
X87076409Y-107505485D01*
X87066754Y-107498592D01*
X87057099Y-107491699D01*
X87013085Y-107457442D01*
X87013084Y-107457441D01*
X87013082Y-107457440D01*
X87006064Y-107453642D01*
X86998868Y-107450124D01*
X86945413Y-107434210D01*
X86897432Y-107417738D01*
X86847744Y-107380365D01*
X86829499Y-107322589D01*
X86829499Y-106929057D01*
X93826392Y-106929057D01*
X93856668Y-107100752D01*
X93856668Y-107100753D01*
X93925720Y-107260837D01*
X94025099Y-107394325D01*
X94029832Y-107400683D01*
X94163386Y-107512749D01*
X94319185Y-107590994D01*
X94488826Y-107631199D01*
X94488826Y-107631200D01*
X94488829Y-107631200D01*
X94619438Y-107631200D01*
X94684300Y-107623618D01*
X94749164Y-107616037D01*
X94912993Y-107556408D01*
X95058654Y-107460605D01*
X95065224Y-107453642D01*
X95178292Y-107333797D01*
X95178296Y-107333793D01*
X95265467Y-107182807D01*
X95315469Y-107015788D01*
X95325607Y-106841740D01*
X95295332Y-106670046D01*
X95226279Y-106509962D01*
X95122168Y-106370117D01*
X94988614Y-106258051D01*
X94832815Y-106179806D01*
X94832813Y-106179805D01*
X94832812Y-106179805D01*
X94663173Y-106139600D01*
X94663171Y-106139600D01*
X94532564Y-106139600D01*
X94532562Y-106139600D01*
X94402837Y-106154762D01*
X94239007Y-106214391D01*
X94093343Y-106310197D01*
X94093340Y-106310199D01*
X93973707Y-106437002D01*
X93973699Y-106437013D01*
X93886537Y-106587984D01*
X93886533Y-106587993D01*
X93836531Y-106755012D01*
X93826392Y-106929057D01*
X86829499Y-106929057D01*
X86829499Y-106922534D01*
X86829498Y-106922533D01*
X86814734Y-106848299D01*
X86814732Y-106848297D01*
X86814732Y-106848295D01*
X86758485Y-106764117D01*
X86758483Y-106764115D01*
X86674302Y-106707867D01*
X86674301Y-106707866D01*
X86674300Y-106707865D01*
X86674299Y-106707865D01*
X86618498Y-106696766D01*
X86600067Y-106693100D01*
X86600066Y-106693100D01*
X84849934Y-106693100D01*
X84775698Y-106707866D01*
X84775695Y-106707867D01*
X84691517Y-106764114D01*
X84691515Y-106764116D01*
X84635265Y-106848300D01*
X84620500Y-106922533D01*
X84620500Y-108672665D01*
X83082500Y-108672665D01*
X83082500Y-106969651D01*
X83082608Y-106966360D01*
X83098962Y-106716829D01*
X83099822Y-106710299D01*
X83100307Y-106707865D01*
X83148285Y-106466663D01*
X83149983Y-106460321D01*
X83229838Y-106225076D01*
X83232355Y-106219003D01*
X83342223Y-105996210D01*
X83345516Y-105990506D01*
X83483533Y-105783950D01*
X83487520Y-105778753D01*
X83651328Y-105591965D01*
X83655965Y-105587328D01*
X83842753Y-105423520D01*
X83847950Y-105419533D01*
X84054511Y-105281512D01*
X84060206Y-105278225D01*
X84283009Y-105168351D01*
X84289083Y-105165836D01*
X84302338Y-105161336D01*
X84334669Y-105156000D01*
X99594400Y-105156000D01*
X99653531Y-105175213D01*
X99690076Y-105225513D01*
X99695000Y-105256600D01*
X99695000Y-113538000D01*
X110617000Y-113538000D01*
X110617000Y-108187772D01*
X119775788Y-108187772D01*
X119805413Y-108457018D01*
X119873928Y-108719088D01*
X119979870Y-108968391D01*
X120080180Y-109132754D01*
X120120982Y-109199610D01*
X120210252Y-109306880D01*
X120294256Y-109407821D01*
X120294257Y-109407822D01*
X120495992Y-109588577D01*
X120496002Y-109588585D01*
X120721907Y-109738043D01*
X120721912Y-109738045D01*
X120755232Y-109753665D01*
X120967176Y-109853020D01*
X121226569Y-109931060D01*
X121226570Y-109931060D01*
X121226573Y-109931061D01*
X121382782Y-109954049D01*
X121494561Y-109970500D01*
X121494563Y-109970500D01*
X121697634Y-109970500D01*
X121723681Y-109968593D01*
X121900156Y-109955677D01*
X122164553Y-109896780D01*
X122417558Y-109800014D01*
X122653777Y-109667441D01*
X122868177Y-109501888D01*
X123056186Y-109306881D01*
X123213799Y-109086579D01*
X123337656Y-108845675D01*
X123425118Y-108589305D01*
X123474319Y-108322933D01*
X123484212Y-108052235D01*
X123454586Y-107782982D01*
X123386072Y-107520912D01*
X123280130Y-107271610D01*
X123273555Y-107260837D01*
X123175857Y-107100753D01*
X123139018Y-107040390D01*
X122965745Y-106832180D01*
X122889779Y-106764114D01*
X122764007Y-106651422D01*
X122763997Y-106651414D01*
X122538092Y-106501956D01*
X122538087Y-106501954D01*
X122292832Y-106386983D01*
X122292828Y-106386982D01*
X122292824Y-106386980D01*
X122132931Y-106338875D01*
X122033426Y-106308938D01*
X121816049Y-106276948D01*
X121765439Y-106269500D01*
X121562369Y-106269500D01*
X121562366Y-106269500D01*
X121492228Y-106274633D01*
X121359844Y-106284323D01*
X121359841Y-106284323D01*
X121359836Y-106284324D01*
X121095451Y-106343218D01*
X121095450Y-106343218D01*
X120842446Y-106439983D01*
X120842440Y-106439986D01*
X120606227Y-106572556D01*
X120606221Y-106572560D01*
X120391819Y-106738114D01*
X120203813Y-106933119D01*
X120046201Y-107153420D01*
X119922342Y-107394327D01*
X119834881Y-107650695D01*
X119785680Y-107917073D01*
X119775788Y-108187765D01*
X119775788Y-108187772D01*
X110617000Y-108187772D01*
X110617000Y-105129600D01*
X110636213Y-105070469D01*
X110686513Y-105033924D01*
X110717600Y-105029000D01*
X123490548Y-105029000D01*
X123493838Y-105029108D01*
G37*
G04 #@! TD.AperFunction*
M02*
