M48
; DRILL file {KiCad 7.0.9} date 
; FORMAT={-:-/ absolute / metric / decimal}
; #@! TF.CreationDate,2023-12-30T12:31:23+01:00
; #@! TF.GenerationSoftware,Kicad,Pcbnew,7.0.9
; #@! TF.FileFunction,Plated,1,4,PTH
FMAT,2
METRIC
; #@! TA.AperFunction,Plated,PTH,ViaDrill
T1C0.400
; #@! TA.AperFunction,Plated,PTH,ComponentDrill
T2C1.000
%
G90
G05
T1
X84.531Y-144.805
X85.039Y-143.561
X86.741Y-128.27
X88.2Y-117.4
X88.7Y-133.3
X88.7Y-138.45
X89.154Y-148.59
X89.4Y-147.35
X89.408Y-115.672
X89.775Y-129.2
X90.7Y-135.6
X92.9Y-138.05
X94.0Y-123.317
X95.148Y-139.751
X95.148Y-141.275
X95.148Y-142.799
X96.647Y-139.751
X96.647Y-141.275
X96.647Y-142.799
X97.5Y-124.1
X98.171Y-139.751
X98.171Y-141.275
X98.171Y-142.799
X99.1Y-117.2
X100.7Y-105.918
X100.7Y-107.442
X100.7Y-109.093
X100.7Y-110.871
X100.7Y-112.5
X102.432Y-138.568
X102.5Y-112.5
X102.852Y-132.715
X104.2Y-128.8
X104.278Y-112.5
X104.9Y-127.7
X105.3Y-117.4
X105.8Y-112.5
X106.172Y-147.32
X106.172Y-148.59
X106.426Y-114.2
X106.426Y-115.9
X106.849Y-137.185
X108.175Y-139.725
X108.458Y-112.5
X108.458Y-153.416
X108.631Y-148.751
X108.995Y-114.2
X109.024Y-115.9
X109.1Y-117.45
X109.132Y-127.668
X110.071Y-112.5
X110.49Y-151.892
X110.532Y-124.054
X110.532Y-134.268
X111.632Y-124.054
X111.632Y-134.268
X111.849Y-112.5
X112.732Y-124.054
X112.732Y-134.268
X113.5Y-105.918
X113.5Y-107.442
X113.5Y-109.093
X113.5Y-110.871
X113.5Y-112.5
X113.538Y-150.622
X113.538Y-155.448
X113.7Y-119.1
X113.792Y-143.764
X113.792Y-145.796
X114.681Y-144.78
X114.681Y-147.32
X114.75Y-121.65
X116.697Y-120.539
X116.85Y-131.8
X118.25Y-138.8
X118.596Y-127.676
X119.4Y-129.0
X120.532Y-120.468
X120.813Y-116.687
X122.682Y-119.761
X122.682Y-127.698
X123.29Y-131.44
X123.3Y-129.05
X123.3Y-134.01
T2
X85.725Y-107.798
X85.725Y-110.338
X85.725Y-112.878
X85.725Y-115.418
X85.725Y-117.958
X85.725Y-120.498
X85.725Y-123.038
X107.101Y-109.251
T0
M30
